M48
; DRILL file {KiCad 7.0.1} date Sat May 27 07:40:09 2023
; FORMAT={-:-/ absolute / inch / decimal}
; #@! TF.CreationDate,2023-05-27T07:40:09-07:00
; #@! TF.GenerationSoftware,Kicad,Pcbnew,7.0.1
; #@! TF.FileFunction,Plated,1,4,PTH
FMAT,2
INCH
; #@! TA.AperFunction,Plated,PTH,ViaDrill
T1C0.0118
; #@! TA.AperFunction,Plated,PTH,ViaDrill
T2C0.0197
; #@! TA.AperFunction,Plated,PTH,ComponentDrill
T3C0.0197
; #@! TA.AperFunction,Plated,PTH,ComponentDrill
T4C0.0200
; #@! TA.AperFunction,Plated,PTH,ComponentDrill
T5C0.0217
; #@! TA.AperFunction,Plated,PTH,ComponentDrill
T6C0.0320
; #@! TA.AperFunction,Plated,PTH,ComponentDrill
T7C0.0354
; #@! TA.AperFunction,Plated,PTH,ComponentDrill
T8C0.0480
; #@! TA.AperFunction,Plated,PTH,ComponentDrill
T9C0.1285
%
G90
G05
T1
X4.457Y-3.547
X4.487Y-3.625
X4.493Y-3.661
X4.521Y-3.487
X4.637Y-3.607
X4.863Y-3.606
X4.867Y-3.687
X4.947Y-3.529
X5.032Y-3.298
X5.183Y-3.691
X5.215Y-3.631
X5.224Y-3.668
X5.252Y-3.541
X5.264Y-3.673
X5.265Y-3.586
X5.287Y-3.506
X5.295Y-3.862
X5.299Y-3.559
X5.348Y-3.854
X5.36Y-3.822
X5.38Y-3.65
X5.381Y-3.599
X5.382Y-3.699
X5.403Y-3.871
X5.427Y-3.599
X5.428Y-3.649
X5.429Y-3.698
X5.476Y-3.6
X5.477Y-3.648
X5.477Y-3.698
X5.477Y-3.928
X5.478Y-3.359
X5.487Y-3.831
X5.507Y-3.862
X5.514Y-3.795
X5.539Y-3.392
X5.557Y-3.854
X5.5933Y-3.6977
X5.65Y-3.634
X5.66Y-3.479
X5.684Y-3.646
X5.716Y-3.324
X5.717Y-3.595
X5.717Y-3.637
X5.722Y-3.536
X5.761Y-3.509
X5.793Y-3.628
X5.809Y-3.354
X5.845Y-3.598
X5.872Y-3.289
X5.873Y-3.552
X5.886Y-3.701
X5.905Y-3.312
X5.933Y-3.559
X5.946Y-3.375
X5.948Y-3.174
X6.069Y-3.336
X6.071Y-3.383
X6.079Y-3.528
X6.092Y-3.461
X6.24Y-3.7
T2
X4.297Y-3.859
X4.56Y-3.862
X5.016Y-4.082
X5.238Y-3.3
X5.273Y-3.357
T4
X5.322Y-3.2427
X5.3712Y-3.2427
X5.4204Y-3.2427
X5.4696Y-3.2427
X5.5188Y-3.2427
X5.568Y-3.2427
T6
X4.272Y-3.5763
X4.272Y-3.655
T7
X5.697Y-3.841
X5.9962Y-3.841
T8
X4.5263Y-3.3611
X4.532Y-3.92
X4.6641Y-3.3611
X4.6698Y-3.92
X4.8019Y-3.3611
X4.8076Y-3.92
X4.9397Y-3.3611
X4.9454Y-3.92
T9
X4.309Y-3.265
X4.309Y-4.02
X6.26Y-3.265
X6.26Y-4.02
T3
G00X5.136Y-4.0512
M15
G01X5.136Y-4.0768
M16
G05
G00X5.4116Y-4.0512
M15
G01X5.4116Y-4.0768
M16
G05
T5
G00X5.1695Y-3.9577
M15
G01X5.1813Y-3.9577
M16
G05
G00X5.3663Y-3.9577
M15
G01X5.3781Y-3.9577
M16
G05
T0
M30
