%TF.GenerationSoftware,KiCad,Pcbnew,7.0.1*%
%TF.CreationDate,2023-05-27T07:40:04-07:00*%
%TF.ProjectId,Base-Flight-Computer-Test,42617365-2d46-46c6-9967-68742d436f6d,rev?*%
%TF.SameCoordinates,Original*%
%TF.FileFunction,Copper,L2,Inr*%
%TF.FilePolarity,Positive*%
%FSLAX46Y46*%
G04 Gerber Fmt 4.6, Leading zero omitted, Abs format (unit mm)*
G04 Created by KiCad (PCBNEW 7.0.1) date 2023-05-27 07:40:04*
%MOMM*%
%LPD*%
G01*
G04 APERTURE LIST*
%TA.AperFunction,ComponentPad*%
%ADD10O,1.300000X1.016000*%
%TD*%
%TA.AperFunction,ComponentPad*%
%ADD11O,1.016000X1.778000*%
%TD*%
%TA.AperFunction,ComponentPad*%
%ADD12C,5.588000*%
%TD*%
%TA.AperFunction,ComponentPad*%
%ADD13O,1.016000X2.032000*%
%TD*%
%TA.AperFunction,ComponentPad*%
%ADD14C,1.408000*%
%TD*%
%TA.AperFunction,ComponentPad*%
%ADD15C,1.320800*%
%TD*%
%TA.AperFunction,ComponentPad*%
%ADD16C,1.727200*%
%TD*%
%TA.AperFunction,ViaPad*%
%ADD17C,0.600000*%
%TD*%
%TA.AperFunction,ViaPad*%
%ADD18C,1.000000*%
%TD*%
G04 APERTURE END LIST*
D10*
%TO.N,Earth*%
%TO.C,P2*%
X131454400Y-100525600D03*
X136454400Y-100525600D03*
D11*
X130454400Y-103225600D03*
X137454400Y-103225600D03*
%TD*%
D12*
%TO.N,Earth*%
%TO.C,H4*%
X109448600Y-102108000D03*
%TD*%
D13*
%TO.N,3.3V*%
%TO.C,P3*%
X135178000Y-82365000D03*
%TO.N,SWDIO*%
X136428000Y-82365000D03*
%TO.N,SWCLK*%
X137678000Y-82365000D03*
%TO.N,SWO*%
X138928000Y-82365000D03*
%TO.N,NRST*%
X140178000Y-82365000D03*
%TO.N,Earth*%
X141428000Y-82365000D03*
%TD*%
D14*
%TO.N,VIN*%
%TO.C,BZ1*%
X144703800Y-97561400D03*
%TO.N,Net-(BZ1-+)*%
X152303800Y-97561400D03*
%TD*%
D15*
%TO.N,Earth*%
%TO.C,P5*%
X108508800Y-92837001D03*
%TO.N,Net-(P5-6)*%
X108508800Y-90836999D03*
%TD*%
D12*
%TO.N,Earth*%
%TO.C,H3*%
X159004000Y-102108000D03*
%TD*%
D16*
%TO.N,VIN_SW*%
%TO.C,P1*%
X125467400Y-85372600D03*
%TO.N,Net-(P1A-6)*%
X121967399Y-85372600D03*
%TO.N,Earth*%
X118467399Y-85372600D03*
%TO.N,Net-(P1B-6)*%
X114967398Y-85372600D03*
%TD*%
D12*
%TO.N,Earth*%
%TO.C,H1*%
X159004000Y-82931000D03*
%TD*%
D16*
%TO.N,VIN_SW*%
%TO.C,P4*%
X115112800Y-99568000D03*
%TO.N,Net-(P4A-6)*%
X118612801Y-99568000D03*
%TO.N,VIN*%
X122112801Y-99568000D03*
%TO.N,VIN_SW*%
X125612802Y-99568000D03*
%TD*%
D12*
%TO.N,Earth*%
%TO.C,H2*%
X109448600Y-82931000D03*
%TD*%
D17*
%TO.N,Earth*%
X123520200Y-91592400D03*
%TO.N,3.3V*%
X147548600Y-85191600D03*
%TO.N,Earth*%
X154736800Y-87909400D03*
X141147800Y-97891600D03*
X139115800Y-93929200D03*
X139115800Y-92659200D03*
X140690600Y-86156800D03*
X139141200Y-85318600D03*
X136677400Y-91414600D03*
X113969800Y-92075000D03*
X136652000Y-92710000D03*
X137896600Y-93929200D03*
X137845800Y-91414600D03*
X145186400Y-84429600D03*
X136702800Y-93954600D03*
X117779800Y-91617800D03*
D18*
X133045200Y-83820000D03*
D17*
X151028400Y-85725000D03*
X137871200Y-92684600D03*
X139090400Y-91440000D03*
%TO.N,3.3V*%
X127812800Y-83769200D03*
X134493000Y-98094800D03*
X154406600Y-89611200D03*
X131648200Y-93751400D03*
X114833400Y-88569800D03*
X154203400Y-85928200D03*
X143764000Y-88366600D03*
D18*
X115824000Y-98094800D03*
D17*
X151079200Y-80619600D03*
D18*
%TO.N,VIN*%
X133934200Y-85267800D03*
X127406400Y-103682800D03*
X109143800Y-98018600D03*
D17*
%TO.N,DROGUE*%
X134594600Y-90398600D03*
X114122200Y-92989400D03*
%TO.N,MAIN*%
X123621800Y-93649800D03*
X133400800Y-89941400D03*
%TO.N,BOOT*%
X144373600Y-92608400D03*
X149504400Y-94004907D03*
X158496000Y-93980000D03*
%TO.N,SWDIO*%
X139369800Y-97307400D03*
%TO.N,SWCLK*%
X140055600Y-96393000D03*
%TO.N,SWO*%
X142069185Y-93922215D03*
%TO.N,STATUS_B*%
X134289800Y-89052400D03*
X149148800Y-83540600D03*
%TO.N,STATUS_G*%
X149174200Y-90220800D03*
X154152600Y-84734400D03*
%TO.N,STATUS_R*%
X149987000Y-84124800D03*
X147142200Y-92151200D03*
%TO.N,~{FLASH_SS}*%
X132461000Y-92227400D03*
X145338800Y-89814400D03*
%TO.N,USB_DETECT*%
X139115800Y-99771200D03*
X137236200Y-98323400D03*
%TO.N,FLASH_SCK*%
X133731000Y-91084400D03*
X146329400Y-89128600D03*
%TO.N,BP_SCL*%
X135839200Y-97891600D03*
X150698200Y-90398600D03*
%TO.N,BP_SDA*%
X136144000Y-97078800D03*
X148463000Y-91389200D03*
%TO.N,~{MAIN_CONT}*%
X125653800Y-89636600D03*
X143510000Y-92303600D03*
%TO.N,~{DROGUE_CONT}*%
X113207800Y-90093800D03*
X139877800Y-98094800D03*
%TO.N,FLASH_MISO*%
X133705600Y-93294200D03*
X145211800Y-92379800D03*
%TO.N,FLASH_MOSI*%
X145211800Y-91313000D03*
X132689600Y-93167200D03*
%TD*%
%TA.AperFunction,Conductor*%
%TO.N,Earth*%
G36*
X107701118Y-79922890D02*
G01*
X107746443Y-79967726D01*
X107763499Y-80029157D01*
X107747777Y-80090942D01*
X107703435Y-80136750D01*
X107597340Y-80200584D01*
X107312969Y-80416757D01*
X107300101Y-80428945D01*
X107300101Y-80428947D01*
X109448600Y-82577446D01*
X109448601Y-82577446D01*
X111597097Y-80428947D01*
X111597097Y-80428946D01*
X111584226Y-80416755D01*
X111299859Y-80200584D01*
X111193765Y-80136750D01*
X111149423Y-80090942D01*
X111133701Y-80029157D01*
X111150757Y-79967726D01*
X111196082Y-79922890D01*
X111257694Y-79906500D01*
X150349546Y-79906500D01*
X150405841Y-79920015D01*
X150449864Y-79957615D01*
X150472019Y-80011102D01*
X150467477Y-80068818D01*
X150448751Y-80099375D01*
X150450523Y-80100489D01*
X150443090Y-80112317D01*
X150443089Y-80112319D01*
X150427738Y-80136750D01*
X150346157Y-80266584D01*
X150285982Y-80438555D01*
X150265583Y-80619600D01*
X150285982Y-80800644D01*
X150285982Y-80800646D01*
X150285983Y-80800647D01*
X150346157Y-80972615D01*
X150443089Y-81126881D01*
X150571919Y-81255711D01*
X150726185Y-81352643D01*
X150898153Y-81412817D01*
X151079200Y-81433216D01*
X151260247Y-81412817D01*
X151432215Y-81352643D01*
X151586481Y-81255711D01*
X151715311Y-81126881D01*
X151812243Y-80972615D01*
X151872417Y-80800647D01*
X151892816Y-80619600D01*
X151872417Y-80438553D01*
X151812243Y-80266585D01*
X151715311Y-80112319D01*
X151715309Y-80112317D01*
X151707877Y-80100489D01*
X151709648Y-80099375D01*
X151690923Y-80068818D01*
X151686381Y-80011102D01*
X151708536Y-79957615D01*
X151752559Y-79920015D01*
X151808854Y-79906500D01*
X157194906Y-79906500D01*
X157256518Y-79922890D01*
X157301843Y-79967726D01*
X157318899Y-80029157D01*
X157303177Y-80090942D01*
X157258835Y-80136750D01*
X157152740Y-80200584D01*
X156868369Y-80416757D01*
X156855501Y-80428945D01*
X156855501Y-80428947D01*
X159004000Y-82577446D01*
X159004001Y-82577446D01*
X161152497Y-80428947D01*
X161152497Y-80428946D01*
X161139626Y-80416755D01*
X160855259Y-80200584D01*
X160749165Y-80136750D01*
X160704823Y-80090942D01*
X160689101Y-80029157D01*
X160706157Y-79967726D01*
X160751482Y-79922890D01*
X160813094Y-79906500D01*
X161904500Y-79906500D01*
X161966500Y-79923113D01*
X162011887Y-79968500D01*
X162028500Y-80030500D01*
X162028500Y-81118256D01*
X162012771Y-81178698D01*
X161969576Y-81223808D01*
X161909871Y-81242140D01*
X161848804Y-81229044D01*
X161801867Y-81187843D01*
X161630185Y-80934631D01*
X161503301Y-80785252D01*
X161503300Y-80785251D01*
X159357553Y-82931000D01*
X159357553Y-82931001D01*
X161503300Y-85076746D01*
X161503301Y-85076746D01*
X161630184Y-84927368D01*
X161801867Y-84674156D01*
X161848804Y-84632955D01*
X161909872Y-84619859D01*
X161969576Y-84638191D01*
X162012771Y-84683301D01*
X162028500Y-84743743D01*
X162028500Y-100295256D01*
X162012771Y-100355698D01*
X161969576Y-100400808D01*
X161909871Y-100419140D01*
X161848804Y-100406044D01*
X161801867Y-100364843D01*
X161630185Y-100111631D01*
X161503301Y-99962252D01*
X161503300Y-99962251D01*
X159357553Y-102108000D01*
X159357553Y-102108001D01*
X161503300Y-104253746D01*
X161503301Y-104253746D01*
X161630184Y-104104368D01*
X161801867Y-103851156D01*
X161848804Y-103809955D01*
X161909872Y-103796859D01*
X161969576Y-103815191D01*
X162012771Y-103860301D01*
X162028500Y-103920743D01*
X162028500Y-105008500D01*
X162011887Y-105070500D01*
X161966500Y-105115887D01*
X161904500Y-105132500D01*
X160813094Y-105132500D01*
X160751482Y-105116110D01*
X160706157Y-105071274D01*
X160689101Y-105009843D01*
X160704823Y-104948058D01*
X160749165Y-104902250D01*
X160855259Y-104838415D01*
X161139626Y-104622244D01*
X161152497Y-104610052D01*
X161152497Y-104610051D01*
X159004001Y-102461553D01*
X159004000Y-102461553D01*
X156855501Y-104610051D01*
X156855501Y-104610052D01*
X156868373Y-104622244D01*
X157152740Y-104838415D01*
X157258835Y-104902250D01*
X157303177Y-104948058D01*
X157318899Y-105009843D01*
X157301843Y-105071274D01*
X157256518Y-105116110D01*
X157194906Y-105132500D01*
X111257694Y-105132500D01*
X111196082Y-105116110D01*
X111150757Y-105071274D01*
X111133701Y-105009843D01*
X111149423Y-104948058D01*
X111193765Y-104902250D01*
X111299859Y-104838415D01*
X111584226Y-104622244D01*
X111597097Y-104610052D01*
X111597097Y-104610051D01*
X109448601Y-102461553D01*
X109448600Y-102461553D01*
X107300101Y-104610051D01*
X107300101Y-104610052D01*
X107312973Y-104622244D01*
X107597340Y-104838415D01*
X107703435Y-104902250D01*
X107747777Y-104948058D01*
X107763499Y-105009843D01*
X107746443Y-105071274D01*
X107701118Y-105116110D01*
X107639506Y-105132500D01*
X106548100Y-105132500D01*
X106486100Y-105115887D01*
X106440713Y-105070500D01*
X106424100Y-105008500D01*
X106424100Y-103920744D01*
X106439829Y-103860302D01*
X106483024Y-103815192D01*
X106542729Y-103796860D01*
X106603796Y-103809956D01*
X106650733Y-103851157D01*
X106822414Y-104104368D01*
X106949297Y-104253746D01*
X106949298Y-104253747D01*
X109095046Y-102108001D01*
X109802153Y-102108001D01*
X111947900Y-104253746D01*
X111947901Y-104253746D01*
X112074784Y-104104368D01*
X112275232Y-103808731D01*
X112341996Y-103682800D01*
X126393020Y-103682800D01*
X126412491Y-103880498D01*
X126412492Y-103880501D01*
X126470159Y-104070604D01*
X126563805Y-104245804D01*
X126689832Y-104399368D01*
X126843396Y-104525395D01*
X127018596Y-104619041D01*
X127208699Y-104676708D01*
X127406400Y-104696180D01*
X127604101Y-104676708D01*
X127794204Y-104619041D01*
X127969404Y-104525395D01*
X128122968Y-104399368D01*
X128248995Y-104245804D01*
X128342641Y-104070604D01*
X128400308Y-103880501D01*
X128419780Y-103682800D01*
X128400308Y-103485099D01*
X128397427Y-103475600D01*
X129446400Y-103475600D01*
X129446400Y-103656118D01*
X129460985Y-103804204D01*
X129518623Y-103994211D01*
X129612223Y-104169322D01*
X129738187Y-104322812D01*
X129891677Y-104448776D01*
X130066789Y-104542376D01*
X130204398Y-104584119D01*
X130204400Y-104584119D01*
X130204400Y-103475600D01*
X130704400Y-103475600D01*
X130704400Y-104584119D01*
X130704401Y-104584119D01*
X130842010Y-104542376D01*
X131017122Y-104448776D01*
X131170612Y-104322812D01*
X131296576Y-104169322D01*
X131390176Y-103994211D01*
X131447814Y-103804204D01*
X131462400Y-103656118D01*
X131462400Y-103475600D01*
X136446400Y-103475600D01*
X136446400Y-103656118D01*
X136460985Y-103804204D01*
X136518623Y-103994211D01*
X136612223Y-104169322D01*
X136738187Y-104322812D01*
X136891677Y-104448776D01*
X137066789Y-104542376D01*
X137204398Y-104584119D01*
X137204400Y-104584119D01*
X137204400Y-103475600D01*
X137704400Y-103475600D01*
X137704400Y-104584119D01*
X137704401Y-104584119D01*
X137842010Y-104542376D01*
X138017122Y-104448776D01*
X138170612Y-104322812D01*
X138296576Y-104169322D01*
X138390176Y-103994211D01*
X138447814Y-103804204D01*
X138462400Y-103656118D01*
X138462400Y-103475600D01*
X137704400Y-103475600D01*
X137204400Y-103475600D01*
X136446400Y-103475600D01*
X131462400Y-103475600D01*
X130704400Y-103475600D01*
X130204400Y-103475600D01*
X129446400Y-103475600D01*
X128397427Y-103475600D01*
X128342641Y-103294996D01*
X128248995Y-103119796D01*
X128130656Y-102975600D01*
X129446400Y-102975600D01*
X130204400Y-102975600D01*
X130704400Y-102975600D01*
X131462400Y-102975600D01*
X136446400Y-102975600D01*
X137204400Y-102975600D01*
X137704400Y-102975600D01*
X138462400Y-102975600D01*
X138462400Y-102795082D01*
X138447814Y-102646995D01*
X138390176Y-102456988D01*
X138296576Y-102281877D01*
X138170612Y-102128387D01*
X138145769Y-102107999D01*
X155705161Y-102107999D01*
X155724499Y-102464660D01*
X155782288Y-102817158D01*
X155877845Y-103161325D01*
X156010055Y-103493147D01*
X156177364Y-103808724D01*
X156377819Y-104104374D01*
X156504697Y-104253746D01*
X156504698Y-104253747D01*
X158650446Y-102108001D01*
X158650446Y-102108000D01*
X156504698Y-99962251D01*
X156504697Y-99962252D01*
X156377819Y-100111625D01*
X156177364Y-100407275D01*
X156010055Y-100722852D01*
X155877845Y-101054674D01*
X155782288Y-101398841D01*
X155724499Y-101751339D01*
X155705161Y-102107999D01*
X138145769Y-102107999D01*
X138017122Y-102002423D01*
X137842010Y-101908823D01*
X137704401Y-101867080D01*
X137704400Y-101867081D01*
X137704400Y-102975600D01*
X137204400Y-102975600D01*
X137204400Y-101867081D01*
X137204398Y-101867080D01*
X137066789Y-101908823D01*
X136891677Y-102002423D01*
X136738187Y-102128387D01*
X136612223Y-102281877D01*
X136518623Y-102456988D01*
X136460985Y-102646995D01*
X136446400Y-102795082D01*
X136446400Y-102975600D01*
X131462400Y-102975600D01*
X131462400Y-102795082D01*
X131447814Y-102646995D01*
X131390176Y-102456988D01*
X131296576Y-102281877D01*
X131170612Y-102128387D01*
X131017122Y-102002423D01*
X130842010Y-101908823D01*
X130704401Y-101867080D01*
X130704400Y-101867081D01*
X130704400Y-102975600D01*
X130204400Y-102975600D01*
X130204400Y-101867081D01*
X130204398Y-101867080D01*
X130066789Y-101908823D01*
X129891677Y-102002423D01*
X129738187Y-102128387D01*
X129612223Y-102281877D01*
X129518623Y-102456988D01*
X129460985Y-102646995D01*
X129446400Y-102795082D01*
X129446400Y-102975600D01*
X128130656Y-102975600D01*
X128122968Y-102966232D01*
X127969404Y-102840205D01*
X127969403Y-102840204D01*
X127874790Y-102789633D01*
X127794204Y-102746559D01*
X127604101Y-102688892D01*
X127604098Y-102688891D01*
X127406400Y-102669420D01*
X127208701Y-102688891D01*
X127145331Y-102708114D01*
X127018596Y-102746559D01*
X127018592Y-102746560D01*
X127018592Y-102746561D01*
X126843396Y-102840204D01*
X126689832Y-102966232D01*
X126563804Y-103119796D01*
X126541607Y-103161325D01*
X126470159Y-103294996D01*
X126431714Y-103421731D01*
X126412491Y-103485101D01*
X126393020Y-103682800D01*
X112341996Y-103682800D01*
X112442544Y-103493147D01*
X112574754Y-103161325D01*
X112670311Y-102817158D01*
X112728100Y-102464660D01*
X112747438Y-102107999D01*
X112728100Y-101751339D01*
X112670311Y-101398841D01*
X112574754Y-101054674D01*
X112442544Y-100722852D01*
X112275235Y-100407275D01*
X112074780Y-100111625D01*
X111947901Y-99962252D01*
X111947900Y-99962251D01*
X109802153Y-102108000D01*
X109802153Y-102108001D01*
X109095046Y-102108001D01*
X109095046Y-102108000D01*
X106949298Y-99962251D01*
X106949297Y-99962252D01*
X106822414Y-100111630D01*
X106650733Y-100364843D01*
X106603796Y-100406044D01*
X106542729Y-100419140D01*
X106483024Y-100400808D01*
X106439829Y-100355698D01*
X106424100Y-100295256D01*
X106424100Y-99605947D01*
X107300101Y-99605947D01*
X109448598Y-101754446D01*
X109448599Y-101754446D01*
X111597097Y-99605947D01*
X111597097Y-99605946D01*
X111584226Y-99593755D01*
X111550346Y-99568000D01*
X113735997Y-99568000D01*
X113754775Y-99794609D01*
X113810597Y-100015048D01*
X113901939Y-100223285D01*
X114026310Y-100413649D01*
X114180317Y-100580946D01*
X114359761Y-100720612D01*
X114559745Y-100828839D01*
X114696879Y-100875916D01*
X114774811Y-100902671D01*
X114774813Y-100902671D01*
X114774815Y-100902672D01*
X114999105Y-100940100D01*
X115226494Y-100940100D01*
X115226495Y-100940100D01*
X115450785Y-100902672D01*
X115665855Y-100828839D01*
X115865839Y-100720612D01*
X116045283Y-100580946D01*
X116199290Y-100413649D01*
X116323661Y-100223285D01*
X116415003Y-100015047D01*
X116470824Y-99794614D01*
X116489602Y-99568000D01*
X117235998Y-99568000D01*
X117254776Y-99794609D01*
X117310598Y-100015048D01*
X117401940Y-100223285D01*
X117526311Y-100413649D01*
X117680318Y-100580946D01*
X117859762Y-100720612D01*
X118059746Y-100828839D01*
X118196880Y-100875916D01*
X118274812Y-100902671D01*
X118274814Y-100902671D01*
X118274816Y-100902672D01*
X118499106Y-100940100D01*
X118726495Y-100940100D01*
X118726496Y-100940100D01*
X118950786Y-100902672D01*
X119165856Y-100828839D01*
X119365840Y-100720612D01*
X119545284Y-100580946D01*
X119699291Y-100413649D01*
X119823662Y-100223285D01*
X119915004Y-100015047D01*
X119970825Y-99794614D01*
X119989603Y-99568000D01*
X120735998Y-99568000D01*
X120754776Y-99794609D01*
X120810598Y-100015048D01*
X120901940Y-100223285D01*
X121026311Y-100413649D01*
X121180318Y-100580946D01*
X121359762Y-100720612D01*
X121559746Y-100828839D01*
X121696880Y-100875916D01*
X121774812Y-100902671D01*
X121774814Y-100902671D01*
X121774816Y-100902672D01*
X121999106Y-100940100D01*
X122226495Y-100940100D01*
X122226496Y-100940100D01*
X122450786Y-100902672D01*
X122665856Y-100828839D01*
X122865840Y-100720612D01*
X123045284Y-100580946D01*
X123199291Y-100413649D01*
X123323662Y-100223285D01*
X123415004Y-100015047D01*
X123470825Y-99794614D01*
X123489603Y-99568000D01*
X124235999Y-99568000D01*
X124254777Y-99794609D01*
X124310599Y-100015048D01*
X124401941Y-100223285D01*
X124526312Y-100413649D01*
X124680319Y-100580946D01*
X124859763Y-100720612D01*
X125059747Y-100828839D01*
X125196881Y-100875916D01*
X125274813Y-100902671D01*
X125274815Y-100902671D01*
X125274817Y-100902672D01*
X125499107Y-100940100D01*
X125726496Y-100940100D01*
X125726497Y-100940100D01*
X125950787Y-100902672D01*
X126165857Y-100828839D01*
X126264231Y-100775601D01*
X130334880Y-100775601D01*
X130376623Y-100913210D01*
X130470223Y-101088322D01*
X130596187Y-101241812D01*
X130749677Y-101367776D01*
X130924788Y-101461376D01*
X131114794Y-101519014D01*
X131204400Y-101527839D01*
X131204400Y-100775600D01*
X131704400Y-100775600D01*
X131704400Y-101527839D01*
X131794005Y-101519014D01*
X131984011Y-101461376D01*
X132159122Y-101367776D01*
X132312612Y-101241812D01*
X132438576Y-101088322D01*
X132532176Y-100913210D01*
X132573919Y-100775601D01*
X135334880Y-100775601D01*
X135376623Y-100913210D01*
X135470223Y-101088322D01*
X135596187Y-101241812D01*
X135749677Y-101367776D01*
X135924788Y-101461376D01*
X136114794Y-101519014D01*
X136204400Y-101527839D01*
X136204400Y-100775600D01*
X136704400Y-100775600D01*
X136704400Y-101527839D01*
X136794005Y-101519014D01*
X136984011Y-101461376D01*
X137159122Y-101367776D01*
X137312612Y-101241812D01*
X137438576Y-101088322D01*
X137532176Y-100913210D01*
X137573919Y-100775601D01*
X137573919Y-100775600D01*
X136704400Y-100775600D01*
X136204400Y-100775600D01*
X135334881Y-100775600D01*
X135334880Y-100775601D01*
X132573919Y-100775601D01*
X132573919Y-100775600D01*
X131704400Y-100775600D01*
X131204400Y-100775600D01*
X130334881Y-100775600D01*
X130334880Y-100775601D01*
X126264231Y-100775601D01*
X126365841Y-100720612D01*
X126545285Y-100580946D01*
X126699292Y-100413649D01*
X126789485Y-100275598D01*
X130334880Y-100275598D01*
X130334881Y-100275600D01*
X131204400Y-100275600D01*
X131204400Y-99523360D01*
X131704400Y-99523360D01*
X131704400Y-100275600D01*
X132573919Y-100275600D01*
X132573919Y-100275598D01*
X135334880Y-100275598D01*
X135334881Y-100275600D01*
X136204400Y-100275600D01*
X136204400Y-99523360D01*
X136704400Y-99523360D01*
X136704400Y-100275600D01*
X137573919Y-100275600D01*
X137573919Y-100275598D01*
X137532176Y-100137989D01*
X137438576Y-99962877D01*
X137312612Y-99809387D01*
X137266079Y-99771199D01*
X138302183Y-99771199D01*
X138322582Y-99952244D01*
X138322582Y-99952246D01*
X138322583Y-99952247D01*
X138382757Y-100124215D01*
X138479689Y-100278481D01*
X138608519Y-100407311D01*
X138762785Y-100504243D01*
X138934753Y-100564417D01*
X139115800Y-100584816D01*
X139296847Y-100564417D01*
X139468815Y-100504243D01*
X139623081Y-100407311D01*
X139751911Y-100278481D01*
X139848843Y-100124215D01*
X139909017Y-99952247D01*
X139929416Y-99771200D01*
X139910797Y-99605947D01*
X156855501Y-99605947D01*
X159004000Y-101754446D01*
X159004001Y-101754446D01*
X161152497Y-99605947D01*
X161152497Y-99605946D01*
X161139626Y-99593755D01*
X160855259Y-99377584D01*
X160549201Y-99193435D01*
X160225028Y-99043457D01*
X159886533Y-98929404D01*
X159537692Y-98852619D01*
X159182596Y-98814000D01*
X158825404Y-98814000D01*
X158470307Y-98852619D01*
X158121466Y-98929404D01*
X157782971Y-99043457D01*
X157458798Y-99193435D01*
X157152740Y-99377584D01*
X156868369Y-99593757D01*
X156855501Y-99605945D01*
X156855501Y-99605947D01*
X139910797Y-99605947D01*
X139909017Y-99590153D01*
X139848843Y-99418185D01*
X139751911Y-99263919D01*
X139623081Y-99135089D01*
X139574948Y-99104845D01*
X139533535Y-99061853D01*
X139517009Y-99004490D01*
X139529202Y-98946051D01*
X139567288Y-98900083D01*
X139622441Y-98877238D01*
X139681874Y-98882810D01*
X139696753Y-98888017D01*
X139877800Y-98908416D01*
X140058847Y-98888017D01*
X140230815Y-98827843D01*
X140385081Y-98730911D01*
X140513911Y-98602081D01*
X140610843Y-98447815D01*
X140671017Y-98275847D01*
X140691416Y-98094800D01*
X140671017Y-97913753D01*
X140610843Y-97741785D01*
X140513911Y-97587519D01*
X140487792Y-97561400D01*
X143486667Y-97561400D01*
X143505158Y-97772750D01*
X143560070Y-97977685D01*
X143587535Y-98036582D01*
X143649733Y-98169966D01*
X143771423Y-98343757D01*
X143921443Y-98493777D01*
X144095234Y-98615467D01*
X144287516Y-98705130D01*
X144492447Y-98760041D01*
X144703800Y-98778532D01*
X144915153Y-98760041D01*
X145120084Y-98705130D01*
X145312366Y-98615467D01*
X145486157Y-98493777D01*
X145636177Y-98343757D01*
X145757867Y-98169966D01*
X145847530Y-97977684D01*
X145902441Y-97772753D01*
X145920932Y-97561400D01*
X151086667Y-97561400D01*
X151105158Y-97772750D01*
X151160070Y-97977685D01*
X151187535Y-98036582D01*
X151249733Y-98169966D01*
X151371423Y-98343757D01*
X151521443Y-98493777D01*
X151695234Y-98615467D01*
X151887516Y-98705130D01*
X152092447Y-98760041D01*
X152303800Y-98778532D01*
X152515153Y-98760041D01*
X152720084Y-98705130D01*
X152912366Y-98615467D01*
X153086157Y-98493777D01*
X153236177Y-98343757D01*
X153357867Y-98169966D01*
X153447530Y-97977684D01*
X153502441Y-97772753D01*
X153520932Y-97561400D01*
X153502441Y-97350047D01*
X153447530Y-97145116D01*
X153357867Y-96952834D01*
X153236177Y-96779043D01*
X153086157Y-96629023D01*
X152912366Y-96507333D01*
X152785646Y-96448242D01*
X152720085Y-96417670D01*
X152515150Y-96362758D01*
X152303800Y-96344267D01*
X152092449Y-96362758D01*
X151887514Y-96417670D01*
X151695236Y-96507332D01*
X151695234Y-96507333D01*
X151670966Y-96524326D01*
X151521439Y-96629026D01*
X151371426Y-96779039D01*
X151371423Y-96779042D01*
X151371423Y-96779043D01*
X151286531Y-96900282D01*
X151249732Y-96952836D01*
X151160070Y-97145114D01*
X151105158Y-97350049D01*
X151086667Y-97561400D01*
X145920932Y-97561400D01*
X145902441Y-97350047D01*
X145847530Y-97145116D01*
X145757867Y-96952834D01*
X145636177Y-96779043D01*
X145486157Y-96629023D01*
X145312366Y-96507333D01*
X145185646Y-96448242D01*
X145120085Y-96417670D01*
X144915150Y-96362758D01*
X144703800Y-96344267D01*
X144492449Y-96362758D01*
X144287514Y-96417670D01*
X144095236Y-96507332D01*
X144095234Y-96507333D01*
X144070966Y-96524326D01*
X143921439Y-96629026D01*
X143771426Y-96779039D01*
X143771423Y-96779042D01*
X143771423Y-96779043D01*
X143686531Y-96900282D01*
X143649732Y-96952836D01*
X143560070Y-97145114D01*
X143505158Y-97350049D01*
X143486667Y-97561400D01*
X140487792Y-97561400D01*
X140385081Y-97458689D01*
X140356027Y-97440433D01*
X140271480Y-97387308D01*
X140225733Y-97336116D01*
X140214233Y-97268431D01*
X140240506Y-97205002D01*
X140296496Y-97165274D01*
X140408615Y-97126043D01*
X140562881Y-97029111D01*
X140691711Y-96900281D01*
X140788643Y-96746015D01*
X140848817Y-96574047D01*
X140869216Y-96393000D01*
X140848817Y-96211953D01*
X140788643Y-96039985D01*
X140691711Y-95885719D01*
X140562881Y-95756889D01*
X140408615Y-95659957D01*
X140236647Y-95599783D01*
X140236646Y-95599782D01*
X140236644Y-95599782D01*
X140055600Y-95579383D01*
X139874555Y-95599782D01*
X139702584Y-95659957D01*
X139548317Y-95756890D01*
X139419490Y-95885717D01*
X139322557Y-96039984D01*
X139262382Y-96211955D01*
X139241983Y-96393000D01*
X139242029Y-96393406D01*
X139235849Y-96448242D01*
X139206488Y-96494967D01*
X139159763Y-96524326D01*
X139016787Y-96574355D01*
X138862517Y-96671290D01*
X138733690Y-96800117D01*
X138636757Y-96954384D01*
X138576582Y-97126355D01*
X138556183Y-97307400D01*
X138576582Y-97488444D01*
X138576582Y-97488446D01*
X138576583Y-97488447D01*
X138636757Y-97660415D01*
X138733689Y-97814681D01*
X138862519Y-97943511D01*
X139010642Y-98036583D01*
X139049663Y-98075604D01*
X139067889Y-98127692D01*
X139084582Y-98275844D01*
X139084582Y-98275846D01*
X139084583Y-98275847D01*
X139144757Y-98447815D01*
X139241689Y-98602081D01*
X139370519Y-98730911D01*
X139418651Y-98761154D01*
X139460064Y-98804145D01*
X139476590Y-98861508D01*
X139464398Y-98919946D01*
X139426312Y-98965915D01*
X139371160Y-98988761D01*
X139311725Y-98983188D01*
X139296848Y-98977982D01*
X139115800Y-98957583D01*
X138934755Y-98977982D01*
X138762784Y-99038157D01*
X138608517Y-99135090D01*
X138479690Y-99263917D01*
X138382757Y-99418184D01*
X138322582Y-99590155D01*
X138302183Y-99771199D01*
X137266079Y-99771199D01*
X137159122Y-99683423D01*
X136984011Y-99589823D01*
X136794005Y-99532185D01*
X136704400Y-99523360D01*
X136204400Y-99523360D01*
X136114794Y-99532185D01*
X135924788Y-99589823D01*
X135749677Y-99683423D01*
X135596187Y-99809387D01*
X135470223Y-99962877D01*
X135376623Y-100137989D01*
X135334880Y-100275598D01*
X132573919Y-100275598D01*
X132532176Y-100137989D01*
X132438576Y-99962877D01*
X132312612Y-99809387D01*
X132159122Y-99683423D01*
X131984011Y-99589823D01*
X131794005Y-99532185D01*
X131704400Y-99523360D01*
X131204400Y-99523360D01*
X131114794Y-99532185D01*
X130924788Y-99589823D01*
X130749677Y-99683423D01*
X130596187Y-99809387D01*
X130470223Y-99962877D01*
X130376623Y-100137989D01*
X130334880Y-100275598D01*
X126789485Y-100275598D01*
X126823663Y-100223285D01*
X126915005Y-100015047D01*
X126970826Y-99794614D01*
X126989604Y-99568000D01*
X126970826Y-99341386D01*
X126915005Y-99120953D01*
X126823663Y-98912715D01*
X126699292Y-98722351D01*
X126545285Y-98555054D01*
X126365841Y-98415388D01*
X126165857Y-98307161D01*
X126123145Y-98292498D01*
X125950790Y-98233328D01*
X125782569Y-98205256D01*
X125726497Y-98195900D01*
X125499107Y-98195900D01*
X125454248Y-98203385D01*
X125274813Y-98233328D01*
X125059746Y-98307161D01*
X124859766Y-98415386D01*
X124680318Y-98555054D01*
X124526311Y-98722352D01*
X124401941Y-98912714D01*
X124310599Y-99120951D01*
X124254777Y-99341390D01*
X124235999Y-99568000D01*
X123489603Y-99568000D01*
X123470825Y-99341386D01*
X123415004Y-99120953D01*
X123323662Y-98912715D01*
X123199291Y-98722351D01*
X123045284Y-98555054D01*
X122865840Y-98415388D01*
X122665856Y-98307161D01*
X122623144Y-98292498D01*
X122450789Y-98233328D01*
X122282568Y-98205256D01*
X122226496Y-98195900D01*
X121999106Y-98195900D01*
X121954247Y-98203385D01*
X121774812Y-98233328D01*
X121559745Y-98307161D01*
X121359765Y-98415386D01*
X121180317Y-98555054D01*
X121026310Y-98722352D01*
X120901940Y-98912714D01*
X120810598Y-99120951D01*
X120754776Y-99341390D01*
X120735998Y-99568000D01*
X119989603Y-99568000D01*
X119970825Y-99341386D01*
X119915004Y-99120953D01*
X119823662Y-98912715D01*
X119699291Y-98722351D01*
X119545284Y-98555054D01*
X119365840Y-98415388D01*
X119165856Y-98307161D01*
X119123144Y-98292498D01*
X118950789Y-98233328D01*
X118782568Y-98205256D01*
X118726496Y-98195900D01*
X118499106Y-98195900D01*
X118454247Y-98203385D01*
X118274812Y-98233328D01*
X118059745Y-98307161D01*
X117859765Y-98415386D01*
X117680317Y-98555054D01*
X117526310Y-98722352D01*
X117401940Y-98912714D01*
X117310598Y-99120951D01*
X117254776Y-99341390D01*
X117235998Y-99568000D01*
X116489602Y-99568000D01*
X116470824Y-99341386D01*
X116415003Y-99120953D01*
X116386132Y-99055134D01*
X116375711Y-99002978D01*
X116388102Y-98951251D01*
X116421020Y-98909478D01*
X116540568Y-98811368D01*
X116666595Y-98657804D01*
X116760241Y-98482604D01*
X116817908Y-98292501D01*
X116837380Y-98094800D01*
X116837380Y-98094799D01*
X133679383Y-98094799D01*
X133699782Y-98275844D01*
X133699782Y-98275846D01*
X133699783Y-98275847D01*
X133759957Y-98447815D01*
X133856889Y-98602081D01*
X133985719Y-98730911D01*
X134139985Y-98827843D01*
X134311953Y-98888017D01*
X134493000Y-98908416D01*
X134674047Y-98888017D01*
X134846015Y-98827843D01*
X135000281Y-98730911D01*
X135129111Y-98602081D01*
X135154050Y-98562389D01*
X135201099Y-98518735D01*
X135263677Y-98504452D01*
X135325013Y-98523371D01*
X135331917Y-98527709D01*
X135331919Y-98527711D01*
X135486185Y-98624643D01*
X135658153Y-98684817D01*
X135839200Y-98705216D01*
X136020247Y-98684817D01*
X136192215Y-98624643D01*
X136300607Y-98556535D01*
X136352691Y-98538310D01*
X136407530Y-98544488D01*
X136454257Y-98573848D01*
X136483617Y-98620575D01*
X136503155Y-98676412D01*
X136503157Y-98676415D01*
X136600089Y-98830681D01*
X136728919Y-98959511D01*
X136883185Y-99056443D01*
X137055153Y-99116617D01*
X137236200Y-99137016D01*
X137417247Y-99116617D01*
X137589215Y-99056443D01*
X137743481Y-98959511D01*
X137872311Y-98830681D01*
X137969243Y-98676415D01*
X138029417Y-98504447D01*
X138049816Y-98323400D01*
X138029417Y-98142353D01*
X137969243Y-97970385D01*
X137872311Y-97816119D01*
X137743481Y-97687289D01*
X137589215Y-97590357D01*
X137417247Y-97530183D01*
X137417246Y-97530182D01*
X137417244Y-97530182D01*
X137236200Y-97509783D01*
X137041270Y-97531747D01*
X137041154Y-97530718D01*
X136987457Y-97533732D01*
X136927370Y-97500521D01*
X136894162Y-97440433D01*
X136898011Y-97371889D01*
X136937217Y-97259847D01*
X136957616Y-97078800D01*
X136937217Y-96897753D01*
X136877043Y-96725785D01*
X136780111Y-96571519D01*
X136651281Y-96442689D01*
X136497015Y-96345757D01*
X136325047Y-96285583D01*
X136325046Y-96285582D01*
X136325044Y-96285582D01*
X136144000Y-96265183D01*
X135962955Y-96285582D01*
X135790984Y-96345757D01*
X135636717Y-96442690D01*
X135507890Y-96571517D01*
X135410957Y-96725784D01*
X135350782Y-96897755D01*
X135330383Y-97078800D01*
X135341745Y-97179636D01*
X135335567Y-97234474D01*
X135306207Y-97281201D01*
X135203087Y-97384320D01*
X135178151Y-97424007D01*
X135131099Y-97467665D01*
X135068521Y-97481947D01*
X135007186Y-97463028D01*
X134995358Y-97455596D01*
X134846015Y-97361757D01*
X134674047Y-97301583D01*
X134674046Y-97301582D01*
X134674044Y-97301582D01*
X134493000Y-97281183D01*
X134311955Y-97301582D01*
X134139984Y-97361757D01*
X133985717Y-97458690D01*
X133856890Y-97587517D01*
X133759957Y-97741784D01*
X133699782Y-97913755D01*
X133679383Y-98094799D01*
X116837380Y-98094799D01*
X116817908Y-97897099D01*
X116760241Y-97706996D01*
X116666595Y-97531796D01*
X116540568Y-97378232D01*
X116387004Y-97252205D01*
X116387003Y-97252204D01*
X116277470Y-97193658D01*
X116211804Y-97158559D01*
X116021701Y-97100892D01*
X116021698Y-97100891D01*
X115848247Y-97083808D01*
X115824000Y-97081420D01*
X115823999Y-97081420D01*
X115626301Y-97100891D01*
X115562931Y-97120114D01*
X115436196Y-97158559D01*
X115436192Y-97158560D01*
X115436192Y-97158561D01*
X115260996Y-97252204D01*
X115107432Y-97378232D01*
X114981404Y-97531796D01*
X114898292Y-97687290D01*
X114887759Y-97706996D01*
X114855093Y-97814681D01*
X114830091Y-97897101D01*
X114810620Y-98094800D01*
X114813034Y-98119315D01*
X114806201Y-98173746D01*
X114776553Y-98219902D01*
X114729893Y-98248749D01*
X114559745Y-98307160D01*
X114359764Y-98415386D01*
X114180316Y-98555054D01*
X114026309Y-98722352D01*
X113901939Y-98912714D01*
X113810597Y-99120951D01*
X113754775Y-99341390D01*
X113735997Y-99568000D01*
X111550346Y-99568000D01*
X111299859Y-99377584D01*
X110993801Y-99193435D01*
X110669628Y-99043457D01*
X110331133Y-98929404D01*
X109994850Y-98855383D01*
X109939091Y-98826931D01*
X109904336Y-98774868D01*
X109899441Y-98712462D01*
X109925650Y-98655620D01*
X109986395Y-98581604D01*
X110080041Y-98406404D01*
X110137708Y-98216301D01*
X110157180Y-98018600D01*
X110137708Y-97820899D01*
X110080041Y-97630796D01*
X109986395Y-97455596D01*
X109860368Y-97302032D01*
X109719247Y-97186217D01*
X109706803Y-97176004D01*
X109566275Y-97100891D01*
X109531604Y-97082359D01*
X109341501Y-97024692D01*
X109341498Y-97024691D01*
X109143800Y-97005220D01*
X108946101Y-97024691D01*
X108882731Y-97043914D01*
X108755996Y-97082359D01*
X108755992Y-97082360D01*
X108755992Y-97082361D01*
X108580796Y-97176004D01*
X108427232Y-97302032D01*
X108301204Y-97455596D01*
X108230692Y-97587517D01*
X108207559Y-97630796D01*
X108184444Y-97706996D01*
X108149891Y-97820901D01*
X108130420Y-98018600D01*
X108149891Y-98216298D01*
X108149892Y-98216301D01*
X108207559Y-98406404D01*
X108229694Y-98447815D01*
X108301204Y-98581603D01*
X108323803Y-98609139D01*
X108427232Y-98735168D01*
X108462494Y-98764107D01*
X108500258Y-98817295D01*
X108505800Y-98882293D01*
X108477585Y-98941110D01*
X108423422Y-98977467D01*
X108227569Y-99043458D01*
X107903398Y-99193435D01*
X107597340Y-99377584D01*
X107312969Y-99593757D01*
X107300101Y-99605945D01*
X107300101Y-99605947D01*
X106424100Y-99605947D01*
X106424100Y-93815115D01*
X107884237Y-93815115D01*
X107989348Y-93880197D01*
X108189881Y-93957884D01*
X108401275Y-93997401D01*
X108616325Y-93997401D01*
X108827718Y-93957884D01*
X109028251Y-93880197D01*
X109133361Y-93815115D01*
X108508801Y-93190554D01*
X108508800Y-93190554D01*
X107884237Y-93815115D01*
X106424100Y-93815115D01*
X106424100Y-92837000D01*
X107343429Y-92837000D01*
X107363271Y-93051139D01*
X107422122Y-93257980D01*
X107517982Y-93450490D01*
X107528211Y-93464034D01*
X108155246Y-92837002D01*
X108862353Y-92837002D01*
X109489387Y-93464034D01*
X109489388Y-93464034D01*
X109499619Y-93450488D01*
X109595477Y-93257980D01*
X109654328Y-93051139D01*
X109660049Y-92989400D01*
X113308583Y-92989400D01*
X113328982Y-93170444D01*
X113328982Y-93170446D01*
X113328983Y-93170447D01*
X113389157Y-93342415D01*
X113486089Y-93496681D01*
X113614919Y-93625511D01*
X113769185Y-93722443D01*
X113941153Y-93782617D01*
X114122200Y-93803016D01*
X114303247Y-93782617D01*
X114475215Y-93722443D01*
X114590827Y-93649799D01*
X122808183Y-93649799D01*
X122828582Y-93830844D01*
X122828582Y-93830846D01*
X122828583Y-93830847D01*
X122888757Y-94002815D01*
X122985689Y-94157081D01*
X123114519Y-94285911D01*
X123268785Y-94382843D01*
X123440753Y-94443017D01*
X123621800Y-94463416D01*
X123802847Y-94443017D01*
X123974815Y-94382843D01*
X124129081Y-94285911D01*
X124257911Y-94157081D01*
X124354843Y-94002815D01*
X124415017Y-93830847D01*
X124423969Y-93751399D01*
X130834583Y-93751399D01*
X130854982Y-93932444D01*
X130854982Y-93932446D01*
X130854983Y-93932447D01*
X130915157Y-94104415D01*
X131012089Y-94258681D01*
X131140919Y-94387511D01*
X131295185Y-94484443D01*
X131467153Y-94544617D01*
X131648200Y-94565016D01*
X131829247Y-94544617D01*
X132001215Y-94484443D01*
X132155481Y-94387511D01*
X132284311Y-94258681D01*
X132381243Y-94104415D01*
X132401887Y-94045414D01*
X132431246Y-93998690D01*
X132477973Y-93969329D01*
X132532810Y-93963150D01*
X132689600Y-93980816D01*
X132870647Y-93960417D01*
X133042615Y-93900243D01*
X133042615Y-93900242D01*
X133055804Y-93895628D01*
X133056374Y-93897259D01*
X133088117Y-93886148D01*
X133142962Y-93892323D01*
X133189693Y-93921685D01*
X133198319Y-93930311D01*
X133352585Y-94027243D01*
X133524553Y-94087417D01*
X133705600Y-94107816D01*
X133886647Y-94087417D01*
X134058615Y-94027243D01*
X134212881Y-93930311D01*
X134220977Y-93922215D01*
X141255568Y-93922215D01*
X141275967Y-94103259D01*
X141275967Y-94103261D01*
X141275968Y-94103262D01*
X141336142Y-94275230D01*
X141433074Y-94429496D01*
X141561904Y-94558326D01*
X141716170Y-94655258D01*
X141888138Y-94715432D01*
X142069185Y-94735831D01*
X142250232Y-94715432D01*
X142422200Y-94655258D01*
X142576466Y-94558326D01*
X142705296Y-94429496D01*
X142802228Y-94275230D01*
X142862402Y-94103262D01*
X142873484Y-94004906D01*
X148690783Y-94004906D01*
X148711182Y-94185951D01*
X148711182Y-94185953D01*
X148711183Y-94185954D01*
X148771357Y-94357922D01*
X148868289Y-94512188D01*
X148997119Y-94641018D01*
X149151385Y-94737950D01*
X149323353Y-94798124D01*
X149504400Y-94818523D01*
X149685447Y-94798124D01*
X149857415Y-94737950D01*
X150011681Y-94641018D01*
X150140511Y-94512188D01*
X150237443Y-94357922D01*
X150297617Y-94185954D01*
X150318016Y-94004907D01*
X150315210Y-93980000D01*
X157682383Y-93980000D01*
X157702782Y-94161044D01*
X157702782Y-94161046D01*
X157702783Y-94161047D01*
X157762957Y-94333015D01*
X157859889Y-94487281D01*
X157988719Y-94616111D01*
X158142985Y-94713043D01*
X158314953Y-94773217D01*
X158496000Y-94793616D01*
X158677047Y-94773217D01*
X158849015Y-94713043D01*
X159003281Y-94616111D01*
X159132111Y-94487281D01*
X159229043Y-94333015D01*
X159289217Y-94161047D01*
X159309616Y-93980000D01*
X159289217Y-93798953D01*
X159229043Y-93626985D01*
X159132111Y-93472719D01*
X159003281Y-93343889D01*
X158849015Y-93246957D01*
X158677047Y-93186783D01*
X158677046Y-93186782D01*
X158677044Y-93186782D01*
X158496000Y-93166383D01*
X158314955Y-93186782D01*
X158142984Y-93246957D01*
X157988717Y-93343890D01*
X157859890Y-93472717D01*
X157762957Y-93626984D01*
X157702782Y-93798955D01*
X157682383Y-93980000D01*
X150315210Y-93980000D01*
X150297617Y-93823860D01*
X150237443Y-93651892D01*
X150140511Y-93497626D01*
X150011681Y-93368796D01*
X149857415Y-93271864D01*
X149685447Y-93211690D01*
X149685446Y-93211689D01*
X149685444Y-93211689D01*
X149504400Y-93191290D01*
X149323355Y-93211689D01*
X149151384Y-93271864D01*
X148997117Y-93368797D01*
X148868290Y-93497624D01*
X148771357Y-93651891D01*
X148711182Y-93823862D01*
X148690783Y-94004906D01*
X142873484Y-94004906D01*
X142882801Y-93922215D01*
X142882741Y-93921686D01*
X142870734Y-93815115D01*
X142862402Y-93741168D01*
X142802228Y-93569200D01*
X142705296Y-93414934D01*
X142576466Y-93286104D01*
X142422200Y-93189172D01*
X142250232Y-93128998D01*
X142250231Y-93128997D01*
X142250229Y-93128997D01*
X142069185Y-93108598D01*
X141888140Y-93128997D01*
X141716169Y-93189172D01*
X141561902Y-93286105D01*
X141433075Y-93414932D01*
X141336142Y-93569199D01*
X141275967Y-93741170D01*
X141255568Y-93922215D01*
X134220977Y-93922215D01*
X134341711Y-93801481D01*
X134438643Y-93647215D01*
X134498817Y-93475247D01*
X134519216Y-93294200D01*
X134498817Y-93113153D01*
X134438643Y-92941185D01*
X134341711Y-92786919D01*
X134212881Y-92658089D01*
X134058615Y-92561157D01*
X133886647Y-92500983D01*
X133886646Y-92500982D01*
X133886644Y-92500982D01*
X133705600Y-92480583D01*
X133524553Y-92500982D01*
X133418535Y-92538079D01*
X133356810Y-92543285D01*
X133300268Y-92517983D01*
X133263021Y-92468489D01*
X133254362Y-92407156D01*
X133266030Y-92303600D01*
X142696383Y-92303600D01*
X142716782Y-92484644D01*
X142716782Y-92484646D01*
X142716783Y-92484647D01*
X142776957Y-92656615D01*
X142873889Y-92810881D01*
X143002719Y-92939711D01*
X143156985Y-93036643D01*
X143328953Y-93096817D01*
X143433513Y-93108598D01*
X143509999Y-93117216D01*
X143509999Y-93117215D01*
X143510000Y-93117216D01*
X143656493Y-93100710D01*
X143711330Y-93106888D01*
X143758057Y-93136248D01*
X143866319Y-93244511D01*
X144020585Y-93341443D01*
X144192553Y-93401617D01*
X144373600Y-93422016D01*
X144554647Y-93401617D01*
X144726615Y-93341443D01*
X144880881Y-93244511D01*
X144918086Y-93207304D01*
X144964812Y-93177945D01*
X145019651Y-93171766D01*
X145030752Y-93173016D01*
X145030753Y-93173017D01*
X145211800Y-93193416D01*
X145392847Y-93173017D01*
X145564815Y-93112843D01*
X145719081Y-93015911D01*
X145847911Y-92887081D01*
X145944843Y-92732815D01*
X146005017Y-92560847D01*
X146025416Y-92379800D01*
X146005017Y-92198753D01*
X145988378Y-92151200D01*
X146328583Y-92151200D01*
X146348982Y-92332244D01*
X146348982Y-92332246D01*
X146348983Y-92332247D01*
X146409157Y-92504215D01*
X146506089Y-92658481D01*
X146634919Y-92787311D01*
X146789185Y-92884243D01*
X146961153Y-92944417D01*
X147142200Y-92964816D01*
X147323247Y-92944417D01*
X147495215Y-92884243D01*
X147649481Y-92787311D01*
X147778311Y-92658481D01*
X147875243Y-92504215D01*
X147935417Y-92332247D01*
X147947393Y-92225954D01*
X147965619Y-92173866D01*
X148004641Y-92134844D01*
X148056729Y-92116618D01*
X148111564Y-92122795D01*
X148281953Y-92182417D01*
X148463000Y-92202816D01*
X148644047Y-92182417D01*
X148816015Y-92122243D01*
X148970281Y-92025311D01*
X149099111Y-91896481D01*
X149196043Y-91742215D01*
X149256217Y-91570247D01*
X149276616Y-91389200D01*
X149256217Y-91208153D01*
X149245973Y-91178879D01*
X149239795Y-91124043D01*
X149258021Y-91071954D01*
X149297044Y-91032932D01*
X149349130Y-91014706D01*
X149355247Y-91014017D01*
X149527215Y-90953843D01*
X149681481Y-90856911D01*
X149786374Y-90752017D01*
X149833101Y-90722657D01*
X149887939Y-90716478D01*
X149940027Y-90734704D01*
X149979049Y-90773725D01*
X150018807Y-90836999D01*
X150062089Y-90905881D01*
X150190919Y-91034711D01*
X150345185Y-91131643D01*
X150517153Y-91191817D01*
X150698200Y-91212216D01*
X150879247Y-91191817D01*
X151051215Y-91131643D01*
X151205481Y-91034711D01*
X151334311Y-90905881D01*
X151431243Y-90751615D01*
X151491417Y-90579647D01*
X151511816Y-90398600D01*
X151491417Y-90217553D01*
X151431243Y-90045585D01*
X151334311Y-89891319D01*
X151205481Y-89762489D01*
X151051215Y-89665557D01*
X150895871Y-89611200D01*
X153592983Y-89611200D01*
X153613382Y-89792244D01*
X153613382Y-89792246D01*
X153613383Y-89792247D01*
X153673557Y-89964215D01*
X153770489Y-90118481D01*
X153899319Y-90247311D01*
X154053585Y-90344243D01*
X154225553Y-90404417D01*
X154406600Y-90424816D01*
X154587647Y-90404417D01*
X154759615Y-90344243D01*
X154913881Y-90247311D01*
X155042711Y-90118481D01*
X155139643Y-89964215D01*
X155199817Y-89792247D01*
X155220216Y-89611200D01*
X155199817Y-89430153D01*
X155139643Y-89258185D01*
X155042711Y-89103919D01*
X154913881Y-88975089D01*
X154759615Y-88878157D01*
X154587647Y-88817983D01*
X154587646Y-88817982D01*
X154587644Y-88817982D01*
X154406600Y-88797583D01*
X154225555Y-88817982D01*
X154053584Y-88878157D01*
X153899317Y-88975090D01*
X153770490Y-89103917D01*
X153673557Y-89258184D01*
X153613382Y-89430155D01*
X153592983Y-89611200D01*
X150895871Y-89611200D01*
X150879247Y-89605383D01*
X150879246Y-89605382D01*
X150879244Y-89605382D01*
X150698200Y-89584983D01*
X150517155Y-89605382D01*
X150345184Y-89665557D01*
X150190919Y-89762489D01*
X150086024Y-89867384D01*
X150039297Y-89896744D01*
X149984459Y-89902922D01*
X149932371Y-89884696D01*
X149893350Y-89845675D01*
X149810311Y-89713519D01*
X149681481Y-89584689D01*
X149527215Y-89487757D01*
X149355247Y-89427583D01*
X149355246Y-89427582D01*
X149355244Y-89427582D01*
X149174200Y-89407183D01*
X148993155Y-89427582D01*
X148821184Y-89487757D01*
X148666917Y-89584690D01*
X148538090Y-89713517D01*
X148441157Y-89867784D01*
X148380982Y-90039755D01*
X148360583Y-90220799D01*
X148380982Y-90401844D01*
X148380982Y-90401846D01*
X148380983Y-90401847D01*
X148384862Y-90412934D01*
X148391226Y-90431119D01*
X148397404Y-90485956D01*
X148379179Y-90538043D01*
X148340159Y-90577065D01*
X148288072Y-90595293D01*
X148281955Y-90595982D01*
X148109984Y-90656157D01*
X147955717Y-90753090D01*
X147826890Y-90881917D01*
X147729957Y-91036184D01*
X147669782Y-91208155D01*
X147657806Y-91314445D01*
X147639580Y-91366533D01*
X147600558Y-91405555D01*
X147548470Y-91423781D01*
X147493632Y-91417603D01*
X147385572Y-91379791D01*
X147323247Y-91357983D01*
X147323246Y-91357982D01*
X147323244Y-91357982D01*
X147142200Y-91337583D01*
X146961155Y-91357982D01*
X146789184Y-91418157D01*
X146634917Y-91515090D01*
X146506090Y-91643917D01*
X146409157Y-91798184D01*
X146348982Y-91970155D01*
X146328583Y-92151200D01*
X145988378Y-92151200D01*
X145944843Y-92026785D01*
X145872951Y-91912370D01*
X145853945Y-91846400D01*
X145872951Y-91780429D01*
X145944843Y-91666015D01*
X146005017Y-91494047D01*
X146025416Y-91313000D01*
X146005017Y-91131953D01*
X145944843Y-90959985D01*
X145847911Y-90805719D01*
X145739012Y-90696820D01*
X145709651Y-90650093D01*
X145703473Y-90595255D01*
X145721699Y-90543167D01*
X145760717Y-90504148D01*
X145846081Y-90450511D01*
X145974911Y-90321681D01*
X146071843Y-90167415D01*
X146124764Y-90016172D01*
X146154122Y-89969450D01*
X146200849Y-89940089D01*
X146255688Y-89933911D01*
X146329400Y-89942216D01*
X146510447Y-89921817D01*
X146682415Y-89861643D01*
X146836681Y-89764711D01*
X146965511Y-89635881D01*
X147062443Y-89481615D01*
X147122617Y-89309647D01*
X147143016Y-89128600D01*
X147122617Y-88947553D01*
X147062443Y-88775585D01*
X146965511Y-88621319D01*
X146836681Y-88492489D01*
X146682415Y-88395557D01*
X146510447Y-88335383D01*
X146510446Y-88335382D01*
X146510444Y-88335382D01*
X146329400Y-88314983D01*
X146148355Y-88335382D01*
X145976384Y-88395557D01*
X145822117Y-88492490D01*
X145693290Y-88621317D01*
X145596355Y-88775587D01*
X145543435Y-88926823D01*
X145514075Y-88973549D01*
X145467349Y-89002909D01*
X145412511Y-89009088D01*
X145338800Y-89000783D01*
X145157755Y-89021182D01*
X144985784Y-89081357D01*
X144831517Y-89178290D01*
X144702690Y-89307117D01*
X144605757Y-89461384D01*
X144545582Y-89633355D01*
X144525183Y-89814400D01*
X144545582Y-89995444D01*
X144545582Y-89995446D01*
X144545583Y-89995447D01*
X144605757Y-90167415D01*
X144673259Y-90274844D01*
X144702690Y-90321682D01*
X144811587Y-90430579D01*
X144840947Y-90477305D01*
X144847126Y-90532143D01*
X144828900Y-90584231D01*
X144789879Y-90623253D01*
X144704518Y-90676889D01*
X144575690Y-90805717D01*
X144478757Y-90959984D01*
X144418582Y-91131955D01*
X144398183Y-91312999D01*
X144418582Y-91494044D01*
X144418582Y-91494046D01*
X144418583Y-91494047D01*
X144452746Y-91591681D01*
X144466762Y-91631735D01*
X144472940Y-91686573D01*
X144454714Y-91738661D01*
X144415692Y-91777683D01*
X144363604Y-91795909D01*
X144227107Y-91811289D01*
X144172269Y-91805111D01*
X144125542Y-91775750D01*
X144017282Y-91667490D01*
X144017281Y-91667489D01*
X143863015Y-91570557D01*
X143691047Y-91510383D01*
X143691046Y-91510382D01*
X143691044Y-91510382D01*
X143510000Y-91489983D01*
X143328955Y-91510382D01*
X143156984Y-91570557D01*
X143002717Y-91667490D01*
X142873890Y-91796317D01*
X142776957Y-91950584D01*
X142716782Y-92122555D01*
X142696383Y-92303600D01*
X133266030Y-92303600D01*
X133274616Y-92227400D01*
X133271388Y-92198755D01*
X133262803Y-92122555D01*
X133254217Y-92046353D01*
X133230715Y-91979190D01*
X133226867Y-91910645D01*
X133260077Y-91850557D01*
X133320165Y-91817347D01*
X133388710Y-91821195D01*
X133549953Y-91877617D01*
X133731000Y-91898016D01*
X133912047Y-91877617D01*
X134084015Y-91817443D01*
X134238281Y-91720511D01*
X134367111Y-91591681D01*
X134464043Y-91437415D01*
X134514987Y-91291824D01*
X134554713Y-91235836D01*
X134618141Y-91209563D01*
X134775647Y-91191817D01*
X134947615Y-91131643D01*
X135101881Y-91034711D01*
X135230711Y-90905881D01*
X135327643Y-90751615D01*
X135387817Y-90579647D01*
X135408216Y-90398600D01*
X135387817Y-90217553D01*
X135327643Y-90045585D01*
X135230711Y-89891319D01*
X135101881Y-89762489D01*
X135098482Y-89760353D01*
X134989351Y-89691781D01*
X134945693Y-89644729D01*
X134931411Y-89582151D01*
X134950329Y-89520818D01*
X135022843Y-89405415D01*
X135083017Y-89233447D01*
X135103416Y-89052400D01*
X135083017Y-88871353D01*
X135022843Y-88699385D01*
X134925911Y-88545119D01*
X134797081Y-88416289D01*
X134718002Y-88366600D01*
X142950383Y-88366600D01*
X142970782Y-88547644D01*
X142970782Y-88547646D01*
X142970783Y-88547647D01*
X143030957Y-88719615D01*
X143127889Y-88873881D01*
X143256719Y-89002711D01*
X143410985Y-89099643D01*
X143582953Y-89159817D01*
X143764000Y-89180216D01*
X143945047Y-89159817D01*
X144117015Y-89099643D01*
X144271281Y-89002711D01*
X144400111Y-88873881D01*
X144497043Y-88719615D01*
X144557217Y-88547647D01*
X144577616Y-88366600D01*
X144557217Y-88185553D01*
X144497043Y-88013585D01*
X144400111Y-87859319D01*
X144271281Y-87730489D01*
X144117015Y-87633557D01*
X143945047Y-87573383D01*
X143945046Y-87573382D01*
X143945044Y-87573382D01*
X143764000Y-87552983D01*
X143582955Y-87573382D01*
X143410984Y-87633557D01*
X143256717Y-87730490D01*
X143127890Y-87859317D01*
X143030957Y-88013584D01*
X142970782Y-88185555D01*
X142950383Y-88366600D01*
X134718002Y-88366600D01*
X134642815Y-88319357D01*
X134470847Y-88259183D01*
X134470846Y-88259182D01*
X134470844Y-88259182D01*
X134289800Y-88238783D01*
X134108755Y-88259182D01*
X133936784Y-88319357D01*
X133782517Y-88416290D01*
X133653690Y-88545117D01*
X133556757Y-88699384D01*
X133496582Y-88871355D01*
X133479621Y-89021885D01*
X133461395Y-89073973D01*
X133422373Y-89112995D01*
X133370285Y-89131221D01*
X133219755Y-89148182D01*
X133047784Y-89208357D01*
X132893517Y-89305290D01*
X132764690Y-89434117D01*
X132667757Y-89588384D01*
X132607582Y-89760355D01*
X132587183Y-89941400D01*
X132607582Y-90122444D01*
X132607582Y-90122446D01*
X132607583Y-90122447D01*
X132667757Y-90294415D01*
X132764689Y-90448681D01*
X132893519Y-90577511D01*
X132897412Y-90579957D01*
X132939543Y-90606430D01*
X132978564Y-90645451D01*
X132996790Y-90697540D01*
X132990612Y-90752374D01*
X132954034Y-90856911D01*
X132937782Y-90903356D01*
X132917383Y-91084399D01*
X132937782Y-91265444D01*
X132961283Y-91332607D01*
X132965132Y-91401154D01*
X132931922Y-91461242D01*
X132871834Y-91494452D01*
X132803287Y-91490603D01*
X132688399Y-91450402D01*
X132642047Y-91434183D01*
X132642046Y-91434182D01*
X132642044Y-91434182D01*
X132461000Y-91413783D01*
X132279955Y-91434182D01*
X132107984Y-91494357D01*
X131953717Y-91591290D01*
X131824890Y-91720117D01*
X131727957Y-91874384D01*
X131667782Y-92046355D01*
X131647383Y-92227400D01*
X131667782Y-92408444D01*
X131667782Y-92408446D01*
X131667783Y-92408447D01*
X131727957Y-92580415D01*
X131763125Y-92636385D01*
X131824890Y-92734682D01*
X131825639Y-92735431D01*
X131831020Y-92744438D01*
X131832323Y-92746511D01*
X131832276Y-92746540D01*
X131856719Y-92787450D01*
X131859438Y-92847985D01*
X131833146Y-92902580D01*
X131784123Y-92938198D01*
X131724075Y-92946332D01*
X131648200Y-92937783D01*
X131467155Y-92958182D01*
X131295184Y-93018357D01*
X131140917Y-93115290D01*
X131012090Y-93244117D01*
X130915157Y-93398384D01*
X130854982Y-93570355D01*
X130834583Y-93751399D01*
X124423969Y-93751399D01*
X124435416Y-93649800D01*
X124415017Y-93468753D01*
X124354843Y-93296785D01*
X124257911Y-93142519D01*
X124129081Y-93013689D01*
X123974815Y-92916757D01*
X123802847Y-92856583D01*
X123802846Y-92856582D01*
X123802844Y-92856582D01*
X123621800Y-92836183D01*
X123440755Y-92856582D01*
X123268784Y-92916757D01*
X123114517Y-93013690D01*
X122985690Y-93142517D01*
X122888757Y-93296784D01*
X122828582Y-93468755D01*
X122808183Y-93649799D01*
X114590827Y-93649799D01*
X114629481Y-93625511D01*
X114758311Y-93496681D01*
X114855243Y-93342415D01*
X114915417Y-93170447D01*
X114935816Y-92989400D01*
X114915417Y-92808353D01*
X114855243Y-92636385D01*
X114758311Y-92482119D01*
X114629481Y-92353289D01*
X114475215Y-92256357D01*
X114303247Y-92196183D01*
X114303246Y-92196182D01*
X114303244Y-92196182D01*
X114122200Y-92175783D01*
X113941155Y-92196182D01*
X113769184Y-92256357D01*
X113614917Y-92353290D01*
X113486090Y-92482117D01*
X113389157Y-92636384D01*
X113328982Y-92808355D01*
X113308583Y-92989400D01*
X109660049Y-92989400D01*
X109674170Y-92837000D01*
X109654328Y-92622862D01*
X109595477Y-92416021D01*
X109499617Y-92223510D01*
X109489388Y-92209965D01*
X108862353Y-92837001D01*
X108862353Y-92837002D01*
X108155246Y-92837002D01*
X108155246Y-92837001D01*
X107528211Y-92209966D01*
X107528210Y-92209966D01*
X107517982Y-92223511D01*
X107422122Y-92416021D01*
X107363271Y-92622862D01*
X107343429Y-92837000D01*
X106424100Y-92837000D01*
X106424100Y-90836998D01*
X107334892Y-90836998D01*
X107354879Y-91052705D01*
X107414162Y-91261063D01*
X107510720Y-91454979D01*
X107641272Y-91627857D01*
X107705681Y-91686573D01*
X107801362Y-91773798D01*
X107820916Y-91785905D01*
X107867271Y-91837344D01*
X107868201Y-91842848D01*
X108508800Y-92483447D01*
X108508801Y-92483447D01*
X109149395Y-91842850D01*
X109150325Y-91837350D01*
X109196678Y-91785908D01*
X109216238Y-91773798D01*
X109376328Y-91627856D01*
X109506877Y-91454982D01*
X109506877Y-91454980D01*
X109506879Y-91454979D01*
X109603437Y-91261063D01*
X109662720Y-91052705D01*
X109666305Y-91014016D01*
X109682708Y-90836999D01*
X109665389Y-90650093D01*
X109662720Y-90621292D01*
X109603437Y-90412934D01*
X109506879Y-90219018D01*
X109412318Y-90093800D01*
X112394183Y-90093800D01*
X112414582Y-90274844D01*
X112414582Y-90274846D01*
X112414583Y-90274847D01*
X112474757Y-90446815D01*
X112571689Y-90601081D01*
X112700519Y-90729911D01*
X112854785Y-90826843D01*
X113026753Y-90887017D01*
X113207800Y-90907416D01*
X113388847Y-90887017D01*
X113560815Y-90826843D01*
X113715081Y-90729911D01*
X113843911Y-90601081D01*
X113940843Y-90446815D01*
X114001017Y-90274847D01*
X114021416Y-90093800D01*
X114001017Y-89912753D01*
X113940843Y-89740785D01*
X113875379Y-89636600D01*
X124840183Y-89636600D01*
X124860582Y-89817644D01*
X124860582Y-89817646D01*
X124860583Y-89817647D01*
X124920757Y-89989615D01*
X125017689Y-90143881D01*
X125146519Y-90272711D01*
X125300785Y-90369643D01*
X125472753Y-90429817D01*
X125653800Y-90450216D01*
X125834847Y-90429817D01*
X126006815Y-90369643D01*
X126161081Y-90272711D01*
X126289911Y-90143881D01*
X126386843Y-89989615D01*
X126447017Y-89817647D01*
X126467416Y-89636600D01*
X126466952Y-89632486D01*
X126454370Y-89520815D01*
X126447017Y-89455553D01*
X126386843Y-89283585D01*
X126289911Y-89129319D01*
X126161081Y-89000489D01*
X126006815Y-88903557D01*
X125834847Y-88843383D01*
X125834846Y-88843382D01*
X125834844Y-88843382D01*
X125653800Y-88822983D01*
X125472755Y-88843382D01*
X125300784Y-88903557D01*
X125146517Y-89000490D01*
X125017690Y-89129317D01*
X124920757Y-89283584D01*
X124860582Y-89455555D01*
X124840183Y-89636600D01*
X113875379Y-89636600D01*
X113843911Y-89586519D01*
X113715081Y-89457689D01*
X113560815Y-89360757D01*
X113388847Y-89300583D01*
X113388846Y-89300582D01*
X113388844Y-89300582D01*
X113207800Y-89280183D01*
X113026755Y-89300582D01*
X112854784Y-89360757D01*
X112700517Y-89457690D01*
X112571690Y-89586517D01*
X112474757Y-89740784D01*
X112414582Y-89912755D01*
X112394183Y-90093800D01*
X109412318Y-90093800D01*
X109376327Y-90046140D01*
X109216238Y-89900199D01*
X109032058Y-89786161D01*
X109032056Y-89786160D01*
X108830055Y-89707904D01*
X108617115Y-89668099D01*
X108400485Y-89668099D01*
X108187545Y-89707903D01*
X108187545Y-89707904D01*
X107985541Y-89786161D01*
X107801361Y-89900199D01*
X107641272Y-90046140D01*
X107510720Y-90219018D01*
X107414162Y-90412934D01*
X107354879Y-90621292D01*
X107334892Y-90836998D01*
X106424100Y-90836998D01*
X106424100Y-88569799D01*
X114019783Y-88569799D01*
X114040182Y-88750844D01*
X114040182Y-88750846D01*
X114040183Y-88750847D01*
X114100357Y-88922815D01*
X114197289Y-89077081D01*
X114326119Y-89205911D01*
X114480385Y-89302843D01*
X114652353Y-89363017D01*
X114833400Y-89383416D01*
X115014447Y-89363017D01*
X115186415Y-89302843D01*
X115340681Y-89205911D01*
X115469511Y-89077081D01*
X115566443Y-88922815D01*
X115626617Y-88750847D01*
X115647016Y-88569800D01*
X115626617Y-88388753D01*
X115566443Y-88216785D01*
X115469511Y-88062519D01*
X115340681Y-87933689D01*
X115186415Y-87836757D01*
X115014447Y-87776583D01*
X115014446Y-87776582D01*
X115014444Y-87776582D01*
X114833400Y-87756183D01*
X114652355Y-87776582D01*
X114480384Y-87836757D01*
X114326117Y-87933690D01*
X114197290Y-88062517D01*
X114100357Y-88216784D01*
X114040182Y-88388755D01*
X114019783Y-88569799D01*
X106424100Y-88569799D01*
X106424100Y-85433052D01*
X107300101Y-85433052D01*
X107312973Y-85445244D01*
X107597340Y-85661415D01*
X107903398Y-85845564D01*
X108227571Y-85995542D01*
X108566066Y-86109595D01*
X108914907Y-86186380D01*
X109270004Y-86225000D01*
X109627196Y-86225000D01*
X109982292Y-86186380D01*
X110331133Y-86109595D01*
X110669628Y-85995542D01*
X110993801Y-85845564D01*
X111299859Y-85661415D01*
X111584226Y-85445244D01*
X111597097Y-85433052D01*
X111597097Y-85433051D01*
X111536646Y-85372600D01*
X113590595Y-85372600D01*
X113609373Y-85599209D01*
X113665195Y-85819648D01*
X113742350Y-85995542D01*
X113756537Y-86027885D01*
X113880908Y-86218249D01*
X114034915Y-86385546D01*
X114214359Y-86525212D01*
X114414343Y-86633439D01*
X114551477Y-86680517D01*
X114629409Y-86707271D01*
X114629411Y-86707271D01*
X114629413Y-86707272D01*
X114853703Y-86744700D01*
X115081092Y-86744700D01*
X115081093Y-86744700D01*
X115305383Y-86707272D01*
X115520453Y-86633439D01*
X115720437Y-86525212D01*
X115754099Y-86499012D01*
X117694538Y-86499012D01*
X117694539Y-86499013D01*
X117719022Y-86518070D01*
X117917774Y-86625629D01*
X118131504Y-86699003D01*
X118354409Y-86736200D01*
X118580389Y-86736200D01*
X118803293Y-86699003D01*
X119017023Y-86625629D01*
X119215773Y-86518070D01*
X119240258Y-86499012D01*
X118467400Y-85726153D01*
X118467399Y-85726153D01*
X117694538Y-86499012D01*
X115754099Y-86499012D01*
X115899881Y-86385546D01*
X116053888Y-86218249D01*
X116178259Y-86027885D01*
X116269601Y-85819647D01*
X116325422Y-85599214D01*
X116344200Y-85372600D01*
X117099125Y-85372600D01*
X117117786Y-85597804D01*
X117173264Y-85816881D01*
X117264038Y-86023825D01*
X117342509Y-86143934D01*
X118113845Y-85372601D01*
X118820952Y-85372601D01*
X119592288Y-86143935D01*
X119670758Y-86023826D01*
X119761533Y-85816881D01*
X119817011Y-85597804D01*
X119835672Y-85372600D01*
X120590596Y-85372600D01*
X120609374Y-85599209D01*
X120665196Y-85819648D01*
X120742351Y-85995542D01*
X120756538Y-86027885D01*
X120880909Y-86218249D01*
X121034916Y-86385546D01*
X121214360Y-86525212D01*
X121414344Y-86633439D01*
X121551478Y-86680517D01*
X121629410Y-86707271D01*
X121629412Y-86707271D01*
X121629414Y-86707272D01*
X121853704Y-86744700D01*
X122081093Y-86744700D01*
X122081094Y-86744700D01*
X122305384Y-86707272D01*
X122520454Y-86633439D01*
X122720438Y-86525212D01*
X122899882Y-86385546D01*
X123053889Y-86218249D01*
X123178260Y-86027885D01*
X123269602Y-85819647D01*
X123325423Y-85599214D01*
X123344201Y-85372600D01*
X124090597Y-85372600D01*
X124109375Y-85599209D01*
X124165197Y-85819648D01*
X124242352Y-85995542D01*
X124256539Y-86027885D01*
X124380910Y-86218249D01*
X124534917Y-86385546D01*
X124714361Y-86525212D01*
X124914345Y-86633439D01*
X125051479Y-86680517D01*
X125129411Y-86707271D01*
X125129413Y-86707271D01*
X125129415Y-86707272D01*
X125353705Y-86744700D01*
X125581094Y-86744700D01*
X125581095Y-86744700D01*
X125805385Y-86707272D01*
X126020455Y-86633439D01*
X126220439Y-86525212D01*
X126399883Y-86385546D01*
X126553890Y-86218249D01*
X126678261Y-86027885D01*
X126769603Y-85819647D01*
X126825424Y-85599214D01*
X126844202Y-85372600D01*
X126835518Y-85267799D01*
X132920820Y-85267799D01*
X132940291Y-85465498D01*
X132940292Y-85465501D01*
X132997959Y-85655604D01*
X133035668Y-85726153D01*
X133089951Y-85827711D01*
X133091605Y-85830804D01*
X133217632Y-85984368D01*
X133371196Y-86110395D01*
X133546396Y-86204041D01*
X133736499Y-86261708D01*
X133934200Y-86281180D01*
X134131901Y-86261708D01*
X134322004Y-86204041D01*
X134497204Y-86110395D01*
X134650768Y-85984368D01*
X134776795Y-85830804D01*
X134870441Y-85655604D01*
X134928108Y-85465501D01*
X134947580Y-85267800D01*
X134940075Y-85191599D01*
X146734983Y-85191599D01*
X146755382Y-85372644D01*
X146755382Y-85372646D01*
X146755383Y-85372647D01*
X146815557Y-85544615D01*
X146912489Y-85698881D01*
X147041319Y-85827711D01*
X147195585Y-85924643D01*
X147367553Y-85984817D01*
X147548600Y-86005216D01*
X147729647Y-85984817D01*
X147901615Y-85924643D01*
X148055881Y-85827711D01*
X148184711Y-85698881D01*
X148281643Y-85544615D01*
X148341817Y-85372647D01*
X148362216Y-85191600D01*
X148341817Y-85010553D01*
X148281643Y-84838585D01*
X148184711Y-84684319D01*
X148055881Y-84555489D01*
X147901615Y-84458557D01*
X147729647Y-84398383D01*
X147729646Y-84398382D01*
X147729644Y-84398382D01*
X147548600Y-84377983D01*
X147367555Y-84398382D01*
X147195584Y-84458557D01*
X147041317Y-84555490D01*
X146912490Y-84684317D01*
X146815557Y-84838584D01*
X146755382Y-85010555D01*
X146734983Y-85191599D01*
X134940075Y-85191599D01*
X134928108Y-85070099D01*
X134870441Y-84879996D01*
X134776795Y-84704796D01*
X134650768Y-84551232D01*
X134497204Y-84425205D01*
X134497203Y-84425204D01*
X134326228Y-84333817D01*
X134322004Y-84331559D01*
X134131901Y-84273892D01*
X134131898Y-84273891D01*
X133934200Y-84254420D01*
X133736501Y-84273891D01*
X133673131Y-84293114D01*
X133546396Y-84331559D01*
X133546392Y-84331560D01*
X133546392Y-84331561D01*
X133371196Y-84425204D01*
X133217632Y-84551232D01*
X133091604Y-84704796D01*
X133009800Y-84857843D01*
X132997959Y-84879996D01*
X132983301Y-84928318D01*
X132940291Y-85070101D01*
X132920820Y-85267799D01*
X126835518Y-85267799D01*
X126825424Y-85145986D01*
X126769603Y-84925553D01*
X126678261Y-84717315D01*
X126553890Y-84526951D01*
X126399883Y-84359654D01*
X126220439Y-84219988D01*
X126020455Y-84111761D01*
X125805388Y-84037928D01*
X125632032Y-84009000D01*
X125581095Y-84000500D01*
X125353705Y-84000500D01*
X125308847Y-84007985D01*
X125129411Y-84037928D01*
X124914344Y-84111761D01*
X124714364Y-84219986D01*
X124714362Y-84219987D01*
X124714361Y-84219988D01*
X124660370Y-84262010D01*
X124534916Y-84359654D01*
X124380909Y-84526952D01*
X124256539Y-84717314D01*
X124165197Y-84925551D01*
X124109375Y-85145990D01*
X124090597Y-85372600D01*
X123344201Y-85372600D01*
X123325423Y-85145986D01*
X123269602Y-84925553D01*
X123178260Y-84717315D01*
X123053889Y-84526951D01*
X122899882Y-84359654D01*
X122720438Y-84219988D01*
X122520454Y-84111761D01*
X122305387Y-84037928D01*
X122132031Y-84009000D01*
X122081094Y-84000500D01*
X121853704Y-84000500D01*
X121808846Y-84007985D01*
X121629410Y-84037928D01*
X121414343Y-84111761D01*
X121214363Y-84219986D01*
X121214361Y-84219987D01*
X121214360Y-84219988D01*
X121160369Y-84262010D01*
X121034915Y-84359654D01*
X120880908Y-84526952D01*
X120756538Y-84717314D01*
X120665196Y-84925551D01*
X120609374Y-85145990D01*
X120590596Y-85372600D01*
X119835672Y-85372600D01*
X119817011Y-85147395D01*
X119761533Y-84928318D01*
X119670759Y-84721373D01*
X119592287Y-84601264D01*
X118820952Y-85372600D01*
X118820952Y-85372601D01*
X118113845Y-85372601D01*
X118113845Y-85372600D01*
X117342508Y-84601263D01*
X117264040Y-84721370D01*
X117173264Y-84928318D01*
X117117786Y-85147395D01*
X117099125Y-85372600D01*
X116344200Y-85372600D01*
X116325422Y-85145986D01*
X116269601Y-84925553D01*
X116178259Y-84717315D01*
X116053888Y-84526951D01*
X115899881Y-84359654D01*
X115754096Y-84246186D01*
X117694539Y-84246186D01*
X118467399Y-85019046D01*
X118467400Y-85019046D01*
X119240258Y-84246187D01*
X119240257Y-84246185D01*
X119215775Y-84227130D01*
X119017023Y-84119570D01*
X118803293Y-84046196D01*
X118580389Y-84009000D01*
X118354409Y-84009000D01*
X118131504Y-84046196D01*
X117917774Y-84119570D01*
X117719023Y-84227129D01*
X117694539Y-84246186D01*
X115754096Y-84246186D01*
X115720437Y-84219988D01*
X115520453Y-84111761D01*
X115305386Y-84037928D01*
X115132030Y-84009000D01*
X115081093Y-84000500D01*
X114853703Y-84000500D01*
X114808845Y-84007985D01*
X114629409Y-84037928D01*
X114414342Y-84111761D01*
X114214362Y-84219986D01*
X114214360Y-84219987D01*
X114214359Y-84219988D01*
X114160368Y-84262010D01*
X114034914Y-84359654D01*
X113880907Y-84526952D01*
X113756537Y-84717314D01*
X113665195Y-84925551D01*
X113609373Y-85145990D01*
X113590595Y-85372600D01*
X111536646Y-85372600D01*
X109448601Y-83284553D01*
X109448600Y-83284553D01*
X107300101Y-85433051D01*
X107300101Y-85433052D01*
X106424100Y-85433052D01*
X106424100Y-84743744D01*
X106439829Y-84683302D01*
X106483024Y-84638192D01*
X106542729Y-84619860D01*
X106603796Y-84632956D01*
X106650733Y-84674157D01*
X106822414Y-84927368D01*
X106949297Y-85076746D01*
X106949298Y-85076747D01*
X109095046Y-82931001D01*
X109802153Y-82931001D01*
X111947900Y-85076746D01*
X111947901Y-85076746D01*
X112074784Y-84927368D01*
X112275232Y-84631731D01*
X112442544Y-84316147D01*
X112574754Y-83984325D01*
X112634483Y-83769199D01*
X126999183Y-83769199D01*
X127019582Y-83950244D01*
X127019582Y-83950246D01*
X127019583Y-83950247D01*
X127079757Y-84122215D01*
X127176689Y-84276481D01*
X127305519Y-84405311D01*
X127459785Y-84502243D01*
X127631753Y-84562417D01*
X127752450Y-84576016D01*
X127812799Y-84582816D01*
X127812799Y-84582815D01*
X127812800Y-84582816D01*
X127993847Y-84562417D01*
X128165815Y-84502243D01*
X128320081Y-84405311D01*
X128448911Y-84276481D01*
X128545843Y-84122215D01*
X128606017Y-83950247D01*
X128626416Y-83769200D01*
X128606017Y-83588153D01*
X128545843Y-83416185D01*
X128448911Y-83261919D01*
X128320081Y-83133089D01*
X128165815Y-83036157D01*
X127993847Y-82975983D01*
X127993846Y-82975982D01*
X127993844Y-82975982D01*
X127812800Y-82955583D01*
X127631755Y-82975982D01*
X127459784Y-83036157D01*
X127305517Y-83133090D01*
X127176690Y-83261917D01*
X127079757Y-83416184D01*
X127019582Y-83588155D01*
X126999183Y-83769199D01*
X112634483Y-83769199D01*
X112670311Y-83640158D01*
X112728100Y-83287660D01*
X112747438Y-82931000D01*
X112747001Y-82922934D01*
X134161500Y-82922934D01*
X134176208Y-83072270D01*
X134234332Y-83263880D01*
X134285471Y-83359553D01*
X134328722Y-83440469D01*
X134368295Y-83488689D01*
X134455747Y-83595252D01*
X134533139Y-83658765D01*
X134610531Y-83722278D01*
X134698314Y-83769199D01*
X134787119Y-83816667D01*
X134870553Y-83841976D01*
X134978731Y-83874792D01*
X135178000Y-83894418D01*
X135377269Y-83874792D01*
X135568880Y-83816667D01*
X135744546Y-83722771D01*
X135803000Y-83708129D01*
X135861453Y-83722771D01*
X136037119Y-83816667D01*
X136120553Y-83841976D01*
X136228731Y-83874792D01*
X136428000Y-83894418D01*
X136627269Y-83874792D01*
X136818880Y-83816667D01*
X136994546Y-83722771D01*
X137053000Y-83708129D01*
X137111453Y-83722771D01*
X137287119Y-83816667D01*
X137370553Y-83841976D01*
X137478731Y-83874792D01*
X137678000Y-83894418D01*
X137877269Y-83874792D01*
X138068880Y-83816667D01*
X138244546Y-83722771D01*
X138303000Y-83708129D01*
X138361453Y-83722771D01*
X138537119Y-83816667D01*
X138620553Y-83841976D01*
X138728731Y-83874792D01*
X138928000Y-83894418D01*
X139127269Y-83874792D01*
X139318880Y-83816667D01*
X139494546Y-83722771D01*
X139553000Y-83708129D01*
X139611453Y-83722771D01*
X139787119Y-83816667D01*
X139870553Y-83841976D01*
X139978731Y-83874792D01*
X140178000Y-83894418D01*
X140377269Y-83874792D01*
X140568880Y-83816667D01*
X140745469Y-83722278D01*
X140745475Y-83722273D01*
X140753561Y-83717951D01*
X140812015Y-83703309D01*
X140870468Y-83717951D01*
X141040389Y-83808776D01*
X141177998Y-83850519D01*
X141178000Y-83850519D01*
X141178000Y-83096558D01*
X141178597Y-83084404D01*
X141194500Y-82922934D01*
X141194500Y-82615000D01*
X141678000Y-82615000D01*
X141678000Y-83850519D01*
X141678001Y-83850519D01*
X141815610Y-83808776D01*
X141990722Y-83715176D01*
X142144212Y-83589212D01*
X142184106Y-83540600D01*
X148335183Y-83540600D01*
X148355582Y-83721644D01*
X148355582Y-83721646D01*
X148355583Y-83721647D01*
X148415757Y-83893615D01*
X148512689Y-84047881D01*
X148641519Y-84176711D01*
X148795785Y-84273643D01*
X148967753Y-84333817D01*
X149068728Y-84345194D01*
X149135823Y-84352754D01*
X149199252Y-84379026D01*
X149238981Y-84435018D01*
X149253957Y-84477815D01*
X149350889Y-84632081D01*
X149479719Y-84760911D01*
X149633985Y-84857843D01*
X149805953Y-84918017D01*
X149987000Y-84938416D01*
X150168047Y-84918017D01*
X150340015Y-84857843D01*
X150494281Y-84760911D01*
X150520792Y-84734400D01*
X153338983Y-84734400D01*
X153359382Y-84915444D01*
X153359382Y-84915446D01*
X153359383Y-84915447D01*
X153419557Y-85087415D01*
X153513438Y-85236826D01*
X153516490Y-85241682D01*
X153546927Y-85272119D01*
X153576288Y-85318845D01*
X153582466Y-85373684D01*
X153564240Y-85425770D01*
X153552005Y-85445244D01*
X153470357Y-85575184D01*
X153410182Y-85747155D01*
X153389783Y-85928200D01*
X153410182Y-86109244D01*
X153410182Y-86109246D01*
X153410183Y-86109247D01*
X153470357Y-86281215D01*
X153567289Y-86435481D01*
X153696119Y-86564311D01*
X153850385Y-86661243D01*
X154022353Y-86721417D01*
X154203400Y-86741816D01*
X154384447Y-86721417D01*
X154556415Y-86661243D01*
X154710681Y-86564311D01*
X154839511Y-86435481D01*
X154936443Y-86281215D01*
X154996617Y-86109247D01*
X155017016Y-85928200D01*
X154996617Y-85747153D01*
X154936443Y-85575185D01*
X154847135Y-85433052D01*
X156855501Y-85433052D01*
X156868373Y-85445244D01*
X157152740Y-85661415D01*
X157458798Y-85845564D01*
X157782971Y-85995542D01*
X158121466Y-86109595D01*
X158470307Y-86186380D01*
X158825404Y-86225000D01*
X159182596Y-86225000D01*
X159537692Y-86186380D01*
X159886533Y-86109595D01*
X160225028Y-85995542D01*
X160549201Y-85845564D01*
X160855259Y-85661415D01*
X161139626Y-85445244D01*
X161152497Y-85433052D01*
X161152497Y-85433051D01*
X159004001Y-83284553D01*
X159004000Y-83284553D01*
X156855501Y-85433051D01*
X156855501Y-85433052D01*
X154847135Y-85433052D01*
X154839511Y-85420919D01*
X154809072Y-85390480D01*
X154779711Y-85343753D01*
X154773533Y-85288915D01*
X154791757Y-85236831D01*
X154885643Y-85087415D01*
X154945817Y-84915447D01*
X154966216Y-84734400D01*
X154945817Y-84553353D01*
X154885643Y-84381385D01*
X154788711Y-84227119D01*
X154659881Y-84098289D01*
X154505615Y-84001357D01*
X154333647Y-83941183D01*
X154333646Y-83941182D01*
X154333644Y-83941182D01*
X154152600Y-83920783D01*
X153971555Y-83941182D01*
X153799584Y-84001357D01*
X153645317Y-84098290D01*
X153516490Y-84227117D01*
X153419557Y-84381384D01*
X153359382Y-84553355D01*
X153338983Y-84734400D01*
X150520792Y-84734400D01*
X150623111Y-84632081D01*
X150720043Y-84477815D01*
X150780217Y-84305847D01*
X150800616Y-84124800D01*
X150780217Y-83943753D01*
X150720043Y-83771785D01*
X150623111Y-83617519D01*
X150494281Y-83488689D01*
X150340015Y-83391757D01*
X150168047Y-83331583D01*
X150168046Y-83331582D01*
X150168044Y-83331582D01*
X149999975Y-83312645D01*
X149936546Y-83286372D01*
X149896818Y-83230380D01*
X149881844Y-83187587D01*
X149847601Y-83133090D01*
X149784911Y-83033319D01*
X149682592Y-82931000D01*
X155705161Y-82931000D01*
X155724499Y-83287660D01*
X155782288Y-83640158D01*
X155877845Y-83984325D01*
X156010055Y-84316147D01*
X156177364Y-84631724D01*
X156377819Y-84927374D01*
X156504697Y-85076746D01*
X156504698Y-85076747D01*
X158650446Y-82931001D01*
X158650446Y-82931000D01*
X156504698Y-80785251D01*
X156504697Y-80785252D01*
X156377819Y-80934625D01*
X156177364Y-81230275D01*
X156010055Y-81545852D01*
X155877845Y-81877674D01*
X155782288Y-82221841D01*
X155724499Y-82574339D01*
X155705161Y-82931000D01*
X149682592Y-82931000D01*
X149656081Y-82904489D01*
X149501815Y-82807557D01*
X149329847Y-82747383D01*
X149329846Y-82747382D01*
X149329844Y-82747382D01*
X149148800Y-82726983D01*
X148967755Y-82747382D01*
X148795784Y-82807557D01*
X148641517Y-82904490D01*
X148512690Y-83033317D01*
X148415757Y-83187584D01*
X148355582Y-83359555D01*
X148335183Y-83540600D01*
X142184106Y-83540600D01*
X142270176Y-83435722D01*
X142363776Y-83260611D01*
X142421414Y-83070604D01*
X142436000Y-82922518D01*
X142436000Y-82615000D01*
X141678000Y-82615000D01*
X141194500Y-82615000D01*
X141194500Y-82115000D01*
X141678000Y-82115000D01*
X142436000Y-82115000D01*
X142436000Y-81807482D01*
X142421414Y-81659395D01*
X142363776Y-81469388D01*
X142270176Y-81294277D01*
X142144212Y-81140787D01*
X141990722Y-81014823D01*
X141815610Y-80921223D01*
X141678001Y-80879480D01*
X141678000Y-80879481D01*
X141678000Y-82115000D01*
X141194500Y-82115000D01*
X141194500Y-81807066D01*
X141178597Y-81645596D01*
X141178000Y-81633442D01*
X141178000Y-80879481D01*
X141177998Y-80879480D01*
X141040389Y-80921223D01*
X140870468Y-81012048D01*
X140812015Y-81026690D01*
X140753561Y-81012048D01*
X140745471Y-81007724D01*
X140745469Y-81007722D01*
X140568880Y-80913333D01*
X140457286Y-80879481D01*
X140377270Y-80855208D01*
X140178000Y-80835582D01*
X139978729Y-80855208D01*
X139787119Y-80913332D01*
X139611453Y-81007228D01*
X139553000Y-81021870D01*
X139494547Y-81007228D01*
X139318880Y-80913332D01*
X139127270Y-80855208D01*
X138928000Y-80835582D01*
X138728729Y-80855208D01*
X138537119Y-80913332D01*
X138361453Y-81007228D01*
X138303000Y-81021870D01*
X138244547Y-81007228D01*
X138068880Y-80913332D01*
X137877270Y-80855208D01*
X137678000Y-80835582D01*
X137478729Y-80855208D01*
X137287119Y-80913332D01*
X137111453Y-81007228D01*
X137053000Y-81021870D01*
X136994547Y-81007228D01*
X136818880Y-80913332D01*
X136627270Y-80855208D01*
X136428000Y-80835582D01*
X136228729Y-80855208D01*
X136037119Y-80913332D01*
X135861453Y-81007228D01*
X135803000Y-81021870D01*
X135744547Y-81007228D01*
X135568880Y-80913332D01*
X135377270Y-80855208D01*
X135178000Y-80835582D01*
X134978729Y-80855208D01*
X134787119Y-80913332D01*
X134610532Y-81007721D01*
X134455747Y-81134747D01*
X134328721Y-81289532D01*
X134234332Y-81466119D01*
X134176208Y-81657729D01*
X134161500Y-81807066D01*
X134161500Y-82922934D01*
X112747001Y-82922934D01*
X112728100Y-82574339D01*
X112670311Y-82221841D01*
X112574754Y-81877674D01*
X112442544Y-81545852D01*
X112275235Y-81230275D01*
X112074780Y-80934625D01*
X111947901Y-80785252D01*
X111947900Y-80785251D01*
X109802153Y-82931000D01*
X109802153Y-82931001D01*
X109095046Y-82931001D01*
X109095046Y-82931000D01*
X106949298Y-80785251D01*
X106949297Y-80785252D01*
X106822414Y-80934630D01*
X106650733Y-81187843D01*
X106603796Y-81229044D01*
X106542729Y-81242140D01*
X106483024Y-81223808D01*
X106439829Y-81178698D01*
X106424100Y-81118256D01*
X106424100Y-80030500D01*
X106440713Y-79968500D01*
X106486100Y-79923113D01*
X106548100Y-79906500D01*
X107639506Y-79906500D01*
X107701118Y-79922890D01*
G37*
%TD.AperFunction*%
%TD*%
M02*
