%TF.GenerationSoftware,KiCad,Pcbnew,7.0.1*%
%TF.CreationDate,2023-05-27T07:40:04-07:00*%
%TF.ProjectId,Base-Flight-Computer-Test,42617365-2d46-46c6-9967-68742d436f6d,rev?*%
%TF.SameCoordinates,Original*%
%TF.FileFunction,Legend,Top*%
%TF.FilePolarity,Positive*%
%FSLAX46Y46*%
G04 Gerber Fmt 4.6, Leading zero omitted, Abs format (unit mm)*
G04 Created by KiCad (PCBNEW 7.0.1) date 2023-05-27 07:40:04*
%MOMM*%
%LPD*%
G01*
G04 APERTURE LIST*
%ADD10C,0.203200*%
%ADD11C,0.127000*%
%ADD12C,0.076200*%
%ADD13C,0.150000*%
%ADD14C,0.080000*%
%ADD15C,0.120214*%
%ADD16C,0.200000*%
%ADD17C,0.050800*%
%ADD18C,0.120000*%
%ADD19C,0.152400*%
%ADD20C,0.508000*%
%ADD21C,0.635000*%
%ADD22C,0.304800*%
%ADD23C,0.173137*%
G04 APERTURE END LIST*
D10*
X113856104Y-104864020D02*
X113856104Y-103848020D01*
X113856104Y-103848020D02*
X114098009Y-103848020D01*
X114098009Y-103848020D02*
X114243152Y-103896401D01*
X114243152Y-103896401D02*
X114339914Y-103993163D01*
X114339914Y-103993163D02*
X114388295Y-104089925D01*
X114388295Y-104089925D02*
X114436676Y-104283449D01*
X114436676Y-104283449D02*
X114436676Y-104428592D01*
X114436676Y-104428592D02*
X114388295Y-104622116D01*
X114388295Y-104622116D02*
X114339914Y-104718878D01*
X114339914Y-104718878D02*
X114243152Y-104815640D01*
X114243152Y-104815640D02*
X114098009Y-104864020D01*
X114098009Y-104864020D02*
X113856104Y-104864020D01*
X115452676Y-104864020D02*
X115114009Y-104380211D01*
X114872104Y-104864020D02*
X114872104Y-103848020D01*
X114872104Y-103848020D02*
X115259152Y-103848020D01*
X115259152Y-103848020D02*
X115355914Y-103896401D01*
X115355914Y-103896401D02*
X115404295Y-103944782D01*
X115404295Y-103944782D02*
X115452676Y-104041544D01*
X115452676Y-104041544D02*
X115452676Y-104186687D01*
X115452676Y-104186687D02*
X115404295Y-104283449D01*
X115404295Y-104283449D02*
X115355914Y-104331830D01*
X115355914Y-104331830D02*
X115259152Y-104380211D01*
X115259152Y-104380211D02*
X114872104Y-104380211D01*
X116081628Y-103848020D02*
X116275152Y-103848020D01*
X116275152Y-103848020D02*
X116371914Y-103896401D01*
X116371914Y-103896401D02*
X116468676Y-103993163D01*
X116468676Y-103993163D02*
X116517057Y-104186687D01*
X116517057Y-104186687D02*
X116517057Y-104525354D01*
X116517057Y-104525354D02*
X116468676Y-104718878D01*
X116468676Y-104718878D02*
X116371914Y-104815640D01*
X116371914Y-104815640D02*
X116275152Y-104864020D01*
X116275152Y-104864020D02*
X116081628Y-104864020D01*
X116081628Y-104864020D02*
X115984866Y-104815640D01*
X115984866Y-104815640D02*
X115888104Y-104718878D01*
X115888104Y-104718878D02*
X115839723Y-104525354D01*
X115839723Y-104525354D02*
X115839723Y-104186687D01*
X115839723Y-104186687D02*
X115888104Y-103993163D01*
X115888104Y-103993163D02*
X115984866Y-103896401D01*
X115984866Y-103896401D02*
X116081628Y-103848020D01*
X117484676Y-103896401D02*
X117387914Y-103848020D01*
X117387914Y-103848020D02*
X117242771Y-103848020D01*
X117242771Y-103848020D02*
X117097628Y-103896401D01*
X117097628Y-103896401D02*
X117000866Y-103993163D01*
X117000866Y-103993163D02*
X116952485Y-104089925D01*
X116952485Y-104089925D02*
X116904104Y-104283449D01*
X116904104Y-104283449D02*
X116904104Y-104428592D01*
X116904104Y-104428592D02*
X116952485Y-104622116D01*
X116952485Y-104622116D02*
X117000866Y-104718878D01*
X117000866Y-104718878D02*
X117097628Y-104815640D01*
X117097628Y-104815640D02*
X117242771Y-104864020D01*
X117242771Y-104864020D02*
X117339533Y-104864020D01*
X117339533Y-104864020D02*
X117484676Y-104815640D01*
X117484676Y-104815640D02*
X117533057Y-104767259D01*
X117533057Y-104767259D02*
X117533057Y-104428592D01*
X117533057Y-104428592D02*
X117339533Y-104428592D01*
X117968485Y-103848020D02*
X117968485Y-104670497D01*
X117968485Y-104670497D02*
X118016866Y-104767259D01*
X118016866Y-104767259D02*
X118065247Y-104815640D01*
X118065247Y-104815640D02*
X118162009Y-104864020D01*
X118162009Y-104864020D02*
X118355533Y-104864020D01*
X118355533Y-104864020D02*
X118452295Y-104815640D01*
X118452295Y-104815640D02*
X118500676Y-104767259D01*
X118500676Y-104767259D02*
X118549057Y-104670497D01*
X118549057Y-104670497D02*
X118549057Y-103848020D01*
X119032866Y-104331830D02*
X119371533Y-104331830D01*
X119516676Y-104864020D02*
X119032866Y-104864020D01*
X119032866Y-104864020D02*
X119032866Y-103848020D01*
X119032866Y-103848020D02*
X119516676Y-103848020D01*
D11*
X150767143Y-84288630D02*
X150876001Y-84324915D01*
X150876001Y-84324915D02*
X151057429Y-84324915D01*
X151057429Y-84324915D02*
X151130001Y-84288630D01*
X151130001Y-84288630D02*
X151166286Y-84252344D01*
X151166286Y-84252344D02*
X151202572Y-84179772D01*
X151202572Y-84179772D02*
X151202572Y-84107201D01*
X151202572Y-84107201D02*
X151166286Y-84034630D01*
X151166286Y-84034630D02*
X151130001Y-83998344D01*
X151130001Y-83998344D02*
X151057429Y-83962058D01*
X151057429Y-83962058D02*
X150912286Y-83925772D01*
X150912286Y-83925772D02*
X150839715Y-83889487D01*
X150839715Y-83889487D02*
X150803429Y-83853201D01*
X150803429Y-83853201D02*
X150767143Y-83780630D01*
X150767143Y-83780630D02*
X150767143Y-83708058D01*
X150767143Y-83708058D02*
X150803429Y-83635487D01*
X150803429Y-83635487D02*
X150839715Y-83599201D01*
X150839715Y-83599201D02*
X150912286Y-83562915D01*
X150912286Y-83562915D02*
X151093715Y-83562915D01*
X151093715Y-83562915D02*
X151202572Y-83599201D01*
X151420286Y-83562915D02*
X151855715Y-83562915D01*
X151638000Y-84324915D02*
X151638000Y-83562915D01*
X152073428Y-84107201D02*
X152436286Y-84107201D01*
X152000857Y-84324915D02*
X152254857Y-83562915D01*
X152254857Y-83562915D02*
X152508857Y-84324915D01*
X152654000Y-83562915D02*
X153089429Y-83562915D01*
X152871714Y-84324915D02*
X152871714Y-83562915D01*
X155252057Y-93748315D02*
X155252057Y-92986315D01*
X155252057Y-92986315D02*
X155542343Y-92986315D01*
X155542343Y-92986315D02*
X155614914Y-93022601D01*
X155614914Y-93022601D02*
X155651200Y-93058887D01*
X155651200Y-93058887D02*
X155687486Y-93131458D01*
X155687486Y-93131458D02*
X155687486Y-93240315D01*
X155687486Y-93240315D02*
X155651200Y-93312887D01*
X155651200Y-93312887D02*
X155614914Y-93349172D01*
X155614914Y-93349172D02*
X155542343Y-93385458D01*
X155542343Y-93385458D02*
X155252057Y-93385458D01*
X156159200Y-92986315D02*
X156304343Y-92986315D01*
X156304343Y-92986315D02*
X156376914Y-93022601D01*
X156376914Y-93022601D02*
X156449486Y-93095172D01*
X156449486Y-93095172D02*
X156485771Y-93240315D01*
X156485771Y-93240315D02*
X156485771Y-93494315D01*
X156485771Y-93494315D02*
X156449486Y-93639458D01*
X156449486Y-93639458D02*
X156376914Y-93712030D01*
X156376914Y-93712030D02*
X156304343Y-93748315D01*
X156304343Y-93748315D02*
X156159200Y-93748315D01*
X156159200Y-93748315D02*
X156086629Y-93712030D01*
X156086629Y-93712030D02*
X156014057Y-93639458D01*
X156014057Y-93639458D02*
X155977771Y-93494315D01*
X155977771Y-93494315D02*
X155977771Y-93240315D01*
X155977771Y-93240315D02*
X156014057Y-93095172D01*
X156014057Y-93095172D02*
X156086629Y-93022601D01*
X156086629Y-93022601D02*
X156159200Y-92986315D01*
X156739772Y-92986315D02*
X156921200Y-93748315D01*
X156921200Y-93748315D02*
X157066343Y-93204030D01*
X157066343Y-93204030D02*
X157211486Y-93748315D01*
X157211486Y-93748315D02*
X157392915Y-92986315D01*
D10*
X125576390Y-80301979D02*
X125576390Y-81317979D01*
X125576390Y-81317979D02*
X125237723Y-80592264D01*
X125237723Y-80592264D02*
X124899056Y-81317979D01*
X124899056Y-81317979D02*
X124899056Y-80301979D01*
X124463628Y-80592264D02*
X123979818Y-80592264D01*
X124560390Y-80301979D02*
X124221723Y-81317979D01*
X124221723Y-81317979D02*
X123883056Y-80301979D01*
X123544390Y-80301979D02*
X123544390Y-81317979D01*
X123060580Y-80301979D02*
X123060580Y-81317979D01*
X123060580Y-81317979D02*
X122480008Y-80301979D01*
X122480008Y-80301979D02*
X122480008Y-81317979D01*
X121665999Y-104663240D02*
X121811142Y-104711620D01*
X121811142Y-104711620D02*
X122053047Y-104711620D01*
X122053047Y-104711620D02*
X122149809Y-104663240D01*
X122149809Y-104663240D02*
X122198190Y-104614859D01*
X122198190Y-104614859D02*
X122246571Y-104518097D01*
X122246571Y-104518097D02*
X122246571Y-104421335D01*
X122246571Y-104421335D02*
X122198190Y-104324573D01*
X122198190Y-104324573D02*
X122149809Y-104276192D01*
X122149809Y-104276192D02*
X122053047Y-104227811D01*
X122053047Y-104227811D02*
X121859523Y-104179430D01*
X121859523Y-104179430D02*
X121762761Y-104131049D01*
X121762761Y-104131049D02*
X121714380Y-104082668D01*
X121714380Y-104082668D02*
X121665999Y-103985906D01*
X121665999Y-103985906D02*
X121665999Y-103889144D01*
X121665999Y-103889144D02*
X121714380Y-103792382D01*
X121714380Y-103792382D02*
X121762761Y-103744001D01*
X121762761Y-103744001D02*
X121859523Y-103695620D01*
X121859523Y-103695620D02*
X122101428Y-103695620D01*
X122101428Y-103695620D02*
X122246571Y-103744001D01*
X122585237Y-103695620D02*
X122827142Y-104711620D01*
X122827142Y-104711620D02*
X123020666Y-103985906D01*
X123020666Y-103985906D02*
X123214190Y-104711620D01*
X123214190Y-104711620D02*
X123456095Y-103695620D01*
X123843142Y-104711620D02*
X123843142Y-103695620D01*
X124181809Y-103695620D02*
X124762381Y-103695620D01*
X124472095Y-104711620D02*
X124472095Y-103695620D01*
X125681619Y-104614859D02*
X125633238Y-104663240D01*
X125633238Y-104663240D02*
X125488095Y-104711620D01*
X125488095Y-104711620D02*
X125391333Y-104711620D01*
X125391333Y-104711620D02*
X125246190Y-104663240D01*
X125246190Y-104663240D02*
X125149428Y-104566478D01*
X125149428Y-104566478D02*
X125101047Y-104469716D01*
X125101047Y-104469716D02*
X125052666Y-104276192D01*
X125052666Y-104276192D02*
X125052666Y-104131049D01*
X125052666Y-104131049D02*
X125101047Y-103937525D01*
X125101047Y-103937525D02*
X125149428Y-103840763D01*
X125149428Y-103840763D02*
X125246190Y-103744001D01*
X125246190Y-103744001D02*
X125391333Y-103695620D01*
X125391333Y-103695620D02*
X125488095Y-103695620D01*
X125488095Y-103695620D02*
X125633238Y-103744001D01*
X125633238Y-103744001D02*
X125681619Y-103792382D01*
X126117047Y-104711620D02*
X126117047Y-103695620D01*
X126117047Y-104179430D02*
X126697619Y-104179430D01*
X126697619Y-104711620D02*
X126697619Y-103695620D01*
X113861426Y-80334152D02*
X113861426Y-81108248D01*
X113474379Y-80721200D02*
X114248474Y-80721200D01*
X119932752Y-80829573D02*
X120706848Y-80829573D01*
X119415076Y-80301979D02*
X119415076Y-81317979D01*
X119415076Y-81317979D02*
X119028028Y-81317979D01*
X119028028Y-81317979D02*
X118931266Y-81269598D01*
X118931266Y-81269598D02*
X118882885Y-81221217D01*
X118882885Y-81221217D02*
X118834504Y-81124455D01*
X118834504Y-81124455D02*
X118834504Y-80979312D01*
X118834504Y-80979312D02*
X118882885Y-80882550D01*
X118882885Y-80882550D02*
X118931266Y-80834169D01*
X118931266Y-80834169D02*
X119028028Y-80785788D01*
X119028028Y-80785788D02*
X119415076Y-80785788D01*
X118205552Y-81317979D02*
X118012028Y-81317979D01*
X118012028Y-81317979D02*
X117915266Y-81269598D01*
X117915266Y-81269598D02*
X117818504Y-81172836D01*
X117818504Y-81172836D02*
X117770123Y-80979312D01*
X117770123Y-80979312D02*
X117770123Y-80640645D01*
X117770123Y-80640645D02*
X117818504Y-80447121D01*
X117818504Y-80447121D02*
X117915266Y-80350360D01*
X117915266Y-80350360D02*
X118012028Y-80301979D01*
X118012028Y-80301979D02*
X118205552Y-80301979D01*
X118205552Y-80301979D02*
X118302314Y-80350360D01*
X118302314Y-80350360D02*
X118399076Y-80447121D01*
X118399076Y-80447121D02*
X118447457Y-80640645D01*
X118447457Y-80640645D02*
X118447457Y-80979312D01*
X118447457Y-80979312D02*
X118399076Y-81172836D01*
X118399076Y-81172836D02*
X118302314Y-81269598D01*
X118302314Y-81269598D02*
X118205552Y-81317979D01*
X117431457Y-81317979D02*
X117189552Y-80301979D01*
X117189552Y-80301979D02*
X116996028Y-81027693D01*
X116996028Y-81027693D02*
X116802504Y-80301979D01*
X116802504Y-80301979D02*
X116560600Y-81317979D01*
X116173552Y-80834169D02*
X115834885Y-80834169D01*
X115689742Y-80301979D02*
X116173552Y-80301979D01*
X116173552Y-80301979D02*
X116173552Y-81317979D01*
X116173552Y-81317979D02*
X115689742Y-81317979D01*
X114673742Y-80301979D02*
X115012409Y-80785788D01*
X115254314Y-80301979D02*
X115254314Y-81317979D01*
X115254314Y-81317979D02*
X114867266Y-81317979D01*
X114867266Y-81317979D02*
X114770504Y-81269598D01*
X114770504Y-81269598D02*
X114722123Y-81221217D01*
X114722123Y-81221217D02*
X114673742Y-81124455D01*
X114673742Y-81124455D02*
X114673742Y-80979312D01*
X114673742Y-80979312D02*
X114722123Y-80882550D01*
X114722123Y-80882550D02*
X114770504Y-80834169D01*
X114770504Y-80834169D02*
X114867266Y-80785788D01*
X114867266Y-80785788D02*
X115254314Y-80785788D01*
X160643630Y-93250656D02*
X160692011Y-93105513D01*
X160692011Y-93105513D02*
X160740392Y-93057132D01*
X160740392Y-93057132D02*
X160837154Y-93008751D01*
X160837154Y-93008751D02*
X160982297Y-93008751D01*
X160982297Y-93008751D02*
X161079059Y-93057132D01*
X161079059Y-93057132D02*
X161127440Y-93105513D01*
X161127440Y-93105513D02*
X161175820Y-93202275D01*
X161175820Y-93202275D02*
X161175820Y-93589323D01*
X161175820Y-93589323D02*
X160159820Y-93589323D01*
X160159820Y-93589323D02*
X160159820Y-93250656D01*
X160159820Y-93250656D02*
X160208201Y-93153894D01*
X160208201Y-93153894D02*
X160256582Y-93105513D01*
X160256582Y-93105513D02*
X160353344Y-93057132D01*
X160353344Y-93057132D02*
X160450106Y-93057132D01*
X160450106Y-93057132D02*
X160546868Y-93105513D01*
X160546868Y-93105513D02*
X160595249Y-93153894D01*
X160595249Y-93153894D02*
X160643630Y-93250656D01*
X160643630Y-93250656D02*
X160643630Y-93589323D01*
X160159820Y-92379799D02*
X160159820Y-92186275D01*
X160159820Y-92186275D02*
X160208201Y-92089513D01*
X160208201Y-92089513D02*
X160304963Y-91992751D01*
X160304963Y-91992751D02*
X160498487Y-91944370D01*
X160498487Y-91944370D02*
X160837154Y-91944370D01*
X160837154Y-91944370D02*
X161030678Y-91992751D01*
X161030678Y-91992751D02*
X161127440Y-92089513D01*
X161127440Y-92089513D02*
X161175820Y-92186275D01*
X161175820Y-92186275D02*
X161175820Y-92379799D01*
X161175820Y-92379799D02*
X161127440Y-92476561D01*
X161127440Y-92476561D02*
X161030678Y-92573323D01*
X161030678Y-92573323D02*
X160837154Y-92621704D01*
X160837154Y-92621704D02*
X160498487Y-92621704D01*
X160498487Y-92621704D02*
X160304963Y-92573323D01*
X160304963Y-92573323D02*
X160208201Y-92476561D01*
X160208201Y-92476561D02*
X160159820Y-92379799D01*
X160159820Y-91315418D02*
X160159820Y-91121894D01*
X160159820Y-91121894D02*
X160208201Y-91025132D01*
X160208201Y-91025132D02*
X160304963Y-90928370D01*
X160304963Y-90928370D02*
X160498487Y-90879989D01*
X160498487Y-90879989D02*
X160837154Y-90879989D01*
X160837154Y-90879989D02*
X161030678Y-90928370D01*
X161030678Y-90928370D02*
X161127440Y-91025132D01*
X161127440Y-91025132D02*
X161175820Y-91121894D01*
X161175820Y-91121894D02*
X161175820Y-91315418D01*
X161175820Y-91315418D02*
X161127440Y-91412180D01*
X161127440Y-91412180D02*
X161030678Y-91508942D01*
X161030678Y-91508942D02*
X160837154Y-91557323D01*
X160837154Y-91557323D02*
X160498487Y-91557323D01*
X160498487Y-91557323D02*
X160304963Y-91508942D01*
X160304963Y-91508942D02*
X160208201Y-91412180D01*
X160208201Y-91412180D02*
X160159820Y-91315418D01*
X160159820Y-90589704D02*
X160159820Y-90009132D01*
X161175820Y-90299418D02*
X160159820Y-90299418D01*
D12*
%TO.C,P2*%
X136785047Y-99930010D02*
X136785047Y-99422010D01*
X136785047Y-99422010D02*
X136978571Y-99422010D01*
X136978571Y-99422010D02*
X137026952Y-99446200D01*
X137026952Y-99446200D02*
X137051142Y-99470391D01*
X137051142Y-99470391D02*
X137075333Y-99518772D01*
X137075333Y-99518772D02*
X137075333Y-99591343D01*
X137075333Y-99591343D02*
X137051142Y-99639724D01*
X137051142Y-99639724D02*
X137026952Y-99663915D01*
X137026952Y-99663915D02*
X136978571Y-99688105D01*
X136978571Y-99688105D02*
X136785047Y-99688105D01*
X137268856Y-99470391D02*
X137293047Y-99446200D01*
X137293047Y-99446200D02*
X137341428Y-99422010D01*
X137341428Y-99422010D02*
X137462380Y-99422010D01*
X137462380Y-99422010D02*
X137510761Y-99446200D01*
X137510761Y-99446200D02*
X137534952Y-99470391D01*
X137534952Y-99470391D02*
X137559142Y-99518772D01*
X137559142Y-99518772D02*
X137559142Y-99567153D01*
X137559142Y-99567153D02*
X137534952Y-99639724D01*
X137534952Y-99639724D02*
X137244666Y-99930010D01*
X137244666Y-99930010D02*
X137559142Y-99930010D01*
%TO.C,R20*%
X128476828Y-101606410D02*
X128307494Y-101364505D01*
X128186542Y-101606410D02*
X128186542Y-101098410D01*
X128186542Y-101098410D02*
X128380066Y-101098410D01*
X128380066Y-101098410D02*
X128428447Y-101122600D01*
X128428447Y-101122600D02*
X128452637Y-101146791D01*
X128452637Y-101146791D02*
X128476828Y-101195172D01*
X128476828Y-101195172D02*
X128476828Y-101267743D01*
X128476828Y-101267743D02*
X128452637Y-101316124D01*
X128452637Y-101316124D02*
X128428447Y-101340315D01*
X128428447Y-101340315D02*
X128380066Y-101364505D01*
X128380066Y-101364505D02*
X128186542Y-101364505D01*
X128670351Y-101146791D02*
X128694542Y-101122600D01*
X128694542Y-101122600D02*
X128742923Y-101098410D01*
X128742923Y-101098410D02*
X128863875Y-101098410D01*
X128863875Y-101098410D02*
X128912256Y-101122600D01*
X128912256Y-101122600D02*
X128936447Y-101146791D01*
X128936447Y-101146791D02*
X128960637Y-101195172D01*
X128960637Y-101195172D02*
X128960637Y-101243553D01*
X128960637Y-101243553D02*
X128936447Y-101316124D01*
X128936447Y-101316124D02*
X128646161Y-101606410D01*
X128646161Y-101606410D02*
X128960637Y-101606410D01*
X129275114Y-101098410D02*
X129323495Y-101098410D01*
X129323495Y-101098410D02*
X129371876Y-101122600D01*
X129371876Y-101122600D02*
X129396066Y-101146791D01*
X129396066Y-101146791D02*
X129420257Y-101195172D01*
X129420257Y-101195172D02*
X129444447Y-101291934D01*
X129444447Y-101291934D02*
X129444447Y-101412886D01*
X129444447Y-101412886D02*
X129420257Y-101509648D01*
X129420257Y-101509648D02*
X129396066Y-101558029D01*
X129396066Y-101558029D02*
X129371876Y-101582220D01*
X129371876Y-101582220D02*
X129323495Y-101606410D01*
X129323495Y-101606410D02*
X129275114Y-101606410D01*
X129275114Y-101606410D02*
X129226733Y-101582220D01*
X129226733Y-101582220D02*
X129202542Y-101558029D01*
X129202542Y-101558029D02*
X129178352Y-101509648D01*
X129178352Y-101509648D02*
X129154161Y-101412886D01*
X129154161Y-101412886D02*
X129154161Y-101291934D01*
X129154161Y-101291934D02*
X129178352Y-101195172D01*
X129178352Y-101195172D02*
X129202542Y-101146791D01*
X129202542Y-101146791D02*
X129226733Y-101122600D01*
X129226733Y-101122600D02*
X129275114Y-101098410D01*
%TO.C,C6*%
X126000933Y-93201429D02*
X125976742Y-93225620D01*
X125976742Y-93225620D02*
X125904171Y-93249810D01*
X125904171Y-93249810D02*
X125855790Y-93249810D01*
X125855790Y-93249810D02*
X125783218Y-93225620D01*
X125783218Y-93225620D02*
X125734837Y-93177239D01*
X125734837Y-93177239D02*
X125710647Y-93128858D01*
X125710647Y-93128858D02*
X125686456Y-93032096D01*
X125686456Y-93032096D02*
X125686456Y-92959524D01*
X125686456Y-92959524D02*
X125710647Y-92862762D01*
X125710647Y-92862762D02*
X125734837Y-92814381D01*
X125734837Y-92814381D02*
X125783218Y-92766000D01*
X125783218Y-92766000D02*
X125855790Y-92741810D01*
X125855790Y-92741810D02*
X125904171Y-92741810D01*
X125904171Y-92741810D02*
X125976742Y-92766000D01*
X125976742Y-92766000D02*
X126000933Y-92790191D01*
X126436361Y-92741810D02*
X126339599Y-92741810D01*
X126339599Y-92741810D02*
X126291218Y-92766000D01*
X126291218Y-92766000D02*
X126267028Y-92790191D01*
X126267028Y-92790191D02*
X126218647Y-92862762D01*
X126218647Y-92862762D02*
X126194456Y-92959524D01*
X126194456Y-92959524D02*
X126194456Y-93153048D01*
X126194456Y-93153048D02*
X126218647Y-93201429D01*
X126218647Y-93201429D02*
X126242837Y-93225620D01*
X126242837Y-93225620D02*
X126291218Y-93249810D01*
X126291218Y-93249810D02*
X126387980Y-93249810D01*
X126387980Y-93249810D02*
X126436361Y-93225620D01*
X126436361Y-93225620D02*
X126460552Y-93201429D01*
X126460552Y-93201429D02*
X126484742Y-93153048D01*
X126484742Y-93153048D02*
X126484742Y-93032096D01*
X126484742Y-93032096D02*
X126460552Y-92983715D01*
X126460552Y-92983715D02*
X126436361Y-92959524D01*
X126436361Y-92959524D02*
X126387980Y-92935334D01*
X126387980Y-92935334D02*
X126291218Y-92935334D01*
X126291218Y-92935334D02*
X126242837Y-92959524D01*
X126242837Y-92959524D02*
X126218647Y-92983715D01*
X126218647Y-92983715D02*
X126194456Y-93032096D01*
%TO.C,D1*%
X151440847Y-80702210D02*
X151440847Y-80194210D01*
X151440847Y-80194210D02*
X151561799Y-80194210D01*
X151561799Y-80194210D02*
X151634371Y-80218400D01*
X151634371Y-80218400D02*
X151682752Y-80266781D01*
X151682752Y-80266781D02*
X151706942Y-80315162D01*
X151706942Y-80315162D02*
X151731133Y-80411924D01*
X151731133Y-80411924D02*
X151731133Y-80484496D01*
X151731133Y-80484496D02*
X151706942Y-80581258D01*
X151706942Y-80581258D02*
X151682752Y-80629639D01*
X151682752Y-80629639D02*
X151634371Y-80678020D01*
X151634371Y-80678020D02*
X151561799Y-80702210D01*
X151561799Y-80702210D02*
X151440847Y-80702210D01*
X152214942Y-80702210D02*
X151924656Y-80702210D01*
X152069799Y-80702210D02*
X152069799Y-80194210D01*
X152069799Y-80194210D02*
X152021418Y-80266781D01*
X152021418Y-80266781D02*
X151973037Y-80315162D01*
X151973037Y-80315162D02*
X151924656Y-80339353D01*
D13*
%TO.C,P3*%
X143376724Y-80957095D02*
X143376724Y-80157095D01*
X143376724Y-80157095D02*
X143681486Y-80157095D01*
X143681486Y-80157095D02*
X143757676Y-80195190D01*
X143757676Y-80195190D02*
X143795771Y-80233285D01*
X143795771Y-80233285D02*
X143833867Y-80309476D01*
X143833867Y-80309476D02*
X143833867Y-80423761D01*
X143833867Y-80423761D02*
X143795771Y-80499952D01*
X143795771Y-80499952D02*
X143757676Y-80538047D01*
X143757676Y-80538047D02*
X143681486Y-80576142D01*
X143681486Y-80576142D02*
X143376724Y-80576142D01*
X144100533Y-80157095D02*
X144595771Y-80157095D01*
X144595771Y-80157095D02*
X144329105Y-80461857D01*
X144329105Y-80461857D02*
X144443390Y-80461857D01*
X144443390Y-80461857D02*
X144519581Y-80499952D01*
X144519581Y-80499952D02*
X144557676Y-80538047D01*
X144557676Y-80538047D02*
X144595771Y-80614238D01*
X144595771Y-80614238D02*
X144595771Y-80804714D01*
X144595771Y-80804714D02*
X144557676Y-80880904D01*
X144557676Y-80880904D02*
X144519581Y-80919000D01*
X144519581Y-80919000D02*
X144443390Y-80957095D01*
X144443390Y-80957095D02*
X144214819Y-80957095D01*
X144214819Y-80957095D02*
X144138628Y-80919000D01*
X144138628Y-80919000D02*
X144100533Y-80880904D01*
D12*
%TO.C,C8*%
X152239133Y-85048029D02*
X152214942Y-85072220D01*
X152214942Y-85072220D02*
X152142371Y-85096410D01*
X152142371Y-85096410D02*
X152093990Y-85096410D01*
X152093990Y-85096410D02*
X152021418Y-85072220D01*
X152021418Y-85072220D02*
X151973037Y-85023839D01*
X151973037Y-85023839D02*
X151948847Y-84975458D01*
X151948847Y-84975458D02*
X151924656Y-84878696D01*
X151924656Y-84878696D02*
X151924656Y-84806124D01*
X151924656Y-84806124D02*
X151948847Y-84709362D01*
X151948847Y-84709362D02*
X151973037Y-84660981D01*
X151973037Y-84660981D02*
X152021418Y-84612600D01*
X152021418Y-84612600D02*
X152093990Y-84588410D01*
X152093990Y-84588410D02*
X152142371Y-84588410D01*
X152142371Y-84588410D02*
X152214942Y-84612600D01*
X152214942Y-84612600D02*
X152239133Y-84636791D01*
X152529418Y-84806124D02*
X152481037Y-84781934D01*
X152481037Y-84781934D02*
X152456847Y-84757743D01*
X152456847Y-84757743D02*
X152432656Y-84709362D01*
X152432656Y-84709362D02*
X152432656Y-84685172D01*
X152432656Y-84685172D02*
X152456847Y-84636791D01*
X152456847Y-84636791D02*
X152481037Y-84612600D01*
X152481037Y-84612600D02*
X152529418Y-84588410D01*
X152529418Y-84588410D02*
X152626180Y-84588410D01*
X152626180Y-84588410D02*
X152674561Y-84612600D01*
X152674561Y-84612600D02*
X152698752Y-84636791D01*
X152698752Y-84636791D02*
X152722942Y-84685172D01*
X152722942Y-84685172D02*
X152722942Y-84709362D01*
X152722942Y-84709362D02*
X152698752Y-84757743D01*
X152698752Y-84757743D02*
X152674561Y-84781934D01*
X152674561Y-84781934D02*
X152626180Y-84806124D01*
X152626180Y-84806124D02*
X152529418Y-84806124D01*
X152529418Y-84806124D02*
X152481037Y-84830315D01*
X152481037Y-84830315D02*
X152456847Y-84854505D01*
X152456847Y-84854505D02*
X152432656Y-84902886D01*
X152432656Y-84902886D02*
X152432656Y-84999648D01*
X152432656Y-84999648D02*
X152456847Y-85048029D01*
X152456847Y-85048029D02*
X152481037Y-85072220D01*
X152481037Y-85072220D02*
X152529418Y-85096410D01*
X152529418Y-85096410D02*
X152626180Y-85096410D01*
X152626180Y-85096410D02*
X152674561Y-85072220D01*
X152674561Y-85072220D02*
X152698752Y-85048029D01*
X152698752Y-85048029D02*
X152722942Y-84999648D01*
X152722942Y-84999648D02*
X152722942Y-84902886D01*
X152722942Y-84902886D02*
X152698752Y-84854505D01*
X152698752Y-84854505D02*
X152674561Y-84830315D01*
X152674561Y-84830315D02*
X152626180Y-84806124D01*
%TO.C,R13*%
X153191028Y-89871610D02*
X153021694Y-89629705D01*
X152900742Y-89871610D02*
X152900742Y-89363610D01*
X152900742Y-89363610D02*
X153094266Y-89363610D01*
X153094266Y-89363610D02*
X153142647Y-89387800D01*
X153142647Y-89387800D02*
X153166837Y-89411991D01*
X153166837Y-89411991D02*
X153191028Y-89460372D01*
X153191028Y-89460372D02*
X153191028Y-89532943D01*
X153191028Y-89532943D02*
X153166837Y-89581324D01*
X153166837Y-89581324D02*
X153142647Y-89605515D01*
X153142647Y-89605515D02*
X153094266Y-89629705D01*
X153094266Y-89629705D02*
X152900742Y-89629705D01*
X153674837Y-89871610D02*
X153384551Y-89871610D01*
X153529694Y-89871610D02*
X153529694Y-89363610D01*
X153529694Y-89363610D02*
X153481313Y-89436181D01*
X153481313Y-89436181D02*
X153432932Y-89484562D01*
X153432932Y-89484562D02*
X153384551Y-89508753D01*
X153844171Y-89363610D02*
X154158647Y-89363610D01*
X154158647Y-89363610D02*
X153989314Y-89557134D01*
X153989314Y-89557134D02*
X154061885Y-89557134D01*
X154061885Y-89557134D02*
X154110266Y-89581324D01*
X154110266Y-89581324D02*
X154134457Y-89605515D01*
X154134457Y-89605515D02*
X154158647Y-89653896D01*
X154158647Y-89653896D02*
X154158647Y-89774848D01*
X154158647Y-89774848D02*
X154134457Y-89823229D01*
X154134457Y-89823229D02*
X154110266Y-89847420D01*
X154110266Y-89847420D02*
X154061885Y-89871610D01*
X154061885Y-89871610D02*
X153916742Y-89871610D01*
X153916742Y-89871610D02*
X153868361Y-89847420D01*
X153868361Y-89847420D02*
X153844171Y-89823229D01*
%TO.C,C7*%
X116552133Y-91347229D02*
X116527942Y-91371420D01*
X116527942Y-91371420D02*
X116455371Y-91395610D01*
X116455371Y-91395610D02*
X116406990Y-91395610D01*
X116406990Y-91395610D02*
X116334418Y-91371420D01*
X116334418Y-91371420D02*
X116286037Y-91323039D01*
X116286037Y-91323039D02*
X116261847Y-91274658D01*
X116261847Y-91274658D02*
X116237656Y-91177896D01*
X116237656Y-91177896D02*
X116237656Y-91105324D01*
X116237656Y-91105324D02*
X116261847Y-91008562D01*
X116261847Y-91008562D02*
X116286037Y-90960181D01*
X116286037Y-90960181D02*
X116334418Y-90911800D01*
X116334418Y-90911800D02*
X116406990Y-90887610D01*
X116406990Y-90887610D02*
X116455371Y-90887610D01*
X116455371Y-90887610D02*
X116527942Y-90911800D01*
X116527942Y-90911800D02*
X116552133Y-90935991D01*
X116721466Y-90887610D02*
X117060133Y-90887610D01*
X117060133Y-90887610D02*
X116842418Y-91395610D01*
%TO.C,D2*%
X128403047Y-104756010D02*
X128403047Y-104248010D01*
X128403047Y-104248010D02*
X128523999Y-104248010D01*
X128523999Y-104248010D02*
X128596571Y-104272200D01*
X128596571Y-104272200D02*
X128644952Y-104320581D01*
X128644952Y-104320581D02*
X128669142Y-104368962D01*
X128669142Y-104368962D02*
X128693333Y-104465724D01*
X128693333Y-104465724D02*
X128693333Y-104538296D01*
X128693333Y-104538296D02*
X128669142Y-104635058D01*
X128669142Y-104635058D02*
X128644952Y-104683439D01*
X128644952Y-104683439D02*
X128596571Y-104731820D01*
X128596571Y-104731820D02*
X128523999Y-104756010D01*
X128523999Y-104756010D02*
X128403047Y-104756010D01*
X128886856Y-104296391D02*
X128911047Y-104272200D01*
X128911047Y-104272200D02*
X128959428Y-104248010D01*
X128959428Y-104248010D02*
X129080380Y-104248010D01*
X129080380Y-104248010D02*
X129128761Y-104272200D01*
X129128761Y-104272200D02*
X129152952Y-104296391D01*
X129152952Y-104296391D02*
X129177142Y-104344772D01*
X129177142Y-104344772D02*
X129177142Y-104393153D01*
X129177142Y-104393153D02*
X129152952Y-104465724D01*
X129152952Y-104465724D02*
X128862666Y-104756010D01*
X128862666Y-104756010D02*
X129177142Y-104756010D01*
D13*
%TO.C,BZ1*%
X147622847Y-97500209D02*
X147765704Y-97547828D01*
X147765704Y-97547828D02*
X147813323Y-97595447D01*
X147813323Y-97595447D02*
X147860942Y-97690685D01*
X147860942Y-97690685D02*
X147860942Y-97833542D01*
X147860942Y-97833542D02*
X147813323Y-97928780D01*
X147813323Y-97928780D02*
X147765704Y-97976400D01*
X147765704Y-97976400D02*
X147670466Y-98024019D01*
X147670466Y-98024019D02*
X147289514Y-98024019D01*
X147289514Y-98024019D02*
X147289514Y-97024019D01*
X147289514Y-97024019D02*
X147622847Y-97024019D01*
X147622847Y-97024019D02*
X147718085Y-97071638D01*
X147718085Y-97071638D02*
X147765704Y-97119257D01*
X147765704Y-97119257D02*
X147813323Y-97214495D01*
X147813323Y-97214495D02*
X147813323Y-97309733D01*
X147813323Y-97309733D02*
X147765704Y-97404971D01*
X147765704Y-97404971D02*
X147718085Y-97452590D01*
X147718085Y-97452590D02*
X147622847Y-97500209D01*
X147622847Y-97500209D02*
X147289514Y-97500209D01*
X148194276Y-97024019D02*
X148860942Y-97024019D01*
X148860942Y-97024019D02*
X148194276Y-98024019D01*
X148194276Y-98024019D02*
X148860942Y-98024019D01*
X149765704Y-98024019D02*
X149194276Y-98024019D01*
X149479990Y-98024019D02*
X149479990Y-97024019D01*
X149479990Y-97024019D02*
X149384752Y-97166876D01*
X149384752Y-97166876D02*
X149289514Y-97262114D01*
X149289514Y-97262114D02*
X149194276Y-97309733D01*
D12*
%TO.C,R4*%
X148225933Y-83115210D02*
X148056599Y-82873305D01*
X147935647Y-83115210D02*
X147935647Y-82607210D01*
X147935647Y-82607210D02*
X148129171Y-82607210D01*
X148129171Y-82607210D02*
X148177552Y-82631400D01*
X148177552Y-82631400D02*
X148201742Y-82655591D01*
X148201742Y-82655591D02*
X148225933Y-82703972D01*
X148225933Y-82703972D02*
X148225933Y-82776543D01*
X148225933Y-82776543D02*
X148201742Y-82824924D01*
X148201742Y-82824924D02*
X148177552Y-82849115D01*
X148177552Y-82849115D02*
X148129171Y-82873305D01*
X148129171Y-82873305D02*
X147935647Y-82873305D01*
X148661361Y-82776543D02*
X148661361Y-83115210D01*
X148540409Y-82583020D02*
X148419456Y-82945877D01*
X148419456Y-82945877D02*
X148733933Y-82945877D01*
%TO.C,R1*%
X110938533Y-86874410D02*
X110769199Y-86632505D01*
X110648247Y-86874410D02*
X110648247Y-86366410D01*
X110648247Y-86366410D02*
X110841771Y-86366410D01*
X110841771Y-86366410D02*
X110890152Y-86390600D01*
X110890152Y-86390600D02*
X110914342Y-86414791D01*
X110914342Y-86414791D02*
X110938533Y-86463172D01*
X110938533Y-86463172D02*
X110938533Y-86535743D01*
X110938533Y-86535743D02*
X110914342Y-86584124D01*
X110914342Y-86584124D02*
X110890152Y-86608315D01*
X110890152Y-86608315D02*
X110841771Y-86632505D01*
X110841771Y-86632505D02*
X110648247Y-86632505D01*
X111422342Y-86874410D02*
X111132056Y-86874410D01*
X111277199Y-86874410D02*
X111277199Y-86366410D01*
X111277199Y-86366410D02*
X111228818Y-86438981D01*
X111228818Y-86438981D02*
X111180437Y-86487362D01*
X111180437Y-86487362D02*
X111132056Y-86511553D01*
%TO.C,C1*%
X140605933Y-87181629D02*
X140581742Y-87205820D01*
X140581742Y-87205820D02*
X140509171Y-87230010D01*
X140509171Y-87230010D02*
X140460790Y-87230010D01*
X140460790Y-87230010D02*
X140388218Y-87205820D01*
X140388218Y-87205820D02*
X140339837Y-87157439D01*
X140339837Y-87157439D02*
X140315647Y-87109058D01*
X140315647Y-87109058D02*
X140291456Y-87012296D01*
X140291456Y-87012296D02*
X140291456Y-86939724D01*
X140291456Y-86939724D02*
X140315647Y-86842962D01*
X140315647Y-86842962D02*
X140339837Y-86794581D01*
X140339837Y-86794581D02*
X140388218Y-86746200D01*
X140388218Y-86746200D02*
X140460790Y-86722010D01*
X140460790Y-86722010D02*
X140509171Y-86722010D01*
X140509171Y-86722010D02*
X140581742Y-86746200D01*
X140581742Y-86746200D02*
X140605933Y-86770391D01*
X141089742Y-87230010D02*
X140799456Y-87230010D01*
X140944599Y-87230010D02*
X140944599Y-86722010D01*
X140944599Y-86722010D02*
X140896218Y-86794581D01*
X140896218Y-86794581D02*
X140847837Y-86842962D01*
X140847837Y-86842962D02*
X140799456Y-86867153D01*
D13*
%TO.C,P5*%
X110128980Y-90727305D02*
X111128980Y-90727305D01*
X111128980Y-90727305D02*
X111128980Y-91108257D01*
X111128980Y-91108257D02*
X111081361Y-91203495D01*
X111081361Y-91203495D02*
X111033742Y-91251114D01*
X111033742Y-91251114D02*
X110938504Y-91298733D01*
X110938504Y-91298733D02*
X110795647Y-91298733D01*
X110795647Y-91298733D02*
X110700409Y-91251114D01*
X110700409Y-91251114D02*
X110652790Y-91203495D01*
X110652790Y-91203495D02*
X110605171Y-91108257D01*
X110605171Y-91108257D02*
X110605171Y-90727305D01*
X111128980Y-92203495D02*
X111128980Y-91727305D01*
X111128980Y-91727305D02*
X110652790Y-91679686D01*
X110652790Y-91679686D02*
X110700409Y-91727305D01*
X110700409Y-91727305D02*
X110748028Y-91822543D01*
X110748028Y-91822543D02*
X110748028Y-92060638D01*
X110748028Y-92060638D02*
X110700409Y-92155876D01*
X110700409Y-92155876D02*
X110652790Y-92203495D01*
X110652790Y-92203495D02*
X110557552Y-92251114D01*
X110557552Y-92251114D02*
X110319457Y-92251114D01*
X110319457Y-92251114D02*
X110224219Y-92203495D01*
X110224219Y-92203495D02*
X110176600Y-92155876D01*
X110176600Y-92155876D02*
X110128980Y-92060638D01*
X110128980Y-92060638D02*
X110128980Y-91822543D01*
X110128980Y-91822543D02*
X110176600Y-91727305D01*
X110176600Y-91727305D02*
X110224219Y-91679686D01*
D12*
%TO.C,Q2*%
X127256419Y-91012191D02*
X127208038Y-90988000D01*
X127208038Y-90988000D02*
X127159657Y-90939620D01*
X127159657Y-90939620D02*
X127087085Y-90867048D01*
X127087085Y-90867048D02*
X127038704Y-90842858D01*
X127038704Y-90842858D02*
X126990323Y-90842858D01*
X127014514Y-90963810D02*
X126966133Y-90939620D01*
X126966133Y-90939620D02*
X126917752Y-90891239D01*
X126917752Y-90891239D02*
X126893561Y-90794477D01*
X126893561Y-90794477D02*
X126893561Y-90625143D01*
X126893561Y-90625143D02*
X126917752Y-90528381D01*
X126917752Y-90528381D02*
X126966133Y-90480000D01*
X126966133Y-90480000D02*
X127014514Y-90455810D01*
X127014514Y-90455810D02*
X127111276Y-90455810D01*
X127111276Y-90455810D02*
X127159657Y-90480000D01*
X127159657Y-90480000D02*
X127208038Y-90528381D01*
X127208038Y-90528381D02*
X127232228Y-90625143D01*
X127232228Y-90625143D02*
X127232228Y-90794477D01*
X127232228Y-90794477D02*
X127208038Y-90891239D01*
X127208038Y-90891239D02*
X127159657Y-90939620D01*
X127159657Y-90939620D02*
X127111276Y-90963810D01*
X127111276Y-90963810D02*
X127014514Y-90963810D01*
X127425751Y-90504191D02*
X127449942Y-90480000D01*
X127449942Y-90480000D02*
X127498323Y-90455810D01*
X127498323Y-90455810D02*
X127619275Y-90455810D01*
X127619275Y-90455810D02*
X127667656Y-90480000D01*
X127667656Y-90480000D02*
X127691847Y-90504191D01*
X127691847Y-90504191D02*
X127716037Y-90552572D01*
X127716037Y-90552572D02*
X127716037Y-90600953D01*
X127716037Y-90600953D02*
X127691847Y-90673524D01*
X127691847Y-90673524D02*
X127401561Y-90963810D01*
X127401561Y-90963810D02*
X127716037Y-90963810D01*
%TO.C,R22*%
X130305628Y-93249810D02*
X130136294Y-93007905D01*
X130015342Y-93249810D02*
X130015342Y-92741810D01*
X130015342Y-92741810D02*
X130208866Y-92741810D01*
X130208866Y-92741810D02*
X130257247Y-92766000D01*
X130257247Y-92766000D02*
X130281437Y-92790191D01*
X130281437Y-92790191D02*
X130305628Y-92838572D01*
X130305628Y-92838572D02*
X130305628Y-92911143D01*
X130305628Y-92911143D02*
X130281437Y-92959524D01*
X130281437Y-92959524D02*
X130257247Y-92983715D01*
X130257247Y-92983715D02*
X130208866Y-93007905D01*
X130208866Y-93007905D02*
X130015342Y-93007905D01*
X130499151Y-92790191D02*
X130523342Y-92766000D01*
X130523342Y-92766000D02*
X130571723Y-92741810D01*
X130571723Y-92741810D02*
X130692675Y-92741810D01*
X130692675Y-92741810D02*
X130741056Y-92766000D01*
X130741056Y-92766000D02*
X130765247Y-92790191D01*
X130765247Y-92790191D02*
X130789437Y-92838572D01*
X130789437Y-92838572D02*
X130789437Y-92886953D01*
X130789437Y-92886953D02*
X130765247Y-92959524D01*
X130765247Y-92959524D02*
X130474961Y-93249810D01*
X130474961Y-93249810D02*
X130789437Y-93249810D01*
X130982961Y-92790191D02*
X131007152Y-92766000D01*
X131007152Y-92766000D02*
X131055533Y-92741810D01*
X131055533Y-92741810D02*
X131176485Y-92741810D01*
X131176485Y-92741810D02*
X131224866Y-92766000D01*
X131224866Y-92766000D02*
X131249057Y-92790191D01*
X131249057Y-92790191D02*
X131273247Y-92838572D01*
X131273247Y-92838572D02*
X131273247Y-92886953D01*
X131273247Y-92886953D02*
X131249057Y-92959524D01*
X131249057Y-92959524D02*
X130958771Y-93249810D01*
X130958771Y-93249810D02*
X131273247Y-93249810D01*
%TO.C,R7*%
X110100533Y-98304410D02*
X109931199Y-98062505D01*
X109810247Y-98304410D02*
X109810247Y-97796410D01*
X109810247Y-97796410D02*
X110003771Y-97796410D01*
X110003771Y-97796410D02*
X110052152Y-97820600D01*
X110052152Y-97820600D02*
X110076342Y-97844791D01*
X110076342Y-97844791D02*
X110100533Y-97893172D01*
X110100533Y-97893172D02*
X110100533Y-97965743D01*
X110100533Y-97965743D02*
X110076342Y-98014124D01*
X110076342Y-98014124D02*
X110052152Y-98038315D01*
X110052152Y-98038315D02*
X110003771Y-98062505D01*
X110003771Y-98062505D02*
X109810247Y-98062505D01*
X110269866Y-97796410D02*
X110608533Y-97796410D01*
X110608533Y-97796410D02*
X110390818Y-98304410D01*
%TO.C,C4*%
X131436533Y-95690629D02*
X131412342Y-95714820D01*
X131412342Y-95714820D02*
X131339771Y-95739010D01*
X131339771Y-95739010D02*
X131291390Y-95739010D01*
X131291390Y-95739010D02*
X131218818Y-95714820D01*
X131218818Y-95714820D02*
X131170437Y-95666439D01*
X131170437Y-95666439D02*
X131146247Y-95618058D01*
X131146247Y-95618058D02*
X131122056Y-95521296D01*
X131122056Y-95521296D02*
X131122056Y-95448724D01*
X131122056Y-95448724D02*
X131146247Y-95351962D01*
X131146247Y-95351962D02*
X131170437Y-95303581D01*
X131170437Y-95303581D02*
X131218818Y-95255200D01*
X131218818Y-95255200D02*
X131291390Y-95231010D01*
X131291390Y-95231010D02*
X131339771Y-95231010D01*
X131339771Y-95231010D02*
X131412342Y-95255200D01*
X131412342Y-95255200D02*
X131436533Y-95279391D01*
X131871961Y-95400343D02*
X131871961Y-95739010D01*
X131751009Y-95206820D02*
X131630056Y-95569677D01*
X131630056Y-95569677D02*
X131944533Y-95569677D01*
%TO.C,D5*%
X106838447Y-97136010D02*
X106838447Y-96628010D01*
X106838447Y-96628010D02*
X106959399Y-96628010D01*
X106959399Y-96628010D02*
X107031971Y-96652200D01*
X107031971Y-96652200D02*
X107080352Y-96700581D01*
X107080352Y-96700581D02*
X107104542Y-96748962D01*
X107104542Y-96748962D02*
X107128733Y-96845724D01*
X107128733Y-96845724D02*
X107128733Y-96918296D01*
X107128733Y-96918296D02*
X107104542Y-97015058D01*
X107104542Y-97015058D02*
X107080352Y-97063439D01*
X107080352Y-97063439D02*
X107031971Y-97111820D01*
X107031971Y-97111820D02*
X106959399Y-97136010D01*
X106959399Y-97136010D02*
X106838447Y-97136010D01*
X107588352Y-96628010D02*
X107346447Y-96628010D01*
X107346447Y-96628010D02*
X107322256Y-96869915D01*
X107322256Y-96869915D02*
X107346447Y-96845724D01*
X107346447Y-96845724D02*
X107394828Y-96821534D01*
X107394828Y-96821534D02*
X107515780Y-96821534D01*
X107515780Y-96821534D02*
X107564161Y-96845724D01*
X107564161Y-96845724D02*
X107588352Y-96869915D01*
X107588352Y-96869915D02*
X107612542Y-96918296D01*
X107612542Y-96918296D02*
X107612542Y-97039248D01*
X107612542Y-97039248D02*
X107588352Y-97087629D01*
X107588352Y-97087629D02*
X107564161Y-97111820D01*
X107564161Y-97111820D02*
X107515780Y-97136010D01*
X107515780Y-97136010D02*
X107394828Y-97136010D01*
X107394828Y-97136010D02*
X107346447Y-97111820D01*
X107346447Y-97111820D02*
X107322256Y-97087629D01*
%TO.C,U3*%
X132072552Y-82362610D02*
X132072552Y-82773848D01*
X132072552Y-82773848D02*
X132096742Y-82822229D01*
X132096742Y-82822229D02*
X132120933Y-82846420D01*
X132120933Y-82846420D02*
X132169314Y-82870610D01*
X132169314Y-82870610D02*
X132266076Y-82870610D01*
X132266076Y-82870610D02*
X132314457Y-82846420D01*
X132314457Y-82846420D02*
X132338647Y-82822229D01*
X132338647Y-82822229D02*
X132362838Y-82773848D01*
X132362838Y-82773848D02*
X132362838Y-82362610D01*
X132556361Y-82362610D02*
X132870837Y-82362610D01*
X132870837Y-82362610D02*
X132701504Y-82556134D01*
X132701504Y-82556134D02*
X132774075Y-82556134D01*
X132774075Y-82556134D02*
X132822456Y-82580324D01*
X132822456Y-82580324D02*
X132846647Y-82604515D01*
X132846647Y-82604515D02*
X132870837Y-82652896D01*
X132870837Y-82652896D02*
X132870837Y-82773848D01*
X132870837Y-82773848D02*
X132846647Y-82822229D01*
X132846647Y-82822229D02*
X132822456Y-82846420D01*
X132822456Y-82846420D02*
X132774075Y-82870610D01*
X132774075Y-82870610D02*
X132628932Y-82870610D01*
X132628932Y-82870610D02*
X132580551Y-82846420D01*
X132580551Y-82846420D02*
X132556361Y-82822229D01*
%TO.C,R21*%
X127994228Y-89998610D02*
X127824894Y-89756705D01*
X127703942Y-89998610D02*
X127703942Y-89490610D01*
X127703942Y-89490610D02*
X127897466Y-89490610D01*
X127897466Y-89490610D02*
X127945847Y-89514800D01*
X127945847Y-89514800D02*
X127970037Y-89538991D01*
X127970037Y-89538991D02*
X127994228Y-89587372D01*
X127994228Y-89587372D02*
X127994228Y-89659943D01*
X127994228Y-89659943D02*
X127970037Y-89708324D01*
X127970037Y-89708324D02*
X127945847Y-89732515D01*
X127945847Y-89732515D02*
X127897466Y-89756705D01*
X127897466Y-89756705D02*
X127703942Y-89756705D01*
X128187751Y-89538991D02*
X128211942Y-89514800D01*
X128211942Y-89514800D02*
X128260323Y-89490610D01*
X128260323Y-89490610D02*
X128381275Y-89490610D01*
X128381275Y-89490610D02*
X128429656Y-89514800D01*
X128429656Y-89514800D02*
X128453847Y-89538991D01*
X128453847Y-89538991D02*
X128478037Y-89587372D01*
X128478037Y-89587372D02*
X128478037Y-89635753D01*
X128478037Y-89635753D02*
X128453847Y-89708324D01*
X128453847Y-89708324D02*
X128163561Y-89998610D01*
X128163561Y-89998610D02*
X128478037Y-89998610D01*
X128961847Y-89998610D02*
X128671561Y-89998610D01*
X128816704Y-89998610D02*
X128816704Y-89490610D01*
X128816704Y-89490610D02*
X128768323Y-89563181D01*
X128768323Y-89563181D02*
X128719942Y-89611562D01*
X128719942Y-89611562D02*
X128671561Y-89635753D01*
D14*
%TO.C,U2*%
X154391390Y-86213438D02*
X154391390Y-86472485D01*
X154391390Y-86472485D02*
X154406628Y-86502961D01*
X154406628Y-86502961D02*
X154421866Y-86518200D01*
X154421866Y-86518200D02*
X154452342Y-86533438D01*
X154452342Y-86533438D02*
X154513295Y-86533438D01*
X154513295Y-86533438D02*
X154543771Y-86518200D01*
X154543771Y-86518200D02*
X154559009Y-86502961D01*
X154559009Y-86502961D02*
X154574247Y-86472485D01*
X154574247Y-86472485D02*
X154574247Y-86213438D01*
X154711390Y-86243914D02*
X154726628Y-86228676D01*
X154726628Y-86228676D02*
X154757104Y-86213438D01*
X154757104Y-86213438D02*
X154833295Y-86213438D01*
X154833295Y-86213438D02*
X154863771Y-86228676D01*
X154863771Y-86228676D02*
X154879009Y-86243914D01*
X154879009Y-86243914D02*
X154894247Y-86274390D01*
X154894247Y-86274390D02*
X154894247Y-86304866D01*
X154894247Y-86304866D02*
X154879009Y-86350580D01*
X154879009Y-86350580D02*
X154696152Y-86533438D01*
X154696152Y-86533438D02*
X154894247Y-86533438D01*
D12*
%TO.C,Q4*%
X113946819Y-94568191D02*
X113898438Y-94544000D01*
X113898438Y-94544000D02*
X113850057Y-94495620D01*
X113850057Y-94495620D02*
X113777485Y-94423048D01*
X113777485Y-94423048D02*
X113729104Y-94398858D01*
X113729104Y-94398858D02*
X113680723Y-94398858D01*
X113704914Y-94519810D02*
X113656533Y-94495620D01*
X113656533Y-94495620D02*
X113608152Y-94447239D01*
X113608152Y-94447239D02*
X113583961Y-94350477D01*
X113583961Y-94350477D02*
X113583961Y-94181143D01*
X113583961Y-94181143D02*
X113608152Y-94084381D01*
X113608152Y-94084381D02*
X113656533Y-94036000D01*
X113656533Y-94036000D02*
X113704914Y-94011810D01*
X113704914Y-94011810D02*
X113801676Y-94011810D01*
X113801676Y-94011810D02*
X113850057Y-94036000D01*
X113850057Y-94036000D02*
X113898438Y-94084381D01*
X113898438Y-94084381D02*
X113922628Y-94181143D01*
X113922628Y-94181143D02*
X113922628Y-94350477D01*
X113922628Y-94350477D02*
X113898438Y-94447239D01*
X113898438Y-94447239D02*
X113850057Y-94495620D01*
X113850057Y-94495620D02*
X113801676Y-94519810D01*
X113801676Y-94519810D02*
X113704914Y-94519810D01*
X114358056Y-94181143D02*
X114358056Y-94519810D01*
X114237104Y-93987620D02*
X114116151Y-94350477D01*
X114116151Y-94350477D02*
X114430628Y-94350477D01*
D15*
%TO.C,Y1*%
X138632821Y-87928274D02*
X138632821Y-88157253D01*
X138472535Y-87676397D02*
X138632821Y-87928274D01*
X138632821Y-87928274D02*
X138793106Y-87676397D01*
X139205268Y-88157253D02*
X138930493Y-88157253D01*
X139067881Y-88157253D02*
X139067881Y-87676397D01*
X139067881Y-87676397D02*
X139022085Y-87745091D01*
X139022085Y-87745091D02*
X138976289Y-87790887D01*
X138976289Y-87790887D02*
X138930493Y-87813785D01*
D12*
%TO.C,Q3*%
X118010819Y-90478791D02*
X117962438Y-90454600D01*
X117962438Y-90454600D02*
X117914057Y-90406220D01*
X117914057Y-90406220D02*
X117841485Y-90333648D01*
X117841485Y-90333648D02*
X117793104Y-90309458D01*
X117793104Y-90309458D02*
X117744723Y-90309458D01*
X117768914Y-90430410D02*
X117720533Y-90406220D01*
X117720533Y-90406220D02*
X117672152Y-90357839D01*
X117672152Y-90357839D02*
X117647961Y-90261077D01*
X117647961Y-90261077D02*
X117647961Y-90091743D01*
X117647961Y-90091743D02*
X117672152Y-89994981D01*
X117672152Y-89994981D02*
X117720533Y-89946600D01*
X117720533Y-89946600D02*
X117768914Y-89922410D01*
X117768914Y-89922410D02*
X117865676Y-89922410D01*
X117865676Y-89922410D02*
X117914057Y-89946600D01*
X117914057Y-89946600D02*
X117962438Y-89994981D01*
X117962438Y-89994981D02*
X117986628Y-90091743D01*
X117986628Y-90091743D02*
X117986628Y-90261077D01*
X117986628Y-90261077D02*
X117962438Y-90357839D01*
X117962438Y-90357839D02*
X117914057Y-90406220D01*
X117914057Y-90406220D02*
X117865676Y-90430410D01*
X117865676Y-90430410D02*
X117768914Y-90430410D01*
X118155961Y-89922410D02*
X118470437Y-89922410D01*
X118470437Y-89922410D02*
X118301104Y-90115934D01*
X118301104Y-90115934D02*
X118373675Y-90115934D01*
X118373675Y-90115934D02*
X118422056Y-90140124D01*
X118422056Y-90140124D02*
X118446247Y-90164315D01*
X118446247Y-90164315D02*
X118470437Y-90212696D01*
X118470437Y-90212696D02*
X118470437Y-90333648D01*
X118470437Y-90333648D02*
X118446247Y-90382029D01*
X118446247Y-90382029D02*
X118422056Y-90406220D01*
X118422056Y-90406220D02*
X118373675Y-90430410D01*
X118373675Y-90430410D02*
X118228532Y-90430410D01*
X118228532Y-90430410D02*
X118180151Y-90406220D01*
X118180151Y-90406220D02*
X118155961Y-90382029D01*
%TO.C,R19*%
X143818428Y-83420010D02*
X143649094Y-83178105D01*
X143528142Y-83420010D02*
X143528142Y-82912010D01*
X143528142Y-82912010D02*
X143721666Y-82912010D01*
X143721666Y-82912010D02*
X143770047Y-82936200D01*
X143770047Y-82936200D02*
X143794237Y-82960391D01*
X143794237Y-82960391D02*
X143818428Y-83008772D01*
X143818428Y-83008772D02*
X143818428Y-83081343D01*
X143818428Y-83081343D02*
X143794237Y-83129724D01*
X143794237Y-83129724D02*
X143770047Y-83153915D01*
X143770047Y-83153915D02*
X143721666Y-83178105D01*
X143721666Y-83178105D02*
X143528142Y-83178105D01*
X144302237Y-83420010D02*
X144011951Y-83420010D01*
X144157094Y-83420010D02*
X144157094Y-82912010D01*
X144157094Y-82912010D02*
X144108713Y-82984581D01*
X144108713Y-82984581D02*
X144060332Y-83032962D01*
X144060332Y-83032962D02*
X144011951Y-83057153D01*
X144544142Y-83420010D02*
X144640904Y-83420010D01*
X144640904Y-83420010D02*
X144689285Y-83395820D01*
X144689285Y-83395820D02*
X144713476Y-83371629D01*
X144713476Y-83371629D02*
X144761857Y-83299058D01*
X144761857Y-83299058D02*
X144786047Y-83202296D01*
X144786047Y-83202296D02*
X144786047Y-83008772D01*
X144786047Y-83008772D02*
X144761857Y-82960391D01*
X144761857Y-82960391D02*
X144737666Y-82936200D01*
X144737666Y-82936200D02*
X144689285Y-82912010D01*
X144689285Y-82912010D02*
X144592523Y-82912010D01*
X144592523Y-82912010D02*
X144544142Y-82936200D01*
X144544142Y-82936200D02*
X144519952Y-82960391D01*
X144519952Y-82960391D02*
X144495761Y-83008772D01*
X144495761Y-83008772D02*
X144495761Y-83129724D01*
X144495761Y-83129724D02*
X144519952Y-83178105D01*
X144519952Y-83178105D02*
X144544142Y-83202296D01*
X144544142Y-83202296D02*
X144592523Y-83226486D01*
X144592523Y-83226486D02*
X144689285Y-83226486D01*
X144689285Y-83226486D02*
X144737666Y-83202296D01*
X144737666Y-83202296D02*
X144761857Y-83178105D01*
X144761857Y-83178105D02*
X144786047Y-83129724D01*
%TO.C,R17*%
X143640628Y-81921410D02*
X143471294Y-81679505D01*
X143350342Y-81921410D02*
X143350342Y-81413410D01*
X143350342Y-81413410D02*
X143543866Y-81413410D01*
X143543866Y-81413410D02*
X143592247Y-81437600D01*
X143592247Y-81437600D02*
X143616437Y-81461791D01*
X143616437Y-81461791D02*
X143640628Y-81510172D01*
X143640628Y-81510172D02*
X143640628Y-81582743D01*
X143640628Y-81582743D02*
X143616437Y-81631124D01*
X143616437Y-81631124D02*
X143592247Y-81655315D01*
X143592247Y-81655315D02*
X143543866Y-81679505D01*
X143543866Y-81679505D02*
X143350342Y-81679505D01*
X144124437Y-81921410D02*
X143834151Y-81921410D01*
X143979294Y-81921410D02*
X143979294Y-81413410D01*
X143979294Y-81413410D02*
X143930913Y-81485981D01*
X143930913Y-81485981D02*
X143882532Y-81534362D01*
X143882532Y-81534362D02*
X143834151Y-81558553D01*
X144293771Y-81413410D02*
X144632438Y-81413410D01*
X144632438Y-81413410D02*
X144414723Y-81921410D01*
%TO.C,Q1*%
X123497219Y-93958591D02*
X123448838Y-93934400D01*
X123448838Y-93934400D02*
X123400457Y-93886020D01*
X123400457Y-93886020D02*
X123327885Y-93813448D01*
X123327885Y-93813448D02*
X123279504Y-93789258D01*
X123279504Y-93789258D02*
X123231123Y-93789258D01*
X123255314Y-93910210D02*
X123206933Y-93886020D01*
X123206933Y-93886020D02*
X123158552Y-93837639D01*
X123158552Y-93837639D02*
X123134361Y-93740877D01*
X123134361Y-93740877D02*
X123134361Y-93571543D01*
X123134361Y-93571543D02*
X123158552Y-93474781D01*
X123158552Y-93474781D02*
X123206933Y-93426400D01*
X123206933Y-93426400D02*
X123255314Y-93402210D01*
X123255314Y-93402210D02*
X123352076Y-93402210D01*
X123352076Y-93402210D02*
X123400457Y-93426400D01*
X123400457Y-93426400D02*
X123448838Y-93474781D01*
X123448838Y-93474781D02*
X123473028Y-93571543D01*
X123473028Y-93571543D02*
X123473028Y-93740877D01*
X123473028Y-93740877D02*
X123448838Y-93837639D01*
X123448838Y-93837639D02*
X123400457Y-93886020D01*
X123400457Y-93886020D02*
X123352076Y-93910210D01*
X123352076Y-93910210D02*
X123255314Y-93910210D01*
X123956837Y-93910210D02*
X123666551Y-93910210D01*
X123811694Y-93910210D02*
X123811694Y-93402210D01*
X123811694Y-93402210D02*
X123763313Y-93474781D01*
X123763313Y-93474781D02*
X123714932Y-93523162D01*
X123714932Y-93523162D02*
X123666551Y-93547353D01*
%TO.C,R8*%
X138827933Y-100692010D02*
X138658599Y-100450105D01*
X138537647Y-100692010D02*
X138537647Y-100184010D01*
X138537647Y-100184010D02*
X138731171Y-100184010D01*
X138731171Y-100184010D02*
X138779552Y-100208200D01*
X138779552Y-100208200D02*
X138803742Y-100232391D01*
X138803742Y-100232391D02*
X138827933Y-100280772D01*
X138827933Y-100280772D02*
X138827933Y-100353343D01*
X138827933Y-100353343D02*
X138803742Y-100401724D01*
X138803742Y-100401724D02*
X138779552Y-100425915D01*
X138779552Y-100425915D02*
X138731171Y-100450105D01*
X138731171Y-100450105D02*
X138537647Y-100450105D01*
X139118218Y-100401724D02*
X139069837Y-100377534D01*
X139069837Y-100377534D02*
X139045647Y-100353343D01*
X139045647Y-100353343D02*
X139021456Y-100304962D01*
X139021456Y-100304962D02*
X139021456Y-100280772D01*
X139021456Y-100280772D02*
X139045647Y-100232391D01*
X139045647Y-100232391D02*
X139069837Y-100208200D01*
X139069837Y-100208200D02*
X139118218Y-100184010D01*
X139118218Y-100184010D02*
X139214980Y-100184010D01*
X139214980Y-100184010D02*
X139263361Y-100208200D01*
X139263361Y-100208200D02*
X139287552Y-100232391D01*
X139287552Y-100232391D02*
X139311742Y-100280772D01*
X139311742Y-100280772D02*
X139311742Y-100304962D01*
X139311742Y-100304962D02*
X139287552Y-100353343D01*
X139287552Y-100353343D02*
X139263361Y-100377534D01*
X139263361Y-100377534D02*
X139214980Y-100401724D01*
X139214980Y-100401724D02*
X139118218Y-100401724D01*
X139118218Y-100401724D02*
X139069837Y-100425915D01*
X139069837Y-100425915D02*
X139045647Y-100450105D01*
X139045647Y-100450105D02*
X139021456Y-100498486D01*
X139021456Y-100498486D02*
X139021456Y-100595248D01*
X139021456Y-100595248D02*
X139045647Y-100643629D01*
X139045647Y-100643629D02*
X139069837Y-100667820D01*
X139069837Y-100667820D02*
X139118218Y-100692010D01*
X139118218Y-100692010D02*
X139214980Y-100692010D01*
X139214980Y-100692010D02*
X139263361Y-100667820D01*
X139263361Y-100667820D02*
X139287552Y-100643629D01*
X139287552Y-100643629D02*
X139311742Y-100595248D01*
X139311742Y-100595248D02*
X139311742Y-100498486D01*
X139311742Y-100498486D02*
X139287552Y-100450105D01*
X139287552Y-100450105D02*
X139263361Y-100425915D01*
X139263361Y-100425915D02*
X139214980Y-100401724D01*
%TO.C,C11*%
X138814628Y-85479829D02*
X138790437Y-85504020D01*
X138790437Y-85504020D02*
X138717866Y-85528210D01*
X138717866Y-85528210D02*
X138669485Y-85528210D01*
X138669485Y-85528210D02*
X138596913Y-85504020D01*
X138596913Y-85504020D02*
X138548532Y-85455639D01*
X138548532Y-85455639D02*
X138524342Y-85407258D01*
X138524342Y-85407258D02*
X138500151Y-85310496D01*
X138500151Y-85310496D02*
X138500151Y-85237924D01*
X138500151Y-85237924D02*
X138524342Y-85141162D01*
X138524342Y-85141162D02*
X138548532Y-85092781D01*
X138548532Y-85092781D02*
X138596913Y-85044400D01*
X138596913Y-85044400D02*
X138669485Y-85020210D01*
X138669485Y-85020210D02*
X138717866Y-85020210D01*
X138717866Y-85020210D02*
X138790437Y-85044400D01*
X138790437Y-85044400D02*
X138814628Y-85068591D01*
X139298437Y-85528210D02*
X139008151Y-85528210D01*
X139153294Y-85528210D02*
X139153294Y-85020210D01*
X139153294Y-85020210D02*
X139104913Y-85092781D01*
X139104913Y-85092781D02*
X139056532Y-85141162D01*
X139056532Y-85141162D02*
X139008151Y-85165353D01*
X139782247Y-85528210D02*
X139491961Y-85528210D01*
X139637104Y-85528210D02*
X139637104Y-85020210D01*
X139637104Y-85020210D02*
X139588723Y-85092781D01*
X139588723Y-85092781D02*
X139540342Y-85141162D01*
X139540342Y-85141162D02*
X139491961Y-85165353D01*
%TO.C,R6*%
X149495933Y-83115210D02*
X149326599Y-82873305D01*
X149205647Y-83115210D02*
X149205647Y-82607210D01*
X149205647Y-82607210D02*
X149399171Y-82607210D01*
X149399171Y-82607210D02*
X149447552Y-82631400D01*
X149447552Y-82631400D02*
X149471742Y-82655591D01*
X149471742Y-82655591D02*
X149495933Y-82703972D01*
X149495933Y-82703972D02*
X149495933Y-82776543D01*
X149495933Y-82776543D02*
X149471742Y-82824924D01*
X149471742Y-82824924D02*
X149447552Y-82849115D01*
X149447552Y-82849115D02*
X149399171Y-82873305D01*
X149399171Y-82873305D02*
X149205647Y-82873305D01*
X149931361Y-82607210D02*
X149834599Y-82607210D01*
X149834599Y-82607210D02*
X149786218Y-82631400D01*
X149786218Y-82631400D02*
X149762028Y-82655591D01*
X149762028Y-82655591D02*
X149713647Y-82728162D01*
X149713647Y-82728162D02*
X149689456Y-82824924D01*
X149689456Y-82824924D02*
X149689456Y-83018448D01*
X149689456Y-83018448D02*
X149713647Y-83066829D01*
X149713647Y-83066829D02*
X149737837Y-83091020D01*
X149737837Y-83091020D02*
X149786218Y-83115210D01*
X149786218Y-83115210D02*
X149882980Y-83115210D01*
X149882980Y-83115210D02*
X149931361Y-83091020D01*
X149931361Y-83091020D02*
X149955552Y-83066829D01*
X149955552Y-83066829D02*
X149979742Y-83018448D01*
X149979742Y-83018448D02*
X149979742Y-82897496D01*
X149979742Y-82897496D02*
X149955552Y-82849115D01*
X149955552Y-82849115D02*
X149931361Y-82824924D01*
X149931361Y-82824924D02*
X149882980Y-82800734D01*
X149882980Y-82800734D02*
X149786218Y-82800734D01*
X149786218Y-82800734D02*
X149737837Y-82824924D01*
X149737837Y-82824924D02*
X149713647Y-82849115D01*
X149713647Y-82849115D02*
X149689456Y-82897496D01*
%TO.C,R3*%
X117923733Y-94723010D02*
X117754399Y-94481105D01*
X117633447Y-94723010D02*
X117633447Y-94215010D01*
X117633447Y-94215010D02*
X117826971Y-94215010D01*
X117826971Y-94215010D02*
X117875352Y-94239200D01*
X117875352Y-94239200D02*
X117899542Y-94263391D01*
X117899542Y-94263391D02*
X117923733Y-94311772D01*
X117923733Y-94311772D02*
X117923733Y-94384343D01*
X117923733Y-94384343D02*
X117899542Y-94432724D01*
X117899542Y-94432724D02*
X117875352Y-94456915D01*
X117875352Y-94456915D02*
X117826971Y-94481105D01*
X117826971Y-94481105D02*
X117633447Y-94481105D01*
X118093066Y-94215010D02*
X118407542Y-94215010D01*
X118407542Y-94215010D02*
X118238209Y-94408534D01*
X118238209Y-94408534D02*
X118310780Y-94408534D01*
X118310780Y-94408534D02*
X118359161Y-94432724D01*
X118359161Y-94432724D02*
X118383352Y-94456915D01*
X118383352Y-94456915D02*
X118407542Y-94505296D01*
X118407542Y-94505296D02*
X118407542Y-94626248D01*
X118407542Y-94626248D02*
X118383352Y-94674629D01*
X118383352Y-94674629D02*
X118359161Y-94698820D01*
X118359161Y-94698820D02*
X118310780Y-94723010D01*
X118310780Y-94723010D02*
X118165637Y-94723010D01*
X118165637Y-94723010D02*
X118117256Y-94698820D01*
X118117256Y-94698820D02*
X118093066Y-94674629D01*
%TO.C,C3*%
X134357533Y-95817629D02*
X134333342Y-95841820D01*
X134333342Y-95841820D02*
X134260771Y-95866010D01*
X134260771Y-95866010D02*
X134212390Y-95866010D01*
X134212390Y-95866010D02*
X134139818Y-95841820D01*
X134139818Y-95841820D02*
X134091437Y-95793439D01*
X134091437Y-95793439D02*
X134067247Y-95745058D01*
X134067247Y-95745058D02*
X134043056Y-95648296D01*
X134043056Y-95648296D02*
X134043056Y-95575724D01*
X134043056Y-95575724D02*
X134067247Y-95478962D01*
X134067247Y-95478962D02*
X134091437Y-95430581D01*
X134091437Y-95430581D02*
X134139818Y-95382200D01*
X134139818Y-95382200D02*
X134212390Y-95358010D01*
X134212390Y-95358010D02*
X134260771Y-95358010D01*
X134260771Y-95358010D02*
X134333342Y-95382200D01*
X134333342Y-95382200D02*
X134357533Y-95406391D01*
X134526866Y-95358010D02*
X134841342Y-95358010D01*
X134841342Y-95358010D02*
X134672009Y-95551534D01*
X134672009Y-95551534D02*
X134744580Y-95551534D01*
X134744580Y-95551534D02*
X134792961Y-95575724D01*
X134792961Y-95575724D02*
X134817152Y-95599915D01*
X134817152Y-95599915D02*
X134841342Y-95648296D01*
X134841342Y-95648296D02*
X134841342Y-95769248D01*
X134841342Y-95769248D02*
X134817152Y-95817629D01*
X134817152Y-95817629D02*
X134792961Y-95841820D01*
X134792961Y-95841820D02*
X134744580Y-95866010D01*
X134744580Y-95866010D02*
X134599437Y-95866010D01*
X134599437Y-95866010D02*
X134551056Y-95841820D01*
X134551056Y-95841820D02*
X134526866Y-95817629D01*
%TO.C,C13*%
X127816428Y-81187229D02*
X127792237Y-81211420D01*
X127792237Y-81211420D02*
X127719666Y-81235610D01*
X127719666Y-81235610D02*
X127671285Y-81235610D01*
X127671285Y-81235610D02*
X127598713Y-81211420D01*
X127598713Y-81211420D02*
X127550332Y-81163039D01*
X127550332Y-81163039D02*
X127526142Y-81114658D01*
X127526142Y-81114658D02*
X127501951Y-81017896D01*
X127501951Y-81017896D02*
X127501951Y-80945324D01*
X127501951Y-80945324D02*
X127526142Y-80848562D01*
X127526142Y-80848562D02*
X127550332Y-80800181D01*
X127550332Y-80800181D02*
X127598713Y-80751800D01*
X127598713Y-80751800D02*
X127671285Y-80727610D01*
X127671285Y-80727610D02*
X127719666Y-80727610D01*
X127719666Y-80727610D02*
X127792237Y-80751800D01*
X127792237Y-80751800D02*
X127816428Y-80775991D01*
X128300237Y-81235610D02*
X128009951Y-81235610D01*
X128155094Y-81235610D02*
X128155094Y-80727610D01*
X128155094Y-80727610D02*
X128106713Y-80800181D01*
X128106713Y-80800181D02*
X128058332Y-80848562D01*
X128058332Y-80848562D02*
X128009951Y-80872753D01*
X128469571Y-80727610D02*
X128784047Y-80727610D01*
X128784047Y-80727610D02*
X128614714Y-80921134D01*
X128614714Y-80921134D02*
X128687285Y-80921134D01*
X128687285Y-80921134D02*
X128735666Y-80945324D01*
X128735666Y-80945324D02*
X128759857Y-80969515D01*
X128759857Y-80969515D02*
X128784047Y-81017896D01*
X128784047Y-81017896D02*
X128784047Y-81138848D01*
X128784047Y-81138848D02*
X128759857Y-81187229D01*
X128759857Y-81187229D02*
X128735666Y-81211420D01*
X128735666Y-81211420D02*
X128687285Y-81235610D01*
X128687285Y-81235610D02*
X128542142Y-81235610D01*
X128542142Y-81235610D02*
X128493761Y-81211420D01*
X128493761Y-81211420D02*
X128469571Y-81187229D01*
%TO.C,R12*%
X151413028Y-90201810D02*
X151243694Y-89959905D01*
X151122742Y-90201810D02*
X151122742Y-89693810D01*
X151122742Y-89693810D02*
X151316266Y-89693810D01*
X151316266Y-89693810D02*
X151364647Y-89718000D01*
X151364647Y-89718000D02*
X151388837Y-89742191D01*
X151388837Y-89742191D02*
X151413028Y-89790572D01*
X151413028Y-89790572D02*
X151413028Y-89863143D01*
X151413028Y-89863143D02*
X151388837Y-89911524D01*
X151388837Y-89911524D02*
X151364647Y-89935715D01*
X151364647Y-89935715D02*
X151316266Y-89959905D01*
X151316266Y-89959905D02*
X151122742Y-89959905D01*
X151896837Y-90201810D02*
X151606551Y-90201810D01*
X151751694Y-90201810D02*
X151751694Y-89693810D01*
X151751694Y-89693810D02*
X151703313Y-89766381D01*
X151703313Y-89766381D02*
X151654932Y-89814762D01*
X151654932Y-89814762D02*
X151606551Y-89838953D01*
X152090361Y-89742191D02*
X152114552Y-89718000D01*
X152114552Y-89718000D02*
X152162933Y-89693810D01*
X152162933Y-89693810D02*
X152283885Y-89693810D01*
X152283885Y-89693810D02*
X152332266Y-89718000D01*
X152332266Y-89718000D02*
X152356457Y-89742191D01*
X152356457Y-89742191D02*
X152380647Y-89790572D01*
X152380647Y-89790572D02*
X152380647Y-89838953D01*
X152380647Y-89838953D02*
X152356457Y-89911524D01*
X152356457Y-89911524D02*
X152066171Y-90201810D01*
X152066171Y-90201810D02*
X152380647Y-90201810D01*
%TO.C,D3*%
X153980847Y-92640210D02*
X153980847Y-92132210D01*
X153980847Y-92132210D02*
X154101799Y-92132210D01*
X154101799Y-92132210D02*
X154174371Y-92156400D01*
X154174371Y-92156400D02*
X154222752Y-92204781D01*
X154222752Y-92204781D02*
X154246942Y-92253162D01*
X154246942Y-92253162D02*
X154271133Y-92349924D01*
X154271133Y-92349924D02*
X154271133Y-92422496D01*
X154271133Y-92422496D02*
X154246942Y-92519258D01*
X154246942Y-92519258D02*
X154222752Y-92567639D01*
X154222752Y-92567639D02*
X154174371Y-92616020D01*
X154174371Y-92616020D02*
X154101799Y-92640210D01*
X154101799Y-92640210D02*
X153980847Y-92640210D01*
X154440466Y-92132210D02*
X154754942Y-92132210D01*
X154754942Y-92132210D02*
X154585609Y-92325734D01*
X154585609Y-92325734D02*
X154658180Y-92325734D01*
X154658180Y-92325734D02*
X154706561Y-92349924D01*
X154706561Y-92349924D02*
X154730752Y-92374115D01*
X154730752Y-92374115D02*
X154754942Y-92422496D01*
X154754942Y-92422496D02*
X154754942Y-92543448D01*
X154754942Y-92543448D02*
X154730752Y-92591829D01*
X154730752Y-92591829D02*
X154706561Y-92616020D01*
X154706561Y-92616020D02*
X154658180Y-92640210D01*
X154658180Y-92640210D02*
X154513037Y-92640210D01*
X154513037Y-92640210D02*
X154464656Y-92616020D01*
X154464656Y-92616020D02*
X154440466Y-92591829D01*
D13*
%TO.C,P1*%
X113685504Y-88654619D02*
X113685504Y-87654619D01*
X113685504Y-87654619D02*
X114066456Y-87654619D01*
X114066456Y-87654619D02*
X114161694Y-87702238D01*
X114161694Y-87702238D02*
X114209313Y-87749857D01*
X114209313Y-87749857D02*
X114256932Y-87845095D01*
X114256932Y-87845095D02*
X114256932Y-87987952D01*
X114256932Y-87987952D02*
X114209313Y-88083190D01*
X114209313Y-88083190D02*
X114161694Y-88130809D01*
X114161694Y-88130809D02*
X114066456Y-88178428D01*
X114066456Y-88178428D02*
X113685504Y-88178428D01*
X115209313Y-88654619D02*
X114637885Y-88654619D01*
X114923599Y-88654619D02*
X114923599Y-87654619D01*
X114923599Y-87654619D02*
X114828361Y-87797476D01*
X114828361Y-87797476D02*
X114733123Y-87892714D01*
X114733123Y-87892714D02*
X114637885Y-87940333D01*
D12*
%TO.C,R5*%
X154499733Y-84207410D02*
X154330399Y-83965505D01*
X154209447Y-84207410D02*
X154209447Y-83699410D01*
X154209447Y-83699410D02*
X154402971Y-83699410D01*
X154402971Y-83699410D02*
X154451352Y-83723600D01*
X154451352Y-83723600D02*
X154475542Y-83747791D01*
X154475542Y-83747791D02*
X154499733Y-83796172D01*
X154499733Y-83796172D02*
X154499733Y-83868743D01*
X154499733Y-83868743D02*
X154475542Y-83917124D01*
X154475542Y-83917124D02*
X154451352Y-83941315D01*
X154451352Y-83941315D02*
X154402971Y-83965505D01*
X154402971Y-83965505D02*
X154209447Y-83965505D01*
X154959352Y-83699410D02*
X154717447Y-83699410D01*
X154717447Y-83699410D02*
X154693256Y-83941315D01*
X154693256Y-83941315D02*
X154717447Y-83917124D01*
X154717447Y-83917124D02*
X154765828Y-83892934D01*
X154765828Y-83892934D02*
X154886780Y-83892934D01*
X154886780Y-83892934D02*
X154935161Y-83917124D01*
X154935161Y-83917124D02*
X154959352Y-83941315D01*
X154959352Y-83941315D02*
X154983542Y-83989696D01*
X154983542Y-83989696D02*
X154983542Y-84110648D01*
X154983542Y-84110648D02*
X154959352Y-84159029D01*
X154959352Y-84159029D02*
X154935161Y-84183220D01*
X154935161Y-84183220D02*
X154886780Y-84207410D01*
X154886780Y-84207410D02*
X154765828Y-84207410D01*
X154765828Y-84207410D02*
X154717447Y-84183220D01*
X154717447Y-84183220D02*
X154693256Y-84159029D01*
%TO.C,C9*%
X156607933Y-86673629D02*
X156583742Y-86697820D01*
X156583742Y-86697820D02*
X156511171Y-86722010D01*
X156511171Y-86722010D02*
X156462790Y-86722010D01*
X156462790Y-86722010D02*
X156390218Y-86697820D01*
X156390218Y-86697820D02*
X156341837Y-86649439D01*
X156341837Y-86649439D02*
X156317647Y-86601058D01*
X156317647Y-86601058D02*
X156293456Y-86504296D01*
X156293456Y-86504296D02*
X156293456Y-86431724D01*
X156293456Y-86431724D02*
X156317647Y-86334962D01*
X156317647Y-86334962D02*
X156341837Y-86286581D01*
X156341837Y-86286581D02*
X156390218Y-86238200D01*
X156390218Y-86238200D02*
X156462790Y-86214010D01*
X156462790Y-86214010D02*
X156511171Y-86214010D01*
X156511171Y-86214010D02*
X156583742Y-86238200D01*
X156583742Y-86238200D02*
X156607933Y-86262391D01*
X156849837Y-86722010D02*
X156946599Y-86722010D01*
X156946599Y-86722010D02*
X156994980Y-86697820D01*
X156994980Y-86697820D02*
X157019171Y-86673629D01*
X157019171Y-86673629D02*
X157067552Y-86601058D01*
X157067552Y-86601058D02*
X157091742Y-86504296D01*
X157091742Y-86504296D02*
X157091742Y-86310772D01*
X157091742Y-86310772D02*
X157067552Y-86262391D01*
X157067552Y-86262391D02*
X157043361Y-86238200D01*
X157043361Y-86238200D02*
X156994980Y-86214010D01*
X156994980Y-86214010D02*
X156898218Y-86214010D01*
X156898218Y-86214010D02*
X156849837Y-86238200D01*
X156849837Y-86238200D02*
X156825647Y-86262391D01*
X156825647Y-86262391D02*
X156801456Y-86310772D01*
X156801456Y-86310772D02*
X156801456Y-86431724D01*
X156801456Y-86431724D02*
X156825647Y-86480105D01*
X156825647Y-86480105D02*
X156849837Y-86504296D01*
X156849837Y-86504296D02*
X156898218Y-86528486D01*
X156898218Y-86528486D02*
X156994980Y-86528486D01*
X156994980Y-86528486D02*
X157043361Y-86504296D01*
X157043361Y-86504296D02*
X157067552Y-86480105D01*
X157067552Y-86480105D02*
X157091742Y-86431724D01*
%TO.C,C5*%
X131614333Y-94954029D02*
X131590142Y-94978220D01*
X131590142Y-94978220D02*
X131517571Y-95002410D01*
X131517571Y-95002410D02*
X131469190Y-95002410D01*
X131469190Y-95002410D02*
X131396618Y-94978220D01*
X131396618Y-94978220D02*
X131348237Y-94929839D01*
X131348237Y-94929839D02*
X131324047Y-94881458D01*
X131324047Y-94881458D02*
X131299856Y-94784696D01*
X131299856Y-94784696D02*
X131299856Y-94712124D01*
X131299856Y-94712124D02*
X131324047Y-94615362D01*
X131324047Y-94615362D02*
X131348237Y-94566981D01*
X131348237Y-94566981D02*
X131396618Y-94518600D01*
X131396618Y-94518600D02*
X131469190Y-94494410D01*
X131469190Y-94494410D02*
X131517571Y-94494410D01*
X131517571Y-94494410D02*
X131590142Y-94518600D01*
X131590142Y-94518600D02*
X131614333Y-94542791D01*
X132073952Y-94494410D02*
X131832047Y-94494410D01*
X131832047Y-94494410D02*
X131807856Y-94736315D01*
X131807856Y-94736315D02*
X131832047Y-94712124D01*
X131832047Y-94712124D02*
X131880428Y-94687934D01*
X131880428Y-94687934D02*
X132001380Y-94687934D01*
X132001380Y-94687934D02*
X132049761Y-94712124D01*
X132049761Y-94712124D02*
X132073952Y-94736315D01*
X132073952Y-94736315D02*
X132098142Y-94784696D01*
X132098142Y-94784696D02*
X132098142Y-94905648D01*
X132098142Y-94905648D02*
X132073952Y-94954029D01*
X132073952Y-94954029D02*
X132049761Y-94978220D01*
X132049761Y-94978220D02*
X132001380Y-95002410D01*
X132001380Y-95002410D02*
X131880428Y-95002410D01*
X131880428Y-95002410D02*
X131832047Y-94978220D01*
X131832047Y-94978220D02*
X131807856Y-94954029D01*
%TO.C,R16*%
X158093228Y-95205610D02*
X157923894Y-94963705D01*
X157802942Y-95205610D02*
X157802942Y-94697610D01*
X157802942Y-94697610D02*
X157996466Y-94697610D01*
X157996466Y-94697610D02*
X158044847Y-94721800D01*
X158044847Y-94721800D02*
X158069037Y-94745991D01*
X158069037Y-94745991D02*
X158093228Y-94794372D01*
X158093228Y-94794372D02*
X158093228Y-94866943D01*
X158093228Y-94866943D02*
X158069037Y-94915324D01*
X158069037Y-94915324D02*
X158044847Y-94939515D01*
X158044847Y-94939515D02*
X157996466Y-94963705D01*
X157996466Y-94963705D02*
X157802942Y-94963705D01*
X158577037Y-95205610D02*
X158286751Y-95205610D01*
X158431894Y-95205610D02*
X158431894Y-94697610D01*
X158431894Y-94697610D02*
X158383513Y-94770181D01*
X158383513Y-94770181D02*
X158335132Y-94818562D01*
X158335132Y-94818562D02*
X158286751Y-94842753D01*
X159012466Y-94697610D02*
X158915704Y-94697610D01*
X158915704Y-94697610D02*
X158867323Y-94721800D01*
X158867323Y-94721800D02*
X158843133Y-94745991D01*
X158843133Y-94745991D02*
X158794752Y-94818562D01*
X158794752Y-94818562D02*
X158770561Y-94915324D01*
X158770561Y-94915324D02*
X158770561Y-95108848D01*
X158770561Y-95108848D02*
X158794752Y-95157229D01*
X158794752Y-95157229D02*
X158818942Y-95181420D01*
X158818942Y-95181420D02*
X158867323Y-95205610D01*
X158867323Y-95205610D02*
X158964085Y-95205610D01*
X158964085Y-95205610D02*
X159012466Y-95181420D01*
X159012466Y-95181420D02*
X159036657Y-95157229D01*
X159036657Y-95157229D02*
X159060847Y-95108848D01*
X159060847Y-95108848D02*
X159060847Y-94987896D01*
X159060847Y-94987896D02*
X159036657Y-94939515D01*
X159036657Y-94939515D02*
X159012466Y-94915324D01*
X159012466Y-94915324D02*
X158964085Y-94891134D01*
X158964085Y-94891134D02*
X158867323Y-94891134D01*
X158867323Y-94891134D02*
X158818942Y-94915324D01*
X158818942Y-94915324D02*
X158794752Y-94939515D01*
X158794752Y-94939515D02*
X158770561Y-94987896D01*
%TO.C,R9*%
X109998933Y-96805810D02*
X109829599Y-96563905D01*
X109708647Y-96805810D02*
X109708647Y-96297810D01*
X109708647Y-96297810D02*
X109902171Y-96297810D01*
X109902171Y-96297810D02*
X109950552Y-96322000D01*
X109950552Y-96322000D02*
X109974742Y-96346191D01*
X109974742Y-96346191D02*
X109998933Y-96394572D01*
X109998933Y-96394572D02*
X109998933Y-96467143D01*
X109998933Y-96467143D02*
X109974742Y-96515524D01*
X109974742Y-96515524D02*
X109950552Y-96539715D01*
X109950552Y-96539715D02*
X109902171Y-96563905D01*
X109902171Y-96563905D02*
X109708647Y-96563905D01*
X110240837Y-96805810D02*
X110337599Y-96805810D01*
X110337599Y-96805810D02*
X110385980Y-96781620D01*
X110385980Y-96781620D02*
X110410171Y-96757429D01*
X110410171Y-96757429D02*
X110458552Y-96684858D01*
X110458552Y-96684858D02*
X110482742Y-96588096D01*
X110482742Y-96588096D02*
X110482742Y-96394572D01*
X110482742Y-96394572D02*
X110458552Y-96346191D01*
X110458552Y-96346191D02*
X110434361Y-96322000D01*
X110434361Y-96322000D02*
X110385980Y-96297810D01*
X110385980Y-96297810D02*
X110289218Y-96297810D01*
X110289218Y-96297810D02*
X110240837Y-96322000D01*
X110240837Y-96322000D02*
X110216647Y-96346191D01*
X110216647Y-96346191D02*
X110192456Y-96394572D01*
X110192456Y-96394572D02*
X110192456Y-96515524D01*
X110192456Y-96515524D02*
X110216647Y-96563905D01*
X110216647Y-96563905D02*
X110240837Y-96588096D01*
X110240837Y-96588096D02*
X110289218Y-96612286D01*
X110289218Y-96612286D02*
X110385980Y-96612286D01*
X110385980Y-96612286D02*
X110434361Y-96588096D01*
X110434361Y-96588096D02*
X110458552Y-96563905D01*
X110458552Y-96563905D02*
X110482742Y-96515524D01*
%TO.C,C2*%
X131614333Y-97621029D02*
X131590142Y-97645220D01*
X131590142Y-97645220D02*
X131517571Y-97669410D01*
X131517571Y-97669410D02*
X131469190Y-97669410D01*
X131469190Y-97669410D02*
X131396618Y-97645220D01*
X131396618Y-97645220D02*
X131348237Y-97596839D01*
X131348237Y-97596839D02*
X131324047Y-97548458D01*
X131324047Y-97548458D02*
X131299856Y-97451696D01*
X131299856Y-97451696D02*
X131299856Y-97379124D01*
X131299856Y-97379124D02*
X131324047Y-97282362D01*
X131324047Y-97282362D02*
X131348237Y-97233981D01*
X131348237Y-97233981D02*
X131396618Y-97185600D01*
X131396618Y-97185600D02*
X131469190Y-97161410D01*
X131469190Y-97161410D02*
X131517571Y-97161410D01*
X131517571Y-97161410D02*
X131590142Y-97185600D01*
X131590142Y-97185600D02*
X131614333Y-97209791D01*
X131807856Y-97209791D02*
X131832047Y-97185600D01*
X131832047Y-97185600D02*
X131880428Y-97161410D01*
X131880428Y-97161410D02*
X132001380Y-97161410D01*
X132001380Y-97161410D02*
X132049761Y-97185600D01*
X132049761Y-97185600D02*
X132073952Y-97209791D01*
X132073952Y-97209791D02*
X132098142Y-97258172D01*
X132098142Y-97258172D02*
X132098142Y-97306553D01*
X132098142Y-97306553D02*
X132073952Y-97379124D01*
X132073952Y-97379124D02*
X131783666Y-97669410D01*
X131783666Y-97669410D02*
X132098142Y-97669410D01*
%TO.C,D4*%
X108921247Y-87814210D02*
X108921247Y-87306210D01*
X108921247Y-87306210D02*
X109042199Y-87306210D01*
X109042199Y-87306210D02*
X109114771Y-87330400D01*
X109114771Y-87330400D02*
X109163152Y-87378781D01*
X109163152Y-87378781D02*
X109187342Y-87427162D01*
X109187342Y-87427162D02*
X109211533Y-87523924D01*
X109211533Y-87523924D02*
X109211533Y-87596496D01*
X109211533Y-87596496D02*
X109187342Y-87693258D01*
X109187342Y-87693258D02*
X109163152Y-87741639D01*
X109163152Y-87741639D02*
X109114771Y-87790020D01*
X109114771Y-87790020D02*
X109042199Y-87814210D01*
X109042199Y-87814210D02*
X108921247Y-87814210D01*
X109646961Y-87475543D02*
X109646961Y-87814210D01*
X109526009Y-87282020D02*
X109405056Y-87644877D01*
X109405056Y-87644877D02*
X109719533Y-87644877D01*
D13*
%TO.C,P4*%
X114389706Y-97109619D02*
X114389706Y-96109619D01*
X114389706Y-96109619D02*
X114770658Y-96109619D01*
X114770658Y-96109619D02*
X114865896Y-96157238D01*
X114865896Y-96157238D02*
X114913515Y-96204857D01*
X114913515Y-96204857D02*
X114961134Y-96300095D01*
X114961134Y-96300095D02*
X114961134Y-96442952D01*
X114961134Y-96442952D02*
X114913515Y-96538190D01*
X114913515Y-96538190D02*
X114865896Y-96585809D01*
X114865896Y-96585809D02*
X114770658Y-96633428D01*
X114770658Y-96633428D02*
X114389706Y-96633428D01*
X115818277Y-96442952D02*
X115818277Y-97109619D01*
X115580182Y-96062000D02*
X115342087Y-96776285D01*
X115342087Y-96776285D02*
X115961134Y-96776285D01*
%TO.C,U4*%
X145364295Y-86533819D02*
X145364295Y-87343342D01*
X145364295Y-87343342D02*
X145411914Y-87438580D01*
X145411914Y-87438580D02*
X145459533Y-87486200D01*
X145459533Y-87486200D02*
X145554771Y-87533819D01*
X145554771Y-87533819D02*
X145745247Y-87533819D01*
X145745247Y-87533819D02*
X145840485Y-87486200D01*
X145840485Y-87486200D02*
X145888104Y-87438580D01*
X145888104Y-87438580D02*
X145935723Y-87343342D01*
X145935723Y-87343342D02*
X145935723Y-86533819D01*
X146840485Y-86867152D02*
X146840485Y-87533819D01*
X146602390Y-86486200D02*
X146364295Y-87200485D01*
X146364295Y-87200485D02*
X146983342Y-87200485D01*
D12*
%TO.C,R11*%
X138281228Y-99244210D02*
X138111894Y-99002305D01*
X137990942Y-99244210D02*
X137990942Y-98736210D01*
X137990942Y-98736210D02*
X138184466Y-98736210D01*
X138184466Y-98736210D02*
X138232847Y-98760400D01*
X138232847Y-98760400D02*
X138257037Y-98784591D01*
X138257037Y-98784591D02*
X138281228Y-98832972D01*
X138281228Y-98832972D02*
X138281228Y-98905543D01*
X138281228Y-98905543D02*
X138257037Y-98953924D01*
X138257037Y-98953924D02*
X138232847Y-98978115D01*
X138232847Y-98978115D02*
X138184466Y-99002305D01*
X138184466Y-99002305D02*
X137990942Y-99002305D01*
X138765037Y-99244210D02*
X138474751Y-99244210D01*
X138619894Y-99244210D02*
X138619894Y-98736210D01*
X138619894Y-98736210D02*
X138571513Y-98808781D01*
X138571513Y-98808781D02*
X138523132Y-98857162D01*
X138523132Y-98857162D02*
X138474751Y-98881353D01*
X139248847Y-99244210D02*
X138958561Y-99244210D01*
X139103704Y-99244210D02*
X139103704Y-98736210D01*
X139103704Y-98736210D02*
X139055323Y-98808781D01*
X139055323Y-98808781D02*
X139006942Y-98857162D01*
X139006942Y-98857162D02*
X138958561Y-98881353D01*
%TO.C,R18*%
X123854028Y-94773810D02*
X123684694Y-94531905D01*
X123563742Y-94773810D02*
X123563742Y-94265810D01*
X123563742Y-94265810D02*
X123757266Y-94265810D01*
X123757266Y-94265810D02*
X123805647Y-94290000D01*
X123805647Y-94290000D02*
X123829837Y-94314191D01*
X123829837Y-94314191D02*
X123854028Y-94362572D01*
X123854028Y-94362572D02*
X123854028Y-94435143D01*
X123854028Y-94435143D02*
X123829837Y-94483524D01*
X123829837Y-94483524D02*
X123805647Y-94507715D01*
X123805647Y-94507715D02*
X123757266Y-94531905D01*
X123757266Y-94531905D02*
X123563742Y-94531905D01*
X124337837Y-94773810D02*
X124047551Y-94773810D01*
X124192694Y-94773810D02*
X124192694Y-94265810D01*
X124192694Y-94265810D02*
X124144313Y-94338381D01*
X124144313Y-94338381D02*
X124095932Y-94386762D01*
X124095932Y-94386762D02*
X124047551Y-94410953D01*
X124628123Y-94483524D02*
X124579742Y-94459334D01*
X124579742Y-94459334D02*
X124555552Y-94435143D01*
X124555552Y-94435143D02*
X124531361Y-94386762D01*
X124531361Y-94386762D02*
X124531361Y-94362572D01*
X124531361Y-94362572D02*
X124555552Y-94314191D01*
X124555552Y-94314191D02*
X124579742Y-94290000D01*
X124579742Y-94290000D02*
X124628123Y-94265810D01*
X124628123Y-94265810D02*
X124724885Y-94265810D01*
X124724885Y-94265810D02*
X124773266Y-94290000D01*
X124773266Y-94290000D02*
X124797457Y-94314191D01*
X124797457Y-94314191D02*
X124821647Y-94362572D01*
X124821647Y-94362572D02*
X124821647Y-94386762D01*
X124821647Y-94386762D02*
X124797457Y-94435143D01*
X124797457Y-94435143D02*
X124773266Y-94459334D01*
X124773266Y-94459334D02*
X124724885Y-94483524D01*
X124724885Y-94483524D02*
X124628123Y-94483524D01*
X124628123Y-94483524D02*
X124579742Y-94507715D01*
X124579742Y-94507715D02*
X124555552Y-94531905D01*
X124555552Y-94531905D02*
X124531361Y-94580286D01*
X124531361Y-94580286D02*
X124531361Y-94677048D01*
X124531361Y-94677048D02*
X124555552Y-94725429D01*
X124555552Y-94725429D02*
X124579742Y-94749620D01*
X124579742Y-94749620D02*
X124628123Y-94773810D01*
X124628123Y-94773810D02*
X124724885Y-94773810D01*
X124724885Y-94773810D02*
X124773266Y-94749620D01*
X124773266Y-94749620D02*
X124797457Y-94725429D01*
X124797457Y-94725429D02*
X124821647Y-94677048D01*
X124821647Y-94677048D02*
X124821647Y-94580286D01*
X124821647Y-94580286D02*
X124797457Y-94531905D01*
X124797457Y-94531905D02*
X124773266Y-94507715D01*
X124773266Y-94507715D02*
X124724885Y-94483524D01*
%TO.C,Q5*%
X129644019Y-98606791D02*
X129595638Y-98582600D01*
X129595638Y-98582600D02*
X129547257Y-98534220D01*
X129547257Y-98534220D02*
X129474685Y-98461648D01*
X129474685Y-98461648D02*
X129426304Y-98437458D01*
X129426304Y-98437458D02*
X129377923Y-98437458D01*
X129402114Y-98558410D02*
X129353733Y-98534220D01*
X129353733Y-98534220D02*
X129305352Y-98485839D01*
X129305352Y-98485839D02*
X129281161Y-98389077D01*
X129281161Y-98389077D02*
X129281161Y-98219743D01*
X129281161Y-98219743D02*
X129305352Y-98122981D01*
X129305352Y-98122981D02*
X129353733Y-98074600D01*
X129353733Y-98074600D02*
X129402114Y-98050410D01*
X129402114Y-98050410D02*
X129498876Y-98050410D01*
X129498876Y-98050410D02*
X129547257Y-98074600D01*
X129547257Y-98074600D02*
X129595638Y-98122981D01*
X129595638Y-98122981D02*
X129619828Y-98219743D01*
X129619828Y-98219743D02*
X129619828Y-98389077D01*
X129619828Y-98389077D02*
X129595638Y-98485839D01*
X129595638Y-98485839D02*
X129547257Y-98534220D01*
X129547257Y-98534220D02*
X129498876Y-98558410D01*
X129498876Y-98558410D02*
X129402114Y-98558410D01*
X130079447Y-98050410D02*
X129837542Y-98050410D01*
X129837542Y-98050410D02*
X129813351Y-98292315D01*
X129813351Y-98292315D02*
X129837542Y-98268124D01*
X129837542Y-98268124D02*
X129885923Y-98243934D01*
X129885923Y-98243934D02*
X130006875Y-98243934D01*
X130006875Y-98243934D02*
X130055256Y-98268124D01*
X130055256Y-98268124D02*
X130079447Y-98292315D01*
X130079447Y-98292315D02*
X130103637Y-98340696D01*
X130103637Y-98340696D02*
X130103637Y-98461648D01*
X130103637Y-98461648D02*
X130079447Y-98510029D01*
X130079447Y-98510029D02*
X130055256Y-98534220D01*
X130055256Y-98534220D02*
X130006875Y-98558410D01*
X130006875Y-98558410D02*
X129885923Y-98558410D01*
X129885923Y-98558410D02*
X129837542Y-98534220D01*
X129837542Y-98534220D02*
X129813351Y-98510029D01*
%TO.C,U1*%
X140312315Y-95576069D02*
X140312315Y-95987307D01*
X140312315Y-95987307D02*
X140336505Y-96035688D01*
X140336505Y-96035688D02*
X140360696Y-96059879D01*
X140360696Y-96059879D02*
X140409077Y-96084069D01*
X140409077Y-96084069D02*
X140505839Y-96084069D01*
X140505839Y-96084069D02*
X140554220Y-96059879D01*
X140554220Y-96059879D02*
X140578410Y-96035688D01*
X140578410Y-96035688D02*
X140602601Y-95987307D01*
X140602601Y-95987307D02*
X140602601Y-95576069D01*
X141110600Y-96084069D02*
X140820314Y-96084069D01*
X140965457Y-96084069D02*
X140965457Y-95576069D01*
X140965457Y-95576069D02*
X140917076Y-95648640D01*
X140917076Y-95648640D02*
X140868695Y-95697021D01*
X140868695Y-95697021D02*
X140820314Y-95721212D01*
%TO.C,Q6*%
X142191619Y-104728191D02*
X142143238Y-104704000D01*
X142143238Y-104704000D02*
X142094857Y-104655620D01*
X142094857Y-104655620D02*
X142022285Y-104583048D01*
X142022285Y-104583048D02*
X141973904Y-104558858D01*
X141973904Y-104558858D02*
X141925523Y-104558858D01*
X141949714Y-104679810D02*
X141901333Y-104655620D01*
X141901333Y-104655620D02*
X141852952Y-104607239D01*
X141852952Y-104607239D02*
X141828761Y-104510477D01*
X141828761Y-104510477D02*
X141828761Y-104341143D01*
X141828761Y-104341143D02*
X141852952Y-104244381D01*
X141852952Y-104244381D02*
X141901333Y-104196000D01*
X141901333Y-104196000D02*
X141949714Y-104171810D01*
X141949714Y-104171810D02*
X142046476Y-104171810D01*
X142046476Y-104171810D02*
X142094857Y-104196000D01*
X142094857Y-104196000D02*
X142143238Y-104244381D01*
X142143238Y-104244381D02*
X142167428Y-104341143D01*
X142167428Y-104341143D02*
X142167428Y-104510477D01*
X142167428Y-104510477D02*
X142143238Y-104607239D01*
X142143238Y-104607239D02*
X142094857Y-104655620D01*
X142094857Y-104655620D02*
X142046476Y-104679810D01*
X142046476Y-104679810D02*
X141949714Y-104679810D01*
X142602856Y-104171810D02*
X142506094Y-104171810D01*
X142506094Y-104171810D02*
X142457713Y-104196000D01*
X142457713Y-104196000D02*
X142433523Y-104220191D01*
X142433523Y-104220191D02*
X142385142Y-104292762D01*
X142385142Y-104292762D02*
X142360951Y-104389524D01*
X142360951Y-104389524D02*
X142360951Y-104583048D01*
X142360951Y-104583048D02*
X142385142Y-104631429D01*
X142385142Y-104631429D02*
X142409332Y-104655620D01*
X142409332Y-104655620D02*
X142457713Y-104679810D01*
X142457713Y-104679810D02*
X142554475Y-104679810D01*
X142554475Y-104679810D02*
X142602856Y-104655620D01*
X142602856Y-104655620D02*
X142627047Y-104631429D01*
X142627047Y-104631429D02*
X142651237Y-104583048D01*
X142651237Y-104583048D02*
X142651237Y-104462096D01*
X142651237Y-104462096D02*
X142627047Y-104413715D01*
X142627047Y-104413715D02*
X142602856Y-104389524D01*
X142602856Y-104389524D02*
X142554475Y-104365334D01*
X142554475Y-104365334D02*
X142457713Y-104365334D01*
X142457713Y-104365334D02*
X142409332Y-104389524D01*
X142409332Y-104389524D02*
X142385142Y-104413715D01*
X142385142Y-104413715D02*
X142360951Y-104462096D01*
%TO.C,C10*%
X135258628Y-84946429D02*
X135234437Y-84970620D01*
X135234437Y-84970620D02*
X135161866Y-84994810D01*
X135161866Y-84994810D02*
X135113485Y-84994810D01*
X135113485Y-84994810D02*
X135040913Y-84970620D01*
X135040913Y-84970620D02*
X134992532Y-84922239D01*
X134992532Y-84922239D02*
X134968342Y-84873858D01*
X134968342Y-84873858D02*
X134944151Y-84777096D01*
X134944151Y-84777096D02*
X134944151Y-84704524D01*
X134944151Y-84704524D02*
X134968342Y-84607762D01*
X134968342Y-84607762D02*
X134992532Y-84559381D01*
X134992532Y-84559381D02*
X135040913Y-84511000D01*
X135040913Y-84511000D02*
X135113485Y-84486810D01*
X135113485Y-84486810D02*
X135161866Y-84486810D01*
X135161866Y-84486810D02*
X135234437Y-84511000D01*
X135234437Y-84511000D02*
X135258628Y-84535191D01*
X135742437Y-84994810D02*
X135452151Y-84994810D01*
X135597294Y-84994810D02*
X135597294Y-84486810D01*
X135597294Y-84486810D02*
X135548913Y-84559381D01*
X135548913Y-84559381D02*
X135500532Y-84607762D01*
X135500532Y-84607762D02*
X135452151Y-84631953D01*
X136056914Y-84486810D02*
X136105295Y-84486810D01*
X136105295Y-84486810D02*
X136153676Y-84511000D01*
X136153676Y-84511000D02*
X136177866Y-84535191D01*
X136177866Y-84535191D02*
X136202057Y-84583572D01*
X136202057Y-84583572D02*
X136226247Y-84680334D01*
X136226247Y-84680334D02*
X136226247Y-84801286D01*
X136226247Y-84801286D02*
X136202057Y-84898048D01*
X136202057Y-84898048D02*
X136177866Y-84946429D01*
X136177866Y-84946429D02*
X136153676Y-84970620D01*
X136153676Y-84970620D02*
X136105295Y-84994810D01*
X136105295Y-84994810D02*
X136056914Y-84994810D01*
X136056914Y-84994810D02*
X136008533Y-84970620D01*
X136008533Y-84970620D02*
X135984342Y-84946429D01*
X135984342Y-84946429D02*
X135960152Y-84898048D01*
X135960152Y-84898048D02*
X135935961Y-84801286D01*
X135935961Y-84801286D02*
X135935961Y-84680334D01*
X135935961Y-84680334D02*
X135960152Y-84583572D01*
X135960152Y-84583572D02*
X135984342Y-84535191D01*
X135984342Y-84535191D02*
X136008533Y-84511000D01*
X136008533Y-84511000D02*
X136056914Y-84486810D01*
%TO.C,C12*%
X128070428Y-88502429D02*
X128046237Y-88526620D01*
X128046237Y-88526620D02*
X127973666Y-88550810D01*
X127973666Y-88550810D02*
X127925285Y-88550810D01*
X127925285Y-88550810D02*
X127852713Y-88526620D01*
X127852713Y-88526620D02*
X127804332Y-88478239D01*
X127804332Y-88478239D02*
X127780142Y-88429858D01*
X127780142Y-88429858D02*
X127755951Y-88333096D01*
X127755951Y-88333096D02*
X127755951Y-88260524D01*
X127755951Y-88260524D02*
X127780142Y-88163762D01*
X127780142Y-88163762D02*
X127804332Y-88115381D01*
X127804332Y-88115381D02*
X127852713Y-88067000D01*
X127852713Y-88067000D02*
X127925285Y-88042810D01*
X127925285Y-88042810D02*
X127973666Y-88042810D01*
X127973666Y-88042810D02*
X128046237Y-88067000D01*
X128046237Y-88067000D02*
X128070428Y-88091191D01*
X128554237Y-88550810D02*
X128263951Y-88550810D01*
X128409094Y-88550810D02*
X128409094Y-88042810D01*
X128409094Y-88042810D02*
X128360713Y-88115381D01*
X128360713Y-88115381D02*
X128312332Y-88163762D01*
X128312332Y-88163762D02*
X128263951Y-88187953D01*
X128747761Y-88091191D02*
X128771952Y-88067000D01*
X128771952Y-88067000D02*
X128820333Y-88042810D01*
X128820333Y-88042810D02*
X128941285Y-88042810D01*
X128941285Y-88042810D02*
X128989666Y-88067000D01*
X128989666Y-88067000D02*
X129013857Y-88091191D01*
X129013857Y-88091191D02*
X129038047Y-88139572D01*
X129038047Y-88139572D02*
X129038047Y-88187953D01*
X129038047Y-88187953D02*
X129013857Y-88260524D01*
X129013857Y-88260524D02*
X128723571Y-88550810D01*
X128723571Y-88550810D02*
X129038047Y-88550810D01*
D11*
%TO.C,P2*%
X130254400Y-100375600D02*
X130254400Y-102130600D01*
X130254400Y-100375600D02*
X130434400Y-100375600D01*
X130254400Y-104675600D02*
X130254400Y-104405600D01*
X130254400Y-104675600D02*
X137654400Y-104675600D01*
X137654400Y-100375600D02*
X137474400Y-100375600D01*
X137654400Y-100375600D02*
X137654400Y-102130600D01*
X137654400Y-104405600D02*
X137654400Y-104675600D01*
D16*
X132704400Y-99125600D02*
G75*
G03*
X132704400Y-99125600I-100000J0D01*
G01*
D11*
%TO.C,C6*%
X126616400Y-92346400D02*
X126616400Y-91346400D01*
X125656400Y-91346400D02*
X125656400Y-92346400D01*
D16*
%TO.C,D1*%
X150925200Y-80670400D02*
G75*
G03*
X150925200Y-80670400I-100000J0D01*
G01*
D10*
%TO.C,P3*%
X143058000Y-83615000D02*
X133548000Y-83615000D01*
X143058000Y-80215000D02*
X143058000Y-83615000D01*
X133548000Y-83615000D02*
X133548000Y-80215000D01*
X133548000Y-80215000D02*
X143058000Y-80215000D01*
D17*
X134112000Y-80714000D02*
X133858000Y-80714000D01*
X133985000Y-80460000D01*
X134112000Y-80714000D01*
G36*
X134112000Y-80714000D02*
G01*
X133858000Y-80714000D01*
X133985000Y-80460000D01*
X134112000Y-80714000D01*
G37*
D11*
%TO.C,C8*%
X152900000Y-85270400D02*
X151900000Y-85270400D01*
X151900000Y-86230400D02*
X152900000Y-86230400D01*
%TO.C,C7*%
X117243800Y-92930600D02*
X117243800Y-91930600D01*
X116283800Y-91930600D02*
X116283800Y-92930600D01*
D18*
%TO.C,D2*%
X128447800Y-102209600D02*
X128447800Y-102971600D01*
X128473200Y-102590600D02*
X128066800Y-102590600D01*
X128930400Y-102209600D02*
X128447800Y-102590600D01*
X128930400Y-102209600D02*
X128930400Y-102920800D01*
X128930400Y-102920800D02*
X128447800Y-102590600D01*
X129387600Y-102590600D02*
X128981200Y-102590600D01*
D11*
%TO.C,BZ1*%
X143957200Y-95580200D02*
X145227200Y-95580200D01*
X144592200Y-94945200D02*
X144592200Y-96215200D01*
X151628000Y-95732600D02*
X152898000Y-95732600D01*
X155403800Y-97561400D02*
G75*
G03*
X155403800Y-97561400I-6900000J0D01*
G01*
%TO.C,C1*%
X141170600Y-88765000D02*
X141170600Y-87765000D01*
X140210600Y-87765000D02*
X140210600Y-88765000D01*
D19*
%TO.C,P5*%
X111435799Y-88763600D02*
X106685999Y-88763600D01*
X106685999Y-88763600D02*
X106685999Y-94910400D01*
X111435799Y-94910400D02*
X111435799Y-88763600D01*
X106685999Y-94910400D02*
X111435799Y-94910400D01*
D20*
X110032800Y-92837000D02*
G75*
G03*
X110032800Y-92837000I-254000J0D01*
G01*
D19*
%TO.C,Q2*%
X127271600Y-91374600D02*
X127271600Y-92380451D01*
X127940460Y-91374600D02*
X127271600Y-91374600D01*
X128356739Y-92978600D02*
X128640461Y-92978600D01*
X129725600Y-91374600D02*
X129056740Y-91374600D01*
X129725600Y-92380451D02*
X129725600Y-91374600D01*
D11*
%TO.C,C4*%
X133545200Y-95278000D02*
X132545200Y-95278000D01*
X132545200Y-96238000D02*
X133545200Y-96238000D01*
D18*
%TO.C,D5*%
X107619800Y-99187000D02*
X107619800Y-98425000D01*
X107594400Y-98806000D02*
X108000800Y-98806000D01*
X107137200Y-99187000D02*
X107619800Y-98806000D01*
X107137200Y-99187000D02*
X107137200Y-98475800D01*
X107137200Y-98475800D02*
X107619800Y-98806000D01*
X106680000Y-98806000D02*
X107086400Y-98806000D01*
D11*
%TO.C,U3*%
X128458400Y-85679600D02*
X128458400Y-83179600D01*
X128598400Y-85679600D02*
X128458400Y-85679600D01*
X132958400Y-85679600D02*
X132818400Y-85679600D01*
X132958400Y-85679600D02*
X132958400Y-83179600D01*
X129408400Y-83179600D02*
X128458400Y-83179600D01*
X132008400Y-83179600D02*
X132958400Y-83179600D01*
D16*
X128649400Y-86461600D02*
G75*
G03*
X128649400Y-86461600I-100000J0D01*
G01*
D11*
%TO.C,U2*%
X153711900Y-86909400D02*
X154004400Y-86909400D01*
X153711900Y-86951900D02*
X153711900Y-86909400D01*
X153711900Y-88909400D02*
X153711900Y-88866900D01*
X153711900Y-88909400D02*
X154004400Y-88909400D01*
X155419400Y-86909400D02*
X155711900Y-86909400D01*
X155711900Y-86909400D02*
X155711900Y-86951900D01*
X155711900Y-88866900D02*
X155711900Y-88909400D01*
X155711900Y-88909400D02*
X155419400Y-88909400D01*
D16*
X155751200Y-86385400D02*
G75*
G03*
X155751200Y-86385400I-100000J0D01*
G01*
D18*
%TO.C,Q4*%
X114922300Y-90474800D02*
X113068100Y-90474800D01*
X113068100Y-93624400D02*
X114922300Y-93624400D01*
X113068100Y-91635539D02*
X113068100Y-92463661D01*
D16*
%TO.C,Y1*%
X136066200Y-86055200D02*
G75*
G03*
X136066200Y-86055200I-100000J0D01*
G01*
D19*
%TO.C,Q3*%
X118153000Y-90815800D02*
X118153000Y-91821651D01*
X118821860Y-90815800D02*
X118153000Y-90815800D01*
X119238139Y-92419800D02*
X119521861Y-92419800D01*
X120607000Y-90815800D02*
X119938140Y-90815800D01*
X120607000Y-91821651D02*
X120607000Y-90815800D01*
D18*
%TO.C,Q1*%
X124421900Y-89992200D02*
X122567700Y-89992200D01*
X122567700Y-93141800D02*
X124421900Y-93141800D01*
X122567700Y-91152939D02*
X122567700Y-91981061D01*
D11*
%TO.C,C11*%
X139621200Y-87063200D02*
X139621200Y-86063200D01*
X138661200Y-86063200D02*
X138661200Y-87063200D01*
%TO.C,C3*%
X135501000Y-96090800D02*
X134501000Y-96090800D01*
X134501000Y-97050800D02*
X135501000Y-97050800D01*
%TO.C,C13*%
X130558400Y-80474400D02*
X130858400Y-80474400D01*
X130558400Y-81374400D02*
X130858400Y-81374400D01*
D18*
%TO.C,D3*%
X156108400Y-90576400D02*
X156108400Y-91338400D01*
X156133800Y-90957400D02*
X155727400Y-90957400D01*
X156591000Y-90576400D02*
X156108400Y-90957400D01*
X156591000Y-90576400D02*
X156591000Y-91287600D01*
X156591000Y-91287600D02*
X156108400Y-90957400D01*
X157048200Y-90957400D02*
X156641800Y-90957400D01*
D19*
%TO.C,P1*%
X127294399Y-89349601D02*
X127294399Y-81795600D01*
X127294399Y-81795600D02*
X113040401Y-81795600D01*
X113040401Y-89349601D02*
X127294399Y-89349601D01*
X113040401Y-81795600D02*
X113040401Y-89349601D01*
D21*
X125784900Y-83340600D02*
G75*
G03*
X125784900Y-83340600I-317500J0D01*
G01*
D11*
%TO.C,C9*%
X156599000Y-87906800D02*
X157599000Y-87906800D01*
X157599000Y-86946800D02*
X156599000Y-86946800D01*
%TO.C,C5*%
X133799200Y-93957200D02*
X132799200Y-93957200D01*
X132799200Y-94917200D02*
X133799200Y-94917200D01*
%TO.C,C2*%
X133570600Y-96929000D02*
X132570600Y-96929000D01*
X132570600Y-97889000D02*
X133570600Y-97889000D01*
D18*
%TO.C,D4*%
X107670600Y-86156800D02*
X107670600Y-86918800D01*
X107696000Y-86537800D02*
X107289600Y-86537800D01*
X108153200Y-86156800D02*
X107670600Y-86537800D01*
X108153200Y-86156800D02*
X108153200Y-86868000D01*
X108153200Y-86868000D02*
X107670600Y-86537800D01*
X108610400Y-86537800D02*
X108204000Y-86537800D01*
D19*
%TO.C,P4*%
X113285801Y-95590999D02*
X113285801Y-103145000D01*
X113285801Y-103145000D02*
X127539799Y-103145000D01*
X127539799Y-95590999D02*
X113285801Y-95590999D01*
X127539799Y-103145000D02*
X127539799Y-95590999D01*
D21*
X115430300Y-101600000D02*
G75*
G03*
X115430300Y-101600000I-317500J0D01*
G01*
D18*
%TO.C,U4*%
X143281400Y-84264500D02*
X143281400Y-84585575D01*
X143281400Y-89607625D02*
X143281400Y-89928700D01*
X143281400Y-89928700D02*
X148920200Y-89928700D01*
X148920200Y-84264500D02*
X143281400Y-84264500D01*
X148920200Y-84585575D02*
X148920200Y-84264500D01*
X148920200Y-89928700D02*
X148920200Y-89607625D01*
D22*
X142341600Y-84150200D02*
G75*
G03*
X142341600Y-84150200I-101600J0D01*
G01*
D19*
%TO.C,Q5*%
X130545200Y-95216800D02*
X129539349Y-95216800D01*
X130545200Y-95885660D02*
X130545200Y-95216800D01*
X128941200Y-96301939D02*
X128941200Y-96585661D01*
X130545200Y-97670800D02*
X130545200Y-97001940D01*
X129539349Y-97670800D02*
X130545200Y-97670800D01*
%TO.C,U1*%
X140470763Y-90043000D02*
X140039344Y-90043000D01*
X135644382Y-90043000D02*
X135212963Y-90043000D01*
X135212963Y-90043000D02*
X135212963Y-90474419D01*
X140470763Y-90474419D02*
X140470763Y-90043000D01*
X135212963Y-94869381D02*
X135212963Y-95300800D01*
X140470763Y-95300800D02*
X140470763Y-94869381D01*
X140039344Y-95300800D02*
X140470763Y-95300800D01*
X135212963Y-95300800D02*
X135644382Y-95300800D01*
D23*
X140268431Y-89371900D02*
G75*
G03*
X140268431Y-89371900I-86568J0D01*
G01*
G36*
X134781163Y-91612085D02*
G01*
X134527163Y-91612085D01*
X134527163Y-91231085D01*
X134781163Y-91231085D01*
X134781163Y-91612085D01*
G37*
G36*
X141156563Y-92112211D02*
G01*
X140902563Y-92112211D01*
X140902563Y-91731211D01*
X141156563Y-91731211D01*
X141156563Y-92112211D01*
G37*
G36*
X137782300Y-95986600D02*
G01*
X137401300Y-95986600D01*
X137401300Y-95732600D01*
X137782300Y-95732600D01*
X137782300Y-95986600D01*
G37*
D19*
%TO.C,Q6*%
X141460400Y-103824400D02*
X141460400Y-102818549D01*
X140791540Y-103824400D02*
X141460400Y-103824400D01*
X140375261Y-102220400D02*
X140091539Y-102220400D01*
X139006400Y-103824400D02*
X139675260Y-103824400D01*
X139006400Y-102818549D02*
X139006400Y-103824400D01*
D11*
%TO.C,C10*%
X137710800Y-84229000D02*
X136710800Y-84229000D01*
X136710800Y-85189000D02*
X137710800Y-85189000D01*
%TO.C,C12*%
X130858400Y-88816600D02*
X130558400Y-88816600D01*
X130858400Y-87916600D02*
X130558400Y-87916600D01*
%TD*%
M02*
