%TF.GenerationSoftware,KiCad,Pcbnew,7.0.1*%
%TF.CreationDate,2023-05-27T07:40:04-07:00*%
%TF.ProjectId,Base-Flight-Computer-Test,42617365-2d46-46c6-9967-68742d436f6d,rev?*%
%TF.SameCoordinates,Original*%
%TF.FileFunction,Soldermask,Top*%
%TF.FilePolarity,Negative*%
%FSLAX46Y46*%
G04 Gerber Fmt 4.6, Leading zero omitted, Abs format (unit mm)*
G04 Created by KiCad (PCBNEW 7.0.1) date 2023-05-27 07:40:04*
%MOMM*%
%LPD*%
G01*
G04 APERTURE LIST*
G04 Aperture macros list*
%AMRoundRect*
0 Rectangle with rounded corners*
0 $1 Rounding radius*
0 $2 $3 $4 $5 $6 $7 $8 $9 X,Y pos of 4 corners*
0 Add a 4 corners polygon primitive as box body*
4,1,4,$2,$3,$4,$5,$6,$7,$8,$9,$2,$3,0*
0 Add four circle primitives for the rounded corners*
1,1,$1+$1,$2,$3*
1,1,$1+$1,$4,$5*
1,1,$1+$1,$6,$7*
1,1,$1+$1,$8,$9*
0 Add four rect primitives between the rounded corners*
20,1,$1+$1,$2,$3,$4,$5,0*
20,1,$1+$1,$4,$5,$6,$7,0*
20,1,$1+$1,$6,$7,$8,$9,0*
20,1,$1+$1,$8,$9,$2,$3,0*%
G04 Aperture macros list end*
%ADD10C,0.010000*%
%ADD11R,0.400000X1.350000*%
%ADD12O,1.300000X1.016000*%
%ADD13R,1.500000X1.550000*%
%ADD14O,1.016000X1.778000*%
%ADD15R,0.600000X0.540000*%
%ADD16RoundRect,0.075600X0.224400X0.194400X-0.224400X0.194400X-0.224400X-0.194400X0.224400X-0.194400X0*%
%ADD17R,1.000000X0.800000*%
%ADD18C,5.588000*%
%ADD19O,1.016000X2.032000*%
%ADD20RoundRect,0.075600X-0.194400X0.224400X-0.194400X-0.224400X0.194400X-0.224400X0.194400X0.224400X0*%
%ADD21R,0.280000X0.520000*%
%ADD22C,1.408000*%
%ADD23R,0.540000X0.600000*%
%ADD24C,1.320800*%
%ADD25R,0.450800X1.111200*%
%ADD26R,0.609600X0.685800*%
%ADD27R,0.250000X0.275000*%
%ADD28R,0.275000X0.250000*%
%ADD29R,0.952500X0.406400*%
%ADD30R,0.750000X0.850000*%
%ADD31R,1.100000X1.000000*%
%ADD32R,0.843000X1.000000*%
%ADD33C,1.727200*%
%ADD34RoundRect,0.075600X0.194400X-0.224400X0.194400X0.224400X-0.194400X0.224400X-0.194400X-0.224400X0*%
%ADD35R,1.524000X0.558800*%
%ADD36R,1.111200X0.450800*%
%ADD37R,0.228600X0.812800*%
%ADD38R,0.812800X0.228600*%
%ADD39R,3.505200X3.505200*%
G04 APERTURE END LIST*
%TO.C,U3*%
D10*
X129548400Y-86979600D02*
X128868400Y-86979600D01*
X128868400Y-85149600D01*
X129548400Y-85149600D01*
X129548400Y-86979600D01*
G36*
X129548400Y-86979600D02*
G01*
X128868400Y-86979600D01*
X128868400Y-85149600D01*
X129548400Y-85149600D01*
X129548400Y-86979600D01*
G37*
X132548400Y-86979600D02*
X131868400Y-86979600D01*
X131868400Y-85149600D01*
X132548400Y-85149600D01*
X132548400Y-86979600D01*
G36*
X132548400Y-86979600D02*
G01*
X131868400Y-86979600D01*
X131868400Y-85149600D01*
X132548400Y-85149600D01*
X132548400Y-86979600D01*
G37*
X131724900Y-85479600D02*
X131138400Y-85479600D01*
X131138400Y-86979600D01*
X130278400Y-86979600D01*
X130278400Y-85479600D01*
X129691900Y-85479600D01*
X129691900Y-82349600D01*
X131724900Y-82349600D01*
X131724900Y-85479600D01*
G36*
X131724900Y-85479600D02*
G01*
X131138400Y-85479600D01*
X131138400Y-86979600D01*
X130278400Y-86979600D01*
X130278400Y-85479600D01*
X129691900Y-85479600D01*
X129691900Y-82349600D01*
X131724900Y-82349600D01*
X131724900Y-85479600D01*
G37*
%TD*%
D11*
%TO.C,P2*%
X132654400Y-100525600D03*
X133304400Y-100525600D03*
X133954400Y-100525600D03*
X134604400Y-100525600D03*
X135254400Y-100525600D03*
D12*
X131454400Y-100525600D03*
D13*
X132954400Y-103225600D03*
X134954400Y-103225600D03*
D12*
X136454400Y-100525600D03*
D14*
X130454400Y-103225600D03*
X137454400Y-103225600D03*
%TD*%
D15*
%TO.C,R20*%
X128752600Y-100406400D03*
X128752600Y-99542400D03*
%TD*%
D16*
%TO.C,C6*%
X126136400Y-92276400D03*
X126136400Y-91416400D03*
%TD*%
D17*
%TO.C,D1*%
X151091200Y-81517400D03*
X152591200Y-81517400D03*
X152591200Y-82617400D03*
X151091200Y-82617400D03*
%TD*%
D18*
%TO.C,H4*%
X109448600Y-102108000D03*
%TD*%
D19*
%TO.C,P3*%
X135178000Y-82365000D03*
X136428000Y-82365000D03*
X137678000Y-82365000D03*
X138928000Y-82365000D03*
X140178000Y-82365000D03*
X141428000Y-82365000D03*
%TD*%
D20*
%TO.C,C8*%
X152830000Y-85750400D03*
X151970000Y-85750400D03*
%TD*%
D15*
%TO.C,R13*%
X153593800Y-91389400D03*
X153593800Y-90525400D03*
%TD*%
D16*
%TO.C,C7*%
X116763800Y-92860600D03*
X116763800Y-92000600D03*
%TD*%
D21*
%TO.C,D2*%
X129052200Y-103606600D03*
X128402200Y-103606600D03*
%TD*%
D22*
%TO.C,BZ1*%
X144703800Y-97561400D03*
X152303800Y-97561400D03*
%TD*%
D15*
%TO.C,R4*%
X148336000Y-81991400D03*
X148336000Y-81127400D03*
%TD*%
D23*
%TO.C,R1*%
X110565800Y-87503000D03*
X111429800Y-87503000D03*
%TD*%
D16*
%TO.C,C1*%
X140690600Y-88695000D03*
X140690600Y-87835000D03*
%TD*%
D24*
%TO.C,P5*%
X108508800Y-92837001D03*
X108508800Y-90836999D03*
%TD*%
D25*
%TO.C,Q2*%
X127798599Y-93076601D03*
X129198601Y-93076601D03*
X128498600Y-91276600D03*
%TD*%
D15*
%TO.C,R22*%
X130657600Y-92151400D03*
X130657600Y-91287400D03*
%TD*%
D23*
%TO.C,R7*%
X111251800Y-98094800D03*
X112115800Y-98094800D03*
%TD*%
D20*
%TO.C,C4*%
X133475200Y-95758000D03*
X132615200Y-95758000D03*
%TD*%
D21*
%TO.C,D5*%
X107015400Y-97790000D03*
X107665400Y-97790000D03*
%TD*%
D26*
%TO.C,J1*%
X159131000Y-91363800D03*
X159131000Y-92481400D03*
%TD*%
D23*
%TO.C,R21*%
X129666800Y-89865200D03*
X130530800Y-89865200D03*
%TD*%
D27*
%TO.C,U2*%
X154961900Y-87146900D03*
X154461900Y-87146900D03*
D28*
X153949400Y-87409400D03*
X153949400Y-87909400D03*
X153949400Y-88409400D03*
D27*
X154461900Y-88671900D03*
X154961900Y-88671900D03*
D28*
X155474400Y-88409400D03*
X155474400Y-87909400D03*
X155474400Y-87409400D03*
%TD*%
D29*
%TO.C,Q4*%
X115271550Y-92999601D03*
X115271550Y-92049600D03*
X115271550Y-91099599D03*
X112718850Y-91099599D03*
X112718850Y-92999601D03*
%TD*%
D30*
%TO.C,Y1*%
X136711200Y-86142200D03*
X136711200Y-87492200D03*
X137761200Y-87492200D03*
X137761200Y-86142200D03*
%TD*%
D25*
%TO.C,Q3*%
X118679999Y-92517801D03*
X120080001Y-92517801D03*
X119380000Y-90717800D03*
%TD*%
D23*
%TO.C,R19*%
X145389400Y-83210400D03*
X146253400Y-83210400D03*
%TD*%
%TO.C,R17*%
X145364000Y-81788000D03*
X146228000Y-81788000D03*
%TD*%
D29*
%TO.C,Q1*%
X124771150Y-92517001D03*
X124771150Y-91567000D03*
X124771150Y-90616999D03*
X122218450Y-90616999D03*
X122218450Y-92517001D03*
%TD*%
D23*
%TO.C,R8*%
X140004600Y-100431600D03*
X140868600Y-100431600D03*
%TD*%
D16*
%TO.C,C11*%
X139141200Y-86993200D03*
X139141200Y-86133200D03*
%TD*%
D15*
%TO.C,R6*%
X149580600Y-81127400D03*
X149580600Y-81991400D03*
%TD*%
D23*
%TO.C,R3*%
X119252800Y-94538800D03*
X120116800Y-94538800D03*
%TD*%
D20*
%TO.C,C3*%
X135431000Y-96570800D03*
X134571000Y-96570800D03*
%TD*%
D31*
%TO.C,C13*%
X129858400Y-80924400D03*
X131558400Y-80924400D03*
%TD*%
D18*
%TO.C,H3*%
X159004000Y-102108000D03*
%TD*%
D15*
%TO.C,R12*%
X151663400Y-89001800D03*
X151663400Y-88137800D03*
%TD*%
D32*
%TO.C,D3*%
X155488500Y-92100400D03*
X156931500Y-92100400D03*
%TD*%
D33*
%TO.C,P1*%
X125467400Y-85372600D03*
X121967399Y-85372600D03*
X118467399Y-85372600D03*
X114967398Y-85372600D03*
%TD*%
D15*
%TO.C,R5*%
X154533600Y-83134400D03*
X154533600Y-82270400D03*
%TD*%
D34*
%TO.C,C9*%
X156669000Y-87426800D03*
X157529000Y-87426800D03*
%TD*%
D20*
%TO.C,C5*%
X133729200Y-94437200D03*
X132869200Y-94437200D03*
%TD*%
D18*
%TO.C,H1*%
X159004000Y-82931000D03*
%TD*%
D23*
%TO.C,R16*%
X156133600Y-94945200D03*
X156997600Y-94945200D03*
%TD*%
%TO.C,R9*%
X111201000Y-96596200D03*
X112065000Y-96596200D03*
%TD*%
D20*
%TO.C,C2*%
X133500600Y-97409000D03*
X132640600Y-97409000D03*
%TD*%
D21*
%TO.C,D4*%
X108275000Y-87553800D03*
X107625000Y-87553800D03*
%TD*%
D33*
%TO.C,P4*%
X115112800Y-99568000D03*
X118612801Y-99568000D03*
X122112801Y-99568000D03*
X125612802Y-99568000D03*
%TD*%
D35*
%TO.C,U4*%
X142455900Y-85191600D03*
X142455900Y-86461600D03*
X142455900Y-87731600D03*
X142455900Y-89001600D03*
X149745700Y-89001600D03*
X149745700Y-87731600D03*
X149745700Y-86461600D03*
X149745700Y-85191600D03*
%TD*%
D23*
%TO.C,R11*%
X140741600Y-99060000D03*
X139877600Y-99060000D03*
%TD*%
%TO.C,R18*%
X126441400Y-94462600D03*
X125577400Y-94462600D03*
%TD*%
D18*
%TO.C,H2*%
X109448600Y-82931000D03*
%TD*%
D36*
%TO.C,Q5*%
X128843199Y-95743799D03*
X128843199Y-97143801D03*
X130643200Y-96443800D03*
%TD*%
D37*
%TO.C,U1*%
X139592304Y-90271600D03*
X139092178Y-90271600D03*
X138592052Y-90271600D03*
X138091926Y-90271600D03*
X137591800Y-90271600D03*
X137091674Y-90271600D03*
X136591548Y-90271600D03*
X136091422Y-90271600D03*
D38*
X135441563Y-90921459D03*
X135441563Y-91421585D03*
X135441563Y-91921711D03*
X135441563Y-92421837D03*
X135441563Y-92921963D03*
X135441563Y-93422089D03*
X135441563Y-93922215D03*
X135441563Y-94422341D03*
D37*
X136091422Y-95072200D03*
X136591548Y-95072200D03*
X137091674Y-95072200D03*
X137591800Y-95072200D03*
X138091926Y-95072200D03*
X138592052Y-95072200D03*
X139092178Y-95072200D03*
X139592304Y-95072200D03*
D38*
X140242163Y-94422341D03*
X140242163Y-93922215D03*
X140242163Y-93422089D03*
X140242163Y-92921963D03*
X140242163Y-92421837D03*
X140242163Y-91921711D03*
X140242163Y-91421585D03*
X140242163Y-90921459D03*
D39*
X137841863Y-92671900D03*
%TD*%
D25*
%TO.C,Q6*%
X140933401Y-102122399D03*
X139533399Y-102122399D03*
X140233400Y-103922400D03*
%TD*%
D20*
%TO.C,C10*%
X137640800Y-84709000D03*
X136780800Y-84709000D03*
%TD*%
D31*
%TO.C,C12*%
X131558400Y-88366600D03*
X129858400Y-88366600D03*
%TD*%
M02*
