%TF.GenerationSoftware,KiCad,Pcbnew,(6.0.10)*%
%TF.CreationDate,2023-02-02T13:34:45-07:00*%
%TF.ProjectId,Flight-Computer-Lite,466c6967-6874-42d4-936f-6d7075746572,rev?*%
%TF.SameCoordinates,Original*%
%TF.FileFunction,Soldermask,Top*%
%TF.FilePolarity,Negative*%
%FSLAX46Y46*%
G04 Gerber Fmt 4.6, Leading zero omitted, Abs format (unit mm)*
G04 Created by KiCad (PCBNEW (6.0.10)) date 2023-02-02 13:34:45*
%MOMM*%
%LPD*%
G01*
G04 APERTURE LIST*
%ADD10C,0.000100*%
%ADD11R,0.965200X1.295400*%
%ADD12R,1.700000X0.990600*%
%ADD13R,0.952500X0.406400*%
%ADD14R,1.100000X1.000000*%
%ADD15R,1.020000X0.940000*%
%ADD16R,1.000000X0.800000*%
%ADD17R,0.609600X0.685800*%
%ADD18R,1.041400X0.584200*%
%ADD19R,1.778000X1.270000*%
%ADD20R,1.300000X1.100000*%
%ADD21C,3.000000*%
%ADD22C,1.066800*%
%ADD23R,1.000000X1.100000*%
%ADD24R,0.584200X1.041400*%
%ADD25R,0.685800X0.609600*%
%ADD26R,0.940000X1.020000*%
%ADD27R,1.524000X0.558800*%
%ADD28R,0.400000X1.350000*%
%ADD29R,1.500000X1.550000*%
%ADD30O,1.300000X0.650000*%
%ADD31O,0.775000X1.550000*%
%ADD32R,1.650000X1.650000*%
%ADD33C,1.650000*%
%ADD34R,0.900000X0.254000*%
%ADD35R,0.254000X0.900000*%
%ADD36R,3.100000X3.100000*%
%ADD37R,0.979300X0.558800*%
%ADD38R,1.560000X0.280000*%
%ADD39R,0.280000X1.560000*%
%ADD40R,1.320800X0.558800*%
%ADD41R,2.150000X0.950000*%
%ADD42R,2.150000X3.250000*%
%ADD43C,1.701800*%
%ADD44R,0.250000X0.275000*%
%ADD45R,0.275000X0.250000*%
%ADD46C,1.408000*%
G04 APERTURE END LIST*
%TO.C,P3*%
G36*
X226358600Y-81460700D02*
G01*
X226384600Y-81462700D01*
X226410600Y-81465700D01*
X226436600Y-81470700D01*
X226461600Y-81476700D01*
X226487600Y-81483700D01*
X226511600Y-81492700D01*
X226535600Y-81502700D01*
X226559600Y-81513700D01*
X226582600Y-81526700D01*
X226626600Y-81554700D01*
X226647600Y-81570700D01*
X226667600Y-81587700D01*
X226686600Y-81605700D01*
X226704600Y-81624700D01*
X226721600Y-81644700D01*
X226737600Y-81665700D01*
X226765600Y-81709700D01*
X226778600Y-81732700D01*
X226789600Y-81756700D01*
X226799600Y-81780700D01*
X226808600Y-81804700D01*
X226815600Y-81830700D01*
X226821600Y-81855700D01*
X226826600Y-81881700D01*
X226829600Y-81907700D01*
X226831600Y-81933700D01*
X226832600Y-81959700D01*
X226832600Y-82709700D01*
X226831600Y-82735700D01*
X226829600Y-82761700D01*
X226826600Y-82787700D01*
X226821600Y-82813700D01*
X226815600Y-82838700D01*
X226808600Y-82864700D01*
X226799600Y-82888700D01*
X226789600Y-82912700D01*
X226778600Y-82936700D01*
X226765600Y-82959700D01*
X226737600Y-83003700D01*
X226721600Y-83024700D01*
X226704600Y-83044700D01*
X226686600Y-83063700D01*
X226667600Y-83081700D01*
X226647600Y-83098700D01*
X226626600Y-83114700D01*
X226582600Y-83142700D01*
X226559600Y-83155700D01*
X226535600Y-83166700D01*
X226511600Y-83176700D01*
X226487600Y-83185700D01*
X226461600Y-83192700D01*
X226436600Y-83198700D01*
X226410600Y-83203700D01*
X226384600Y-83206700D01*
X226358600Y-83208700D01*
X226332600Y-83209700D01*
X224932600Y-83209700D01*
X224932600Y-81459700D01*
X226332600Y-81459700D01*
X226358600Y-81460700D01*
G37*
D10*
X226358600Y-81460700D02*
X226384600Y-81462700D01*
X226410600Y-81465700D01*
X226436600Y-81470700D01*
X226461600Y-81476700D01*
X226487600Y-81483700D01*
X226511600Y-81492700D01*
X226535600Y-81502700D01*
X226559600Y-81513700D01*
X226582600Y-81526700D01*
X226626600Y-81554700D01*
X226647600Y-81570700D01*
X226667600Y-81587700D01*
X226686600Y-81605700D01*
X226704600Y-81624700D01*
X226721600Y-81644700D01*
X226737600Y-81665700D01*
X226765600Y-81709700D01*
X226778600Y-81732700D01*
X226789600Y-81756700D01*
X226799600Y-81780700D01*
X226808600Y-81804700D01*
X226815600Y-81830700D01*
X226821600Y-81855700D01*
X226826600Y-81881700D01*
X226829600Y-81907700D01*
X226831600Y-81933700D01*
X226832600Y-81959700D01*
X226832600Y-82709700D01*
X226831600Y-82735700D01*
X226829600Y-82761700D01*
X226826600Y-82787700D01*
X226821600Y-82813700D01*
X226815600Y-82838700D01*
X226808600Y-82864700D01*
X226799600Y-82888700D01*
X226789600Y-82912700D01*
X226778600Y-82936700D01*
X226765600Y-82959700D01*
X226737600Y-83003700D01*
X226721600Y-83024700D01*
X226704600Y-83044700D01*
X226686600Y-83063700D01*
X226667600Y-83081700D01*
X226647600Y-83098700D01*
X226626600Y-83114700D01*
X226582600Y-83142700D01*
X226559600Y-83155700D01*
X226535600Y-83166700D01*
X226511600Y-83176700D01*
X226487600Y-83185700D01*
X226461600Y-83192700D01*
X226436600Y-83198700D01*
X226410600Y-83203700D01*
X226384600Y-83206700D01*
X226358600Y-83208700D01*
X226332600Y-83209700D01*
X224932600Y-83209700D01*
X224932600Y-81459700D01*
X226332600Y-81459700D01*
X226358600Y-81460700D01*
G36*
X220532600Y-83209700D02*
G01*
X219132600Y-83209700D01*
X219106600Y-83208700D01*
X219080600Y-83206700D01*
X219054600Y-83203700D01*
X219028600Y-83198700D01*
X219003600Y-83192700D01*
X218977600Y-83185700D01*
X218953600Y-83176700D01*
X218929600Y-83166700D01*
X218905600Y-83155700D01*
X218882600Y-83142700D01*
X218838600Y-83114700D01*
X218817600Y-83098700D01*
X218797600Y-83081700D01*
X218778600Y-83063700D01*
X218760600Y-83044700D01*
X218743600Y-83024700D01*
X218727600Y-83003700D01*
X218699600Y-82959700D01*
X218686600Y-82936700D01*
X218675600Y-82912700D01*
X218665600Y-82888700D01*
X218656600Y-82864700D01*
X218649600Y-82838700D01*
X218643600Y-82813700D01*
X218638600Y-82787700D01*
X218635600Y-82761700D01*
X218633600Y-82735700D01*
X218632600Y-82709700D01*
X218632600Y-81959700D01*
X218633600Y-81933700D01*
X218635600Y-81907700D01*
X218638600Y-81881700D01*
X218643600Y-81855700D01*
X218649600Y-81830700D01*
X218656600Y-81804700D01*
X218665600Y-81780700D01*
X218675600Y-81756700D01*
X218686600Y-81732700D01*
X218699600Y-81709700D01*
X218727600Y-81665700D01*
X218743600Y-81644700D01*
X218760600Y-81624700D01*
X218778600Y-81605700D01*
X218797600Y-81587700D01*
X218817600Y-81570700D01*
X218838600Y-81554700D01*
X218882600Y-81526700D01*
X218905600Y-81513700D01*
X218929600Y-81502700D01*
X218953600Y-81492700D01*
X218977600Y-81483700D01*
X219003600Y-81476700D01*
X219028600Y-81470700D01*
X219054600Y-81465700D01*
X219080600Y-81462700D01*
X219106600Y-81460700D01*
X219132600Y-81459700D01*
X220532600Y-81459700D01*
X220532600Y-83209700D01*
G37*
X220532600Y-83209700D02*
X219132600Y-83209700D01*
X219106600Y-83208700D01*
X219080600Y-83206700D01*
X219054600Y-83203700D01*
X219028600Y-83198700D01*
X219003600Y-83192700D01*
X218977600Y-83185700D01*
X218953600Y-83176700D01*
X218929600Y-83166700D01*
X218905600Y-83155700D01*
X218882600Y-83142700D01*
X218838600Y-83114700D01*
X218817600Y-83098700D01*
X218797600Y-83081700D01*
X218778600Y-83063700D01*
X218760600Y-83044700D01*
X218743600Y-83024700D01*
X218727600Y-83003700D01*
X218699600Y-82959700D01*
X218686600Y-82936700D01*
X218675600Y-82912700D01*
X218665600Y-82888700D01*
X218656600Y-82864700D01*
X218649600Y-82838700D01*
X218643600Y-82813700D01*
X218638600Y-82787700D01*
X218635600Y-82761700D01*
X218633600Y-82735700D01*
X218632600Y-82709700D01*
X218632600Y-81959700D01*
X218633600Y-81933700D01*
X218635600Y-81907700D01*
X218638600Y-81881700D01*
X218643600Y-81855700D01*
X218649600Y-81830700D01*
X218656600Y-81804700D01*
X218665600Y-81780700D01*
X218675600Y-81756700D01*
X218686600Y-81732700D01*
X218699600Y-81709700D01*
X218727600Y-81665700D01*
X218743600Y-81644700D01*
X218760600Y-81624700D01*
X218778600Y-81605700D01*
X218797600Y-81587700D01*
X218817600Y-81570700D01*
X218838600Y-81554700D01*
X218882600Y-81526700D01*
X218905600Y-81513700D01*
X218929600Y-81502700D01*
X218953600Y-81492700D01*
X218977600Y-81483700D01*
X219003600Y-81476700D01*
X219028600Y-81470700D01*
X219054600Y-81465700D01*
X219080600Y-81462700D01*
X219106600Y-81460700D01*
X219132600Y-81459700D01*
X220532600Y-81459700D01*
X220532600Y-83209700D01*
%TD*%
D11*
%TO.C,D4*%
X228371400Y-107543600D03*
X225323400Y-107543600D03*
%TD*%
D12*
%TO.C,B1*%
X190304400Y-106578199D03*
X184904400Y-106578199D03*
X190304400Y-103378201D03*
X184904400Y-103378201D03*
%TD*%
D13*
%TO.C,Q1*%
X164451350Y-93975001D03*
X164451350Y-93025000D03*
X164451350Y-92074999D03*
X161898650Y-92074999D03*
X161898650Y-93975001D03*
%TD*%
D14*
%TO.C,C2*%
X190892800Y-90881200D03*
X189192800Y-90881200D03*
%TD*%
D15*
%TO.C,R8*%
X228117400Y-83665000D03*
X228117400Y-85245000D03*
%TD*%
%TO.C,R16*%
X160223200Y-98219200D03*
X160223200Y-99799200D03*
%TD*%
D16*
%TO.C,D1*%
X213651400Y-83041400D03*
X215151400Y-83041400D03*
X215151400Y-84141400D03*
X213651400Y-84141400D03*
%TD*%
D17*
%TO.C,J1*%
X192125600Y-107823000D03*
X192125600Y-106705400D03*
%TD*%
D18*
%TO.C,D2*%
X160274000Y-87566500D03*
X160274000Y-83883500D03*
%TD*%
D19*
%TO.C,C13*%
X171805600Y-104825800D03*
X171805600Y-107467400D03*
%TD*%
D14*
%TO.C,C8*%
X191225000Y-96450000D03*
X189525000Y-96450000D03*
%TD*%
D20*
%TO.C,Y1*%
X184875000Y-97025000D03*
X187175000Y-97025000D03*
X187175000Y-95225000D03*
X184875000Y-95225000D03*
%TD*%
D14*
%TO.C,C14*%
X189675000Y-94550000D03*
X191375000Y-94550000D03*
%TD*%
D21*
%TO.C,H1*%
X233070400Y-107010200D03*
%TD*%
D22*
%TO.C,P2*%
X228436550Y-87757000D03*
X229706550Y-87757000D03*
X228436550Y-89027000D03*
X229706550Y-89027000D03*
X228436550Y-90297000D03*
X229706550Y-90297000D03*
X228436550Y-91567000D03*
X229706550Y-91567000D03*
X228436550Y-92837000D03*
X229706550Y-92837000D03*
X228436550Y-94107000D03*
X229706550Y-94107000D03*
X228436550Y-95377000D03*
X229706550Y-95377000D03*
X228436550Y-96647000D03*
X229706550Y-96647000D03*
X228436550Y-97917000D03*
X229706550Y-97917000D03*
X228436550Y-99187000D03*
X229706550Y-99187000D03*
%TD*%
D14*
%TO.C,C9*%
X190500000Y-99175000D03*
X188800000Y-99175000D03*
%TD*%
D23*
%TO.C,C3*%
X192405000Y-103163000D03*
X192405000Y-104863000D03*
%TD*%
D21*
%TO.C,H4*%
X154228800Y-106781600D03*
%TD*%
D14*
%TO.C,C18*%
X221450800Y-90652600D03*
X223150800Y-90652600D03*
%TD*%
%TO.C,C6*%
X211138400Y-86512400D03*
X212838400Y-86512400D03*
%TD*%
D24*
%TO.C,D3*%
X155536900Y-97612200D03*
X151853900Y-97612200D03*
%TD*%
D25*
%TO.C,J2*%
X196875400Y-82626200D03*
X197993000Y-82626200D03*
%TD*%
D15*
%TO.C,R2*%
X215138000Y-87810400D03*
X215138000Y-86230400D03*
%TD*%
%TO.C,R4*%
X226441000Y-98346200D03*
X226441000Y-99926200D03*
%TD*%
%TO.C,R9*%
X229920800Y-83741200D03*
X229920800Y-85321200D03*
%TD*%
D26*
%TO.C,R17*%
X187373200Y-84226400D03*
X188953200Y-84226400D03*
%TD*%
D27*
%TO.C,U3*%
X197142100Y-105079800D03*
X197142100Y-106349800D03*
X197142100Y-107619800D03*
X197142100Y-108889800D03*
X204431900Y-108889800D03*
X204431900Y-107619800D03*
X204431900Y-106349800D03*
X204431900Y-105079800D03*
%TD*%
D26*
%TO.C,R23*%
X170710800Y-101904800D03*
X172290800Y-101904800D03*
%TD*%
D15*
%TO.C,R19*%
X168859200Y-92936000D03*
X168859200Y-94516000D03*
%TD*%
D28*
%TO.C,P3*%
X224032600Y-85034700D03*
X223382600Y-85034700D03*
X222732600Y-85034700D03*
X222082600Y-85034700D03*
X221432600Y-85034700D03*
D29*
X221732600Y-82334700D03*
D30*
X225232600Y-85034700D03*
D29*
X223732600Y-82334700D03*
D31*
X226232600Y-82334700D03*
X219232600Y-82334700D03*
D30*
X220232600Y-85034700D03*
%TD*%
D26*
%TO.C,R3*%
X207673000Y-82169000D03*
X206093000Y-82169000D03*
%TD*%
D14*
%TO.C,C17*%
X221095200Y-88950800D03*
X222795200Y-88950800D03*
%TD*%
D23*
%TO.C,C19*%
X166750000Y-94550000D03*
X166750000Y-92850000D03*
%TD*%
D32*
%TO.C,P1*%
X156619600Y-90375800D03*
D33*
X156619600Y-93875800D03*
%TD*%
D15*
%TO.C,R10*%
X206806800Y-108663800D03*
X206806800Y-107083800D03*
%TD*%
D34*
%TO.C,U4*%
X219633000Y-93956000D03*
X219633000Y-93456000D03*
X219633000Y-92956000D03*
X219633000Y-92456000D03*
X219633000Y-91956000D03*
X219633000Y-91456000D03*
X219633000Y-90956000D03*
D35*
X218543000Y-89866000D03*
X218043000Y-89866000D03*
X217543000Y-89866000D03*
X217043000Y-89866000D03*
X216543000Y-89866000D03*
X216043000Y-89866000D03*
X215543000Y-89866000D03*
D34*
X214453000Y-90956000D03*
X214453000Y-91456000D03*
X214453000Y-91956000D03*
X214453000Y-92456000D03*
X214453000Y-92956000D03*
X214453000Y-93456000D03*
X214453000Y-93956000D03*
D35*
X215543000Y-95046000D03*
X216043000Y-95046000D03*
X216543000Y-95046000D03*
X217043000Y-95046000D03*
X217543000Y-95046000D03*
X218043000Y-95046000D03*
X218543000Y-95046000D03*
D36*
X217043000Y-92456000D03*
%TD*%
D26*
%TO.C,R12*%
X217446800Y-87884000D03*
X219026800Y-87884000D03*
%TD*%
D37*
%TO.C,D5*%
X222846605Y-92852199D03*
X222846605Y-93802200D03*
X222846605Y-94752201D03*
X225578501Y-94752201D03*
X225578501Y-92852199D03*
%TD*%
D23*
%TO.C,C22*%
X188493400Y-87288000D03*
X188493400Y-88988000D03*
%TD*%
D38*
%TO.C,U1*%
X193564200Y-86176600D03*
X193564200Y-86676600D03*
X193564200Y-87176600D03*
X193564200Y-87676600D03*
X193564200Y-88176600D03*
X193564200Y-88676600D03*
X193564200Y-89176600D03*
X193564200Y-89676600D03*
X193564200Y-90176600D03*
X193564200Y-90676600D03*
X193564200Y-91176600D03*
X193564200Y-91676600D03*
X193564200Y-92176600D03*
X193564200Y-92676600D03*
X193564200Y-93176600D03*
X193564200Y-93676600D03*
X193564200Y-94176600D03*
X193564200Y-94676600D03*
X193564200Y-95176600D03*
X193564200Y-95676600D03*
X193564200Y-96176600D03*
X193564200Y-96676600D03*
X193564200Y-97176600D03*
X193564200Y-97676600D03*
X193564200Y-98176600D03*
D39*
X195244200Y-99856600D03*
X195744200Y-99856600D03*
X196244200Y-99856600D03*
X196744200Y-99856600D03*
X197244200Y-99856600D03*
X197744200Y-99856600D03*
X198244200Y-99856600D03*
X198744200Y-99856600D03*
X199244200Y-99856600D03*
X199744200Y-99856600D03*
X200244200Y-99856600D03*
X200744200Y-99856600D03*
X201244200Y-99856600D03*
X201744200Y-99856600D03*
X202244200Y-99856600D03*
X202744200Y-99856600D03*
X203244200Y-99856600D03*
X203744200Y-99856600D03*
X204244200Y-99856600D03*
X204744200Y-99856600D03*
X205244200Y-99856600D03*
X205744200Y-99856600D03*
X206244200Y-99856600D03*
X206744200Y-99856600D03*
X207244200Y-99856600D03*
D38*
X208924200Y-98176600D03*
X208924200Y-97676600D03*
X208924200Y-97176600D03*
X208924200Y-96676600D03*
X208924200Y-96176600D03*
X208924200Y-95676600D03*
X208924200Y-95176600D03*
X208924200Y-94676600D03*
X208924200Y-94176600D03*
X208924200Y-93676600D03*
X208924200Y-93176600D03*
X208924200Y-92676600D03*
X208924200Y-92176600D03*
X208924200Y-91676600D03*
X208924200Y-91176600D03*
X208924200Y-90676600D03*
X208924200Y-90176600D03*
X208924200Y-89676600D03*
X208924200Y-89176600D03*
X208924200Y-88676600D03*
X208924200Y-88176600D03*
X208924200Y-87676600D03*
X208924200Y-87176600D03*
X208924200Y-86676600D03*
X208924200Y-86176600D03*
D39*
X207244200Y-84496600D03*
X206744200Y-84496600D03*
X206244200Y-84496600D03*
X205744200Y-84496600D03*
X205244200Y-84496600D03*
X204744200Y-84496600D03*
X204244200Y-84496600D03*
X203744200Y-84496600D03*
X203244200Y-84496600D03*
X202744200Y-84496600D03*
X202244200Y-84496600D03*
X201744200Y-84496600D03*
X201244200Y-84496600D03*
X200744200Y-84496600D03*
X200244200Y-84496600D03*
X199744200Y-84496600D03*
X199244200Y-84496600D03*
X198744200Y-84496600D03*
X198244200Y-84496600D03*
X197744200Y-84496600D03*
X197244200Y-84496600D03*
X196744200Y-84496600D03*
X196244200Y-84496600D03*
X195744200Y-84496600D03*
X195244200Y-84496600D03*
%TD*%
D14*
%TO.C,C11*%
X203645400Y-102285800D03*
X205345400Y-102285800D03*
%TD*%
%TO.C,C15*%
X211189200Y-88265000D03*
X212889200Y-88265000D03*
%TD*%
D26*
%TO.C,R6*%
X210411000Y-109093000D03*
X211991000Y-109093000D03*
%TD*%
D15*
%TO.C,R14*%
X158115000Y-98828800D03*
X158115000Y-100408800D03*
%TD*%
D23*
%TO.C,C4*%
X209575400Y-99734000D03*
X209575400Y-101434000D03*
%TD*%
D15*
%TO.C,R7*%
X194919600Y-105280400D03*
X194919600Y-106860400D03*
%TD*%
D19*
%TO.C,C10*%
X159181800Y-104190800D03*
X159181800Y-106832400D03*
%TD*%
D15*
%TO.C,R18*%
X185445400Y-85245000D03*
X185445400Y-83665000D03*
%TD*%
D14*
%TO.C,C12*%
X184800000Y-98950000D03*
X186500000Y-98950000D03*
%TD*%
D13*
%TO.C,Q2*%
X178326350Y-94000001D03*
X178326350Y-93050000D03*
X178326350Y-92099999D03*
X175773650Y-92099999D03*
X175773650Y-94000001D03*
%TD*%
D12*
%TO.C,B2*%
X179941200Y-106400399D03*
X174541200Y-106400399D03*
X179941200Y-103200401D03*
X174541200Y-103200401D03*
%TD*%
D14*
%TO.C,C7*%
X196252200Y-102514400D03*
X194552200Y-102514400D03*
%TD*%
D40*
%TO.C,U5*%
X165328600Y-98938401D03*
X165328600Y-97988400D03*
X165328600Y-97038399D03*
X162941000Y-97038399D03*
X162941000Y-98938401D03*
%TD*%
D41*
%TO.C,U2*%
X168457200Y-108141800D03*
D42*
X162657200Y-105841800D03*
D41*
X168457200Y-105841800D03*
X168457200Y-103541800D03*
%TD*%
D26*
%TO.C,R15*%
X168480800Y-101346000D03*
X166900800Y-101346000D03*
%TD*%
D43*
%TO.C,P4*%
X181546203Y-87615301D03*
X178046200Y-87615301D03*
X174546199Y-87615301D03*
X171046198Y-87615301D03*
X167546198Y-87615301D03*
X164046197Y-87615301D03*
%TD*%
D15*
%TO.C,R20*%
X182500000Y-91860000D03*
X182500000Y-93440000D03*
%TD*%
D40*
%TO.C,U8*%
X179755800Y-99070201D03*
X179755800Y-98120200D03*
X179755800Y-97170199D03*
X177368200Y-97170199D03*
X177368200Y-99070201D03*
%TD*%
D15*
%TO.C,R11*%
X184825000Y-91815000D03*
X184825000Y-90235000D03*
%TD*%
D26*
%TO.C,R13*%
X211376200Y-91160600D03*
X212956200Y-91160600D03*
%TD*%
D40*
%TO.C,U7*%
X172364400Y-99349601D03*
X172364400Y-98399600D03*
X172364400Y-97449599D03*
X169976800Y-97449599D03*
X169976800Y-99349601D03*
%TD*%
D26*
%TO.C,R5*%
X226413000Y-101777800D03*
X227993000Y-101777800D03*
%TD*%
D23*
%TO.C,C20*%
X180300000Y-93900000D03*
X180300000Y-92200000D03*
%TD*%
D15*
%TO.C,R21*%
X175133000Y-98066800D03*
X175133000Y-99646800D03*
%TD*%
D44*
%TO.C,U6*%
X186051500Y-87197700D03*
X185551500Y-87197700D03*
D45*
X185039000Y-87460200D03*
X185039000Y-87960200D03*
X185039000Y-88460200D03*
D44*
X185551500Y-88722700D03*
X186051500Y-88722700D03*
D45*
X186564000Y-88460200D03*
X186564000Y-87960200D03*
X186564000Y-87460200D03*
%TD*%
D15*
%TO.C,R1*%
X217144600Y-84787800D03*
X217144600Y-83207800D03*
%TD*%
D26*
%TO.C,R24*%
X180317200Y-101269800D03*
X178737200Y-101269800D03*
%TD*%
D23*
%TO.C,C21*%
X190322200Y-87313400D03*
X190322200Y-89013400D03*
%TD*%
%TO.C,C1*%
X209677000Y-84466800D03*
X209677000Y-82766800D03*
%TD*%
D14*
%TO.C,C5*%
X193128000Y-83108800D03*
X191428000Y-83108800D03*
%TD*%
D23*
%TO.C,C16*%
X182168800Y-103747200D03*
X182168800Y-105447200D03*
%TD*%
D46*
%TO.C,BZ1*%
X214259000Y-102920800D03*
X221859000Y-102920800D03*
%TD*%
D21*
%TO.C,H3*%
X154482800Y-84759800D03*
%TD*%
D15*
%TO.C,R22*%
X182600000Y-98865000D03*
X182600000Y-97285000D03*
%TD*%
M02*
