%TF.GenerationSoftware,KiCad,Pcbnew,(6.0.10)*%
%TF.CreationDate,2023-02-02T13:34:45-07:00*%
%TF.ProjectId,Flight-Computer-Lite,466c6967-6874-42d4-936f-6d7075746572,rev?*%
%TF.SameCoordinates,Original*%
%TF.FileFunction,Copper,L3,Inr*%
%TF.FilePolarity,Positive*%
%FSLAX46Y46*%
G04 Gerber Fmt 4.6, Leading zero omitted, Abs format (unit mm)*
G04 Created by KiCad (PCBNEW (6.0.10)) date 2023-02-02 13:34:45*
%MOMM*%
%LPD*%
G01*
G04 APERTURE LIST*
%TA.AperFunction,ComponentPad*%
%ADD10C,1.066800*%
%TD*%
%TA.AperFunction,ComponentPad*%
%ADD11O,1.300000X0.650000*%
%TD*%
%TA.AperFunction,ComponentPad*%
%ADD12O,0.775000X1.550000*%
%TD*%
%TA.AperFunction,ComponentPad*%
%ADD13R,1.650000X1.650000*%
%TD*%
%TA.AperFunction,ComponentPad*%
%ADD14C,1.650000*%
%TD*%
%TA.AperFunction,ComponentPad*%
%ADD15C,1.701800*%
%TD*%
%TA.AperFunction,ComponentPad*%
%ADD16C,1.408000*%
%TD*%
%TA.AperFunction,ViaPad*%
%ADD17C,0.499999*%
%TD*%
%TA.AperFunction,ViaPad*%
%ADD18C,1.016000*%
%TD*%
%TA.AperFunction,ViaPad*%
%ADD19C,0.800000*%
%TD*%
%TA.AperFunction,Conductor*%
%ADD20C,0.254000*%
%TD*%
%TA.AperFunction,Conductor*%
%ADD21C,0.177800*%
%TD*%
G04 APERTURE END LIST*
D10*
%TO.N,3.3V*%
%TO.C,P2*%
X228436550Y-87757000D03*
X229706550Y-87757000D03*
%TO.N,Earth*%
X228436550Y-89027000D03*
X229706550Y-89027000D03*
X228436550Y-90297000D03*
X229706550Y-90297000D03*
%TO.N,SWDIO*%
X228436550Y-91567000D03*
%TO.N,Earth*%
X229706550Y-91567000D03*
%TO.N,SWCLK*%
X228436550Y-92837000D03*
%TO.N,Earth*%
X229706550Y-92837000D03*
%TO.N,unconnected-(P2-Pad11)*%
X228436550Y-94107000D03*
%TO.N,Earth*%
X229706550Y-94107000D03*
%TO.N,SWO*%
X228436550Y-95377000D03*
%TO.N,Earth*%
X229706550Y-95377000D03*
%TO.N,NRST*%
X228436550Y-96647000D03*
%TO.N,Earth*%
X229706550Y-96647000D03*
%TO.N,unconnected-(P2-Pad17)*%
X228436550Y-97917000D03*
%TO.N,Earth*%
X229706550Y-97917000D03*
%TO.N,unconnected-(P2-Pad19)*%
X228436550Y-99187000D03*
%TO.N,Earth*%
X229706550Y-99187000D03*
%TD*%
D11*
%TO.N,Earth*%
%TO.C,P3*%
X225232600Y-85034700D03*
D12*
X226232600Y-82334700D03*
X219232600Y-82334700D03*
D11*
X220232600Y-85034700D03*
%TD*%
D13*
%TO.N,/PIN_SCREW*%
%TO.C,P1*%
X156619600Y-90375800D03*
D14*
%TO.N,Earth*%
X156619600Y-93875800D03*
%TD*%
D15*
%TO.N,VIN*%
%TO.C,P4*%
X181546203Y-87615301D03*
%TO.N,VIN_SW*%
X178046200Y-87615301D03*
X174546199Y-87615301D03*
%TO.N,Net-(P4-Pad4)*%
X171046198Y-87615301D03*
%TO.N,VIN_SW*%
X167546198Y-87615301D03*
%TO.N,Net-(P4-Pad6)*%
X164046197Y-87615301D03*
%TD*%
D16*
%TO.N,BEEP*%
%TO.C,BZ1*%
X214259000Y-102920800D03*
%TO.N,Earth*%
X221859000Y-102920800D03*
%TD*%
D17*
%TO.N,NRST*%
X196113400Y-92710000D03*
D18*
%TO.N,Earth*%
X177050000Y-93050000D03*
X163200000Y-93025000D03*
D17*
X190437500Y-95487500D03*
X184361200Y-88460200D03*
X214274400Y-94919800D03*
X207323800Y-101434000D03*
X187650000Y-98950000D03*
X208028600Y-108663800D03*
D18*
X162306000Y-109270800D03*
D17*
X213944200Y-86512400D03*
X161500000Y-101076000D03*
X193916300Y-84823300D03*
X195121400Y-90676600D03*
X187358400Y-88460200D03*
D19*
X193294000Y-106781600D03*
X178257401Y-106400399D03*
D17*
X194912500Y-101537500D03*
X167812500Y-97262500D03*
X184861200Y-86512400D03*
X207594200Y-86436200D03*
X180979800Y-98120200D03*
X224586800Y-91084400D03*
%TO.N,3.3V*%
X188671200Y-82677000D03*
X194919600Y-108331000D03*
X187342400Y-87460200D03*
X185445400Y-82245200D03*
X190500000Y-97775000D03*
X192058800Y-91176600D03*
D19*
X206095600Y-105054400D03*
D17*
X208924200Y-85563400D03*
X211912200Y-82677000D03*
X231698800Y-87757000D03*
X182600000Y-96100000D03*
X195249800Y-82397600D03*
D18*
X165811200Y-105841800D03*
D17*
X217446800Y-86743600D03*
X223824800Y-107543600D03*
X208266400Y-99734000D03*
X195975000Y-101450000D03*
X176250000Y-99900000D03*
%TO.N,VIN*%
X167300000Y-97975000D03*
D18*
X156925000Y-96225000D03*
D17*
%TO.N,5V*%
X219633000Y-89866000D03*
X224332800Y-95123000D03*
D18*
X225806000Y-86461600D03*
X160274000Y-82118200D03*
D17*
%TO.N,DROGUE*%
X188000000Y-93250000D03*
X191950000Y-89500000D03*
%TO.N,MAIN*%
X191550000Y-88125000D03*
X188225000Y-92325000D03*
D19*
%TO.N,/Peripherals/D-*%
X221208600Y-94843600D03*
X221200600Y-91956000D03*
D17*
%TO.N,SWDIO*%
X225767900Y-91173300D03*
X226339400Y-97434400D03*
X207225000Y-87925000D03*
%TO.N,SWCLK*%
X206375000Y-89825000D03*
X224650241Y-91909959D03*
X225196400Y-101269800D03*
%TO.N,SWO*%
X201168000Y-87960200D03*
%TO.N,VIN_SW*%
X163950000Y-95475000D03*
%TO.N,Net-(P4-Pad4)*%
X173482000Y-101904800D03*
X169976800Y-95898200D03*
%TO.N,Net-(P4-Pad6)*%
X173800000Y-98175000D03*
%TO.N,USB_DETECT*%
X226644200Y-87528400D03*
X205384400Y-90576400D03*
%TO.N,FLASH_SCK*%
X210540600Y-102844600D03*
X208203800Y-107086400D03*
%TO.N,~{USB_RST}*%
X210146400Y-88176600D03*
X219633800Y-88925400D03*
%TO.N,VCOMP*%
X173600000Y-96575000D03*
X163962500Y-99737500D03*
%TO.N,~{SWITCH}*%
X201275000Y-90225000D03*
X177125000Y-101325000D03*
%TO.N,BP_SDA*%
X186486800Y-82169000D03*
X189103000Y-81940400D03*
%TO.N,~{MAIN_CONT}*%
X175133000Y-96908000D03*
X195750000Y-87175000D03*
%TO.N,~{DROGUE_CONT}*%
X181154799Y-99070201D03*
X196425000Y-89700000D03*
%TO.N,BP_INT*%
X186450000Y-89575000D03*
X191837500Y-86787500D03*
%TO.N,TX_USB*%
X217652600Y-97409000D03*
X215696800Y-97409000D03*
%TD*%
D20*
%TO.N,5V*%
X224332800Y-95123000D02*
X224332800Y-93116400D01*
X224332800Y-93116400D02*
X221082400Y-89866000D01*
X221082400Y-89866000D02*
X219633000Y-89866000D01*
D21*
%TO.N,SWDIO*%
X225767900Y-96862900D02*
X226339400Y-97434400D01*
X225767900Y-91173300D02*
X225767900Y-96862900D01*
%TO.N,SWCLK*%
X224650241Y-91909959D02*
X224650241Y-92544841D01*
X225196400Y-93091000D02*
X225196400Y-101269800D01*
X224650241Y-92544841D02*
X225196400Y-93091000D01*
%TO.N,Net-(P4-Pad4)*%
X173482000Y-99403400D02*
X169976800Y-95898200D01*
X173482000Y-101904800D02*
X173482000Y-99403400D01*
%TD*%
%TA.AperFunction,Conductor*%
%TO.N,3.3V*%
G36*
X236034621Y-80894102D02*
G01*
X236081114Y-80947758D01*
X236092500Y-81000100D01*
X236092500Y-109753900D01*
X236072498Y-109822021D01*
X236018842Y-109868514D01*
X235966500Y-109879900D01*
X227335351Y-109879900D01*
X227357456Y-106939933D01*
X231058222Y-106939933D01*
X231068025Y-107220658D01*
X231068787Y-107224981D01*
X231068788Y-107224988D01*
X231092564Y-107359824D01*
X231116802Y-107497287D01*
X231203603Y-107764435D01*
X231326740Y-108016902D01*
X231329195Y-108020541D01*
X231329198Y-108020547D01*
X231402290Y-108128910D01*
X231483815Y-108249776D01*
X231671771Y-108458522D01*
X231886950Y-108639079D01*
X232125164Y-108787931D01*
X232381775Y-108902182D01*
X232651790Y-108979607D01*
X232656140Y-108980218D01*
X232656143Y-108980219D01*
X232759090Y-108994687D01*
X232929952Y-109018700D01*
X233140546Y-109018700D01*
X233142732Y-109018547D01*
X233142736Y-109018547D01*
X233346227Y-109004318D01*
X233346232Y-109004317D01*
X233350612Y-109004011D01*
X233625370Y-108945609D01*
X233629499Y-108944106D01*
X233629503Y-108944105D01*
X233885181Y-108851046D01*
X233885185Y-108851044D01*
X233889326Y-108849537D01*
X234137342Y-108717664D01*
X234242296Y-108641411D01*
X234361029Y-108555147D01*
X234361032Y-108555144D01*
X234364592Y-108552558D01*
X234566652Y-108357431D01*
X234739588Y-108136082D01*
X234741784Y-108132278D01*
X234741789Y-108132271D01*
X234877835Y-107896631D01*
X234880036Y-107892819D01*
X234985262Y-107632376D01*
X235018944Y-107497287D01*
X235052153Y-107364093D01*
X235052154Y-107364088D01*
X235053217Y-107359824D01*
X235082578Y-107080467D01*
X235072775Y-106799742D01*
X235049008Y-106664949D01*
X235024760Y-106527436D01*
X235023998Y-106523113D01*
X234937197Y-106255965D01*
X234814060Y-106003498D01*
X234811605Y-105999859D01*
X234811602Y-105999853D01*
X234731335Y-105880853D01*
X234656985Y-105770624D01*
X234469029Y-105561878D01*
X234253850Y-105381321D01*
X234015636Y-105232469D01*
X233759025Y-105118218D01*
X233489010Y-105040793D01*
X233484660Y-105040182D01*
X233484657Y-105040181D01*
X233381710Y-105025713D01*
X233210848Y-105001700D01*
X233000254Y-105001700D01*
X232998068Y-105001853D01*
X232998064Y-105001853D01*
X232794573Y-105016082D01*
X232794568Y-105016083D01*
X232790188Y-105016389D01*
X232515430Y-105074791D01*
X232511301Y-105076294D01*
X232511297Y-105076295D01*
X232255619Y-105169354D01*
X232255615Y-105169356D01*
X232251474Y-105170863D01*
X232003458Y-105302736D01*
X231999899Y-105305322D01*
X231999897Y-105305323D01*
X231895295Y-105381321D01*
X231776208Y-105467842D01*
X231574148Y-105662969D01*
X231401212Y-105884318D01*
X231399016Y-105888122D01*
X231399011Y-105888129D01*
X231285194Y-106085267D01*
X231260764Y-106127581D01*
X231155538Y-106388024D01*
X231154473Y-106392297D01*
X231154472Y-106392299D01*
X231120779Y-106527436D01*
X231087583Y-106660576D01*
X231058222Y-106939933D01*
X227357456Y-106939933D01*
X227406200Y-100457000D01*
X230987600Y-100507800D01*
X230860600Y-85953600D01*
X230847804Y-85953410D01*
X230847802Y-85953410D01*
X227555734Y-85904639D01*
X227487917Y-85883630D01*
X227442224Y-85829292D01*
X227431600Y-85778653D01*
X227431600Y-81000100D01*
X227451602Y-80931979D01*
X227505258Y-80885486D01*
X227557600Y-80874100D01*
X235966500Y-80874100D01*
X236034621Y-80894102D01*
G37*
%TD.AperFunction*%
%TD*%
%TA.AperFunction,Conductor*%
%TO.N,3.3V*%
G36*
X160094429Y-80894102D02*
G01*
X160140922Y-80947758D01*
X160151026Y-81018032D01*
X160121532Y-81082612D01*
X160061886Y-81120972D01*
X159891370Y-81171158D01*
X159714709Y-81263514D01*
X159709909Y-81267374D01*
X159709908Y-81267374D01*
X159704893Y-81271406D01*
X159559351Y-81388425D01*
X159431214Y-81541133D01*
X159335179Y-81715821D01*
X159333318Y-81721688D01*
X159333317Y-81721690D01*
X159318656Y-81767906D01*
X159274902Y-81905835D01*
X159252682Y-82103939D01*
X159269362Y-82302586D01*
X159285488Y-82358824D01*
X159320948Y-82482484D01*
X159324310Y-82494209D01*
X159415430Y-82671511D01*
X159539253Y-82827737D01*
X159691063Y-82956937D01*
X159696441Y-82959943D01*
X159696443Y-82959944D01*
X159738397Y-82983391D01*
X159865076Y-83054189D01*
X159870935Y-83056093D01*
X159870938Y-83056094D01*
X159906701Y-83067714D01*
X160054665Y-83115791D01*
X160060775Y-83116520D01*
X160060777Y-83116520D01*
X160128314Y-83124573D01*
X160252609Y-83139394D01*
X160258744Y-83138922D01*
X160258746Y-83138922D01*
X160445226Y-83124573D01*
X160445231Y-83124572D01*
X160451367Y-83124100D01*
X160457297Y-83122444D01*
X160457299Y-83122444D01*
X160578360Y-83088643D01*
X160643370Y-83070492D01*
X160648870Y-83067714D01*
X160815802Y-82983391D01*
X160815804Y-82983390D01*
X160821303Y-82980612D01*
X160967224Y-82866606D01*
X160973534Y-82861676D01*
X160978390Y-82857882D01*
X161000962Y-82831732D01*
X161104618Y-82711646D01*
X161104619Y-82711644D01*
X161108647Y-82706978D01*
X161207112Y-82533648D01*
X161270035Y-82344494D01*
X161289513Y-82190313D01*
X161293552Y-82158343D01*
X185723576Y-82158343D01*
X185740182Y-82327699D01*
X185793895Y-82489167D01*
X185797542Y-82495189D01*
X185797543Y-82495191D01*
X185826817Y-82543527D01*
X185882047Y-82634723D01*
X185886943Y-82639793D01*
X185906107Y-82659638D01*
X186000256Y-82757131D01*
X186142646Y-82850309D01*
X186302142Y-82909625D01*
X186309123Y-82910556D01*
X186309125Y-82910557D01*
X186348376Y-82915794D01*
X186470815Y-82932131D01*
X186477826Y-82931493D01*
X186477830Y-82931493D01*
X186633261Y-82917347D01*
X186640282Y-82916708D01*
X186646984Y-82914530D01*
X186646986Y-82914530D01*
X186795423Y-82866300D01*
X186795426Y-82866299D01*
X186802122Y-82864123D01*
X186873867Y-82821354D01*
X186942234Y-82780600D01*
X186942237Y-82780598D01*
X186948289Y-82776990D01*
X187071520Y-82659638D01*
X187095089Y-82624165D01*
X187143035Y-82552000D01*
X187165690Y-82517902D01*
X187174690Y-82494209D01*
X187223617Y-82365409D01*
X187223618Y-82365406D01*
X187226118Y-82358824D01*
X187249800Y-82190313D01*
X187250098Y-82169000D01*
X187231130Y-81999892D01*
X187206701Y-81929743D01*
X188339776Y-81929743D01*
X188356382Y-82099099D01*
X188358606Y-82105784D01*
X188358606Y-82105785D01*
X188383041Y-82179239D01*
X188410095Y-82260567D01*
X188413742Y-82266589D01*
X188413743Y-82266591D01*
X188439128Y-82308506D01*
X188498247Y-82406123D01*
X188503143Y-82411193D01*
X188522307Y-82431038D01*
X188616456Y-82528531D01*
X188758846Y-82621709D01*
X188918342Y-82681025D01*
X188925323Y-82681956D01*
X188925325Y-82681957D01*
X188971426Y-82688108D01*
X189087015Y-82703531D01*
X189094026Y-82702893D01*
X189094030Y-82702893D01*
X189249461Y-82688747D01*
X189256482Y-82688108D01*
X189263184Y-82685930D01*
X189263186Y-82685930D01*
X189411623Y-82637700D01*
X189411626Y-82637699D01*
X189418322Y-82635523D01*
X189490067Y-82592754D01*
X189558434Y-82552000D01*
X189558437Y-82551998D01*
X189564489Y-82548390D01*
X189687720Y-82431038D01*
X189781890Y-82289302D01*
X189790517Y-82266591D01*
X189839817Y-82136809D01*
X189839818Y-82136806D01*
X189842318Y-82130224D01*
X189866000Y-81961713D01*
X189866298Y-81940400D01*
X189854614Y-81836232D01*
X189848115Y-81778288D01*
X189848114Y-81778285D01*
X189847330Y-81771292D01*
X189791367Y-81610590D01*
X189785382Y-81601011D01*
X189704925Y-81472253D01*
X189701192Y-81466279D01*
X189633858Y-81398474D01*
X189586249Y-81350531D01*
X189586245Y-81350528D01*
X189581285Y-81345533D01*
X189437608Y-81254352D01*
X189277300Y-81197269D01*
X189108329Y-81177121D01*
X189101326Y-81177857D01*
X189101325Y-81177857D01*
X188946101Y-81194171D01*
X188946097Y-81194172D01*
X188939093Y-81194908D01*
X188932422Y-81197179D01*
X188784674Y-81247476D01*
X188784671Y-81247477D01*
X188778004Y-81249747D01*
X188772006Y-81253437D01*
X188772004Y-81253438D01*
X188742798Y-81271406D01*
X188633067Y-81338913D01*
X188628036Y-81343840D01*
X188628033Y-81343842D01*
X188586447Y-81384566D01*
X188511486Y-81457973D01*
X188419305Y-81601011D01*
X188416896Y-81607631D01*
X188416895Y-81607632D01*
X188413396Y-81617245D01*
X188361104Y-81760916D01*
X188339776Y-81929743D01*
X187206701Y-81929743D01*
X187175167Y-81839190D01*
X187169182Y-81829611D01*
X187088725Y-81700853D01*
X187084992Y-81694879D01*
X187025039Y-81634506D01*
X186970049Y-81579131D01*
X186970045Y-81579128D01*
X186965085Y-81574133D01*
X186821408Y-81482952D01*
X186661100Y-81425869D01*
X186492129Y-81405721D01*
X186485126Y-81406457D01*
X186485125Y-81406457D01*
X186329901Y-81422771D01*
X186329897Y-81422772D01*
X186322893Y-81423508D01*
X186316222Y-81425779D01*
X186168474Y-81476076D01*
X186168471Y-81476077D01*
X186161804Y-81478347D01*
X186155806Y-81482037D01*
X186155804Y-81482038D01*
X186148179Y-81486729D01*
X186016867Y-81567513D01*
X186011836Y-81572440D01*
X186011833Y-81572442D01*
X185972878Y-81610590D01*
X185895286Y-81686573D01*
X185803105Y-81829611D01*
X185800696Y-81836231D01*
X185800695Y-81836232D01*
X185753600Y-81965623D01*
X185744904Y-81989516D01*
X185723576Y-82158343D01*
X161293552Y-82158343D01*
X161294578Y-82150223D01*
X161294579Y-82150213D01*
X161295020Y-82146720D01*
X161295418Y-82118200D01*
X161275965Y-81919806D01*
X161274184Y-81913907D01*
X161274183Y-81913902D01*
X161220129Y-81734867D01*
X161218348Y-81728968D01*
X161158944Y-81617245D01*
X161127655Y-81558398D01*
X161127653Y-81558395D01*
X161124761Y-81552956D01*
X161120871Y-81548186D01*
X161120868Y-81548182D01*
X161002663Y-81403249D01*
X161002660Y-81403246D01*
X160998768Y-81398474D01*
X160845170Y-81271406D01*
X160669815Y-81176592D01*
X160488498Y-81120465D01*
X160429338Y-81081214D01*
X160400791Y-81016209D01*
X160411920Y-80946090D01*
X160459191Y-80893119D01*
X160525757Y-80874100D01*
X218847139Y-80874100D01*
X218915260Y-80894102D01*
X218961753Y-80947758D01*
X218971857Y-81018032D01*
X218942363Y-81082612D01*
X218898388Y-81115207D01*
X218788163Y-81164282D01*
X218788161Y-81164283D01*
X218782133Y-81166967D01*
X218776792Y-81170847D01*
X218776791Y-81170848D01*
X218741574Y-81196435D01*
X218629757Y-81277675D01*
X218625344Y-81282577D01*
X218625342Y-81282578D01*
X218508147Y-81412736D01*
X218503728Y-81417644D01*
X218500425Y-81423365D01*
X218414356Y-81572442D01*
X218409555Y-81580757D01*
X218400823Y-81607632D01*
X218361399Y-81728968D01*
X218351353Y-81759885D01*
X218336600Y-81900248D01*
X218336600Y-82769152D01*
X218351353Y-82909515D01*
X218353393Y-82915793D01*
X218353393Y-82915794D01*
X218366761Y-82956937D01*
X218409555Y-83088643D01*
X218503728Y-83251756D01*
X218629757Y-83391725D01*
X218782132Y-83502433D01*
X218788161Y-83505117D01*
X218788164Y-83505119D01*
X218948160Y-83576353D01*
X218948163Y-83576354D01*
X218954196Y-83579040D01*
X219031045Y-83595375D01*
X219131970Y-83616828D01*
X219131975Y-83616828D01*
X219138427Y-83618200D01*
X219326773Y-83618200D01*
X219333225Y-83616828D01*
X219333230Y-83616828D01*
X219418888Y-83598620D01*
X219511004Y-83579040D01*
X219517039Y-83576353D01*
X219677037Y-83505118D01*
X219677039Y-83505117D01*
X219683067Y-83502433D01*
X219835443Y-83391725D01*
X219961472Y-83251756D01*
X220055645Y-83088643D01*
X220098439Y-82956937D01*
X220111807Y-82915794D01*
X220111807Y-82915793D01*
X220113847Y-82909515D01*
X220128600Y-82769152D01*
X220128600Y-81900248D01*
X220113847Y-81759885D01*
X220103802Y-81728968D01*
X220064377Y-81607632D01*
X220055645Y-81580757D01*
X220050845Y-81572442D01*
X219964775Y-81423365D01*
X219961472Y-81417644D01*
X219957053Y-81412736D01*
X219839858Y-81282578D01*
X219839856Y-81282577D01*
X219835443Y-81277675D01*
X219720511Y-81194171D01*
X219688410Y-81170848D01*
X219688408Y-81170847D01*
X219683068Y-81166967D01*
X219677039Y-81164283D01*
X219677036Y-81164281D01*
X219566812Y-81115207D01*
X219512716Y-81069227D01*
X219492066Y-81001300D01*
X219511418Y-80932992D01*
X219564629Y-80885990D01*
X219618060Y-80874100D01*
X225847139Y-80874100D01*
X225915260Y-80894102D01*
X225961753Y-80947758D01*
X225971857Y-81018032D01*
X225942363Y-81082612D01*
X225898388Y-81115207D01*
X225788163Y-81164282D01*
X225788161Y-81164283D01*
X225782133Y-81166967D01*
X225776792Y-81170847D01*
X225776791Y-81170848D01*
X225741574Y-81196435D01*
X225629757Y-81277675D01*
X225625344Y-81282577D01*
X225625342Y-81282578D01*
X225508147Y-81412736D01*
X225503728Y-81417644D01*
X225500425Y-81423365D01*
X225414356Y-81572442D01*
X225409555Y-81580757D01*
X225400823Y-81607632D01*
X225361399Y-81728968D01*
X225351353Y-81759885D01*
X225336600Y-81900248D01*
X225336600Y-82769152D01*
X225351353Y-82909515D01*
X225353393Y-82915793D01*
X225353393Y-82915794D01*
X225366761Y-82956937D01*
X225409555Y-83088643D01*
X225503728Y-83251756D01*
X225629757Y-83391725D01*
X225782132Y-83502433D01*
X225788161Y-83505117D01*
X225788164Y-83505119D01*
X225948160Y-83576353D01*
X225948163Y-83576354D01*
X225954196Y-83579040D01*
X226031045Y-83595375D01*
X226131970Y-83616828D01*
X226131975Y-83616828D01*
X226138427Y-83618200D01*
X226326773Y-83618200D01*
X226333225Y-83616828D01*
X226333230Y-83616828D01*
X226418888Y-83598620D01*
X226511004Y-83579040D01*
X226517039Y-83576353D01*
X226677037Y-83505118D01*
X226677039Y-83505117D01*
X226683067Y-83502433D01*
X226835443Y-83391725D01*
X226961472Y-83251756D01*
X227055645Y-83088643D01*
X227098439Y-82956937D01*
X227111807Y-82915794D01*
X227111807Y-82915793D01*
X227113847Y-82909515D01*
X227128600Y-82769152D01*
X227128600Y-81900248D01*
X227113847Y-81759885D01*
X227103802Y-81728968D01*
X227064377Y-81607632D01*
X227055645Y-81580757D01*
X227050845Y-81572442D01*
X226964775Y-81423365D01*
X226961472Y-81417644D01*
X226957053Y-81412736D01*
X226839858Y-81282578D01*
X226839856Y-81282577D01*
X226835443Y-81277675D01*
X226720511Y-81194171D01*
X226688410Y-81170848D01*
X226688408Y-81170847D01*
X226683068Y-81166967D01*
X226677039Y-81164283D01*
X226677036Y-81164281D01*
X226566812Y-81115207D01*
X226512716Y-81069227D01*
X226492066Y-81001300D01*
X226511418Y-80932992D01*
X226564629Y-80885990D01*
X226618060Y-80874100D01*
X227305152Y-80874100D01*
X227373273Y-80894102D01*
X227419766Y-80947758D01*
X227431152Y-81000206D01*
X227429124Y-83416036D01*
X227426170Y-86933755D01*
X227406112Y-87001857D01*
X227352417Y-87048305D01*
X227282135Y-87058349D01*
X227217579Y-87028802D01*
X227210765Y-87022431D01*
X227203298Y-87014911D01*
X227159408Y-86970714D01*
X227127449Y-86938531D01*
X227127445Y-86938528D01*
X227122485Y-86933533D01*
X226978808Y-86842352D01*
X226886408Y-86809450D01*
X226828944Y-86767756D01*
X226803144Y-86701613D01*
X226803669Y-86674959D01*
X226826578Y-86493623D01*
X226826579Y-86493613D01*
X226827020Y-86490120D01*
X226827418Y-86461600D01*
X226807965Y-86263206D01*
X226792187Y-86210944D01*
X226752129Y-86078267D01*
X226750348Y-86072368D01*
X226694883Y-85968053D01*
X226659655Y-85901798D01*
X226659653Y-85901795D01*
X226656761Y-85896356D01*
X226652871Y-85891586D01*
X226652868Y-85891582D01*
X226534663Y-85746649D01*
X226534660Y-85746646D01*
X226530768Y-85741874D01*
X226377170Y-85614806D01*
X226371753Y-85611877D01*
X226371747Y-85611873D01*
X226347980Y-85599022D01*
X226297572Y-85549026D01*
X226282195Y-85479715D01*
X226296130Y-85430882D01*
X226297877Y-85428312D01*
X226365130Y-85260166D01*
X226366244Y-85253438D01*
X226366245Y-85253434D01*
X226393593Y-85088239D01*
X226393593Y-85088236D01*
X226394708Y-85081502D01*
X226391125Y-85013124D01*
X226385587Y-84907466D01*
X226385230Y-84900653D01*
X226365788Y-84830067D01*
X226338952Y-84732641D01*
X226337139Y-84726059D01*
X226252678Y-84565864D01*
X226248273Y-84560651D01*
X226248270Y-84560647D01*
X226140194Y-84432757D01*
X226140190Y-84432753D01*
X226135787Y-84427543D01*
X226113072Y-84410176D01*
X225997343Y-84321694D01*
X225997339Y-84321691D01*
X225991922Y-84317550D01*
X225886786Y-84268525D01*
X225833969Y-84243895D01*
X225833966Y-84243894D01*
X225827792Y-84241015D01*
X225821144Y-84239529D01*
X225821141Y-84239528D01*
X225656094Y-84202636D01*
X225656095Y-84202636D01*
X225651057Y-84201510D01*
X225645512Y-84201200D01*
X224862356Y-84201200D01*
X224727563Y-84215843D01*
X224644209Y-84243895D01*
X224562396Y-84271428D01*
X224562394Y-84271429D01*
X224555925Y-84273606D01*
X224400695Y-84366877D01*
X224395738Y-84371565D01*
X224395735Y-84371567D01*
X224340929Y-84423395D01*
X224269115Y-84491307D01*
X224265283Y-84496945D01*
X224265280Y-84496949D01*
X224214340Y-84571905D01*
X224167323Y-84641088D01*
X224100070Y-84809234D01*
X224098956Y-84815962D01*
X224098955Y-84815966D01*
X224074140Y-84965861D01*
X224070492Y-84987898D01*
X224070849Y-84994715D01*
X224070849Y-84994719D01*
X224075751Y-85088239D01*
X224079970Y-85168747D01*
X224081781Y-85175320D01*
X224081781Y-85175323D01*
X224105151Y-85260166D01*
X224128061Y-85343341D01*
X224212522Y-85503536D01*
X224216927Y-85508749D01*
X224216930Y-85508753D01*
X224325006Y-85636643D01*
X224325010Y-85636647D01*
X224329413Y-85641857D01*
X224334837Y-85646004D01*
X224334838Y-85646005D01*
X224467857Y-85747706D01*
X224467861Y-85747709D01*
X224473278Y-85751850D01*
X224559972Y-85792276D01*
X224631231Y-85825505D01*
X224631234Y-85825506D01*
X224637408Y-85828385D01*
X224644056Y-85829871D01*
X224644059Y-85829872D01*
X224740282Y-85851380D01*
X224791275Y-85862778D01*
X224853391Y-85897159D01*
X224887059Y-85959664D01*
X224881590Y-86030450D01*
X224874201Y-86046447D01*
X224870147Y-86053820D01*
X224870143Y-86053830D01*
X224867179Y-86059221D01*
X224865318Y-86065088D01*
X224865317Y-86065090D01*
X224851043Y-86110087D01*
X224806902Y-86249235D01*
X224784682Y-86447339D01*
X224801362Y-86645986D01*
X224817103Y-86700879D01*
X224852948Y-86825884D01*
X224856310Y-86837609D01*
X224871499Y-86867164D01*
X224927151Y-86975451D01*
X224947430Y-87014911D01*
X225071253Y-87171137D01*
X225223063Y-87300337D01*
X225228441Y-87303343D01*
X225228443Y-87303344D01*
X225294721Y-87340385D01*
X225397076Y-87397589D01*
X225402935Y-87399493D01*
X225402938Y-87399494D01*
X225448060Y-87414155D01*
X225586665Y-87459191D01*
X225592777Y-87459920D01*
X225592778Y-87459920D01*
X225625581Y-87463831D01*
X225778055Y-87482013D01*
X225843328Y-87509939D01*
X225883141Y-87568722D01*
X225888535Y-87594829D01*
X225897582Y-87687099D01*
X225899806Y-87693784D01*
X225899806Y-87693785D01*
X225902698Y-87702479D01*
X225951295Y-87848567D01*
X225954942Y-87854589D01*
X225954943Y-87854591D01*
X226010492Y-87946313D01*
X226039447Y-87994123D01*
X226044343Y-87999193D01*
X226052357Y-88007492D01*
X226157656Y-88116531D01*
X226300046Y-88209709D01*
X226459542Y-88269025D01*
X226466523Y-88269956D01*
X226466525Y-88269957D01*
X226512626Y-88276108D01*
X226628215Y-88291531D01*
X226635226Y-88290893D01*
X226635230Y-88290893D01*
X226790661Y-88276747D01*
X226797682Y-88276108D01*
X226804384Y-88273930D01*
X226804386Y-88273930D01*
X226952823Y-88225700D01*
X226952826Y-88225699D01*
X226959522Y-88223523D01*
X227044842Y-88172662D01*
X227099634Y-88140000D01*
X227099637Y-88139998D01*
X227105689Y-88136390D01*
X227212277Y-88034887D01*
X227275401Y-88002394D01*
X227346072Y-88009187D01*
X227401852Y-88053110D01*
X227425169Y-88126238D01*
X227424644Y-88751604D01*
X227418746Y-88789596D01*
X227414352Y-88803447D01*
X227414350Y-88803456D01*
X227412487Y-88809329D01*
X227389711Y-89012382D01*
X227390939Y-89027000D01*
X227405614Y-89201757D01*
X227406809Y-89215993D01*
X227408646Y-89222399D01*
X227419307Y-89259581D01*
X227424188Y-89294416D01*
X227423575Y-90024974D01*
X227417677Y-90062967D01*
X227412487Y-90079329D01*
X227389711Y-90282382D01*
X227395120Y-90346790D01*
X227404836Y-90462493D01*
X227406809Y-90485993D01*
X227408508Y-90491918D01*
X227418244Y-90525872D01*
X227423125Y-90560708D01*
X227422505Y-91298348D01*
X227416608Y-91336338D01*
X227412487Y-91349329D01*
X227411801Y-91355446D01*
X227411800Y-91355450D01*
X227404005Y-91424947D01*
X227389711Y-91552382D01*
X227390227Y-91558525D01*
X227404321Y-91726359D01*
X227406809Y-91755993D01*
X227408507Y-91761914D01*
X227408507Y-91761915D01*
X227417181Y-91792164D01*
X227422062Y-91827001D01*
X227421436Y-92571718D01*
X227415539Y-92609707D01*
X227414350Y-92613454D01*
X227414349Y-92613460D01*
X227412487Y-92619329D01*
X227411801Y-92625446D01*
X227411800Y-92625450D01*
X227398153Y-92747118D01*
X227389711Y-92822382D01*
X227390227Y-92828525D01*
X227405917Y-93015368D01*
X227406809Y-93025993D01*
X227416119Y-93058460D01*
X227420999Y-93093290D01*
X227420814Y-93313127D01*
X227420367Y-93845088D01*
X227415356Y-93877372D01*
X227415631Y-93877430D01*
X227414579Y-93882378D01*
X227414471Y-93883074D01*
X227412487Y-93889329D01*
X227411801Y-93895446D01*
X227411800Y-93895450D01*
X227392088Y-94071194D01*
X227389711Y-94092382D01*
X227390227Y-94098525D01*
X227401900Y-94237529D01*
X227406809Y-94295993D01*
X227408509Y-94301921D01*
X227415054Y-94324749D01*
X227419935Y-94359584D01*
X227419298Y-95118456D01*
X227414828Y-95147255D01*
X227415632Y-95147426D01*
X227414351Y-95153453D01*
X227412487Y-95159329D01*
X227389711Y-95362382D01*
X227394472Y-95419081D01*
X227405709Y-95552890D01*
X227406809Y-95565993D01*
X227408509Y-95571921D01*
X227408509Y-95571922D01*
X227413991Y-95591042D01*
X227418872Y-95625877D01*
X227418700Y-95831035D01*
X227418242Y-96377050D01*
X227418229Y-96392068D01*
X227415476Y-96418158D01*
X227414349Y-96423458D01*
X227412487Y-96429329D01*
X227411800Y-96435450D01*
X227411800Y-96435452D01*
X227395790Y-96578190D01*
X227389711Y-96632382D01*
X227393831Y-96681443D01*
X227405336Y-96818446D01*
X227406809Y-96835993D01*
X227408508Y-96841918D01*
X227412928Y-96857333D01*
X227417809Y-96892169D01*
X227417158Y-97667113D01*
X227414405Y-97693201D01*
X227414352Y-97693449D01*
X227412487Y-97699329D01*
X227389711Y-97902382D01*
X227392374Y-97934097D01*
X227405651Y-98092200D01*
X227406809Y-98105993D01*
X227408507Y-98111914D01*
X227411865Y-98123625D01*
X227416746Y-98158460D01*
X227416639Y-98285585D01*
X227416087Y-98942145D01*
X227413583Y-98965874D01*
X227412487Y-98969329D01*
X227389711Y-99172382D01*
X227406809Y-99375993D01*
X227408508Y-99381917D01*
X227408509Y-99381924D01*
X227410801Y-99389918D01*
X227415682Y-99424753D01*
X227411158Y-104813405D01*
X227407058Y-109697236D01*
X227407010Y-109754006D01*
X227386951Y-109822110D01*
X227333256Y-109868558D01*
X227281010Y-109879900D01*
X163345592Y-109879900D01*
X163277471Y-109859898D01*
X163230978Y-109806242D01*
X163220874Y-109735968D01*
X163234053Y-109697455D01*
X163233561Y-109697236D01*
X163236011Y-109691733D01*
X163236034Y-109691666D01*
X163236066Y-109691610D01*
X163239112Y-109686248D01*
X163302035Y-109497094D01*
X163311017Y-109425999D01*
X163326578Y-109302823D01*
X163326579Y-109302813D01*
X163327020Y-109299320D01*
X163327418Y-109270800D01*
X163307965Y-109072406D01*
X163306184Y-109066507D01*
X163306183Y-109066502D01*
X163252129Y-108887467D01*
X163250348Y-108881568D01*
X163194067Y-108775718D01*
X163159655Y-108710998D01*
X163159653Y-108710995D01*
X163156761Y-108705556D01*
X163152871Y-108700786D01*
X163152868Y-108700782D01*
X163114014Y-108653143D01*
X207265376Y-108653143D01*
X207281982Y-108822499D01*
X207335695Y-108983967D01*
X207339342Y-108989989D01*
X207339343Y-108989991D01*
X207384500Y-109064553D01*
X207423847Y-109129523D01*
X207428743Y-109134593D01*
X207447907Y-109154438D01*
X207542056Y-109251931D01*
X207684446Y-109345109D01*
X207843942Y-109404425D01*
X207850923Y-109405356D01*
X207850925Y-109405357D01*
X207897026Y-109411508D01*
X208012615Y-109426931D01*
X208019626Y-109426293D01*
X208019630Y-109426293D01*
X208175061Y-109412147D01*
X208182082Y-109411508D01*
X208188784Y-109409330D01*
X208188786Y-109409330D01*
X208337223Y-109361100D01*
X208337226Y-109361099D01*
X208343922Y-109358923D01*
X208449819Y-109295796D01*
X208484034Y-109275400D01*
X208484037Y-109275398D01*
X208490089Y-109271790D01*
X208613320Y-109154438D01*
X208707490Y-109012702D01*
X208716117Y-108989991D01*
X208765417Y-108860209D01*
X208765418Y-108860206D01*
X208767918Y-108853624D01*
X208791600Y-108685113D01*
X208791898Y-108663800D01*
X208782577Y-108580695D01*
X208773715Y-108501688D01*
X208773714Y-108501685D01*
X208772930Y-108494692D01*
X208716967Y-108333990D01*
X208712831Y-108327370D01*
X208630525Y-108195653D01*
X208626792Y-108189679D01*
X208562924Y-108125364D01*
X208511849Y-108073931D01*
X208511845Y-108073928D01*
X208506885Y-108068933D01*
X208500936Y-108065158D01*
X208500934Y-108065156D01*
X208437580Y-108024950D01*
X208390781Y-107971561D01*
X208380276Y-107901346D01*
X208409400Y-107836598D01*
X208466158Y-107798732D01*
X208512423Y-107783700D01*
X208512426Y-107783699D01*
X208519122Y-107781523D01*
X208611515Y-107726446D01*
X208659234Y-107698000D01*
X208659237Y-107697998D01*
X208665289Y-107694390D01*
X208788520Y-107577038D01*
X208815896Y-107535835D01*
X208878795Y-107441164D01*
X208882690Y-107435302D01*
X208893115Y-107407859D01*
X208940617Y-107282809D01*
X208940618Y-107282806D01*
X208943118Y-107276224D01*
X208966800Y-107107713D01*
X208967098Y-107086400D01*
X208948130Y-106917292D01*
X208892167Y-106756590D01*
X208886182Y-106747011D01*
X208805725Y-106618253D01*
X208801992Y-106612279D01*
X208742038Y-106551906D01*
X208687049Y-106496531D01*
X208687045Y-106496528D01*
X208682085Y-106491533D01*
X208538408Y-106400352D01*
X208378100Y-106343269D01*
X208209129Y-106323121D01*
X208202126Y-106323857D01*
X208202125Y-106323857D01*
X208046901Y-106340171D01*
X208046897Y-106340172D01*
X208039893Y-106340908D01*
X208033222Y-106343179D01*
X207885474Y-106393476D01*
X207885471Y-106393477D01*
X207878804Y-106395747D01*
X207872806Y-106399437D01*
X207872804Y-106399438D01*
X207806336Y-106440330D01*
X207733867Y-106484913D01*
X207728836Y-106489840D01*
X207728833Y-106489842D01*
X207673076Y-106544443D01*
X207612286Y-106603973D01*
X207520105Y-106747011D01*
X207517696Y-106753631D01*
X207517695Y-106753632D01*
X207481940Y-106851867D01*
X207461904Y-106906916D01*
X207440576Y-107075743D01*
X207457182Y-107245099D01*
X207459406Y-107251784D01*
X207459406Y-107251785D01*
X207464304Y-107266508D01*
X207510895Y-107406567D01*
X207514542Y-107412589D01*
X207514543Y-107412591D01*
X207531848Y-107441164D01*
X207599047Y-107552123D01*
X207603943Y-107557193D01*
X207621528Y-107575403D01*
X207717256Y-107674531D01*
X207723152Y-107678389D01*
X207796590Y-107726446D01*
X207842639Y-107780483D01*
X207852162Y-107850838D01*
X207822137Y-107915174D01*
X207768204Y-107951156D01*
X207703604Y-107973147D01*
X207697606Y-107976837D01*
X207697604Y-107976838D01*
X207631469Y-108017525D01*
X207558667Y-108062313D01*
X207553636Y-108067240D01*
X207553633Y-108067242D01*
X207497876Y-108121843D01*
X207437086Y-108181373D01*
X207344905Y-108324411D01*
X207342496Y-108331031D01*
X207342495Y-108331032D01*
X207308655Y-108424006D01*
X207286704Y-108484316D01*
X207265376Y-108653143D01*
X163114014Y-108653143D01*
X163034663Y-108555849D01*
X163034660Y-108555846D01*
X163030768Y-108551074D01*
X162877170Y-108424006D01*
X162701815Y-108329192D01*
X162511385Y-108270244D01*
X162505260Y-108269600D01*
X162505259Y-108269600D01*
X162319260Y-108250051D01*
X162319258Y-108250051D01*
X162313131Y-108249407D01*
X162190252Y-108260590D01*
X162120746Y-108266915D01*
X162120745Y-108266915D01*
X162114605Y-108267474D01*
X162108691Y-108269215D01*
X162108689Y-108269215D01*
X161978539Y-108307521D01*
X161923370Y-108323758D01*
X161746709Y-108416114D01*
X161741909Y-108419974D01*
X161741908Y-108419974D01*
X161736893Y-108424006D01*
X161591351Y-108541025D01*
X161463214Y-108693733D01*
X161367179Y-108868421D01*
X161306902Y-109058435D01*
X161284682Y-109256539D01*
X161301362Y-109455186D01*
X161356310Y-109646809D01*
X161359125Y-109652287D01*
X161359128Y-109652294D01*
X161381747Y-109696306D01*
X161395095Y-109766036D01*
X161368625Y-109831914D01*
X161310740Y-109873022D01*
X161269681Y-109879900D01*
X151459700Y-109879900D01*
X151391579Y-109859898D01*
X151345086Y-109806242D01*
X151333700Y-109753900D01*
X151333700Y-106711333D01*
X152216622Y-106711333D01*
X152216775Y-106715721D01*
X152216775Y-106715727D01*
X152225479Y-106964965D01*
X152226425Y-106992058D01*
X152227187Y-106996381D01*
X152227188Y-106996388D01*
X152250964Y-107131224D01*
X152275202Y-107268687D01*
X152362003Y-107535835D01*
X152363931Y-107539788D01*
X152363933Y-107539793D01*
X152416568Y-107647709D01*
X152485140Y-107788302D01*
X152487595Y-107791941D01*
X152487598Y-107791947D01*
X152492175Y-107798732D01*
X152642215Y-108021176D01*
X152645160Y-108024447D01*
X152645161Y-108024448D01*
X152679255Y-108062313D01*
X152830171Y-108229922D01*
X153045350Y-108410479D01*
X153283564Y-108559331D01*
X153417284Y-108618867D01*
X153510018Y-108660155D01*
X153540175Y-108673582D01*
X153810190Y-108751007D01*
X153814540Y-108751618D01*
X153814543Y-108751619D01*
X153917490Y-108766087D01*
X154088352Y-108790100D01*
X154298946Y-108790100D01*
X154301132Y-108789947D01*
X154301136Y-108789947D01*
X154504627Y-108775718D01*
X154504632Y-108775717D01*
X154509012Y-108775411D01*
X154783770Y-108717009D01*
X154787899Y-108715506D01*
X154787903Y-108715505D01*
X155043581Y-108622446D01*
X155043585Y-108622444D01*
X155047726Y-108620937D01*
X155295742Y-108489064D01*
X155302277Y-108484316D01*
X155519429Y-108326547D01*
X155519432Y-108326544D01*
X155522992Y-108323958D01*
X155528655Y-108318490D01*
X155664513Y-108187293D01*
X155725052Y-108128831D01*
X155889530Y-107918308D01*
X155895281Y-107910947D01*
X155895282Y-107910946D01*
X155897988Y-107907482D01*
X155900184Y-107903678D01*
X155900189Y-107903671D01*
X156014006Y-107706533D01*
X156038436Y-107664219D01*
X156143662Y-107403776D01*
X156164913Y-107318544D01*
X156210553Y-107135493D01*
X156210554Y-107135488D01*
X156211617Y-107131224D01*
X156216712Y-107082755D01*
X156240519Y-106856236D01*
X156240519Y-106856233D01*
X156240978Y-106851867D01*
X156238754Y-106788165D01*
X156231329Y-106575539D01*
X156231328Y-106575533D01*
X156231175Y-106571142D01*
X156216473Y-106487759D01*
X156201069Y-106400399D01*
X177343897Y-106400399D01*
X177344587Y-106406964D01*
X177361843Y-106571142D01*
X177363859Y-106590327D01*
X177422874Y-106771955D01*
X177426177Y-106777677D01*
X177426178Y-106777678D01*
X177432233Y-106788165D01*
X177518361Y-106937343D01*
X177522779Y-106942250D01*
X177522780Y-106942251D01*
X177571525Y-106996388D01*
X177646148Y-107079265D01*
X177800649Y-107191517D01*
X177806677Y-107194201D01*
X177806679Y-107194202D01*
X177969082Y-107266508D01*
X177975113Y-107269193D01*
X178068513Y-107289046D01*
X178155457Y-107307527D01*
X178155462Y-107307527D01*
X178161914Y-107308899D01*
X178352888Y-107308899D01*
X178359340Y-107307527D01*
X178359345Y-107307527D01*
X178446289Y-107289046D01*
X178539689Y-107269193D01*
X178545720Y-107266508D01*
X178708123Y-107194202D01*
X178708125Y-107194201D01*
X178714153Y-107191517D01*
X178868654Y-107079265D01*
X178943277Y-106996388D01*
X178992022Y-106942251D01*
X178992023Y-106942250D01*
X178996441Y-106937343D01*
X179082569Y-106788165D01*
X179086360Y-106781600D01*
X192380496Y-106781600D01*
X192381186Y-106788165D01*
X192394758Y-106917292D01*
X192400458Y-106971528D01*
X192459473Y-107153156D01*
X192554960Y-107318544D01*
X192682747Y-107460466D01*
X192780717Y-107531646D01*
X192808902Y-107552123D01*
X192837248Y-107572718D01*
X192843276Y-107575402D01*
X192843278Y-107575403D01*
X192857862Y-107581896D01*
X193011712Y-107650394D01*
X193094687Y-107668031D01*
X193192056Y-107688728D01*
X193192061Y-107688728D01*
X193198513Y-107690100D01*
X193389487Y-107690100D01*
X193395939Y-107688728D01*
X193395944Y-107688728D01*
X193493313Y-107668031D01*
X193576288Y-107650394D01*
X193730138Y-107581896D01*
X193744722Y-107575403D01*
X193744724Y-107575402D01*
X193750752Y-107572718D01*
X193779099Y-107552123D01*
X193807283Y-107531646D01*
X193905253Y-107460466D01*
X194033040Y-107318544D01*
X194128527Y-107153156D01*
X194187542Y-106971528D01*
X194193243Y-106917292D01*
X194206814Y-106788165D01*
X194207504Y-106781600D01*
X194204875Y-106756590D01*
X194188232Y-106598235D01*
X194188232Y-106598233D01*
X194187542Y-106591672D01*
X194128527Y-106410044D01*
X194122959Y-106400399D01*
X194036341Y-106250374D01*
X194033040Y-106244656D01*
X193905253Y-106102734D01*
X193750752Y-105990482D01*
X193744724Y-105987798D01*
X193744722Y-105987797D01*
X193582319Y-105915491D01*
X193582318Y-105915491D01*
X193576288Y-105912806D01*
X193482888Y-105892953D01*
X193395944Y-105874472D01*
X193395939Y-105874472D01*
X193389487Y-105873100D01*
X193198513Y-105873100D01*
X193192061Y-105874472D01*
X193192056Y-105874472D01*
X193105112Y-105892953D01*
X193011712Y-105912806D01*
X193005682Y-105915491D01*
X193005681Y-105915491D01*
X192843278Y-105987797D01*
X192843276Y-105987798D01*
X192837248Y-105990482D01*
X192682747Y-106102734D01*
X192554960Y-106244656D01*
X192551659Y-106250374D01*
X192465042Y-106400399D01*
X192459473Y-106410044D01*
X192400458Y-106591672D01*
X192399768Y-106598233D01*
X192399768Y-106598235D01*
X192383125Y-106756590D01*
X192380496Y-106781600D01*
X179086360Y-106781600D01*
X179088624Y-106777678D01*
X179088625Y-106777677D01*
X179091928Y-106771955D01*
X179150943Y-106590327D01*
X179152960Y-106571142D01*
X179170215Y-106406964D01*
X179170905Y-106400399D01*
X179165149Y-106345634D01*
X179151633Y-106217034D01*
X179151633Y-106217032D01*
X179150943Y-106210471D01*
X179091928Y-106028843D01*
X178996441Y-105863455D01*
X178920263Y-105778850D01*
X178873076Y-105726444D01*
X178873075Y-105726443D01*
X178868654Y-105721533D01*
X178714153Y-105609281D01*
X178708125Y-105606597D01*
X178708123Y-105606596D01*
X178545720Y-105534290D01*
X178545719Y-105534290D01*
X178539689Y-105531605D01*
X178446288Y-105511752D01*
X178359345Y-105493271D01*
X178359340Y-105493271D01*
X178352888Y-105491899D01*
X178161914Y-105491899D01*
X178155462Y-105493271D01*
X178155457Y-105493271D01*
X178068514Y-105511752D01*
X177975113Y-105531605D01*
X177969083Y-105534290D01*
X177969082Y-105534290D01*
X177806679Y-105606596D01*
X177806677Y-105606597D01*
X177800649Y-105609281D01*
X177646148Y-105721533D01*
X177641727Y-105726443D01*
X177641726Y-105726444D01*
X177594540Y-105778850D01*
X177518361Y-105863455D01*
X177422874Y-106028843D01*
X177363859Y-106210471D01*
X177363169Y-106217032D01*
X177363169Y-106217034D01*
X177349653Y-106345634D01*
X177343897Y-106400399D01*
X156201069Y-106400399D01*
X156183160Y-106298836D01*
X156182398Y-106294513D01*
X156095597Y-106027365D01*
X156076299Y-105987797D01*
X156021026Y-105874472D01*
X155972460Y-105774898D01*
X155970005Y-105771259D01*
X155970002Y-105771253D01*
X155858939Y-105606596D01*
X155815385Y-105542024D01*
X155627429Y-105333278D01*
X155412250Y-105152721D01*
X155174036Y-105003869D01*
X154917425Y-104889618D01*
X154647410Y-104812193D01*
X154643060Y-104811582D01*
X154643057Y-104811581D01*
X154540110Y-104797113D01*
X154369248Y-104773100D01*
X154158654Y-104773100D01*
X154156468Y-104773253D01*
X154156464Y-104773253D01*
X153952973Y-104787482D01*
X153952968Y-104787483D01*
X153948588Y-104787789D01*
X153673830Y-104846191D01*
X153669701Y-104847694D01*
X153669697Y-104847695D01*
X153414019Y-104940754D01*
X153414015Y-104940756D01*
X153409874Y-104942263D01*
X153161858Y-105074136D01*
X153158299Y-105076722D01*
X153158297Y-105076723D01*
X153053695Y-105152721D01*
X152934608Y-105239242D01*
X152732548Y-105434369D01*
X152559612Y-105655718D01*
X152557416Y-105659522D01*
X152557411Y-105659529D01*
X152443594Y-105856668D01*
X152419164Y-105898981D01*
X152313938Y-106159424D01*
X152312873Y-106163697D01*
X152312872Y-106163699D01*
X152253868Y-106400352D01*
X152245983Y-106431976D01*
X152245524Y-106436344D01*
X152245523Y-106436349D01*
X152227033Y-106612279D01*
X152216622Y-106711333D01*
X151333700Y-106711333D01*
X151333700Y-102833943D01*
X209777376Y-102833943D01*
X209793982Y-103003299D01*
X209847695Y-103164767D01*
X209851342Y-103170789D01*
X209851343Y-103170791D01*
X209868648Y-103199364D01*
X209935847Y-103310323D01*
X209940743Y-103315393D01*
X209956562Y-103331774D01*
X210054056Y-103432731D01*
X210196446Y-103525909D01*
X210355942Y-103585225D01*
X210362923Y-103586156D01*
X210362925Y-103586157D01*
X210409026Y-103592308D01*
X210524615Y-103607731D01*
X210531626Y-103607093D01*
X210531630Y-103607093D01*
X210687061Y-103592947D01*
X210694082Y-103592308D01*
X210700784Y-103590130D01*
X210700786Y-103590130D01*
X210849223Y-103541900D01*
X210849226Y-103541899D01*
X210855922Y-103539723D01*
X210927667Y-103496954D01*
X210996034Y-103456200D01*
X210996037Y-103456198D01*
X211002089Y-103452590D01*
X211125320Y-103335238D01*
X211219490Y-103193502D01*
X211228117Y-103170791D01*
X211277417Y-103041009D01*
X211277418Y-103041006D01*
X211279918Y-103034424D01*
X211295886Y-102920800D01*
X213041868Y-102920800D01*
X213060359Y-103132153D01*
X213115270Y-103337084D01*
X213117592Y-103342064D01*
X213117593Y-103342066D01*
X213202607Y-103524379D01*
X213202610Y-103524384D01*
X213204933Y-103529366D01*
X213326623Y-103703157D01*
X213476643Y-103853177D01*
X213481151Y-103856334D01*
X213481154Y-103856336D01*
X213553383Y-103906911D01*
X213650434Y-103974867D01*
X213655416Y-103977190D01*
X213655421Y-103977193D01*
X213837734Y-104062207D01*
X213842716Y-104064530D01*
X213848024Y-104065952D01*
X213848026Y-104065953D01*
X214042332Y-104118017D01*
X214042334Y-104118017D01*
X214047647Y-104119441D01*
X214259000Y-104137932D01*
X214470353Y-104119441D01*
X214475666Y-104118017D01*
X214475668Y-104118017D01*
X214669974Y-104065953D01*
X214669976Y-104065952D01*
X214675284Y-104064530D01*
X214680266Y-104062207D01*
X214862579Y-103977193D01*
X214862584Y-103977190D01*
X214867566Y-103974867D01*
X214964617Y-103906911D01*
X215036846Y-103856336D01*
X215036849Y-103856334D01*
X215041357Y-103853177D01*
X215191377Y-103703157D01*
X215313067Y-103529366D01*
X215315390Y-103524384D01*
X215315393Y-103524379D01*
X215400407Y-103342066D01*
X215400408Y-103342064D01*
X215402730Y-103337084D01*
X215457641Y-103132153D01*
X215476132Y-102920800D01*
X220641868Y-102920800D01*
X220660359Y-103132153D01*
X220715270Y-103337084D01*
X220717592Y-103342064D01*
X220717593Y-103342066D01*
X220802607Y-103524379D01*
X220802610Y-103524384D01*
X220804933Y-103529366D01*
X220926623Y-103703157D01*
X221076643Y-103853177D01*
X221081151Y-103856334D01*
X221081154Y-103856336D01*
X221153383Y-103906911D01*
X221250434Y-103974867D01*
X221255416Y-103977190D01*
X221255421Y-103977193D01*
X221437734Y-104062207D01*
X221442716Y-104064530D01*
X221448024Y-104065952D01*
X221448026Y-104065953D01*
X221642332Y-104118017D01*
X221642334Y-104118017D01*
X221647647Y-104119441D01*
X221859000Y-104137932D01*
X222070353Y-104119441D01*
X222075666Y-104118017D01*
X222075668Y-104118017D01*
X222269974Y-104065953D01*
X222269976Y-104065952D01*
X222275284Y-104064530D01*
X222280266Y-104062207D01*
X222462579Y-103977193D01*
X222462584Y-103977190D01*
X222467566Y-103974867D01*
X222564617Y-103906911D01*
X222636846Y-103856336D01*
X222636849Y-103856334D01*
X222641357Y-103853177D01*
X222791377Y-103703157D01*
X222913067Y-103529366D01*
X222915390Y-103524384D01*
X222915393Y-103524379D01*
X223000407Y-103342066D01*
X223000408Y-103342064D01*
X223002730Y-103337084D01*
X223057641Y-103132153D01*
X223076132Y-102920800D01*
X223057641Y-102709447D01*
X223056217Y-102704132D01*
X223004153Y-102509826D01*
X223004152Y-102509824D01*
X223002730Y-102504516D01*
X222994964Y-102487862D01*
X222915393Y-102317221D01*
X222915390Y-102317216D01*
X222913067Y-102312234D01*
X222821672Y-102181708D01*
X222794536Y-102142954D01*
X222794534Y-102142951D01*
X222791377Y-102138443D01*
X222641357Y-101988423D01*
X222636849Y-101985266D01*
X222636846Y-101985264D01*
X222557201Y-101929496D01*
X222467566Y-101866733D01*
X222462584Y-101864410D01*
X222462579Y-101864407D01*
X222280266Y-101779393D01*
X222280264Y-101779392D01*
X222275284Y-101777070D01*
X222269976Y-101775648D01*
X222269974Y-101775647D01*
X222075668Y-101723583D01*
X222075666Y-101723583D01*
X222070353Y-101722159D01*
X221859000Y-101703668D01*
X221647647Y-101722159D01*
X221642334Y-101723583D01*
X221642332Y-101723583D01*
X221448026Y-101775647D01*
X221448024Y-101775648D01*
X221442716Y-101777070D01*
X221437736Y-101779392D01*
X221437734Y-101779393D01*
X221255421Y-101864407D01*
X221255416Y-101864410D01*
X221250434Y-101866733D01*
X221160799Y-101929496D01*
X221081154Y-101985264D01*
X221081151Y-101985266D01*
X221076643Y-101988423D01*
X220926623Y-102138443D01*
X220923466Y-102142951D01*
X220923464Y-102142954D01*
X220896328Y-102181708D01*
X220804933Y-102312234D01*
X220802610Y-102317216D01*
X220802607Y-102317221D01*
X220723036Y-102487862D01*
X220715270Y-102504516D01*
X220713848Y-102509824D01*
X220713847Y-102509826D01*
X220661783Y-102704132D01*
X220660359Y-102709447D01*
X220641868Y-102920800D01*
X215476132Y-102920800D01*
X215457641Y-102709447D01*
X215456217Y-102704132D01*
X215404153Y-102509826D01*
X215404152Y-102509824D01*
X215402730Y-102504516D01*
X215394964Y-102487862D01*
X215315393Y-102317221D01*
X215315390Y-102317216D01*
X215313067Y-102312234D01*
X215221672Y-102181708D01*
X215194536Y-102142954D01*
X215194534Y-102142951D01*
X215191377Y-102138443D01*
X215041357Y-101988423D01*
X215036849Y-101985266D01*
X215036846Y-101985264D01*
X214957201Y-101929496D01*
X214867566Y-101866733D01*
X214862584Y-101864410D01*
X214862579Y-101864407D01*
X214680266Y-101779393D01*
X214680264Y-101779392D01*
X214675284Y-101777070D01*
X214669976Y-101775648D01*
X214669974Y-101775647D01*
X214475668Y-101723583D01*
X214475666Y-101723583D01*
X214470353Y-101722159D01*
X214259000Y-101703668D01*
X214047647Y-101722159D01*
X214042334Y-101723583D01*
X214042332Y-101723583D01*
X213848026Y-101775647D01*
X213848024Y-101775648D01*
X213842716Y-101777070D01*
X213837736Y-101779392D01*
X213837734Y-101779393D01*
X213655421Y-101864407D01*
X213655416Y-101864410D01*
X213650434Y-101866733D01*
X213560799Y-101929496D01*
X213481154Y-101985264D01*
X213481151Y-101985266D01*
X213476643Y-101988423D01*
X213326623Y-102138443D01*
X213323466Y-102142951D01*
X213323464Y-102142954D01*
X213296328Y-102181708D01*
X213204933Y-102312234D01*
X213202610Y-102317216D01*
X213202607Y-102317221D01*
X213123036Y-102487862D01*
X213115270Y-102504516D01*
X213113848Y-102509824D01*
X213113847Y-102509826D01*
X213061783Y-102704132D01*
X213060359Y-102709447D01*
X213041868Y-102920800D01*
X211295886Y-102920800D01*
X211303600Y-102865913D01*
X211303898Y-102844600D01*
X211288739Y-102709447D01*
X211285715Y-102682488D01*
X211285714Y-102682485D01*
X211284930Y-102675492D01*
X211228967Y-102514790D01*
X211222982Y-102505211D01*
X211142525Y-102376453D01*
X211138792Y-102370479D01*
X211051951Y-102283030D01*
X211023849Y-102254731D01*
X211023845Y-102254728D01*
X211018885Y-102249733D01*
X210875208Y-102158552D01*
X210714900Y-102101469D01*
X210545929Y-102081321D01*
X210538926Y-102082057D01*
X210538925Y-102082057D01*
X210383701Y-102098371D01*
X210383697Y-102098372D01*
X210376693Y-102099108D01*
X210370022Y-102101379D01*
X210222274Y-102151676D01*
X210222271Y-102151677D01*
X210215604Y-102153947D01*
X210209606Y-102157637D01*
X210209604Y-102157638D01*
X210146924Y-102196199D01*
X210070667Y-102243113D01*
X210065636Y-102248040D01*
X210065633Y-102248042D01*
X210027028Y-102285847D01*
X209949086Y-102362173D01*
X209856905Y-102505211D01*
X209854496Y-102511831D01*
X209854495Y-102511832D01*
X209805871Y-102645425D01*
X209798704Y-102665116D01*
X209777376Y-102833943D01*
X151333700Y-102833943D01*
X151333700Y-101065343D01*
X160736776Y-101065343D01*
X160753382Y-101234699D01*
X160755606Y-101241384D01*
X160755606Y-101241385D01*
X160763846Y-101266155D01*
X160807095Y-101396167D01*
X160810742Y-101402189D01*
X160810743Y-101402191D01*
X160860106Y-101483699D01*
X160895247Y-101541723D01*
X160900143Y-101546793D01*
X160915527Y-101562723D01*
X161013456Y-101664131D01*
X161155846Y-101757309D01*
X161315342Y-101816625D01*
X161322323Y-101817556D01*
X161322325Y-101817557D01*
X161368426Y-101823708D01*
X161484015Y-101839131D01*
X161491026Y-101838493D01*
X161491030Y-101838493D01*
X161646461Y-101824347D01*
X161653482Y-101823708D01*
X161660184Y-101821530D01*
X161660186Y-101821530D01*
X161808623Y-101773300D01*
X161808626Y-101773299D01*
X161815322Y-101771123D01*
X161897460Y-101722159D01*
X161955434Y-101687600D01*
X161955437Y-101687598D01*
X161961489Y-101683990D01*
X162084720Y-101566638D01*
X162092542Y-101554866D01*
X162155536Y-101460052D01*
X162178890Y-101424902D01*
X162187517Y-101402191D01*
X162236817Y-101272409D01*
X162236818Y-101272406D01*
X162239318Y-101265824D01*
X162263000Y-101097313D01*
X162263121Y-101088690D01*
X162263243Y-101079961D01*
X162263243Y-101079955D01*
X162263298Y-101076000D01*
X162249342Y-100951573D01*
X162245115Y-100913888D01*
X162245114Y-100913885D01*
X162244330Y-100906892D01*
X162188367Y-100746190D01*
X162182382Y-100736611D01*
X162101925Y-100607853D01*
X162098192Y-100601879D01*
X161997014Y-100499993D01*
X161983249Y-100486131D01*
X161983245Y-100486128D01*
X161978285Y-100481133D01*
X161834608Y-100389952D01*
X161674300Y-100332869D01*
X161505329Y-100312721D01*
X161498326Y-100313457D01*
X161498325Y-100313457D01*
X161343101Y-100329771D01*
X161343097Y-100329772D01*
X161336093Y-100330508D01*
X161329422Y-100332779D01*
X161181674Y-100383076D01*
X161181671Y-100383077D01*
X161175004Y-100385347D01*
X161169006Y-100389037D01*
X161169004Y-100389038D01*
X161161379Y-100393729D01*
X161030067Y-100474513D01*
X161025036Y-100479440D01*
X161025033Y-100479442D01*
X161004047Y-100499993D01*
X160908486Y-100593573D01*
X160816305Y-100736611D01*
X160813896Y-100743231D01*
X160813895Y-100743232D01*
X160774506Y-100851452D01*
X160758104Y-100896516D01*
X160736776Y-101065343D01*
X151333700Y-101065343D01*
X151333700Y-99726843D01*
X163199276Y-99726843D01*
X163215882Y-99896199D01*
X163269595Y-100057667D01*
X163273242Y-100063689D01*
X163273243Y-100063691D01*
X163290548Y-100092264D01*
X163357747Y-100203223D01*
X163362643Y-100208293D01*
X163381807Y-100228138D01*
X163475956Y-100325631D01*
X163618346Y-100418809D01*
X163777842Y-100478125D01*
X163784823Y-100479056D01*
X163784825Y-100479057D01*
X163830926Y-100485208D01*
X163946515Y-100500631D01*
X163953526Y-100499993D01*
X163953530Y-100499993D01*
X164108961Y-100485847D01*
X164115982Y-100485208D01*
X164122684Y-100483030D01*
X164122686Y-100483030D01*
X164271123Y-100434800D01*
X164271126Y-100434799D01*
X164277822Y-100432623D01*
X164360938Y-100383076D01*
X164417934Y-100349100D01*
X164417937Y-100349098D01*
X164423989Y-100345490D01*
X164547220Y-100228138D01*
X164590440Y-100163088D01*
X164637495Y-100092264D01*
X164641390Y-100086402D01*
X164650017Y-100063691D01*
X164699317Y-99933909D01*
X164699318Y-99933906D01*
X164701818Y-99927324D01*
X164725500Y-99758813D01*
X164725798Y-99737500D01*
X164706830Y-99568392D01*
X164650867Y-99407690D01*
X164644882Y-99398111D01*
X164564425Y-99269353D01*
X164560692Y-99263379D01*
X164476428Y-99178525D01*
X164445749Y-99147631D01*
X164445745Y-99147628D01*
X164440785Y-99142633D01*
X164297108Y-99051452D01*
X164136800Y-98994369D01*
X163967829Y-98974221D01*
X163960826Y-98974957D01*
X163960825Y-98974957D01*
X163805601Y-98991271D01*
X163805597Y-98991272D01*
X163798593Y-98992008D01*
X163791922Y-98994279D01*
X163644174Y-99044576D01*
X163644171Y-99044577D01*
X163637504Y-99046847D01*
X163631506Y-99050537D01*
X163631504Y-99050538D01*
X163593104Y-99074162D01*
X163492567Y-99136013D01*
X163487536Y-99140940D01*
X163487533Y-99140942D01*
X163455428Y-99172382D01*
X163370986Y-99255073D01*
X163278805Y-99398111D01*
X163276396Y-99404731D01*
X163276395Y-99404732D01*
X163226437Y-99541989D01*
X163220604Y-99558016D01*
X163199276Y-99726843D01*
X151333700Y-99726843D01*
X151333700Y-97964343D01*
X166536776Y-97964343D01*
X166553382Y-98133699D01*
X166555606Y-98140384D01*
X166555606Y-98140385D01*
X166566313Y-98172570D01*
X166607095Y-98295167D01*
X166610742Y-98301189D01*
X166610743Y-98301191D01*
X166641126Y-98351359D01*
X166695247Y-98440723D01*
X166700143Y-98445793D01*
X166723999Y-98470496D01*
X166813456Y-98563131D01*
X166955846Y-98656309D01*
X167115342Y-98715625D01*
X167122323Y-98716556D01*
X167122325Y-98716557D01*
X167168426Y-98722708D01*
X167284015Y-98738131D01*
X167291026Y-98737493D01*
X167291030Y-98737493D01*
X167446461Y-98723347D01*
X167453482Y-98722708D01*
X167460184Y-98720530D01*
X167460186Y-98720530D01*
X167608623Y-98672300D01*
X167608626Y-98672299D01*
X167615322Y-98670123D01*
X167687922Y-98626845D01*
X167755434Y-98586600D01*
X167755437Y-98586598D01*
X167761489Y-98582990D01*
X167884720Y-98465638D01*
X167905951Y-98433684D01*
X167962538Y-98348513D01*
X167978890Y-98323902D01*
X167987517Y-98301191D01*
X168036817Y-98171409D01*
X168036818Y-98171406D01*
X168039318Y-98164824D01*
X168054883Y-98054070D01*
X168084171Y-97989396D01*
X168125638Y-97958333D01*
X168127822Y-97957623D01*
X168167287Y-97934097D01*
X168267934Y-97874100D01*
X168267937Y-97874098D01*
X168273989Y-97870490D01*
X168397220Y-97753138D01*
X168413147Y-97729167D01*
X168487495Y-97617264D01*
X168491390Y-97611402D01*
X168498817Y-97591850D01*
X168549317Y-97458909D01*
X168549318Y-97458906D01*
X168551818Y-97452324D01*
X168575500Y-97283813D01*
X168575661Y-97272288D01*
X168575743Y-97266461D01*
X168575743Y-97266455D01*
X168575798Y-97262500D01*
X168564075Y-97157981D01*
X168557615Y-97100388D01*
X168557614Y-97100385D01*
X168556830Y-97093392D01*
X168500867Y-96932690D01*
X168496291Y-96925366D01*
X168414425Y-96794353D01*
X168410692Y-96788379D01*
X168341147Y-96718347D01*
X168295749Y-96672631D01*
X168295745Y-96672628D01*
X168290785Y-96667633D01*
X168147108Y-96576452D01*
X167986800Y-96519369D01*
X167817829Y-96499221D01*
X167810826Y-96499957D01*
X167810825Y-96499957D01*
X167655601Y-96516271D01*
X167655597Y-96516272D01*
X167648593Y-96517008D01*
X167641922Y-96519279D01*
X167494174Y-96569576D01*
X167494171Y-96569577D01*
X167487504Y-96571847D01*
X167481506Y-96575537D01*
X167481504Y-96575538D01*
X167473879Y-96580229D01*
X167342567Y-96661013D01*
X167337536Y-96665940D01*
X167337533Y-96665942D01*
X167312522Y-96690435D01*
X167220986Y-96780073D01*
X167128805Y-96923111D01*
X167126396Y-96929731D01*
X167126395Y-96929732D01*
X167075483Y-97069611D01*
X167070604Y-97083016D01*
X167061124Y-97158062D01*
X167058170Y-97181442D01*
X167029788Y-97246519D01*
X166986811Y-97279659D01*
X166981673Y-97282077D01*
X166975004Y-97284347D01*
X166969006Y-97288037D01*
X166969004Y-97288038D01*
X166924162Y-97315625D01*
X166830067Y-97373513D01*
X166825036Y-97378440D01*
X166825033Y-97378442D01*
X166772064Y-97430313D01*
X166708486Y-97492573D01*
X166616305Y-97635611D01*
X166613896Y-97642231D01*
X166613895Y-97642232D01*
X166562145Y-97784414D01*
X166558104Y-97795516D01*
X166536776Y-97964343D01*
X151333700Y-97964343D01*
X151333700Y-93875800D01*
X155281006Y-93875800D01*
X155301342Y-94108244D01*
X155302766Y-94113557D01*
X155302766Y-94113559D01*
X155358951Y-94323242D01*
X155361733Y-94333626D01*
X155364055Y-94338606D01*
X155364056Y-94338608D01*
X155458018Y-94540110D01*
X155458021Y-94540115D01*
X155460344Y-94545097D01*
X155463500Y-94549604D01*
X155463501Y-94549606D01*
X155589470Y-94729508D01*
X155594178Y-94736232D01*
X155759168Y-94901222D01*
X155763676Y-94904379D01*
X155763679Y-94904381D01*
X155938748Y-95026965D01*
X155950303Y-95035056D01*
X155955285Y-95037379D01*
X155955290Y-95037382D01*
X156124335Y-95116209D01*
X156161774Y-95133667D01*
X156167082Y-95135089D01*
X156167084Y-95135090D01*
X156193582Y-95142190D01*
X156295596Y-95169524D01*
X156356218Y-95206476D01*
X156387239Y-95270336D01*
X156378811Y-95340831D01*
X156341936Y-95389428D01*
X156210351Y-95495225D01*
X156082214Y-95647933D01*
X155986179Y-95822621D01*
X155984318Y-95828488D01*
X155984317Y-95828490D01*
X155967803Y-95880549D01*
X155925902Y-96012635D01*
X155903682Y-96210739D01*
X155920362Y-96409386D01*
X155942426Y-96486331D01*
X155968767Y-96578190D01*
X155975310Y-96601009D01*
X155994745Y-96638825D01*
X156059499Y-96764824D01*
X156066430Y-96778311D01*
X156190253Y-96934537D01*
X156342063Y-97063737D01*
X156347441Y-97066743D01*
X156347443Y-97066744D01*
X156427069Y-97111245D01*
X156516076Y-97160989D01*
X156521935Y-97162893D01*
X156521938Y-97162894D01*
X156571347Y-97178948D01*
X156705665Y-97222591D01*
X156711775Y-97223320D01*
X156711777Y-97223320D01*
X156779314Y-97231373D01*
X156903609Y-97246194D01*
X156909744Y-97245722D01*
X156909746Y-97245722D01*
X157096226Y-97231373D01*
X157096231Y-97231372D01*
X157102367Y-97230900D01*
X157108297Y-97229244D01*
X157108299Y-97229244D01*
X157261043Y-97186597D01*
X157294370Y-97177292D01*
X157314767Y-97166989D01*
X157466802Y-97090191D01*
X157466804Y-97090190D01*
X157472303Y-97087412D01*
X157629390Y-96964682D01*
X157649959Y-96940853D01*
X157755618Y-96818446D01*
X157755619Y-96818444D01*
X157759647Y-96813778D01*
X157858112Y-96640448D01*
X157921035Y-96451294D01*
X157927198Y-96402506D01*
X157945578Y-96257023D01*
X157945579Y-96257013D01*
X157946020Y-96253520D01*
X157946418Y-96225000D01*
X157926965Y-96026606D01*
X157925184Y-96020707D01*
X157925183Y-96020702D01*
X157871129Y-95841667D01*
X157869348Y-95835768D01*
X157803078Y-95711131D01*
X157778655Y-95665198D01*
X157778653Y-95665195D01*
X157775761Y-95659756D01*
X157771871Y-95654986D01*
X157771868Y-95654982D01*
X157653663Y-95510049D01*
X157653660Y-95510046D01*
X157649768Y-95505274D01*
X157643663Y-95500223D01*
X157600291Y-95464343D01*
X163186776Y-95464343D01*
X163203382Y-95633699D01*
X163205606Y-95640384D01*
X163205606Y-95640385D01*
X163213736Y-95664824D01*
X163257095Y-95795167D01*
X163260742Y-95801189D01*
X163260743Y-95801191D01*
X163280664Y-95834084D01*
X163345247Y-95940723D01*
X163350143Y-95945793D01*
X163369307Y-95965638D01*
X163463456Y-96063131D01*
X163605846Y-96156309D01*
X163765342Y-96215625D01*
X163772323Y-96216556D01*
X163772325Y-96216557D01*
X163809470Y-96221513D01*
X163934015Y-96238131D01*
X163941026Y-96237493D01*
X163941030Y-96237493D01*
X164096461Y-96223347D01*
X164103482Y-96222708D01*
X164110184Y-96220530D01*
X164110186Y-96220530D01*
X164258623Y-96172300D01*
X164258626Y-96172299D01*
X164265322Y-96170123D01*
X164337067Y-96127354D01*
X164405434Y-96086600D01*
X164405437Y-96086598D01*
X164411489Y-96082990D01*
X164534720Y-95965638D01*
X164549006Y-95944137D01*
X164583161Y-95892729D01*
X164586607Y-95887543D01*
X169213576Y-95887543D01*
X169230182Y-96056899D01*
X169232406Y-96063584D01*
X169232406Y-96063585D01*
X169244018Y-96098493D01*
X169283895Y-96218367D01*
X169287542Y-96224389D01*
X169287543Y-96224391D01*
X169301867Y-96248042D01*
X169372047Y-96363923D01*
X169376943Y-96368993D01*
X169402556Y-96395516D01*
X169490256Y-96486331D01*
X169632646Y-96579509D01*
X169792142Y-96638825D01*
X169833530Y-96644347D01*
X169842686Y-96645569D01*
X169907562Y-96674405D01*
X169915116Y-96681367D01*
X172847695Y-99613946D01*
X172881721Y-99676258D01*
X172884600Y-99703041D01*
X172884600Y-101394422D01*
X172864512Y-101462677D01*
X172798305Y-101565411D01*
X172795896Y-101572031D01*
X172795895Y-101572032D01*
X172753253Y-101689190D01*
X172740104Y-101725316D01*
X172718776Y-101894143D01*
X172735382Y-102063499D01*
X172737606Y-102070184D01*
X172737606Y-102070185D01*
X172741555Y-102082057D01*
X172789095Y-102224967D01*
X172792742Y-102230989D01*
X172792743Y-102230991D01*
X172807121Y-102254731D01*
X172877247Y-102370523D01*
X172882143Y-102375593D01*
X172901307Y-102395438D01*
X172995456Y-102492931D01*
X173137846Y-102586109D01*
X173297342Y-102645425D01*
X173304323Y-102646356D01*
X173304325Y-102646357D01*
X173350426Y-102652508D01*
X173466015Y-102667931D01*
X173473026Y-102667293D01*
X173473030Y-102667293D01*
X173628461Y-102653147D01*
X173635482Y-102652508D01*
X173642184Y-102650330D01*
X173642186Y-102650330D01*
X173790623Y-102602100D01*
X173790626Y-102602099D01*
X173797322Y-102599923D01*
X173869067Y-102557154D01*
X173937434Y-102516400D01*
X173937437Y-102516398D01*
X173943489Y-102512790D01*
X174066720Y-102395438D01*
X174088822Y-102362173D01*
X174156995Y-102259564D01*
X174160890Y-102253702D01*
X174163831Y-102245959D01*
X174218817Y-102101209D01*
X174218818Y-102101206D01*
X174221318Y-102094624D01*
X174245000Y-101926113D01*
X174245298Y-101904800D01*
X174235297Y-101815638D01*
X174227115Y-101742688D01*
X174227114Y-101742685D01*
X174226330Y-101735692D01*
X174170367Y-101574990D01*
X174098546Y-101460051D01*
X174079400Y-101393282D01*
X174079400Y-101314343D01*
X176361776Y-101314343D01*
X176378382Y-101483699D01*
X176432095Y-101645167D01*
X176435742Y-101651189D01*
X176435743Y-101651191D01*
X176484868Y-101732306D01*
X176520247Y-101790723D01*
X176525143Y-101795793D01*
X176552718Y-101824347D01*
X176638456Y-101913131D01*
X176780846Y-102006309D01*
X176940342Y-102065625D01*
X176947323Y-102066556D01*
X176947325Y-102066557D01*
X176993426Y-102072708D01*
X177109015Y-102088131D01*
X177116026Y-102087493D01*
X177116030Y-102087493D01*
X177271461Y-102073347D01*
X177278482Y-102072708D01*
X177285184Y-102070530D01*
X177285186Y-102070530D01*
X177433623Y-102022300D01*
X177433626Y-102022299D01*
X177440322Y-102020123D01*
X177538972Y-101961316D01*
X177580434Y-101936600D01*
X177580437Y-101936598D01*
X177586489Y-101932990D01*
X177709720Y-101815638D01*
X177735843Y-101776321D01*
X177784113Y-101703668D01*
X177803890Y-101673902D01*
X177812517Y-101651191D01*
X177859753Y-101526843D01*
X194149276Y-101526843D01*
X194165882Y-101696199D01*
X194168106Y-101702884D01*
X194168106Y-101702885D01*
X194180650Y-101740593D01*
X194219595Y-101857667D01*
X194223242Y-101863689D01*
X194223243Y-101863691D01*
X194248140Y-101904800D01*
X194307747Y-102003223D01*
X194312643Y-102008293D01*
X194326170Y-102022300D01*
X194425956Y-102125631D01*
X194568346Y-102218809D01*
X194727842Y-102278125D01*
X194734823Y-102279056D01*
X194734825Y-102279057D01*
X194780926Y-102285208D01*
X194896515Y-102300631D01*
X194903526Y-102299993D01*
X194903530Y-102299993D01*
X195058961Y-102285847D01*
X195065982Y-102285208D01*
X195072684Y-102283030D01*
X195072686Y-102283030D01*
X195221123Y-102234800D01*
X195221126Y-102234799D01*
X195227822Y-102232623D01*
X195313233Y-102181708D01*
X195367934Y-102149100D01*
X195367937Y-102149098D01*
X195373989Y-102145490D01*
X195497220Y-102028138D01*
X195508370Y-102011357D01*
X195567628Y-101922166D01*
X195591390Y-101886402D01*
X195593890Y-101879821D01*
X195649317Y-101733909D01*
X195649318Y-101733906D01*
X195651818Y-101727324D01*
X195675500Y-101558813D01*
X195675798Y-101537500D01*
X195663826Y-101430764D01*
X195662994Y-101423343D01*
X206560576Y-101423343D01*
X206577182Y-101592699D01*
X206630895Y-101754167D01*
X206634542Y-101760189D01*
X206634543Y-101760191D01*
X206681787Y-101838199D01*
X206719047Y-101899723D01*
X206723943Y-101904793D01*
X206740720Y-101922166D01*
X206837256Y-102022131D01*
X206979646Y-102115309D01*
X207139142Y-102174625D01*
X207146123Y-102175556D01*
X207146125Y-102175557D01*
X207192226Y-102181708D01*
X207307815Y-102197131D01*
X207314826Y-102196493D01*
X207314830Y-102196493D01*
X207470261Y-102182347D01*
X207477282Y-102181708D01*
X207483984Y-102179530D01*
X207483986Y-102179530D01*
X207632423Y-102131300D01*
X207632426Y-102131299D01*
X207639122Y-102129123D01*
X207737413Y-102070530D01*
X207779234Y-102045600D01*
X207779237Y-102045598D01*
X207785289Y-102041990D01*
X207908520Y-101924638D01*
X207916166Y-101913131D01*
X207994125Y-101795793D01*
X208002690Y-101782902D01*
X208005446Y-101775647D01*
X208060617Y-101630409D01*
X208060618Y-101630406D01*
X208063118Y-101623824D01*
X208086800Y-101455313D01*
X208087098Y-101434000D01*
X208071071Y-101291113D01*
X208068915Y-101271888D01*
X208068914Y-101271885D01*
X208068130Y-101264892D01*
X208012167Y-101104190D01*
X208007866Y-101097306D01*
X207925725Y-100965853D01*
X207921992Y-100959879D01*
X207819682Y-100856853D01*
X207807049Y-100844131D01*
X207807045Y-100844128D01*
X207802085Y-100839133D01*
X207658408Y-100747952D01*
X207498100Y-100690869D01*
X207329129Y-100670721D01*
X207322126Y-100671457D01*
X207322125Y-100671457D01*
X207166901Y-100687771D01*
X207166897Y-100687772D01*
X207159893Y-100688508D01*
X207153222Y-100690779D01*
X207005474Y-100741076D01*
X207005471Y-100741077D01*
X206998804Y-100743347D01*
X206992806Y-100747037D01*
X206992804Y-100747038D01*
X206948619Y-100774221D01*
X206853867Y-100832513D01*
X206848836Y-100837440D01*
X206848833Y-100837442D01*
X206795268Y-100889897D01*
X206732286Y-100951573D01*
X206640105Y-101094611D01*
X206637696Y-101101231D01*
X206637695Y-101101232D01*
X206635345Y-101107688D01*
X206581904Y-101254516D01*
X206560576Y-101423343D01*
X195662994Y-101423343D01*
X195657615Y-101375388D01*
X195657614Y-101375385D01*
X195656830Y-101368392D01*
X195600867Y-101207690D01*
X195594882Y-101198111D01*
X195514425Y-101069353D01*
X195510692Y-101063379D01*
X195442977Y-100995190D01*
X195395749Y-100947631D01*
X195395745Y-100947628D01*
X195390785Y-100942633D01*
X195247108Y-100851452D01*
X195086800Y-100794369D01*
X194917829Y-100774221D01*
X194910826Y-100774957D01*
X194910825Y-100774957D01*
X194755601Y-100791271D01*
X194755597Y-100791272D01*
X194748593Y-100792008D01*
X194741922Y-100794279D01*
X194594174Y-100844576D01*
X194594171Y-100844577D01*
X194587504Y-100846847D01*
X194581506Y-100850537D01*
X194581504Y-100850538D01*
X194517527Y-100889897D01*
X194442567Y-100936013D01*
X194437536Y-100940940D01*
X194437533Y-100940942D01*
X194385158Y-100992232D01*
X194320986Y-101055073D01*
X194228805Y-101198111D01*
X194226396Y-101204731D01*
X194226395Y-101204732D01*
X194173440Y-101350223D01*
X194170604Y-101358016D01*
X194149276Y-101526843D01*
X177859753Y-101526843D01*
X177861817Y-101521409D01*
X177861818Y-101521406D01*
X177864318Y-101514824D01*
X177888000Y-101346313D01*
X177888298Y-101325000D01*
X177874470Y-101201714D01*
X177870115Y-101162888D01*
X177870114Y-101162885D01*
X177869330Y-101155892D01*
X177813367Y-100995190D01*
X177807382Y-100985611D01*
X177726925Y-100856853D01*
X177723192Y-100850879D01*
X177647067Y-100774221D01*
X177608249Y-100735131D01*
X177608245Y-100735128D01*
X177603285Y-100730133D01*
X177459608Y-100638952D01*
X177299300Y-100581869D01*
X177130329Y-100561721D01*
X177123326Y-100562457D01*
X177123325Y-100562457D01*
X176968101Y-100578771D01*
X176968097Y-100578772D01*
X176961093Y-100579508D01*
X176954422Y-100581779D01*
X176806674Y-100632076D01*
X176806671Y-100632077D01*
X176800004Y-100634347D01*
X176794006Y-100638037D01*
X176794004Y-100638038D01*
X176786379Y-100642729D01*
X176655067Y-100723513D01*
X176650036Y-100728440D01*
X176650033Y-100728442D01*
X176603285Y-100774221D01*
X176533486Y-100842573D01*
X176441305Y-100985611D01*
X176438896Y-100992231D01*
X176438895Y-100992232D01*
X176396872Y-101107688D01*
X176383104Y-101145516D01*
X176361776Y-101314343D01*
X174079400Y-101314343D01*
X174079400Y-99450814D01*
X174080478Y-99434367D01*
X174083477Y-99411588D01*
X174084555Y-99403400D01*
X174064023Y-99247447D01*
X174003828Y-99102123D01*
X173992118Y-99086862D01*
X173966517Y-99020646D01*
X173980780Y-98951097D01*
X174030380Y-98900299D01*
X174053144Y-98890326D01*
X174108622Y-98872300D01*
X174115322Y-98870123D01*
X174187067Y-98827354D01*
X174255434Y-98786600D01*
X174255437Y-98786598D01*
X174261489Y-98782990D01*
X174384720Y-98665638D01*
X174389287Y-98658765D01*
X174474995Y-98529764D01*
X174478890Y-98523902D01*
X174499707Y-98469102D01*
X174536817Y-98371409D01*
X174536818Y-98371406D01*
X174539318Y-98364824D01*
X174563000Y-98196313D01*
X174563298Y-98175000D01*
X174555956Y-98109543D01*
X180216576Y-98109543D01*
X180233182Y-98278899D01*
X180235406Y-98285584D01*
X180235406Y-98285585D01*
X180241001Y-98302405D01*
X180286895Y-98440367D01*
X180290542Y-98446389D01*
X180290543Y-98446391D01*
X180370326Y-98578127D01*
X180375047Y-98585923D01*
X180379936Y-98590986D01*
X180379937Y-98590987D01*
X180428417Y-98641189D01*
X180461349Y-98704085D01*
X180456181Y-98771810D01*
X180419606Y-98872300D01*
X180412903Y-98890717D01*
X180391575Y-99059544D01*
X180408181Y-99228900D01*
X180410405Y-99235585D01*
X180410405Y-99235586D01*
X180429278Y-99292321D01*
X180461894Y-99390368D01*
X180465541Y-99396390D01*
X180465542Y-99396392D01*
X180495281Y-99445496D01*
X180550046Y-99535924D01*
X180554942Y-99540994D01*
X180571355Y-99557990D01*
X180668255Y-99658332D01*
X180810645Y-99751510D01*
X180970141Y-99810826D01*
X180977122Y-99811757D01*
X180977124Y-99811758D01*
X181023225Y-99817909D01*
X181138814Y-99833332D01*
X181145825Y-99832694D01*
X181145829Y-99832694D01*
X181301260Y-99818548D01*
X181308281Y-99817909D01*
X181314983Y-99815731D01*
X181314985Y-99815731D01*
X181463422Y-99767501D01*
X181463425Y-99767500D01*
X181470121Y-99765324D01*
X181587202Y-99695530D01*
X181610233Y-99681801D01*
X181610236Y-99681799D01*
X181616288Y-99678191D01*
X181739519Y-99560839D01*
X181745793Y-99551397D01*
X181823278Y-99434773D01*
X181833689Y-99419103D01*
X181836544Y-99411588D01*
X181891616Y-99266610D01*
X181891617Y-99266607D01*
X181894117Y-99260025D01*
X181917799Y-99091514D01*
X181918097Y-99070201D01*
X181903420Y-98939343D01*
X186886776Y-98939343D01*
X186903382Y-99108699D01*
X186957095Y-99270167D01*
X186960742Y-99276189D01*
X186960743Y-99276191D01*
X186978048Y-99304764D01*
X187045247Y-99415723D01*
X187050143Y-99420793D01*
X187069307Y-99440638D01*
X187163456Y-99538131D01*
X187305846Y-99631309D01*
X187465342Y-99690625D01*
X187472323Y-99691556D01*
X187472325Y-99691557D01*
X187518426Y-99697708D01*
X187634015Y-99713131D01*
X187641026Y-99712493D01*
X187641030Y-99712493D01*
X187796461Y-99698347D01*
X187803482Y-99697708D01*
X187810184Y-99695530D01*
X187810186Y-99695530D01*
X187958623Y-99647300D01*
X187958626Y-99647299D01*
X187965322Y-99645123D01*
X188087308Y-99572405D01*
X188105434Y-99561600D01*
X188105437Y-99561598D01*
X188111489Y-99557990D01*
X188234720Y-99440638D01*
X188238887Y-99434367D01*
X188324995Y-99304764D01*
X188328890Y-99298902D01*
X188337517Y-99276191D01*
X188386817Y-99146409D01*
X188386818Y-99146406D01*
X188389318Y-99139824D01*
X188413000Y-98971313D01*
X188413298Y-98950000D01*
X188394330Y-98780892D01*
X188338367Y-98620190D01*
X188332382Y-98610611D01*
X188251925Y-98481853D01*
X188248192Y-98475879D01*
X188137909Y-98364824D01*
X188133249Y-98360131D01*
X188133245Y-98360128D01*
X188128285Y-98355133D01*
X187984608Y-98263952D01*
X187824300Y-98206869D01*
X187655329Y-98186721D01*
X187648326Y-98187457D01*
X187648325Y-98187457D01*
X187493101Y-98203771D01*
X187493097Y-98203772D01*
X187486093Y-98204508D01*
X187479422Y-98206779D01*
X187331674Y-98257076D01*
X187331671Y-98257077D01*
X187325004Y-98259347D01*
X187319006Y-98263037D01*
X187319004Y-98263038D01*
X187256988Y-98301191D01*
X187180067Y-98348513D01*
X187175036Y-98353440D01*
X187175033Y-98353442D01*
X187156686Y-98371409D01*
X187058486Y-98467573D01*
X186966305Y-98610611D01*
X186963896Y-98617231D01*
X186963895Y-98617232D01*
X186925505Y-98722708D01*
X186908104Y-98770516D01*
X186886776Y-98939343D01*
X181903420Y-98939343D01*
X181902558Y-98931661D01*
X181899914Y-98908089D01*
X181899913Y-98908086D01*
X181899129Y-98901093D01*
X181843166Y-98740391D01*
X181837181Y-98730812D01*
X181756724Y-98602054D01*
X181752991Y-98596080D01*
X181748023Y-98591077D01*
X181707111Y-98549878D01*
X181673303Y-98487448D01*
X181678728Y-98416352D01*
X181719118Y-98310024D01*
X181742800Y-98141513D01*
X181742968Y-98129523D01*
X181743043Y-98124161D01*
X181743043Y-98124155D01*
X181743098Y-98120200D01*
X181731926Y-98020600D01*
X181724915Y-97958088D01*
X181724914Y-97958085D01*
X181724130Y-97951092D01*
X181668167Y-97790390D01*
X181662182Y-97780811D01*
X181581725Y-97652053D01*
X181577992Y-97646079D01*
X181517783Y-97585449D01*
X181463049Y-97530331D01*
X181463045Y-97530328D01*
X181458085Y-97525333D01*
X181314408Y-97434152D01*
X181213844Y-97398343D01*
X214933576Y-97398343D01*
X214950182Y-97567699D01*
X215003895Y-97729167D01*
X215007542Y-97735189D01*
X215007543Y-97735191D01*
X215040973Y-97790390D01*
X215092047Y-97874723D01*
X215096943Y-97879793D01*
X215112842Y-97896257D01*
X215210256Y-97997131D01*
X215352646Y-98090309D01*
X215512142Y-98149625D01*
X215519123Y-98150556D01*
X215519125Y-98150557D01*
X215565226Y-98156708D01*
X215680815Y-98172131D01*
X215687826Y-98171493D01*
X215687830Y-98171493D01*
X215843261Y-98157347D01*
X215850282Y-98156708D01*
X215856984Y-98154530D01*
X215856986Y-98154530D01*
X216005423Y-98106300D01*
X216005426Y-98106299D01*
X216012122Y-98104123D01*
X216096087Y-98054070D01*
X216152234Y-98020600D01*
X216152237Y-98020598D01*
X216158289Y-98016990D01*
X216281520Y-97899638D01*
X216317696Y-97845190D01*
X216360469Y-97780811D01*
X216375690Y-97757902D01*
X216384317Y-97735191D01*
X216433617Y-97605409D01*
X216433618Y-97605406D01*
X216436118Y-97598824D01*
X216459800Y-97430313D01*
X216460098Y-97409000D01*
X216458903Y-97398343D01*
X216889376Y-97398343D01*
X216905982Y-97567699D01*
X216959695Y-97729167D01*
X216963342Y-97735189D01*
X216963343Y-97735191D01*
X216996773Y-97790390D01*
X217047847Y-97874723D01*
X217052743Y-97879793D01*
X217068642Y-97896257D01*
X217166056Y-97997131D01*
X217308446Y-98090309D01*
X217467942Y-98149625D01*
X217474923Y-98150556D01*
X217474925Y-98150557D01*
X217521026Y-98156708D01*
X217636615Y-98172131D01*
X217643626Y-98171493D01*
X217643630Y-98171493D01*
X217799061Y-98157347D01*
X217806082Y-98156708D01*
X217812784Y-98154530D01*
X217812786Y-98154530D01*
X217961223Y-98106300D01*
X217961226Y-98106299D01*
X217967922Y-98104123D01*
X218051887Y-98054070D01*
X218108034Y-98020600D01*
X218108037Y-98020598D01*
X218114089Y-98016990D01*
X218237320Y-97899638D01*
X218273496Y-97845190D01*
X218316269Y-97780811D01*
X218331490Y-97757902D01*
X218340117Y-97735191D01*
X218389417Y-97605409D01*
X218389418Y-97605406D01*
X218391918Y-97598824D01*
X218415600Y-97430313D01*
X218415898Y-97409000D01*
X218401916Y-97284347D01*
X218397715Y-97246888D01*
X218397714Y-97246885D01*
X218396930Y-97239892D01*
X218340967Y-97079190D01*
X218334982Y-97069611D01*
X218254525Y-96940853D01*
X218250792Y-96934879D01*
X218156109Y-96839533D01*
X218135849Y-96819131D01*
X218135845Y-96819128D01*
X218130885Y-96814133D01*
X217987208Y-96722952D01*
X217826900Y-96665869D01*
X217657929Y-96645721D01*
X217650926Y-96646457D01*
X217650925Y-96646457D01*
X217495701Y-96662771D01*
X217495697Y-96662772D01*
X217488693Y-96663508D01*
X217482022Y-96665779D01*
X217334274Y-96716076D01*
X217334271Y-96716077D01*
X217327604Y-96718347D01*
X217321606Y-96722037D01*
X217321604Y-96722038D01*
X217291782Y-96740385D01*
X217182667Y-96807513D01*
X217177636Y-96812440D01*
X217177633Y-96812442D01*
X217144865Y-96844531D01*
X217061086Y-96926573D01*
X216968905Y-97069611D01*
X216966496Y-97076231D01*
X216966495Y-97076232D01*
X216913113Y-97222897D01*
X216910704Y-97229516D01*
X216889376Y-97398343D01*
X216458903Y-97398343D01*
X216446116Y-97284347D01*
X216441915Y-97246888D01*
X216441914Y-97246885D01*
X216441130Y-97239892D01*
X216385167Y-97079190D01*
X216379182Y-97069611D01*
X216298725Y-96940853D01*
X216294992Y-96934879D01*
X216200309Y-96839533D01*
X216180049Y-96819131D01*
X216180045Y-96819128D01*
X216175085Y-96814133D01*
X216031408Y-96722952D01*
X215871100Y-96665869D01*
X215702129Y-96645721D01*
X215695126Y-96646457D01*
X215695125Y-96646457D01*
X215539901Y-96662771D01*
X215539897Y-96662772D01*
X215532893Y-96663508D01*
X215526222Y-96665779D01*
X215378474Y-96716076D01*
X215378471Y-96716077D01*
X215371804Y-96718347D01*
X215365806Y-96722037D01*
X215365804Y-96722038D01*
X215335982Y-96740385D01*
X215226867Y-96807513D01*
X215221836Y-96812440D01*
X215221833Y-96812442D01*
X215189065Y-96844531D01*
X215105286Y-96926573D01*
X215013105Y-97069611D01*
X215010696Y-97076231D01*
X215010695Y-97076232D01*
X214957313Y-97222897D01*
X214954904Y-97229516D01*
X214933576Y-97398343D01*
X181213844Y-97398343D01*
X181154100Y-97377069D01*
X180985129Y-97356921D01*
X180978126Y-97357657D01*
X180978125Y-97357657D01*
X180822901Y-97373971D01*
X180822897Y-97373972D01*
X180815893Y-97374708D01*
X180809222Y-97376979D01*
X180661474Y-97427276D01*
X180661471Y-97427277D01*
X180654804Y-97429547D01*
X180648806Y-97433237D01*
X180648804Y-97433238D01*
X180612272Y-97455713D01*
X180509867Y-97518713D01*
X180504836Y-97523640D01*
X180504833Y-97523642D01*
X180467001Y-97560690D01*
X180388286Y-97637773D01*
X180296105Y-97780811D01*
X180293696Y-97787431D01*
X180293695Y-97787432D01*
X180251087Y-97904496D01*
X180237904Y-97940716D01*
X180216576Y-98109543D01*
X174555956Y-98109543D01*
X174548424Y-98042390D01*
X174545115Y-98012888D01*
X174545114Y-98012885D01*
X174544330Y-98005892D01*
X174488367Y-97845190D01*
X174482382Y-97835611D01*
X174401925Y-97706853D01*
X174398192Y-97700879D01*
X174338239Y-97640506D01*
X174283249Y-97585131D01*
X174283245Y-97585128D01*
X174278285Y-97580133D01*
X174134608Y-97488952D01*
X174019761Y-97448057D01*
X173962297Y-97406363D01*
X173936497Y-97340220D01*
X173950552Y-97270629D01*
X173997510Y-97221129D01*
X174009239Y-97214137D01*
X174061489Y-97182990D01*
X174158937Y-97090191D01*
X174179616Y-97070499D01*
X174179618Y-97070497D01*
X174184720Y-97065638D01*
X174185518Y-97064437D01*
X174242781Y-97026340D01*
X174313769Y-97025214D01*
X174374096Y-97062646D01*
X174399750Y-97106886D01*
X174419744Y-97166989D01*
X174440095Y-97228167D01*
X174443742Y-97234189D01*
X174443743Y-97234191D01*
X174497351Y-97322708D01*
X174528247Y-97373723D01*
X174533143Y-97378793D01*
X174552022Y-97398343D01*
X174646456Y-97496131D01*
X174788846Y-97589309D01*
X174948342Y-97648625D01*
X174955323Y-97649556D01*
X174955325Y-97649557D01*
X175001426Y-97655708D01*
X175117015Y-97671131D01*
X175124026Y-97670493D01*
X175124030Y-97670493D01*
X175279461Y-97656347D01*
X175286482Y-97655708D01*
X175293184Y-97653530D01*
X175293186Y-97653530D01*
X175441623Y-97605300D01*
X175441626Y-97605299D01*
X175448322Y-97603123D01*
X175573695Y-97528386D01*
X175588434Y-97519600D01*
X175588437Y-97519598D01*
X175594489Y-97515990D01*
X175717720Y-97398638D01*
X175731139Y-97378442D01*
X175795662Y-97281327D01*
X175811890Y-97256902D01*
X175816235Y-97245465D01*
X175869817Y-97104409D01*
X175869818Y-97104406D01*
X175872318Y-97097824D01*
X175896000Y-96929313D01*
X175896298Y-96908000D01*
X175881949Y-96780073D01*
X175878115Y-96745888D01*
X175878114Y-96745885D01*
X175877330Y-96738892D01*
X175821367Y-96578190D01*
X175817404Y-96571847D01*
X175734925Y-96439853D01*
X175731192Y-96433879D01*
X175655737Y-96357896D01*
X175616249Y-96318131D01*
X175616245Y-96318128D01*
X175611285Y-96313133D01*
X175467608Y-96221952D01*
X175307300Y-96164869D01*
X175138329Y-96144721D01*
X175131326Y-96145457D01*
X175131325Y-96145457D01*
X174976101Y-96161771D01*
X174976097Y-96161772D01*
X174969093Y-96162508D01*
X174962422Y-96164779D01*
X174814674Y-96215076D01*
X174814671Y-96215077D01*
X174808004Y-96217347D01*
X174802006Y-96221037D01*
X174802004Y-96221038D01*
X174775735Y-96237199D01*
X174663067Y-96306513D01*
X174658036Y-96311440D01*
X174658033Y-96311442D01*
X174541486Y-96425573D01*
X174539317Y-96423358D01*
X174491662Y-96455623D01*
X174420686Y-96457324D01*
X174360057Y-96420382D01*
X174334286Y-96377050D01*
X174313768Y-96318131D01*
X174288367Y-96245190D01*
X174283558Y-96237493D01*
X174201925Y-96106853D01*
X174198192Y-96100879D01*
X174138238Y-96040506D01*
X174083249Y-95985131D01*
X174083245Y-95985128D01*
X174078285Y-95980133D01*
X173934608Y-95888952D01*
X173774300Y-95831869D01*
X173605329Y-95811721D01*
X173598326Y-95812457D01*
X173598325Y-95812457D01*
X173443101Y-95828771D01*
X173443097Y-95828772D01*
X173436093Y-95829508D01*
X173429422Y-95831779D01*
X173281674Y-95882076D01*
X173281671Y-95882077D01*
X173275004Y-95884347D01*
X173269006Y-95888037D01*
X173269004Y-95888038D01*
X173261379Y-95892729D01*
X173130067Y-95973513D01*
X173125036Y-95978440D01*
X173125033Y-95978442D01*
X173089757Y-96012987D01*
X173008486Y-96092573D01*
X172916305Y-96235611D01*
X172913896Y-96242231D01*
X172913895Y-96242232D01*
X172888089Y-96313133D01*
X172858104Y-96395516D01*
X172836776Y-96564343D01*
X172853382Y-96733699D01*
X172855606Y-96740384D01*
X172855606Y-96740385D01*
X172873559Y-96794353D01*
X172907095Y-96895167D01*
X172910742Y-96901189D01*
X172910743Y-96901191D01*
X172971868Y-97002120D01*
X172995247Y-97040723D01*
X173000143Y-97045793D01*
X173019307Y-97065638D01*
X173113456Y-97163131D01*
X173255846Y-97256309D01*
X173262447Y-97258764D01*
X173262457Y-97258769D01*
X173381316Y-97302972D01*
X173438192Y-97345464D01*
X173463066Y-97411961D01*
X173448041Y-97481349D01*
X173403418Y-97528386D01*
X173336073Y-97569817D01*
X173336067Y-97569822D01*
X173330067Y-97573513D01*
X173325036Y-97578440D01*
X173325033Y-97578442D01*
X173278282Y-97624224D01*
X173208486Y-97692573D01*
X173116305Y-97835611D01*
X173113895Y-97842233D01*
X173088620Y-97911673D01*
X173046525Y-97968845D01*
X172980203Y-97994182D01*
X172910712Y-97979641D01*
X172881124Y-97957673D01*
X170760997Y-95837546D01*
X170726971Y-95775234D01*
X170724877Y-95762497D01*
X170721915Y-95736088D01*
X170721914Y-95736085D01*
X170721130Y-95729092D01*
X170665167Y-95568390D01*
X170659182Y-95558811D01*
X170607963Y-95476843D01*
X189674276Y-95476843D01*
X189690882Y-95646199D01*
X189693106Y-95652884D01*
X189693106Y-95652885D01*
X189698183Y-95668147D01*
X189744595Y-95807667D01*
X189748242Y-95813689D01*
X189748243Y-95813691D01*
X189792391Y-95886587D01*
X189832747Y-95953223D01*
X189837643Y-95958293D01*
X189852341Y-95973513D01*
X189950956Y-96075631D01*
X190093346Y-96168809D01*
X190252842Y-96228125D01*
X190259823Y-96229056D01*
X190259825Y-96229057D01*
X190305926Y-96235208D01*
X190421515Y-96250631D01*
X190428526Y-96249993D01*
X190428530Y-96249993D01*
X190583961Y-96235847D01*
X190590982Y-96235208D01*
X190597684Y-96233030D01*
X190597686Y-96233030D01*
X190746123Y-96184800D01*
X190746126Y-96184799D01*
X190752822Y-96182623D01*
X190824567Y-96139854D01*
X190892934Y-96099100D01*
X190892937Y-96099098D01*
X190898989Y-96095490D01*
X191022220Y-95978138D01*
X191027298Y-95970496D01*
X191078966Y-95892729D01*
X191116390Y-95836402D01*
X191119289Y-95828771D01*
X191174317Y-95683909D01*
X191174318Y-95683906D01*
X191176818Y-95677324D01*
X191200500Y-95508813D01*
X191200798Y-95487500D01*
X191188404Y-95377000D01*
X191182615Y-95325388D01*
X191182614Y-95325385D01*
X191181830Y-95318392D01*
X191125867Y-95157690D01*
X191119882Y-95148111D01*
X191039425Y-95019353D01*
X191035692Y-95013379D01*
X190967811Y-94945023D01*
X190932181Y-94909143D01*
X213511176Y-94909143D01*
X213527782Y-95078499D01*
X213581495Y-95239967D01*
X213585142Y-95245989D01*
X213585143Y-95245991D01*
X213646268Y-95346920D01*
X213669647Y-95385523D01*
X213674543Y-95390593D01*
X213689646Y-95406232D01*
X213787856Y-95507931D01*
X213930246Y-95601109D01*
X214089742Y-95660425D01*
X214096723Y-95661356D01*
X214096725Y-95661357D01*
X214142826Y-95667508D01*
X214258415Y-95682931D01*
X214265426Y-95682293D01*
X214265430Y-95682293D01*
X214420861Y-95668147D01*
X214427882Y-95667508D01*
X214434584Y-95665330D01*
X214434586Y-95665330D01*
X214583023Y-95617100D01*
X214583026Y-95617099D01*
X214589722Y-95614923D01*
X214683851Y-95558811D01*
X214729834Y-95531400D01*
X214729837Y-95531398D01*
X214735889Y-95527790D01*
X214859120Y-95410438D01*
X214881337Y-95377000D01*
X214926960Y-95308331D01*
X214953290Y-95268702D01*
X214961917Y-95245991D01*
X215011217Y-95116209D01*
X215011218Y-95116206D01*
X215013718Y-95109624D01*
X215037400Y-94941113D01*
X215037698Y-94919800D01*
X215029151Y-94843600D01*
X220295096Y-94843600D01*
X220295786Y-94850165D01*
X220312690Y-95010993D01*
X220315058Y-95033528D01*
X220374073Y-95215156D01*
X220469560Y-95380544D01*
X220473978Y-95385451D01*
X220473979Y-95385452D01*
X220579695Y-95502862D01*
X220597347Y-95522466D01*
X220602690Y-95526348D01*
X220724603Y-95614923D01*
X220751848Y-95634718D01*
X220757876Y-95637402D01*
X220757878Y-95637403D01*
X220862333Y-95683909D01*
X220926312Y-95712394D01*
X221019712Y-95732247D01*
X221106656Y-95750728D01*
X221106661Y-95750728D01*
X221113113Y-95752100D01*
X221304087Y-95752100D01*
X221310539Y-95750728D01*
X221310544Y-95750728D01*
X221397488Y-95732247D01*
X221490888Y-95712394D01*
X221554867Y-95683909D01*
X221659322Y-95637403D01*
X221659324Y-95637402D01*
X221665352Y-95634718D01*
X221692598Y-95614923D01*
X221814510Y-95526348D01*
X221819853Y-95522466D01*
X221837505Y-95502862D01*
X221943221Y-95385452D01*
X221943222Y-95385451D01*
X221947640Y-95380544D01*
X222043127Y-95215156D01*
X222102142Y-95033528D01*
X222104511Y-95010993D01*
X222121414Y-94850165D01*
X222122104Y-94843600D01*
X222108331Y-94712555D01*
X222102832Y-94660235D01*
X222102832Y-94660233D01*
X222102142Y-94653672D01*
X222043127Y-94472044D01*
X221947640Y-94306656D01*
X221828474Y-94174308D01*
X221824275Y-94169645D01*
X221824274Y-94169644D01*
X221819853Y-94164734D01*
X221690457Y-94070722D01*
X221670694Y-94056363D01*
X221670693Y-94056362D01*
X221665352Y-94052482D01*
X221659324Y-94049798D01*
X221659322Y-94049797D01*
X221496919Y-93977491D01*
X221496918Y-93977491D01*
X221490888Y-93974806D01*
X221397488Y-93954953D01*
X221310544Y-93936472D01*
X221310539Y-93936472D01*
X221304087Y-93935100D01*
X221113113Y-93935100D01*
X221106661Y-93936472D01*
X221106656Y-93936472D01*
X221019713Y-93954953D01*
X220926312Y-93974806D01*
X220920282Y-93977491D01*
X220920281Y-93977491D01*
X220757878Y-94049797D01*
X220757876Y-94049798D01*
X220751848Y-94052482D01*
X220746507Y-94056362D01*
X220746506Y-94056363D01*
X220726743Y-94070722D01*
X220597347Y-94164734D01*
X220592926Y-94169644D01*
X220592925Y-94169645D01*
X220588727Y-94174308D01*
X220469560Y-94306656D01*
X220374073Y-94472044D01*
X220315058Y-94653672D01*
X220314368Y-94660233D01*
X220314368Y-94660235D01*
X220308869Y-94712555D01*
X220295096Y-94843600D01*
X215029151Y-94843600D01*
X215024847Y-94805229D01*
X215019515Y-94757688D01*
X215019514Y-94757685D01*
X215018730Y-94750692D01*
X214962767Y-94589990D01*
X214956782Y-94580411D01*
X214876325Y-94451653D01*
X214872592Y-94445679D01*
X214812639Y-94385306D01*
X214757649Y-94329931D01*
X214757645Y-94329928D01*
X214752685Y-94324933D01*
X214609008Y-94233752D01*
X214448700Y-94176669D01*
X214279729Y-94156521D01*
X214272726Y-94157257D01*
X214272725Y-94157257D01*
X214117501Y-94173571D01*
X214117497Y-94173572D01*
X214110493Y-94174308D01*
X214103822Y-94176579D01*
X213956074Y-94226876D01*
X213956071Y-94226877D01*
X213949404Y-94229147D01*
X213943406Y-94232837D01*
X213943404Y-94232838D01*
X213935779Y-94237529D01*
X213804467Y-94318313D01*
X213799436Y-94323240D01*
X213799433Y-94323242D01*
X213783742Y-94338608D01*
X213682886Y-94437373D01*
X213590705Y-94580411D01*
X213588296Y-94587031D01*
X213588295Y-94587032D01*
X213536706Y-94728771D01*
X213532504Y-94740316D01*
X213511176Y-94909143D01*
X190932181Y-94909143D01*
X190920749Y-94897631D01*
X190920745Y-94897628D01*
X190915785Y-94892633D01*
X190772108Y-94801452D01*
X190611800Y-94744369D01*
X190442829Y-94724221D01*
X190435826Y-94724957D01*
X190435825Y-94724957D01*
X190280601Y-94741271D01*
X190280597Y-94741272D01*
X190273593Y-94742008D01*
X190266922Y-94744279D01*
X190119174Y-94794576D01*
X190119171Y-94794577D01*
X190112504Y-94796847D01*
X190106506Y-94800537D01*
X190106504Y-94800538D01*
X190098879Y-94805229D01*
X189967567Y-94886013D01*
X189962536Y-94890940D01*
X189962533Y-94890942D01*
X189915331Y-94937166D01*
X189845986Y-95005073D01*
X189753805Y-95148111D01*
X189751396Y-95154731D01*
X189751395Y-95154732D01*
X189707734Y-95274690D01*
X189695604Y-95308016D01*
X189674276Y-95476843D01*
X170607963Y-95476843D01*
X170578725Y-95430053D01*
X170574992Y-95424079D01*
X170507641Y-95356257D01*
X170460049Y-95308331D01*
X170460045Y-95308328D01*
X170455085Y-95303333D01*
X170311408Y-95212152D01*
X170151100Y-95155069D01*
X169982129Y-95134921D01*
X169975126Y-95135657D01*
X169975125Y-95135657D01*
X169819901Y-95151971D01*
X169819897Y-95151972D01*
X169812893Y-95152708D01*
X169806222Y-95154979D01*
X169658474Y-95205276D01*
X169658471Y-95205277D01*
X169651804Y-95207547D01*
X169645806Y-95211237D01*
X169645804Y-95211238D01*
X169638179Y-95215929D01*
X169506867Y-95296713D01*
X169501836Y-95301640D01*
X169501833Y-95301642D01*
X169461815Y-95340831D01*
X169385286Y-95415773D01*
X169293105Y-95558811D01*
X169290696Y-95565431D01*
X169290695Y-95565432D01*
X169248268Y-95681999D01*
X169234904Y-95718716D01*
X169213576Y-95887543D01*
X164586607Y-95887543D01*
X164628890Y-95823902D01*
X164637799Y-95800449D01*
X164686817Y-95671409D01*
X164686818Y-95671406D01*
X164689318Y-95664824D01*
X164713000Y-95496313D01*
X164713298Y-95475000D01*
X164702306Y-95377000D01*
X164695115Y-95312888D01*
X164695114Y-95312885D01*
X164694330Y-95305892D01*
X164638367Y-95145190D01*
X164632472Y-95135755D01*
X164551925Y-95006853D01*
X164548192Y-95000879D01*
X164471610Y-94923761D01*
X164433249Y-94885131D01*
X164433245Y-94885128D01*
X164428285Y-94880133D01*
X164284608Y-94788952D01*
X164124300Y-94731869D01*
X163955329Y-94711721D01*
X163948326Y-94712457D01*
X163948325Y-94712457D01*
X163793101Y-94728771D01*
X163793097Y-94728772D01*
X163786093Y-94729508D01*
X163779422Y-94731779D01*
X163631674Y-94782076D01*
X163631671Y-94782077D01*
X163625004Y-94784347D01*
X163619006Y-94788037D01*
X163619004Y-94788038D01*
X163598686Y-94800538D01*
X163480067Y-94873513D01*
X163475036Y-94878440D01*
X163475033Y-94878442D01*
X163436821Y-94915862D01*
X163358486Y-94992573D01*
X163266305Y-95135611D01*
X163263896Y-95142231D01*
X163263895Y-95142232D01*
X163213180Y-95281569D01*
X163208104Y-95295516D01*
X163186776Y-95464343D01*
X157600291Y-95464343D01*
X157535622Y-95410844D01*
X157496170Y-95378206D01*
X157320815Y-95283392D01*
X157314926Y-95281569D01*
X157293484Y-95274931D01*
X157234326Y-95235679D01*
X157205780Y-95170674D01*
X157216910Y-95100555D01*
X157264182Y-95047585D01*
X157277499Y-95040371D01*
X157283908Y-95037383D01*
X157283913Y-95037380D01*
X157288897Y-95035056D01*
X157300452Y-95026965D01*
X157475521Y-94904381D01*
X157475524Y-94904379D01*
X157480032Y-94901222D01*
X157645022Y-94736232D01*
X157649731Y-94729508D01*
X157775699Y-94549606D01*
X157775700Y-94549604D01*
X157778856Y-94545097D01*
X157781179Y-94540115D01*
X157781182Y-94540110D01*
X157875144Y-94338608D01*
X157875145Y-94338606D01*
X157877467Y-94333626D01*
X157880250Y-94323242D01*
X157936434Y-94113559D01*
X157936434Y-94113557D01*
X157937858Y-94108244D01*
X157958194Y-93875800D01*
X157937858Y-93643356D01*
X157935195Y-93633418D01*
X157878890Y-93423284D01*
X157878889Y-93423282D01*
X157877467Y-93417974D01*
X157872110Y-93406486D01*
X157781182Y-93211490D01*
X157781179Y-93211485D01*
X157778856Y-93206503D01*
X157775699Y-93201994D01*
X157648181Y-93019879D01*
X157648179Y-93019876D01*
X157645022Y-93015368D01*
X157640393Y-93010739D01*
X162178682Y-93010739D01*
X162195362Y-93209386D01*
X162205879Y-93246062D01*
X162248233Y-93393765D01*
X162250310Y-93401009D01*
X162280419Y-93459595D01*
X162337245Y-93570167D01*
X162341430Y-93578311D01*
X162465253Y-93734537D01*
X162617063Y-93863737D01*
X162622441Y-93866743D01*
X162622443Y-93866744D01*
X162664397Y-93890191D01*
X162791076Y-93960989D01*
X162796935Y-93962893D01*
X162796938Y-93962894D01*
X162841251Y-93977292D01*
X162980665Y-94022591D01*
X162986775Y-94023320D01*
X162986777Y-94023320D01*
X163054314Y-94031373D01*
X163178609Y-94046194D01*
X163184744Y-94045722D01*
X163184746Y-94045722D01*
X163371226Y-94031373D01*
X163371231Y-94031372D01*
X163377367Y-94030900D01*
X163383297Y-94029244D01*
X163383299Y-94029244D01*
X163496248Y-93997708D01*
X163569370Y-93977292D01*
X163577008Y-93973434D01*
X163741802Y-93890191D01*
X163741804Y-93890190D01*
X163747303Y-93887412D01*
X163904390Y-93764682D01*
X163930207Y-93734773D01*
X164030618Y-93618446D01*
X164030619Y-93618444D01*
X164034647Y-93613778D01*
X164043705Y-93597834D01*
X164126801Y-93451557D01*
X164133112Y-93440448D01*
X164196035Y-93251294D01*
X164203175Y-93194773D01*
X164220578Y-93057023D01*
X164220579Y-93057013D01*
X164221020Y-93053520D01*
X164221268Y-93035739D01*
X176028682Y-93035739D01*
X176045362Y-93234386D01*
X176070371Y-93321600D01*
X176097264Y-93415385D01*
X176100310Y-93426009D01*
X176191430Y-93603311D01*
X176315253Y-93759537D01*
X176467063Y-93888737D01*
X176472441Y-93891743D01*
X176472443Y-93891744D01*
X176550020Y-93935100D01*
X176641076Y-93985989D01*
X176646935Y-93987893D01*
X176646938Y-93987894D01*
X176682701Y-93999514D01*
X176830665Y-94047591D01*
X176836775Y-94048320D01*
X176836777Y-94048320D01*
X176904230Y-94056363D01*
X177028609Y-94071194D01*
X177034744Y-94070722D01*
X177034746Y-94070722D01*
X177221226Y-94056373D01*
X177221231Y-94056372D01*
X177227367Y-94055900D01*
X177233297Y-94054244D01*
X177233299Y-94054244D01*
X177346667Y-94022591D01*
X177419370Y-94002292D01*
X177447327Y-93988170D01*
X177591802Y-93915191D01*
X177591804Y-93915190D01*
X177597303Y-93912412D01*
X177754390Y-93789682D01*
X177772695Y-93768476D01*
X177880618Y-93643446D01*
X177880619Y-93643444D01*
X177884647Y-93638778D01*
X177983112Y-93465448D01*
X178046035Y-93276294D01*
X178050703Y-93239343D01*
X187236776Y-93239343D01*
X187253382Y-93408699D01*
X187255606Y-93415384D01*
X187255606Y-93415385D01*
X187269685Y-93457708D01*
X187307095Y-93570167D01*
X187310742Y-93576189D01*
X187310743Y-93576191D01*
X187333507Y-93613778D01*
X187395247Y-93715723D01*
X187400143Y-93720793D01*
X187417274Y-93738532D01*
X187513456Y-93838131D01*
X187655846Y-93931309D01*
X187815342Y-93990625D01*
X187822323Y-93991556D01*
X187822325Y-93991557D01*
X187868426Y-93997708D01*
X187984015Y-94013131D01*
X187991026Y-94012493D01*
X187991030Y-94012493D01*
X188146461Y-93998347D01*
X188153482Y-93997708D01*
X188160184Y-93995530D01*
X188160186Y-93995530D01*
X188308623Y-93947300D01*
X188308626Y-93947299D01*
X188315322Y-93945123D01*
X188404866Y-93891744D01*
X188455434Y-93861600D01*
X188455437Y-93861598D01*
X188461489Y-93857990D01*
X188584720Y-93740638D01*
X188591984Y-93729706D01*
X188649295Y-93643446D01*
X188678890Y-93598902D01*
X188688792Y-93572834D01*
X188736817Y-93446409D01*
X188736818Y-93446406D01*
X188739318Y-93439824D01*
X188763000Y-93271313D01*
X188763298Y-93250000D01*
X188744330Y-93080892D01*
X188717951Y-93005142D01*
X188714437Y-92934234D01*
X188750048Y-92872463D01*
X188809720Y-92815638D01*
X188844930Y-92762644D01*
X188886987Y-92699343D01*
X195350176Y-92699343D01*
X195366782Y-92868699D01*
X195369006Y-92875384D01*
X195369006Y-92875385D01*
X195379326Y-92906409D01*
X195420495Y-93030167D01*
X195424142Y-93036189D01*
X195424143Y-93036191D01*
X195449779Y-93078520D01*
X195508647Y-93175723D01*
X195513543Y-93180793D01*
X195532707Y-93200638D01*
X195626856Y-93298131D01*
X195769246Y-93391309D01*
X195928742Y-93450625D01*
X195935723Y-93451556D01*
X195935725Y-93451557D01*
X195981826Y-93457708D01*
X196097415Y-93473131D01*
X196104426Y-93472493D01*
X196104430Y-93472493D01*
X196259861Y-93458347D01*
X196266882Y-93457708D01*
X196273584Y-93455530D01*
X196273586Y-93455530D01*
X196422023Y-93407300D01*
X196422026Y-93407299D01*
X196428722Y-93405123D01*
X196533391Y-93342728D01*
X196568834Y-93321600D01*
X196568837Y-93321598D01*
X196574889Y-93317990D01*
X196698120Y-93200638D01*
X196792290Y-93058902D01*
X196802543Y-93031911D01*
X196850217Y-92906409D01*
X196850218Y-92906406D01*
X196852718Y-92899824D01*
X196876400Y-92731313D01*
X196876698Y-92710000D01*
X196861188Y-92571718D01*
X196858515Y-92547888D01*
X196858514Y-92547885D01*
X196857730Y-92540892D01*
X196801767Y-92380190D01*
X196795782Y-92370611D01*
X196715325Y-92241853D01*
X196711592Y-92235879D01*
X196646483Y-92170314D01*
X196596649Y-92120131D01*
X196596645Y-92120128D01*
X196591685Y-92115133D01*
X196448008Y-92023952D01*
X196287700Y-91966869D01*
X196118729Y-91946721D01*
X196111726Y-91947457D01*
X196111725Y-91947457D01*
X195956501Y-91963771D01*
X195956497Y-91963772D01*
X195949493Y-91964508D01*
X195942822Y-91966779D01*
X195795074Y-92017076D01*
X195795071Y-92017077D01*
X195788404Y-92019347D01*
X195782406Y-92023037D01*
X195782404Y-92023038D01*
X195715935Y-92063930D01*
X195643467Y-92108513D01*
X195638436Y-92113440D01*
X195638433Y-92113442D01*
X195598849Y-92152206D01*
X195521886Y-92227573D01*
X195429705Y-92370611D01*
X195427296Y-92377231D01*
X195427295Y-92377232D01*
X195385179Y-92492944D01*
X195371504Y-92530516D01*
X195350176Y-92699343D01*
X188886987Y-92699343D01*
X188899995Y-92679764D01*
X188903890Y-92673902D01*
X188911644Y-92653490D01*
X188961817Y-92521409D01*
X188961818Y-92521406D01*
X188964318Y-92514824D01*
X188988000Y-92346313D01*
X188988117Y-92337964D01*
X188988243Y-92328961D01*
X188988243Y-92328955D01*
X188988298Y-92325000D01*
X188974637Y-92203206D01*
X188970115Y-92162888D01*
X188970114Y-92162885D01*
X188969330Y-92155892D01*
X188913367Y-91995190D01*
X188907382Y-91985611D01*
X188826925Y-91856853D01*
X188823192Y-91850879D01*
X188745492Y-91772635D01*
X188708249Y-91735131D01*
X188708245Y-91735128D01*
X188703285Y-91730133D01*
X188559608Y-91638952D01*
X188399300Y-91581869D01*
X188230329Y-91561721D01*
X188223326Y-91562457D01*
X188223325Y-91562457D01*
X188068101Y-91578771D01*
X188068097Y-91578772D01*
X188061093Y-91579508D01*
X188054422Y-91581779D01*
X187906674Y-91632076D01*
X187906671Y-91632077D01*
X187900004Y-91634347D01*
X187894006Y-91638037D01*
X187894004Y-91638038D01*
X187881015Y-91646029D01*
X187755067Y-91723513D01*
X187750036Y-91728440D01*
X187750033Y-91728442D01*
X187728169Y-91749853D01*
X187633486Y-91842573D01*
X187541305Y-91985611D01*
X187538896Y-91992231D01*
X187538895Y-91992232D01*
X187492343Y-92120131D01*
X187483104Y-92145516D01*
X187461776Y-92314343D01*
X187478382Y-92483699D01*
X187480606Y-92490384D01*
X187480606Y-92490385D01*
X187507584Y-92571484D01*
X187510107Y-92642436D01*
X187476183Y-92701279D01*
X187408486Y-92767573D01*
X187316305Y-92910611D01*
X187313896Y-92917231D01*
X187313895Y-92917232D01*
X187264290Y-93053520D01*
X187258104Y-93070516D01*
X187236776Y-93239343D01*
X178050703Y-93239343D01*
X178059502Y-93169696D01*
X178070578Y-93082023D01*
X178070579Y-93082013D01*
X178071020Y-93078520D01*
X178071418Y-93050000D01*
X178051965Y-92851606D01*
X178050184Y-92845707D01*
X178050183Y-92845702D01*
X177996129Y-92666667D01*
X177994348Y-92660768D01*
X177920250Y-92521409D01*
X177903655Y-92490198D01*
X177903653Y-92490195D01*
X177900761Y-92484756D01*
X177896871Y-92479986D01*
X177896868Y-92479982D01*
X177778663Y-92335049D01*
X177778660Y-92335046D01*
X177774768Y-92330274D01*
X177763886Y-92321271D01*
X177667886Y-92241853D01*
X177621170Y-92203206D01*
X177445815Y-92108392D01*
X177255385Y-92049444D01*
X177249260Y-92048800D01*
X177249259Y-92048800D01*
X177063260Y-92029251D01*
X177063258Y-92029251D01*
X177057131Y-92028607D01*
X176934252Y-92039790D01*
X176864746Y-92046115D01*
X176864745Y-92046115D01*
X176858605Y-92046674D01*
X176852691Y-92048415D01*
X176852689Y-92048415D01*
X176733849Y-92083392D01*
X176667370Y-92102958D01*
X176490709Y-92195314D01*
X176485909Y-92199174D01*
X176485908Y-92199174D01*
X176483230Y-92201327D01*
X176335351Y-92320225D01*
X176207214Y-92472933D01*
X176111179Y-92647621D01*
X176109318Y-92653488D01*
X176109317Y-92653490D01*
X176094157Y-92701280D01*
X176050902Y-92837635D01*
X176028682Y-93035739D01*
X164221268Y-93035739D01*
X164221418Y-93025000D01*
X164201965Y-92826606D01*
X164200184Y-92820707D01*
X164200183Y-92820702D01*
X164146129Y-92641667D01*
X164144348Y-92635768D01*
X164093902Y-92540892D01*
X164053655Y-92465198D01*
X164053653Y-92465195D01*
X164050761Y-92459756D01*
X164046871Y-92454986D01*
X164046868Y-92454982D01*
X163928663Y-92310049D01*
X163928660Y-92310046D01*
X163924768Y-92305274D01*
X163771170Y-92178206D01*
X163595815Y-92083392D01*
X163405385Y-92024444D01*
X163399260Y-92023800D01*
X163399259Y-92023800D01*
X163213260Y-92004251D01*
X163213258Y-92004251D01*
X163207131Y-92003607D01*
X163084252Y-92014790D01*
X163014746Y-92021115D01*
X163014745Y-92021115D01*
X163008605Y-92021674D01*
X163002691Y-92023415D01*
X163002689Y-92023415D01*
X162914251Y-92049444D01*
X162817370Y-92077958D01*
X162640709Y-92170314D01*
X162635909Y-92174174D01*
X162635908Y-92174174D01*
X162630893Y-92178206D01*
X162485351Y-92295225D01*
X162357214Y-92447933D01*
X162261179Y-92622621D01*
X162259318Y-92628488D01*
X162259317Y-92628490D01*
X162234617Y-92706355D01*
X162200902Y-92812635D01*
X162178682Y-93010739D01*
X157640393Y-93010739D01*
X157480032Y-92850378D01*
X157475524Y-92847221D01*
X157475521Y-92847219D01*
X157293406Y-92719701D01*
X157293404Y-92719700D01*
X157288897Y-92716544D01*
X157283915Y-92714221D01*
X157283910Y-92714218D01*
X157082408Y-92620256D01*
X157082406Y-92620255D01*
X157077426Y-92617933D01*
X157072118Y-92616511D01*
X157072116Y-92616510D01*
X156857359Y-92558966D01*
X156857357Y-92558966D01*
X156852044Y-92557542D01*
X156619600Y-92537206D01*
X156387156Y-92557542D01*
X156381843Y-92558966D01*
X156381841Y-92558966D01*
X156167084Y-92616510D01*
X156167082Y-92616511D01*
X156161774Y-92617933D01*
X156156794Y-92620255D01*
X156156792Y-92620256D01*
X155955290Y-92714218D01*
X155955285Y-92714221D01*
X155950303Y-92716544D01*
X155945796Y-92719700D01*
X155945794Y-92719701D01*
X155763679Y-92847219D01*
X155763676Y-92847221D01*
X155759168Y-92850378D01*
X155594178Y-93015368D01*
X155591021Y-93019876D01*
X155591019Y-93019879D01*
X155463501Y-93201994D01*
X155460344Y-93206503D01*
X155458021Y-93211485D01*
X155458018Y-93211490D01*
X155367090Y-93406486D01*
X155361733Y-93417974D01*
X155360311Y-93423282D01*
X155360310Y-93423284D01*
X155304005Y-93633418D01*
X155301342Y-93643356D01*
X155281006Y-93875800D01*
X151333700Y-93875800D01*
X151333700Y-91248934D01*
X155286100Y-91248934D01*
X155292855Y-91311116D01*
X155343985Y-91447505D01*
X155431339Y-91564061D01*
X155547895Y-91651415D01*
X155684284Y-91702545D01*
X155746466Y-91709300D01*
X157492734Y-91709300D01*
X157554916Y-91702545D01*
X157691305Y-91651415D01*
X157807861Y-91564061D01*
X157895215Y-91447505D01*
X157946345Y-91311116D01*
X157953100Y-91248934D01*
X157953100Y-90665943D01*
X194358176Y-90665943D01*
X194374782Y-90835299D01*
X194377006Y-90841984D01*
X194377006Y-90841985D01*
X194382816Y-90859450D01*
X194428495Y-90996767D01*
X194432142Y-91002789D01*
X194432143Y-91002791D01*
X194459034Y-91047193D01*
X194516647Y-91142323D01*
X194521543Y-91147393D01*
X194552575Y-91179527D01*
X194634856Y-91264731D01*
X194777246Y-91357909D01*
X194936742Y-91417225D01*
X194943723Y-91418156D01*
X194943725Y-91418157D01*
X194989826Y-91424308D01*
X195105415Y-91439731D01*
X195112426Y-91439093D01*
X195112430Y-91439093D01*
X195267861Y-91424947D01*
X195274882Y-91424308D01*
X195281584Y-91422130D01*
X195281586Y-91422130D01*
X195430023Y-91373900D01*
X195430026Y-91373899D01*
X195436722Y-91371723D01*
X195525979Y-91318515D01*
X195576834Y-91288200D01*
X195576837Y-91288198D01*
X195582889Y-91284590D01*
X195706120Y-91167238D01*
X195711287Y-91159462D01*
X195796395Y-91031364D01*
X195800290Y-91025502D01*
X195802790Y-91018921D01*
X195858217Y-90873009D01*
X195858218Y-90873006D01*
X195860718Y-90866424D01*
X195884400Y-90697913D01*
X195884698Y-90676600D01*
X195865730Y-90507492D01*
X195863414Y-90500840D01*
X195862635Y-90497413D01*
X195867048Y-90426553D01*
X195909070Y-90369329D01*
X195975359Y-90343907D01*
X196044869Y-90358360D01*
X196054484Y-90364058D01*
X196080846Y-90381309D01*
X196240342Y-90440625D01*
X196247323Y-90441556D01*
X196247325Y-90441557D01*
X196293426Y-90447708D01*
X196409015Y-90463131D01*
X196416026Y-90462493D01*
X196416030Y-90462493D01*
X196571461Y-90448347D01*
X196578482Y-90447708D01*
X196585184Y-90445530D01*
X196585186Y-90445530D01*
X196733623Y-90397300D01*
X196733626Y-90397299D01*
X196740322Y-90395123D01*
X196826238Y-90343907D01*
X196880434Y-90311600D01*
X196880437Y-90311598D01*
X196886489Y-90307990D01*
X196984827Y-90214343D01*
X200511776Y-90214343D01*
X200528382Y-90383699D01*
X200530606Y-90390384D01*
X200530606Y-90390385D01*
X200542810Y-90427071D01*
X200582095Y-90545167D01*
X200585742Y-90551189D01*
X200585743Y-90551191D01*
X200619315Y-90606625D01*
X200670247Y-90690723D01*
X200675143Y-90695793D01*
X200694307Y-90715638D01*
X200788456Y-90813131D01*
X200930846Y-90906309D01*
X201090342Y-90965625D01*
X201097323Y-90966556D01*
X201097325Y-90966557D01*
X201143426Y-90972708D01*
X201259015Y-90988131D01*
X201266026Y-90987493D01*
X201266030Y-90987493D01*
X201421461Y-90973347D01*
X201428482Y-90972708D01*
X201435184Y-90970530D01*
X201435186Y-90970530D01*
X201583623Y-90922300D01*
X201583626Y-90922299D01*
X201590322Y-90920123D01*
X201662067Y-90877354D01*
X201730434Y-90836600D01*
X201730437Y-90836598D01*
X201736489Y-90832990D01*
X201859720Y-90715638D01*
X201866687Y-90705153D01*
X201917196Y-90629131D01*
X201953890Y-90573902D01*
X201956989Y-90565743D01*
X204621176Y-90565743D01*
X204637782Y-90735099D01*
X204691495Y-90896567D01*
X204695142Y-90902589D01*
X204695143Y-90902591D01*
X204736289Y-90970530D01*
X204779647Y-91042123D01*
X204784543Y-91047193D01*
X204825776Y-91089891D01*
X204897856Y-91164531D01*
X205040246Y-91257709D01*
X205199742Y-91317025D01*
X205206723Y-91317956D01*
X205206725Y-91317957D01*
X205252826Y-91324108D01*
X205368415Y-91339531D01*
X205375426Y-91338893D01*
X205375430Y-91338893D01*
X205530861Y-91324747D01*
X205537882Y-91324108D01*
X205544584Y-91321930D01*
X205544586Y-91321930D01*
X205693023Y-91273700D01*
X205693026Y-91273699D01*
X205699722Y-91271523D01*
X205828740Y-91194613D01*
X205839834Y-91188000D01*
X205839837Y-91187998D01*
X205845889Y-91184390D01*
X205969120Y-91067038D01*
X205980333Y-91050162D01*
X206059395Y-90931164D01*
X206063290Y-90925302D01*
X206065790Y-90918721D01*
X206121217Y-90772809D01*
X206121218Y-90772806D01*
X206123718Y-90766224D01*
X206129817Y-90722829D01*
X206135204Y-90684497D01*
X206164492Y-90619823D01*
X206224096Y-90581250D01*
X206276642Y-90577140D01*
X206359015Y-90588131D01*
X206366026Y-90587493D01*
X206366030Y-90587493D01*
X206521461Y-90573347D01*
X206528482Y-90572708D01*
X206535184Y-90570530D01*
X206535186Y-90570530D01*
X206683623Y-90522300D01*
X206683626Y-90522299D01*
X206690322Y-90520123D01*
X206785927Y-90463131D01*
X206830434Y-90436600D01*
X206830437Y-90436598D01*
X206836489Y-90432990D01*
X206959720Y-90315638D01*
X206964802Y-90307990D01*
X207034903Y-90202479D01*
X207053890Y-90173902D01*
X207059907Y-90158062D01*
X207111817Y-90021409D01*
X207111818Y-90021406D01*
X207114318Y-90014824D01*
X207136731Y-89855343D01*
X218869776Y-89855343D01*
X218886382Y-90024699D01*
X218888606Y-90031384D01*
X218888606Y-90031385D01*
X218901617Y-90070496D01*
X218940095Y-90186167D01*
X218943742Y-90192189D01*
X218943743Y-90192191D01*
X218998365Y-90282382D01*
X219028247Y-90331723D01*
X219033143Y-90336793D01*
X219039749Y-90343634D01*
X219146456Y-90454131D01*
X219288846Y-90547309D01*
X219448342Y-90606625D01*
X219455323Y-90607556D01*
X219455325Y-90607557D01*
X219501426Y-90613708D01*
X219617015Y-90629131D01*
X219624026Y-90628493D01*
X219624030Y-90628493D01*
X219779461Y-90614347D01*
X219786482Y-90613708D01*
X219793184Y-90611530D01*
X219793186Y-90611530D01*
X219941623Y-90563300D01*
X219941626Y-90563299D01*
X219948322Y-90561123D01*
X219964983Y-90551191D01*
X220018530Y-90519271D01*
X220083047Y-90501500D01*
X220766978Y-90501500D01*
X220835099Y-90521502D01*
X220856073Y-90538405D01*
X221155488Y-90837820D01*
X221189514Y-90900132D01*
X221184449Y-90970947D01*
X221141902Y-91027783D01*
X221092591Y-91050162D01*
X220918312Y-91087206D01*
X220912282Y-91089891D01*
X220912281Y-91089891D01*
X220749878Y-91162197D01*
X220749876Y-91162198D01*
X220743848Y-91164882D01*
X220738507Y-91168762D01*
X220738506Y-91168763D01*
X220702927Y-91194613D01*
X220589347Y-91277134D01*
X220584926Y-91282044D01*
X220584925Y-91282045D01*
X220502219Y-91373900D01*
X220461560Y-91419056D01*
X220445135Y-91447505D01*
X220381987Y-91556881D01*
X220366073Y-91584444D01*
X220307058Y-91766072D01*
X220306368Y-91772633D01*
X220306368Y-91772635D01*
X220297517Y-91856853D01*
X220287096Y-91956000D01*
X220287786Y-91962565D01*
X220304347Y-92120131D01*
X220307058Y-92145928D01*
X220366073Y-92327556D01*
X220369376Y-92333278D01*
X220369377Y-92333279D01*
X220396461Y-92380190D01*
X220461560Y-92492944D01*
X220465978Y-92497851D01*
X220465979Y-92497852D01*
X220580869Y-92625450D01*
X220589347Y-92634866D01*
X220743848Y-92747118D01*
X220749876Y-92749802D01*
X220749878Y-92749803D01*
X220908647Y-92820491D01*
X220918312Y-92824794D01*
X221007507Y-92843753D01*
X221098656Y-92863128D01*
X221098661Y-92863128D01*
X221105113Y-92864500D01*
X221296087Y-92864500D01*
X221302539Y-92863128D01*
X221302544Y-92863128D01*
X221393693Y-92843753D01*
X221482888Y-92824794D01*
X221492553Y-92820491D01*
X221651322Y-92749803D01*
X221651324Y-92749802D01*
X221657352Y-92747118D01*
X221811853Y-92634866D01*
X221820331Y-92625450D01*
X221935221Y-92497852D01*
X221935222Y-92497851D01*
X221939640Y-92492944D01*
X222004739Y-92380190D01*
X222031823Y-92333279D01*
X222031824Y-92333278D01*
X222035127Y-92327556D01*
X222094142Y-92145928D01*
X222101667Y-92074328D01*
X222128680Y-92008672D01*
X222186901Y-91968042D01*
X222257846Y-91965339D01*
X222316072Y-91998404D01*
X222991569Y-92673902D01*
X223660395Y-93342728D01*
X223694421Y-93405040D01*
X223697300Y-93431823D01*
X223697300Y-94671742D01*
X223677212Y-94739997D01*
X223649105Y-94783611D01*
X223646696Y-94790231D01*
X223646695Y-94790232D01*
X223610798Y-94888859D01*
X223590904Y-94943516D01*
X223569576Y-95112343D01*
X223586182Y-95281699D01*
X223588406Y-95288384D01*
X223588406Y-95288385D01*
X223610984Y-95356257D01*
X223639895Y-95443167D01*
X223643542Y-95449189D01*
X223643543Y-95449191D01*
X223679652Y-95508813D01*
X223728047Y-95588723D01*
X223732943Y-95593793D01*
X223740008Y-95601109D01*
X223846256Y-95711131D01*
X223988646Y-95804309D01*
X224148142Y-95863625D01*
X224155123Y-95864556D01*
X224155125Y-95864557D01*
X224201226Y-95870708D01*
X224316815Y-95886131D01*
X224323826Y-95885493D01*
X224323830Y-95885493D01*
X224435224Y-95875355D01*
X224461580Y-95872956D01*
X224531233Y-95886701D01*
X224582398Y-95935922D01*
X224599000Y-95998437D01*
X224599000Y-100759422D01*
X224578912Y-100827677D01*
X224512705Y-100930411D01*
X224510296Y-100937031D01*
X224510295Y-100937032D01*
X224458273Y-101079961D01*
X224454504Y-101090316D01*
X224433176Y-101259143D01*
X224449782Y-101428499D01*
X224452006Y-101435184D01*
X224452006Y-101435185D01*
X224470369Y-101490385D01*
X224503495Y-101589967D01*
X224507142Y-101595989D01*
X224507143Y-101595991D01*
X224532878Y-101638484D01*
X224591647Y-101735523D01*
X224596543Y-101740593D01*
X224626026Y-101771123D01*
X224709856Y-101857931D01*
X224852246Y-101951109D01*
X225011742Y-102010425D01*
X225018723Y-102011356D01*
X225018725Y-102011357D01*
X225064826Y-102017508D01*
X225180415Y-102032931D01*
X225187426Y-102032293D01*
X225187430Y-102032293D01*
X225342861Y-102018147D01*
X225349882Y-102017508D01*
X225356584Y-102015330D01*
X225356586Y-102015330D01*
X225505023Y-101967100D01*
X225505026Y-101967099D01*
X225511722Y-101964923D01*
X225605935Y-101908761D01*
X225651834Y-101881400D01*
X225651837Y-101881398D01*
X225657889Y-101877790D01*
X225781120Y-101760438D01*
X225785287Y-101754167D01*
X225838615Y-101673902D01*
X225875290Y-101618702D01*
X225885168Y-101592699D01*
X225933217Y-101466209D01*
X225933218Y-101466206D01*
X225935718Y-101459624D01*
X225959400Y-101291113D01*
X225959698Y-101269800D01*
X225940730Y-101100692D01*
X225884767Y-100939990D01*
X225812946Y-100825051D01*
X225793800Y-100758282D01*
X225793800Y-98216918D01*
X225813802Y-98148797D01*
X225867458Y-98102304D01*
X225937732Y-98092200D01*
X225982791Y-98109220D01*
X225983066Y-98108676D01*
X225988148Y-98111243D01*
X225988795Y-98111488D01*
X225995246Y-98115709D01*
X226154742Y-98175025D01*
X226161723Y-98175956D01*
X226161725Y-98175957D01*
X226207826Y-98182108D01*
X226323415Y-98197531D01*
X226330426Y-98196893D01*
X226330430Y-98196893D01*
X226485861Y-98182747D01*
X226492882Y-98182108D01*
X226499584Y-98179930D01*
X226499586Y-98179930D01*
X226648023Y-98131700D01*
X226648026Y-98131699D01*
X226654722Y-98129523D01*
X226781296Y-98054070D01*
X226794834Y-98046000D01*
X226794837Y-98045998D01*
X226800889Y-98042390D01*
X226924120Y-97925038D01*
X226929461Y-97917000D01*
X227010175Y-97795516D01*
X227018290Y-97783302D01*
X227020790Y-97776721D01*
X227076217Y-97630809D01*
X227076218Y-97630806D01*
X227078718Y-97624224D01*
X227102400Y-97455713D01*
X227102698Y-97434400D01*
X227093377Y-97351295D01*
X227084515Y-97272288D01*
X227084514Y-97272285D01*
X227083730Y-97265292D01*
X227027767Y-97104590D01*
X227019182Y-97090850D01*
X226941325Y-96966253D01*
X226937592Y-96960279D01*
X226856826Y-96878948D01*
X226822649Y-96844531D01*
X226822645Y-96844528D01*
X226817685Y-96839533D01*
X226674008Y-96748352D01*
X226513700Y-96691269D01*
X226483116Y-96687622D01*
X226476381Y-96686819D01*
X226411108Y-96658891D01*
X226371295Y-96600108D01*
X226365300Y-96561705D01*
X226365300Y-91682896D01*
X226386352Y-91613168D01*
X226442895Y-91528064D01*
X226446790Y-91522202D01*
X226483734Y-91424947D01*
X226504717Y-91369709D01*
X226504718Y-91369706D01*
X226507218Y-91363124D01*
X226530900Y-91194613D01*
X226531198Y-91173300D01*
X226512230Y-91004192D01*
X226456267Y-90843490D01*
X226439708Y-90816989D01*
X226369825Y-90705153D01*
X226366092Y-90699179D01*
X226295605Y-90628199D01*
X226251149Y-90583431D01*
X226251145Y-90583428D01*
X226246185Y-90578433D01*
X226102508Y-90487252D01*
X225942200Y-90430169D01*
X225773229Y-90410021D01*
X225766226Y-90410757D01*
X225766225Y-90410757D01*
X225611001Y-90427071D01*
X225610997Y-90427072D01*
X225603993Y-90427808D01*
X225597322Y-90430079D01*
X225449574Y-90480376D01*
X225449571Y-90480377D01*
X225442904Y-90482647D01*
X225436906Y-90486337D01*
X225436904Y-90486338D01*
X225419385Y-90497116D01*
X225297967Y-90571813D01*
X225297778Y-90571505D01*
X225235563Y-90596187D01*
X225165892Y-90582534D01*
X225134572Y-90559505D01*
X225070054Y-90494536D01*
X225070050Y-90494533D01*
X225065085Y-90489533D01*
X224921408Y-90398352D01*
X224761100Y-90341269D01*
X224592129Y-90321121D01*
X224585126Y-90321857D01*
X224585125Y-90321857D01*
X224429901Y-90338171D01*
X224429897Y-90338172D01*
X224422893Y-90338908D01*
X224416222Y-90341179D01*
X224268474Y-90391476D01*
X224268471Y-90391477D01*
X224261804Y-90393747D01*
X224255806Y-90397437D01*
X224255804Y-90397438D01*
X224192148Y-90436600D01*
X224116867Y-90482913D01*
X224111836Y-90487840D01*
X224111833Y-90487842D01*
X224084619Y-90514492D01*
X223995286Y-90601973D01*
X223903105Y-90745011D01*
X223844904Y-90904916D01*
X223823576Y-91073743D01*
X223840182Y-91243099D01*
X223842406Y-91249784D01*
X223842406Y-91249785D01*
X223853984Y-91284590D01*
X223893895Y-91404567D01*
X223897542Y-91410590D01*
X223897544Y-91410593D01*
X223929151Y-91462781D01*
X223947331Y-91531410D01*
X223925521Y-91598974D01*
X223870646Y-91644021D01*
X223800128Y-91652248D01*
X223732281Y-91617148D01*
X221587650Y-89472517D01*
X221580074Y-89464191D01*
X221575953Y-89457697D01*
X221526134Y-89410914D01*
X221523293Y-89408160D01*
X221503494Y-89388361D01*
X221500369Y-89385937D01*
X221500360Y-89385929D01*
X221500274Y-89385863D01*
X221491249Y-89378155D01*
X221472566Y-89360611D01*
X221458906Y-89347783D01*
X221449430Y-89342573D01*
X221441071Y-89337978D01*
X221424553Y-89327127D01*
X221408467Y-89314650D01*
X221367734Y-89297024D01*
X221357086Y-89291807D01*
X221345458Y-89285415D01*
X221318203Y-89270431D01*
X221310528Y-89268460D01*
X221310522Y-89268458D01*
X221298489Y-89265369D01*
X221279787Y-89258966D01*
X221261108Y-89250883D01*
X221225164Y-89245190D01*
X221217273Y-89243940D01*
X221205660Y-89241535D01*
X221162682Y-89230500D01*
X221142335Y-89230500D01*
X221122624Y-89228949D01*
X221110350Y-89227005D01*
X221102521Y-89225765D01*
X221094629Y-89226511D01*
X221058344Y-89229941D01*
X221046486Y-89230500D01*
X220501863Y-89230500D01*
X220433742Y-89210498D01*
X220387249Y-89156842D01*
X220377089Y-89086966D01*
X220393706Y-88968732D01*
X220396251Y-88950621D01*
X220396251Y-88950618D01*
X220396800Y-88946713D01*
X220397098Y-88925400D01*
X220384658Y-88814491D01*
X220378915Y-88763288D01*
X220378914Y-88763285D01*
X220378130Y-88756292D01*
X220322167Y-88595590D01*
X220316182Y-88586011D01*
X220235725Y-88457253D01*
X220231992Y-88451279D01*
X220140801Y-88359450D01*
X220117049Y-88335531D01*
X220117045Y-88335528D01*
X220112085Y-88330533D01*
X219968408Y-88239352D01*
X219808100Y-88182269D01*
X219639129Y-88162121D01*
X219632126Y-88162857D01*
X219632125Y-88162857D01*
X219476901Y-88179171D01*
X219476897Y-88179172D01*
X219469893Y-88179908D01*
X219463222Y-88182179D01*
X219315474Y-88232476D01*
X219315471Y-88232477D01*
X219308804Y-88234747D01*
X219302806Y-88238437D01*
X219302804Y-88238438D01*
X219255856Y-88267321D01*
X219163867Y-88323913D01*
X219158836Y-88328840D01*
X219158833Y-88328842D01*
X219120456Y-88366424D01*
X219042286Y-88442973D01*
X218950105Y-88586011D01*
X218947696Y-88592631D01*
X218947695Y-88592632D01*
X218900124Y-88723331D01*
X218891904Y-88745916D01*
X218870576Y-88914743D01*
X218887182Y-89084099D01*
X218889406Y-89090784D01*
X218889406Y-89090785D01*
X218907097Y-89143965D01*
X218940895Y-89245567D01*
X218944542Y-89251589D01*
X218944543Y-89251591D01*
X218991930Y-89329836D01*
X219010109Y-89398465D01*
X218990066Y-89463362D01*
X218949305Y-89526611D01*
X218946896Y-89533231D01*
X218946895Y-89533232D01*
X218900272Y-89661327D01*
X218891104Y-89686516D01*
X218869776Y-89855343D01*
X207136731Y-89855343D01*
X207138000Y-89846313D01*
X207138117Y-89837964D01*
X207138243Y-89828961D01*
X207138243Y-89828955D01*
X207138298Y-89825000D01*
X207126225Y-89717366D01*
X207120115Y-89662888D01*
X207120114Y-89662885D01*
X207119330Y-89655892D01*
X207063367Y-89495190D01*
X207057382Y-89485611D01*
X206976925Y-89356853D01*
X206973192Y-89350879D01*
X206913238Y-89290506D01*
X206858249Y-89235131D01*
X206858245Y-89235128D01*
X206853285Y-89230133D01*
X206709608Y-89138952D01*
X206549300Y-89081869D01*
X206380329Y-89061721D01*
X206373326Y-89062457D01*
X206373325Y-89062457D01*
X206218101Y-89078771D01*
X206218097Y-89078772D01*
X206211093Y-89079508D01*
X206204422Y-89081779D01*
X206056674Y-89132076D01*
X206056671Y-89132077D01*
X206050004Y-89134347D01*
X206044006Y-89138037D01*
X206044004Y-89138038D01*
X206001456Y-89164214D01*
X205905067Y-89223513D01*
X205900036Y-89228440D01*
X205900033Y-89228442D01*
X205853255Y-89274251D01*
X205783486Y-89342573D01*
X205691305Y-89485611D01*
X205688896Y-89492231D01*
X205688895Y-89492232D01*
X205639318Y-89628442D01*
X205633104Y-89645516D01*
X205632221Y-89652506D01*
X205624315Y-89715086D01*
X205595933Y-89780163D01*
X205536873Y-89819564D01*
X205484391Y-89824408D01*
X205419994Y-89816730D01*
X205389729Y-89813121D01*
X205382726Y-89813857D01*
X205382725Y-89813857D01*
X205227501Y-89830171D01*
X205227497Y-89830172D01*
X205220493Y-89830908D01*
X205213822Y-89833179D01*
X205066074Y-89883476D01*
X205066071Y-89883477D01*
X205059404Y-89885747D01*
X205053406Y-89889437D01*
X205053404Y-89889438D01*
X205008081Y-89917321D01*
X204914467Y-89974913D01*
X204909436Y-89979840D01*
X204909433Y-89979842D01*
X204856799Y-90031385D01*
X204792886Y-90093973D01*
X204700705Y-90237011D01*
X204698296Y-90243630D01*
X204647291Y-90383765D01*
X204642504Y-90396916D01*
X204621176Y-90565743D01*
X201956989Y-90565743D01*
X201959646Y-90558749D01*
X202011817Y-90421409D01*
X202011818Y-90421406D01*
X202014318Y-90414824D01*
X202038000Y-90246313D01*
X202038298Y-90225000D01*
X202028977Y-90141895D01*
X202020115Y-90062888D01*
X202020114Y-90062885D01*
X202019330Y-90055892D01*
X201963367Y-89895190D01*
X201957467Y-89885747D01*
X201876925Y-89756853D01*
X201873192Y-89750879D01*
X201785911Y-89662987D01*
X201758249Y-89635131D01*
X201758245Y-89635128D01*
X201753285Y-89630133D01*
X201609608Y-89538952D01*
X201449300Y-89481869D01*
X201280329Y-89461721D01*
X201273326Y-89462457D01*
X201273325Y-89462457D01*
X201118101Y-89478771D01*
X201118097Y-89478772D01*
X201111093Y-89479508D01*
X201104422Y-89481779D01*
X200956674Y-89532076D01*
X200956671Y-89532077D01*
X200950004Y-89534347D01*
X200944006Y-89538037D01*
X200944004Y-89538038D01*
X200936379Y-89542729D01*
X200805067Y-89623513D01*
X200800036Y-89628440D01*
X200800033Y-89628442D01*
X200789357Y-89638897D01*
X200683486Y-89742573D01*
X200591305Y-89885611D01*
X200588896Y-89892231D01*
X200588895Y-89892232D01*
X200543232Y-90017690D01*
X200533104Y-90045516D01*
X200511776Y-90214343D01*
X196984827Y-90214343D01*
X197009720Y-90190638D01*
X197014287Y-90183765D01*
X197073945Y-90093973D01*
X197103890Y-90048902D01*
X197112917Y-90025138D01*
X197161817Y-89896409D01*
X197161818Y-89896406D01*
X197164318Y-89889824D01*
X197188000Y-89721313D01*
X197188298Y-89700000D01*
X197174722Y-89578961D01*
X197170115Y-89537888D01*
X197170114Y-89537885D01*
X197169330Y-89530892D01*
X197113367Y-89370190D01*
X197107382Y-89360611D01*
X197026925Y-89231853D01*
X197023192Y-89225879D01*
X196952498Y-89154690D01*
X196908249Y-89110131D01*
X196908245Y-89110128D01*
X196903285Y-89105133D01*
X196759608Y-89013952D01*
X196599300Y-88956869D01*
X196430329Y-88936721D01*
X196423326Y-88937457D01*
X196423325Y-88937457D01*
X196268101Y-88953771D01*
X196268097Y-88953772D01*
X196261093Y-88954508D01*
X196254422Y-88956779D01*
X196106674Y-89007076D01*
X196106671Y-89007077D01*
X196100004Y-89009347D01*
X196094006Y-89013037D01*
X196094004Y-89013038D01*
X196035460Y-89049055D01*
X195955067Y-89098513D01*
X195950036Y-89103440D01*
X195950033Y-89103442D01*
X195900737Y-89151716D01*
X195833486Y-89217573D01*
X195741305Y-89360611D01*
X195738896Y-89367231D01*
X195738895Y-89367232D01*
X195688357Y-89506083D01*
X195683104Y-89520516D01*
X195661776Y-89689343D01*
X195678382Y-89858699D01*
X195681798Y-89868968D01*
X195681884Y-89871398D01*
X195682070Y-89872271D01*
X195681917Y-89872304D01*
X195684320Y-89939917D01*
X195648083Y-90000970D01*
X195584591Y-90032739D01*
X195514002Y-90025138D01*
X195494725Y-90015122D01*
X195461964Y-89994331D01*
X195461958Y-89994328D01*
X195456008Y-89990552D01*
X195295700Y-89933469D01*
X195126729Y-89913321D01*
X195119726Y-89914057D01*
X195119725Y-89914057D01*
X194964501Y-89930371D01*
X194964497Y-89930372D01*
X194957493Y-89931108D01*
X194950822Y-89933379D01*
X194803074Y-89983676D01*
X194803071Y-89983677D01*
X194796404Y-89985947D01*
X194790406Y-89989637D01*
X194790404Y-89989638D01*
X194740780Y-90020167D01*
X194651467Y-90075113D01*
X194646436Y-90080040D01*
X194646433Y-90080042D01*
X194617894Y-90107990D01*
X194529886Y-90194173D01*
X194437705Y-90337211D01*
X194435296Y-90343831D01*
X194435295Y-90343832D01*
X194386017Y-90479222D01*
X194379504Y-90497116D01*
X194358176Y-90665943D01*
X157953100Y-90665943D01*
X157953100Y-89564343D01*
X185686776Y-89564343D01*
X185703382Y-89733699D01*
X185757095Y-89895167D01*
X185760742Y-89901189D01*
X185760743Y-89901191D01*
X185821172Y-90000970D01*
X185845247Y-90040723D01*
X185850143Y-90045793D01*
X185866652Y-90062888D01*
X185963456Y-90163131D01*
X186105846Y-90256309D01*
X186265342Y-90315625D01*
X186272323Y-90316556D01*
X186272325Y-90316557D01*
X186318426Y-90322708D01*
X186434015Y-90338131D01*
X186441026Y-90337493D01*
X186441030Y-90337493D01*
X186596461Y-90323347D01*
X186603482Y-90322708D01*
X186610184Y-90320530D01*
X186610186Y-90320530D01*
X186758623Y-90272300D01*
X186758626Y-90272299D01*
X186765322Y-90270123D01*
X186858894Y-90214343D01*
X186905434Y-90186600D01*
X186905437Y-90186598D01*
X186911489Y-90182990D01*
X187034720Y-90065638D01*
X187041196Y-90055892D01*
X187105108Y-89959696D01*
X187128890Y-89923902D01*
X187139797Y-89895190D01*
X187186817Y-89771409D01*
X187186818Y-89771406D01*
X187189318Y-89764824D01*
X187213000Y-89596313D01*
X187213298Y-89575000D01*
X187202587Y-89479508D01*
X187195115Y-89412888D01*
X187195114Y-89412885D01*
X187194330Y-89405892D01*
X187187797Y-89387132D01*
X187184283Y-89316222D01*
X187219664Y-89254670D01*
X187282706Y-89222017D01*
X187323451Y-89220801D01*
X187330427Y-89221731D01*
X187342415Y-89223331D01*
X187349426Y-89222693D01*
X187349430Y-89222693D01*
X187504861Y-89208547D01*
X187511882Y-89207908D01*
X187518584Y-89205730D01*
X187518586Y-89205730D01*
X187667023Y-89157500D01*
X187667026Y-89157499D01*
X187673722Y-89155323D01*
X187760753Y-89103442D01*
X187813834Y-89071800D01*
X187813837Y-89071798D01*
X187819889Y-89068190D01*
X187943120Y-88950838D01*
X187950924Y-88939093D01*
X188011913Y-88847297D01*
X188037290Y-88809102D01*
X188047311Y-88782722D01*
X188095217Y-88656609D01*
X188095218Y-88656606D01*
X188097718Y-88650024D01*
X188121400Y-88481513D01*
X188121517Y-88473164D01*
X188121643Y-88464161D01*
X188121643Y-88464155D01*
X188121698Y-88460200D01*
X188110397Y-88359450D01*
X188103515Y-88298088D01*
X188103514Y-88298085D01*
X188102730Y-88291092D01*
X188046767Y-88130390D01*
X188041122Y-88121355D01*
X188036740Y-88114343D01*
X190786776Y-88114343D01*
X190803382Y-88283699D01*
X190805606Y-88290384D01*
X190805606Y-88290385D01*
X190820547Y-88335299D01*
X190857095Y-88445167D01*
X190860742Y-88451189D01*
X190860743Y-88451191D01*
X190900592Y-88516989D01*
X190945247Y-88590723D01*
X191063456Y-88713131D01*
X191205846Y-88806309D01*
X191291920Y-88838319D01*
X191348795Y-88880812D01*
X191373669Y-88947308D01*
X191358644Y-89016697D01*
X191353911Y-89024672D01*
X191266305Y-89160611D01*
X191263896Y-89167231D01*
X191263895Y-89167232D01*
X191210513Y-89313897D01*
X191208104Y-89320516D01*
X191186776Y-89489343D01*
X191203382Y-89658699D01*
X191257095Y-89820167D01*
X191260742Y-89826189D01*
X191260743Y-89826191D01*
X191278048Y-89854764D01*
X191345247Y-89965723D01*
X191350143Y-89970793D01*
X191364777Y-89985947D01*
X191463456Y-90088131D01*
X191605846Y-90181309D01*
X191765342Y-90240625D01*
X191772323Y-90241556D01*
X191772325Y-90241557D01*
X191807971Y-90246313D01*
X191934015Y-90263131D01*
X191941026Y-90262493D01*
X191941030Y-90262493D01*
X192096461Y-90248347D01*
X192103482Y-90247708D01*
X192110184Y-90245530D01*
X192110186Y-90245530D01*
X192258623Y-90197300D01*
X192258626Y-90197299D01*
X192265322Y-90195123D01*
X192337067Y-90152354D01*
X192405434Y-90111600D01*
X192405437Y-90111598D01*
X192411489Y-90107990D01*
X192534720Y-89990638D01*
X192628890Y-89848902D01*
X192631390Y-89842321D01*
X192686817Y-89696409D01*
X192686818Y-89696406D01*
X192689318Y-89689824D01*
X192713000Y-89521313D01*
X192713298Y-89500000D01*
X192702363Y-89402506D01*
X192695115Y-89337888D01*
X192695114Y-89337885D01*
X192694330Y-89330892D01*
X192638367Y-89170190D01*
X192632382Y-89160611D01*
X192551925Y-89031853D01*
X192548192Y-89025879D01*
X192476585Y-88953771D01*
X192433249Y-88910131D01*
X192433245Y-88910128D01*
X192428285Y-88905133D01*
X192284608Y-88813952D01*
X192208771Y-88786948D01*
X192151310Y-88745256D01*
X192125509Y-88679113D01*
X192139564Y-88609521D01*
X192146092Y-88598522D01*
X192209696Y-88502791D01*
X192228890Y-88473902D01*
X192239382Y-88446281D01*
X192286817Y-88321409D01*
X192286818Y-88321406D01*
X192289318Y-88314824D01*
X192313000Y-88146313D01*
X192313298Y-88125000D01*
X192303977Y-88041895D01*
X192295115Y-87962888D01*
X192295114Y-87962885D01*
X192294330Y-87955892D01*
X192292119Y-87949543D01*
X200404776Y-87949543D01*
X200421382Y-88118899D01*
X200423606Y-88125584D01*
X200423606Y-88125585D01*
X200425583Y-88131527D01*
X200475095Y-88280367D01*
X200478742Y-88286389D01*
X200478743Y-88286391D01*
X200512412Y-88341985D01*
X200563247Y-88425923D01*
X200568143Y-88430993D01*
X200581831Y-88445167D01*
X200681456Y-88548331D01*
X200823846Y-88641509D01*
X200983342Y-88700825D01*
X200990323Y-88701756D01*
X200990325Y-88701757D01*
X201036426Y-88707908D01*
X201152015Y-88723331D01*
X201159026Y-88722693D01*
X201159030Y-88722693D01*
X201314461Y-88708547D01*
X201321482Y-88707908D01*
X201328184Y-88705730D01*
X201328186Y-88705730D01*
X201476623Y-88657500D01*
X201476626Y-88657499D01*
X201483322Y-88655323D01*
X201583525Y-88595590D01*
X201623434Y-88571800D01*
X201623437Y-88571798D01*
X201629489Y-88568190D01*
X201752720Y-88450838D01*
X201758228Y-88442549D01*
X201808805Y-88366424D01*
X201846890Y-88309102D01*
X201855517Y-88286391D01*
X201904817Y-88156609D01*
X201904818Y-88156606D01*
X201907318Y-88150024D01*
X201931000Y-87981513D01*
X201931298Y-87960200D01*
X201926155Y-87914343D01*
X206461776Y-87914343D01*
X206478382Y-88083699D01*
X206480606Y-88090384D01*
X206480606Y-88090385D01*
X206492533Y-88126238D01*
X206532095Y-88245167D01*
X206535742Y-88251189D01*
X206535743Y-88251191D01*
X206559788Y-88290893D01*
X206620247Y-88390723D01*
X206625143Y-88395793D01*
X206659136Y-88430993D01*
X206738456Y-88513131D01*
X206880846Y-88606309D01*
X207040342Y-88665625D01*
X207047323Y-88666556D01*
X207047325Y-88666557D01*
X207088839Y-88672096D01*
X207209015Y-88688131D01*
X207216026Y-88687493D01*
X207216030Y-88687493D01*
X207371461Y-88673347D01*
X207378482Y-88672708D01*
X207385184Y-88670530D01*
X207385186Y-88670530D01*
X207533623Y-88622300D01*
X207533626Y-88622299D01*
X207540322Y-88620123D01*
X207621385Y-88571800D01*
X207680434Y-88536600D01*
X207680437Y-88536598D01*
X207686489Y-88532990D01*
X207809720Y-88415638D01*
X207903890Y-88273902D01*
X207912517Y-88251191D01*
X207944900Y-88165943D01*
X209383176Y-88165943D01*
X209399782Y-88335299D01*
X209453495Y-88496767D01*
X209457142Y-88502789D01*
X209457143Y-88502791D01*
X209472487Y-88528127D01*
X209541647Y-88642323D01*
X209546543Y-88647393D01*
X209561779Y-88663170D01*
X209659856Y-88764731D01*
X209802246Y-88857909D01*
X209961742Y-88917225D01*
X209968723Y-88918156D01*
X209968725Y-88918157D01*
X210014826Y-88924308D01*
X210130415Y-88939731D01*
X210137426Y-88939093D01*
X210137430Y-88939093D01*
X210292861Y-88924947D01*
X210299882Y-88924308D01*
X210306584Y-88922130D01*
X210306586Y-88922130D01*
X210455023Y-88873900D01*
X210455026Y-88873899D01*
X210461722Y-88871723D01*
X210555863Y-88815604D01*
X210601834Y-88788200D01*
X210601837Y-88788198D01*
X210607889Y-88784590D01*
X210731120Y-88667238D01*
X210739037Y-88655323D01*
X210785961Y-88584696D01*
X210825290Y-88525502D01*
X210835215Y-88499375D01*
X210883217Y-88373009D01*
X210883218Y-88373006D01*
X210885718Y-88366424D01*
X210909400Y-88197913D01*
X210909620Y-88182179D01*
X210909643Y-88180561D01*
X210909643Y-88180555D01*
X210909698Y-88176600D01*
X210892025Y-88019038D01*
X210891515Y-88014488D01*
X210891514Y-88014485D01*
X210890730Y-88007492D01*
X210834767Y-87846790D01*
X210828782Y-87837211D01*
X210748325Y-87708453D01*
X210744592Y-87702479D01*
X210673004Y-87630390D01*
X210629649Y-87586731D01*
X210629645Y-87586728D01*
X210624685Y-87581733D01*
X210481008Y-87490552D01*
X210320700Y-87433469D01*
X210151729Y-87413321D01*
X210144726Y-87414057D01*
X210144725Y-87414057D01*
X209989501Y-87430371D01*
X209989497Y-87430372D01*
X209982493Y-87431108D01*
X209975822Y-87433379D01*
X209828074Y-87483676D01*
X209828071Y-87483677D01*
X209821404Y-87485947D01*
X209815406Y-87489637D01*
X209815404Y-87489638D01*
X209752398Y-87528400D01*
X209676467Y-87575113D01*
X209671436Y-87580040D01*
X209671433Y-87580042D01*
X209649169Y-87601845D01*
X209554886Y-87694173D01*
X209462705Y-87837211D01*
X209460296Y-87843831D01*
X209460295Y-87843832D01*
X209408760Y-87985423D01*
X209404504Y-87997116D01*
X209383176Y-88165943D01*
X207944900Y-88165943D01*
X207961817Y-88121409D01*
X207961818Y-88121406D01*
X207964318Y-88114824D01*
X207988000Y-87946313D01*
X207988298Y-87925000D01*
X207973068Y-87789214D01*
X207970115Y-87762888D01*
X207970114Y-87762885D01*
X207969330Y-87755892D01*
X207913367Y-87595190D01*
X207907550Y-87585880D01*
X207826925Y-87456853D01*
X207823192Y-87450879D01*
X207818148Y-87445799D01*
X207772164Y-87399494D01*
X207748647Y-87375813D01*
X207714840Y-87313383D01*
X207720151Y-87242586D01*
X207762896Y-87185898D01*
X207799117Y-87167196D01*
X207902823Y-87133500D01*
X207902826Y-87133499D01*
X207909522Y-87131323D01*
X207981267Y-87088554D01*
X208049634Y-87047800D01*
X208049637Y-87047798D01*
X208055689Y-87044190D01*
X208178920Y-86926838D01*
X208192109Y-86906988D01*
X208242137Y-86831689D01*
X208273090Y-86785102D01*
X208278884Y-86769849D01*
X208331017Y-86632609D01*
X208331018Y-86632606D01*
X208333518Y-86626024D01*
X208350984Y-86501743D01*
X213180976Y-86501743D01*
X213197582Y-86671099D01*
X213251295Y-86832567D01*
X213254942Y-86838589D01*
X213254943Y-86838591D01*
X213296366Y-86906988D01*
X213339447Y-86978123D01*
X213344343Y-86983193D01*
X213362367Y-87001857D01*
X213457656Y-87100531D01*
X213600046Y-87193709D01*
X213759542Y-87253025D01*
X213766523Y-87253956D01*
X213766525Y-87253957D01*
X213812626Y-87260108D01*
X213928215Y-87275531D01*
X213935226Y-87274893D01*
X213935230Y-87274893D01*
X214090661Y-87260747D01*
X214097682Y-87260108D01*
X214104384Y-87257930D01*
X214104386Y-87257930D01*
X214252823Y-87209700D01*
X214252826Y-87209699D01*
X214259522Y-87207523D01*
X214387349Y-87131323D01*
X214399634Y-87124000D01*
X214399637Y-87123998D01*
X214405689Y-87120390D01*
X214528920Y-87003038D01*
X214538316Y-86988897D01*
X214596101Y-86901923D01*
X214623090Y-86861302D01*
X214628854Y-86846129D01*
X214681017Y-86708809D01*
X214681018Y-86708806D01*
X214683518Y-86702224D01*
X214707200Y-86533713D01*
X214707498Y-86512400D01*
X214696205Y-86411721D01*
X214689315Y-86350288D01*
X214689314Y-86350285D01*
X214688530Y-86343292D01*
X214632567Y-86182590D01*
X214626582Y-86173011D01*
X214546125Y-86044253D01*
X214542392Y-86038279D01*
X214472654Y-85968053D01*
X214427449Y-85922531D01*
X214427445Y-85922528D01*
X214422485Y-85917533D01*
X214278808Y-85826352D01*
X214118500Y-85769269D01*
X213949529Y-85749121D01*
X213942526Y-85749857D01*
X213942525Y-85749857D01*
X213787301Y-85766171D01*
X213787297Y-85766172D01*
X213780293Y-85766908D01*
X213773622Y-85769179D01*
X213625874Y-85819476D01*
X213625871Y-85819477D01*
X213619204Y-85821747D01*
X213613206Y-85825437D01*
X213613204Y-85825438D01*
X213598128Y-85834713D01*
X213474267Y-85910913D01*
X213469236Y-85915840D01*
X213469233Y-85915842D01*
X213435533Y-85948844D01*
X213352686Y-86029973D01*
X213260505Y-86173011D01*
X213258096Y-86179631D01*
X213258095Y-86179632D01*
X213204713Y-86326297D01*
X213202304Y-86332916D01*
X213180976Y-86501743D01*
X208350984Y-86501743D01*
X208357200Y-86457513D01*
X208357317Y-86449164D01*
X208357443Y-86440161D01*
X208357443Y-86440155D01*
X208357498Y-86436200D01*
X208341828Y-86296497D01*
X208339315Y-86274088D01*
X208339314Y-86274085D01*
X208338530Y-86267092D01*
X208282567Y-86106390D01*
X208276582Y-86096811D01*
X208196125Y-85968053D01*
X208192392Y-85962079D01*
X208115385Y-85884533D01*
X208077449Y-85846331D01*
X208077445Y-85846328D01*
X208072485Y-85841333D01*
X207928808Y-85750152D01*
X207768500Y-85693069D01*
X207599529Y-85672921D01*
X207592526Y-85673657D01*
X207592525Y-85673657D01*
X207437301Y-85689971D01*
X207437297Y-85689972D01*
X207430293Y-85690708D01*
X207423622Y-85692979D01*
X207275874Y-85743276D01*
X207275871Y-85743277D01*
X207269204Y-85745547D01*
X207263206Y-85749237D01*
X207263204Y-85749238D01*
X207229217Y-85770147D01*
X207124267Y-85834713D01*
X207119236Y-85839640D01*
X207119233Y-85839642D01*
X207090141Y-85868131D01*
X207002686Y-85953773D01*
X206910505Y-86096811D01*
X206908096Y-86103431D01*
X206908095Y-86103432D01*
X206876244Y-86190942D01*
X206852304Y-86256716D01*
X206830976Y-86425543D01*
X206847582Y-86594899D01*
X206901295Y-86756367D01*
X206904942Y-86762389D01*
X206904943Y-86762391D01*
X206920069Y-86787367D01*
X206989447Y-86901923D01*
X207070994Y-86986366D01*
X207103925Y-87049261D01*
X207097625Y-87119978D01*
X207054093Y-87176063D01*
X207020961Y-87193170D01*
X206906674Y-87232076D01*
X206906671Y-87232077D01*
X206900004Y-87234347D01*
X206894006Y-87238037D01*
X206894004Y-87238038D01*
X206868128Y-87253957D01*
X206755067Y-87323513D01*
X206750036Y-87328440D01*
X206750033Y-87328442D01*
X206694276Y-87383043D01*
X206633486Y-87442573D01*
X206541305Y-87585611D01*
X206538896Y-87592231D01*
X206538895Y-87592232D01*
X206492597Y-87719434D01*
X206483104Y-87745516D01*
X206461776Y-87914343D01*
X201926155Y-87914343D01*
X201916839Y-87831290D01*
X201913115Y-87798088D01*
X201913114Y-87798085D01*
X201912330Y-87791092D01*
X201856367Y-87630390D01*
X201850382Y-87620811D01*
X201769925Y-87492053D01*
X201766192Y-87486079D01*
X201694768Y-87414155D01*
X201651249Y-87370331D01*
X201651245Y-87370328D01*
X201646285Y-87365333D01*
X201502608Y-87274152D01*
X201342300Y-87217069D01*
X201173329Y-87196921D01*
X201166326Y-87197657D01*
X201166325Y-87197657D01*
X201011101Y-87213971D01*
X201011097Y-87213972D01*
X201004093Y-87214708D01*
X200997422Y-87216979D01*
X200849674Y-87267276D01*
X200849671Y-87267277D01*
X200843004Y-87269547D01*
X200837006Y-87273237D01*
X200837004Y-87273238D01*
X200821143Y-87282996D01*
X200698067Y-87358713D01*
X200693036Y-87363640D01*
X200693033Y-87363642D01*
X200660511Y-87395490D01*
X200576486Y-87477773D01*
X200484305Y-87620811D01*
X200481896Y-87627431D01*
X200481895Y-87627432D01*
X200449270Y-87717069D01*
X200426104Y-87780716D01*
X200404776Y-87949543D01*
X192292119Y-87949543D01*
X192238367Y-87795190D01*
X192233000Y-87786600D01*
X192191030Y-87719434D01*
X192148192Y-87650879D01*
X192147030Y-87649709D01*
X192121193Y-87585880D01*
X192134362Y-87516116D01*
X192182059Y-87465194D01*
X192190907Y-87459920D01*
X192240476Y-87430371D01*
X192292934Y-87399100D01*
X192292937Y-87399098D01*
X192298989Y-87395490D01*
X192422220Y-87278138D01*
X192467691Y-87209700D01*
X192484827Y-87183908D01*
X192497826Y-87164343D01*
X194986776Y-87164343D01*
X195003382Y-87333699D01*
X195057095Y-87495167D01*
X195060742Y-87501189D01*
X195060743Y-87501191D01*
X195103277Y-87571422D01*
X195145247Y-87640723D01*
X195150143Y-87645793D01*
X195169307Y-87665638D01*
X195263456Y-87763131D01*
X195405846Y-87856309D01*
X195565342Y-87915625D01*
X195572323Y-87916556D01*
X195572325Y-87916557D01*
X195618426Y-87922708D01*
X195734015Y-87938131D01*
X195741026Y-87937493D01*
X195741030Y-87937493D01*
X195896461Y-87923347D01*
X195903482Y-87922708D01*
X195910184Y-87920530D01*
X195910186Y-87920530D01*
X196058623Y-87872300D01*
X196058626Y-87872299D01*
X196065322Y-87870123D01*
X196165856Y-87810193D01*
X196205434Y-87786600D01*
X196205437Y-87786598D01*
X196211489Y-87782990D01*
X196334720Y-87665638D01*
X196350045Y-87642573D01*
X196394865Y-87575113D01*
X196428890Y-87523902D01*
X196437517Y-87501191D01*
X196486817Y-87371409D01*
X196486818Y-87371406D01*
X196489318Y-87364824D01*
X196513000Y-87196313D01*
X196513146Y-87185898D01*
X196513243Y-87178961D01*
X196513243Y-87178955D01*
X196513298Y-87175000D01*
X196499757Y-87054279D01*
X196495115Y-87012888D01*
X196495114Y-87012885D01*
X196494330Y-87005892D01*
X196438367Y-86845190D01*
X196432382Y-86835611D01*
X196351925Y-86706853D01*
X196348192Y-86700879D01*
X196273226Y-86625388D01*
X196233249Y-86585131D01*
X196233245Y-86585128D01*
X196228285Y-86580133D01*
X196084608Y-86488952D01*
X195924300Y-86431869D01*
X195755329Y-86411721D01*
X195748326Y-86412457D01*
X195748325Y-86412457D01*
X195593101Y-86428771D01*
X195593097Y-86428772D01*
X195586093Y-86429508D01*
X195579422Y-86431779D01*
X195431674Y-86482076D01*
X195431671Y-86482077D01*
X195425004Y-86484347D01*
X195419006Y-86488037D01*
X195419004Y-86488038D01*
X195372966Y-86516361D01*
X195280067Y-86573513D01*
X195275036Y-86578440D01*
X195275033Y-86578442D01*
X195226444Y-86626024D01*
X195158486Y-86692573D01*
X195066305Y-86835611D01*
X195063896Y-86842231D01*
X195063895Y-86842232D01*
X195011435Y-86986365D01*
X195008104Y-86995516D01*
X194986776Y-87164343D01*
X192497826Y-87164343D01*
X192516390Y-87136402D01*
X192518890Y-87129821D01*
X192574317Y-86983909D01*
X192574318Y-86983906D01*
X192576818Y-86977324D01*
X192600500Y-86808813D01*
X192600798Y-86787500D01*
X192590446Y-86695209D01*
X192582615Y-86625388D01*
X192582614Y-86625385D01*
X192581830Y-86618392D01*
X192525867Y-86457690D01*
X192519882Y-86448111D01*
X192439425Y-86319353D01*
X192435692Y-86313379D01*
X192371994Y-86249235D01*
X192320749Y-86197631D01*
X192320745Y-86197628D01*
X192315785Y-86192633D01*
X192172108Y-86101452D01*
X192011800Y-86044369D01*
X191842829Y-86024221D01*
X191835826Y-86024957D01*
X191835825Y-86024957D01*
X191680601Y-86041271D01*
X191680597Y-86041272D01*
X191673593Y-86042008D01*
X191666922Y-86044279D01*
X191519174Y-86094576D01*
X191519171Y-86094577D01*
X191512504Y-86096847D01*
X191506506Y-86100537D01*
X191506504Y-86100538D01*
X191440035Y-86141430D01*
X191367567Y-86186013D01*
X191362536Y-86190940D01*
X191362533Y-86190942D01*
X191342108Y-86210944D01*
X191245986Y-86305073D01*
X191153805Y-86448111D01*
X191151396Y-86454731D01*
X191151395Y-86454732D01*
X191102929Y-86587890D01*
X191095604Y-86608016D01*
X191074276Y-86776843D01*
X191090882Y-86946199D01*
X191093106Y-86952884D01*
X191093106Y-86952885D01*
X191107839Y-86997173D01*
X191144595Y-87107667D01*
X191148242Y-87113689D01*
X191148243Y-87113691D01*
X191223551Y-87238038D01*
X191232747Y-87253223D01*
X191237647Y-87258297D01*
X191240191Y-87261600D01*
X191265909Y-87327775D01*
X191251768Y-87397349D01*
X191206387Y-87445799D01*
X191086073Y-87519817D01*
X191086067Y-87519822D01*
X191080067Y-87523513D01*
X191075036Y-87528440D01*
X191075033Y-87528442D01*
X191027374Y-87575113D01*
X190958486Y-87642573D01*
X190866305Y-87785611D01*
X190863896Y-87792231D01*
X190863895Y-87792232D01*
X190811131Y-87937199D01*
X190808104Y-87945516D01*
X190786776Y-88114343D01*
X188036740Y-88114343D01*
X187960325Y-87992053D01*
X187956592Y-87986079D01*
X187892027Y-87921062D01*
X187841649Y-87870331D01*
X187841645Y-87870328D01*
X187836685Y-87865333D01*
X187693008Y-87774152D01*
X187532700Y-87717069D01*
X187363729Y-87696921D01*
X187356726Y-87697657D01*
X187356725Y-87697657D01*
X187201501Y-87713971D01*
X187201497Y-87713972D01*
X187194493Y-87714708D01*
X187187822Y-87716979D01*
X187040074Y-87767276D01*
X187040071Y-87767277D01*
X187033404Y-87769547D01*
X187027406Y-87773237D01*
X187027404Y-87773238D01*
X187007292Y-87785611D01*
X186888467Y-87858713D01*
X186883436Y-87863640D01*
X186883433Y-87863642D01*
X186874592Y-87872300D01*
X186766886Y-87977773D01*
X186674705Y-88120811D01*
X186672296Y-88127431D01*
X186672295Y-88127432D01*
X186629443Y-88245167D01*
X186616504Y-88280716D01*
X186595176Y-88449543D01*
X186611782Y-88618899D01*
X186622367Y-88650719D01*
X186624890Y-88721669D01*
X186588654Y-88782722D01*
X186525162Y-88814491D01*
X186487893Y-88815604D01*
X186455329Y-88811721D01*
X186448326Y-88812457D01*
X186448325Y-88812457D01*
X186293101Y-88828771D01*
X186293097Y-88828772D01*
X186286093Y-88829508D01*
X186279422Y-88831779D01*
X186131674Y-88882076D01*
X186131671Y-88882077D01*
X186125004Y-88884347D01*
X186119006Y-88888037D01*
X186119004Y-88888038D01*
X186064198Y-88921755D01*
X185980067Y-88973513D01*
X185975036Y-88978440D01*
X185975033Y-88978442D01*
X185935074Y-89017573D01*
X185858486Y-89092573D01*
X185766305Y-89235611D01*
X185763896Y-89242231D01*
X185763895Y-89242232D01*
X185710708Y-89388361D01*
X185708104Y-89395516D01*
X185686776Y-89564343D01*
X157953100Y-89564343D01*
X157953100Y-89502666D01*
X157946345Y-89440484D01*
X157895215Y-89304095D01*
X157807861Y-89187539D01*
X157691305Y-89100185D01*
X157554916Y-89049055D01*
X157492734Y-89042300D01*
X155746466Y-89042300D01*
X155684284Y-89049055D01*
X155547895Y-89100185D01*
X155431339Y-89187539D01*
X155343985Y-89304095D01*
X155292855Y-89440484D01*
X155286100Y-89502666D01*
X155286100Y-91248934D01*
X151333700Y-91248934D01*
X151333700Y-87581974D01*
X162682545Y-87581974D01*
X162682842Y-87587126D01*
X162682842Y-87587130D01*
X162690335Y-87717069D01*
X162695413Y-87805141D01*
X162696550Y-87810187D01*
X162696551Y-87810193D01*
X162727581Y-87947883D01*
X162744557Y-88023210D01*
X162785651Y-88124414D01*
X162820286Y-88209709D01*
X162828657Y-88230325D01*
X162831362Y-88234740D01*
X162831363Y-88234741D01*
X162859323Y-88280367D01*
X162945456Y-88420922D01*
X163091815Y-88589884D01*
X163095790Y-88593184D01*
X163095793Y-88593187D01*
X163128238Y-88620123D01*
X163263805Y-88732673D01*
X163456807Y-88845454D01*
X163461627Y-88847294D01*
X163461632Y-88847297D01*
X163599794Y-88900055D01*
X163665637Y-88925198D01*
X163670705Y-88926229D01*
X163670708Y-88926230D01*
X163771385Y-88946713D01*
X163884687Y-88969765D01*
X163889860Y-88969955D01*
X163889863Y-88969955D01*
X164102911Y-88977767D01*
X164102915Y-88977767D01*
X164108075Y-88977956D01*
X164113195Y-88977300D01*
X164113197Y-88977300D01*
X164324673Y-88950209D01*
X164324674Y-88950209D01*
X164329801Y-88949552D01*
X164365643Y-88938799D01*
X164538957Y-88886802D01*
X164543910Y-88885316D01*
X164548549Y-88883043D01*
X164548555Y-88883041D01*
X164740016Y-88789245D01*
X164744654Y-88786973D01*
X164842768Y-88716989D01*
X164922427Y-88660169D01*
X164922432Y-88660165D01*
X164926639Y-88657164D01*
X165084980Y-88499375D01*
X165215424Y-88317843D01*
X165233774Y-88280716D01*
X165312173Y-88122087D01*
X165312174Y-88122085D01*
X165314467Y-88117445D01*
X165379450Y-87903560D01*
X165408628Y-87681935D01*
X165408710Y-87678585D01*
X165410174Y-87618666D01*
X165410174Y-87618662D01*
X165410256Y-87615301D01*
X165407516Y-87581974D01*
X166182546Y-87581974D01*
X166182843Y-87587126D01*
X166182843Y-87587130D01*
X166190336Y-87717069D01*
X166195414Y-87805141D01*
X166196551Y-87810187D01*
X166196552Y-87810193D01*
X166227582Y-87947883D01*
X166244558Y-88023210D01*
X166285652Y-88124414D01*
X166320287Y-88209709D01*
X166328658Y-88230325D01*
X166331363Y-88234740D01*
X166331364Y-88234741D01*
X166359324Y-88280367D01*
X166445457Y-88420922D01*
X166591816Y-88589884D01*
X166595791Y-88593184D01*
X166595794Y-88593187D01*
X166628239Y-88620123D01*
X166763806Y-88732673D01*
X166956808Y-88845454D01*
X166961628Y-88847294D01*
X166961633Y-88847297D01*
X167099795Y-88900055D01*
X167165638Y-88925198D01*
X167170706Y-88926229D01*
X167170709Y-88926230D01*
X167271386Y-88946713D01*
X167384688Y-88969765D01*
X167389861Y-88969955D01*
X167389864Y-88969955D01*
X167602912Y-88977767D01*
X167602916Y-88977767D01*
X167608076Y-88977956D01*
X167613196Y-88977300D01*
X167613198Y-88977300D01*
X167824674Y-88950209D01*
X167824675Y-88950209D01*
X167829802Y-88949552D01*
X167865644Y-88938799D01*
X168038958Y-88886802D01*
X168043911Y-88885316D01*
X168048550Y-88883043D01*
X168048556Y-88883041D01*
X168240017Y-88789245D01*
X168244655Y-88786973D01*
X168342769Y-88716989D01*
X168422428Y-88660169D01*
X168422433Y-88660165D01*
X168426640Y-88657164D01*
X168584981Y-88499375D01*
X168715425Y-88317843D01*
X168733775Y-88280716D01*
X168812174Y-88122087D01*
X168812175Y-88122085D01*
X168814468Y-88117445D01*
X168879451Y-87903560D01*
X168908629Y-87681935D01*
X168908711Y-87678585D01*
X168910175Y-87618666D01*
X168910175Y-87618662D01*
X168910257Y-87615301D01*
X168907517Y-87581974D01*
X169682546Y-87581974D01*
X169682843Y-87587126D01*
X169682843Y-87587130D01*
X169690336Y-87717069D01*
X169695414Y-87805141D01*
X169696551Y-87810187D01*
X169696552Y-87810193D01*
X169727582Y-87947883D01*
X169744558Y-88023210D01*
X169785652Y-88124414D01*
X169820287Y-88209709D01*
X169828658Y-88230325D01*
X169831363Y-88234740D01*
X169831364Y-88234741D01*
X169859324Y-88280367D01*
X169945457Y-88420922D01*
X170091816Y-88589884D01*
X170095791Y-88593184D01*
X170095794Y-88593187D01*
X170128239Y-88620123D01*
X170263806Y-88732673D01*
X170456808Y-88845454D01*
X170461628Y-88847294D01*
X170461633Y-88847297D01*
X170599795Y-88900055D01*
X170665638Y-88925198D01*
X170670706Y-88926229D01*
X170670709Y-88926230D01*
X170771386Y-88946713D01*
X170884688Y-88969765D01*
X170889861Y-88969955D01*
X170889864Y-88969955D01*
X171102912Y-88977767D01*
X171102916Y-88977767D01*
X171108076Y-88977956D01*
X171113196Y-88977300D01*
X171113198Y-88977300D01*
X171324674Y-88950209D01*
X171324675Y-88950209D01*
X171329802Y-88949552D01*
X171365644Y-88938799D01*
X171538958Y-88886802D01*
X171543911Y-88885316D01*
X171548550Y-88883043D01*
X171548556Y-88883041D01*
X171740017Y-88789245D01*
X171744655Y-88786973D01*
X171842769Y-88716989D01*
X171922428Y-88660169D01*
X171922433Y-88660165D01*
X171926640Y-88657164D01*
X172084981Y-88499375D01*
X172215425Y-88317843D01*
X172233775Y-88280716D01*
X172312174Y-88122087D01*
X172312175Y-88122085D01*
X172314468Y-88117445D01*
X172379451Y-87903560D01*
X172408629Y-87681935D01*
X172408711Y-87678585D01*
X172410175Y-87618666D01*
X172410175Y-87618662D01*
X172410257Y-87615301D01*
X172407517Y-87581974D01*
X173182547Y-87581974D01*
X173182844Y-87587126D01*
X173182844Y-87587130D01*
X173190337Y-87717069D01*
X173195415Y-87805141D01*
X173196552Y-87810187D01*
X173196553Y-87810193D01*
X173227583Y-87947883D01*
X173244559Y-88023210D01*
X173285653Y-88124414D01*
X173320288Y-88209709D01*
X173328659Y-88230325D01*
X173331364Y-88234740D01*
X173331365Y-88234741D01*
X173359325Y-88280367D01*
X173445458Y-88420922D01*
X173591817Y-88589884D01*
X173595792Y-88593184D01*
X173595795Y-88593187D01*
X173628240Y-88620123D01*
X173763807Y-88732673D01*
X173956809Y-88845454D01*
X173961629Y-88847294D01*
X173961634Y-88847297D01*
X174099796Y-88900055D01*
X174165639Y-88925198D01*
X174170707Y-88926229D01*
X174170710Y-88926230D01*
X174271387Y-88946713D01*
X174384689Y-88969765D01*
X174389862Y-88969955D01*
X174389865Y-88969955D01*
X174602913Y-88977767D01*
X174602917Y-88977767D01*
X174608077Y-88977956D01*
X174613197Y-88977300D01*
X174613199Y-88977300D01*
X174824675Y-88950209D01*
X174824676Y-88950209D01*
X174829803Y-88949552D01*
X174865645Y-88938799D01*
X175038959Y-88886802D01*
X175043912Y-88885316D01*
X175048551Y-88883043D01*
X175048557Y-88883041D01*
X175240018Y-88789245D01*
X175244656Y-88786973D01*
X175342770Y-88716989D01*
X175422429Y-88660169D01*
X175422434Y-88660165D01*
X175426641Y-88657164D01*
X175584982Y-88499375D01*
X175715426Y-88317843D01*
X175733776Y-88280716D01*
X175812175Y-88122087D01*
X175812176Y-88122085D01*
X175814469Y-88117445D01*
X175879452Y-87903560D01*
X175908630Y-87681935D01*
X175908712Y-87678585D01*
X175910176Y-87618666D01*
X175910176Y-87618662D01*
X175910258Y-87615301D01*
X175907518Y-87581974D01*
X176682548Y-87581974D01*
X176682845Y-87587126D01*
X176682845Y-87587130D01*
X176690338Y-87717069D01*
X176695416Y-87805141D01*
X176696553Y-87810187D01*
X176696554Y-87810193D01*
X176727584Y-87947883D01*
X176744560Y-88023210D01*
X176785654Y-88124414D01*
X176820289Y-88209709D01*
X176828660Y-88230325D01*
X176831365Y-88234740D01*
X176831366Y-88234741D01*
X176859326Y-88280367D01*
X176945459Y-88420922D01*
X177091818Y-88589884D01*
X177095793Y-88593184D01*
X177095796Y-88593187D01*
X177128241Y-88620123D01*
X177263808Y-88732673D01*
X177456810Y-88845454D01*
X177461630Y-88847294D01*
X177461635Y-88847297D01*
X177599797Y-88900055D01*
X177665640Y-88925198D01*
X177670708Y-88926229D01*
X177670711Y-88926230D01*
X177771388Y-88946713D01*
X177884690Y-88969765D01*
X177889863Y-88969955D01*
X177889866Y-88969955D01*
X178102914Y-88977767D01*
X178102918Y-88977767D01*
X178108078Y-88977956D01*
X178113198Y-88977300D01*
X178113200Y-88977300D01*
X178324676Y-88950209D01*
X178324677Y-88950209D01*
X178329804Y-88949552D01*
X178365646Y-88938799D01*
X178538960Y-88886802D01*
X178543913Y-88885316D01*
X178548552Y-88883043D01*
X178548558Y-88883041D01*
X178740019Y-88789245D01*
X178744657Y-88786973D01*
X178842771Y-88716989D01*
X178922430Y-88660169D01*
X178922435Y-88660165D01*
X178926642Y-88657164D01*
X179084983Y-88499375D01*
X179215427Y-88317843D01*
X179233777Y-88280716D01*
X179312176Y-88122087D01*
X179312177Y-88122085D01*
X179314470Y-88117445D01*
X179379453Y-87903560D01*
X179408631Y-87681935D01*
X179408713Y-87678585D01*
X179410177Y-87618666D01*
X179410177Y-87618662D01*
X179410259Y-87615301D01*
X179407519Y-87581974D01*
X180182551Y-87581974D01*
X180182848Y-87587126D01*
X180182848Y-87587130D01*
X180190341Y-87717069D01*
X180195419Y-87805141D01*
X180196556Y-87810187D01*
X180196557Y-87810193D01*
X180227587Y-87947883D01*
X180244563Y-88023210D01*
X180285657Y-88124414D01*
X180320292Y-88209709D01*
X180328663Y-88230325D01*
X180331368Y-88234740D01*
X180331369Y-88234741D01*
X180359329Y-88280367D01*
X180445462Y-88420922D01*
X180591821Y-88589884D01*
X180595796Y-88593184D01*
X180595799Y-88593187D01*
X180628244Y-88620123D01*
X180763811Y-88732673D01*
X180956813Y-88845454D01*
X180961633Y-88847294D01*
X180961638Y-88847297D01*
X181099800Y-88900055D01*
X181165643Y-88925198D01*
X181170711Y-88926229D01*
X181170714Y-88926230D01*
X181271391Y-88946713D01*
X181384693Y-88969765D01*
X181389866Y-88969955D01*
X181389869Y-88969955D01*
X181602917Y-88977767D01*
X181602921Y-88977767D01*
X181608081Y-88977956D01*
X181613201Y-88977300D01*
X181613203Y-88977300D01*
X181824679Y-88950209D01*
X181824680Y-88950209D01*
X181829807Y-88949552D01*
X181865649Y-88938799D01*
X182038963Y-88886802D01*
X182043916Y-88885316D01*
X182048555Y-88883043D01*
X182048561Y-88883041D01*
X182240022Y-88789245D01*
X182244660Y-88786973D01*
X182342774Y-88716989D01*
X182422433Y-88660169D01*
X182422438Y-88660165D01*
X182426645Y-88657164D01*
X182584986Y-88499375D01*
X182620794Y-88449543D01*
X183597976Y-88449543D01*
X183614582Y-88618899D01*
X183668295Y-88780367D01*
X183671942Y-88786389D01*
X183671943Y-88786391D01*
X183698056Y-88829508D01*
X183756447Y-88925923D01*
X183761343Y-88930993D01*
X183806062Y-88977300D01*
X183874656Y-89048331D01*
X184017046Y-89141509D01*
X184176542Y-89200825D01*
X184183523Y-89201756D01*
X184183525Y-89201757D01*
X184229626Y-89207908D01*
X184345215Y-89223331D01*
X184352226Y-89222693D01*
X184352230Y-89222693D01*
X184507661Y-89208547D01*
X184514682Y-89207908D01*
X184521384Y-89205730D01*
X184521386Y-89205730D01*
X184669823Y-89157500D01*
X184669826Y-89157499D01*
X184676522Y-89155323D01*
X184763553Y-89103442D01*
X184816634Y-89071800D01*
X184816637Y-89071798D01*
X184822689Y-89068190D01*
X184945920Y-88950838D01*
X184953724Y-88939093D01*
X185014713Y-88847297D01*
X185040090Y-88809102D01*
X185050111Y-88782722D01*
X185098017Y-88656609D01*
X185098018Y-88656606D01*
X185100518Y-88650024D01*
X185124200Y-88481513D01*
X185124317Y-88473164D01*
X185124443Y-88464161D01*
X185124443Y-88464155D01*
X185124498Y-88460200D01*
X185113197Y-88359450D01*
X185106315Y-88298088D01*
X185106314Y-88298085D01*
X185105530Y-88291092D01*
X185049567Y-88130390D01*
X185043922Y-88121355D01*
X184963125Y-87992053D01*
X184959392Y-87986079D01*
X184894827Y-87921062D01*
X184844449Y-87870331D01*
X184844445Y-87870328D01*
X184839485Y-87865333D01*
X184695808Y-87774152D01*
X184535500Y-87717069D01*
X184366529Y-87696921D01*
X184359526Y-87697657D01*
X184359525Y-87697657D01*
X184204301Y-87713971D01*
X184204297Y-87713972D01*
X184197293Y-87714708D01*
X184190622Y-87716979D01*
X184042874Y-87767276D01*
X184042871Y-87767277D01*
X184036204Y-87769547D01*
X184030206Y-87773237D01*
X184030204Y-87773238D01*
X184010092Y-87785611D01*
X183891267Y-87858713D01*
X183886236Y-87863640D01*
X183886233Y-87863642D01*
X183877392Y-87872300D01*
X183769686Y-87977773D01*
X183677505Y-88120811D01*
X183675096Y-88127431D01*
X183675095Y-88127432D01*
X183632243Y-88245167D01*
X183619304Y-88280716D01*
X183597976Y-88449543D01*
X182620794Y-88449543D01*
X182715430Y-88317843D01*
X182733780Y-88280716D01*
X182812179Y-88122087D01*
X182812180Y-88122085D01*
X182814473Y-88117445D01*
X182879456Y-87903560D01*
X182908634Y-87681935D01*
X182908716Y-87678585D01*
X182910180Y-87618666D01*
X182910180Y-87618662D01*
X182910262Y-87615301D01*
X182891946Y-87392515D01*
X182846025Y-87209700D01*
X182838747Y-87180724D01*
X182838747Y-87180723D01*
X182837488Y-87175712D01*
X182762408Y-87003038D01*
X182750413Y-86975451D01*
X182750411Y-86975448D01*
X182748353Y-86970714D01*
X182657121Y-86829690D01*
X182629741Y-86787367D01*
X182629739Y-86787364D01*
X182626933Y-86783027D01*
X182476489Y-86617691D01*
X182472438Y-86614492D01*
X182472434Y-86614488D01*
X182329674Y-86501743D01*
X184097976Y-86501743D01*
X184114582Y-86671099D01*
X184168295Y-86832567D01*
X184171942Y-86838589D01*
X184171943Y-86838591D01*
X184213366Y-86906988D01*
X184256447Y-86978123D01*
X184261343Y-86983193D01*
X184279367Y-87001857D01*
X184374656Y-87100531D01*
X184517046Y-87193709D01*
X184676542Y-87253025D01*
X184683523Y-87253956D01*
X184683525Y-87253957D01*
X184729626Y-87260108D01*
X184845215Y-87275531D01*
X184852226Y-87274893D01*
X184852230Y-87274893D01*
X185007661Y-87260747D01*
X185014682Y-87260108D01*
X185021384Y-87257930D01*
X185021386Y-87257930D01*
X185169823Y-87209700D01*
X185169826Y-87209699D01*
X185176522Y-87207523D01*
X185304349Y-87131323D01*
X185316634Y-87124000D01*
X185316637Y-87123998D01*
X185322689Y-87120390D01*
X185445920Y-87003038D01*
X185455316Y-86988897D01*
X185513101Y-86901923D01*
X185540090Y-86861302D01*
X185545854Y-86846129D01*
X185598017Y-86708809D01*
X185598018Y-86708806D01*
X185600518Y-86702224D01*
X185624200Y-86533713D01*
X185624498Y-86512400D01*
X185613205Y-86411721D01*
X185606315Y-86350288D01*
X185606314Y-86350285D01*
X185605530Y-86343292D01*
X185549567Y-86182590D01*
X185543582Y-86173011D01*
X185463125Y-86044253D01*
X185459392Y-86038279D01*
X185389654Y-85968053D01*
X185344449Y-85922531D01*
X185344445Y-85922528D01*
X185339485Y-85917533D01*
X185195808Y-85826352D01*
X185035500Y-85769269D01*
X184866529Y-85749121D01*
X184859526Y-85749857D01*
X184859525Y-85749857D01*
X184704301Y-85766171D01*
X184704297Y-85766172D01*
X184697293Y-85766908D01*
X184690622Y-85769179D01*
X184542874Y-85819476D01*
X184542871Y-85819477D01*
X184536204Y-85821747D01*
X184530206Y-85825437D01*
X184530204Y-85825438D01*
X184515128Y-85834713D01*
X184391267Y-85910913D01*
X184386236Y-85915840D01*
X184386233Y-85915842D01*
X184352533Y-85948844D01*
X184269686Y-86029973D01*
X184177505Y-86173011D01*
X184175096Y-86179631D01*
X184175095Y-86179632D01*
X184121713Y-86326297D01*
X184119304Y-86332916D01*
X184097976Y-86501743D01*
X182329674Y-86501743D01*
X182305117Y-86482349D01*
X182305113Y-86482347D01*
X182301062Y-86479147D01*
X182268269Y-86461044D01*
X182219702Y-86434234D01*
X182105362Y-86371115D01*
X181928206Y-86308381D01*
X181899518Y-86298222D01*
X181899515Y-86298221D01*
X181894646Y-86296497D01*
X181889557Y-86295590D01*
X181889555Y-86295590D01*
X181679661Y-86258202D01*
X181679655Y-86258201D01*
X181674572Y-86257296D01*
X181588910Y-86256249D01*
X181456220Y-86254628D01*
X181456218Y-86254628D01*
X181451051Y-86254565D01*
X181230085Y-86288377D01*
X181114069Y-86326297D01*
X181022528Y-86356217D01*
X181022526Y-86356218D01*
X181017609Y-86357825D01*
X181013023Y-86360212D01*
X181013019Y-86360214D01*
X180859444Y-86440161D01*
X180819328Y-86461044D01*
X180814489Y-86464677D01*
X180654059Y-86585131D01*
X180640568Y-86595260D01*
X180486130Y-86756871D01*
X180483216Y-86761143D01*
X180483215Y-86761144D01*
X180429432Y-86839987D01*
X180360161Y-86941535D01*
X180346617Y-86970714D01*
X180272064Y-87131323D01*
X180266043Y-87144294D01*
X180206305Y-87359702D01*
X180182551Y-87581974D01*
X179407519Y-87581974D01*
X179391943Y-87392515D01*
X179346022Y-87209700D01*
X179338744Y-87180724D01*
X179338744Y-87180723D01*
X179337485Y-87175712D01*
X179262405Y-87003038D01*
X179250410Y-86975451D01*
X179250408Y-86975448D01*
X179248350Y-86970714D01*
X179157118Y-86829690D01*
X179129738Y-86787367D01*
X179129736Y-86787364D01*
X179126930Y-86783027D01*
X178976486Y-86617691D01*
X178972435Y-86614492D01*
X178972431Y-86614488D01*
X178805114Y-86482349D01*
X178805110Y-86482347D01*
X178801059Y-86479147D01*
X178768266Y-86461044D01*
X178719699Y-86434234D01*
X178605359Y-86371115D01*
X178428203Y-86308381D01*
X178399515Y-86298222D01*
X178399512Y-86298221D01*
X178394643Y-86296497D01*
X178389554Y-86295590D01*
X178389552Y-86295590D01*
X178179658Y-86258202D01*
X178179652Y-86258201D01*
X178174569Y-86257296D01*
X178088907Y-86256249D01*
X177956217Y-86254628D01*
X177956215Y-86254628D01*
X177951048Y-86254565D01*
X177730082Y-86288377D01*
X177614066Y-86326297D01*
X177522525Y-86356217D01*
X177522523Y-86356218D01*
X177517606Y-86357825D01*
X177513020Y-86360212D01*
X177513016Y-86360214D01*
X177359441Y-86440161D01*
X177319325Y-86461044D01*
X177314486Y-86464677D01*
X177154056Y-86585131D01*
X177140565Y-86595260D01*
X176986127Y-86756871D01*
X176983213Y-86761143D01*
X176983212Y-86761144D01*
X176929429Y-86839987D01*
X176860158Y-86941535D01*
X176846614Y-86970714D01*
X176772061Y-87131323D01*
X176766040Y-87144294D01*
X176706302Y-87359702D01*
X176682548Y-87581974D01*
X175907518Y-87581974D01*
X175891942Y-87392515D01*
X175846021Y-87209700D01*
X175838743Y-87180724D01*
X175838743Y-87180723D01*
X175837484Y-87175712D01*
X175762404Y-87003038D01*
X175750409Y-86975451D01*
X175750407Y-86975448D01*
X175748349Y-86970714D01*
X175657117Y-86829690D01*
X175629737Y-86787367D01*
X175629735Y-86787364D01*
X175626929Y-86783027D01*
X175476485Y-86617691D01*
X175472434Y-86614492D01*
X175472430Y-86614488D01*
X175305113Y-86482349D01*
X175305109Y-86482347D01*
X175301058Y-86479147D01*
X175268265Y-86461044D01*
X175219698Y-86434234D01*
X175105358Y-86371115D01*
X174928202Y-86308381D01*
X174899514Y-86298222D01*
X174899511Y-86298221D01*
X174894642Y-86296497D01*
X174889553Y-86295590D01*
X174889551Y-86295590D01*
X174679657Y-86258202D01*
X174679651Y-86258201D01*
X174674568Y-86257296D01*
X174588906Y-86256249D01*
X174456216Y-86254628D01*
X174456214Y-86254628D01*
X174451047Y-86254565D01*
X174230081Y-86288377D01*
X174114065Y-86326297D01*
X174022524Y-86356217D01*
X174022522Y-86356218D01*
X174017605Y-86357825D01*
X174013019Y-86360212D01*
X174013015Y-86360214D01*
X173859440Y-86440161D01*
X173819324Y-86461044D01*
X173814485Y-86464677D01*
X173654055Y-86585131D01*
X173640564Y-86595260D01*
X173486126Y-86756871D01*
X173483212Y-86761143D01*
X173483211Y-86761144D01*
X173429428Y-86839987D01*
X173360157Y-86941535D01*
X173346613Y-86970714D01*
X173272060Y-87131323D01*
X173266039Y-87144294D01*
X173206301Y-87359702D01*
X173182547Y-87581974D01*
X172407517Y-87581974D01*
X172391941Y-87392515D01*
X172346020Y-87209700D01*
X172338742Y-87180724D01*
X172338742Y-87180723D01*
X172337483Y-87175712D01*
X172262403Y-87003038D01*
X172250408Y-86975451D01*
X172250406Y-86975448D01*
X172248348Y-86970714D01*
X172157116Y-86829690D01*
X172129736Y-86787367D01*
X172129734Y-86787364D01*
X172126928Y-86783027D01*
X171976484Y-86617691D01*
X171972433Y-86614492D01*
X171972429Y-86614488D01*
X171805112Y-86482349D01*
X171805108Y-86482347D01*
X171801057Y-86479147D01*
X171768264Y-86461044D01*
X171719697Y-86434234D01*
X171605357Y-86371115D01*
X171428201Y-86308381D01*
X171399513Y-86298222D01*
X171399510Y-86298221D01*
X171394641Y-86296497D01*
X171389552Y-86295590D01*
X171389550Y-86295590D01*
X171179656Y-86258202D01*
X171179650Y-86258201D01*
X171174567Y-86257296D01*
X171088905Y-86256249D01*
X170956215Y-86254628D01*
X170956213Y-86254628D01*
X170951046Y-86254565D01*
X170730080Y-86288377D01*
X170614064Y-86326297D01*
X170522523Y-86356217D01*
X170522521Y-86356218D01*
X170517604Y-86357825D01*
X170513018Y-86360212D01*
X170513014Y-86360214D01*
X170359439Y-86440161D01*
X170319323Y-86461044D01*
X170314484Y-86464677D01*
X170154054Y-86585131D01*
X170140563Y-86595260D01*
X169986125Y-86756871D01*
X169983211Y-86761143D01*
X169983210Y-86761144D01*
X169929427Y-86839987D01*
X169860156Y-86941535D01*
X169846612Y-86970714D01*
X169772059Y-87131323D01*
X169766038Y-87144294D01*
X169706300Y-87359702D01*
X169682546Y-87581974D01*
X168907517Y-87581974D01*
X168891941Y-87392515D01*
X168846020Y-87209700D01*
X168838742Y-87180724D01*
X168838742Y-87180723D01*
X168837483Y-87175712D01*
X168762403Y-87003038D01*
X168750408Y-86975451D01*
X168750406Y-86975448D01*
X168748348Y-86970714D01*
X168657116Y-86829690D01*
X168629736Y-86787367D01*
X168629734Y-86787364D01*
X168626928Y-86783027D01*
X168476484Y-86617691D01*
X168472433Y-86614492D01*
X168472429Y-86614488D01*
X168305112Y-86482349D01*
X168305108Y-86482347D01*
X168301057Y-86479147D01*
X168268264Y-86461044D01*
X168219697Y-86434234D01*
X168105357Y-86371115D01*
X167928201Y-86308381D01*
X167899513Y-86298222D01*
X167899510Y-86298221D01*
X167894641Y-86296497D01*
X167889552Y-86295590D01*
X167889550Y-86295590D01*
X167679656Y-86258202D01*
X167679650Y-86258201D01*
X167674567Y-86257296D01*
X167588905Y-86256249D01*
X167456215Y-86254628D01*
X167456213Y-86254628D01*
X167451046Y-86254565D01*
X167230080Y-86288377D01*
X167114064Y-86326297D01*
X167022523Y-86356217D01*
X167022521Y-86356218D01*
X167017604Y-86357825D01*
X167013018Y-86360212D01*
X167013014Y-86360214D01*
X166859439Y-86440161D01*
X166819323Y-86461044D01*
X166814484Y-86464677D01*
X166654054Y-86585131D01*
X166640563Y-86595260D01*
X166486125Y-86756871D01*
X166483211Y-86761143D01*
X166483210Y-86761144D01*
X166429427Y-86839987D01*
X166360156Y-86941535D01*
X166346612Y-86970714D01*
X166272059Y-87131323D01*
X166266038Y-87144294D01*
X166206300Y-87359702D01*
X166182546Y-87581974D01*
X165407516Y-87581974D01*
X165391940Y-87392515D01*
X165346019Y-87209700D01*
X165338741Y-87180724D01*
X165338741Y-87180723D01*
X165337482Y-87175712D01*
X165262402Y-87003038D01*
X165250407Y-86975451D01*
X165250405Y-86975448D01*
X165248347Y-86970714D01*
X165157115Y-86829690D01*
X165129735Y-86787367D01*
X165129733Y-86787364D01*
X165126927Y-86783027D01*
X164976483Y-86617691D01*
X164972432Y-86614492D01*
X164972428Y-86614488D01*
X164805111Y-86482349D01*
X164805107Y-86482347D01*
X164801056Y-86479147D01*
X164768263Y-86461044D01*
X164719696Y-86434234D01*
X164605356Y-86371115D01*
X164428200Y-86308381D01*
X164399512Y-86298222D01*
X164399509Y-86298221D01*
X164394640Y-86296497D01*
X164389551Y-86295590D01*
X164389549Y-86295590D01*
X164179655Y-86258202D01*
X164179649Y-86258201D01*
X164174566Y-86257296D01*
X164088904Y-86256249D01*
X163956214Y-86254628D01*
X163956212Y-86254628D01*
X163951045Y-86254565D01*
X163730079Y-86288377D01*
X163614063Y-86326297D01*
X163522522Y-86356217D01*
X163522520Y-86356218D01*
X163517603Y-86357825D01*
X163513017Y-86360212D01*
X163513013Y-86360214D01*
X163359438Y-86440161D01*
X163319322Y-86461044D01*
X163314483Y-86464677D01*
X163154053Y-86585131D01*
X163140562Y-86595260D01*
X162986124Y-86756871D01*
X162983210Y-86761143D01*
X162983209Y-86761144D01*
X162929426Y-86839987D01*
X162860155Y-86941535D01*
X162846611Y-86970714D01*
X162772058Y-87131323D01*
X162766037Y-87144294D01*
X162706299Y-87359702D01*
X162682545Y-87581974D01*
X151333700Y-87581974D01*
X151333700Y-84689533D01*
X152470622Y-84689533D01*
X152470775Y-84693921D01*
X152470775Y-84693927D01*
X152477765Y-84894077D01*
X152480425Y-84970258D01*
X152481187Y-84974581D01*
X152481188Y-84974588D01*
X152504964Y-85109424D01*
X152529202Y-85246887D01*
X152616003Y-85514035D01*
X152617931Y-85517988D01*
X152617933Y-85517993D01*
X152667069Y-85618735D01*
X152739140Y-85766502D01*
X152741595Y-85770141D01*
X152741598Y-85770147D01*
X152778938Y-85825505D01*
X152896215Y-85999376D01*
X152899160Y-86002647D01*
X152899161Y-86002648D01*
X152923765Y-86029973D01*
X153084171Y-86208122D01*
X153299350Y-86388679D01*
X153537564Y-86537531D01*
X153644475Y-86585131D01*
X153767369Y-86639847D01*
X153794175Y-86651782D01*
X154064190Y-86729207D01*
X154068540Y-86729818D01*
X154068543Y-86729819D01*
X154171490Y-86744287D01*
X154342352Y-86768300D01*
X154552946Y-86768300D01*
X154555132Y-86768147D01*
X154555136Y-86768147D01*
X154758627Y-86753918D01*
X154758632Y-86753917D01*
X154763012Y-86753611D01*
X155037770Y-86695209D01*
X155041899Y-86693706D01*
X155041903Y-86693705D01*
X155297581Y-86600646D01*
X155297585Y-86600644D01*
X155301726Y-86599137D01*
X155549742Y-86467264D01*
X155557538Y-86461600D01*
X155773429Y-86304747D01*
X155773432Y-86304744D01*
X155776992Y-86302158D01*
X155783794Y-86295590D01*
X155885233Y-86197631D01*
X155979052Y-86107031D01*
X156130052Y-85913759D01*
X156149281Y-85889147D01*
X156149282Y-85889146D01*
X156151988Y-85885682D01*
X156154184Y-85881878D01*
X156154189Y-85881871D01*
X156290235Y-85646231D01*
X156292436Y-85642419D01*
X156397662Y-85381976D01*
X156431344Y-85246887D01*
X156464553Y-85113693D01*
X156464554Y-85113688D01*
X156465617Y-85109424D01*
X156475047Y-85019709D01*
X156494519Y-84834436D01*
X156494519Y-84834433D01*
X156494978Y-84830067D01*
X156494742Y-84823300D01*
X156494370Y-84812643D01*
X193153076Y-84812643D01*
X193169682Y-84981999D01*
X193223395Y-85143467D01*
X193227042Y-85149489D01*
X193227043Y-85149491D01*
X193242688Y-85175323D01*
X193311547Y-85289023D01*
X193316443Y-85294093D01*
X193335607Y-85313938D01*
X193429756Y-85411431D01*
X193572146Y-85504609D01*
X193731642Y-85563925D01*
X193738623Y-85564856D01*
X193738625Y-85564857D01*
X193784726Y-85571008D01*
X193900315Y-85586431D01*
X193907326Y-85585793D01*
X193907330Y-85585793D01*
X194062761Y-85571647D01*
X194069782Y-85571008D01*
X194076484Y-85568830D01*
X194076486Y-85568830D01*
X194224923Y-85520600D01*
X194224926Y-85520599D01*
X194231622Y-85518423D01*
X194303367Y-85475654D01*
X194371734Y-85434900D01*
X194371737Y-85434898D01*
X194377789Y-85431290D01*
X194501020Y-85313938D01*
X194595190Y-85172202D01*
X194597690Y-85165621D01*
X194653117Y-85019709D01*
X194653118Y-85019706D01*
X194655618Y-85013124D01*
X194659163Y-84987898D01*
X219070492Y-84987898D01*
X219070849Y-84994715D01*
X219070849Y-84994719D01*
X219075751Y-85088239D01*
X219079970Y-85168747D01*
X219081781Y-85175320D01*
X219081781Y-85175323D01*
X219105151Y-85260166D01*
X219128061Y-85343341D01*
X219212522Y-85503536D01*
X219216927Y-85508749D01*
X219216930Y-85508753D01*
X219325006Y-85636643D01*
X219325010Y-85636647D01*
X219329413Y-85641857D01*
X219334837Y-85646004D01*
X219334838Y-85646005D01*
X219467857Y-85747706D01*
X219467861Y-85747709D01*
X219473278Y-85751850D01*
X219559972Y-85792276D01*
X219631231Y-85825505D01*
X219631234Y-85825506D01*
X219637408Y-85828385D01*
X219644056Y-85829871D01*
X219644059Y-85829872D01*
X219750021Y-85853557D01*
X219814143Y-85867890D01*
X219819688Y-85868200D01*
X220602844Y-85868200D01*
X220737637Y-85853557D01*
X220855790Y-85813794D01*
X220902804Y-85797972D01*
X220902806Y-85797971D01*
X220909275Y-85795794D01*
X221064505Y-85702523D01*
X221069462Y-85697835D01*
X221069465Y-85697833D01*
X221191127Y-85582782D01*
X221191129Y-85582780D01*
X221196085Y-85578093D01*
X221199917Y-85572455D01*
X221199920Y-85572451D01*
X221294042Y-85433955D01*
X221297877Y-85428312D01*
X221365130Y-85260166D01*
X221366244Y-85253438D01*
X221366245Y-85253434D01*
X221393593Y-85088239D01*
X221393593Y-85088236D01*
X221394708Y-85081502D01*
X221391125Y-85013124D01*
X221385587Y-84907466D01*
X221385230Y-84900653D01*
X221365788Y-84830067D01*
X221338952Y-84732641D01*
X221337139Y-84726059D01*
X221252678Y-84565864D01*
X221248273Y-84560651D01*
X221248270Y-84560647D01*
X221140194Y-84432757D01*
X221140190Y-84432753D01*
X221135787Y-84427543D01*
X221113072Y-84410176D01*
X220997343Y-84321694D01*
X220997339Y-84321691D01*
X220991922Y-84317550D01*
X220886786Y-84268525D01*
X220833969Y-84243895D01*
X220833966Y-84243894D01*
X220827792Y-84241015D01*
X220821144Y-84239529D01*
X220821141Y-84239528D01*
X220656094Y-84202636D01*
X220656095Y-84202636D01*
X220651057Y-84201510D01*
X220645512Y-84201200D01*
X219862356Y-84201200D01*
X219727563Y-84215843D01*
X219644209Y-84243895D01*
X219562396Y-84271428D01*
X219562394Y-84271429D01*
X219555925Y-84273606D01*
X219400695Y-84366877D01*
X219395738Y-84371565D01*
X219395735Y-84371567D01*
X219340929Y-84423395D01*
X219269115Y-84491307D01*
X219265283Y-84496945D01*
X219265280Y-84496949D01*
X219214340Y-84571905D01*
X219167323Y-84641088D01*
X219100070Y-84809234D01*
X219098956Y-84815962D01*
X219098955Y-84815966D01*
X219074140Y-84965861D01*
X219070492Y-84987898D01*
X194659163Y-84987898D01*
X194679300Y-84844613D01*
X194679442Y-84834436D01*
X194679543Y-84827261D01*
X194679543Y-84827255D01*
X194679598Y-84823300D01*
X194660630Y-84654192D01*
X194604667Y-84493490D01*
X194598682Y-84483911D01*
X194518225Y-84355153D01*
X194514492Y-84349179D01*
X194439444Y-84273606D01*
X194399549Y-84233431D01*
X194399545Y-84233428D01*
X194394585Y-84228433D01*
X194250908Y-84137252D01*
X194090600Y-84080169D01*
X193921629Y-84060021D01*
X193914626Y-84060757D01*
X193914625Y-84060757D01*
X193759401Y-84077071D01*
X193759397Y-84077072D01*
X193752393Y-84077808D01*
X193745722Y-84080079D01*
X193597974Y-84130376D01*
X193597971Y-84130377D01*
X193591304Y-84132647D01*
X193585306Y-84136337D01*
X193585304Y-84136338D01*
X193583214Y-84137624D01*
X193446367Y-84221813D01*
X193441336Y-84226740D01*
X193441333Y-84226742D01*
X193426758Y-84241015D01*
X193324786Y-84340873D01*
X193232605Y-84483911D01*
X193230196Y-84490531D01*
X193230195Y-84490532D01*
X193177451Y-84635445D01*
X193174404Y-84643816D01*
X193153076Y-84812643D01*
X156494370Y-84812643D01*
X156485329Y-84553739D01*
X156485328Y-84553733D01*
X156485175Y-84549342D01*
X156476501Y-84500145D01*
X156437160Y-84277036D01*
X156436398Y-84272713D01*
X156349597Y-84005565D01*
X156226460Y-83753098D01*
X156224005Y-83749459D01*
X156224002Y-83749453D01*
X156109982Y-83580412D01*
X156069385Y-83520224D01*
X156055784Y-83505118D01*
X155884366Y-83314740D01*
X155881429Y-83311478D01*
X155666250Y-83130921D01*
X155428036Y-82982069D01*
X155171425Y-82867818D01*
X154901410Y-82790393D01*
X154897060Y-82789782D01*
X154897057Y-82789781D01*
X154771440Y-82772127D01*
X154623248Y-82751300D01*
X154412654Y-82751300D01*
X154410468Y-82751453D01*
X154410464Y-82751453D01*
X154206973Y-82765682D01*
X154206968Y-82765683D01*
X154202588Y-82765989D01*
X153927830Y-82824391D01*
X153923701Y-82825894D01*
X153923697Y-82825895D01*
X153668019Y-82918954D01*
X153668015Y-82918956D01*
X153663874Y-82920463D01*
X153415858Y-83052336D01*
X153412299Y-83054922D01*
X153412297Y-83054923D01*
X153297036Y-83138665D01*
X153188608Y-83217442D01*
X152986548Y-83412569D01*
X152813612Y-83633918D01*
X152811416Y-83637722D01*
X152811411Y-83637729D01*
X152697594Y-83834867D01*
X152673164Y-83877181D01*
X152567938Y-84137624D01*
X152566873Y-84141897D01*
X152566872Y-84141899D01*
X152510779Y-84366877D01*
X152499983Y-84410176D01*
X152499524Y-84414544D01*
X152499523Y-84414549D01*
X152475035Y-84647542D01*
X152470622Y-84689533D01*
X151333700Y-84689533D01*
X151333700Y-81000100D01*
X151353702Y-80931979D01*
X151407358Y-80885486D01*
X151459700Y-80874100D01*
X160026308Y-80874100D01*
X160094429Y-80894102D01*
G37*
%TD.AperFunction*%
%TD*%
M02*
