%TF.GenerationSoftware,KiCad,Pcbnew,(6.0.10)*%
%TF.CreationDate,2023-02-02T13:34:45-07:00*%
%TF.ProjectId,Flight-Computer-Lite,466c6967-6874-42d4-936f-6d7075746572,rev?*%
%TF.SameCoordinates,Original*%
%TF.FileFunction,Legend,Bot*%
%TF.FilePolarity,Positive*%
%FSLAX46Y46*%
G04 Gerber Fmt 4.6, Leading zero omitted, Abs format (unit mm)*
G04 Created by KiCad (PCBNEW (6.0.10)) date 2023-02-02 13:34:45*
%MOMM*%
%LPD*%
G01*
G04 APERTURE LIST*
%ADD10C,0.300000*%
%ADD11C,0.150000*%
%ADD12C,0.120000*%
G04 APERTURE END LIST*
D10*
X198909285Y-108657200D02*
X198195000Y-108657200D01*
X199052142Y-109085771D02*
X198552142Y-107585771D01*
X198052142Y-109085771D01*
X197266428Y-107585771D02*
X197123571Y-107585771D01*
X196980714Y-107657200D01*
X196909285Y-107728628D01*
X196837857Y-107871485D01*
X196766428Y-108157200D01*
X196766428Y-108514342D01*
X196837857Y-108800057D01*
X196909285Y-108942914D01*
X196980714Y-109014342D01*
X197123571Y-109085771D01*
X197266428Y-109085771D01*
X197409285Y-109014342D01*
X197480714Y-108942914D01*
X197552142Y-108800057D01*
X197623571Y-108514342D01*
X197623571Y-108157200D01*
X197552142Y-107871485D01*
X197480714Y-107728628D01*
X197409285Y-107657200D01*
X197266428Y-107585771D01*
X195837857Y-107585771D02*
X195695000Y-107585771D01*
X195552142Y-107657200D01*
X195480714Y-107728628D01*
X195409285Y-107871485D01*
X195337857Y-108157200D01*
X195337857Y-108514342D01*
X195409285Y-108800057D01*
X195480714Y-108942914D01*
X195552142Y-109014342D01*
X195695000Y-109085771D01*
X195837857Y-109085771D01*
X195980714Y-109014342D01*
X196052142Y-108942914D01*
X196123571Y-108800057D01*
X196195000Y-108514342D01*
X196195000Y-108157200D01*
X196123571Y-107871485D01*
X196052142Y-107728628D01*
X195980714Y-107657200D01*
X195837857Y-107585771D01*
X194409285Y-107585771D02*
X194266428Y-107585771D01*
X194123571Y-107657200D01*
X194052142Y-107728628D01*
X193980714Y-107871485D01*
X193909285Y-108157200D01*
X193909285Y-108514342D01*
X193980714Y-108800057D01*
X194052142Y-108942914D01*
X194123571Y-109014342D01*
X194266428Y-109085771D01*
X194409285Y-109085771D01*
X194552142Y-109014342D01*
X194623571Y-108942914D01*
X194695000Y-108800057D01*
X194766428Y-108514342D01*
X194766428Y-108157200D01*
X194695000Y-107871485D01*
X194623571Y-107728628D01*
X194552142Y-107657200D01*
X194409285Y-107585771D01*
X193409285Y-107585771D02*
X192409285Y-107585771D01*
X193052142Y-109085771D01*
X190195000Y-108300057D02*
X190695000Y-108300057D01*
X190695000Y-109085771D02*
X190695000Y-107585771D01*
X189980714Y-107585771D01*
X189195000Y-109085771D02*
X189337857Y-109014342D01*
X189409285Y-108871485D01*
X189409285Y-107585771D01*
X188623571Y-109085771D02*
X188623571Y-108085771D01*
X188623571Y-107585771D02*
X188695000Y-107657200D01*
X188623571Y-107728628D01*
X188552142Y-107657200D01*
X188623571Y-107585771D01*
X188623571Y-107728628D01*
X187266428Y-108085771D02*
X187266428Y-109300057D01*
X187337857Y-109442914D01*
X187409285Y-109514342D01*
X187552142Y-109585771D01*
X187766428Y-109585771D01*
X187909285Y-109514342D01*
X187266428Y-109014342D02*
X187409285Y-109085771D01*
X187695000Y-109085771D01*
X187837857Y-109014342D01*
X187909285Y-108942914D01*
X187980714Y-108800057D01*
X187980714Y-108371485D01*
X187909285Y-108228628D01*
X187837857Y-108157200D01*
X187695000Y-108085771D01*
X187409285Y-108085771D01*
X187266428Y-108157200D01*
X186552142Y-109085771D02*
X186552142Y-107585771D01*
X185909285Y-109085771D02*
X185909285Y-108300057D01*
X185980714Y-108157200D01*
X186123571Y-108085771D01*
X186337857Y-108085771D01*
X186480714Y-108157200D01*
X186552142Y-108228628D01*
X185409285Y-108085771D02*
X184837857Y-108085771D01*
X185195000Y-107585771D02*
X185195000Y-108871485D01*
X185123571Y-109014342D01*
X184980714Y-109085771D01*
X184837857Y-109085771D01*
X182337857Y-108942914D02*
X182409285Y-109014342D01*
X182623571Y-109085771D01*
X182766428Y-109085771D01*
X182980714Y-109014342D01*
X183123571Y-108871485D01*
X183195000Y-108728628D01*
X183266428Y-108442914D01*
X183266428Y-108228628D01*
X183195000Y-107942914D01*
X183123571Y-107800057D01*
X182980714Y-107657200D01*
X182766428Y-107585771D01*
X182623571Y-107585771D01*
X182409285Y-107657200D01*
X182337857Y-107728628D01*
X181480714Y-109085771D02*
X181623571Y-109014342D01*
X181695000Y-108942914D01*
X181766428Y-108800057D01*
X181766428Y-108371485D01*
X181695000Y-108228628D01*
X181623571Y-108157200D01*
X181480714Y-108085771D01*
X181266428Y-108085771D01*
X181123571Y-108157200D01*
X181052142Y-108228628D01*
X180980714Y-108371485D01*
X180980714Y-108800057D01*
X181052142Y-108942914D01*
X181123571Y-109014342D01*
X181266428Y-109085771D01*
X181480714Y-109085771D01*
X180337857Y-109085771D02*
X180337857Y-108085771D01*
X180337857Y-108228628D02*
X180266428Y-108157200D01*
X180123571Y-108085771D01*
X179909285Y-108085771D01*
X179766428Y-108157200D01*
X179695000Y-108300057D01*
X179695000Y-109085771D01*
X179695000Y-108300057D02*
X179623571Y-108157200D01*
X179480714Y-108085771D01*
X179266428Y-108085771D01*
X179123571Y-108157200D01*
X179052142Y-108300057D01*
X179052142Y-109085771D01*
X178337857Y-108085771D02*
X178337857Y-109585771D01*
X178337857Y-108157200D02*
X178195000Y-108085771D01*
X177909285Y-108085771D01*
X177766428Y-108157200D01*
X177695000Y-108228628D01*
X177623571Y-108371485D01*
X177623571Y-108800057D01*
X177695000Y-108942914D01*
X177766428Y-109014342D01*
X177909285Y-109085771D01*
X178195000Y-109085771D01*
X178337857Y-109014342D01*
X176337857Y-108085771D02*
X176337857Y-109085771D01*
X176980714Y-108085771D02*
X176980714Y-108871485D01*
X176909285Y-109014342D01*
X176766428Y-109085771D01*
X176552142Y-109085771D01*
X176409285Y-109014342D01*
X176337857Y-108942914D01*
X175837857Y-108085771D02*
X175266428Y-108085771D01*
X175623571Y-107585771D02*
X175623571Y-108871485D01*
X175552142Y-109014342D01*
X175409285Y-109085771D01*
X175266428Y-109085771D01*
X174195000Y-109014342D02*
X174337857Y-109085771D01*
X174623571Y-109085771D01*
X174766428Y-109014342D01*
X174837857Y-108871485D01*
X174837857Y-108300057D01*
X174766428Y-108157200D01*
X174623571Y-108085771D01*
X174337857Y-108085771D01*
X174195000Y-108157200D01*
X174123571Y-108300057D01*
X174123571Y-108442914D01*
X174837857Y-108585771D01*
X173480714Y-109085771D02*
X173480714Y-108085771D01*
X173480714Y-108371485D02*
X173409285Y-108228628D01*
X173337857Y-108157200D01*
X173195000Y-108085771D01*
X173052142Y-108085771D01*
X170695000Y-109085771D02*
X171409285Y-109085771D01*
X171409285Y-107585771D01*
X170195000Y-109085771D02*
X170195000Y-108085771D01*
X170195000Y-107585771D02*
X170266428Y-107657200D01*
X170195000Y-107728628D01*
X170123571Y-107657200D01*
X170195000Y-107585771D01*
X170195000Y-107728628D01*
X169695000Y-108085771D02*
X169123571Y-108085771D01*
X169480714Y-107585771D02*
X169480714Y-108871485D01*
X169409285Y-109014342D01*
X169266428Y-109085771D01*
X169123571Y-109085771D01*
X168052142Y-109014342D02*
X168195000Y-109085771D01*
X168480714Y-109085771D01*
X168623571Y-109014342D01*
X168695000Y-108871485D01*
X168695000Y-108300057D01*
X168623571Y-108157200D01*
X168480714Y-108085771D01*
X168195000Y-108085771D01*
X168052142Y-108157200D01*
X167980714Y-108300057D01*
X167980714Y-108442914D01*
X168695000Y-108585771D01*
X165337857Y-109085771D02*
X165837857Y-108371485D01*
X166195000Y-109085771D02*
X166195000Y-107585771D01*
X165623571Y-107585771D01*
X165480714Y-107657200D01*
X165409285Y-107728628D01*
X165337857Y-107871485D01*
X165337857Y-108085771D01*
X165409285Y-108228628D01*
X165480714Y-108300057D01*
X165623571Y-108371485D01*
X166195000Y-108371485D01*
X164123571Y-109014342D02*
X164266428Y-109085771D01*
X164552142Y-109085771D01*
X164695000Y-109014342D01*
X164766428Y-108871485D01*
X164766428Y-108300057D01*
X164695000Y-108157200D01*
X164552142Y-108085771D01*
X164266428Y-108085771D01*
X164123571Y-108157200D01*
X164052142Y-108300057D01*
X164052142Y-108442914D01*
X164766428Y-108585771D01*
X163552142Y-108085771D02*
X163195000Y-109085771D01*
X162837857Y-108085771D01*
X160337857Y-109085771D02*
X161195000Y-109085771D01*
X160766428Y-109085771D02*
X160766428Y-107585771D01*
X160909285Y-107800057D01*
X161052142Y-107942914D01*
X161195000Y-108014342D01*
X159695000Y-108942914D02*
X159623571Y-109014342D01*
X159695000Y-109085771D01*
X159766428Y-109014342D01*
X159695000Y-108942914D01*
X159695000Y-109085771D01*
X158695000Y-107585771D02*
X158552142Y-107585771D01*
X158409285Y-107657200D01*
X158337857Y-107728628D01*
X158266428Y-107871485D01*
X158195000Y-108157200D01*
X158195000Y-108514342D01*
X158266428Y-108800057D01*
X158337857Y-108942914D01*
X158409285Y-109014342D01*
X158552142Y-109085771D01*
X158695000Y-109085771D01*
X158837857Y-109014342D01*
X158909285Y-108942914D01*
X158980714Y-108800057D01*
X159052142Y-108514342D01*
X159052142Y-108157200D01*
X158980714Y-107871485D01*
X158909285Y-107728628D01*
X158837857Y-107657200D01*
X158695000Y-107585771D01*
D11*
%TO.C,TP1*%
X169917904Y-103338380D02*
X169346476Y-103338380D01*
X169632190Y-104338380D02*
X169632190Y-103338380D01*
X169013142Y-104338380D02*
X169013142Y-103338380D01*
X168632190Y-103338380D01*
X168536952Y-103386000D01*
X168489333Y-103433619D01*
X168441714Y-103528857D01*
X168441714Y-103671714D01*
X168489333Y-103766952D01*
X168536952Y-103814571D01*
X168632190Y-103862190D01*
X169013142Y-103862190D01*
X167489333Y-104338380D02*
X168060761Y-104338380D01*
X167775047Y-104338380D02*
X167775047Y-103338380D01*
X167870285Y-103481238D01*
X167965523Y-103576476D01*
X168060761Y-103624095D01*
D12*
%TO.C,P4*%
X182007203Y-89635301D02*
G75*
G03*
X182007203Y-89635301I-381000J0D01*
G01*
%TD*%
M02*
