%TF.GenerationSoftware,KiCad,Pcbnew,(6.0.9)*%
%TF.CreationDate,2022-12-18T19:34:30-07:00*%
%TF.ProjectId,Flight-Computer-Lite,466c6967-6874-42d4-936f-6d7075746572,rev?*%
%TF.SameCoordinates,Original*%
%TF.FileFunction,Copper,L3,Inr*%
%TF.FilePolarity,Positive*%
%FSLAX46Y46*%
G04 Gerber Fmt 4.6, Leading zero omitted, Abs format (unit mm)*
G04 Created by KiCad (PCBNEW (6.0.9)) date 2022-12-18 19:34:30*
%MOMM*%
%LPD*%
G01*
G04 APERTURE LIST*
%TA.AperFunction,ComponentPad*%
%ADD10C,1.066800*%
%TD*%
%TA.AperFunction,ComponentPad*%
%ADD11O,1.300000X0.650000*%
%TD*%
%TA.AperFunction,ComponentPad*%
%ADD12O,0.775000X1.550000*%
%TD*%
%TA.AperFunction,ComponentPad*%
%ADD13R,1.650000X1.650000*%
%TD*%
%TA.AperFunction,ComponentPad*%
%ADD14C,1.650000*%
%TD*%
%TA.AperFunction,ComponentPad*%
%ADD15C,1.701800*%
%TD*%
%TA.AperFunction,ComponentPad*%
%ADD16C,1.408000*%
%TD*%
%TA.AperFunction,ViaPad*%
%ADD17C,0.499999*%
%TD*%
%TA.AperFunction,ViaPad*%
%ADD18C,1.016000*%
%TD*%
G04 APERTURE END LIST*
D10*
%TO.N,3.3V*%
%TO.C,P2*%
X231230550Y-87706200D03*
X232500550Y-87706200D03*
%TO.N,Earth*%
X231230550Y-88976200D03*
X232500550Y-88976200D03*
X231230550Y-90246200D03*
X232500550Y-90246200D03*
%TO.N,SWDIO*%
X231230550Y-91516200D03*
%TO.N,Earth*%
X232500550Y-91516200D03*
%TO.N,SWCLK*%
X231230550Y-92786200D03*
%TO.N,Earth*%
X232500550Y-92786200D03*
%TO.N,unconnected-(P2-Pad11)*%
X231230550Y-94056200D03*
%TO.N,Earth*%
X232500550Y-94056200D03*
%TO.N,SWO*%
X231230550Y-95326200D03*
%TO.N,Earth*%
X232500550Y-95326200D03*
%TO.N,NRST*%
X231230550Y-96596200D03*
%TO.N,Earth*%
X232500550Y-96596200D03*
%TO.N,unconnected-(P2-Pad17)*%
X231230550Y-97866200D03*
%TO.N,Earth*%
X232500550Y-97866200D03*
%TO.N,unconnected-(P2-Pad19)*%
X231230550Y-99136200D03*
%TO.N,Earth*%
X232500550Y-99136200D03*
%TD*%
D11*
%TO.N,Earth*%
%TO.C,P3*%
X230185600Y-81021500D03*
D12*
X231185600Y-78321500D03*
X224185600Y-78321500D03*
D11*
X225185600Y-81021500D03*
%TD*%
D13*
%TO.N,/PIN_SCREW*%
%TO.C,P1*%
X156670400Y-85575200D03*
D14*
%TO.N,Earth*%
X156670400Y-89075200D03*
%TD*%
D15*
%TO.N,VIN*%
%TO.C,P4*%
X180758803Y-83500501D03*
%TO.N,VIN_SW*%
X177258800Y-83500501D03*
X173758799Y-83500501D03*
%TO.N,Net-(P4-Pad4)*%
X170258798Y-83500501D03*
%TO.N,VIN_SW*%
X166758798Y-83500501D03*
%TO.N,Net-(P4-Pad6)*%
X163258797Y-83500501D03*
%TD*%
D16*
%TO.N,BEEP*%
%TO.C,BZ1*%
X216265600Y-101625400D03*
%TO.N,Earth*%
X223865600Y-101625400D03*
%TD*%
D17*
%TO.N,/Peripherals/D-*%
X222846900Y-89928700D03*
%TO.N,SWO*%
X202692000Y-84201000D03*
%TO.N,Earth*%
X196742900Y-86695700D03*
%TO.N,~{DROGUE_CONT}*%
X196088000Y-86156800D03*
%TO.N,~{MAIN_CONT}*%
X180543200Y-91694000D03*
X184353200Y-88696800D03*
%TO.N,BP_SDA*%
X186639200Y-84658200D03*
%TO.N,~{SWITCH}*%
X202641200Y-82753200D03*
X183464200Y-91211400D03*
%TO.N,~{DROGUE_CONT}*%
X184533600Y-94465200D03*
%TO.N,3.3V*%
X182143400Y-92481400D03*
%TO.N,Earth*%
X180009800Y-94513400D03*
%TO.N,VCOMP*%
X180111400Y-92608400D03*
X173278800Y-93040200D03*
X170383200Y-91516200D03*
%TO.N,Net-(P4-Pad4)*%
X171932600Y-92125800D03*
%TO.N,Net-(P4-Pad6)*%
X177825400Y-94335600D03*
%TO.N,3.3V*%
X176174400Y-96647000D03*
%TO.N,Earth*%
X167640000Y-93116400D03*
D18*
X165468300Y-101942900D03*
%TO.N,3.3V*%
X159816800Y-97485200D03*
D17*
X167662800Y-94993400D03*
%TO.N,Earth*%
X172999400Y-95351600D03*
%TO.N,3.3V*%
X163604000Y-85930800D03*
%TO.N,Earth*%
X189877700Y-94932500D03*
X182092600Y-85953600D03*
%TO.N,BP_SDA*%
X199204500Y-82440700D03*
%TO.N,3.3V*%
X183730000Y-78931400D03*
X188773800Y-79602600D03*
%TO.N,Earth*%
X184886600Y-82042000D03*
X186588400Y-82423000D03*
X189992000Y-82067400D03*
%TO.N,3.3V*%
X188544200Y-83718400D03*
%TO.N,Earth*%
X191832600Y-90691600D03*
X189128400Y-86461600D03*
%TO.N,3.3V*%
X195834000Y-87426800D03*
D18*
%TO.N,Earth*%
X178257200Y-88595200D03*
X169011600Y-88646000D03*
%TO.N,VIN*%
X221164430Y-77361770D03*
D17*
%TO.N,3.3V*%
X192608200Y-79629000D03*
%TO.N,Earth*%
X191211200Y-78232000D03*
X196621400Y-78968600D03*
%TO.N,USB_DETECT*%
X211404200Y-92151200D03*
%TO.N,3.3V*%
X208270800Y-95868800D03*
%TO.N,Earth*%
X208026000Y-98247200D03*
X209959000Y-106403200D03*
%TO.N,FLASH_SCK*%
X208457800Y-102819200D03*
X209296000Y-100457000D03*
%TO.N,3.3V*%
X204038200Y-102235000D03*
X194640200Y-103555800D03*
X192646800Y-92188800D03*
X196204500Y-97140100D03*
%TO.N,Earth*%
X181559401Y-102463399D03*
X194501400Y-101103800D03*
X192938400Y-106095800D03*
%TO.N,USB_DETECT*%
X217525600Y-95580200D03*
%TO.N,3.3V*%
X226796600Y-103555800D03*
%TO.N,NRST*%
X196146800Y-88688800D03*
%TO.N,3.3V*%
X227200400Y-93322200D03*
%TO.N,SWCLK*%
X206578200Y-83540600D03*
%TO.N,SWDIO*%
X207137000Y-82854800D03*
%TO.N,TX_USB*%
X216738200Y-93802200D03*
X219700000Y-94650400D03*
%TO.N,~{USB_RST}*%
X211048600Y-84429600D03*
X216989600Y-86007000D03*
%TO.N,Earth*%
X215747600Y-88188800D03*
%TO.N,3.3V*%
X217881200Y-84988400D03*
X210724000Y-82188800D03*
%TO.N,Earth*%
X213055200Y-81915000D03*
X208014200Y-82688800D03*
%TO.N,5V*%
X225272600Y-84353400D03*
X229717600Y-84328000D03*
%TO.N,Earth*%
X226034600Y-87985600D03*
X228066600Y-86995000D03*
%TO.N,/Peripherals/D-*%
X223926400Y-90957400D03*
%TD*%
%TA.AperFunction,Conductor*%
%TO.N,3.3V*%
G36*
X220107796Y-77033302D02*
G01*
X220154289Y-77086958D01*
X220164890Y-77153344D01*
X220152861Y-77260594D01*
X220143112Y-77347509D01*
X220159792Y-77546156D01*
X220214740Y-77737779D01*
X220305860Y-77915081D01*
X220429683Y-78071307D01*
X220581493Y-78200507D01*
X220586871Y-78203513D01*
X220586873Y-78203514D01*
X220628827Y-78226961D01*
X220755506Y-78297759D01*
X220761365Y-78299663D01*
X220761368Y-78299664D01*
X220797131Y-78311284D01*
X220945095Y-78359361D01*
X220951205Y-78360090D01*
X220951207Y-78360090D01*
X221018744Y-78368143D01*
X221143039Y-78382964D01*
X221149174Y-78382492D01*
X221149176Y-78382492D01*
X221335656Y-78368143D01*
X221335661Y-78368142D01*
X221341797Y-78367670D01*
X221347727Y-78366014D01*
X221347729Y-78366014D01*
X221437798Y-78340866D01*
X221533800Y-78314062D01*
X221539300Y-78311284D01*
X221706232Y-78226961D01*
X221706234Y-78226960D01*
X221711733Y-78224182D01*
X221868820Y-78101452D01*
X221892794Y-78073678D01*
X221995048Y-77955216D01*
X221995049Y-77955214D01*
X221999077Y-77950548D01*
X222097542Y-77777218D01*
X222160465Y-77588064D01*
X222172698Y-77491234D01*
X222185008Y-77393793D01*
X222185009Y-77393783D01*
X222185450Y-77390290D01*
X222185848Y-77361770D01*
X222172125Y-77221812D01*
X222166996Y-77169504D01*
X222166996Y-77169503D01*
X222166395Y-77163376D01*
X222166013Y-77162110D01*
X222172249Y-77093070D01*
X222215850Y-77037039D01*
X222289461Y-77013300D01*
X223540682Y-77013300D01*
X223608803Y-77033302D01*
X223655296Y-77086958D01*
X223665400Y-77157232D01*
X223635906Y-77221812D01*
X223614744Y-77241235D01*
X223582757Y-77264475D01*
X223578344Y-77269377D01*
X223578342Y-77269378D01*
X223495152Y-77361770D01*
X223456728Y-77404444D01*
X223453425Y-77410165D01*
X223375029Y-77545952D01*
X223362555Y-77567557D01*
X223304353Y-77746685D01*
X223303663Y-77753248D01*
X223303663Y-77753249D01*
X223301759Y-77771365D01*
X223289600Y-77887048D01*
X223289600Y-78755952D01*
X223304353Y-78896315D01*
X223306393Y-78902593D01*
X223306393Y-78902594D01*
X223329450Y-78973557D01*
X223362555Y-79075443D01*
X223365858Y-79081165D01*
X223365859Y-79081166D01*
X223410464Y-79158424D01*
X223456728Y-79238556D01*
X223461146Y-79243463D01*
X223461147Y-79243464D01*
X223533090Y-79323364D01*
X223582757Y-79378525D01*
X223588096Y-79382404D01*
X223659556Y-79434323D01*
X223735132Y-79489233D01*
X223741161Y-79491917D01*
X223741164Y-79491919D01*
X223901160Y-79563153D01*
X223901163Y-79563154D01*
X223907196Y-79565840D01*
X223974754Y-79580200D01*
X224084970Y-79603628D01*
X224084975Y-79603628D01*
X224091427Y-79605000D01*
X224279773Y-79605000D01*
X224286225Y-79603628D01*
X224286230Y-79603628D01*
X224396446Y-79580200D01*
X224464004Y-79565840D01*
X224475798Y-79560589D01*
X224630037Y-79491918D01*
X224630039Y-79491917D01*
X224636067Y-79489233D01*
X224677352Y-79459238D01*
X224783104Y-79382404D01*
X224788443Y-79378525D01*
X224838111Y-79323364D01*
X224910053Y-79243464D01*
X224910054Y-79243463D01*
X224914472Y-79238556D01*
X224960736Y-79158424D01*
X225005341Y-79081166D01*
X225005342Y-79081165D01*
X225008645Y-79075443D01*
X225041750Y-78973557D01*
X225064807Y-78902594D01*
X225064807Y-78902593D01*
X225066847Y-78896315D01*
X225081600Y-78755952D01*
X225081600Y-77887048D01*
X225069441Y-77771365D01*
X225067537Y-77753249D01*
X225067537Y-77753248D01*
X225066847Y-77746685D01*
X225008645Y-77567557D01*
X224996172Y-77545952D01*
X224917775Y-77410165D01*
X224914472Y-77404444D01*
X224876048Y-77361770D01*
X224792858Y-77269378D01*
X224792856Y-77269377D01*
X224788443Y-77264475D01*
X224783104Y-77260596D01*
X224783102Y-77260594D01*
X224756457Y-77241235D01*
X224713104Y-77185012D01*
X224707029Y-77114276D01*
X224740161Y-77051485D01*
X224801982Y-77016574D01*
X224830519Y-77013300D01*
X229213733Y-77013300D01*
X229281854Y-77033302D01*
X229328347Y-77086958D01*
X229339732Y-77138744D01*
X229347882Y-78985966D01*
X229353521Y-80263924D01*
X229353675Y-80298876D01*
X229333973Y-80367084D01*
X229314251Y-80390978D01*
X229222115Y-80478107D01*
X229218283Y-80483745D01*
X229218280Y-80483749D01*
X229167340Y-80558705D01*
X229120323Y-80627888D01*
X229053070Y-80796034D01*
X229051956Y-80802762D01*
X229051955Y-80802766D01*
X229036449Y-80896431D01*
X229023492Y-80974698D01*
X229023849Y-80981515D01*
X229023849Y-80981519D01*
X229028751Y-81075039D01*
X229032970Y-81155547D01*
X229034781Y-81162120D01*
X229034781Y-81162123D01*
X229072447Y-81298869D01*
X229081061Y-81330141D01*
X229165522Y-81490336D01*
X229169927Y-81495549D01*
X229169930Y-81495553D01*
X229228528Y-81564893D01*
X229282413Y-81628657D01*
X229291291Y-81635444D01*
X229310607Y-81650214D01*
X229352573Y-81707480D01*
X229360075Y-81749753D01*
X229363855Y-82606516D01*
X229368156Y-83581413D01*
X229348455Y-83649619D01*
X229308180Y-83689284D01*
X229253673Y-83722817D01*
X229253667Y-83722822D01*
X229247667Y-83726513D01*
X229242636Y-83731440D01*
X229242633Y-83731442D01*
X229214969Y-83758533D01*
X229126086Y-83845573D01*
X229033905Y-83988611D01*
X229031496Y-83995231D01*
X229031495Y-83995232D01*
X228984750Y-84123662D01*
X228975704Y-84148516D01*
X228954376Y-84317343D01*
X228970982Y-84486699D01*
X228973206Y-84493384D01*
X228973206Y-84493385D01*
X228982448Y-84521167D01*
X229024695Y-84648167D01*
X229028342Y-84654189D01*
X229028343Y-84654191D01*
X229073072Y-84728047D01*
X229112847Y-84793723D01*
X229117743Y-84798793D01*
X229152469Y-84834752D01*
X229231056Y-84916131D01*
X229317753Y-84972864D01*
X229363801Y-85026902D01*
X229374758Y-85077740D01*
X229483621Y-109753346D01*
X229463920Y-109821552D01*
X229410470Y-109868282D01*
X229357623Y-109879900D01*
X151459700Y-109879900D01*
X151391579Y-109859898D01*
X151345086Y-109806242D01*
X151333700Y-109753900D01*
X151333700Y-106711333D01*
X152216622Y-106711333D01*
X152216775Y-106715721D01*
X152216775Y-106715727D01*
X152226223Y-106986262D01*
X152226425Y-106992058D01*
X152227187Y-106996381D01*
X152227188Y-106996388D01*
X152253350Y-107144757D01*
X152275202Y-107268687D01*
X152362003Y-107535835D01*
X152485140Y-107788302D01*
X152487595Y-107791941D01*
X152487598Y-107791947D01*
X152560690Y-107900310D01*
X152642215Y-108021176D01*
X152830171Y-108229922D01*
X153045350Y-108410479D01*
X153283564Y-108559331D01*
X153540175Y-108673582D01*
X153810190Y-108751007D01*
X153814540Y-108751618D01*
X153814543Y-108751619D01*
X153917490Y-108766087D01*
X154088352Y-108790100D01*
X154298946Y-108790100D01*
X154301132Y-108789947D01*
X154301136Y-108789947D01*
X154504627Y-108775718D01*
X154504632Y-108775717D01*
X154509012Y-108775411D01*
X154783770Y-108717009D01*
X154787899Y-108715506D01*
X154787903Y-108715505D01*
X155043581Y-108622446D01*
X155043585Y-108622444D01*
X155047726Y-108620937D01*
X155295742Y-108489064D01*
X155400696Y-108412811D01*
X155519429Y-108326547D01*
X155519432Y-108326544D01*
X155522992Y-108323958D01*
X155725052Y-108128831D01*
X155897988Y-107907482D01*
X155900184Y-107903678D01*
X155900189Y-107903671D01*
X156036235Y-107668031D01*
X156038436Y-107664219D01*
X156143662Y-107403776D01*
X156177344Y-107268687D01*
X156210553Y-107135493D01*
X156210554Y-107135488D01*
X156211617Y-107131224D01*
X156214847Y-107100500D01*
X156240519Y-106856236D01*
X156240519Y-106856233D01*
X156240978Y-106851867D01*
X156240825Y-106847473D01*
X156231329Y-106575539D01*
X156231328Y-106575533D01*
X156231175Y-106571142D01*
X156229546Y-106561899D01*
X156183160Y-106298836D01*
X156182398Y-106294513D01*
X156114370Y-106085143D01*
X192175176Y-106085143D01*
X192191782Y-106254499D01*
X192245495Y-106415967D01*
X192249142Y-106421989D01*
X192249143Y-106421991D01*
X192266448Y-106450564D01*
X192333647Y-106561523D01*
X192338543Y-106566593D01*
X192357333Y-106586050D01*
X192451856Y-106683931D01*
X192594246Y-106777109D01*
X192753742Y-106836425D01*
X192760723Y-106837356D01*
X192760725Y-106837357D01*
X192806826Y-106843508D01*
X192922415Y-106858931D01*
X192929426Y-106858293D01*
X192929430Y-106858293D01*
X193084861Y-106844147D01*
X193091882Y-106843508D01*
X193098584Y-106841330D01*
X193098586Y-106841330D01*
X193247023Y-106793100D01*
X193247026Y-106793099D01*
X193253722Y-106790923D01*
X193356943Y-106729391D01*
X193393834Y-106707400D01*
X193393837Y-106707398D01*
X193399889Y-106703790D01*
X193523120Y-106586438D01*
X193530362Y-106575539D01*
X193613395Y-106450564D01*
X193617290Y-106444702D01*
X193625917Y-106421991D01*
X193637103Y-106392543D01*
X209195776Y-106392543D01*
X209212382Y-106561899D01*
X209266095Y-106723367D01*
X209269742Y-106729389D01*
X209269743Y-106729391D01*
X209287048Y-106757964D01*
X209354247Y-106868923D01*
X209359143Y-106873993D01*
X209378307Y-106893838D01*
X209472456Y-106991331D01*
X209614846Y-107084509D01*
X209774342Y-107143825D01*
X209781323Y-107144756D01*
X209781325Y-107144757D01*
X209827426Y-107150908D01*
X209943015Y-107166331D01*
X209950026Y-107165693D01*
X209950030Y-107165693D01*
X210105461Y-107151547D01*
X210112482Y-107150908D01*
X210119184Y-107148730D01*
X210119186Y-107148730D01*
X210267623Y-107100500D01*
X210267626Y-107100499D01*
X210274322Y-107098323D01*
X210346067Y-107055554D01*
X210414434Y-107014800D01*
X210414437Y-107014798D01*
X210420489Y-107011190D01*
X210543720Y-106893838D01*
X210566913Y-106858931D01*
X210633995Y-106757964D01*
X210637890Y-106752102D01*
X210646517Y-106729391D01*
X210695817Y-106599609D01*
X210695818Y-106599606D01*
X210698318Y-106593024D01*
X210722000Y-106424513D01*
X210722298Y-106403200D01*
X210709849Y-106292209D01*
X210704115Y-106241088D01*
X210704114Y-106241085D01*
X210703330Y-106234092D01*
X210647367Y-106073390D01*
X210641382Y-106063811D01*
X210560925Y-105935053D01*
X210557192Y-105929079D01*
X210497239Y-105868706D01*
X210442249Y-105813331D01*
X210442245Y-105813328D01*
X210437285Y-105808333D01*
X210293608Y-105717152D01*
X210133300Y-105660069D01*
X209964329Y-105639921D01*
X209957326Y-105640657D01*
X209957325Y-105640657D01*
X209802101Y-105656971D01*
X209802097Y-105656972D01*
X209795093Y-105657708D01*
X209788422Y-105659979D01*
X209640674Y-105710276D01*
X209640671Y-105710277D01*
X209634004Y-105712547D01*
X209628006Y-105716237D01*
X209628004Y-105716238D01*
X209620379Y-105720929D01*
X209489067Y-105801713D01*
X209484036Y-105806640D01*
X209484033Y-105806642D01*
X209428276Y-105861243D01*
X209367486Y-105920773D01*
X209275305Y-106063811D01*
X209272896Y-106070431D01*
X209272895Y-106070432D01*
X209219513Y-106217097D01*
X209217104Y-106223716D01*
X209195776Y-106392543D01*
X193637103Y-106392543D01*
X193675217Y-106292209D01*
X193675218Y-106292206D01*
X193677718Y-106285624D01*
X193701400Y-106117113D01*
X193701698Y-106095800D01*
X193682730Y-105926692D01*
X193626767Y-105765990D01*
X193620782Y-105756411D01*
X193540325Y-105627653D01*
X193536592Y-105621679D01*
X193461116Y-105545675D01*
X193421649Y-105505931D01*
X193421645Y-105505928D01*
X193416685Y-105500933D01*
X193273008Y-105409752D01*
X193112700Y-105352669D01*
X192943729Y-105332521D01*
X192936726Y-105333257D01*
X192936725Y-105333257D01*
X192781501Y-105349571D01*
X192781497Y-105349572D01*
X192774493Y-105350308D01*
X192767822Y-105352579D01*
X192620074Y-105402876D01*
X192620071Y-105402877D01*
X192613404Y-105405147D01*
X192607406Y-105408837D01*
X192607404Y-105408838D01*
X192599779Y-105413529D01*
X192468467Y-105494313D01*
X192463436Y-105499240D01*
X192463433Y-105499242D01*
X192423087Y-105538752D01*
X192346886Y-105613373D01*
X192254705Y-105756411D01*
X192252296Y-105763031D01*
X192252295Y-105763032D01*
X192249303Y-105771253D01*
X192196504Y-105916316D01*
X192175176Y-106085143D01*
X156114370Y-106085143D01*
X156095597Y-106027365D01*
X156049908Y-105933688D01*
X155988767Y-105808333D01*
X155972460Y-105774898D01*
X155970005Y-105771259D01*
X155970002Y-105771253D01*
X155881980Y-105640755D01*
X155815385Y-105542024D01*
X155778387Y-105500933D01*
X155630366Y-105336540D01*
X155627429Y-105333278D01*
X155412250Y-105152721D01*
X155174036Y-105003869D01*
X154917425Y-104889618D01*
X154647410Y-104812193D01*
X154643060Y-104811582D01*
X154643057Y-104811581D01*
X154540110Y-104797113D01*
X154369248Y-104773100D01*
X154158654Y-104773100D01*
X154156468Y-104773253D01*
X154156464Y-104773253D01*
X153952973Y-104787482D01*
X153952968Y-104787483D01*
X153948588Y-104787789D01*
X153673830Y-104846191D01*
X153669701Y-104847694D01*
X153669697Y-104847695D01*
X153414019Y-104940754D01*
X153414015Y-104940756D01*
X153409874Y-104942263D01*
X153161858Y-105074136D01*
X153158299Y-105076722D01*
X153158297Y-105076723D01*
X153053695Y-105152721D01*
X152934608Y-105239242D01*
X152732548Y-105434369D01*
X152559612Y-105655718D01*
X152557416Y-105659522D01*
X152557411Y-105659529D01*
X152468614Y-105813331D01*
X152419164Y-105898981D01*
X152313938Y-106159424D01*
X152312873Y-106163697D01*
X152312872Y-106163699D01*
X152247844Y-106424513D01*
X152245983Y-106431976D01*
X152245524Y-106436344D01*
X152245523Y-106436349D01*
X152217926Y-106698927D01*
X152216622Y-106711333D01*
X151333700Y-106711333D01*
X151333700Y-101928639D01*
X164446982Y-101928639D01*
X164463662Y-102127286D01*
X164475679Y-102169194D01*
X164511551Y-102294291D01*
X164518610Y-102318909D01*
X164535130Y-102351053D01*
X164606225Y-102489390D01*
X164609730Y-102496211D01*
X164733553Y-102652437D01*
X164885363Y-102781637D01*
X164890741Y-102784643D01*
X164890743Y-102784644D01*
X164983647Y-102836566D01*
X165059376Y-102878889D01*
X165065235Y-102880793D01*
X165065238Y-102880794D01*
X165101001Y-102892414D01*
X165248965Y-102940491D01*
X165255075Y-102941220D01*
X165255077Y-102941220D01*
X165322614Y-102949273D01*
X165446909Y-102964094D01*
X165453044Y-102963622D01*
X165453046Y-102963622D01*
X165639526Y-102949273D01*
X165639531Y-102949272D01*
X165645667Y-102948800D01*
X165651597Y-102947144D01*
X165651599Y-102947144D01*
X165741669Y-102921996D01*
X165837670Y-102895192D01*
X165843170Y-102892414D01*
X166010102Y-102808091D01*
X166010104Y-102808090D01*
X166015603Y-102805312D01*
X166172690Y-102682582D01*
X166198032Y-102653223D01*
X166298918Y-102536346D01*
X166298919Y-102536344D01*
X166302947Y-102531678D01*
X166347789Y-102452742D01*
X180796177Y-102452742D01*
X180812783Y-102622098D01*
X180815007Y-102628783D01*
X180815007Y-102628784D01*
X180825327Y-102659808D01*
X180866496Y-102783566D01*
X180870143Y-102789588D01*
X180870144Y-102789590D01*
X180898594Y-102836566D01*
X180954648Y-102929122D01*
X180959544Y-102934192D01*
X180973651Y-102948800D01*
X181072857Y-103051530D01*
X181215247Y-103144708D01*
X181374743Y-103204024D01*
X181381724Y-103204955D01*
X181381726Y-103204956D01*
X181427827Y-103211107D01*
X181543416Y-103226530D01*
X181550427Y-103225892D01*
X181550431Y-103225892D01*
X181705862Y-103211746D01*
X181712883Y-103211107D01*
X181719585Y-103208929D01*
X181719587Y-103208929D01*
X181868024Y-103160699D01*
X181868027Y-103160698D01*
X181874723Y-103158522D01*
X181946468Y-103115753D01*
X182014835Y-103074999D01*
X182014838Y-103074997D01*
X182020890Y-103071389D01*
X182144121Y-102954037D01*
X182154386Y-102938588D01*
X182218205Y-102842532D01*
X182238291Y-102812301D01*
X182239719Y-102808543D01*
X207694576Y-102808543D01*
X207711182Y-102977899D01*
X207764895Y-103139367D01*
X207768542Y-103145389D01*
X207768543Y-103145391D01*
X207785848Y-103173964D01*
X207853047Y-103284923D01*
X207857943Y-103289993D01*
X207877107Y-103309838D01*
X207971256Y-103407331D01*
X208113646Y-103500509D01*
X208273142Y-103559825D01*
X208280123Y-103560756D01*
X208280125Y-103560757D01*
X208326226Y-103566908D01*
X208441815Y-103582331D01*
X208448826Y-103581693D01*
X208448830Y-103581693D01*
X208604261Y-103567547D01*
X208611282Y-103566908D01*
X208617984Y-103564730D01*
X208617986Y-103564730D01*
X208766423Y-103516500D01*
X208766426Y-103516499D01*
X208773122Y-103514323D01*
X208844867Y-103471554D01*
X208913234Y-103430800D01*
X208913237Y-103430798D01*
X208919289Y-103427190D01*
X209042520Y-103309838D01*
X209136690Y-103168102D01*
X209147043Y-103140848D01*
X209194617Y-103015609D01*
X209194618Y-103015606D01*
X209197118Y-103009024D01*
X209220800Y-102840513D01*
X209221024Y-102824520D01*
X209221043Y-102823161D01*
X209221043Y-102823155D01*
X209221098Y-102819200D01*
X209202130Y-102650092D01*
X209146167Y-102489390D01*
X209140182Y-102479811D01*
X209059725Y-102351053D01*
X209055992Y-102345079D01*
X208950128Y-102238474D01*
X208941049Y-102229331D01*
X208941045Y-102229328D01*
X208936085Y-102224333D01*
X208792408Y-102133152D01*
X208632100Y-102076069D01*
X208463129Y-102055921D01*
X208456126Y-102056657D01*
X208456125Y-102056657D01*
X208300901Y-102072971D01*
X208300897Y-102072972D01*
X208293893Y-102073708D01*
X208287222Y-102075979D01*
X208139474Y-102126276D01*
X208139471Y-102126277D01*
X208132804Y-102128547D01*
X208126806Y-102132237D01*
X208126804Y-102132238D01*
X208125231Y-102133206D01*
X207987867Y-102217713D01*
X207982836Y-102222640D01*
X207982833Y-102222642D01*
X207966666Y-102238474D01*
X207866286Y-102336773D01*
X207774105Y-102479811D01*
X207771696Y-102486431D01*
X207771695Y-102486432D01*
X207722316Y-102622098D01*
X207715904Y-102639716D01*
X207694576Y-102808543D01*
X182239719Y-102808543D01*
X182248797Y-102784644D01*
X182296218Y-102659808D01*
X182296219Y-102659805D01*
X182298719Y-102653223D01*
X182322401Y-102484712D01*
X182322699Y-102463399D01*
X182313378Y-102380294D01*
X182304516Y-102301287D01*
X182304515Y-102301284D01*
X182303731Y-102294291D01*
X182247768Y-102133589D01*
X182243830Y-102127286D01*
X182161326Y-101995252D01*
X182157593Y-101989278D01*
X182091293Y-101922514D01*
X182042650Y-101873530D01*
X182042646Y-101873527D01*
X182037686Y-101868532D01*
X181894009Y-101777351D01*
X181733701Y-101720268D01*
X181564730Y-101700120D01*
X181557727Y-101700856D01*
X181557726Y-101700856D01*
X181402502Y-101717170D01*
X181402498Y-101717171D01*
X181395494Y-101717907D01*
X181388823Y-101720178D01*
X181241075Y-101770475D01*
X181241072Y-101770476D01*
X181234405Y-101772746D01*
X181228407Y-101776436D01*
X181228405Y-101776437D01*
X181214309Y-101785109D01*
X181089468Y-101861912D01*
X181084437Y-101866839D01*
X181084434Y-101866841D01*
X181028678Y-101921442D01*
X180967887Y-101980972D01*
X180875706Y-102124010D01*
X180873297Y-102130630D01*
X180873296Y-102130631D01*
X180871004Y-102136929D01*
X180817505Y-102283915D01*
X180796177Y-102452742D01*
X166347789Y-102452742D01*
X166401412Y-102358348D01*
X166464335Y-102169194D01*
X166479814Y-102046666D01*
X166488878Y-101974923D01*
X166488879Y-101974913D01*
X166489320Y-101971420D01*
X166489718Y-101942900D01*
X166470265Y-101744506D01*
X166468484Y-101738607D01*
X166468483Y-101738602D01*
X166414429Y-101559567D01*
X166412648Y-101553668D01*
X166340132Y-101417284D01*
X166321955Y-101383098D01*
X166321953Y-101383095D01*
X166319061Y-101377656D01*
X166315171Y-101372886D01*
X166315168Y-101372882D01*
X166196963Y-101227949D01*
X166196960Y-101227946D01*
X166193068Y-101223174D01*
X166163312Y-101198557D01*
X166085818Y-101134449D01*
X166039470Y-101096106D01*
X166033990Y-101093143D01*
X193738176Y-101093143D01*
X193754782Y-101262499D01*
X193808495Y-101423967D01*
X193812142Y-101429989D01*
X193812143Y-101429991D01*
X193829448Y-101458564D01*
X193896647Y-101569523D01*
X193901543Y-101574593D01*
X193920707Y-101594438D01*
X194014856Y-101691931D01*
X194157246Y-101785109D01*
X194316742Y-101844425D01*
X194323723Y-101845356D01*
X194323725Y-101845357D01*
X194369826Y-101851508D01*
X194485415Y-101866931D01*
X194492426Y-101866293D01*
X194492430Y-101866293D01*
X194647861Y-101852147D01*
X194654882Y-101851508D01*
X194661584Y-101849330D01*
X194661586Y-101849330D01*
X194810023Y-101801100D01*
X194810026Y-101801099D01*
X194816722Y-101798923D01*
X194897718Y-101750640D01*
X194956834Y-101715400D01*
X194956837Y-101715398D01*
X194962889Y-101711790D01*
X195053607Y-101625400D01*
X215048468Y-101625400D01*
X215066959Y-101836753D01*
X215068383Y-101842066D01*
X215068383Y-101842068D01*
X215109429Y-101995252D01*
X215121870Y-102041684D01*
X215124192Y-102046664D01*
X215124193Y-102046666D01*
X215209207Y-102228979D01*
X215209210Y-102228984D01*
X215211533Y-102233966D01*
X215214690Y-102238474D01*
X215302382Y-102363711D01*
X215333223Y-102407757D01*
X215483243Y-102557777D01*
X215487751Y-102560934D01*
X215487754Y-102560936D01*
X215559983Y-102611511D01*
X215657034Y-102679467D01*
X215662016Y-102681790D01*
X215662021Y-102681793D01*
X215844334Y-102766807D01*
X215849316Y-102769130D01*
X215854624Y-102770552D01*
X215854626Y-102770553D01*
X216048932Y-102822617D01*
X216048934Y-102822617D01*
X216054247Y-102824041D01*
X216265600Y-102842532D01*
X216476953Y-102824041D01*
X216482266Y-102822617D01*
X216482268Y-102822617D01*
X216676574Y-102770553D01*
X216676576Y-102770552D01*
X216681884Y-102769130D01*
X216686866Y-102766807D01*
X216869179Y-102681793D01*
X216869184Y-102681790D01*
X216874166Y-102679467D01*
X216971217Y-102611511D01*
X217043446Y-102560936D01*
X217043449Y-102560934D01*
X217047957Y-102557777D01*
X217197977Y-102407757D01*
X217228819Y-102363711D01*
X217316510Y-102238474D01*
X217319667Y-102233966D01*
X217321990Y-102228984D01*
X217321993Y-102228979D01*
X217407007Y-102046666D01*
X217407008Y-102046664D01*
X217409330Y-102041684D01*
X217421772Y-101995252D01*
X217462817Y-101842068D01*
X217462817Y-101842066D01*
X217464241Y-101836753D01*
X217482732Y-101625400D01*
X222648468Y-101625400D01*
X222666959Y-101836753D01*
X222668383Y-101842066D01*
X222668383Y-101842068D01*
X222709429Y-101995252D01*
X222721870Y-102041684D01*
X222724192Y-102046664D01*
X222724193Y-102046666D01*
X222809207Y-102228979D01*
X222809210Y-102228984D01*
X222811533Y-102233966D01*
X222814690Y-102238474D01*
X222902382Y-102363711D01*
X222933223Y-102407757D01*
X223083243Y-102557777D01*
X223087751Y-102560934D01*
X223087754Y-102560936D01*
X223159983Y-102611511D01*
X223257034Y-102679467D01*
X223262016Y-102681790D01*
X223262021Y-102681793D01*
X223444334Y-102766807D01*
X223449316Y-102769130D01*
X223454624Y-102770552D01*
X223454626Y-102770553D01*
X223648932Y-102822617D01*
X223648934Y-102822617D01*
X223654247Y-102824041D01*
X223865600Y-102842532D01*
X224076953Y-102824041D01*
X224082266Y-102822617D01*
X224082268Y-102822617D01*
X224276574Y-102770553D01*
X224276576Y-102770552D01*
X224281884Y-102769130D01*
X224286866Y-102766807D01*
X224469179Y-102681793D01*
X224469184Y-102681790D01*
X224474166Y-102679467D01*
X224571217Y-102611511D01*
X224643446Y-102560936D01*
X224643449Y-102560934D01*
X224647957Y-102557777D01*
X224797977Y-102407757D01*
X224828819Y-102363711D01*
X224916510Y-102238474D01*
X224919667Y-102233966D01*
X224921990Y-102228984D01*
X224921993Y-102228979D01*
X225007007Y-102046666D01*
X225007008Y-102046664D01*
X225009330Y-102041684D01*
X225021772Y-101995252D01*
X225062817Y-101842068D01*
X225062817Y-101842066D01*
X225064241Y-101836753D01*
X225082732Y-101625400D01*
X225064241Y-101414047D01*
X225030105Y-101286650D01*
X225010753Y-101214426D01*
X225010752Y-101214424D01*
X225009330Y-101209116D01*
X224981072Y-101148516D01*
X224921993Y-101021821D01*
X224921990Y-101021816D01*
X224919667Y-101016834D01*
X224797977Y-100843043D01*
X224647957Y-100693023D01*
X224643449Y-100689866D01*
X224643446Y-100689864D01*
X224566024Y-100635653D01*
X224474166Y-100571333D01*
X224469184Y-100569010D01*
X224469179Y-100569007D01*
X224286866Y-100483993D01*
X224286864Y-100483992D01*
X224281884Y-100481670D01*
X224276576Y-100480248D01*
X224276574Y-100480247D01*
X224082268Y-100428183D01*
X224082266Y-100428183D01*
X224076953Y-100426759D01*
X223865600Y-100408268D01*
X223654247Y-100426759D01*
X223648934Y-100428183D01*
X223648932Y-100428183D01*
X223454626Y-100480247D01*
X223454624Y-100480248D01*
X223449316Y-100481670D01*
X223444336Y-100483992D01*
X223444334Y-100483993D01*
X223262021Y-100569007D01*
X223262016Y-100569010D01*
X223257034Y-100571333D01*
X223165176Y-100635653D01*
X223087754Y-100689864D01*
X223087751Y-100689866D01*
X223083243Y-100693023D01*
X222933223Y-100843043D01*
X222811533Y-101016834D01*
X222809210Y-101021816D01*
X222809207Y-101021821D01*
X222750128Y-101148516D01*
X222721870Y-101209116D01*
X222720448Y-101214424D01*
X222720447Y-101214426D01*
X222701095Y-101286650D01*
X222666959Y-101414047D01*
X222648468Y-101625400D01*
X217482732Y-101625400D01*
X217464241Y-101414047D01*
X217430105Y-101286650D01*
X217410753Y-101214426D01*
X217410752Y-101214424D01*
X217409330Y-101209116D01*
X217381072Y-101148516D01*
X217321993Y-101021821D01*
X217321990Y-101021816D01*
X217319667Y-101016834D01*
X217197977Y-100843043D01*
X217047957Y-100693023D01*
X217043449Y-100689866D01*
X217043446Y-100689864D01*
X216966024Y-100635653D01*
X216874166Y-100571333D01*
X216869184Y-100569010D01*
X216869179Y-100569007D01*
X216686866Y-100483993D01*
X216686864Y-100483992D01*
X216681884Y-100481670D01*
X216676576Y-100480248D01*
X216676574Y-100480247D01*
X216482268Y-100428183D01*
X216482266Y-100428183D01*
X216476953Y-100426759D01*
X216265600Y-100408268D01*
X216054247Y-100426759D01*
X216048934Y-100428183D01*
X216048932Y-100428183D01*
X215854626Y-100480247D01*
X215854624Y-100480248D01*
X215849316Y-100481670D01*
X215844336Y-100483992D01*
X215844334Y-100483993D01*
X215662021Y-100569007D01*
X215662016Y-100569010D01*
X215657034Y-100571333D01*
X215565176Y-100635653D01*
X215487754Y-100689864D01*
X215487751Y-100689866D01*
X215483243Y-100693023D01*
X215333223Y-100843043D01*
X215211533Y-101016834D01*
X215209210Y-101021816D01*
X215209207Y-101021821D01*
X215150128Y-101148516D01*
X215121870Y-101209116D01*
X215120448Y-101214424D01*
X215120447Y-101214426D01*
X215101095Y-101286650D01*
X215066959Y-101414047D01*
X215048468Y-101625400D01*
X195053607Y-101625400D01*
X195086120Y-101594438D01*
X195109289Y-101559567D01*
X195176395Y-101458564D01*
X195180290Y-101452702D01*
X195188917Y-101429991D01*
X195238217Y-101300209D01*
X195238218Y-101300206D01*
X195240718Y-101293624D01*
X195264400Y-101125113D01*
X195264698Y-101103800D01*
X195246793Y-100944166D01*
X195246515Y-100941688D01*
X195246514Y-100941685D01*
X195245730Y-100934692D01*
X195189767Y-100773990D01*
X195183782Y-100764411D01*
X195103325Y-100635653D01*
X195099592Y-100629679D01*
X195039342Y-100569007D01*
X194984649Y-100513931D01*
X194984645Y-100513928D01*
X194979685Y-100508933D01*
X194881060Y-100446343D01*
X208532776Y-100446343D01*
X208549382Y-100615699D01*
X208551606Y-100622384D01*
X208551606Y-100622385D01*
X208556020Y-100635653D01*
X208603095Y-100777167D01*
X208606742Y-100783189D01*
X208606743Y-100783191D01*
X208624048Y-100811764D01*
X208691247Y-100922723D01*
X208696143Y-100927793D01*
X208710195Y-100942344D01*
X208809456Y-101045131D01*
X208951846Y-101138309D01*
X209111342Y-101197625D01*
X209118323Y-101198556D01*
X209118325Y-101198557D01*
X209160124Y-101204134D01*
X209280015Y-101220131D01*
X209287026Y-101219493D01*
X209287030Y-101219493D01*
X209442461Y-101205347D01*
X209449482Y-101204708D01*
X209456184Y-101202530D01*
X209456186Y-101202530D01*
X209604623Y-101154300D01*
X209604626Y-101154299D01*
X209611322Y-101152123D01*
X209698499Y-101100155D01*
X209751434Y-101068600D01*
X209751437Y-101068598D01*
X209757489Y-101064990D01*
X209880720Y-100947638D01*
X209884666Y-100941700D01*
X209950213Y-100843043D01*
X209974890Y-100805902D01*
X209984484Y-100780645D01*
X210032817Y-100653409D01*
X210032818Y-100653406D01*
X210035318Y-100646824D01*
X210059000Y-100478313D01*
X210059298Y-100457000D01*
X210048483Y-100360579D01*
X210041115Y-100294888D01*
X210041114Y-100294885D01*
X210040330Y-100287892D01*
X209984367Y-100127190D01*
X209978382Y-100117611D01*
X209897925Y-99988853D01*
X209894192Y-99982879D01*
X209834238Y-99922506D01*
X209779249Y-99867131D01*
X209779245Y-99867128D01*
X209774285Y-99862133D01*
X209630608Y-99770952D01*
X209470300Y-99713869D01*
X209301329Y-99693721D01*
X209294326Y-99694457D01*
X209294325Y-99694457D01*
X209139101Y-99710771D01*
X209139097Y-99710772D01*
X209132093Y-99711508D01*
X209125422Y-99713779D01*
X208977674Y-99764076D01*
X208977671Y-99764077D01*
X208971004Y-99766347D01*
X208965006Y-99770037D01*
X208965004Y-99770038D01*
X208957379Y-99774729D01*
X208826067Y-99855513D01*
X208821036Y-99860440D01*
X208821033Y-99860442D01*
X208765277Y-99915043D01*
X208704486Y-99974573D01*
X208612305Y-100117611D01*
X208609896Y-100124231D01*
X208609895Y-100124232D01*
X208606396Y-100133845D01*
X208554104Y-100277516D01*
X208532776Y-100446343D01*
X194881060Y-100446343D01*
X194836008Y-100417752D01*
X194675700Y-100360669D01*
X194506729Y-100340521D01*
X194499726Y-100341257D01*
X194499725Y-100341257D01*
X194344501Y-100357571D01*
X194344497Y-100357572D01*
X194337493Y-100358308D01*
X194330822Y-100360579D01*
X194183074Y-100410876D01*
X194183071Y-100410877D01*
X194176404Y-100413147D01*
X194170406Y-100416837D01*
X194170404Y-100416838D01*
X194154278Y-100426759D01*
X194031467Y-100502313D01*
X194026436Y-100507240D01*
X194026433Y-100507242D01*
X193970677Y-100561843D01*
X193909886Y-100621373D01*
X193817705Y-100764411D01*
X193815296Y-100771031D01*
X193815295Y-100771032D01*
X193789085Y-100843043D01*
X193759504Y-100924316D01*
X193738176Y-101093143D01*
X166033990Y-101093143D01*
X165864115Y-101001292D01*
X165673685Y-100942344D01*
X165667560Y-100941700D01*
X165667559Y-100941700D01*
X165481560Y-100922151D01*
X165481558Y-100922151D01*
X165475431Y-100921507D01*
X165352552Y-100932690D01*
X165283046Y-100939015D01*
X165283045Y-100939015D01*
X165276905Y-100939574D01*
X165270991Y-100941315D01*
X165270989Y-100941315D01*
X165249506Y-100947638D01*
X165085670Y-100995858D01*
X164909009Y-101088214D01*
X164904209Y-101092074D01*
X164904208Y-101092074D01*
X164899193Y-101096106D01*
X164753651Y-101213125D01*
X164625514Y-101365833D01*
X164529479Y-101540521D01*
X164527618Y-101546388D01*
X164527617Y-101546390D01*
X164514236Y-101588573D01*
X164469202Y-101730535D01*
X164446982Y-101928639D01*
X151333700Y-101928639D01*
X151333700Y-98236543D01*
X207262776Y-98236543D01*
X207279382Y-98405899D01*
X207333095Y-98567367D01*
X207336742Y-98573389D01*
X207336743Y-98573391D01*
X207354048Y-98601964D01*
X207421247Y-98712923D01*
X207426143Y-98717993D01*
X207445307Y-98737838D01*
X207539456Y-98835331D01*
X207681846Y-98928509D01*
X207841342Y-98987825D01*
X207848323Y-98988756D01*
X207848325Y-98988757D01*
X207894426Y-98994908D01*
X208010015Y-99010331D01*
X208017026Y-99009693D01*
X208017030Y-99009693D01*
X208172461Y-98995547D01*
X208179482Y-98994908D01*
X208186184Y-98992730D01*
X208186186Y-98992730D01*
X208334623Y-98944500D01*
X208334626Y-98944499D01*
X208341322Y-98942323D01*
X208413067Y-98899554D01*
X208481434Y-98858800D01*
X208481437Y-98858798D01*
X208487489Y-98855190D01*
X208610720Y-98737838D01*
X208704890Y-98596102D01*
X208713517Y-98573391D01*
X208762817Y-98443609D01*
X208762818Y-98443606D01*
X208765318Y-98437024D01*
X208789000Y-98268513D01*
X208789298Y-98247200D01*
X208770330Y-98078092D01*
X208714367Y-97917390D01*
X208708382Y-97907811D01*
X208627925Y-97779053D01*
X208624192Y-97773079D01*
X208564239Y-97712706D01*
X208509249Y-97657331D01*
X208509245Y-97657328D01*
X208504285Y-97652333D01*
X208360608Y-97561152D01*
X208200300Y-97504069D01*
X208031329Y-97483921D01*
X208024326Y-97484657D01*
X208024325Y-97484657D01*
X207869101Y-97500971D01*
X207869097Y-97500972D01*
X207862093Y-97501708D01*
X207855422Y-97503979D01*
X207707674Y-97554276D01*
X207707671Y-97554277D01*
X207701004Y-97556547D01*
X207695006Y-97560237D01*
X207695004Y-97560238D01*
X207687379Y-97564929D01*
X207556067Y-97645713D01*
X207551036Y-97650640D01*
X207551033Y-97650642D01*
X207495276Y-97705243D01*
X207434486Y-97764773D01*
X207342305Y-97907811D01*
X207339896Y-97914431D01*
X207339895Y-97914432D01*
X207336396Y-97924045D01*
X207284104Y-98067716D01*
X207262776Y-98236543D01*
X151333700Y-98236543D01*
X151333700Y-95340943D01*
X172236176Y-95340943D01*
X172252782Y-95510299D01*
X172255006Y-95516984D01*
X172255006Y-95516985D01*
X172279441Y-95590439D01*
X172306495Y-95671767D01*
X172310142Y-95677789D01*
X172310143Y-95677791D01*
X172327448Y-95706364D01*
X172394647Y-95817323D01*
X172399543Y-95822393D01*
X172418707Y-95842238D01*
X172512856Y-95939731D01*
X172655246Y-96032909D01*
X172814742Y-96092225D01*
X172821723Y-96093156D01*
X172821725Y-96093157D01*
X172867826Y-96099308D01*
X172983415Y-96114731D01*
X172990426Y-96114093D01*
X172990430Y-96114093D01*
X173145861Y-96099947D01*
X173152882Y-96099308D01*
X173159584Y-96097130D01*
X173159586Y-96097130D01*
X173308023Y-96048900D01*
X173308026Y-96048899D01*
X173314722Y-96046723D01*
X173386467Y-96003954D01*
X173454834Y-95963200D01*
X173454837Y-95963198D01*
X173460889Y-95959590D01*
X173584120Y-95842238D01*
X173678290Y-95700502D01*
X173688690Y-95673125D01*
X173736217Y-95548009D01*
X173736218Y-95548006D01*
X173738718Y-95541424D01*
X173762400Y-95372913D01*
X173762698Y-95351600D01*
X173751858Y-95254957D01*
X173744515Y-95189488D01*
X173744514Y-95189485D01*
X173743730Y-95182492D01*
X173687767Y-95021790D01*
X173681782Y-95012211D01*
X173601325Y-94883453D01*
X173597592Y-94877479D01*
X173515980Y-94795296D01*
X173482649Y-94761731D01*
X173482645Y-94761728D01*
X173477685Y-94756733D01*
X173334008Y-94665552D01*
X173173700Y-94608469D01*
X173004729Y-94588321D01*
X172997726Y-94589057D01*
X172997725Y-94589057D01*
X172842501Y-94605371D01*
X172842497Y-94605372D01*
X172835493Y-94606108D01*
X172828822Y-94608379D01*
X172681074Y-94658676D01*
X172681071Y-94658677D01*
X172674404Y-94660947D01*
X172668406Y-94664637D01*
X172668404Y-94664638D01*
X172646813Y-94677921D01*
X172529467Y-94750113D01*
X172524436Y-94755040D01*
X172524433Y-94755042D01*
X172487315Y-94791391D01*
X172407886Y-94869173D01*
X172315705Y-95012211D01*
X172313296Y-95018831D01*
X172313295Y-95018832D01*
X172268229Y-95142649D01*
X172257504Y-95172116D01*
X172236176Y-95340943D01*
X151333700Y-95340943D01*
X151333700Y-94324943D01*
X177062176Y-94324943D01*
X177078782Y-94494299D01*
X177081006Y-94500984D01*
X177081006Y-94500985D01*
X177085136Y-94513400D01*
X177132495Y-94655767D01*
X177136142Y-94661789D01*
X177136143Y-94661791D01*
X177153448Y-94690364D01*
X177220647Y-94801323D01*
X177225543Y-94806393D01*
X177244707Y-94826238D01*
X177338856Y-94923731D01*
X177481246Y-95016909D01*
X177640742Y-95076225D01*
X177647723Y-95077156D01*
X177647725Y-95077157D01*
X177693826Y-95083308D01*
X177809415Y-95098731D01*
X177816426Y-95098093D01*
X177816430Y-95098093D01*
X177971861Y-95083947D01*
X177978882Y-95083308D01*
X177985584Y-95081130D01*
X177985586Y-95081130D01*
X178134023Y-95032900D01*
X178134026Y-95032899D01*
X178140722Y-95030723D01*
X178212467Y-94987954D01*
X178280834Y-94947200D01*
X178280837Y-94947198D01*
X178286889Y-94943590D01*
X178410120Y-94826238D01*
X178414289Y-94819964D01*
X178491851Y-94703224D01*
X178504290Y-94684502D01*
X178507663Y-94675623D01*
X178562217Y-94532009D01*
X178562218Y-94532006D01*
X178564718Y-94525424D01*
X178567906Y-94502743D01*
X179246576Y-94502743D01*
X179263182Y-94672099D01*
X179316895Y-94833567D01*
X179320542Y-94839589D01*
X179320543Y-94839591D01*
X179337848Y-94868164D01*
X179405047Y-94979123D01*
X179409943Y-94984193D01*
X179424534Y-94999302D01*
X179523256Y-95101531D01*
X179665646Y-95194709D01*
X179825142Y-95254025D01*
X179832123Y-95254956D01*
X179832125Y-95254957D01*
X179878226Y-95261108D01*
X179993815Y-95276531D01*
X180000826Y-95275893D01*
X180000830Y-95275893D01*
X180156261Y-95261747D01*
X180163282Y-95261108D01*
X180169984Y-95258930D01*
X180169986Y-95258930D01*
X180318423Y-95210700D01*
X180318426Y-95210699D01*
X180325122Y-95208523D01*
X180412029Y-95156716D01*
X180465234Y-95125000D01*
X180465237Y-95124998D01*
X180471289Y-95121390D01*
X180594520Y-95004038D01*
X180613799Y-94975022D01*
X180651244Y-94918662D01*
X180688690Y-94862302D01*
X180699452Y-94833971D01*
X180746617Y-94709809D01*
X180746618Y-94709806D01*
X180749118Y-94703224D01*
X180772800Y-94534713D01*
X180772930Y-94525424D01*
X180773043Y-94517361D01*
X180773043Y-94517355D01*
X180773098Y-94513400D01*
X180766496Y-94454543D01*
X183770376Y-94454543D01*
X183786982Y-94623899D01*
X183789206Y-94630584D01*
X183789206Y-94630585D01*
X183803016Y-94672099D01*
X183840695Y-94785367D01*
X183844342Y-94791389D01*
X183844343Y-94791391D01*
X183888465Y-94864244D01*
X183928847Y-94930923D01*
X183933743Y-94935993D01*
X183950952Y-94953813D01*
X184047056Y-95053331D01*
X184189446Y-95146509D01*
X184348942Y-95205825D01*
X184355923Y-95206756D01*
X184355925Y-95206757D01*
X184402026Y-95212908D01*
X184517615Y-95228331D01*
X184524626Y-95227693D01*
X184524630Y-95227693D01*
X184680061Y-95213547D01*
X184687082Y-95212908D01*
X184693784Y-95210730D01*
X184693786Y-95210730D01*
X184842223Y-95162500D01*
X184842226Y-95162499D01*
X184848922Y-95160323D01*
X184920667Y-95117554D01*
X184989034Y-95076800D01*
X184989037Y-95076798D01*
X184995089Y-95073190D01*
X185118320Y-94955838D01*
X185140907Y-94921843D01*
X189114476Y-94921843D01*
X189131082Y-95091199D01*
X189133306Y-95097884D01*
X189133306Y-95097885D01*
X189154076Y-95160323D01*
X189184795Y-95252667D01*
X189188442Y-95258689D01*
X189188443Y-95258691D01*
X189205748Y-95287264D01*
X189272947Y-95398223D01*
X189277843Y-95403293D01*
X189292131Y-95418088D01*
X189391156Y-95520631D01*
X189533546Y-95613809D01*
X189693042Y-95673125D01*
X189700023Y-95674056D01*
X189700025Y-95674057D01*
X189746126Y-95680208D01*
X189861715Y-95695631D01*
X189868726Y-95694993D01*
X189868730Y-95694993D01*
X190024161Y-95680847D01*
X190031182Y-95680208D01*
X190037884Y-95678030D01*
X190037886Y-95678030D01*
X190186323Y-95629800D01*
X190186326Y-95629799D01*
X190193022Y-95627623D01*
X190272575Y-95580200D01*
X190290452Y-95569543D01*
X216762376Y-95569543D01*
X216778982Y-95738899D01*
X216832695Y-95900367D01*
X216836342Y-95906389D01*
X216836343Y-95906391D01*
X216853465Y-95934662D01*
X216920847Y-96045923D01*
X216925743Y-96050993D01*
X216944907Y-96070838D01*
X217039056Y-96168331D01*
X217181446Y-96261509D01*
X217340942Y-96320825D01*
X217347923Y-96321756D01*
X217347925Y-96321757D01*
X217394026Y-96327908D01*
X217509615Y-96343331D01*
X217516626Y-96342693D01*
X217516630Y-96342693D01*
X217672061Y-96328547D01*
X217679082Y-96327908D01*
X217685784Y-96325730D01*
X217685786Y-96325730D01*
X217834223Y-96277500D01*
X217834226Y-96277499D01*
X217840922Y-96275323D01*
X217912667Y-96232555D01*
X217981034Y-96191800D01*
X217981037Y-96191798D01*
X217987089Y-96188190D01*
X218110320Y-96070838D01*
X218133889Y-96035365D01*
X218181835Y-95963200D01*
X218204490Y-95929102D01*
X218213117Y-95906391D01*
X218262417Y-95776609D01*
X218262418Y-95776606D01*
X218264918Y-95770024D01*
X218288600Y-95601513D01*
X218288898Y-95580200D01*
X218269930Y-95411092D01*
X218213967Y-95250390D01*
X218208968Y-95242389D01*
X218127525Y-95112053D01*
X218123792Y-95106079D01*
X218063839Y-95045706D01*
X218008849Y-94990331D01*
X218008845Y-94990328D01*
X218003885Y-94985333D01*
X217860208Y-94894152D01*
X217699900Y-94837069D01*
X217530929Y-94816921D01*
X217523926Y-94817657D01*
X217523925Y-94817657D01*
X217368701Y-94833971D01*
X217368697Y-94833972D01*
X217361693Y-94834708D01*
X217355022Y-94836979D01*
X217207274Y-94887276D01*
X217207271Y-94887277D01*
X217200604Y-94889547D01*
X217194606Y-94893237D01*
X217194604Y-94893238D01*
X217186979Y-94897929D01*
X217055667Y-94978713D01*
X217050636Y-94983640D01*
X217050633Y-94983642D01*
X217014154Y-95019365D01*
X216934086Y-95097773D01*
X216841905Y-95240811D01*
X216839496Y-95247431D01*
X216839495Y-95247432D01*
X216792400Y-95376823D01*
X216783704Y-95400716D01*
X216762376Y-95569543D01*
X190290452Y-95569543D01*
X190333134Y-95544100D01*
X190333137Y-95544098D01*
X190339189Y-95540490D01*
X190462420Y-95423138D01*
X190470424Y-95411092D01*
X190521534Y-95334165D01*
X190556590Y-95281402D01*
X190565217Y-95258691D01*
X190614517Y-95128909D01*
X190614518Y-95128906D01*
X190617018Y-95122324D01*
X190640700Y-94953813D01*
X190640998Y-94932500D01*
X190630029Y-94834708D01*
X190622815Y-94770388D01*
X190622814Y-94770385D01*
X190622030Y-94763392D01*
X190578970Y-94639743D01*
X218936776Y-94639743D01*
X218953382Y-94809099D01*
X219007095Y-94970567D01*
X219010742Y-94976589D01*
X219010743Y-94976591D01*
X219035161Y-95016909D01*
X219095247Y-95116123D01*
X219100143Y-95121193D01*
X219119307Y-95141038D01*
X219213456Y-95238531D01*
X219355846Y-95331709D01*
X219515342Y-95391025D01*
X219522323Y-95391956D01*
X219522325Y-95391957D01*
X219568426Y-95398108D01*
X219684015Y-95413531D01*
X219691026Y-95412893D01*
X219691030Y-95412893D01*
X219846461Y-95398747D01*
X219853482Y-95398108D01*
X219860184Y-95395930D01*
X219860186Y-95395930D01*
X220008623Y-95347700D01*
X220008626Y-95347699D01*
X220015322Y-95345523D01*
X220087067Y-95302754D01*
X220155434Y-95262000D01*
X220155437Y-95261998D01*
X220161489Y-95258390D01*
X220284720Y-95141038D01*
X220313466Y-95097773D01*
X220370313Y-95012211D01*
X220378890Y-94999302D01*
X220388845Y-94973096D01*
X220436817Y-94846809D01*
X220436818Y-94846806D01*
X220439318Y-94840224D01*
X220463000Y-94671713D01*
X220463223Y-94655767D01*
X220463243Y-94654361D01*
X220463243Y-94654355D01*
X220463298Y-94650400D01*
X220451232Y-94542825D01*
X220445115Y-94488288D01*
X220445114Y-94488285D01*
X220444330Y-94481292D01*
X220388367Y-94320590D01*
X220382382Y-94311011D01*
X220301925Y-94182253D01*
X220298192Y-94176279D01*
X220238018Y-94115684D01*
X220183249Y-94060531D01*
X220183245Y-94060528D01*
X220178285Y-94055533D01*
X220034608Y-93964352D01*
X219874300Y-93907269D01*
X219705329Y-93887121D01*
X219698326Y-93887857D01*
X219698325Y-93887857D01*
X219543101Y-93904171D01*
X219543097Y-93904172D01*
X219536093Y-93904908D01*
X219529422Y-93907179D01*
X219381674Y-93957476D01*
X219381671Y-93957477D01*
X219375004Y-93959747D01*
X219369006Y-93963437D01*
X219369004Y-93963438D01*
X219315733Y-93996211D01*
X219230067Y-94048913D01*
X219225036Y-94053840D01*
X219225033Y-94053842D01*
X219169277Y-94108443D01*
X219108486Y-94167973D01*
X219016305Y-94311011D01*
X219013896Y-94317631D01*
X219013895Y-94317632D01*
X218962667Y-94458379D01*
X218958104Y-94470916D01*
X218936776Y-94639743D01*
X190578970Y-94639743D01*
X190566067Y-94602690D01*
X190560082Y-94593111D01*
X190479625Y-94464353D01*
X190475892Y-94458379D01*
X190379014Y-94360823D01*
X190360949Y-94342631D01*
X190360945Y-94342628D01*
X190355985Y-94337633D01*
X190212308Y-94246452D01*
X190052000Y-94189369D01*
X189883029Y-94169221D01*
X189876026Y-94169957D01*
X189876025Y-94169957D01*
X189720801Y-94186271D01*
X189720797Y-94186272D01*
X189713793Y-94187008D01*
X189707122Y-94189279D01*
X189559374Y-94239576D01*
X189559371Y-94239577D01*
X189552704Y-94241847D01*
X189546706Y-94245537D01*
X189546704Y-94245538D01*
X189539079Y-94250229D01*
X189407767Y-94331013D01*
X189402736Y-94335940D01*
X189402733Y-94335942D01*
X189352369Y-94385262D01*
X189286186Y-94450073D01*
X189194005Y-94593111D01*
X189191596Y-94599731D01*
X189191595Y-94599732D01*
X189156465Y-94696250D01*
X189135804Y-94753016D01*
X189114476Y-94921843D01*
X185140907Y-94921843D01*
X185195659Y-94839434D01*
X185212490Y-94814102D01*
X185221117Y-94791391D01*
X185270417Y-94661609D01*
X185270418Y-94661606D01*
X185272918Y-94655024D01*
X185296600Y-94486513D01*
X185296898Y-94465200D01*
X185282806Y-94339561D01*
X185278715Y-94303088D01*
X185278714Y-94303085D01*
X185277930Y-94296092D01*
X185221967Y-94135390D01*
X185215982Y-94125811D01*
X185135525Y-93997053D01*
X185131792Y-93991079D01*
X185058071Y-93916842D01*
X185016849Y-93875331D01*
X185016845Y-93875328D01*
X185011885Y-93870333D01*
X184887733Y-93791543D01*
X215974976Y-93791543D01*
X215991582Y-93960899D01*
X215993806Y-93967584D01*
X215993806Y-93967585D01*
X216001936Y-93992024D01*
X216045295Y-94122367D01*
X216048942Y-94128389D01*
X216048943Y-94128391D01*
X216081563Y-94182253D01*
X216133447Y-94267923D01*
X216138343Y-94272993D01*
X216154228Y-94289442D01*
X216251656Y-94390331D01*
X216394046Y-94483509D01*
X216553542Y-94542825D01*
X216560523Y-94543756D01*
X216560525Y-94543757D01*
X216606626Y-94549908D01*
X216722215Y-94565331D01*
X216729226Y-94564693D01*
X216729230Y-94564693D01*
X216884661Y-94550547D01*
X216891682Y-94549908D01*
X216898384Y-94547730D01*
X216898386Y-94547730D01*
X217046823Y-94499500D01*
X217046826Y-94499499D01*
X217053522Y-94497323D01*
X217141053Y-94445144D01*
X217193634Y-94413800D01*
X217193637Y-94413798D01*
X217199689Y-94410190D01*
X217322920Y-94292838D01*
X217358308Y-94239576D01*
X217393234Y-94187008D01*
X217417090Y-94151102D01*
X217419590Y-94144521D01*
X217475017Y-93998609D01*
X217475018Y-93998606D01*
X217477518Y-93992024D01*
X217501200Y-93823513D01*
X217501498Y-93802200D01*
X217484800Y-93653329D01*
X217483315Y-93640088D01*
X217483314Y-93640085D01*
X217482530Y-93633092D01*
X217426567Y-93472390D01*
X217420582Y-93462811D01*
X217340125Y-93334053D01*
X217336392Y-93328079D01*
X217245558Y-93236609D01*
X217221449Y-93212331D01*
X217221445Y-93212328D01*
X217216485Y-93207333D01*
X217072808Y-93116152D01*
X216912500Y-93059069D01*
X216743529Y-93038921D01*
X216736526Y-93039657D01*
X216736525Y-93039657D01*
X216581301Y-93055971D01*
X216581297Y-93055972D01*
X216574293Y-93056708D01*
X216567622Y-93058979D01*
X216419874Y-93109276D01*
X216419871Y-93109277D01*
X216413204Y-93111547D01*
X216407206Y-93115237D01*
X216407204Y-93115238D01*
X216370672Y-93137713D01*
X216268267Y-93200713D01*
X216263236Y-93205640D01*
X216263233Y-93205642D01*
X216245457Y-93223050D01*
X216146686Y-93319773D01*
X216054505Y-93462811D01*
X216052096Y-93469431D01*
X216052095Y-93469432D01*
X216007346Y-93592379D01*
X215996304Y-93622716D01*
X215974976Y-93791543D01*
X184887733Y-93791543D01*
X184868208Y-93779152D01*
X184707900Y-93722069D01*
X184538929Y-93701921D01*
X184531926Y-93702657D01*
X184531925Y-93702657D01*
X184376701Y-93718971D01*
X184376697Y-93718972D01*
X184369693Y-93719708D01*
X184363022Y-93721979D01*
X184215274Y-93772276D01*
X184215271Y-93772277D01*
X184208604Y-93774547D01*
X184202606Y-93778237D01*
X184202604Y-93778238D01*
X184148500Y-93811523D01*
X184063667Y-93863713D01*
X184058636Y-93868640D01*
X184058633Y-93868642D01*
X184016774Y-93909634D01*
X183942086Y-93982773D01*
X183849905Y-94125811D01*
X183847496Y-94132431D01*
X183847495Y-94132432D01*
X183831536Y-94176279D01*
X183791704Y-94285716D01*
X183770376Y-94454543D01*
X180766496Y-94454543D01*
X180761926Y-94413800D01*
X180754915Y-94351288D01*
X180754914Y-94351285D01*
X180754130Y-94344292D01*
X180698167Y-94183590D01*
X180692182Y-94174011D01*
X180611725Y-94045253D01*
X180607992Y-94039279D01*
X180546984Y-93977844D01*
X180493049Y-93923531D01*
X180493045Y-93923528D01*
X180488085Y-93918533D01*
X180344408Y-93827352D01*
X180184100Y-93770269D01*
X180015129Y-93750121D01*
X180008126Y-93750857D01*
X180008125Y-93750857D01*
X179852901Y-93767171D01*
X179852897Y-93767172D01*
X179845893Y-93767908D01*
X179839222Y-93770179D01*
X179691474Y-93820476D01*
X179691471Y-93820477D01*
X179684804Y-93822747D01*
X179678806Y-93826437D01*
X179678804Y-93826438D01*
X179624214Y-93860022D01*
X179539867Y-93911913D01*
X179534836Y-93916840D01*
X179534833Y-93916842D01*
X179497001Y-93953890D01*
X179418286Y-94030973D01*
X179326105Y-94174011D01*
X179323696Y-94180631D01*
X179323695Y-94180632D01*
X179272754Y-94320590D01*
X179267904Y-94333916D01*
X179246576Y-94502743D01*
X178567906Y-94502743D01*
X178588400Y-94356913D01*
X178588517Y-94348564D01*
X178588643Y-94339561D01*
X178588643Y-94339555D01*
X178588698Y-94335600D01*
X178578182Y-94241847D01*
X178570515Y-94173488D01*
X178570514Y-94173485D01*
X178569730Y-94166492D01*
X178513767Y-94005790D01*
X178507782Y-93996211D01*
X178427325Y-93867453D01*
X178423592Y-93861479D01*
X178350532Y-93787908D01*
X178308649Y-93745731D01*
X178308645Y-93745728D01*
X178303685Y-93740733D01*
X178160008Y-93649552D01*
X177999700Y-93592469D01*
X177830729Y-93572321D01*
X177823726Y-93573057D01*
X177823725Y-93573057D01*
X177668501Y-93589371D01*
X177668497Y-93589372D01*
X177661493Y-93590108D01*
X177654822Y-93592379D01*
X177507074Y-93642676D01*
X177507071Y-93642677D01*
X177500404Y-93644947D01*
X177494406Y-93648637D01*
X177494404Y-93648638D01*
X177486779Y-93653329D01*
X177355467Y-93734113D01*
X177350436Y-93739040D01*
X177350433Y-93739042D01*
X177339120Y-93750121D01*
X177233886Y-93853173D01*
X177141705Y-93996211D01*
X177139296Y-94002831D01*
X177139295Y-94002832D01*
X177126898Y-94036893D01*
X177083504Y-94156116D01*
X177062176Y-94324943D01*
X151333700Y-94324943D01*
X151333700Y-93105743D01*
X166876776Y-93105743D01*
X166893382Y-93275099D01*
X166895606Y-93281784D01*
X166895606Y-93281785D01*
X166903736Y-93306224D01*
X166947095Y-93436567D01*
X166950742Y-93442589D01*
X166950743Y-93442591D01*
X166992169Y-93510993D01*
X167035247Y-93582123D01*
X167040143Y-93587193D01*
X167059307Y-93607038D01*
X167153456Y-93704531D01*
X167295846Y-93797709D01*
X167455342Y-93857025D01*
X167462323Y-93857956D01*
X167462325Y-93857957D01*
X167508426Y-93864108D01*
X167624015Y-93879531D01*
X167631026Y-93878893D01*
X167631030Y-93878893D01*
X167786461Y-93864747D01*
X167793482Y-93864108D01*
X167800184Y-93861930D01*
X167800186Y-93861930D01*
X167948623Y-93813700D01*
X167948626Y-93813699D01*
X167955322Y-93811523D01*
X168056926Y-93750955D01*
X168095434Y-93728000D01*
X168095437Y-93727998D01*
X168101489Y-93724390D01*
X168224720Y-93607038D01*
X168232829Y-93594834D01*
X168291901Y-93505923D01*
X168318890Y-93465302D01*
X168321390Y-93458721D01*
X168376817Y-93312809D01*
X168376818Y-93312806D01*
X168379318Y-93306224D01*
X168403000Y-93137713D01*
X168403298Y-93116400D01*
X168392771Y-93022549D01*
X168385115Y-92954288D01*
X168385114Y-92954285D01*
X168384330Y-92947292D01*
X168328367Y-92786590D01*
X168322382Y-92777011D01*
X168241925Y-92648253D01*
X168238192Y-92642279D01*
X168168454Y-92572053D01*
X168123249Y-92526531D01*
X168123245Y-92526528D01*
X168118285Y-92521533D01*
X167974608Y-92430352D01*
X167814300Y-92373269D01*
X167645329Y-92353121D01*
X167638326Y-92353857D01*
X167638325Y-92353857D01*
X167483101Y-92370171D01*
X167483097Y-92370172D01*
X167476093Y-92370908D01*
X167469422Y-92373179D01*
X167321674Y-92423476D01*
X167321671Y-92423477D01*
X167315004Y-92425747D01*
X167309006Y-92429437D01*
X167309004Y-92429438D01*
X167293928Y-92438713D01*
X167170067Y-92514913D01*
X167165036Y-92519840D01*
X167165033Y-92519842D01*
X167126299Y-92557773D01*
X167048486Y-92633973D01*
X166956305Y-92777011D01*
X166953896Y-92783631D01*
X166953895Y-92783632D01*
X166906324Y-92914331D01*
X166898104Y-92936916D01*
X166876776Y-93105743D01*
X151333700Y-93105743D01*
X151333700Y-91505543D01*
X169619976Y-91505543D01*
X169636582Y-91674899D01*
X169638806Y-91681584D01*
X169638806Y-91681585D01*
X169642936Y-91694000D01*
X169690295Y-91836367D01*
X169693942Y-91842389D01*
X169693943Y-91842391D01*
X169755068Y-91943320D01*
X169778447Y-91981923D01*
X169896656Y-92104331D01*
X170039046Y-92197509D01*
X170198542Y-92256825D01*
X170205523Y-92257756D01*
X170205525Y-92257757D01*
X170251626Y-92263908D01*
X170367215Y-92279331D01*
X170374226Y-92278693D01*
X170374230Y-92278693D01*
X170529661Y-92264547D01*
X170536682Y-92263908D01*
X170543384Y-92261730D01*
X170543386Y-92261730D01*
X170691823Y-92213500D01*
X170691826Y-92213499D01*
X170698522Y-92211323D01*
X170792735Y-92155161D01*
X170838634Y-92127800D01*
X170838637Y-92127798D01*
X170844689Y-92124190D01*
X170957355Y-92016899D01*
X171020480Y-91984406D01*
X171091150Y-91991199D01*
X171146930Y-92035122D01*
X171170108Y-92102228D01*
X171170212Y-92108524D01*
X171169376Y-92115143D01*
X171185982Y-92284499D01*
X171188206Y-92291184D01*
X171188206Y-92291185D01*
X171202465Y-92334050D01*
X171239695Y-92445967D01*
X171243342Y-92451989D01*
X171243343Y-92451991D01*
X171279215Y-92511222D01*
X171327847Y-92591523D01*
X171446056Y-92713931D01*
X171588446Y-92807109D01*
X171747942Y-92866425D01*
X171754923Y-92867356D01*
X171754925Y-92867357D01*
X171801026Y-92873508D01*
X171916615Y-92888931D01*
X171923626Y-92888293D01*
X171923630Y-92888293D01*
X172079061Y-92874147D01*
X172086082Y-92873508D01*
X172092784Y-92871330D01*
X172092786Y-92871330D01*
X172241223Y-92823100D01*
X172241226Y-92823099D01*
X172247922Y-92820923D01*
X172253973Y-92817316D01*
X172343974Y-92763665D01*
X172412729Y-92745965D01*
X172480138Y-92768247D01*
X172524800Y-92823436D01*
X172533497Y-92887685D01*
X172515576Y-93029543D01*
X172532182Y-93198899D01*
X172534406Y-93205584D01*
X172534406Y-93205585D01*
X172536383Y-93211527D01*
X172585895Y-93360367D01*
X172589542Y-93366389D01*
X172589543Y-93366391D01*
X172645460Y-93458721D01*
X172674047Y-93505923D01*
X172678943Y-93510993D01*
X172698107Y-93530838D01*
X172792256Y-93628331D01*
X172934646Y-93721509D01*
X173094142Y-93780825D01*
X173101123Y-93781756D01*
X173101125Y-93781757D01*
X173147226Y-93787908D01*
X173262815Y-93803331D01*
X173269826Y-93802693D01*
X173269830Y-93802693D01*
X173425261Y-93788547D01*
X173432282Y-93787908D01*
X173438984Y-93785730D01*
X173438986Y-93785730D01*
X173587423Y-93737500D01*
X173587426Y-93737499D01*
X173594122Y-93735323D01*
X173665867Y-93692554D01*
X173734234Y-93651800D01*
X173734237Y-93651798D01*
X173740289Y-93648190D01*
X173863520Y-93530838D01*
X173897932Y-93479045D01*
X173953795Y-93394964D01*
X173957690Y-93389102D01*
X173966317Y-93366391D01*
X174015617Y-93236609D01*
X174015618Y-93236606D01*
X174018118Y-93230024D01*
X174041800Y-93061513D01*
X174042098Y-93040200D01*
X174027980Y-92914331D01*
X174023915Y-92878088D01*
X174023914Y-92878085D01*
X174023130Y-92871092D01*
X173967167Y-92710390D01*
X173961182Y-92700811D01*
X173896778Y-92597743D01*
X179348176Y-92597743D01*
X179364782Y-92767099D01*
X179367006Y-92773784D01*
X179367006Y-92773785D01*
X179375136Y-92798224D01*
X179418495Y-92928567D01*
X179422142Y-92934589D01*
X179422143Y-92934591D01*
X179439448Y-92963164D01*
X179506647Y-93074123D01*
X179511543Y-93079193D01*
X179530428Y-93098749D01*
X179624856Y-93196531D01*
X179767246Y-93289709D01*
X179926742Y-93349025D01*
X179933723Y-93349956D01*
X179933725Y-93349957D01*
X179979826Y-93356108D01*
X180095415Y-93371531D01*
X180102426Y-93370893D01*
X180102430Y-93370893D01*
X180257861Y-93356747D01*
X180264882Y-93356108D01*
X180271584Y-93353930D01*
X180271586Y-93353930D01*
X180420023Y-93305700D01*
X180420026Y-93305699D01*
X180426722Y-93303523D01*
X180498467Y-93260754D01*
X180566834Y-93220000D01*
X180566837Y-93219998D01*
X180572889Y-93216390D01*
X180696120Y-93099038D01*
X180790290Y-92957302D01*
X180792790Y-92950721D01*
X180848217Y-92804809D01*
X180848218Y-92804806D01*
X180850718Y-92798224D01*
X180874400Y-92629713D01*
X180874698Y-92608400D01*
X180869951Y-92566079D01*
X180859682Y-92474521D01*
X180871967Y-92404596D01*
X180920380Y-92352248D01*
X180921154Y-92351787D01*
X180991422Y-92309899D01*
X180998634Y-92305600D01*
X180998637Y-92305598D01*
X181004689Y-92301990D01*
X181127920Y-92184638D01*
X181138599Y-92168566D01*
X181157217Y-92140543D01*
X210640976Y-92140543D01*
X210657582Y-92309899D01*
X210711295Y-92471367D01*
X210714942Y-92477389D01*
X210714943Y-92477391D01*
X210763624Y-92557773D01*
X210799447Y-92616923D01*
X210804343Y-92621993D01*
X210819107Y-92637281D01*
X210917656Y-92739331D01*
X211060046Y-92832509D01*
X211219542Y-92891825D01*
X211226523Y-92892756D01*
X211226525Y-92892757D01*
X211272626Y-92898908D01*
X211388215Y-92914331D01*
X211395226Y-92913693D01*
X211395230Y-92913693D01*
X211550661Y-92899547D01*
X211557682Y-92898908D01*
X211564384Y-92896730D01*
X211564386Y-92896730D01*
X211712823Y-92848500D01*
X211712826Y-92848499D01*
X211719522Y-92846323D01*
X211819725Y-92786590D01*
X211859634Y-92762800D01*
X211859637Y-92762798D01*
X211865689Y-92759190D01*
X211988920Y-92641838D01*
X211997421Y-92629044D01*
X212068851Y-92521533D01*
X212083090Y-92500102D01*
X212092807Y-92474521D01*
X212141017Y-92347609D01*
X212141018Y-92347606D01*
X212143518Y-92341024D01*
X212167200Y-92172513D01*
X212167498Y-92151200D01*
X212150900Y-92003222D01*
X212149315Y-91989088D01*
X212149314Y-91989085D01*
X212148530Y-91982092D01*
X212092567Y-91821390D01*
X212086582Y-91811811D01*
X212006125Y-91683053D01*
X212002392Y-91677079D01*
X211934658Y-91608871D01*
X211887449Y-91561331D01*
X211887445Y-91561328D01*
X211882485Y-91556333D01*
X211738808Y-91465152D01*
X211578500Y-91408069D01*
X211409529Y-91387921D01*
X211402526Y-91388657D01*
X211402525Y-91388657D01*
X211247301Y-91404971D01*
X211247297Y-91404972D01*
X211240293Y-91405708D01*
X211233622Y-91407979D01*
X211085874Y-91458276D01*
X211085871Y-91458277D01*
X211079204Y-91460547D01*
X211073206Y-91464237D01*
X211073204Y-91464238D01*
X211065579Y-91468929D01*
X210934267Y-91549713D01*
X210929236Y-91554640D01*
X210929233Y-91554642D01*
X210873856Y-91608871D01*
X210812686Y-91668773D01*
X210720505Y-91811811D01*
X210718096Y-91818431D01*
X210718095Y-91818432D01*
X210670193Y-91950042D01*
X210662304Y-91971716D01*
X210640976Y-92140543D01*
X181157217Y-92140543D01*
X181218195Y-92048764D01*
X181222090Y-92042902D01*
X181235761Y-92006913D01*
X181280017Y-91890409D01*
X181280018Y-91890406D01*
X181282518Y-91883824D01*
X181306200Y-91715313D01*
X181306498Y-91694000D01*
X181296950Y-91608871D01*
X181288315Y-91531888D01*
X181288314Y-91531885D01*
X181287530Y-91524892D01*
X181231567Y-91364190D01*
X181225582Y-91354611D01*
X181145125Y-91225853D01*
X181141392Y-91219879D01*
X181122389Y-91200743D01*
X182700976Y-91200743D01*
X182717582Y-91370099D01*
X182719806Y-91376784D01*
X182719806Y-91376785D01*
X182739220Y-91435147D01*
X182771295Y-91531567D01*
X182774942Y-91537589D01*
X182774943Y-91537591D01*
X182788834Y-91560527D01*
X182859447Y-91677123D01*
X182864343Y-91682193D01*
X182879570Y-91697961D01*
X182977656Y-91799531D01*
X183120046Y-91892709D01*
X183279542Y-91952025D01*
X183286523Y-91952956D01*
X183286525Y-91952957D01*
X183332626Y-91959108D01*
X183448215Y-91974531D01*
X183455226Y-91973893D01*
X183455230Y-91973893D01*
X183610661Y-91959747D01*
X183617682Y-91959108D01*
X183624384Y-91956930D01*
X183624386Y-91956930D01*
X183772823Y-91908700D01*
X183772826Y-91908699D01*
X183779522Y-91906523D01*
X183869813Y-91852699D01*
X183919634Y-91823000D01*
X183919637Y-91822998D01*
X183925689Y-91819390D01*
X184048920Y-91702038D01*
X184053218Y-91695570D01*
X184100472Y-91624447D01*
X184143090Y-91560302D01*
X184146031Y-91552559D01*
X184201017Y-91407809D01*
X184201018Y-91407806D01*
X184203518Y-91401224D01*
X184227200Y-91232713D01*
X184227317Y-91224364D01*
X184227443Y-91215361D01*
X184227443Y-91215355D01*
X184227498Y-91211400D01*
X184218177Y-91128295D01*
X184209315Y-91049288D01*
X184209314Y-91049285D01*
X184208530Y-91042292D01*
X184152567Y-90881590D01*
X184148106Y-90874450D01*
X184066125Y-90743253D01*
X184062392Y-90737279D01*
X184006447Y-90680943D01*
X191069376Y-90680943D01*
X191085982Y-90850299D01*
X191088206Y-90856984D01*
X191088206Y-90856985D01*
X191094016Y-90874450D01*
X191139695Y-91011767D01*
X191143342Y-91017789D01*
X191143343Y-91017791D01*
X191186361Y-91088822D01*
X191227847Y-91157323D01*
X191232743Y-91162393D01*
X191246666Y-91176811D01*
X191346056Y-91279731D01*
X191488446Y-91372909D01*
X191647942Y-91432225D01*
X191654923Y-91433156D01*
X191654925Y-91433157D01*
X191701026Y-91439308D01*
X191816615Y-91454731D01*
X191823626Y-91454093D01*
X191823630Y-91454093D01*
X191979061Y-91439947D01*
X191986082Y-91439308D01*
X191992784Y-91437130D01*
X191992786Y-91437130D01*
X192141223Y-91388900D01*
X192141226Y-91388899D01*
X192147922Y-91386723D01*
X192242913Y-91330097D01*
X192288034Y-91303200D01*
X192288037Y-91303198D01*
X192294089Y-91299590D01*
X192417320Y-91182238D01*
X192436209Y-91153809D01*
X192479386Y-91088822D01*
X192511490Y-91040502D01*
X192514752Y-91031916D01*
X192569417Y-90888009D01*
X192569418Y-90888006D01*
X192571918Y-90881424D01*
X192595600Y-90712913D01*
X192595898Y-90691600D01*
X192576930Y-90522492D01*
X192520967Y-90361790D01*
X192514982Y-90352211D01*
X192434525Y-90223453D01*
X192430792Y-90217479D01*
X192332525Y-90118524D01*
X192315849Y-90101731D01*
X192315845Y-90101728D01*
X192310885Y-90096733D01*
X192167208Y-90005552D01*
X192006900Y-89948469D01*
X191837929Y-89928321D01*
X191830926Y-89929057D01*
X191830925Y-89929057D01*
X191675701Y-89945371D01*
X191675697Y-89945372D01*
X191668693Y-89946108D01*
X191662022Y-89948379D01*
X191514274Y-89998676D01*
X191514271Y-89998677D01*
X191507604Y-90000947D01*
X191501606Y-90004637D01*
X191501604Y-90004638D01*
X191493979Y-90009329D01*
X191362667Y-90090113D01*
X191357636Y-90095040D01*
X191357633Y-90095042D01*
X191333654Y-90118524D01*
X191241086Y-90209173D01*
X191148905Y-90352211D01*
X191146496Y-90358831D01*
X191146495Y-90358832D01*
X191093113Y-90505497D01*
X191090704Y-90512116D01*
X191069376Y-90680943D01*
X184006447Y-90680943D01*
X183994910Y-90669325D01*
X183947449Y-90621531D01*
X183947445Y-90621528D01*
X183942485Y-90616533D01*
X183798808Y-90525352D01*
X183638500Y-90468269D01*
X183469529Y-90448121D01*
X183462526Y-90448857D01*
X183462525Y-90448857D01*
X183307301Y-90465171D01*
X183307297Y-90465172D01*
X183300293Y-90465908D01*
X183293622Y-90468179D01*
X183145874Y-90518476D01*
X183145871Y-90518477D01*
X183139204Y-90520747D01*
X183133206Y-90524437D01*
X183133204Y-90524438D01*
X183092398Y-90549542D01*
X182994267Y-90609913D01*
X182989236Y-90614840D01*
X182989233Y-90614842D01*
X182936104Y-90666870D01*
X182872686Y-90728973D01*
X182780505Y-90872011D01*
X182778096Y-90878631D01*
X182778095Y-90878632D01*
X182729638Y-91011767D01*
X182722304Y-91031916D01*
X182700976Y-91200743D01*
X181122389Y-91200743D01*
X181069242Y-91147224D01*
X181026449Y-91104131D01*
X181026445Y-91104128D01*
X181021485Y-91099133D01*
X180877808Y-91007952D01*
X180717500Y-90950869D01*
X180548529Y-90930721D01*
X180541526Y-90931457D01*
X180541525Y-90931457D01*
X180386301Y-90947771D01*
X180386297Y-90947772D01*
X180379293Y-90948508D01*
X180372622Y-90950779D01*
X180224874Y-91001076D01*
X180224871Y-91001077D01*
X180218204Y-91003347D01*
X180212206Y-91007037D01*
X180212204Y-91007038D01*
X180155246Y-91042079D01*
X180073267Y-91092513D01*
X180068236Y-91097440D01*
X180068233Y-91097442D01*
X180013239Y-91151296D01*
X179951686Y-91211573D01*
X179859505Y-91354611D01*
X179857096Y-91361231D01*
X179857095Y-91361232D01*
X179804570Y-91505543D01*
X179801304Y-91514516D01*
X179779976Y-91683343D01*
X179791369Y-91799531D01*
X179794335Y-91829783D01*
X179781076Y-91899531D01*
X179734958Y-91949397D01*
X179641467Y-92006913D01*
X179636436Y-92011840D01*
X179636433Y-92011842D01*
X179611436Y-92036321D01*
X179519886Y-92125973D01*
X179427705Y-92269011D01*
X179425296Y-92275631D01*
X179425295Y-92275632D01*
X179381835Y-92395038D01*
X179369504Y-92428916D01*
X179348176Y-92597743D01*
X173896778Y-92597743D01*
X173880725Y-92572053D01*
X173876992Y-92566079D01*
X173817039Y-92505706D01*
X173762049Y-92450331D01*
X173762045Y-92450328D01*
X173757085Y-92445333D01*
X173613408Y-92354152D01*
X173453100Y-92297069D01*
X173284129Y-92276921D01*
X173277126Y-92277657D01*
X173277125Y-92277657D01*
X173121901Y-92293971D01*
X173121897Y-92293972D01*
X173114893Y-92294708D01*
X173108222Y-92296979D01*
X172960474Y-92347276D01*
X172960471Y-92347277D01*
X172953804Y-92349547D01*
X172947808Y-92353235D01*
X172947801Y-92353239D01*
X172868083Y-92402283D01*
X172799582Y-92420942D01*
X172731868Y-92399604D01*
X172686439Y-92345044D01*
X172677286Y-92277431D01*
X172688172Y-92199965D01*
X172695600Y-92147113D01*
X172695898Y-92125800D01*
X172682149Y-92003222D01*
X172677715Y-91963688D01*
X172677714Y-91963685D01*
X172676930Y-91956692D01*
X172620967Y-91795990D01*
X172614982Y-91786411D01*
X172534525Y-91657653D01*
X172530792Y-91651679D01*
X172470839Y-91591306D01*
X172415849Y-91535931D01*
X172415845Y-91535928D01*
X172410885Y-91530933D01*
X172267208Y-91439752D01*
X172106900Y-91382669D01*
X171937929Y-91362521D01*
X171930926Y-91363257D01*
X171930925Y-91363257D01*
X171775701Y-91379571D01*
X171775697Y-91379572D01*
X171768693Y-91380308D01*
X171762022Y-91382579D01*
X171614274Y-91432876D01*
X171614271Y-91432877D01*
X171607604Y-91435147D01*
X171601606Y-91438837D01*
X171601604Y-91438838D01*
X171570008Y-91458276D01*
X171462667Y-91524313D01*
X171457636Y-91529240D01*
X171457633Y-91529242D01*
X171360413Y-91624447D01*
X171297748Y-91657817D01*
X171226989Y-91652011D01*
X171170602Y-91608871D01*
X171146490Y-91542095D01*
X171146268Y-91532663D01*
X171146443Y-91520162D01*
X171146443Y-91520156D01*
X171146498Y-91516200D01*
X171134635Y-91410434D01*
X171128315Y-91354088D01*
X171128314Y-91354085D01*
X171127530Y-91347092D01*
X171071567Y-91186390D01*
X171065582Y-91176811D01*
X170985125Y-91048053D01*
X170981392Y-91042079D01*
X170901235Y-90961361D01*
X170866449Y-90926331D01*
X170866445Y-90926328D01*
X170861485Y-90921333D01*
X170717808Y-90830152D01*
X170557500Y-90773069D01*
X170388529Y-90752921D01*
X170381526Y-90753657D01*
X170381525Y-90753657D01*
X170226301Y-90769971D01*
X170226297Y-90769972D01*
X170219293Y-90770708D01*
X170212622Y-90772979D01*
X170064874Y-90823276D01*
X170064871Y-90823277D01*
X170058204Y-90825547D01*
X170052206Y-90829237D01*
X170052204Y-90829238D01*
X170044579Y-90833929D01*
X169913267Y-90914713D01*
X169908236Y-90919640D01*
X169908233Y-90919642D01*
X169873398Y-90953755D01*
X169791686Y-91033773D01*
X169699505Y-91176811D01*
X169697096Y-91183431D01*
X169697095Y-91183432D01*
X169662045Y-91279731D01*
X169641304Y-91336716D01*
X169619976Y-91505543D01*
X151333700Y-91505543D01*
X151333700Y-89075200D01*
X155331806Y-89075200D01*
X155352142Y-89307644D01*
X155353566Y-89312957D01*
X155353566Y-89312959D01*
X155404921Y-89504616D01*
X155412533Y-89533026D01*
X155414855Y-89538006D01*
X155414856Y-89538008D01*
X155508818Y-89739510D01*
X155508821Y-89739515D01*
X155511144Y-89744497D01*
X155514300Y-89749004D01*
X155514301Y-89749006D01*
X155640443Y-89929155D01*
X155644978Y-89935632D01*
X155809968Y-90100622D01*
X155814476Y-90103779D01*
X155814479Y-90103781D01*
X155975663Y-90216643D01*
X156001103Y-90234456D01*
X156006085Y-90236779D01*
X156006090Y-90236782D01*
X156093629Y-90277602D01*
X156212574Y-90333067D01*
X156217882Y-90334489D01*
X156217884Y-90334490D01*
X156432641Y-90392034D01*
X156432643Y-90392034D01*
X156437956Y-90393458D01*
X156670400Y-90413794D01*
X156902844Y-90393458D01*
X156908157Y-90392034D01*
X156908159Y-90392034D01*
X157122916Y-90334490D01*
X157122918Y-90334489D01*
X157128226Y-90333067D01*
X157247171Y-90277602D01*
X157334710Y-90236782D01*
X157334715Y-90236779D01*
X157339697Y-90234456D01*
X157365137Y-90216643D01*
X157526321Y-90103781D01*
X157526324Y-90103779D01*
X157530832Y-90100622D01*
X157695822Y-89935632D01*
X157700358Y-89929155D01*
X157708139Y-89918043D01*
X222083676Y-89918043D01*
X222100282Y-90087399D01*
X222102506Y-90094084D01*
X222102506Y-90094085D01*
X222110320Y-90117575D01*
X222153995Y-90248867D01*
X222157642Y-90254889D01*
X222157643Y-90254891D01*
X222212997Y-90346290D01*
X222242147Y-90394423D01*
X222247043Y-90399493D01*
X222291894Y-90445937D01*
X222360356Y-90516831D01*
X222502746Y-90610009D01*
X222662242Y-90669325D01*
X222669223Y-90670256D01*
X222669225Y-90670257D01*
X222715326Y-90676408D01*
X222830915Y-90691831D01*
X222837926Y-90691193D01*
X222837930Y-90691193D01*
X222993361Y-90677047D01*
X223000382Y-90676408D01*
X223007082Y-90674231D01*
X223007087Y-90674230D01*
X223016931Y-90671031D01*
X223087899Y-90669004D01*
X223148697Y-90705666D01*
X223180022Y-90769379D01*
X223180873Y-90806656D01*
X223178487Y-90825547D01*
X223163176Y-90946743D01*
X223179782Y-91116099D01*
X223233495Y-91277567D01*
X223237142Y-91283589D01*
X223237143Y-91283591D01*
X223273550Y-91343706D01*
X223321647Y-91423123D01*
X223326543Y-91428193D01*
X223341353Y-91443529D01*
X223439856Y-91545531D01*
X223582246Y-91638709D01*
X223741742Y-91698025D01*
X223748723Y-91698956D01*
X223748725Y-91698957D01*
X223794826Y-91705108D01*
X223910415Y-91720531D01*
X223917426Y-91719893D01*
X223917430Y-91719893D01*
X224072861Y-91705747D01*
X224079882Y-91705108D01*
X224086584Y-91702930D01*
X224086586Y-91702930D01*
X224235023Y-91654700D01*
X224235026Y-91654699D01*
X224241722Y-91652523D01*
X224314949Y-91608871D01*
X224381834Y-91569000D01*
X224381837Y-91568998D01*
X224387889Y-91565390D01*
X224511120Y-91448038D01*
X224516626Y-91439752D01*
X224578189Y-91347092D01*
X224605290Y-91306302D01*
X224613918Y-91283589D01*
X224663217Y-91153809D01*
X224663218Y-91153806D01*
X224665718Y-91147224D01*
X224689400Y-90978713D01*
X224689698Y-90957400D01*
X224670730Y-90788292D01*
X224614767Y-90627590D01*
X224608782Y-90618011D01*
X224528325Y-90489253D01*
X224524592Y-90483279D01*
X224441388Y-90399493D01*
X224409649Y-90367531D01*
X224409645Y-90367528D01*
X224404685Y-90362533D01*
X224261008Y-90271352D01*
X224100700Y-90214269D01*
X223931729Y-90194121D01*
X223924726Y-90194857D01*
X223924725Y-90194857D01*
X223769501Y-90211171D01*
X223769497Y-90211172D01*
X223762493Y-90211908D01*
X223755823Y-90214179D01*
X223748945Y-90215691D01*
X223748572Y-90213997D01*
X223686542Y-90216643D01*
X223625234Y-90180840D01*
X223593015Y-90117575D01*
X223592081Y-90076809D01*
X223609350Y-89953924D01*
X223609900Y-89950013D01*
X223610198Y-89928700D01*
X223591230Y-89759592D01*
X223535267Y-89598890D01*
X223529282Y-89589311D01*
X223448825Y-89460553D01*
X223445092Y-89454579D01*
X223380441Y-89389476D01*
X223330149Y-89338831D01*
X223330145Y-89338828D01*
X223325185Y-89333833D01*
X223181508Y-89242652D01*
X223021200Y-89185569D01*
X222852229Y-89165421D01*
X222845226Y-89166157D01*
X222845225Y-89166157D01*
X222690001Y-89182471D01*
X222689997Y-89182472D01*
X222682993Y-89183208D01*
X222676322Y-89185479D01*
X222528574Y-89235776D01*
X222528571Y-89235777D01*
X222521904Y-89238047D01*
X222515906Y-89241737D01*
X222515904Y-89241738D01*
X222508279Y-89246429D01*
X222376967Y-89327213D01*
X222371936Y-89332140D01*
X222371933Y-89332142D01*
X222337104Y-89366249D01*
X222255386Y-89446273D01*
X222163205Y-89589311D01*
X222160796Y-89595931D01*
X222160795Y-89595932D01*
X222134858Y-89667194D01*
X222105004Y-89749216D01*
X222083676Y-89918043D01*
X157708139Y-89918043D01*
X157826499Y-89749006D01*
X157826500Y-89749004D01*
X157829656Y-89744497D01*
X157831979Y-89739515D01*
X157831982Y-89739510D01*
X157925944Y-89538008D01*
X157925945Y-89538006D01*
X157928267Y-89533026D01*
X157935880Y-89504616D01*
X157987234Y-89312959D01*
X157987234Y-89312957D01*
X157988658Y-89307644D01*
X158008994Y-89075200D01*
X157988658Y-88842756D01*
X157986930Y-88836306D01*
X157932116Y-88631739D01*
X167990282Y-88631739D01*
X168006962Y-88830386D01*
X168022314Y-88883923D01*
X168059898Y-89014991D01*
X168061910Y-89022009D01*
X168089246Y-89075200D01*
X168145968Y-89185569D01*
X168153030Y-89199311D01*
X168276853Y-89355537D01*
X168428663Y-89484737D01*
X168434041Y-89487743D01*
X168434043Y-89487744D01*
X168515188Y-89533094D01*
X168602676Y-89581989D01*
X168608535Y-89583893D01*
X168608538Y-89583894D01*
X168669303Y-89603638D01*
X168792265Y-89643591D01*
X168798375Y-89644320D01*
X168798377Y-89644320D01*
X168865914Y-89652373D01*
X168990209Y-89667194D01*
X168996344Y-89666722D01*
X168996346Y-89666722D01*
X169182826Y-89652373D01*
X169182831Y-89652372D01*
X169188967Y-89651900D01*
X169194897Y-89650244D01*
X169194899Y-89650244D01*
X169284968Y-89625096D01*
X169380970Y-89598292D01*
X169391617Y-89592914D01*
X169553402Y-89511191D01*
X169553404Y-89511190D01*
X169558903Y-89508412D01*
X169693021Y-89403627D01*
X169711134Y-89389476D01*
X169715990Y-89385682D01*
X169738562Y-89359532D01*
X169842218Y-89239446D01*
X169842219Y-89239444D01*
X169846247Y-89234778D01*
X169944712Y-89061448D01*
X170007635Y-88872294D01*
X170014826Y-88815374D01*
X170032178Y-88678023D01*
X170032179Y-88678013D01*
X170032620Y-88674520D01*
X170033018Y-88646000D01*
X170026639Y-88580939D01*
X177235882Y-88580939D01*
X177252562Y-88779586D01*
X177272320Y-88848490D01*
X177301715Y-88950999D01*
X177307510Y-88971209D01*
X177398630Y-89148511D01*
X177522453Y-89304737D01*
X177674263Y-89433937D01*
X177679641Y-89436943D01*
X177679643Y-89436944D01*
X177719106Y-89458999D01*
X177848276Y-89531189D01*
X177854135Y-89533093D01*
X177854138Y-89533094D01*
X177869262Y-89538008D01*
X178037865Y-89592791D01*
X178043975Y-89593520D01*
X178043977Y-89593520D01*
X178111514Y-89601573D01*
X178235809Y-89616394D01*
X178241944Y-89615922D01*
X178241946Y-89615922D01*
X178428426Y-89601573D01*
X178428431Y-89601572D01*
X178434567Y-89601100D01*
X178440497Y-89599444D01*
X178440499Y-89599444D01*
X178530568Y-89574296D01*
X178626570Y-89547492D01*
X178632070Y-89544714D01*
X178799002Y-89460391D01*
X178799004Y-89460390D01*
X178804503Y-89457612D01*
X178961590Y-89334882D01*
X178971396Y-89323522D01*
X179087818Y-89188646D01*
X179087819Y-89188644D01*
X179091847Y-89183978D01*
X179190312Y-89010648D01*
X179253235Y-88821494D01*
X179265153Y-88727157D01*
X179270334Y-88686143D01*
X183589976Y-88686143D01*
X183606582Y-88855499D01*
X183608806Y-88862184D01*
X183608806Y-88862185D01*
X183616936Y-88886624D01*
X183660295Y-89016967D01*
X183663942Y-89022989D01*
X183663943Y-89022991D01*
X183692246Y-89069725D01*
X183748447Y-89162523D01*
X183753343Y-89167593D01*
X183770702Y-89185569D01*
X183866656Y-89284931D01*
X184009046Y-89378109D01*
X184168542Y-89437425D01*
X184175523Y-89438356D01*
X184175525Y-89438357D01*
X184221626Y-89444508D01*
X184337215Y-89459931D01*
X184344226Y-89459293D01*
X184344230Y-89459293D01*
X184499661Y-89445147D01*
X184506682Y-89444508D01*
X184513384Y-89442330D01*
X184513386Y-89442330D01*
X184661823Y-89394100D01*
X184661826Y-89394099D01*
X184668522Y-89391923D01*
X184768806Y-89332142D01*
X184808634Y-89308400D01*
X184808637Y-89308398D01*
X184814689Y-89304790D01*
X184937920Y-89187438D01*
X184956421Y-89159593D01*
X185028195Y-89051564D01*
X185032090Y-89045702D01*
X185041090Y-89022009D01*
X185090017Y-88893209D01*
X185090018Y-88893206D01*
X185092518Y-88886624D01*
X185116200Y-88718113D01*
X185116498Y-88696800D01*
X185114405Y-88678143D01*
X195383576Y-88678143D01*
X195400182Y-88847499D01*
X195453895Y-89008967D01*
X195457542Y-89014989D01*
X195457543Y-89014991D01*
X195479693Y-89051564D01*
X195542047Y-89154523D01*
X195546943Y-89159593D01*
X195585299Y-89199311D01*
X195660256Y-89276931D01*
X195802646Y-89370109D01*
X195962142Y-89429425D01*
X195969123Y-89430356D01*
X195969125Y-89430357D01*
X196003699Y-89434970D01*
X196130815Y-89451931D01*
X196137826Y-89451293D01*
X196137830Y-89451293D01*
X196293261Y-89437147D01*
X196300282Y-89436508D01*
X196306984Y-89434330D01*
X196306986Y-89434330D01*
X196455423Y-89386100D01*
X196455426Y-89386099D01*
X196462122Y-89383923D01*
X196546149Y-89333833D01*
X196602234Y-89300400D01*
X196602237Y-89300398D01*
X196608289Y-89296790D01*
X196731520Y-89179438D01*
X196742759Y-89162523D01*
X196779158Y-89107738D01*
X196825690Y-89037702D01*
X196831651Y-89022009D01*
X196883617Y-88885209D01*
X196883618Y-88885206D01*
X196886118Y-88878624D01*
X196909800Y-88710113D01*
X196910037Y-88693155D01*
X196910043Y-88692761D01*
X196910043Y-88692755D01*
X196910098Y-88688800D01*
X196900777Y-88605695D01*
X196891915Y-88526688D01*
X196891914Y-88526685D01*
X196891130Y-88519692D01*
X196835167Y-88358990D01*
X196829182Y-88349411D01*
X196748725Y-88220653D01*
X196744992Y-88214679D01*
X196708710Y-88178143D01*
X214984376Y-88178143D01*
X215000982Y-88347499D01*
X215003206Y-88354184D01*
X215003206Y-88354185D01*
X215010784Y-88376966D01*
X215054695Y-88508967D01*
X215058342Y-88514989D01*
X215058343Y-88514991D01*
X215094573Y-88574814D01*
X215142847Y-88654523D01*
X215147743Y-88659593D01*
X215162158Y-88674520D01*
X215261056Y-88776931D01*
X215403446Y-88870109D01*
X215562942Y-88929425D01*
X215569923Y-88930356D01*
X215569925Y-88930357D01*
X215616026Y-88936508D01*
X215731615Y-88951931D01*
X215738626Y-88951293D01*
X215738630Y-88951293D01*
X215894061Y-88937147D01*
X215901082Y-88936508D01*
X215907784Y-88934330D01*
X215907786Y-88934330D01*
X216056223Y-88886100D01*
X216056226Y-88886099D01*
X216062922Y-88883923D01*
X216157831Y-88827346D01*
X216203034Y-88800400D01*
X216203037Y-88800398D01*
X216209089Y-88796790D01*
X216332320Y-88679438D01*
X216337828Y-88671149D01*
X216399989Y-88577589D01*
X216426490Y-88537702D01*
X216428990Y-88531121D01*
X216484417Y-88385209D01*
X216484418Y-88385206D01*
X216486918Y-88378624D01*
X216510600Y-88210113D01*
X216510898Y-88188800D01*
X216493692Y-88035398D01*
X216492715Y-88026688D01*
X216492714Y-88026685D01*
X216491930Y-88019692D01*
X216476347Y-87974943D01*
X225271376Y-87974943D01*
X225287982Y-88144299D01*
X225290206Y-88150984D01*
X225290206Y-88150985D01*
X225308496Y-88205968D01*
X225341695Y-88305767D01*
X225345342Y-88311789D01*
X225345343Y-88311791D01*
X225377958Y-88365645D01*
X225429847Y-88451323D01*
X225434743Y-88456393D01*
X225453907Y-88476238D01*
X225548056Y-88573731D01*
X225690446Y-88666909D01*
X225849942Y-88726225D01*
X225856923Y-88727156D01*
X225856925Y-88727157D01*
X225903026Y-88733308D01*
X226018615Y-88748731D01*
X226025626Y-88748093D01*
X226025630Y-88748093D01*
X226181061Y-88733947D01*
X226188082Y-88733308D01*
X226194784Y-88731130D01*
X226194786Y-88731130D01*
X226343223Y-88682900D01*
X226343226Y-88682899D01*
X226349922Y-88680723D01*
X226421787Y-88637883D01*
X226490034Y-88597200D01*
X226490037Y-88597198D01*
X226496089Y-88593590D01*
X226619320Y-88476238D01*
X226662738Y-88410890D01*
X226666958Y-88404538D01*
X226713490Y-88334502D01*
X226722117Y-88311791D01*
X226771417Y-88182009D01*
X226771418Y-88182006D01*
X226773918Y-88175424D01*
X226797600Y-88006913D01*
X226797898Y-87985600D01*
X226783365Y-87856032D01*
X226779715Y-87823488D01*
X226779714Y-87823485D01*
X226778930Y-87816492D01*
X226722967Y-87655790D01*
X226716982Y-87646211D01*
X226636525Y-87517453D01*
X226632792Y-87511479D01*
X226555722Y-87433870D01*
X226517849Y-87395731D01*
X226517845Y-87395728D01*
X226512885Y-87390733D01*
X226369208Y-87299552D01*
X226208900Y-87242469D01*
X226039929Y-87222321D01*
X226032926Y-87223057D01*
X226032925Y-87223057D01*
X225877701Y-87239371D01*
X225877697Y-87239372D01*
X225870693Y-87240108D01*
X225864022Y-87242379D01*
X225716274Y-87292676D01*
X225716271Y-87292677D01*
X225709604Y-87294947D01*
X225703606Y-87298637D01*
X225703604Y-87298638D01*
X225687600Y-87308484D01*
X225564667Y-87384113D01*
X225559636Y-87389040D01*
X225559633Y-87389042D01*
X225513856Y-87433870D01*
X225443086Y-87503173D01*
X225350905Y-87646211D01*
X225348496Y-87652831D01*
X225348495Y-87652832D01*
X225296285Y-87796276D01*
X225292704Y-87806116D01*
X225271376Y-87974943D01*
X216476347Y-87974943D01*
X216435967Y-87858990D01*
X216429982Y-87849411D01*
X216349525Y-87720653D01*
X216345792Y-87714679D01*
X216279733Y-87648158D01*
X216230849Y-87598931D01*
X216230845Y-87598928D01*
X216225885Y-87593933D01*
X216082208Y-87502752D01*
X215921900Y-87445669D01*
X215752929Y-87425521D01*
X215745926Y-87426257D01*
X215745925Y-87426257D01*
X215590701Y-87442571D01*
X215590697Y-87442572D01*
X215583693Y-87443308D01*
X215577022Y-87445579D01*
X215429274Y-87495876D01*
X215429271Y-87495877D01*
X215422604Y-87498147D01*
X215416606Y-87501837D01*
X215416604Y-87501838D01*
X215350135Y-87542730D01*
X215277667Y-87587313D01*
X215272636Y-87592240D01*
X215272633Y-87592242D01*
X215223568Y-87640290D01*
X215156086Y-87706373D01*
X215063905Y-87849411D01*
X215061496Y-87856031D01*
X215061495Y-87856032D01*
X215025991Y-87953579D01*
X215005704Y-88009316D01*
X214984376Y-88178143D01*
X196708710Y-88178143D01*
X196637993Y-88106931D01*
X196630049Y-88098931D01*
X196630045Y-88098928D01*
X196625085Y-88093933D01*
X196481408Y-88002752D01*
X196321100Y-87945669D01*
X196152129Y-87925521D01*
X196145126Y-87926257D01*
X196145125Y-87926257D01*
X195989901Y-87942571D01*
X195989897Y-87942572D01*
X195982893Y-87943308D01*
X195976222Y-87945579D01*
X195828474Y-87995876D01*
X195828471Y-87995877D01*
X195821804Y-87998147D01*
X195815806Y-88001837D01*
X195815804Y-88001838D01*
X195796986Y-88013415D01*
X195676867Y-88087313D01*
X195671836Y-88092240D01*
X195671833Y-88092242D01*
X195625832Y-88137290D01*
X195555286Y-88206373D01*
X195463105Y-88349411D01*
X195460696Y-88356031D01*
X195460695Y-88356032D01*
X195419078Y-88470373D01*
X195404904Y-88509316D01*
X195383576Y-88678143D01*
X185114405Y-88678143D01*
X185105102Y-88595200D01*
X185098315Y-88534688D01*
X185098314Y-88534685D01*
X185097530Y-88527692D01*
X185041567Y-88366990D01*
X185035582Y-88357411D01*
X184955125Y-88228653D01*
X184951392Y-88222679D01*
X184873557Y-88144299D01*
X184836449Y-88106931D01*
X184836445Y-88106928D01*
X184831485Y-88101933D01*
X184687808Y-88010752D01*
X184527500Y-87953669D01*
X184358529Y-87933521D01*
X184351526Y-87934257D01*
X184351525Y-87934257D01*
X184196301Y-87950571D01*
X184196297Y-87950572D01*
X184189293Y-87951308D01*
X184182622Y-87953579D01*
X184034874Y-88003876D01*
X184034871Y-88003877D01*
X184028204Y-88006147D01*
X184022206Y-88009837D01*
X184022204Y-88009838D01*
X184008721Y-88018133D01*
X183883267Y-88095313D01*
X183878236Y-88100240D01*
X183878233Y-88100242D01*
X183840401Y-88137290D01*
X183761686Y-88214373D01*
X183669505Y-88357411D01*
X183667096Y-88364031D01*
X183667095Y-88364032D01*
X183634444Y-88453740D01*
X183611304Y-88517316D01*
X183589976Y-88686143D01*
X179270334Y-88686143D01*
X179277778Y-88627223D01*
X179277779Y-88627213D01*
X179278220Y-88623720D01*
X179278618Y-88595200D01*
X179259165Y-88396806D01*
X179257384Y-88390907D01*
X179257383Y-88390902D01*
X179203329Y-88211867D01*
X179201548Y-88205968D01*
X179140749Y-88091622D01*
X179110855Y-88035398D01*
X179110853Y-88035395D01*
X179107961Y-88029956D01*
X179104071Y-88025186D01*
X179104068Y-88025182D01*
X178985863Y-87880249D01*
X178985860Y-87880246D01*
X178981968Y-87875474D01*
X178962043Y-87858990D01*
X178889776Y-87799206D01*
X178828370Y-87748406D01*
X178653015Y-87653592D01*
X178462585Y-87594644D01*
X178456460Y-87594000D01*
X178456459Y-87594000D01*
X178270460Y-87574451D01*
X178270458Y-87574451D01*
X178264331Y-87573807D01*
X178161876Y-87583131D01*
X178071946Y-87591315D01*
X178071945Y-87591315D01*
X178065805Y-87591874D01*
X178059891Y-87593615D01*
X178059889Y-87593615D01*
X177954589Y-87624607D01*
X177874570Y-87648158D01*
X177697909Y-87740514D01*
X177693109Y-87744374D01*
X177693108Y-87744374D01*
X177688093Y-87748406D01*
X177542551Y-87865425D01*
X177414414Y-88018133D01*
X177318379Y-88192821D01*
X177316518Y-88198688D01*
X177316517Y-88198690D01*
X177312653Y-88210871D01*
X177258102Y-88382835D01*
X177235882Y-88580939D01*
X170026639Y-88580939D01*
X170013565Y-88447606D01*
X170011784Y-88441707D01*
X170011783Y-88441702D01*
X169957729Y-88262667D01*
X169955948Y-88256768D01*
X169892421Y-88137290D01*
X169865255Y-88086198D01*
X169865253Y-88086195D01*
X169862361Y-88080756D01*
X169858471Y-88075986D01*
X169858468Y-88075982D01*
X169740263Y-87931049D01*
X169740260Y-87931046D01*
X169736368Y-87926274D01*
X169727698Y-87919101D01*
X169612122Y-87823488D01*
X169582770Y-87799206D01*
X169407415Y-87704392D01*
X169216985Y-87645444D01*
X169210860Y-87644800D01*
X169210859Y-87644800D01*
X169024860Y-87625251D01*
X169024858Y-87625251D01*
X169018731Y-87624607D01*
X168895852Y-87635790D01*
X168826346Y-87642115D01*
X168826345Y-87642115D01*
X168820205Y-87642674D01*
X168814291Y-87644415D01*
X168814289Y-87644415D01*
X168753029Y-87662445D01*
X168628970Y-87698958D01*
X168452309Y-87791314D01*
X168447509Y-87795174D01*
X168447508Y-87795174D01*
X168442493Y-87799206D01*
X168296951Y-87916225D01*
X168168814Y-88068933D01*
X168072779Y-88243621D01*
X168012502Y-88433635D01*
X167990282Y-88631739D01*
X157932116Y-88631739D01*
X157929690Y-88622684D01*
X157929689Y-88622682D01*
X157928267Y-88617374D01*
X157925944Y-88612392D01*
X157831982Y-88410890D01*
X157831979Y-88410885D01*
X157829656Y-88405903D01*
X157819152Y-88390902D01*
X157698981Y-88219279D01*
X157698979Y-88219276D01*
X157695822Y-88214768D01*
X157530832Y-88049778D01*
X157526324Y-88046621D01*
X157526321Y-88046619D01*
X157344206Y-87919101D01*
X157344204Y-87919100D01*
X157339697Y-87915944D01*
X157334715Y-87913621D01*
X157334710Y-87913618D01*
X157133208Y-87819656D01*
X157133206Y-87819655D01*
X157128226Y-87817333D01*
X157122918Y-87815911D01*
X157122916Y-87815910D01*
X156908159Y-87758366D01*
X156908157Y-87758366D01*
X156902844Y-87756942D01*
X156670400Y-87736606D01*
X156437956Y-87756942D01*
X156432643Y-87758366D01*
X156432641Y-87758366D01*
X156217884Y-87815910D01*
X156217882Y-87815911D01*
X156212574Y-87817333D01*
X156207594Y-87819655D01*
X156207592Y-87819656D01*
X156006090Y-87913618D01*
X156006085Y-87913621D01*
X156001103Y-87915944D01*
X155996596Y-87919100D01*
X155996594Y-87919101D01*
X155814479Y-88046619D01*
X155814476Y-88046621D01*
X155809968Y-88049778D01*
X155644978Y-88214768D01*
X155641821Y-88219276D01*
X155641819Y-88219279D01*
X155521648Y-88390902D01*
X155511144Y-88405903D01*
X155508821Y-88410885D01*
X155508818Y-88410890D01*
X155414856Y-88612392D01*
X155412533Y-88617374D01*
X155411111Y-88622682D01*
X155411110Y-88622684D01*
X155353870Y-88836306D01*
X155352142Y-88842756D01*
X155331806Y-89075200D01*
X151333700Y-89075200D01*
X151333700Y-86448334D01*
X155336900Y-86448334D01*
X155343655Y-86510516D01*
X155394785Y-86646905D01*
X155482139Y-86763461D01*
X155598695Y-86850815D01*
X155735084Y-86901945D01*
X155797266Y-86908700D01*
X157543534Y-86908700D01*
X157605716Y-86901945D01*
X157742105Y-86850815D01*
X157858661Y-86763461D01*
X157946015Y-86646905D01*
X157997145Y-86510516D01*
X158003900Y-86448334D01*
X158003900Y-85942943D01*
X181329376Y-85942943D01*
X181345982Y-86112299D01*
X181348206Y-86118984D01*
X181348206Y-86118985D01*
X181354914Y-86139149D01*
X181399695Y-86273767D01*
X181403342Y-86279789D01*
X181403343Y-86279791D01*
X181445452Y-86349321D01*
X181487847Y-86419323D01*
X181492743Y-86424393D01*
X181511628Y-86443949D01*
X181606056Y-86541731D01*
X181748446Y-86634909D01*
X181907942Y-86694225D01*
X181914923Y-86695156D01*
X181914925Y-86695157D01*
X181961026Y-86701308D01*
X182076615Y-86716731D01*
X182083626Y-86716093D01*
X182083630Y-86716093D01*
X182239061Y-86701947D01*
X182246082Y-86701308D01*
X182252784Y-86699130D01*
X182252786Y-86699130D01*
X182401223Y-86650900D01*
X182401226Y-86650899D01*
X182407922Y-86648723D01*
X182491352Y-86598989D01*
X182548034Y-86565200D01*
X182548037Y-86565198D01*
X182554089Y-86561590D01*
X182670279Y-86450943D01*
X188365176Y-86450943D01*
X188381782Y-86620299D01*
X188384006Y-86626984D01*
X188384006Y-86626985D01*
X188392136Y-86651424D01*
X188435495Y-86781767D01*
X188439142Y-86787789D01*
X188439143Y-86787791D01*
X188455934Y-86815516D01*
X188523647Y-86927323D01*
X188528543Y-86932393D01*
X188547707Y-86952238D01*
X188641856Y-87049731D01*
X188784246Y-87142909D01*
X188943742Y-87202225D01*
X188950723Y-87203156D01*
X188950725Y-87203157D01*
X188996826Y-87209308D01*
X189112415Y-87224731D01*
X189119426Y-87224093D01*
X189119430Y-87224093D01*
X189274861Y-87209947D01*
X189281882Y-87209308D01*
X189288584Y-87207130D01*
X189288586Y-87207130D01*
X189437023Y-87158900D01*
X189437026Y-87158899D01*
X189443722Y-87156723D01*
X189515467Y-87113954D01*
X189583834Y-87073200D01*
X189583837Y-87073198D01*
X189589889Y-87069590D01*
X189713120Y-86952238D01*
X189807290Y-86810502D01*
X189815917Y-86787791D01*
X189865217Y-86658009D01*
X189865218Y-86658006D01*
X189867718Y-86651424D01*
X189891400Y-86482913D01*
X189891517Y-86474564D01*
X189891643Y-86465561D01*
X189891643Y-86465555D01*
X189891698Y-86461600D01*
X189877295Y-86333191D01*
X189873515Y-86299488D01*
X189873514Y-86299485D01*
X189872730Y-86292492D01*
X189821765Y-86146143D01*
X195324776Y-86146143D01*
X195341382Y-86315499D01*
X195395095Y-86476967D01*
X195398742Y-86482989D01*
X195398743Y-86482991D01*
X195436654Y-86545589D01*
X195483247Y-86622523D01*
X195488143Y-86627593D01*
X195495208Y-86634909D01*
X195601456Y-86744931D01*
X195743846Y-86838109D01*
X195903342Y-86897425D01*
X195910320Y-86898356D01*
X195910324Y-86898357D01*
X195931359Y-86901163D01*
X195937534Y-86901987D01*
X196002411Y-86930822D01*
X196040428Y-86987108D01*
X196049995Y-87015867D01*
X196053642Y-87021889D01*
X196053643Y-87021891D01*
X196067434Y-87044662D01*
X196138147Y-87161423D01*
X196143043Y-87166493D01*
X196160745Y-87184824D01*
X196256356Y-87283831D01*
X196398746Y-87377009D01*
X196558242Y-87436325D01*
X196565223Y-87437256D01*
X196565225Y-87437257D01*
X196611326Y-87443408D01*
X196726915Y-87458831D01*
X196733926Y-87458193D01*
X196733930Y-87458193D01*
X196889361Y-87444047D01*
X196896382Y-87443408D01*
X196903084Y-87441230D01*
X196903086Y-87441230D01*
X197051523Y-87393000D01*
X197051526Y-87392999D01*
X197058222Y-87390823D01*
X197136933Y-87343902D01*
X197198334Y-87307300D01*
X197198337Y-87307298D01*
X197204389Y-87303690D01*
X197327620Y-87186338D01*
X197333260Y-87177850D01*
X197417895Y-87050464D01*
X197421790Y-87044602D01*
X197432536Y-87016313D01*
X197444680Y-86984343D01*
X227303376Y-86984343D01*
X227319982Y-87153699D01*
X227322206Y-87160384D01*
X227322206Y-87160385D01*
X227332526Y-87191409D01*
X227373695Y-87315167D01*
X227377342Y-87321189D01*
X227377343Y-87321191D01*
X227418435Y-87389042D01*
X227461847Y-87460723D01*
X227466743Y-87465793D01*
X227485907Y-87485638D01*
X227580056Y-87583131D01*
X227722446Y-87676309D01*
X227881942Y-87735625D01*
X227888923Y-87736556D01*
X227888925Y-87736557D01*
X227935026Y-87742708D01*
X228050615Y-87758131D01*
X228057626Y-87757493D01*
X228057630Y-87757493D01*
X228213061Y-87743347D01*
X228220082Y-87742708D01*
X228226784Y-87740530D01*
X228226786Y-87740530D01*
X228375223Y-87692300D01*
X228375226Y-87692299D01*
X228381922Y-87690123D01*
X228458598Y-87644415D01*
X228522034Y-87606600D01*
X228522037Y-87606598D01*
X228528089Y-87602990D01*
X228651320Y-87485638D01*
X228745490Y-87343902D01*
X228754117Y-87321191D01*
X228803417Y-87191409D01*
X228803418Y-87191406D01*
X228805918Y-87184824D01*
X228829600Y-87016313D01*
X228829898Y-86995000D01*
X228819465Y-86901987D01*
X228811715Y-86832888D01*
X228811714Y-86832885D01*
X228810930Y-86825892D01*
X228754967Y-86665190D01*
X228748982Y-86655611D01*
X228668525Y-86526853D01*
X228664792Y-86520879D01*
X228602014Y-86457662D01*
X228549849Y-86405131D01*
X228549845Y-86405128D01*
X228544885Y-86400133D01*
X228401208Y-86308952D01*
X228240900Y-86251869D01*
X228071929Y-86231721D01*
X228064926Y-86232457D01*
X228064925Y-86232457D01*
X227909701Y-86248771D01*
X227909697Y-86248772D01*
X227902693Y-86249508D01*
X227896022Y-86251779D01*
X227748274Y-86302076D01*
X227748271Y-86302077D01*
X227741604Y-86304347D01*
X227735606Y-86308037D01*
X227735604Y-86308038D01*
X227694719Y-86333191D01*
X227596667Y-86393513D01*
X227591636Y-86398440D01*
X227591633Y-86398442D01*
X227540685Y-86448334D01*
X227475086Y-86512573D01*
X227382905Y-86655611D01*
X227380496Y-86662231D01*
X227380495Y-86662232D01*
X227341692Y-86768842D01*
X227324704Y-86815516D01*
X227303376Y-86984343D01*
X197444680Y-86984343D01*
X197479717Y-86892109D01*
X197479718Y-86892106D01*
X197482218Y-86885524D01*
X197505900Y-86717013D01*
X197506198Y-86695700D01*
X197494349Y-86590062D01*
X197488015Y-86533588D01*
X197488014Y-86533585D01*
X197487230Y-86526592D01*
X197431267Y-86365890D01*
X197402895Y-86320484D01*
X197344825Y-86227553D01*
X197341092Y-86221579D01*
X197278640Y-86158690D01*
X197226149Y-86105831D01*
X197226145Y-86105828D01*
X197221185Y-86100833D01*
X197077508Y-86009652D01*
X197040132Y-85996343D01*
X216226376Y-85996343D01*
X216242982Y-86165699D01*
X216296695Y-86327167D01*
X216300342Y-86333189D01*
X216300343Y-86333191D01*
X216324177Y-86372545D01*
X216384847Y-86472723D01*
X216389743Y-86477793D01*
X216408907Y-86497638D01*
X216503056Y-86595131D01*
X216645446Y-86688309D01*
X216804942Y-86747625D01*
X216811923Y-86748556D01*
X216811925Y-86748557D01*
X216858026Y-86754708D01*
X216973615Y-86770131D01*
X216980626Y-86769493D01*
X216980630Y-86769493D01*
X217136061Y-86755347D01*
X217143082Y-86754708D01*
X217149784Y-86752530D01*
X217149786Y-86752530D01*
X217298223Y-86704300D01*
X217298226Y-86704299D01*
X217304922Y-86702123D01*
X217382947Y-86655611D01*
X217445034Y-86618600D01*
X217445037Y-86618598D01*
X217451089Y-86614990D01*
X217574320Y-86497638D01*
X217584104Y-86482913D01*
X217664595Y-86361764D01*
X217668490Y-86355902D01*
X217677117Y-86333191D01*
X217726417Y-86203409D01*
X217726418Y-86203406D01*
X217728918Y-86196824D01*
X217752600Y-86028313D01*
X217752898Y-86007000D01*
X217736742Y-85862959D01*
X217734715Y-85844888D01*
X217734714Y-85844885D01*
X217733930Y-85837892D01*
X217677967Y-85677190D01*
X217671982Y-85667611D01*
X217591525Y-85538853D01*
X217587792Y-85532879D01*
X217521524Y-85466147D01*
X217472849Y-85417131D01*
X217472845Y-85417128D01*
X217467885Y-85412133D01*
X217324208Y-85320952D01*
X217163900Y-85263869D01*
X216994929Y-85243721D01*
X216987926Y-85244457D01*
X216987925Y-85244457D01*
X216832701Y-85260771D01*
X216832697Y-85260772D01*
X216825693Y-85261508D01*
X216819022Y-85263779D01*
X216671274Y-85314076D01*
X216671271Y-85314077D01*
X216664604Y-85316347D01*
X216658606Y-85320037D01*
X216658604Y-85320038D01*
X216606467Y-85352113D01*
X216519667Y-85405513D01*
X216514636Y-85410440D01*
X216514633Y-85410442D01*
X216503514Y-85421331D01*
X216398086Y-85524573D01*
X216305905Y-85667611D01*
X216303496Y-85674231D01*
X216303495Y-85674232D01*
X216260817Y-85791488D01*
X216247704Y-85827516D01*
X216226376Y-85996343D01*
X197040132Y-85996343D01*
X197032016Y-85993453D01*
X196923835Y-85954931D01*
X196923830Y-85954930D01*
X196917200Y-85952569D01*
X196910212Y-85951736D01*
X196910209Y-85951735D01*
X196894071Y-85949811D01*
X196828798Y-85921883D01*
X196789999Y-85866135D01*
X196786616Y-85856422D01*
X196776367Y-85826990D01*
X196770382Y-85817411D01*
X196689925Y-85688653D01*
X196686192Y-85682679D01*
X196612320Y-85608290D01*
X196571249Y-85566931D01*
X196571245Y-85566928D01*
X196566285Y-85561933D01*
X196422608Y-85470752D01*
X196262300Y-85413669D01*
X196093329Y-85393521D01*
X196086326Y-85394257D01*
X196086325Y-85394257D01*
X195931101Y-85410571D01*
X195931097Y-85410572D01*
X195924093Y-85411308D01*
X195917422Y-85413579D01*
X195769674Y-85463876D01*
X195769671Y-85463877D01*
X195763004Y-85466147D01*
X195757006Y-85469837D01*
X195757004Y-85469838D01*
X195690535Y-85510730D01*
X195618067Y-85555313D01*
X195613036Y-85560240D01*
X195613033Y-85560242D01*
X195563968Y-85608290D01*
X195496486Y-85674373D01*
X195404305Y-85817411D01*
X195401896Y-85824031D01*
X195401895Y-85824032D01*
X195353294Y-85957561D01*
X195346104Y-85977316D01*
X195324776Y-86146143D01*
X189821765Y-86146143D01*
X189816767Y-86131790D01*
X189810782Y-86122211D01*
X189730325Y-85993453D01*
X189726592Y-85987479D01*
X189661452Y-85921883D01*
X189611649Y-85871731D01*
X189611645Y-85871728D01*
X189606685Y-85866733D01*
X189463008Y-85775552D01*
X189302700Y-85718469D01*
X189133729Y-85698321D01*
X189126726Y-85699057D01*
X189126725Y-85699057D01*
X188971501Y-85715371D01*
X188971497Y-85715372D01*
X188964493Y-85716108D01*
X188957822Y-85718379D01*
X188810074Y-85768676D01*
X188810071Y-85768677D01*
X188803404Y-85770947D01*
X188797406Y-85774637D01*
X188797404Y-85774638D01*
X188781387Y-85784492D01*
X188658467Y-85860113D01*
X188653436Y-85865040D01*
X188653433Y-85865042D01*
X188597676Y-85919643D01*
X188536886Y-85979173D01*
X188444705Y-86122211D01*
X188442296Y-86128831D01*
X188442295Y-86128832D01*
X188397546Y-86251779D01*
X188386504Y-86282116D01*
X188365176Y-86450943D01*
X182670279Y-86450943D01*
X182677320Y-86444238D01*
X182771490Y-86302502D01*
X182773990Y-86295921D01*
X182829417Y-86150009D01*
X182829418Y-86150006D01*
X182831918Y-86143424D01*
X182855600Y-85974913D01*
X182855898Y-85953600D01*
X182846155Y-85866733D01*
X182837715Y-85791488D01*
X182837714Y-85791485D01*
X182836930Y-85784492D01*
X182780967Y-85623790D01*
X182774982Y-85614211D01*
X182694525Y-85485453D01*
X182690792Y-85479479D01*
X182617340Y-85405513D01*
X182575849Y-85363731D01*
X182575845Y-85363728D01*
X182570885Y-85358733D01*
X182427208Y-85267552D01*
X182266900Y-85210469D01*
X182097929Y-85190321D01*
X182090926Y-85191057D01*
X182090925Y-85191057D01*
X181935701Y-85207371D01*
X181935697Y-85207372D01*
X181928693Y-85208108D01*
X181922022Y-85210379D01*
X181774274Y-85260676D01*
X181774271Y-85260677D01*
X181767604Y-85262947D01*
X181761606Y-85266637D01*
X181761604Y-85266638D01*
X181753979Y-85271329D01*
X181622667Y-85352113D01*
X181617636Y-85357040D01*
X181617633Y-85357042D01*
X181577473Y-85396370D01*
X181501086Y-85471173D01*
X181408905Y-85614211D01*
X181406496Y-85620831D01*
X181406495Y-85620832D01*
X181370991Y-85718379D01*
X181350704Y-85774116D01*
X181329376Y-85942943D01*
X158003900Y-85942943D01*
X158003900Y-84702066D01*
X157997145Y-84639884D01*
X157946015Y-84503495D01*
X157858661Y-84386939D01*
X157742105Y-84299585D01*
X157605716Y-84248455D01*
X157543534Y-84241700D01*
X155797266Y-84241700D01*
X155735084Y-84248455D01*
X155598695Y-84299585D01*
X155482139Y-84386939D01*
X155394785Y-84503495D01*
X155343655Y-84639884D01*
X155336900Y-84702066D01*
X155336900Y-86448334D01*
X151333700Y-86448334D01*
X151333700Y-83467174D01*
X161895145Y-83467174D01*
X161895442Y-83472326D01*
X161895442Y-83472330D01*
X161900909Y-83567135D01*
X161908013Y-83690341D01*
X161909150Y-83695387D01*
X161909151Y-83695393D01*
X161924507Y-83763531D01*
X161957157Y-83908410D01*
X161997633Y-84008090D01*
X162034868Y-84099790D01*
X162041257Y-84115525D01*
X162043962Y-84119940D01*
X162043963Y-84119941D01*
X162081323Y-84180906D01*
X162158056Y-84306122D01*
X162304415Y-84475084D01*
X162308390Y-84478384D01*
X162308393Y-84478387D01*
X162357053Y-84518785D01*
X162476405Y-84617873D01*
X162669407Y-84730654D01*
X162674227Y-84732494D01*
X162674232Y-84732497D01*
X162777475Y-84771921D01*
X162878237Y-84810398D01*
X162883305Y-84811429D01*
X162883308Y-84811430D01*
X162946040Y-84824193D01*
X163097287Y-84854965D01*
X163102460Y-84855155D01*
X163102463Y-84855155D01*
X163315511Y-84862967D01*
X163315515Y-84862967D01*
X163320675Y-84863156D01*
X163325795Y-84862500D01*
X163325797Y-84862500D01*
X163537273Y-84835409D01*
X163537274Y-84835409D01*
X163542401Y-84834752D01*
X163579623Y-84823585D01*
X163751557Y-84772002D01*
X163756510Y-84770516D01*
X163761149Y-84768243D01*
X163761155Y-84768241D01*
X163952616Y-84674445D01*
X163957254Y-84672173D01*
X164012894Y-84632485D01*
X164135027Y-84545369D01*
X164135032Y-84545365D01*
X164139239Y-84542364D01*
X164297580Y-84384575D01*
X164428024Y-84203043D01*
X164437292Y-84184292D01*
X164524773Y-84007287D01*
X164524774Y-84007285D01*
X164527067Y-84002645D01*
X164592050Y-83788760D01*
X164621228Y-83567135D01*
X164621333Y-83562853D01*
X164622774Y-83503866D01*
X164622774Y-83503862D01*
X164622856Y-83500501D01*
X164620116Y-83467174D01*
X165395146Y-83467174D01*
X165395443Y-83472326D01*
X165395443Y-83472330D01*
X165400910Y-83567135D01*
X165408014Y-83690341D01*
X165409151Y-83695387D01*
X165409152Y-83695393D01*
X165424508Y-83763531D01*
X165457158Y-83908410D01*
X165497634Y-84008090D01*
X165534869Y-84099790D01*
X165541258Y-84115525D01*
X165543963Y-84119940D01*
X165543964Y-84119941D01*
X165581324Y-84180906D01*
X165658057Y-84306122D01*
X165804416Y-84475084D01*
X165808391Y-84478384D01*
X165808394Y-84478387D01*
X165857054Y-84518785D01*
X165976406Y-84617873D01*
X166169408Y-84730654D01*
X166174228Y-84732494D01*
X166174233Y-84732497D01*
X166277476Y-84771921D01*
X166378238Y-84810398D01*
X166383306Y-84811429D01*
X166383309Y-84811430D01*
X166446041Y-84824193D01*
X166597288Y-84854965D01*
X166602461Y-84855155D01*
X166602464Y-84855155D01*
X166815512Y-84862967D01*
X166815516Y-84862967D01*
X166820676Y-84863156D01*
X166825796Y-84862500D01*
X166825798Y-84862500D01*
X167037274Y-84835409D01*
X167037275Y-84835409D01*
X167042402Y-84834752D01*
X167079624Y-84823585D01*
X167251558Y-84772002D01*
X167256511Y-84770516D01*
X167261150Y-84768243D01*
X167261156Y-84768241D01*
X167452617Y-84674445D01*
X167457255Y-84672173D01*
X167512895Y-84632485D01*
X167635028Y-84545369D01*
X167635033Y-84545365D01*
X167639240Y-84542364D01*
X167797581Y-84384575D01*
X167928025Y-84203043D01*
X167937293Y-84184292D01*
X168024774Y-84007287D01*
X168024775Y-84007285D01*
X168027068Y-84002645D01*
X168092051Y-83788760D01*
X168121229Y-83567135D01*
X168121334Y-83562853D01*
X168122775Y-83503866D01*
X168122775Y-83503862D01*
X168122857Y-83500501D01*
X168120117Y-83467174D01*
X168895146Y-83467174D01*
X168895443Y-83472326D01*
X168895443Y-83472330D01*
X168900910Y-83567135D01*
X168908014Y-83690341D01*
X168909151Y-83695387D01*
X168909152Y-83695393D01*
X168924508Y-83763531D01*
X168957158Y-83908410D01*
X168997634Y-84008090D01*
X169034869Y-84099790D01*
X169041258Y-84115525D01*
X169043963Y-84119940D01*
X169043964Y-84119941D01*
X169081324Y-84180906D01*
X169158057Y-84306122D01*
X169304416Y-84475084D01*
X169308391Y-84478384D01*
X169308394Y-84478387D01*
X169357054Y-84518785D01*
X169476406Y-84617873D01*
X169669408Y-84730654D01*
X169674228Y-84732494D01*
X169674233Y-84732497D01*
X169777476Y-84771921D01*
X169878238Y-84810398D01*
X169883306Y-84811429D01*
X169883309Y-84811430D01*
X169946041Y-84824193D01*
X170097288Y-84854965D01*
X170102461Y-84855155D01*
X170102464Y-84855155D01*
X170315512Y-84862967D01*
X170315516Y-84862967D01*
X170320676Y-84863156D01*
X170325796Y-84862500D01*
X170325798Y-84862500D01*
X170537274Y-84835409D01*
X170537275Y-84835409D01*
X170542402Y-84834752D01*
X170579624Y-84823585D01*
X170751558Y-84772002D01*
X170756511Y-84770516D01*
X170761150Y-84768243D01*
X170761156Y-84768241D01*
X170952617Y-84674445D01*
X170957255Y-84672173D01*
X171012895Y-84632485D01*
X171135028Y-84545369D01*
X171135033Y-84545365D01*
X171139240Y-84542364D01*
X171297581Y-84384575D01*
X171428025Y-84203043D01*
X171437293Y-84184292D01*
X171524774Y-84007287D01*
X171524775Y-84007285D01*
X171527068Y-84002645D01*
X171592051Y-83788760D01*
X171621229Y-83567135D01*
X171621334Y-83562853D01*
X171622775Y-83503866D01*
X171622775Y-83503862D01*
X171622857Y-83500501D01*
X171620117Y-83467174D01*
X172395147Y-83467174D01*
X172395444Y-83472326D01*
X172395444Y-83472330D01*
X172400911Y-83567135D01*
X172408015Y-83690341D01*
X172409152Y-83695387D01*
X172409153Y-83695393D01*
X172424509Y-83763531D01*
X172457159Y-83908410D01*
X172497635Y-84008090D01*
X172534870Y-84099790D01*
X172541259Y-84115525D01*
X172543964Y-84119940D01*
X172543965Y-84119941D01*
X172581325Y-84180906D01*
X172658058Y-84306122D01*
X172804417Y-84475084D01*
X172808392Y-84478384D01*
X172808395Y-84478387D01*
X172857055Y-84518785D01*
X172976407Y-84617873D01*
X173169409Y-84730654D01*
X173174229Y-84732494D01*
X173174234Y-84732497D01*
X173277477Y-84771921D01*
X173378239Y-84810398D01*
X173383307Y-84811429D01*
X173383310Y-84811430D01*
X173446042Y-84824193D01*
X173597289Y-84854965D01*
X173602462Y-84855155D01*
X173602465Y-84855155D01*
X173815513Y-84862967D01*
X173815517Y-84862967D01*
X173820677Y-84863156D01*
X173825797Y-84862500D01*
X173825799Y-84862500D01*
X174037275Y-84835409D01*
X174037276Y-84835409D01*
X174042403Y-84834752D01*
X174079625Y-84823585D01*
X174251559Y-84772002D01*
X174256512Y-84770516D01*
X174261151Y-84768243D01*
X174261157Y-84768241D01*
X174452618Y-84674445D01*
X174457256Y-84672173D01*
X174512896Y-84632485D01*
X174635029Y-84545369D01*
X174635034Y-84545365D01*
X174639241Y-84542364D01*
X174797582Y-84384575D01*
X174928026Y-84203043D01*
X174937294Y-84184292D01*
X175024775Y-84007287D01*
X175024776Y-84007285D01*
X175027069Y-84002645D01*
X175092052Y-83788760D01*
X175121230Y-83567135D01*
X175121335Y-83562853D01*
X175122776Y-83503866D01*
X175122776Y-83503862D01*
X175122858Y-83500501D01*
X175120118Y-83467174D01*
X175895148Y-83467174D01*
X175895445Y-83472326D01*
X175895445Y-83472330D01*
X175900912Y-83567135D01*
X175908016Y-83690341D01*
X175909153Y-83695387D01*
X175909154Y-83695393D01*
X175924510Y-83763531D01*
X175957160Y-83908410D01*
X175997636Y-84008090D01*
X176034871Y-84099790D01*
X176041260Y-84115525D01*
X176043965Y-84119940D01*
X176043966Y-84119941D01*
X176081326Y-84180906D01*
X176158059Y-84306122D01*
X176304418Y-84475084D01*
X176308393Y-84478384D01*
X176308396Y-84478387D01*
X176357056Y-84518785D01*
X176476408Y-84617873D01*
X176669410Y-84730654D01*
X176674230Y-84732494D01*
X176674235Y-84732497D01*
X176777478Y-84771921D01*
X176878240Y-84810398D01*
X176883308Y-84811429D01*
X176883311Y-84811430D01*
X176946043Y-84824193D01*
X177097290Y-84854965D01*
X177102463Y-84855155D01*
X177102466Y-84855155D01*
X177315514Y-84862967D01*
X177315518Y-84862967D01*
X177320678Y-84863156D01*
X177325798Y-84862500D01*
X177325800Y-84862500D01*
X177537276Y-84835409D01*
X177537277Y-84835409D01*
X177542404Y-84834752D01*
X177579626Y-84823585D01*
X177751560Y-84772002D01*
X177756513Y-84770516D01*
X177761152Y-84768243D01*
X177761158Y-84768241D01*
X177952619Y-84674445D01*
X177957257Y-84672173D01*
X178012897Y-84632485D01*
X178135030Y-84545369D01*
X178135035Y-84545365D01*
X178139242Y-84542364D01*
X178297583Y-84384575D01*
X178428027Y-84203043D01*
X178437295Y-84184292D01*
X178524776Y-84007287D01*
X178524777Y-84007285D01*
X178527070Y-84002645D01*
X178592053Y-83788760D01*
X178621231Y-83567135D01*
X178621336Y-83562853D01*
X178622777Y-83503866D01*
X178622777Y-83503862D01*
X178622859Y-83500501D01*
X178620119Y-83467174D01*
X179395151Y-83467174D01*
X179395448Y-83472326D01*
X179395448Y-83472330D01*
X179400915Y-83567135D01*
X179408019Y-83690341D01*
X179409156Y-83695387D01*
X179409157Y-83695393D01*
X179424513Y-83763531D01*
X179457163Y-83908410D01*
X179497639Y-84008090D01*
X179534874Y-84099790D01*
X179541263Y-84115525D01*
X179543968Y-84119940D01*
X179543969Y-84119941D01*
X179581329Y-84180906D01*
X179658062Y-84306122D01*
X179804421Y-84475084D01*
X179808396Y-84478384D01*
X179808399Y-84478387D01*
X179857059Y-84518785D01*
X179976411Y-84617873D01*
X180169413Y-84730654D01*
X180174233Y-84732494D01*
X180174238Y-84732497D01*
X180277481Y-84771921D01*
X180378243Y-84810398D01*
X180383311Y-84811429D01*
X180383314Y-84811430D01*
X180446046Y-84824193D01*
X180597293Y-84854965D01*
X180602466Y-84855155D01*
X180602469Y-84855155D01*
X180815517Y-84862967D01*
X180815521Y-84862967D01*
X180820681Y-84863156D01*
X180825801Y-84862500D01*
X180825803Y-84862500D01*
X181037279Y-84835409D01*
X181037280Y-84835409D01*
X181042407Y-84834752D01*
X181079629Y-84823585D01*
X181251563Y-84772002D01*
X181256516Y-84770516D01*
X181261155Y-84768243D01*
X181261161Y-84768241D01*
X181452622Y-84674445D01*
X181457260Y-84672173D01*
X181491790Y-84647543D01*
X185875976Y-84647543D01*
X185892582Y-84816899D01*
X185946295Y-84978367D01*
X185949942Y-84984389D01*
X185949943Y-84984391D01*
X185988783Y-85048523D01*
X186034447Y-85123923D01*
X186039343Y-85128993D01*
X186058507Y-85148838D01*
X186152656Y-85246331D01*
X186295046Y-85339509D01*
X186454542Y-85398825D01*
X186461523Y-85399756D01*
X186461525Y-85399757D01*
X186507626Y-85405908D01*
X186623215Y-85421331D01*
X186630226Y-85420693D01*
X186630230Y-85420693D01*
X186785661Y-85406547D01*
X186792682Y-85405908D01*
X186799384Y-85403730D01*
X186799386Y-85403730D01*
X186947823Y-85355500D01*
X186947826Y-85355499D01*
X186954522Y-85353323D01*
X187026267Y-85310554D01*
X187094634Y-85269800D01*
X187094637Y-85269798D01*
X187100689Y-85266190D01*
X187223920Y-85148838D01*
X187247489Y-85113365D01*
X187295435Y-85041200D01*
X187318090Y-85007102D01*
X187326717Y-84984391D01*
X187376017Y-84854609D01*
X187376018Y-84854606D01*
X187378518Y-84848024D01*
X187402200Y-84679513D01*
X187402498Y-84658200D01*
X187389096Y-84538713D01*
X187384315Y-84496088D01*
X187384314Y-84496085D01*
X187383530Y-84489092D01*
X187327567Y-84328390D01*
X187321582Y-84318811D01*
X187241125Y-84190053D01*
X187237392Y-84184079D01*
X187164554Y-84110731D01*
X187122449Y-84068331D01*
X187122445Y-84068328D01*
X187117485Y-84063333D01*
X186973808Y-83972152D01*
X186813500Y-83915069D01*
X186644529Y-83894921D01*
X186637526Y-83895657D01*
X186637525Y-83895657D01*
X186482301Y-83911971D01*
X186482297Y-83911972D01*
X186475293Y-83912708D01*
X186468622Y-83914979D01*
X186320874Y-83965276D01*
X186320871Y-83965277D01*
X186314204Y-83967547D01*
X186308206Y-83971237D01*
X186308204Y-83971238D01*
X186260971Y-84000296D01*
X186169267Y-84056713D01*
X186164236Y-84061640D01*
X186164233Y-84061642D01*
X186125278Y-84099790D01*
X186047686Y-84175773D01*
X185955505Y-84318811D01*
X185953096Y-84325431D01*
X185953095Y-84325432D01*
X185906000Y-84454823D01*
X185897304Y-84478716D01*
X185875976Y-84647543D01*
X181491790Y-84647543D01*
X181512900Y-84632485D01*
X181635033Y-84545369D01*
X181635038Y-84545365D01*
X181639245Y-84542364D01*
X181797586Y-84384575D01*
X181928030Y-84203043D01*
X181937298Y-84184292D01*
X182024779Y-84007287D01*
X182024780Y-84007285D01*
X182027073Y-84002645D01*
X182092056Y-83788760D01*
X182121234Y-83567135D01*
X182121339Y-83562853D01*
X182122780Y-83503866D01*
X182122780Y-83503862D01*
X182122862Y-83500501D01*
X182104546Y-83277715D01*
X182050088Y-83060912D01*
X181960953Y-82855914D01*
X181850295Y-82684862D01*
X181842341Y-82672567D01*
X181842339Y-82672564D01*
X181839533Y-82668227D01*
X181689089Y-82502891D01*
X181685038Y-82499692D01*
X181685034Y-82499688D01*
X181517717Y-82367549D01*
X181517713Y-82367547D01*
X181513662Y-82364347D01*
X181480869Y-82346244D01*
X181449232Y-82328780D01*
X181317962Y-82256315D01*
X181179787Y-82207385D01*
X181112118Y-82183422D01*
X181112115Y-82183421D01*
X181107246Y-82181697D01*
X181102157Y-82180790D01*
X181102155Y-82180790D01*
X180892261Y-82143402D01*
X180892255Y-82143401D01*
X180887172Y-82142496D01*
X180801510Y-82141449D01*
X180668820Y-82139828D01*
X180668818Y-82139828D01*
X180663651Y-82139765D01*
X180442685Y-82173577D01*
X180332225Y-82209681D01*
X180235128Y-82241417D01*
X180235126Y-82241418D01*
X180230209Y-82243025D01*
X180225623Y-82245412D01*
X180225619Y-82245414D01*
X180161893Y-82278588D01*
X180031928Y-82346244D01*
X180007817Y-82364347D01*
X179872530Y-82465923D01*
X179853168Y-82480460D01*
X179698730Y-82642071D01*
X179695816Y-82646343D01*
X179695815Y-82646344D01*
X179624311Y-82751165D01*
X179572761Y-82826735D01*
X179559217Y-82855914D01*
X179481304Y-83023762D01*
X179478643Y-83029494D01*
X179418905Y-83244902D01*
X179395151Y-83467174D01*
X178620119Y-83467174D01*
X178604543Y-83277715D01*
X178550085Y-83060912D01*
X178460950Y-82855914D01*
X178350292Y-82684862D01*
X178342338Y-82672567D01*
X178342336Y-82672564D01*
X178339530Y-82668227D01*
X178189086Y-82502891D01*
X178185035Y-82499692D01*
X178185031Y-82499688D01*
X178017714Y-82367549D01*
X178017710Y-82367547D01*
X178013659Y-82364347D01*
X177980866Y-82346244D01*
X177949229Y-82328780D01*
X177817959Y-82256315D01*
X177679784Y-82207385D01*
X177612115Y-82183422D01*
X177612112Y-82183421D01*
X177607243Y-82181697D01*
X177602154Y-82180790D01*
X177602152Y-82180790D01*
X177392258Y-82143402D01*
X177392252Y-82143401D01*
X177387169Y-82142496D01*
X177301507Y-82141449D01*
X177168817Y-82139828D01*
X177168815Y-82139828D01*
X177163648Y-82139765D01*
X176942682Y-82173577D01*
X176832222Y-82209681D01*
X176735125Y-82241417D01*
X176735123Y-82241418D01*
X176730206Y-82243025D01*
X176725620Y-82245412D01*
X176725616Y-82245414D01*
X176661890Y-82278588D01*
X176531925Y-82346244D01*
X176507814Y-82364347D01*
X176372527Y-82465923D01*
X176353165Y-82480460D01*
X176198727Y-82642071D01*
X176195813Y-82646343D01*
X176195812Y-82646344D01*
X176124308Y-82751165D01*
X176072758Y-82826735D01*
X176059214Y-82855914D01*
X175981301Y-83023762D01*
X175978640Y-83029494D01*
X175918902Y-83244902D01*
X175895148Y-83467174D01*
X175120118Y-83467174D01*
X175104542Y-83277715D01*
X175050084Y-83060912D01*
X174960949Y-82855914D01*
X174850291Y-82684862D01*
X174842337Y-82672567D01*
X174842335Y-82672564D01*
X174839529Y-82668227D01*
X174689085Y-82502891D01*
X174685034Y-82499692D01*
X174685030Y-82499688D01*
X174517713Y-82367549D01*
X174517709Y-82367547D01*
X174513658Y-82364347D01*
X174480865Y-82346244D01*
X174449228Y-82328780D01*
X174317958Y-82256315D01*
X174179783Y-82207385D01*
X174112114Y-82183422D01*
X174112111Y-82183421D01*
X174107242Y-82181697D01*
X174102153Y-82180790D01*
X174102151Y-82180790D01*
X173892257Y-82143402D01*
X173892251Y-82143401D01*
X173887168Y-82142496D01*
X173801506Y-82141449D01*
X173668816Y-82139828D01*
X173668814Y-82139828D01*
X173663647Y-82139765D01*
X173442681Y-82173577D01*
X173332221Y-82209681D01*
X173235124Y-82241417D01*
X173235122Y-82241418D01*
X173230205Y-82243025D01*
X173225619Y-82245412D01*
X173225615Y-82245414D01*
X173161889Y-82278588D01*
X173031924Y-82346244D01*
X173007813Y-82364347D01*
X172872526Y-82465923D01*
X172853164Y-82480460D01*
X172698726Y-82642071D01*
X172695812Y-82646343D01*
X172695811Y-82646344D01*
X172624307Y-82751165D01*
X172572757Y-82826735D01*
X172559213Y-82855914D01*
X172481300Y-83023762D01*
X172478639Y-83029494D01*
X172418901Y-83244902D01*
X172395147Y-83467174D01*
X171620117Y-83467174D01*
X171604541Y-83277715D01*
X171550083Y-83060912D01*
X171460948Y-82855914D01*
X171350290Y-82684862D01*
X171342336Y-82672567D01*
X171342334Y-82672564D01*
X171339528Y-82668227D01*
X171189084Y-82502891D01*
X171185033Y-82499692D01*
X171185029Y-82499688D01*
X171017712Y-82367549D01*
X171017708Y-82367547D01*
X171013657Y-82364347D01*
X170980864Y-82346244D01*
X170949227Y-82328780D01*
X170817957Y-82256315D01*
X170679782Y-82207385D01*
X170612113Y-82183422D01*
X170612110Y-82183421D01*
X170607241Y-82181697D01*
X170602152Y-82180790D01*
X170602150Y-82180790D01*
X170392256Y-82143402D01*
X170392250Y-82143401D01*
X170387167Y-82142496D01*
X170301505Y-82141449D01*
X170168815Y-82139828D01*
X170168813Y-82139828D01*
X170163646Y-82139765D01*
X169942680Y-82173577D01*
X169832220Y-82209681D01*
X169735123Y-82241417D01*
X169735121Y-82241418D01*
X169730204Y-82243025D01*
X169725618Y-82245412D01*
X169725614Y-82245414D01*
X169661888Y-82278588D01*
X169531923Y-82346244D01*
X169507812Y-82364347D01*
X169372525Y-82465923D01*
X169353163Y-82480460D01*
X169198725Y-82642071D01*
X169195811Y-82646343D01*
X169195810Y-82646344D01*
X169124306Y-82751165D01*
X169072756Y-82826735D01*
X169059212Y-82855914D01*
X168981299Y-83023762D01*
X168978638Y-83029494D01*
X168918900Y-83244902D01*
X168895146Y-83467174D01*
X168120117Y-83467174D01*
X168104541Y-83277715D01*
X168050083Y-83060912D01*
X167960948Y-82855914D01*
X167850290Y-82684862D01*
X167842336Y-82672567D01*
X167842334Y-82672564D01*
X167839528Y-82668227D01*
X167689084Y-82502891D01*
X167685033Y-82499692D01*
X167685029Y-82499688D01*
X167517712Y-82367549D01*
X167517708Y-82367547D01*
X167513657Y-82364347D01*
X167480864Y-82346244D01*
X167449227Y-82328780D01*
X167317957Y-82256315D01*
X167179782Y-82207385D01*
X167112113Y-82183422D01*
X167112110Y-82183421D01*
X167107241Y-82181697D01*
X167102152Y-82180790D01*
X167102150Y-82180790D01*
X166892256Y-82143402D01*
X166892250Y-82143401D01*
X166887167Y-82142496D01*
X166801505Y-82141449D01*
X166668815Y-82139828D01*
X166668813Y-82139828D01*
X166663646Y-82139765D01*
X166442680Y-82173577D01*
X166332220Y-82209681D01*
X166235123Y-82241417D01*
X166235121Y-82241418D01*
X166230204Y-82243025D01*
X166225618Y-82245412D01*
X166225614Y-82245414D01*
X166161888Y-82278588D01*
X166031923Y-82346244D01*
X166007812Y-82364347D01*
X165872525Y-82465923D01*
X165853163Y-82480460D01*
X165698725Y-82642071D01*
X165695811Y-82646343D01*
X165695810Y-82646344D01*
X165624306Y-82751165D01*
X165572756Y-82826735D01*
X165559212Y-82855914D01*
X165481299Y-83023762D01*
X165478638Y-83029494D01*
X165418900Y-83244902D01*
X165395146Y-83467174D01*
X164620116Y-83467174D01*
X164604540Y-83277715D01*
X164550082Y-83060912D01*
X164460947Y-82855914D01*
X164350289Y-82684862D01*
X164342335Y-82672567D01*
X164342333Y-82672564D01*
X164339527Y-82668227D01*
X164189083Y-82502891D01*
X164185032Y-82499692D01*
X164185028Y-82499688D01*
X164017711Y-82367549D01*
X164017707Y-82367547D01*
X164013656Y-82364347D01*
X163980863Y-82346244D01*
X163949226Y-82328780D01*
X163817956Y-82256315D01*
X163679781Y-82207385D01*
X163612112Y-82183422D01*
X163612109Y-82183421D01*
X163607240Y-82181697D01*
X163602151Y-82180790D01*
X163602149Y-82180790D01*
X163392255Y-82143402D01*
X163392249Y-82143401D01*
X163387166Y-82142496D01*
X163301504Y-82141449D01*
X163168814Y-82139828D01*
X163168812Y-82139828D01*
X163163645Y-82139765D01*
X162942679Y-82173577D01*
X162832219Y-82209681D01*
X162735122Y-82241417D01*
X162735120Y-82241418D01*
X162730203Y-82243025D01*
X162725617Y-82245412D01*
X162725613Y-82245414D01*
X162661887Y-82278588D01*
X162531922Y-82346244D01*
X162507811Y-82364347D01*
X162372524Y-82465923D01*
X162353162Y-82480460D01*
X162198724Y-82642071D01*
X162195810Y-82646343D01*
X162195809Y-82646344D01*
X162124305Y-82751165D01*
X162072755Y-82826735D01*
X162059211Y-82855914D01*
X161981298Y-83023762D01*
X161978637Y-83029494D01*
X161918899Y-83244902D01*
X161895145Y-83467174D01*
X151333700Y-83467174D01*
X151333700Y-82031343D01*
X184123376Y-82031343D01*
X184139982Y-82200699D01*
X184142206Y-82207384D01*
X184142206Y-82207385D01*
X184160004Y-82260888D01*
X184193695Y-82362167D01*
X184197342Y-82368189D01*
X184197343Y-82368191D01*
X184230773Y-82423390D01*
X184281847Y-82507723D01*
X184286743Y-82512793D01*
X184300555Y-82527096D01*
X184400056Y-82630131D01*
X184542446Y-82723309D01*
X184701942Y-82782625D01*
X184708923Y-82783556D01*
X184708925Y-82783557D01*
X184755026Y-82789708D01*
X184870615Y-82805131D01*
X184877626Y-82804493D01*
X184877630Y-82804493D01*
X185033061Y-82790347D01*
X185040082Y-82789708D01*
X185046784Y-82787530D01*
X185046786Y-82787530D01*
X185195223Y-82739300D01*
X185195226Y-82739299D01*
X185201922Y-82737123D01*
X185293880Y-82682305D01*
X185342034Y-82653600D01*
X185342037Y-82653598D01*
X185348089Y-82649990D01*
X185471320Y-82532638D01*
X185479922Y-82519692D01*
X185529772Y-82444661D01*
X185565490Y-82390902D01*
X185583399Y-82343756D01*
X185626287Y-82287177D01*
X185692955Y-82262767D01*
X185762237Y-82278276D01*
X185812136Y-82328780D01*
X185825079Y-82398299D01*
X185826158Y-82398314D01*
X185826083Y-82403688D01*
X185826194Y-82404285D01*
X185825176Y-82412343D01*
X185841782Y-82581699D01*
X185844006Y-82588384D01*
X185844006Y-82588385D01*
X185852136Y-82612824D01*
X185895495Y-82743167D01*
X185899142Y-82749189D01*
X185899143Y-82749191D01*
X185919631Y-82783021D01*
X185983647Y-82888723D01*
X185988543Y-82893793D01*
X186005636Y-82911493D01*
X186101856Y-83011131D01*
X186244246Y-83104309D01*
X186403742Y-83163625D01*
X186410723Y-83164556D01*
X186410725Y-83164557D01*
X186456826Y-83170708D01*
X186572415Y-83186131D01*
X186579426Y-83185493D01*
X186579430Y-83185493D01*
X186734861Y-83171347D01*
X186741882Y-83170708D01*
X186748584Y-83168530D01*
X186748586Y-83168530D01*
X186897023Y-83120300D01*
X186897026Y-83120299D01*
X186903722Y-83118123D01*
X186994358Y-83064093D01*
X187043834Y-83034600D01*
X187043837Y-83034598D01*
X187049889Y-83030990D01*
X187173120Y-82913638D01*
X187192009Y-82885209D01*
X187228337Y-82830531D01*
X187267290Y-82771902D01*
X187272890Y-82757161D01*
X187325217Y-82619409D01*
X187325218Y-82619406D01*
X187327718Y-82612824D01*
X187351400Y-82444313D01*
X187351698Y-82423000D01*
X187341130Y-82328780D01*
X187333515Y-82260888D01*
X187333514Y-82260885D01*
X187332730Y-82253892D01*
X187276767Y-82093190D01*
X187270782Y-82083611D01*
X187253993Y-82056743D01*
X189228776Y-82056743D01*
X189245382Y-82226099D01*
X189247606Y-82232784D01*
X189247606Y-82232785D01*
X189256265Y-82258815D01*
X189299095Y-82387567D01*
X189302742Y-82393589D01*
X189302743Y-82393591D01*
X189333462Y-82444313D01*
X189387247Y-82533123D01*
X189392143Y-82538193D01*
X189411307Y-82558038D01*
X189505456Y-82655531D01*
X189647846Y-82748709D01*
X189807342Y-82808025D01*
X189814323Y-82808956D01*
X189814325Y-82808957D01*
X189860426Y-82815108D01*
X189976015Y-82830531D01*
X189983026Y-82829893D01*
X189983030Y-82829893D01*
X190138461Y-82815747D01*
X190145482Y-82815108D01*
X190152184Y-82812930D01*
X190152186Y-82812930D01*
X190300623Y-82764700D01*
X190300626Y-82764699D01*
X190307322Y-82762523D01*
X190437600Y-82684862D01*
X190447434Y-82679000D01*
X190447437Y-82678998D01*
X190453489Y-82675390D01*
X190576720Y-82558038D01*
X190608976Y-82509490D01*
X190643142Y-82458066D01*
X190661760Y-82430043D01*
X198441276Y-82430043D01*
X198457882Y-82599399D01*
X198460106Y-82606084D01*
X198460106Y-82606085D01*
X198470426Y-82637109D01*
X198511595Y-82760867D01*
X198515242Y-82766889D01*
X198515243Y-82766891D01*
X198548895Y-82822456D01*
X198599747Y-82906423D01*
X198604643Y-82911493D01*
X198611406Y-82918496D01*
X198717956Y-83028831D01*
X198860346Y-83122009D01*
X199019842Y-83181325D01*
X199026823Y-83182256D01*
X199026825Y-83182257D01*
X199072926Y-83188408D01*
X199188515Y-83203831D01*
X199195526Y-83203193D01*
X199195530Y-83203193D01*
X199350961Y-83189047D01*
X199357982Y-83188408D01*
X199364684Y-83186230D01*
X199364686Y-83186230D01*
X199513123Y-83138000D01*
X199513126Y-83137999D01*
X199519822Y-83135823D01*
X199637079Y-83065924D01*
X199659934Y-83052300D01*
X199659937Y-83052298D01*
X199665989Y-83048690D01*
X199789220Y-82931338D01*
X199883390Y-82789602D01*
X199886973Y-82780170D01*
X199901266Y-82742543D01*
X201877976Y-82742543D01*
X201894582Y-82911899D01*
X201896806Y-82918584D01*
X201896806Y-82918585D01*
X201907126Y-82949609D01*
X201948295Y-83073367D01*
X201951942Y-83079389D01*
X201951943Y-83079391D01*
X201969248Y-83107964D01*
X202036447Y-83218923D01*
X202041343Y-83223993D01*
X202056723Y-83239919D01*
X202154656Y-83341331D01*
X202213090Y-83379569D01*
X202224603Y-83387103D01*
X202270652Y-83441140D01*
X202280175Y-83511495D01*
X202250150Y-83575830D01*
X202233184Y-83591824D01*
X202228068Y-83595821D01*
X202222067Y-83599513D01*
X202100486Y-83718573D01*
X202008305Y-83861611D01*
X202005896Y-83868231D01*
X202005895Y-83868232D01*
X201952513Y-84014897D01*
X201950104Y-84021516D01*
X201928776Y-84190343D01*
X201945382Y-84359699D01*
X201947606Y-84366384D01*
X201947606Y-84366385D01*
X201972041Y-84439839D01*
X201999095Y-84521167D01*
X202002742Y-84527189D01*
X202002743Y-84527191D01*
X202020048Y-84555764D01*
X202087247Y-84666723D01*
X202092143Y-84671793D01*
X202124677Y-84705483D01*
X202205456Y-84789131D01*
X202347846Y-84882309D01*
X202507342Y-84941625D01*
X202514323Y-84942556D01*
X202514325Y-84942557D01*
X202560426Y-84948708D01*
X202676015Y-84964131D01*
X202683026Y-84963493D01*
X202683030Y-84963493D01*
X202838461Y-84949347D01*
X202845482Y-84948708D01*
X202852184Y-84946530D01*
X202852186Y-84946530D01*
X203000623Y-84898300D01*
X203000626Y-84898299D01*
X203007322Y-84896123D01*
X203088009Y-84848024D01*
X203147434Y-84812600D01*
X203147437Y-84812598D01*
X203153489Y-84808990D01*
X203276720Y-84691638D01*
X203287399Y-84675566D01*
X203366995Y-84555764D01*
X203370890Y-84549902D01*
X203373427Y-84543224D01*
X203420637Y-84418943D01*
X210285376Y-84418943D01*
X210301982Y-84588299D01*
X210304206Y-84594984D01*
X210304206Y-84594985D01*
X210328070Y-84666723D01*
X210355695Y-84749767D01*
X210359342Y-84755789D01*
X210359343Y-84755791D01*
X210400401Y-84823585D01*
X210443847Y-84895323D01*
X210448743Y-84900393D01*
X210463941Y-84916131D01*
X210562056Y-85017731D01*
X210704446Y-85110909D01*
X210863942Y-85170225D01*
X210870923Y-85171156D01*
X210870925Y-85171157D01*
X210917026Y-85177308D01*
X211032615Y-85192731D01*
X211039626Y-85192093D01*
X211039630Y-85192093D01*
X211195061Y-85177947D01*
X211202082Y-85177308D01*
X211208784Y-85175130D01*
X211208786Y-85175130D01*
X211357223Y-85126900D01*
X211357226Y-85126899D01*
X211363922Y-85124723D01*
X211442737Y-85077740D01*
X211504034Y-85041200D01*
X211504037Y-85041198D01*
X211510089Y-85037590D01*
X211633320Y-84920238D01*
X211656889Y-84884765D01*
X211701979Y-84816899D01*
X211727490Y-84778502D01*
X211736117Y-84755791D01*
X211785417Y-84626009D01*
X211785418Y-84626006D01*
X211787918Y-84619424D01*
X211811600Y-84450913D01*
X211811898Y-84429600D01*
X211802156Y-84342743D01*
X224509376Y-84342743D01*
X224525982Y-84512099D01*
X224528206Y-84518784D01*
X224528206Y-84518785D01*
X224531002Y-84527191D01*
X224579695Y-84673567D01*
X224583342Y-84679589D01*
X224583343Y-84679591D01*
X224639260Y-84771921D01*
X224667847Y-84819123D01*
X224672743Y-84824193D01*
X224702643Y-84855155D01*
X224786056Y-84941531D01*
X224928446Y-85034709D01*
X225087942Y-85094025D01*
X225094923Y-85094956D01*
X225094925Y-85094957D01*
X225141026Y-85101108D01*
X225256615Y-85116531D01*
X225263626Y-85115893D01*
X225263630Y-85115893D01*
X225419061Y-85101747D01*
X225426082Y-85101108D01*
X225432784Y-85098930D01*
X225432786Y-85098930D01*
X225581223Y-85050700D01*
X225581226Y-85050699D01*
X225587922Y-85048523D01*
X225668446Y-85000521D01*
X225728034Y-84965000D01*
X225728037Y-84964998D01*
X225734089Y-84961390D01*
X225857320Y-84844038D01*
X225864477Y-84833267D01*
X225947595Y-84708164D01*
X225951490Y-84702302D01*
X225957769Y-84685773D01*
X226009417Y-84549809D01*
X226009418Y-84549806D01*
X226011918Y-84543224D01*
X226035600Y-84374713D01*
X226035898Y-84353400D01*
X226020752Y-84218366D01*
X226017715Y-84191288D01*
X226017714Y-84191285D01*
X226016930Y-84184292D01*
X225960967Y-84023590D01*
X225954982Y-84014011D01*
X225874525Y-83885253D01*
X225870792Y-83879279D01*
X225775811Y-83783633D01*
X225755849Y-83763531D01*
X225755845Y-83763528D01*
X225750885Y-83758533D01*
X225607208Y-83667352D01*
X225446900Y-83610269D01*
X225277929Y-83590121D01*
X225270926Y-83590857D01*
X225270925Y-83590857D01*
X225115701Y-83607171D01*
X225115697Y-83607172D01*
X225108693Y-83607908D01*
X225102022Y-83610179D01*
X224954274Y-83660476D01*
X224954271Y-83660477D01*
X224947604Y-83662747D01*
X224941606Y-83666437D01*
X224941604Y-83666438D01*
X224894539Y-83695393D01*
X224802667Y-83751913D01*
X224797636Y-83756840D01*
X224797633Y-83756842D01*
X224770275Y-83783633D01*
X224681086Y-83870973D01*
X224588905Y-84014011D01*
X224586496Y-84020631D01*
X224586495Y-84020632D01*
X224551957Y-84115525D01*
X224530704Y-84173916D01*
X224509376Y-84342743D01*
X211802156Y-84342743D01*
X211800093Y-84324355D01*
X211793715Y-84267488D01*
X211793714Y-84267485D01*
X211792930Y-84260492D01*
X211736967Y-84099790D01*
X211730982Y-84090211D01*
X211650525Y-83961453D01*
X211646792Y-83955479D01*
X211586655Y-83894921D01*
X211531849Y-83839731D01*
X211531845Y-83839728D01*
X211526885Y-83834733D01*
X211383208Y-83743552D01*
X211222900Y-83686469D01*
X211053929Y-83666321D01*
X211046926Y-83667057D01*
X211046925Y-83667057D01*
X210891701Y-83683371D01*
X210891697Y-83683372D01*
X210884693Y-83684108D01*
X210878022Y-83686379D01*
X210730274Y-83736676D01*
X210730271Y-83736677D01*
X210723604Y-83738947D01*
X210717606Y-83742637D01*
X210717604Y-83742638D01*
X210702528Y-83751913D01*
X210578667Y-83828113D01*
X210573636Y-83833040D01*
X210573633Y-83833042D01*
X210534899Y-83870973D01*
X210457086Y-83947173D01*
X210364905Y-84090211D01*
X210362496Y-84096831D01*
X210362495Y-84096832D01*
X210311943Y-84235723D01*
X210306704Y-84250116D01*
X210285376Y-84418943D01*
X203420637Y-84418943D01*
X203428817Y-84397409D01*
X203428818Y-84397406D01*
X203431318Y-84390824D01*
X203455000Y-84222313D01*
X203455298Y-84201000D01*
X203443614Y-84096832D01*
X203437115Y-84038888D01*
X203437114Y-84038885D01*
X203436330Y-84031892D01*
X203380367Y-83871190D01*
X203374382Y-83861611D01*
X203293925Y-83732853D01*
X203290192Y-83726879D01*
X203201282Y-83637347D01*
X203175249Y-83611131D01*
X203175245Y-83611128D01*
X203170285Y-83606133D01*
X203110075Y-83567922D01*
X203076785Y-83529943D01*
X205814976Y-83529943D01*
X205831582Y-83699299D01*
X205833806Y-83705984D01*
X205833806Y-83705985D01*
X205842744Y-83732853D01*
X205885295Y-83860767D01*
X205888942Y-83866789D01*
X205888943Y-83866791D01*
X205919614Y-83917434D01*
X205973447Y-84006323D01*
X205978343Y-84011393D01*
X205994869Y-84028506D01*
X206091656Y-84128731D01*
X206234046Y-84221909D01*
X206393542Y-84281225D01*
X206400523Y-84282156D01*
X206400525Y-84282157D01*
X206446626Y-84288308D01*
X206562215Y-84303731D01*
X206569226Y-84303093D01*
X206569230Y-84303093D01*
X206724661Y-84288947D01*
X206731682Y-84288308D01*
X206738384Y-84286130D01*
X206738386Y-84286130D01*
X206886823Y-84237900D01*
X206886826Y-84237899D01*
X206893522Y-84235723D01*
X206970134Y-84190053D01*
X207033634Y-84152200D01*
X207033637Y-84152198D01*
X207039689Y-84148590D01*
X207162920Y-84031238D01*
X207168002Y-84023590D01*
X207240657Y-83914235D01*
X207257090Y-83889502D01*
X207264129Y-83870973D01*
X207312878Y-83742638D01*
X207317518Y-83730424D01*
X207323363Y-83688834D01*
X207326692Y-83665150D01*
X207355981Y-83600476D01*
X207412529Y-83562853D01*
X207445625Y-83552099D01*
X207452322Y-83549923D01*
X207598489Y-83462790D01*
X207603586Y-83457936D01*
X207603590Y-83457933D01*
X207631561Y-83431296D01*
X207694686Y-83398804D01*
X207762373Y-83404445D01*
X207829542Y-83429425D01*
X207998215Y-83451931D01*
X208005226Y-83451293D01*
X208005230Y-83451293D01*
X208160661Y-83437147D01*
X208167682Y-83436508D01*
X208174384Y-83434330D01*
X208174386Y-83434330D01*
X208322823Y-83386100D01*
X208322826Y-83386099D01*
X208329522Y-83383923D01*
X208409474Y-83336262D01*
X208469634Y-83300400D01*
X208469637Y-83300398D01*
X208475689Y-83296790D01*
X208598920Y-83179438D01*
X208604721Y-83170708D01*
X208683391Y-83052300D01*
X208693090Y-83037702D01*
X208701718Y-83014989D01*
X208751017Y-82885209D01*
X208751018Y-82885206D01*
X208753518Y-82878624D01*
X208777200Y-82710113D01*
X208777498Y-82688800D01*
X208766235Y-82588385D01*
X208759315Y-82526688D01*
X208759314Y-82526685D01*
X208758530Y-82519692D01*
X208702567Y-82358990D01*
X208694603Y-82346244D01*
X208616125Y-82220653D01*
X208612392Y-82214679D01*
X208515933Y-82117545D01*
X208497449Y-82098931D01*
X208497445Y-82098928D01*
X208492485Y-82093933D01*
X208348808Y-82002752D01*
X208188500Y-81945669D01*
X208019529Y-81925521D01*
X208012526Y-81926257D01*
X208012525Y-81926257D01*
X207857301Y-81942571D01*
X207857297Y-81942572D01*
X207850293Y-81943308D01*
X207843622Y-81945579D01*
X207695874Y-81995876D01*
X207695871Y-81995877D01*
X207689204Y-81998147D01*
X207683206Y-82001837D01*
X207683204Y-82001838D01*
X207656369Y-82018347D01*
X207544267Y-82087313D01*
X207538845Y-82092623D01*
X207520157Y-82110923D01*
X207457492Y-82144293D01*
X207389734Y-82139598D01*
X207311300Y-82111669D01*
X207142329Y-82091521D01*
X207135326Y-82092257D01*
X207135325Y-82092257D01*
X206980101Y-82108571D01*
X206980097Y-82108572D01*
X206973093Y-82109308D01*
X206966422Y-82111579D01*
X206818674Y-82161876D01*
X206818671Y-82161877D01*
X206812004Y-82164147D01*
X206806006Y-82167837D01*
X206806004Y-82167838D01*
X206758812Y-82196871D01*
X206667067Y-82253313D01*
X206662036Y-82258240D01*
X206662033Y-82258242D01*
X206640755Y-82279079D01*
X206545486Y-82372373D01*
X206453305Y-82515411D01*
X206450896Y-82522031D01*
X206450895Y-82522032D01*
X206397684Y-82668227D01*
X206395104Y-82675316D01*
X206394221Y-82682304D01*
X206394221Y-82682305D01*
X206388296Y-82729205D01*
X206359914Y-82794281D01*
X206303896Y-82832690D01*
X206259871Y-82847677D01*
X206259868Y-82847678D01*
X206253204Y-82849947D01*
X206247209Y-82853635D01*
X206247205Y-82853637D01*
X206161404Y-82906423D01*
X206108267Y-82939113D01*
X206103236Y-82944040D01*
X206103233Y-82944042D01*
X206047477Y-82998643D01*
X205986686Y-83058173D01*
X205894505Y-83201211D01*
X205836304Y-83361116D01*
X205814976Y-83529943D01*
X203076785Y-83529943D01*
X203063277Y-83514532D01*
X203052772Y-83444317D01*
X203081896Y-83379569D01*
X203099166Y-83363290D01*
X203102689Y-83361190D01*
X203225920Y-83243838D01*
X203258176Y-83195290D01*
X203296239Y-83138000D01*
X203320090Y-83102102D01*
X203328717Y-83079391D01*
X203378017Y-82949609D01*
X203378018Y-82949606D01*
X203380518Y-82943024D01*
X203404200Y-82774513D01*
X203404498Y-82753200D01*
X203393658Y-82656557D01*
X203386315Y-82591088D01*
X203386314Y-82591085D01*
X203385530Y-82584092D01*
X203338215Y-82448223D01*
X203331884Y-82430043D01*
X203331883Y-82430042D01*
X203329567Y-82423390D01*
X203323582Y-82413811D01*
X203243125Y-82285053D01*
X203239392Y-82279079D01*
X203179439Y-82218706D01*
X203124449Y-82163331D01*
X203124445Y-82163328D01*
X203119485Y-82158333D01*
X202975808Y-82067152D01*
X202815500Y-82010069D01*
X202646529Y-81989921D01*
X202639526Y-81990657D01*
X202639525Y-81990657D01*
X202484301Y-82006971D01*
X202484297Y-82006972D01*
X202477293Y-82007708D01*
X202470622Y-82009979D01*
X202322874Y-82060276D01*
X202322871Y-82060277D01*
X202316204Y-82062547D01*
X202310206Y-82066237D01*
X202310204Y-82066238D01*
X202258820Y-82097850D01*
X202171267Y-82151713D01*
X202166236Y-82156640D01*
X202166233Y-82156642D01*
X202128401Y-82193690D01*
X202049686Y-82270773D01*
X201957505Y-82413811D01*
X201955096Y-82420431D01*
X201955095Y-82420432D01*
X201917767Y-82522990D01*
X201899304Y-82573716D01*
X201877976Y-82742543D01*
X199901266Y-82742543D01*
X199941317Y-82637109D01*
X199941318Y-82637106D01*
X199943818Y-82630524D01*
X199967500Y-82462013D01*
X199967798Y-82440700D01*
X199956924Y-82343756D01*
X199949615Y-82278588D01*
X199949614Y-82278585D01*
X199948830Y-82271592D01*
X199892867Y-82110890D01*
X199886882Y-82101311D01*
X199806425Y-81972553D01*
X199802692Y-81966579D01*
X199740888Y-81904343D01*
X212291976Y-81904343D01*
X212308582Y-82073699D01*
X212310806Y-82080384D01*
X212310806Y-82080385D01*
X212328151Y-82132526D01*
X212362295Y-82235167D01*
X212365942Y-82241189D01*
X212365943Y-82241191D01*
X212382304Y-82268206D01*
X212450447Y-82380723D01*
X212455343Y-82385793D01*
X212485879Y-82417414D01*
X212568656Y-82503131D01*
X212711046Y-82596309D01*
X212870542Y-82655625D01*
X212877523Y-82656556D01*
X212877525Y-82656557D01*
X212923626Y-82662708D01*
X213039215Y-82678131D01*
X213046226Y-82677493D01*
X213046230Y-82677493D01*
X213201661Y-82663347D01*
X213208682Y-82662708D01*
X213215384Y-82660530D01*
X213215386Y-82660530D01*
X213363823Y-82612300D01*
X213363826Y-82612299D01*
X213370522Y-82610123D01*
X213449746Y-82562896D01*
X213510634Y-82526600D01*
X213510637Y-82526598D01*
X213516689Y-82522990D01*
X213639920Y-82405638D01*
X213651927Y-82387567D01*
X213724006Y-82279079D01*
X213734090Y-82263902D01*
X213737628Y-82254588D01*
X213792017Y-82111409D01*
X213792018Y-82111406D01*
X213794518Y-82104824D01*
X213818200Y-81936313D01*
X213818498Y-81915000D01*
X213799530Y-81745892D01*
X213743567Y-81585190D01*
X213737582Y-81575611D01*
X213657125Y-81446853D01*
X213653392Y-81440879D01*
X213572806Y-81359729D01*
X213538449Y-81325131D01*
X213538445Y-81325128D01*
X213533485Y-81320133D01*
X213389808Y-81228952D01*
X213229500Y-81171869D01*
X213060529Y-81151721D01*
X213053526Y-81152457D01*
X213053525Y-81152457D01*
X212898301Y-81168771D01*
X212898297Y-81168772D01*
X212891293Y-81169508D01*
X212884622Y-81171779D01*
X212736874Y-81222076D01*
X212736871Y-81222077D01*
X212730204Y-81224347D01*
X212724206Y-81228037D01*
X212724204Y-81228038D01*
X212693437Y-81246966D01*
X212585267Y-81313513D01*
X212580236Y-81318440D01*
X212580233Y-81318442D01*
X212524476Y-81373043D01*
X212463686Y-81432573D01*
X212371505Y-81575611D01*
X212369096Y-81582231D01*
X212369095Y-81582232D01*
X212315713Y-81728897D01*
X212313304Y-81735516D01*
X212291976Y-81904343D01*
X199740888Y-81904343D01*
X199736769Y-81900195D01*
X199687749Y-81850831D01*
X199687745Y-81850828D01*
X199682785Y-81845833D01*
X199539108Y-81754652D01*
X199378800Y-81697569D01*
X199209829Y-81677421D01*
X199202826Y-81678157D01*
X199202825Y-81678157D01*
X199047601Y-81694471D01*
X199047597Y-81694472D01*
X199040593Y-81695208D01*
X199033922Y-81697479D01*
X198886174Y-81747776D01*
X198886171Y-81747777D01*
X198879504Y-81750047D01*
X198873506Y-81753737D01*
X198873504Y-81753738D01*
X198865879Y-81758429D01*
X198734567Y-81839213D01*
X198729536Y-81844140D01*
X198729533Y-81844142D01*
X198700175Y-81872892D01*
X198612986Y-81958273D01*
X198520805Y-82101311D01*
X198518396Y-82107931D01*
X198518395Y-82107932D01*
X198469810Y-82241417D01*
X198462604Y-82261216D01*
X198441276Y-82430043D01*
X190661760Y-82430043D01*
X190670890Y-82416302D01*
X190673390Y-82409721D01*
X190728817Y-82263809D01*
X190728818Y-82263806D01*
X190731318Y-82257224D01*
X190755000Y-82088713D01*
X190755298Y-82067400D01*
X190745292Y-81978195D01*
X190737115Y-81905288D01*
X190737114Y-81905285D01*
X190736330Y-81898292D01*
X190680367Y-81737590D01*
X190674382Y-81728011D01*
X190593925Y-81599253D01*
X190590192Y-81593279D01*
X190530239Y-81532906D01*
X190475249Y-81477531D01*
X190475245Y-81477528D01*
X190470285Y-81472533D01*
X190326608Y-81381352D01*
X190166300Y-81324269D01*
X189997329Y-81304121D01*
X189990326Y-81304857D01*
X189990325Y-81304857D01*
X189835101Y-81321171D01*
X189835097Y-81321172D01*
X189828093Y-81321908D01*
X189821422Y-81324179D01*
X189673674Y-81374476D01*
X189673671Y-81374477D01*
X189667004Y-81376747D01*
X189661006Y-81380437D01*
X189661004Y-81380438D01*
X189653379Y-81385129D01*
X189522067Y-81465913D01*
X189517036Y-81470840D01*
X189517033Y-81470842D01*
X189491799Y-81495553D01*
X189400486Y-81584973D01*
X189308305Y-81728011D01*
X189305896Y-81734631D01*
X189305895Y-81734632D01*
X189261758Y-81855897D01*
X189250104Y-81887916D01*
X189228776Y-82056743D01*
X187253993Y-82056743D01*
X187190325Y-81954853D01*
X187186592Y-81948879D01*
X187100829Y-81862516D01*
X187071649Y-81833131D01*
X187071645Y-81833128D01*
X187066685Y-81828133D01*
X186923008Y-81736952D01*
X186762700Y-81679869D01*
X186593729Y-81659721D01*
X186586726Y-81660457D01*
X186586725Y-81660457D01*
X186431501Y-81676771D01*
X186431497Y-81676772D01*
X186424493Y-81677508D01*
X186417822Y-81679779D01*
X186270074Y-81730076D01*
X186270071Y-81730077D01*
X186263404Y-81732347D01*
X186257406Y-81736037D01*
X186257404Y-81736038D01*
X186235111Y-81749753D01*
X186118467Y-81821513D01*
X186113436Y-81826440D01*
X186113433Y-81826442D01*
X186084341Y-81854931D01*
X185996886Y-81940573D01*
X185904705Y-82083611D01*
X185901425Y-82092623D01*
X185893512Y-82114363D01*
X185851416Y-82171534D01*
X185785095Y-82196871D01*
X185715603Y-82182329D01*
X185665005Y-82132526D01*
X185649861Y-82063317D01*
X185649600Y-82063313D01*
X185649616Y-82062195D01*
X185649616Y-82062193D01*
X185649898Y-82042000D01*
X185639358Y-81948034D01*
X185631715Y-81879888D01*
X185631714Y-81879885D01*
X185630930Y-81872892D01*
X185574967Y-81712190D01*
X185568982Y-81702611D01*
X185488525Y-81573853D01*
X185484792Y-81567879D01*
X185390109Y-81472533D01*
X185369849Y-81452131D01*
X185369845Y-81452128D01*
X185364885Y-81447133D01*
X185221208Y-81355952D01*
X185060900Y-81298869D01*
X184891929Y-81278721D01*
X184884926Y-81279457D01*
X184884925Y-81279457D01*
X184729701Y-81295771D01*
X184729697Y-81295772D01*
X184722693Y-81296508D01*
X184716022Y-81298779D01*
X184568274Y-81349076D01*
X184568271Y-81349077D01*
X184561604Y-81351347D01*
X184555606Y-81355037D01*
X184555604Y-81355038D01*
X184547979Y-81359729D01*
X184416667Y-81440513D01*
X184411636Y-81445440D01*
X184411633Y-81445442D01*
X184383969Y-81472533D01*
X184295086Y-81559573D01*
X184202905Y-81702611D01*
X184200496Y-81709231D01*
X184200495Y-81709232D01*
X184147113Y-81855897D01*
X184144704Y-81862516D01*
X184123376Y-82031343D01*
X151333700Y-82031343D01*
X151333700Y-79939733D01*
X152673822Y-79939733D01*
X152673975Y-79944121D01*
X152673975Y-79944127D01*
X152683079Y-80204820D01*
X152683625Y-80220458D01*
X152684387Y-80224781D01*
X152684388Y-80224788D01*
X152707942Y-80358367D01*
X152732402Y-80497087D01*
X152819203Y-80764235D01*
X152821131Y-80768188D01*
X152821133Y-80768193D01*
X152834712Y-80796034D01*
X152942340Y-81016702D01*
X152944795Y-81020341D01*
X152944798Y-81020347D01*
X153017890Y-81128710D01*
X153099415Y-81249576D01*
X153102360Y-81252847D01*
X153102361Y-81252848D01*
X153164543Y-81321908D01*
X153287371Y-81458322D01*
X153290733Y-81461143D01*
X153290734Y-81461144D01*
X153299809Y-81468759D01*
X153502550Y-81638879D01*
X153740764Y-81787731D01*
X153997375Y-81901982D01*
X154267390Y-81979407D01*
X154271740Y-81980018D01*
X154271743Y-81980019D01*
X154342201Y-81989921D01*
X154545552Y-82018500D01*
X154756146Y-82018500D01*
X154758332Y-82018347D01*
X154758336Y-82018347D01*
X154961827Y-82004118D01*
X154961832Y-82004117D01*
X154966212Y-82003811D01*
X155240970Y-81945409D01*
X155245099Y-81943906D01*
X155245103Y-81943905D01*
X155500781Y-81850846D01*
X155500785Y-81850844D01*
X155504926Y-81849337D01*
X155752942Y-81717464D01*
X155760201Y-81712190D01*
X155976629Y-81554947D01*
X155976632Y-81554944D01*
X155980192Y-81552358D01*
X156182252Y-81357231D01*
X156355188Y-81135882D01*
X156357384Y-81132078D01*
X156357389Y-81132071D01*
X156448248Y-80974698D01*
X224023492Y-80974698D01*
X224023849Y-80981515D01*
X224023849Y-80981519D01*
X224028751Y-81075039D01*
X224032970Y-81155547D01*
X224034781Y-81162120D01*
X224034781Y-81162123D01*
X224072447Y-81298869D01*
X224081061Y-81330141D01*
X224165522Y-81490336D01*
X224169927Y-81495549D01*
X224169930Y-81495553D01*
X224278006Y-81623443D01*
X224278010Y-81623447D01*
X224282413Y-81628657D01*
X224287836Y-81632803D01*
X224287838Y-81632805D01*
X224420857Y-81734506D01*
X224420861Y-81734509D01*
X224426278Y-81738650D01*
X224512972Y-81779076D01*
X224584231Y-81812305D01*
X224584234Y-81812306D01*
X224590408Y-81815185D01*
X224597056Y-81816671D01*
X224597059Y-81816672D01*
X224697903Y-81839213D01*
X224767143Y-81854690D01*
X224772688Y-81855000D01*
X225555844Y-81855000D01*
X225690637Y-81840357D01*
X225847011Y-81787731D01*
X225855804Y-81784772D01*
X225855806Y-81784771D01*
X225862275Y-81782594D01*
X226017505Y-81689323D01*
X226022462Y-81684635D01*
X226022465Y-81684633D01*
X226144127Y-81569582D01*
X226144129Y-81569580D01*
X226149085Y-81564893D01*
X226152917Y-81559255D01*
X226152920Y-81559251D01*
X226247042Y-81420755D01*
X226250877Y-81415112D01*
X226318130Y-81246966D01*
X226319244Y-81240238D01*
X226319245Y-81240234D01*
X226346593Y-81075039D01*
X226346593Y-81075036D01*
X226347708Y-81068302D01*
X226342803Y-80974698D01*
X226339539Y-80912428D01*
X226338230Y-80887453D01*
X226314904Y-80802766D01*
X226291952Y-80719441D01*
X226290139Y-80712859D01*
X226205678Y-80552664D01*
X226201273Y-80547451D01*
X226201270Y-80547447D01*
X226093194Y-80419557D01*
X226093190Y-80419553D01*
X226088787Y-80414343D01*
X226083362Y-80410195D01*
X225950343Y-80308494D01*
X225950339Y-80308491D01*
X225944922Y-80304350D01*
X225839786Y-80255325D01*
X225786969Y-80230695D01*
X225786966Y-80230694D01*
X225780792Y-80227815D01*
X225774144Y-80226329D01*
X225774141Y-80226328D01*
X225609094Y-80189436D01*
X225609095Y-80189436D01*
X225604057Y-80188310D01*
X225598512Y-80188000D01*
X224815356Y-80188000D01*
X224680563Y-80202643D01*
X224597209Y-80230695D01*
X224515396Y-80258228D01*
X224515394Y-80258229D01*
X224508925Y-80260406D01*
X224353695Y-80353677D01*
X224348738Y-80358365D01*
X224348735Y-80358367D01*
X224314248Y-80390980D01*
X224222115Y-80478107D01*
X224218283Y-80483745D01*
X224218280Y-80483749D01*
X224167340Y-80558705D01*
X224120323Y-80627888D01*
X224053070Y-80796034D01*
X224051956Y-80802762D01*
X224051955Y-80802766D01*
X224036449Y-80896431D01*
X224023492Y-80974698D01*
X156448248Y-80974698D01*
X156493435Y-80896431D01*
X156495636Y-80892619D01*
X156600862Y-80632176D01*
X156603338Y-80622245D01*
X156667753Y-80363893D01*
X156667754Y-80363888D01*
X156668817Y-80359624D01*
X156674627Y-80304350D01*
X156697719Y-80084636D01*
X156697719Y-80084633D01*
X156698178Y-80080267D01*
X156688375Y-79799542D01*
X156673812Y-79716947D01*
X156640360Y-79527236D01*
X156639598Y-79522913D01*
X156552797Y-79255765D01*
X156546798Y-79243464D01*
X156467639Y-79081166D01*
X156429660Y-79003298D01*
X156427205Y-78999659D01*
X156427202Y-78999653D01*
X156346935Y-78880653D01*
X156272585Y-78770424D01*
X156084629Y-78561678D01*
X155869450Y-78381121D01*
X155631236Y-78232269D01*
X155606696Y-78221343D01*
X190447976Y-78221343D01*
X190464582Y-78390699D01*
X190518295Y-78552167D01*
X190521942Y-78558189D01*
X190521943Y-78558191D01*
X190539248Y-78586764D01*
X190606447Y-78697723D01*
X190611343Y-78702793D01*
X190630507Y-78722638D01*
X190724656Y-78820131D01*
X190867046Y-78913309D01*
X191026542Y-78972625D01*
X191033523Y-78973556D01*
X191033525Y-78973557D01*
X191079626Y-78979708D01*
X191195215Y-78995131D01*
X191202226Y-78994493D01*
X191202230Y-78994493D01*
X191357661Y-78980347D01*
X191364682Y-78979708D01*
X191371384Y-78977530D01*
X191371386Y-78977530D01*
X191431669Y-78957943D01*
X195858176Y-78957943D01*
X195874782Y-79127299D01*
X195928495Y-79288767D01*
X195932142Y-79294789D01*
X195932143Y-79294791D01*
X195949448Y-79323364D01*
X196016647Y-79434323D01*
X196021543Y-79439393D01*
X196040707Y-79459238D01*
X196134856Y-79556731D01*
X196277246Y-79649909D01*
X196436742Y-79709225D01*
X196443723Y-79710156D01*
X196443725Y-79710157D01*
X196489826Y-79716308D01*
X196605415Y-79731731D01*
X196612426Y-79731093D01*
X196612430Y-79731093D01*
X196767861Y-79716947D01*
X196774882Y-79716308D01*
X196781584Y-79714130D01*
X196781586Y-79714130D01*
X196930023Y-79665900D01*
X196930026Y-79665899D01*
X196936722Y-79663723D01*
X197035231Y-79605000D01*
X197076834Y-79580200D01*
X197076837Y-79580198D01*
X197082889Y-79576590D01*
X197206120Y-79459238D01*
X197300290Y-79317502D01*
X197308917Y-79294791D01*
X197358217Y-79165009D01*
X197358218Y-79165006D01*
X197360718Y-79158424D01*
X197384400Y-78989913D01*
X197384698Y-78968600D01*
X197374833Y-78880653D01*
X197366515Y-78806488D01*
X197366514Y-78806485D01*
X197365730Y-78799492D01*
X197309767Y-78638790D01*
X197303782Y-78629211D01*
X197223325Y-78500453D01*
X197219592Y-78494479D01*
X197147442Y-78421824D01*
X197104649Y-78378731D01*
X197104645Y-78378728D01*
X197099685Y-78373733D01*
X196956008Y-78282552D01*
X196795700Y-78225469D01*
X196626729Y-78205321D01*
X196619726Y-78206057D01*
X196619725Y-78206057D01*
X196464501Y-78222371D01*
X196464497Y-78222372D01*
X196457493Y-78223108D01*
X196450822Y-78225379D01*
X196303074Y-78275676D01*
X196303071Y-78275677D01*
X196296404Y-78277947D01*
X196290406Y-78281637D01*
X196290404Y-78281638D01*
X196237700Y-78314062D01*
X196151467Y-78367113D01*
X196146436Y-78372040D01*
X196146433Y-78372042D01*
X196090676Y-78426643D01*
X196029886Y-78486173D01*
X195937705Y-78629211D01*
X195935296Y-78635831D01*
X195935295Y-78635832D01*
X195881913Y-78782497D01*
X195879504Y-78789116D01*
X195858176Y-78957943D01*
X191431669Y-78957943D01*
X191519823Y-78929300D01*
X191519826Y-78929299D01*
X191526522Y-78927123D01*
X191604476Y-78880653D01*
X191666634Y-78843600D01*
X191666637Y-78843598D01*
X191672689Y-78839990D01*
X191795920Y-78722638D01*
X191890090Y-78580902D01*
X191892590Y-78574321D01*
X191948017Y-78428409D01*
X191948018Y-78428406D01*
X191950518Y-78421824D01*
X191974200Y-78253313D01*
X191974498Y-78232000D01*
X191955530Y-78062892D01*
X191899567Y-77902190D01*
X191893582Y-77892611D01*
X191813125Y-77763853D01*
X191809392Y-77757879D01*
X191749439Y-77697506D01*
X191694449Y-77642131D01*
X191694445Y-77642128D01*
X191689485Y-77637133D01*
X191545808Y-77545952D01*
X191385500Y-77488869D01*
X191216529Y-77468721D01*
X191209526Y-77469457D01*
X191209525Y-77469457D01*
X191054301Y-77485771D01*
X191054297Y-77485772D01*
X191047293Y-77486508D01*
X191040622Y-77488779D01*
X190892874Y-77539076D01*
X190892871Y-77539077D01*
X190886204Y-77541347D01*
X190880206Y-77545037D01*
X190880204Y-77545038D01*
X190878387Y-77546156D01*
X190741267Y-77630513D01*
X190736236Y-77635440D01*
X190736233Y-77635442D01*
X190680477Y-77690043D01*
X190619686Y-77749573D01*
X190527505Y-77892611D01*
X190525096Y-77899231D01*
X190525095Y-77899232D01*
X190471713Y-78045897D01*
X190469304Y-78052516D01*
X190447976Y-78221343D01*
X155606696Y-78221343D01*
X155374625Y-78118018D01*
X155194875Y-78066476D01*
X155108837Y-78041805D01*
X155108836Y-78041805D01*
X155104610Y-78040593D01*
X155100260Y-78039982D01*
X155100257Y-78039981D01*
X154997310Y-78025513D01*
X154826448Y-78001500D01*
X154615854Y-78001500D01*
X154613668Y-78001653D01*
X154613664Y-78001653D01*
X154410173Y-78015882D01*
X154410168Y-78015883D01*
X154405788Y-78016189D01*
X154131030Y-78074591D01*
X154126901Y-78076094D01*
X154126897Y-78076095D01*
X153871219Y-78169154D01*
X153871215Y-78169156D01*
X153867074Y-78170663D01*
X153619058Y-78302536D01*
X153615499Y-78305122D01*
X153615497Y-78305123D01*
X153445808Y-78428409D01*
X153391808Y-78467642D01*
X153388644Y-78470698D01*
X153388641Y-78470700D01*
X153369193Y-78489481D01*
X153189748Y-78662769D01*
X153016812Y-78884118D01*
X153014616Y-78887922D01*
X153014611Y-78887929D01*
X152909979Y-79069158D01*
X152876364Y-79127381D01*
X152771138Y-79387824D01*
X152770073Y-79392097D01*
X152770072Y-79392099D01*
X152705793Y-79649909D01*
X152703183Y-79660376D01*
X152673822Y-79939733D01*
X151333700Y-79939733D01*
X151333700Y-77139300D01*
X151353702Y-77071179D01*
X151407358Y-77024686D01*
X151459700Y-77013300D01*
X220039675Y-77013300D01*
X220107796Y-77033302D01*
G37*
%TD.AperFunction*%
%TD*%
%TA.AperFunction,Conductor*%
%TO.N,3.3V*%
G36*
X230608803Y-77033302D02*
G01*
X230655296Y-77086958D01*
X230665400Y-77157232D01*
X230635906Y-77221812D01*
X230614744Y-77241235D01*
X230582757Y-77264475D01*
X230456728Y-77404444D01*
X230362555Y-77567557D01*
X230304353Y-77746685D01*
X230289600Y-77887048D01*
X230289600Y-78755952D01*
X230304353Y-78896315D01*
X230362555Y-79075443D01*
X230365858Y-79081165D01*
X230365859Y-79081166D01*
X230378676Y-79103365D01*
X230456728Y-79238556D01*
X230582757Y-79378525D01*
X230735132Y-79489233D01*
X230741161Y-79491917D01*
X230741164Y-79491919D01*
X230901160Y-79563153D01*
X230901163Y-79563154D01*
X230907196Y-79565840D01*
X230984045Y-79582175D01*
X231084970Y-79603628D01*
X231084975Y-79603628D01*
X231091427Y-79605000D01*
X231279773Y-79605000D01*
X231286225Y-79603628D01*
X231286230Y-79603628D01*
X231371888Y-79585420D01*
X231464004Y-79565840D01*
X231470039Y-79563153D01*
X231630037Y-79491918D01*
X231630039Y-79491917D01*
X231636067Y-79489233D01*
X231788443Y-79378525D01*
X231914472Y-79238556D01*
X231992524Y-79103365D01*
X232005341Y-79081166D01*
X232005342Y-79081165D01*
X232008645Y-79075443D01*
X232066847Y-78896315D01*
X232081600Y-78755952D01*
X232081600Y-77887048D01*
X232066847Y-77746685D01*
X232008645Y-77567557D01*
X231914472Y-77404444D01*
X231788443Y-77264475D01*
X231783104Y-77260596D01*
X231783102Y-77260594D01*
X231756457Y-77241235D01*
X231713104Y-77185012D01*
X231707029Y-77114276D01*
X231740161Y-77051485D01*
X231801982Y-77016574D01*
X231830519Y-77013300D01*
X238632548Y-77013300D01*
X238700669Y-77033302D01*
X238747162Y-77086958D01*
X238758548Y-77139488D01*
X238710792Y-108993300D01*
X238709651Y-109754089D01*
X238689547Y-109822180D01*
X238635821Y-109868592D01*
X238583651Y-109879900D01*
X229376231Y-109879900D01*
X229331301Y-106914533D01*
X233852222Y-106914533D01*
X233862025Y-107195258D01*
X233862787Y-107199581D01*
X233862788Y-107199588D01*
X233886564Y-107334424D01*
X233910802Y-107471887D01*
X233997603Y-107739035D01*
X234120740Y-107991502D01*
X234123195Y-107995141D01*
X234123198Y-107995147D01*
X234196290Y-108103510D01*
X234277815Y-108224376D01*
X234465771Y-108433122D01*
X234680950Y-108613679D01*
X234919164Y-108762531D01*
X235175775Y-108876782D01*
X235445790Y-108954207D01*
X235450140Y-108954818D01*
X235450143Y-108954819D01*
X235553090Y-108969287D01*
X235723952Y-108993300D01*
X235934546Y-108993300D01*
X235936732Y-108993147D01*
X235936736Y-108993147D01*
X236140227Y-108978918D01*
X236140232Y-108978917D01*
X236144612Y-108978611D01*
X236419370Y-108920209D01*
X236423499Y-108918706D01*
X236423503Y-108918705D01*
X236679181Y-108825646D01*
X236679185Y-108825644D01*
X236683326Y-108824137D01*
X236931342Y-108692264D01*
X237036296Y-108616011D01*
X237155029Y-108529747D01*
X237155032Y-108529744D01*
X237158592Y-108527158D01*
X237360652Y-108332031D01*
X237533588Y-108110682D01*
X237535784Y-108106878D01*
X237535789Y-108106871D01*
X237671835Y-107871231D01*
X237674036Y-107867419D01*
X237779262Y-107606976D01*
X237812944Y-107471887D01*
X237846153Y-107338693D01*
X237846154Y-107338688D01*
X237847217Y-107334424D01*
X237876578Y-107055067D01*
X237866775Y-106774342D01*
X237843008Y-106639549D01*
X237818760Y-106502036D01*
X237817998Y-106497713D01*
X237731197Y-106230565D01*
X237608060Y-105978098D01*
X237605605Y-105974459D01*
X237605602Y-105974453D01*
X237525335Y-105855453D01*
X237450985Y-105745224D01*
X237263029Y-105536478D01*
X237047850Y-105355921D01*
X236809636Y-105207069D01*
X236553025Y-105092818D01*
X236283010Y-105015393D01*
X236278660Y-105014782D01*
X236278657Y-105014781D01*
X236175710Y-105000313D01*
X236004848Y-104976300D01*
X235794254Y-104976300D01*
X235792068Y-104976453D01*
X235792064Y-104976453D01*
X235588573Y-104990682D01*
X235588568Y-104990683D01*
X235584188Y-104990989D01*
X235309430Y-105049391D01*
X235305301Y-105050894D01*
X235305297Y-105050895D01*
X235049619Y-105143954D01*
X235049615Y-105143956D01*
X235045474Y-105145463D01*
X234797458Y-105277336D01*
X234793899Y-105279922D01*
X234793897Y-105279923D01*
X234689295Y-105355921D01*
X234570208Y-105442442D01*
X234368148Y-105637569D01*
X234195212Y-105858918D01*
X234193016Y-105862722D01*
X234193011Y-105862729D01*
X234079194Y-106059867D01*
X234054764Y-106102181D01*
X233949538Y-106362624D01*
X233948473Y-106366897D01*
X233948472Y-106366899D01*
X233914779Y-106502036D01*
X233881583Y-106635176D01*
X233852222Y-106914533D01*
X229331301Y-106914533D01*
X229235000Y-100558600D01*
X229456143Y-100560880D01*
X229456144Y-100560880D01*
X231379565Y-100580709D01*
X234162600Y-100609400D01*
X234052324Y-87795295D01*
X234035756Y-85870115D01*
X234035600Y-85852000D01*
X229336600Y-85852000D01*
X229336600Y-84985198D01*
X229367548Y-85005450D01*
X229367552Y-85005452D01*
X229373446Y-85009309D01*
X229532942Y-85068625D01*
X229539923Y-85069556D01*
X229539925Y-85069557D01*
X229586026Y-85075708D01*
X229701615Y-85091131D01*
X229708626Y-85090493D01*
X229708630Y-85090493D01*
X229864061Y-85076347D01*
X229871082Y-85075708D01*
X229877784Y-85073530D01*
X229877786Y-85073530D01*
X230026223Y-85025300D01*
X230026226Y-85025299D01*
X230032922Y-85023123D01*
X230104667Y-84980355D01*
X230173034Y-84939600D01*
X230173037Y-84939598D01*
X230179089Y-84935990D01*
X230302320Y-84818638D01*
X230396490Y-84676902D01*
X230398990Y-84670321D01*
X230454417Y-84524409D01*
X230454418Y-84524406D01*
X230456918Y-84517824D01*
X230480600Y-84349313D01*
X230480898Y-84328000D01*
X230461930Y-84158892D01*
X230405967Y-83998190D01*
X230399982Y-83988611D01*
X230319525Y-83859853D01*
X230315792Y-83853879D01*
X230255838Y-83793506D01*
X230200849Y-83738131D01*
X230200845Y-83738128D01*
X230195885Y-83733133D01*
X230052208Y-83641952D01*
X229891900Y-83584869D01*
X229722929Y-83564721D01*
X229715926Y-83565457D01*
X229715925Y-83565457D01*
X229560701Y-83581771D01*
X229560697Y-83581772D01*
X229553693Y-83582508D01*
X229547022Y-83584779D01*
X229399274Y-83635076D01*
X229399271Y-83635077D01*
X229392604Y-83637347D01*
X229386606Y-83641037D01*
X229386604Y-83641038D01*
X229378979Y-83645729D01*
X229336600Y-83671801D01*
X229336600Y-81670086D01*
X229426278Y-81738650D01*
X229512972Y-81779076D01*
X229584231Y-81812305D01*
X229584234Y-81812306D01*
X229590408Y-81815185D01*
X229597056Y-81816671D01*
X229597059Y-81816672D01*
X229703021Y-81840357D01*
X229767143Y-81854690D01*
X229772688Y-81855000D01*
X230555844Y-81855000D01*
X230690637Y-81840357D01*
X230835797Y-81791505D01*
X230855804Y-81784772D01*
X230855806Y-81784771D01*
X230862275Y-81782594D01*
X231017505Y-81689323D01*
X231022462Y-81684635D01*
X231022465Y-81684633D01*
X231144127Y-81569582D01*
X231144129Y-81569580D01*
X231149085Y-81564893D01*
X231152917Y-81559255D01*
X231152920Y-81559251D01*
X231247042Y-81420755D01*
X231250877Y-81415112D01*
X231318130Y-81246966D01*
X231319244Y-81240238D01*
X231319245Y-81240234D01*
X231346593Y-81075039D01*
X231346593Y-81075036D01*
X231347708Y-81068302D01*
X231343445Y-80986947D01*
X231338587Y-80894266D01*
X231338230Y-80887453D01*
X231290139Y-80712859D01*
X231205678Y-80552664D01*
X231201273Y-80547451D01*
X231201270Y-80547447D01*
X231093194Y-80419557D01*
X231093190Y-80419553D01*
X231088787Y-80414343D01*
X231083362Y-80410195D01*
X230950343Y-80308494D01*
X230950339Y-80308491D01*
X230944922Y-80304350D01*
X230839786Y-80255325D01*
X230786969Y-80230695D01*
X230786966Y-80230694D01*
X230780792Y-80227815D01*
X230774144Y-80226329D01*
X230774141Y-80226328D01*
X230609094Y-80189436D01*
X230609095Y-80189436D01*
X230604057Y-80188310D01*
X230598512Y-80188000D01*
X229815356Y-80188000D01*
X229680563Y-80202643D01*
X229597209Y-80230695D01*
X229515396Y-80258228D01*
X229515394Y-80258229D01*
X229508925Y-80260406D01*
X229353695Y-80353677D01*
X229348738Y-80358365D01*
X229348735Y-80358367D01*
X229336600Y-80369843D01*
X229336600Y-79787333D01*
X233903022Y-79787333D01*
X233912825Y-80068058D01*
X233913587Y-80072381D01*
X233913588Y-80072388D01*
X233936940Y-80204820D01*
X233961602Y-80344687D01*
X234048403Y-80611835D01*
X234050331Y-80615788D01*
X234050333Y-80615793D01*
X234097676Y-80712859D01*
X234171540Y-80864302D01*
X234173995Y-80867941D01*
X234173998Y-80867947D01*
X234246003Y-80974698D01*
X234328615Y-81097176D01*
X234331560Y-81100447D01*
X234331561Y-81100448D01*
X234422426Y-81201364D01*
X234516571Y-81305922D01*
X234731750Y-81486479D01*
X234969964Y-81635331D01*
X235048025Y-81670086D01*
X235192712Y-81734505D01*
X235226575Y-81749582D01*
X235496590Y-81827007D01*
X235500940Y-81827618D01*
X235500943Y-81827619D01*
X235603890Y-81842087D01*
X235774752Y-81866100D01*
X235985346Y-81866100D01*
X235987532Y-81865947D01*
X235987536Y-81865947D01*
X236191027Y-81851718D01*
X236191032Y-81851717D01*
X236195412Y-81851411D01*
X236470170Y-81793009D01*
X236474299Y-81791506D01*
X236474303Y-81791505D01*
X236729981Y-81698446D01*
X236729985Y-81698444D01*
X236734126Y-81696937D01*
X236982142Y-81565064D01*
X237087096Y-81488811D01*
X237205829Y-81402547D01*
X237205832Y-81402544D01*
X237209392Y-81399958D01*
X237411452Y-81204831D01*
X237584388Y-80983482D01*
X237586584Y-80979678D01*
X237586589Y-80979671D01*
X237722635Y-80744031D01*
X237724836Y-80740219D01*
X237830062Y-80479776D01*
X237847411Y-80410195D01*
X237896953Y-80211493D01*
X237896954Y-80211488D01*
X237898017Y-80207224D01*
X237898499Y-80202643D01*
X237926919Y-79932236D01*
X237926919Y-79932233D01*
X237927378Y-79927867D01*
X237917575Y-79647142D01*
X237910145Y-79605000D01*
X237885830Y-79467106D01*
X237868798Y-79370513D01*
X237781997Y-79103365D01*
X237768379Y-79075443D01*
X237677810Y-78889751D01*
X237658860Y-78850898D01*
X237656405Y-78847259D01*
X237656402Y-78847253D01*
X237576135Y-78728253D01*
X237501785Y-78618024D01*
X237313829Y-78409278D01*
X237098650Y-78228721D01*
X236860436Y-78079869D01*
X236603825Y-77965618D01*
X236333810Y-77888193D01*
X236329460Y-77887582D01*
X236329457Y-77887581D01*
X236226510Y-77873113D01*
X236055648Y-77849100D01*
X235845054Y-77849100D01*
X235842868Y-77849253D01*
X235842864Y-77849253D01*
X235639373Y-77863482D01*
X235639368Y-77863483D01*
X235634988Y-77863789D01*
X235360230Y-77922191D01*
X235356101Y-77923694D01*
X235356097Y-77923695D01*
X235100419Y-78016754D01*
X235100415Y-78016756D01*
X235096274Y-78018263D01*
X234848258Y-78150136D01*
X234844699Y-78152722D01*
X234844697Y-78152723D01*
X234740095Y-78228721D01*
X234621008Y-78315242D01*
X234418948Y-78510369D01*
X234246012Y-78731718D01*
X234243816Y-78735522D01*
X234243811Y-78735529D01*
X234150982Y-78896315D01*
X234105564Y-78974981D01*
X234000338Y-79235424D01*
X233999273Y-79239697D01*
X233999272Y-79239699D01*
X233936387Y-79491918D01*
X233932383Y-79507976D01*
X233931924Y-79512344D01*
X233931923Y-79512349D01*
X233918211Y-79642812D01*
X233903022Y-79787333D01*
X229336600Y-79787333D01*
X229336600Y-77013300D01*
X230540682Y-77013300D01*
X230608803Y-77033302D01*
G37*
%TD.AperFunction*%
%TD*%
M02*
