M48
; DRILL file {KiCad (6.0.10)} date Thu Feb  2 13:34:48 2023
; FORMAT={-:-/ absolute / inch / decimal}
; #@! TF.CreationDate,2023-02-02T13:34:48-07:00
; #@! TF.GenerationSoftware,Kicad,Pcbnew,(6.0.10)
; #@! TF.FileFunction,Plated,1,4,PTH
FMAT,2
INCH
; #@! TA.AperFunction,Plated,PTH,ViaDrill
T1C0.0118
; #@! TA.AperFunction,Plated,PTH,ViaDrill
T2C0.0150
; #@! TA.AperFunction,Plated,PTH,ViaDrill
T3C0.0157
; #@! TA.AperFunction,Plated,PTH,ComponentDrill
T4C0.0197
; #@! TA.AperFunction,Plated,PTH,ComponentDrill
T5C0.0217
; #@! TA.AperFunction,Plated,PTH,ComponentDrill
T6C0.0290
; #@! TA.AperFunction,Plated,PTH,ComponentDrill
T7C0.0354
; #@! TA.AperFunction,Plated,PTH,ComponentDrill
T8C0.0433
; #@! TA.AperFunction,Plated,PTH,ComponentDrill
T9C0.0470
%
G90
G05
T1
X6.3583Y-3.9794
X6.4547Y-3.7589
X6.4552Y-3.9267
X6.5866Y-3.8573
X6.6068Y-3.8292
X6.692Y-3.7755
X6.83Y-4.012
X6.8346Y-3.8022
X6.8425Y-3.8652
X6.895Y-3.8153
X6.939Y-3.9331
X6.9734Y-3.9892
X7.1252Y-3.863
X7.1321Y-3.9004
X7.189Y-3.7835
X7.2583Y-3.4827
X7.278Y-3.406
X7.301Y-3.238
X7.3406Y-3.5266
X7.342Y-3.235
X7.3757Y-3.4433
X7.3763Y-3.4827
X7.3878Y-3.8957
X7.4016Y-3.6713
X7.4104Y-3.6348
X7.428Y-3.255
X7.445Y-3.226
X7.4975Y-3.7594
X7.5Y-3.8494
X7.5413Y-3.4695
X7.5527Y-3.4168
X7.5571Y-3.5236
X7.5614Y-3.5896
X7.6345Y-3.3395
X7.6737Y-3.9975
X7.674Y-4.265
X7.6819Y-3.5699
X7.687Y-3.244
X7.7067Y-3.4321
X7.7156Y-3.9941
X7.721Y-3.65
X7.7333Y-3.5315
X7.92Y-3.463
X7.9242Y-3.5522
X8.086Y-3.566
X8.125Y-3.5364
X8.1585Y-3.4616
X8.1624Y-3.9935
X8.173Y-3.403
X8.1901Y-4.2781
X8.197Y-4.216
X8.1995Y-3.9265
X8.2254Y-3.3686
X8.2735Y-3.4715
X8.289Y-4.049
X8.343Y-3.255
X8.423Y-3.406
X8.436Y-3.737
X8.492Y-3.835
X8.5609Y-3.4151
X8.569Y-3.835
X8.647Y-3.538
X8.647Y-3.501
X8.812Y-4.234
X8.832Y-3.745
X8.842Y-3.586
X8.8445Y-3.6185
X8.866Y-3.987
X8.8885Y-3.5895
X8.911Y-3.836
X8.923Y-3.446
X9.122Y-3.455
T2
X6.1781Y-3.7884
X6.31Y-3.233
X6.39Y-4.302
X6.4252Y-3.6624
X6.528Y-4.167
X6.9705Y-3.6634
X8.89Y-3.404
T3
X7.018Y-4.189
X7.61Y-4.204
X8.114Y-4.136
X8.7087Y-3.6203
X8.709Y-3.734
T6
X8.9936Y-3.455
X8.9936Y-3.505
X8.9936Y-3.555
X8.9936Y-3.605
X8.9936Y-3.655
X8.9936Y-3.705
X8.9936Y-3.755
X8.9936Y-3.805
X8.9936Y-3.855
X8.9936Y-3.905
X9.0436Y-3.455
X9.0436Y-3.505
X9.0436Y-3.555
X9.0436Y-3.605
X9.0436Y-3.655
X9.0436Y-3.705
X9.0436Y-3.755
X9.0436Y-3.805
X9.0436Y-3.855
X9.0436Y-3.905
T7
X8.4354Y-4.052
X8.7346Y-4.052
T8
X6.1661Y-3.5581
X6.1661Y-3.6959
T9
X6.4585Y-3.4494
X6.5963Y-3.4494
X6.7341Y-3.4494
X6.8719Y-3.4494
X7.0097Y-3.4494
X7.1475Y-3.4494
T4
G00X8.6312Y-3.2543
M15
G01X8.6312Y-3.2287
M16
G05
G00X8.9068Y-3.2543
M15
G01X8.9068Y-3.2287
M16
G05
T5
G00X8.6765Y-3.3478
M15
G01X8.6647Y-3.3478
M16
G05
G00X8.8733Y-3.3478
M15
G01X8.8615Y-3.3478
M16
G05
T0
M30
