M48
; DRILL file {KiCad (6.0.9)} date Sun Dec 18 19:34:33 2022
; FORMAT={-:-/ absolute / inch / decimal}
; #@! TF.CreationDate,2022-12-18T19:34:33-07:00
; #@! TF.GenerationSoftware,Kicad,Pcbnew,(6.0.9)
; #@! TF.FileFunction,Plated,1,4,PTH
FMAT,2
INCH
; #@! TA.AperFunction,Plated,PTH,ViaDrill
T1C0.0118
; #@! TA.AperFunction,Plated,PTH,ViaDrill
T2C0.0150
; #@! TA.AperFunction,Plated,PTH,ComponentDrill
T3C0.0197
; #@! TA.AperFunction,Plated,PTH,ComponentDrill
T4C0.0217
; #@! TA.AperFunction,Plated,PTH,ComponentDrill
T5C0.0290
; #@! TA.AperFunction,Plated,PTH,ComponentDrill
T6C0.0354
; #@! TA.AperFunction,Plated,PTH,ComponentDrill
T7C0.0433
; #@! TA.AperFunction,Plated,PTH,ComponentDrill
T8C0.0470
%
G90
G05
T1
X6.4411Y-3.3831
X6.6Y-3.666
X6.6009Y-3.7399
X6.708Y-3.603
X6.769Y-3.627
X6.811Y-3.754
X6.822Y-3.663
X6.936Y-3.805
X7.001Y-3.714
X7.087Y-3.721
X7.091Y-3.646
X7.108Y-3.61
X7.148Y-4.034
X7.169Y-3.384
X7.171Y-3.641
X7.223Y-3.591
X7.2335Y-3.1075
X7.258Y-3.492
X7.2651Y-3.7191
X7.279Y-3.23
X7.346Y-3.245
X7.348Y-3.333
X7.423Y-3.296
X7.432Y-3.134
X7.446Y-3.404
X7.4755Y-3.7375
X7.48Y-3.231
X7.528Y-3.08
X7.5525Y-3.5705
X7.583Y-3.135
X7.5845Y-3.6295
X7.596Y-4.177
X7.6575Y-3.9805
X7.663Y-4.077
X7.71Y-3.442
X7.72Y-3.392
X7.7223Y-3.4917
X7.7246Y-3.8244
X7.741Y-3.109
X7.7458Y-3.4132
X7.8427Y-3.2457
X7.978Y-3.258
X7.98Y-3.315
X8.033Y-4.025
X8.133Y-3.289
X8.155Y-3.262
X8.1895Y-3.2555
X8.19Y-3.868
X8.1996Y-3.7744
X8.207Y-4.048
X8.24Y-3.955
X8.2661Y-4.1891
X8.2962Y-3.2358
X8.309Y-3.324
X8.323Y-3.628
X8.388Y-3.225
X8.494Y-3.472
X8.533Y-3.693
X8.5429Y-3.3861
X8.564Y-3.763
X8.578Y-3.346
X8.6496Y-3.7264
X8.7735Y-3.5405
X8.816Y-3.581
X8.869Y-3.321
X8.899Y-3.464
X8.929Y-4.077
X8.9449Y-3.6741
X8.979Y-3.425
X9.044Y-3.32
T2
X6.292Y-3.838
X6.5145Y-4.0135
X6.654Y-3.49
X7.018Y-3.488
X8.7073Y-3.0457
T5
X9.1036Y-3.453
X9.1036Y-3.503
X9.1036Y-3.553
X9.1036Y-3.603
X9.1036Y-3.653
X9.1036Y-3.703
X9.1036Y-3.753
X9.1036Y-3.803
X9.1036Y-3.853
X9.1036Y-3.903
X9.1536Y-3.453
X9.1536Y-3.503
X9.1536Y-3.553
X9.1536Y-3.603
X9.1536Y-3.653
X9.1536Y-3.703
X9.1536Y-3.753
X9.1536Y-3.803
X9.1536Y-3.853
X9.1536Y-3.903
T6
X8.5144Y-4.001
X8.8136Y-4.001
T7
X6.1681Y-3.3691
X6.1681Y-3.5069
T8
X6.4275Y-3.2874
X6.5653Y-3.2874
X6.7031Y-3.2874
X6.8409Y-3.2874
X6.9787Y-3.2874
X7.1165Y-3.2874
T3
G00X8.8262Y-3.0963
M15
G01X8.8262Y-3.0707
M16
G05
G00X9.1018Y-3.0963
M15
G01X9.1018Y-3.0707
M16
G05
T4
G00X8.8715Y-3.1898
M15
G01X8.8597Y-3.1898
M16
G05
G00X9.0683Y-3.1898
M15
G01X9.0565Y-3.1898
M16
G05
T0
M30
