%TF.GenerationSoftware,KiCad,Pcbnew,7.0.1*%
%TF.CreationDate,2023-05-27T07:40:04-07:00*%
%TF.ProjectId,Base-Flight-Computer-Test,42617365-2d46-46c6-9967-68742d436f6d,rev?*%
%TF.SameCoordinates,Original*%
%TF.FileFunction,Legend,Bot*%
%TF.FilePolarity,Positive*%
%FSLAX46Y46*%
G04 Gerber Fmt 4.6, Leading zero omitted, Abs format (unit mm)*
G04 Created by KiCad (PCBNEW 7.0.1) date 2023-05-27 07:40:04*
%MOMM*%
%LPD*%
G01*
G04 APERTURE LIST*
%ADD10C,0.127000*%
G04 APERTURE END LIST*
D10*
X140549084Y-81022915D02*
X140803084Y-80660058D01*
X140984513Y-81022915D02*
X140984513Y-80260915D01*
X140984513Y-80260915D02*
X140694227Y-80260915D01*
X140694227Y-80260915D02*
X140621656Y-80297201D01*
X140621656Y-80297201D02*
X140585370Y-80333487D01*
X140585370Y-80333487D02*
X140549084Y-80406058D01*
X140549084Y-80406058D02*
X140549084Y-80514915D01*
X140549084Y-80514915D02*
X140585370Y-80587487D01*
X140585370Y-80587487D02*
X140621656Y-80623772D01*
X140621656Y-80623772D02*
X140694227Y-80660058D01*
X140694227Y-80660058D02*
X140984513Y-80660058D01*
X140258799Y-80986630D02*
X140149942Y-81022915D01*
X140149942Y-81022915D02*
X139968513Y-81022915D01*
X139968513Y-81022915D02*
X139895942Y-80986630D01*
X139895942Y-80986630D02*
X139859656Y-80950344D01*
X139859656Y-80950344D02*
X139823370Y-80877772D01*
X139823370Y-80877772D02*
X139823370Y-80805201D01*
X139823370Y-80805201D02*
X139859656Y-80732630D01*
X139859656Y-80732630D02*
X139895942Y-80696344D01*
X139895942Y-80696344D02*
X139968513Y-80660058D01*
X139968513Y-80660058D02*
X140113656Y-80623772D01*
X140113656Y-80623772D02*
X140186227Y-80587487D01*
X140186227Y-80587487D02*
X140222513Y-80551201D01*
X140222513Y-80551201D02*
X140258799Y-80478630D01*
X140258799Y-80478630D02*
X140258799Y-80406058D01*
X140258799Y-80406058D02*
X140222513Y-80333487D01*
X140222513Y-80333487D02*
X140186227Y-80297201D01*
X140186227Y-80297201D02*
X140113656Y-80260915D01*
X140113656Y-80260915D02*
X139932227Y-80260915D01*
X139932227Y-80260915D02*
X139823370Y-80297201D01*
X139605656Y-80260915D02*
X139170228Y-80260915D01*
X139387942Y-81022915D02*
X139387942Y-80260915D01*
M02*
