%TF.GenerationSoftware,KiCad,Pcbnew,7.0.1*%
%TF.CreationDate,2023-05-27T07:40:04-07:00*%
%TF.ProjectId,Base-Flight-Computer-Test,42617365-2d46-46c6-9967-68742d436f6d,rev?*%
%TF.SameCoordinates,Original*%
%TF.FileFunction,Copper,L1,Top*%
%TF.FilePolarity,Positive*%
%FSLAX46Y46*%
G04 Gerber Fmt 4.6, Leading zero omitted, Abs format (unit mm)*
G04 Created by KiCad (PCBNEW 7.0.1) date 2023-05-27 07:40:04*
%MOMM*%
%LPD*%
G01*
G04 APERTURE LIST*
G04 Aperture macros list*
%AMRoundRect*
0 Rectangle with rounded corners*
0 $1 Rounding radius*
0 $2 $3 $4 $5 $6 $7 $8 $9 X,Y pos of 4 corners*
0 Add a 4 corners polygon primitive as box body*
4,1,4,$2,$3,$4,$5,$6,$7,$8,$9,$2,$3,0*
0 Add four circle primitives for the rounded corners*
1,1,$1+$1,$2,$3*
1,1,$1+$1,$4,$5*
1,1,$1+$1,$6,$7*
1,1,$1+$1,$8,$9*
0 Add four rect primitives between the rounded corners*
20,1,$1+$1,$2,$3,$4,$5,0*
20,1,$1+$1,$4,$5,$6,$7,0*
20,1,$1+$1,$6,$7,$8,$9,0*
20,1,$1+$1,$8,$9,$2,$3,0*%
%AMFreePoly0*
4,1,21,2.033536,0.970036,2.035000,0.966500,2.035000,-0.966500,2.033536,-0.970036,2.030000,-0.971500,-1.000000,-0.971500,-1.003536,-0.970036,-1.005000,-0.966500,-1.005000,-0.385000,-2.500000,-0.385000,-2.503536,-0.383536,-2.505000,-0.380000,-2.505000,0.380000,-2.503536,0.383536,-2.500000,0.385000,-1.005000,0.385000,-1.005000,0.966500,-1.003536,0.970036,-1.000000,0.971500,2.030000,0.971500,
2.033536,0.970036,2.033536,0.970036,$1*%
G04 Aperture macros list end*
%TA.AperFunction,SMDPad,CuDef*%
%ADD10R,0.400000X1.350000*%
%TD*%
%TA.AperFunction,ComponentPad*%
%ADD11O,1.300000X1.016000*%
%TD*%
%TA.AperFunction,SMDPad,CuDef*%
%ADD12R,1.500000X1.550000*%
%TD*%
%TA.AperFunction,ComponentPad*%
%ADD13O,1.016000X1.778000*%
%TD*%
%TA.AperFunction,SMDPad,CuDef*%
%ADD14R,0.600000X0.540000*%
%TD*%
%TA.AperFunction,SMDPad,CuDef*%
%ADD15RoundRect,0.075600X0.224400X0.194400X-0.224400X0.194400X-0.224400X-0.194400X0.224400X-0.194400X0*%
%TD*%
%TA.AperFunction,SMDPad,CuDef*%
%ADD16R,1.000000X0.800000*%
%TD*%
%TA.AperFunction,ComponentPad*%
%ADD17C,5.588000*%
%TD*%
%TA.AperFunction,ComponentPad*%
%ADD18O,1.016000X2.032000*%
%TD*%
%TA.AperFunction,SMDPad,CuDef*%
%ADD19RoundRect,0.075600X-0.194400X0.224400X-0.194400X-0.224400X0.194400X-0.224400X0.194400X0.224400X0*%
%TD*%
%TA.AperFunction,SMDPad,CuDef*%
%ADD20R,0.280000X0.520000*%
%TD*%
%TA.AperFunction,ComponentPad*%
%ADD21C,1.408000*%
%TD*%
%TA.AperFunction,SMDPad,CuDef*%
%ADD22R,0.540000X0.600000*%
%TD*%
%TA.AperFunction,ComponentPad*%
%ADD23C,1.320800*%
%TD*%
%TA.AperFunction,SMDPad,CuDef*%
%ADD24R,0.450800X1.111200*%
%TD*%
%TA.AperFunction,SMDPad,CuDef*%
%ADD25R,0.609600X0.685800*%
%TD*%
%TA.AperFunction,SMDPad,CuDef*%
%ADD26R,0.580000X1.730000*%
%TD*%
%TA.AperFunction,SMDPad,CuDef*%
%ADD27FreePoly0,90.000000*%
%TD*%
%TA.AperFunction,SMDPad,CuDef*%
%ADD28R,0.250000X0.275000*%
%TD*%
%TA.AperFunction,SMDPad,CuDef*%
%ADD29R,0.275000X0.250000*%
%TD*%
%TA.AperFunction,SMDPad,CuDef*%
%ADD30R,0.952500X0.406400*%
%TD*%
%TA.AperFunction,SMDPad,CuDef*%
%ADD31R,0.750000X0.850000*%
%TD*%
%TA.AperFunction,SMDPad,CuDef*%
%ADD32R,1.100000X1.000000*%
%TD*%
%TA.AperFunction,SMDPad,CuDef*%
%ADD33R,0.843000X1.000000*%
%TD*%
%TA.AperFunction,ComponentPad*%
%ADD34C,1.727200*%
%TD*%
%TA.AperFunction,SMDPad,CuDef*%
%ADD35RoundRect,0.075600X0.194400X-0.224400X0.194400X0.224400X-0.194400X0.224400X-0.194400X-0.224400X0*%
%TD*%
%TA.AperFunction,SMDPad,CuDef*%
%ADD36R,1.524000X0.558800*%
%TD*%
%TA.AperFunction,SMDPad,CuDef*%
%ADD37R,1.111200X0.450800*%
%TD*%
%TA.AperFunction,SMDPad,CuDef*%
%ADD38R,0.228600X0.812800*%
%TD*%
%TA.AperFunction,SMDPad,CuDef*%
%ADD39R,0.812800X0.228600*%
%TD*%
%TA.AperFunction,SMDPad,CuDef*%
%ADD40R,3.505200X3.505200*%
%TD*%
%TA.AperFunction,ViaPad*%
%ADD41C,0.600000*%
%TD*%
%TA.AperFunction,ViaPad*%
%ADD42C,1.000000*%
%TD*%
%TA.AperFunction,Conductor*%
%ADD43C,0.254000*%
%TD*%
%TA.AperFunction,Conductor*%
%ADD44C,0.381000*%
%TD*%
%TA.AperFunction,Conductor*%
%ADD45C,0.177800*%
%TD*%
%TA.AperFunction,Conductor*%
%ADD46C,0.203200*%
%TD*%
G04 APERTURE END LIST*
D10*
%TO.P,P2,1,VCC*%
%TO.N,5V*%
X132654400Y-100525600D03*
%TO.P,P2,2,D-*%
%TO.N,USB_D-*%
X133304400Y-100525600D03*
%TO.P,P2,3,D+*%
%TO.N,USB_D+*%
X133954400Y-100525600D03*
%TO.P,P2,4,ID*%
%TO.N,unconnected-(P2-ID-Pad4)*%
X134604400Y-100525600D03*
%TO.P,P2,5,GND*%
%TO.N,Earth*%
X135254400Y-100525600D03*
D11*
%TO.P,P2,S1,SHIELD*%
X131454400Y-100525600D03*
D12*
X132954400Y-103225600D03*
X134954400Y-103225600D03*
D11*
X136454400Y-100525600D03*
D13*
%TO.P,P2,S2,SHIELD*%
X130454400Y-103225600D03*
X137454400Y-103225600D03*
%TD*%
D14*
%TO.P,R20,1*%
%TO.N,Earth*%
X128752600Y-100406400D03*
%TO.P,R20,2*%
%TO.N,VIN_SW*%
X128752600Y-99542400D03*
%TD*%
D15*
%TO.P,C6,1*%
%TO.N,MAIN*%
X126136400Y-92276400D03*
%TO.P,C6,2*%
%TO.N,Earth*%
X126136400Y-91416400D03*
%TD*%
D16*
%TO.P,D1,1*%
%TO.N,3.3V*%
X151091200Y-81517400D03*
%TO.P,D1,2*%
%TO.N,Net-(D1-Pad2)*%
X152591200Y-81517400D03*
%TO.P,D1,3*%
%TO.N,Net-(D1-Pad3)*%
X152591200Y-82617400D03*
%TO.P,D1,4*%
%TO.N,Net-(D1-Pad4)*%
X151091200Y-82617400D03*
%TD*%
D17*
%TO.P,H4,1*%
%TO.N,Earth*%
X109448600Y-102108000D03*
%TD*%
D18*
%TO.P,P3,1,1*%
%TO.N,3.3V*%
X135178000Y-82365000D03*
%TO.P,P3,2,2*%
%TO.N,SWDIO*%
X136428000Y-82365000D03*
%TO.P,P3,3,3*%
%TO.N,SWCLK*%
X137678000Y-82365000D03*
%TO.P,P3,4,4*%
%TO.N,SWO*%
X138928000Y-82365000D03*
%TO.P,P3,5,5*%
%TO.N,NRST*%
X140178000Y-82365000D03*
%TO.P,P3,6,6*%
%TO.N,Earth*%
X141428000Y-82365000D03*
%TD*%
D19*
%TO.P,C8,1*%
%TO.N,3.3V*%
X152830000Y-85750400D03*
%TO.P,C8,2*%
%TO.N,Earth*%
X151970000Y-85750400D03*
%TD*%
D14*
%TO.P,R13,1*%
%TO.N,BP_SDA*%
X153593800Y-91389400D03*
%TO.P,R13,2*%
%TO.N,3.3V*%
X153593800Y-90525400D03*
%TD*%
D15*
%TO.P,C7,1*%
%TO.N,DROGUE*%
X116763800Y-92860600D03*
%TO.P,C7,2*%
%TO.N,Earth*%
X116763800Y-92000600D03*
%TD*%
D20*
%TO.P,D2,A*%
%TO.N,5V*%
X129052200Y-103606600D03*
%TO.P,D2,C*%
%TO.N,VIN*%
X128402200Y-103606600D03*
%TD*%
D21*
%TO.P,BZ1,1,-*%
%TO.N,VIN*%
X144703800Y-97561400D03*
%TO.P,BZ1,2,+*%
%TO.N,Net-(BZ1-+)*%
X152303800Y-97561400D03*
%TD*%
D14*
%TO.P,R4,1*%
%TO.N,STATUS_B*%
X148336000Y-81991400D03*
%TO.P,R4,2*%
%TO.N,Net-(D1-Pad2)*%
X148336000Y-81127400D03*
%TD*%
D22*
%TO.P,R1,1*%
%TO.N,~{MAIN_CONT}*%
X110565800Y-87503000D03*
%TO.P,R1,2*%
%TO.N,3.3V*%
X111429800Y-87503000D03*
%TD*%
D15*
%TO.P,C1,1*%
%TO.N,3.3V*%
X140690600Y-88695000D03*
%TO.P,C1,2*%
%TO.N,Earth*%
X140690600Y-87835000D03*
%TD*%
D23*
%TO.P,P5,1,5*%
%TO.N,Earth*%
X108508800Y-92837001D03*
%TO.P,P5,2,6*%
%TO.N,Net-(P5-6)*%
X108508800Y-90836999D03*
%TD*%
D24*
%TO.P,Q2,1,G*%
%TO.N,Net-(P1A-6)*%
X127798599Y-93076601D03*
%TO.P,Q2,2,S*%
%TO.N,Earth*%
X129198601Y-93076601D03*
%TO.P,Q2,3,D*%
%TO.N,~{MAIN_CONT}*%
X128498600Y-91276600D03*
%TD*%
D14*
%TO.P,R22,1*%
%TO.N,Earth*%
X130657600Y-92151400D03*
%TO.P,R22,2*%
%TO.N,VBAT_SENSE*%
X130657600Y-91287400D03*
%TD*%
D22*
%TO.P,R7,1*%
%TO.N,~{DROGUE_CONT}*%
X111251800Y-98094800D03*
%TO.P,R7,2*%
%TO.N,3.3V*%
X112115800Y-98094800D03*
%TD*%
D19*
%TO.P,C4,1*%
%TO.N,3.3V*%
X133475200Y-95758000D03*
%TO.P,C4,2*%
%TO.N,Earth*%
X132615200Y-95758000D03*
%TD*%
D20*
%TO.P,D5,A*%
%TO.N,Net-(P5-6)*%
X107015400Y-97790000D03*
%TO.P,D5,C*%
%TO.N,VIN*%
X107665400Y-97790000D03*
%TD*%
D25*
%TO.P,J1,1,A*%
%TO.N,3.3V*%
X159131000Y-91363800D03*
%TO.P,J1,2,B*%
%TO.N,BOOT*%
X159131000Y-92481400D03*
%TD*%
D26*
%TO.P,U3,1,VOUT*%
%TO.N,3.3V*%
X129208400Y-86064600D03*
D27*
%TO.P,U3,2,GND*%
%TO.N,Earth*%
X130708400Y-84429600D03*
D26*
%TO.P,U3,3,VIN*%
%TO.N,VIN*%
X132208400Y-86064600D03*
%TD*%
D22*
%TO.P,R21,1*%
%TO.N,VIN*%
X129666800Y-89865200D03*
%TO.P,R21,2*%
%TO.N,VBAT_SENSE*%
X130530800Y-89865200D03*
%TD*%
D28*
%TO.P,U2,1,VDDIO*%
%TO.N,3.3V*%
X154961900Y-87146900D03*
%TO.P,U2,2,SCK*%
%TO.N,BP_SCL*%
X154461900Y-87146900D03*
D29*
%TO.P,U2,3,VSS*%
%TO.N,Earth*%
X153949400Y-87409400D03*
%TO.P,U2,4,SDI*%
%TO.N,BP_SDA*%
X153949400Y-87909400D03*
%TO.P,U2,5,SDO*%
%TO.N,Earth*%
X153949400Y-88409400D03*
D28*
%TO.P,U2,6,CSB*%
%TO.N,3.3V*%
X154461900Y-88671900D03*
%TO.P,U2,7,INT*%
%TO.N,unconnected-(U2-INT-Pad7)*%
X154961900Y-88671900D03*
D29*
%TO.P,U2,8,VSS*%
%TO.N,Earth*%
X155474400Y-88409400D03*
%TO.P,U2,9,VSS*%
X155474400Y-87909400D03*
%TO.P,U2,10,VDD*%
%TO.N,3.3V*%
X155474400Y-87409400D03*
%TD*%
D30*
%TO.P,Q4,1,G*%
%TO.N,DROGUE*%
X115271550Y-92999601D03*
%TO.P,Q4,2,S*%
%TO.N,Earth*%
X115271550Y-92049600D03*
%TO.P,Q4,3*%
%TO.N,unconnected-(Q4-Pad3)*%
X115271550Y-91099599D03*
%TO.P,Q4,4*%
%TO.N,unconnected-(Q4-Pad4)*%
X112718850Y-91099599D03*
%TO.P,Q4,5,D*%
%TO.N,Net-(P4A-6)*%
X112718850Y-92999601D03*
%TD*%
D31*
%TO.P,Y1,1,1*%
%TO.N,OSC_IN*%
X136711200Y-86142200D03*
%TO.P,Y1,2*%
%TO.N,unconnected-(Y1-Pad2)*%
X136711200Y-87492200D03*
%TO.P,Y1,3,3*%
%TO.N,OSC_OUT*%
X137761200Y-87492200D03*
%TO.P,Y1,4*%
%TO.N,unconnected-(Y1-Pad4)*%
X137761200Y-86142200D03*
%TD*%
D24*
%TO.P,Q3,1,G*%
%TO.N,Net-(P4A-6)*%
X118679999Y-92517801D03*
%TO.P,Q3,2,S*%
%TO.N,Earth*%
X120080001Y-92517801D03*
%TO.P,Q3,3,D*%
%TO.N,~{DROGUE_CONT}*%
X119380000Y-90717800D03*
%TD*%
D22*
%TO.P,R19,1*%
%TO.N,Earth*%
X145389400Y-83210400D03*
%TO.P,R19,2*%
%TO.N,FLASH_SCK*%
X146253400Y-83210400D03*
%TD*%
%TO.P,R17,1*%
%TO.N,~{FLASH_SS}*%
X145364000Y-81788000D03*
%TO.P,R17,2*%
%TO.N,3.3V*%
X146228000Y-81788000D03*
%TD*%
D30*
%TO.P,Q1,1,G*%
%TO.N,MAIN*%
X124771150Y-92517001D03*
%TO.P,Q1,2,S*%
%TO.N,Earth*%
X124771150Y-91567000D03*
%TO.P,Q1,3*%
%TO.N,unconnected-(Q1-Pad3)*%
X124771150Y-90616999D03*
%TO.P,Q1,4*%
%TO.N,unconnected-(Q1-Pad4)*%
X122218450Y-90616999D03*
%TO.P,Q1,5,D*%
%TO.N,Net-(P1A-6)*%
X122218450Y-92517001D03*
%TD*%
D22*
%TO.P,R8,1*%
%TO.N,5V*%
X140004600Y-100431600D03*
%TO.P,R8,2*%
%TO.N,USB_DETECT*%
X140868600Y-100431600D03*
%TD*%
D15*
%TO.P,C11,1*%
%TO.N,OSC_OUT*%
X139141200Y-86993200D03*
%TO.P,C11,2*%
%TO.N,Earth*%
X139141200Y-86133200D03*
%TD*%
D14*
%TO.P,R6,1*%
%TO.N,STATUS_R*%
X149580600Y-81127400D03*
%TO.P,R6,2*%
%TO.N,Net-(D1-Pad4)*%
X149580600Y-81991400D03*
%TD*%
D22*
%TO.P,R3,1*%
%TO.N,Earth*%
X119252800Y-94538800D03*
%TO.P,R3,2*%
%TO.N,Net-(P1A-6)*%
X120116800Y-94538800D03*
%TD*%
D19*
%TO.P,C3,1*%
%TO.N,3.3V*%
X135431000Y-96570800D03*
%TO.P,C3,2*%
%TO.N,Earth*%
X134571000Y-96570800D03*
%TD*%
D32*
%TO.P,C13,1*%
%TO.N,3.3V*%
X129858400Y-80924400D03*
%TO.P,C13,2*%
%TO.N,Earth*%
X131558400Y-80924400D03*
%TD*%
D17*
%TO.P,H3,1*%
%TO.N,Earth*%
X159004000Y-102108000D03*
%TD*%
D14*
%TO.P,R12,1*%
%TO.N,BP_SCL*%
X151663400Y-89001800D03*
%TO.P,R12,2*%
%TO.N,3.3V*%
X151663400Y-88137800D03*
%TD*%
D33*
%TO.P,D3,1,1*%
%TO.N,Net-(D3-Pad1)*%
X155488500Y-92100400D03*
%TO.P,D3,2,2*%
%TO.N,3.3V*%
X156931500Y-92100400D03*
%TD*%
D34*
%TO.P,P1,1,5*%
%TO.N,VIN_SW*%
X125467400Y-85372600D03*
%TO.P,P1,2,6*%
%TO.N,Net-(P1A-6)*%
X121967399Y-85372600D03*
%TO.P,P1,3,5*%
%TO.N,Earth*%
X118467399Y-85372600D03*
%TO.P,P1,4,6*%
%TO.N,Net-(P1B-6)*%
X114967398Y-85372600D03*
%TD*%
D14*
%TO.P,R5,1*%
%TO.N,STATUS_G*%
X154533600Y-83134400D03*
%TO.P,R5,2*%
%TO.N,Net-(D1-Pad3)*%
X154533600Y-82270400D03*
%TD*%
D35*
%TO.P,C9,1*%
%TO.N,3.3V*%
X156669000Y-87426800D03*
%TO.P,C9,2*%
%TO.N,Earth*%
X157529000Y-87426800D03*
%TD*%
D19*
%TO.P,C5,1*%
%TO.N,3.3V*%
X133729200Y-94437200D03*
%TO.P,C5,2*%
%TO.N,Earth*%
X132869200Y-94437200D03*
%TD*%
D17*
%TO.P,H1,1*%
%TO.N,Earth*%
X159004000Y-82931000D03*
%TD*%
D22*
%TO.P,R16,1*%
%TO.N,Earth*%
X156133600Y-94945200D03*
%TO.P,R16,2*%
%TO.N,Net-(D3-Pad1)*%
X156997600Y-94945200D03*
%TD*%
%TO.P,R9,1*%
%TO.N,Earth*%
X111201000Y-96596200D03*
%TO.P,R9,2*%
%TO.N,Net-(P4A-6)*%
X112065000Y-96596200D03*
%TD*%
D19*
%TO.P,C2,1*%
%TO.N,3.3V*%
X133500600Y-97409000D03*
%TO.P,C2,2*%
%TO.N,Earth*%
X132640600Y-97409000D03*
%TD*%
D20*
%TO.P,D4,A*%
%TO.N,Net-(P1B-6)*%
X108275000Y-87553800D03*
%TO.P,D4,C*%
%TO.N,VIN*%
X107625000Y-87553800D03*
%TD*%
D34*
%TO.P,P4,1,5*%
%TO.N,VIN_SW*%
X115112800Y-99568000D03*
%TO.P,P4,2,6*%
%TO.N,Net-(P4A-6)*%
X118612801Y-99568000D03*
%TO.P,P4,3,5*%
%TO.N,VIN*%
X122112801Y-99568000D03*
%TO.P,P4,4,6*%
%TO.N,VIN_SW*%
X125612802Y-99568000D03*
%TD*%
D36*
%TO.P,U4,1,\u002ACE*%
%TO.N,~{FLASH_SS}*%
X142455900Y-85191600D03*
%TO.P,U4,2,SO*%
%TO.N,FLASH_MISO*%
X142455900Y-86461600D03*
%TO.P,U4,3,\u002AWP*%
%TO.N,3.3V*%
X142455900Y-87731600D03*
%TO.P,U4,4,VSS*%
%TO.N,Earth*%
X142455900Y-89001600D03*
%TO.P,U4,5,SI*%
%TO.N,FLASH_MOSI*%
X149745700Y-89001600D03*
%TO.P,U4,6,SCK*%
%TO.N,FLASH_SCK*%
X149745700Y-87731600D03*
%TO.P,U4,7,\u002AHOLD*%
%TO.N,3.3V*%
X149745700Y-86461600D03*
%TO.P,U4,8,VDD*%
X149745700Y-85191600D03*
%TD*%
D22*
%TO.P,R11,1*%
%TO.N,Earth*%
X140741600Y-99060000D03*
%TO.P,R11,2*%
%TO.N,USB_DETECT*%
X139877600Y-99060000D03*
%TD*%
%TO.P,R18,1*%
%TO.N,~{SWITCH}*%
X126441400Y-94462600D03*
%TO.P,R18,2*%
%TO.N,3.3V*%
X125577400Y-94462600D03*
%TD*%
D17*
%TO.P,H2,1*%
%TO.N,Earth*%
X109448600Y-82931000D03*
%TD*%
D37*
%TO.P,Q5,1,G*%
%TO.N,VIN_SW*%
X128843199Y-95743799D03*
%TO.P,Q5,2,S*%
%TO.N,Earth*%
X128843199Y-97143801D03*
%TO.P,Q5,3,D*%
%TO.N,~{SWITCH}*%
X130643200Y-96443800D03*
%TD*%
D38*
%TO.P,U1,1,VDD*%
%TO.N,3.3V*%
X139592304Y-90271600D03*
%TO.P,U1,2,PF0-OSC_IN*%
%TO.N,OSC_IN*%
X139092178Y-90271600D03*
%TO.P,U1,3,PF1-OSC_OUT*%
%TO.N,OSC_OUT*%
X138592052Y-90271600D03*
%TO.P,U1,4,PG10-NRST*%
%TO.N,NRST*%
X138091926Y-90271600D03*
%TO.P,U1,5,PA0*%
%TO.N,VBAT_SENSE*%
X137591800Y-90271600D03*
%TO.P,U1,6,PA1*%
%TO.N,~{SWITCH}*%
X137091674Y-90271600D03*
%TO.P,U1,7,PA2*%
%TO.N,STATUS_B*%
X136591548Y-90271600D03*
%TO.P,U1,8,PA3*%
%TO.N,MAIN*%
X136091422Y-90271600D03*
D39*
%TO.P,U1,9,PA4*%
%TO.N,DROGUE*%
X135441563Y-90921459D03*
%TO.P,U1,10,PA5*%
%TO.N,FLASH_SCK*%
X135441563Y-91421585D03*
%TO.P,U1,11,PA6*%
%TO.N,~{FLASH_SS}*%
X135441563Y-91921711D03*
%TO.P,U1,12,PA7*%
%TO.N,FLASH_MOSI*%
X135441563Y-92421837D03*
%TO.P,U1,13,PB0*%
%TO.N,FLASH_MISO*%
X135441563Y-92921963D03*
%TO.P,U1,14,VSSA*%
%TO.N,Earth*%
X135441563Y-93422089D03*
%TO.P,U1,15,VDDA*%
%TO.N,3.3V*%
X135441563Y-93922215D03*
%TO.P,U1,16,VSS*%
%TO.N,Earth*%
X135441563Y-94422341D03*
D38*
%TO.P,U1,17,VDD*%
%TO.N,3.3V*%
X136091422Y-95072200D03*
%TO.P,U1,18,PA8*%
%TO.N,BP_SDA*%
X136591548Y-95072200D03*
%TO.P,U1,19,PA9*%
%TO.N,BP_SCL*%
X137091674Y-95072200D03*
%TO.P,U1,20,PA10*%
%TO.N,USB_DETECT*%
X137591800Y-95072200D03*
%TO.P,U1,21,PA11*%
%TO.N,USB_D-*%
X138091926Y-95072200D03*
%TO.P,U1,22,PA12*%
%TO.N,USB_D+*%
X138592052Y-95072200D03*
%TO.P,U1,23,PA13*%
%TO.N,SWDIO*%
X139092178Y-95072200D03*
%TO.P,U1,24,PA14*%
%TO.N,SWCLK*%
X139592304Y-95072200D03*
D39*
%TO.P,U1,25,PA15*%
%TO.N,~{DROGUE_CONT}*%
X140242163Y-94422341D03*
%TO.P,U1,26,PB3*%
%TO.N,SWO*%
X140242163Y-93922215D03*
%TO.P,U1,27,PB4*%
%TO.N,BEEP*%
X140242163Y-93422089D03*
%TO.P,U1,28,PB5*%
%TO.N,STATUS_R*%
X140242163Y-92921963D03*
%TO.P,U1,29,PB6*%
%TO.N,STATUS_G*%
X140242163Y-92421837D03*
%TO.P,U1,30,PB7*%
%TO.N,~{MAIN_CONT}*%
X140242163Y-91921711D03*
%TO.P,U1,31,PB8-BOOT0*%
%TO.N,BOOT*%
X140242163Y-91421585D03*
%TO.P,U1,32,VSS*%
%TO.N,Earth*%
X140242163Y-90921459D03*
D40*
%TO.P,U1,33,Exposed_Pad*%
X137841863Y-92671900D03*
%TD*%
D24*
%TO.P,Q6,1,G*%
%TO.N,BEEP*%
X140933401Y-102122399D03*
%TO.P,Q6,2,S*%
%TO.N,Earth*%
X139533399Y-102122399D03*
%TO.P,Q6,3,D*%
%TO.N,Net-(BZ1-+)*%
X140233400Y-103922400D03*
%TD*%
D19*
%TO.P,C10,1*%
%TO.N,OSC_IN*%
X137640800Y-84709000D03*
%TO.P,C10,2*%
%TO.N,Earth*%
X136780800Y-84709000D03*
%TD*%
D32*
%TO.P,C12,1*%
%TO.N,VIN*%
X131558400Y-88366600D03*
%TO.P,C12,2*%
%TO.N,Earth*%
X129858400Y-88366600D03*
%TD*%
D41*
%TO.N,Earth*%
X123520200Y-91592400D03*
%TO.N,3.3V*%
X147548600Y-85191600D03*
%TO.N,Earth*%
X154736800Y-87909400D03*
X141147800Y-97891600D03*
X139115800Y-93929200D03*
X139115800Y-92659200D03*
X140690600Y-86156800D03*
X139141200Y-85318600D03*
X136677400Y-91414600D03*
X113969800Y-92075000D03*
X136652000Y-92710000D03*
X137896600Y-93929200D03*
X137845800Y-91414600D03*
X145186400Y-84429600D03*
X136702800Y-93954600D03*
X117779800Y-91617800D03*
D42*
X133045200Y-83820000D03*
D41*
X151028400Y-85725000D03*
X137871200Y-92684600D03*
X139090400Y-91440000D03*
%TO.N,3.3V*%
X127812800Y-83769200D03*
X134493000Y-98094800D03*
X154406600Y-89611200D03*
X131648200Y-93751400D03*
X114833400Y-88569800D03*
X154203400Y-85928200D03*
X143764000Y-88366600D03*
D42*
X115824000Y-98094800D03*
D41*
X151079200Y-80619600D03*
D42*
%TO.N,VIN*%
X133934200Y-85267800D03*
X127406400Y-103682800D03*
X109143800Y-98018600D03*
D41*
%TO.N,DROGUE*%
X134594600Y-90398600D03*
X114122200Y-92989400D03*
%TO.N,MAIN*%
X123621800Y-93649800D03*
X133400800Y-89941400D03*
%TO.N,BOOT*%
X144373600Y-92608400D03*
X149504400Y-94004907D03*
X158496000Y-93980000D03*
%TO.N,SWDIO*%
X139369800Y-97307400D03*
%TO.N,SWCLK*%
X140055600Y-96393000D03*
%TO.N,SWO*%
X142069185Y-93922215D03*
%TO.N,STATUS_B*%
X134289800Y-89052400D03*
X149148800Y-83540600D03*
%TO.N,STATUS_G*%
X149174200Y-90220800D03*
X154152600Y-84734400D03*
%TO.N,STATUS_R*%
X149987000Y-84124800D03*
X147142200Y-92151200D03*
%TO.N,~{FLASH_SS}*%
X132461000Y-92227400D03*
X145338800Y-89814400D03*
%TO.N,USB_DETECT*%
X139115800Y-99771200D03*
X137236200Y-98323400D03*
%TO.N,FLASH_SCK*%
X133731000Y-91084400D03*
X146329400Y-89128600D03*
%TO.N,BP_SCL*%
X135839200Y-97891600D03*
X150698200Y-90398600D03*
%TO.N,BP_SDA*%
X136144000Y-97078800D03*
X148463000Y-91389200D03*
%TO.N,~{MAIN_CONT}*%
X125653800Y-89636600D03*
X143510000Y-92303600D03*
%TO.N,~{DROGUE_CONT}*%
X113207800Y-90093800D03*
X139877800Y-98094800D03*
%TO.N,FLASH_MISO*%
X133705600Y-93294200D03*
X145211800Y-92379800D03*
%TO.N,FLASH_MOSI*%
X145211800Y-91313000D03*
X132689600Y-93167200D03*
%TD*%
D43*
%TO.N,Earth*%
X123520200Y-91592400D02*
X124510800Y-91592400D01*
D44*
%TO.N,3.3V*%
X147548600Y-85191600D02*
X147523200Y-85191600D01*
D43*
%TO.N,Net-(BZ1-+)*%
X148680600Y-103922400D02*
X152374600Y-100228400D01*
X140233400Y-103922400D02*
X148680600Y-103922400D01*
X152374600Y-100228400D02*
X152374600Y-97586800D01*
D45*
%TO.N,NRST*%
X138091926Y-88917526D02*
X137668000Y-88493600D01*
X139674600Y-80518000D02*
X140182600Y-81026000D01*
X134924800Y-80518000D02*
X139674600Y-80518000D01*
X135737600Y-85064600D02*
X134112000Y-83439000D01*
X134112000Y-83439000D02*
X134112000Y-81330800D01*
X140182600Y-81026000D02*
X140182600Y-82372200D01*
X135737600Y-88163400D02*
X135737600Y-85064600D01*
X138091926Y-90271600D02*
X138091926Y-88917526D01*
X134112000Y-81330800D02*
X134924800Y-80518000D01*
X137668000Y-88493600D02*
X136067800Y-88493600D01*
X136067800Y-88493600D02*
X135737600Y-88163400D01*
D44*
%TO.N,Net-(P5-6)*%
X106756200Y-92589599D02*
X106756200Y-93649800D01*
X106756200Y-93649800D02*
X106756200Y-97485200D01*
X108508800Y-90836999D02*
X106756200Y-92589599D01*
X106756200Y-97485200D02*
X106959400Y-97688400D01*
D45*
%TO.N,Earth*%
X128752600Y-100406400D02*
X131369000Y-100406400D01*
X131597400Y-100482400D02*
X131597400Y-97434400D01*
X119430800Y-91617800D02*
X117779800Y-91617800D01*
X135441563Y-94422341D02*
X136057259Y-94422341D01*
X129184400Y-92202000D02*
X130581400Y-92202000D01*
X132640600Y-96570800D02*
X132615200Y-96545400D01*
D44*
X130454400Y-103225600D02*
X137490200Y-103225600D01*
D43*
X113969800Y-92075000D02*
X113969800Y-92049600D01*
X111201000Y-92735600D02*
X111201000Y-96596200D01*
D44*
X116763800Y-92000600D02*
X115593600Y-92000600D01*
D45*
X141122400Y-83997800D02*
X140690600Y-83997800D01*
X137485036Y-83997800D02*
X140690600Y-83997800D01*
X154584400Y-87909400D02*
X154736800Y-87909400D01*
X132615200Y-96293200D02*
X132615200Y-96545400D01*
X139141200Y-86133200D02*
X139141200Y-85318600D01*
X131622800Y-97409000D02*
X132638800Y-97409000D01*
X154084400Y-87409400D02*
X154584400Y-87909400D01*
X131369000Y-100406400D02*
X131470400Y-100507800D01*
X117195600Y-91617800D02*
X116865400Y-91948000D01*
X141428000Y-82365000D02*
X141428000Y-83692200D01*
D44*
X129858400Y-88366600D02*
X129858400Y-87616400D01*
D45*
X159029400Y-87147400D02*
X159029400Y-84531200D01*
X136780800Y-84709000D02*
X136780800Y-84702036D01*
D44*
X129858400Y-87616400D02*
X130733800Y-86741000D01*
D45*
X129198601Y-93076601D02*
X129198601Y-92216201D01*
X134620000Y-95758000D02*
X134620000Y-96443800D01*
X128843199Y-97143801D02*
X131078201Y-97143801D01*
D44*
X126009400Y-91567000D02*
X126085600Y-91490800D01*
D45*
X154084400Y-88409400D02*
X154584400Y-87909400D01*
X153949400Y-87409400D02*
X154084400Y-87409400D01*
X140242163Y-90921459D02*
X139685141Y-90921459D01*
X117779800Y-91617800D02*
X117195600Y-91617800D01*
X151970000Y-85750400D02*
X151053800Y-85750400D01*
D44*
X135254400Y-100525600D02*
X136507200Y-100525600D01*
D45*
X140242163Y-90516837D02*
X141554200Y-89204800D01*
X131597400Y-97434400D02*
X131622800Y-97409000D01*
X131078201Y-97143801D02*
X131343400Y-97409000D01*
D44*
X115271550Y-92049600D02*
X113969800Y-92049600D01*
X133045200Y-83820000D02*
X131089400Y-83820000D01*
D45*
X132869200Y-95045000D02*
X132765800Y-95148400D01*
X119303800Y-94538800D02*
X119253000Y-94589600D01*
X135441563Y-94936437D02*
X134620000Y-95758000D01*
X140690600Y-87835000D02*
X140690600Y-86156800D01*
X120080001Y-92267001D02*
X119430800Y-91617800D01*
X141554200Y-89204800D02*
X141808200Y-89204800D01*
X141428000Y-83692200D02*
X141122400Y-83997800D01*
D44*
X131558400Y-83274800D02*
X131267200Y-83566000D01*
D45*
X120080001Y-92517801D02*
X120080001Y-92267001D01*
X139685141Y-90921459D02*
X139547600Y-91059000D01*
X128625600Y-92202000D02*
X127000000Y-92202000D01*
X137454400Y-103225600D02*
X138836400Y-103225600D01*
X158750000Y-87426800D02*
X159029400Y-87147400D01*
X132869200Y-94437200D02*
X132869200Y-95045000D01*
X140741600Y-99060000D02*
X140741600Y-98297800D01*
X119303800Y-93599000D02*
X119303800Y-94538800D01*
D44*
X124771150Y-91567000D02*
X126009400Y-91567000D01*
D45*
X128625600Y-92202000D02*
X129184400Y-92202000D01*
X120080001Y-92822799D02*
X119303800Y-93599000D01*
X145186400Y-84429600D02*
X145186400Y-83362800D01*
X154736800Y-87909400D02*
X155346400Y-87909400D01*
X132615200Y-96545400D02*
X132615200Y-97309200D01*
X138836400Y-103225600D02*
X139522200Y-102539800D01*
X135441563Y-94422341D02*
X135441563Y-94936437D01*
X135441563Y-93422089D02*
X136320911Y-93422089D01*
X136057259Y-94422341D02*
X136220200Y-94259400D01*
X132765800Y-95148400D02*
X132765800Y-95732600D01*
D44*
X131089400Y-83820000D02*
X131013200Y-83743800D01*
D45*
X127000000Y-92202000D02*
X126365000Y-91567000D01*
X136780800Y-84702036D02*
X137485036Y-83997800D01*
X132615200Y-95758000D02*
X132615200Y-96293200D01*
X156133600Y-94945200D02*
X156133600Y-99237600D01*
X140242163Y-90921459D02*
X140242163Y-90516837D01*
X159029400Y-84531200D02*
X158953200Y-84455000D01*
X120080001Y-92517801D02*
X120080001Y-92822799D01*
D43*
X111887000Y-92049600D02*
X111201000Y-92735600D01*
D45*
X155474400Y-87961200D02*
X155473400Y-87960200D01*
X140690600Y-86156800D02*
X140690600Y-83997800D01*
X134442200Y-96570800D02*
X132640600Y-96570800D01*
X151053800Y-85750400D02*
X151028400Y-85725000D01*
X129198601Y-92216201D02*
X129184400Y-92202000D01*
X155474400Y-88409400D02*
X155474400Y-87961200D01*
X157529000Y-87426800D02*
X158750000Y-87426800D01*
X131343400Y-97409000D02*
X131622800Y-97409000D01*
X153949400Y-88409400D02*
X154084400Y-88409400D01*
X156133600Y-99237600D02*
X158165800Y-101269800D01*
X140741600Y-98297800D02*
X141147800Y-97891600D01*
D44*
X131558400Y-80924400D02*
X131558400Y-83274800D01*
D43*
X113969800Y-92049600D02*
X111887000Y-92049600D01*
D45*
%TO.N,Net-(D3-Pad1)*%
X156667200Y-93548200D02*
X156730700Y-93611700D01*
X155488500Y-92100400D02*
X155488500Y-93106100D01*
X156997600Y-93878600D02*
X156730700Y-93611700D01*
X155488500Y-93106100D02*
X155930600Y-93548200D01*
X156997600Y-94945200D02*
X156997600Y-93878600D01*
X155930600Y-93548200D02*
X156667200Y-93548200D01*
%TO.N,BEEP*%
X140933401Y-102122399D02*
X140933401Y-101763599D01*
X142798800Y-95554800D02*
X142798800Y-93497400D01*
X140933401Y-101763599D02*
X141833600Y-100863400D01*
X142570200Y-93268800D02*
X141452600Y-93268800D01*
X141452600Y-93268800D02*
X141299311Y-93422089D01*
X141833600Y-96520000D02*
X142798800Y-95554800D01*
X141299311Y-93422089D02*
X140242163Y-93422089D01*
X141833600Y-100863400D02*
X141833600Y-96520000D01*
X142798800Y-93497400D02*
X142570200Y-93268800D01*
%TO.N,3.3V*%
X140690600Y-88695000D02*
X141039300Y-88346300D01*
D44*
X149745700Y-86423500D02*
X149783800Y-86461600D01*
D45*
X154203400Y-85928200D02*
X154178000Y-85902800D01*
X120218200Y-100304600D02*
X120218200Y-99390200D01*
D44*
X149745700Y-85191600D02*
X147548600Y-85191600D01*
D45*
X150952200Y-86461600D02*
X150342600Y-86461600D01*
X158242000Y-91541600D02*
X159232600Y-91541600D01*
D44*
X129858400Y-80924400D02*
X129794000Y-80924400D01*
D45*
X136091422Y-95861378D02*
X135559800Y-96393000D01*
D44*
X149745700Y-85191600D02*
X149745700Y-86423500D01*
D45*
X133103900Y-93835500D02*
X133731000Y-93835500D01*
X136091422Y-95072200D02*
X136091422Y-95861378D01*
X135407400Y-97028000D02*
X135407400Y-96697800D01*
X133500600Y-97409000D02*
X134493000Y-97409000D01*
X147523200Y-82372200D02*
X147523200Y-85191600D01*
X154406600Y-89611200D02*
X154461900Y-89666500D01*
X133729200Y-94437200D02*
X133729200Y-95455000D01*
X154461900Y-88671900D02*
X154461900Y-89555900D01*
X154178000Y-85902800D02*
X152882600Y-85902800D01*
X156210000Y-89611200D02*
X154406600Y-89611200D01*
X156931500Y-92100400D02*
X156931500Y-90332700D01*
D44*
X143129000Y-87731600D02*
X143764000Y-88366600D01*
D45*
X154461900Y-89682900D02*
X153644600Y-90500200D01*
X139592304Y-89744296D02*
X140538200Y-88798400D01*
X116967000Y-99237800D02*
X116967000Y-100126800D01*
X141039300Y-88346300D02*
X141396700Y-88346300D01*
X133729200Y-93837300D02*
X133731000Y-93835500D01*
X125120400Y-94488000D02*
X125577600Y-94488000D01*
D44*
X142455900Y-87731600D02*
X143129000Y-87731600D01*
X129794000Y-80924400D02*
X129082800Y-81635600D01*
D45*
X135026400Y-97409000D02*
X135407400Y-97028000D01*
X141396700Y-88346300D02*
X141833600Y-87909400D01*
X157683200Y-92100400D02*
X158242000Y-91541600D01*
X155252800Y-87409400D02*
X155041600Y-87198200D01*
X151091200Y-81517400D02*
X151079200Y-80619600D01*
X133019800Y-93751400D02*
X133103900Y-93835500D01*
X154228800Y-85902800D02*
X154203400Y-85928200D01*
X113766600Y-87503000D02*
X114833400Y-88569800D01*
X133729200Y-94437200D02*
X133729200Y-93837300D01*
X134493000Y-97409000D02*
X134493000Y-98094800D01*
X151663400Y-87172800D02*
X150952200Y-86461600D01*
X156931500Y-92100400D02*
X157683200Y-92100400D01*
X134482485Y-93835500D02*
X134569200Y-93922215D01*
X155474400Y-87409400D02*
X155252800Y-87409400D01*
X154961900Y-86610500D02*
X154254200Y-85902800D01*
X139592304Y-90271600D02*
X139592304Y-89744296D01*
X146939000Y-81788000D02*
X147523200Y-82372200D01*
X151663400Y-88137800D02*
X151663400Y-87172800D01*
X134493000Y-97409000D02*
X135026400Y-97409000D01*
X154461900Y-89666500D02*
X154482800Y-89662000D01*
X155474400Y-87409400D02*
X156675200Y-87409400D01*
X156931500Y-90332700D02*
X156210000Y-89611200D01*
X111429800Y-87503000D02*
X113766600Y-87503000D01*
X154461900Y-89555900D02*
X154406600Y-89611200D01*
X117932200Y-101092000D02*
X119430800Y-101092000D01*
X154254200Y-85902800D02*
X154228800Y-85902800D01*
X115824000Y-98094800D02*
X116967000Y-99237800D01*
X154961900Y-87146900D02*
X154961900Y-86610500D01*
X133731000Y-93835500D02*
X134482485Y-93835500D01*
X146228000Y-81788000D02*
X146939000Y-81788000D01*
X154482800Y-89662000D02*
X154461900Y-89682900D01*
D43*
X112115800Y-98094800D02*
X115824000Y-98094800D01*
D45*
X120218200Y-99390200D02*
X125120400Y-94488000D01*
X133729200Y-95455000D02*
X133578600Y-95605600D01*
X131648200Y-93751400D02*
X133019800Y-93751400D01*
D44*
X129082800Y-83769200D02*
X129082800Y-85801200D01*
D45*
X116967000Y-100126800D02*
X117932200Y-101092000D01*
D44*
X129082800Y-83769200D02*
X127812800Y-83769200D01*
X129082800Y-81635600D02*
X129082800Y-83769200D01*
D45*
X134569200Y-93922215D02*
X135441563Y-93922215D01*
X119430800Y-101092000D02*
X120218200Y-100304600D01*
D44*
%TO.N,VIN*%
X107625000Y-88651200D02*
X108356400Y-89382600D01*
D45*
X129824000Y-89230200D02*
X130657600Y-89230200D01*
D44*
X128402200Y-103606600D02*
X127482600Y-103606600D01*
X133137400Y-86064600D02*
X133934200Y-85267800D01*
X109524800Y-89382600D02*
X110032800Y-89890600D01*
X108153200Y-97790000D02*
X108381800Y-98018600D01*
D45*
X129666800Y-89865200D02*
X129666800Y-89387400D01*
X129666800Y-89387400D02*
X129824000Y-89230200D01*
X130657600Y-89230200D02*
X131241800Y-88646000D01*
D44*
X110032800Y-89890600D02*
X110032800Y-97129600D01*
X132208400Y-86064600D02*
X132208400Y-87730200D01*
X107625000Y-87553800D02*
X107625000Y-88651200D01*
X108381800Y-98018600D02*
X109143800Y-98018600D01*
X132208400Y-87730200D02*
X131724400Y-88214200D01*
X132208400Y-86064600D02*
X133137400Y-86064600D01*
X127482600Y-103606600D02*
X127406400Y-103682800D01*
X110032800Y-97129600D02*
X109143800Y-98018600D01*
X108356400Y-89382600D02*
X109524800Y-89382600D01*
X107665400Y-97790000D02*
X108153200Y-97790000D01*
D45*
%TO.N,OSC_IN*%
X137640800Y-84715964D02*
X137083800Y-85272964D01*
X139979400Y-85013800D02*
X139979400Y-88138000D01*
X139979400Y-88138000D02*
X139115800Y-89001600D01*
X137640800Y-84709000D02*
X139674600Y-84709000D01*
X139115800Y-89001600D02*
X139115800Y-90170000D01*
X136926236Y-85272964D02*
X136711200Y-85488000D01*
X139674600Y-84709000D02*
X139979400Y-85013800D01*
X137083800Y-85272964D02*
X136926236Y-85272964D01*
X137640800Y-84709000D02*
X137640800Y-84715964D01*
X136711200Y-85488000D02*
X136711200Y-86142200D01*
%TO.N,OSC_OUT*%
X139141200Y-86993200D02*
X139092200Y-86993200D01*
X138592052Y-87588852D02*
X138557000Y-87553800D01*
X138592052Y-90271600D02*
X138592052Y-87588852D01*
X139092200Y-86993200D02*
X139092200Y-87018600D01*
X139092200Y-87018600D02*
X138557000Y-87553800D01*
X138557000Y-87553800D02*
X138023600Y-87553800D01*
%TO.N,5V*%
X140004600Y-100431600D02*
X138658600Y-100431600D01*
D44*
X129082800Y-102641400D02*
X129082800Y-103428800D01*
X132654400Y-101838400D02*
X129885800Y-101838400D01*
X129885800Y-101838400D02*
X129082800Y-102641400D01*
X132654400Y-100525600D02*
X132654400Y-101838400D01*
D45*
X138658600Y-100431600D02*
X137251800Y-101838400D01*
X137251800Y-101838400D02*
X132654400Y-101838400D01*
%TO.N,DROGUE*%
X114122200Y-92989400D02*
X114147600Y-92999601D01*
D44*
X116763800Y-92860600D02*
X115419400Y-92860600D01*
D45*
X135066659Y-90921459D02*
X134569200Y-90424000D01*
X135441563Y-90921459D02*
X135066659Y-90921459D01*
X114168002Y-92999601D02*
X114122200Y-92989400D01*
X114147600Y-92999601D02*
X114157801Y-92999601D01*
X115271550Y-92999601D02*
X114168002Y-92999601D01*
X134569200Y-90424000D02*
X134594600Y-90398600D01*
%TO.N,MAIN*%
X135382000Y-90271600D02*
X136091422Y-90271600D01*
X133400800Y-89941400D02*
X134061200Y-89941400D01*
X134967700Y-89857300D02*
X135382000Y-90271600D01*
X134145300Y-89857300D02*
X134967700Y-89857300D01*
D44*
X125350800Y-92276400D02*
X125171200Y-92456000D01*
X126136400Y-92276400D02*
X125350800Y-92276400D01*
D45*
X124079000Y-93649800D02*
X123621800Y-93649800D01*
X124771150Y-92957650D02*
X124079000Y-93649800D01*
X124771150Y-92517001D02*
X124771150Y-92957650D01*
X134061200Y-89941400D02*
X134145300Y-89857300D01*
%TO.N,Net-(D1-Pad2)*%
X152577800Y-80746600D02*
X152577800Y-81508600D01*
X148336000Y-81127400D02*
X148336000Y-80467200D01*
X148724900Y-80078300D02*
X151909500Y-80078300D01*
X148336000Y-80467200D02*
X148724900Y-80078300D01*
X151909500Y-80078300D02*
X152577800Y-80746600D01*
%TO.N,Net-(D1-Pad3)*%
X153466800Y-82651600D02*
X152679400Y-82651600D01*
X154533600Y-82270400D02*
X153848000Y-82270400D01*
X153848000Y-82270400D02*
X153466800Y-82651600D01*
%TO.N,Net-(D1-Pad4)*%
X149698800Y-82617400D02*
X149580600Y-82499200D01*
X149580600Y-81991400D02*
X149580600Y-82499200D01*
X151091200Y-82617400D02*
X149698800Y-82617400D01*
D46*
%TO.N,USB_D-*%
X138091926Y-95681801D02*
X138091926Y-95072200D01*
X133451600Y-99903400D02*
X133451600Y-99392752D01*
X133304400Y-100525600D02*
X133304400Y-100050600D01*
X133451600Y-99392752D02*
X133860552Y-98983800D01*
X133860552Y-98983800D02*
X137645152Y-98983800D01*
X133304400Y-100050600D02*
X133451600Y-99903400D01*
X138164189Y-98464763D02*
X138164189Y-95754064D01*
X137645152Y-98983800D02*
X138164189Y-98464763D01*
X138164189Y-95754064D02*
X138091926Y-95681801D01*
%TO.N,USB_D+*%
X133807200Y-99540048D02*
X134007848Y-99339400D01*
X137792448Y-99339400D02*
X138519789Y-98612059D01*
X133954400Y-100050600D02*
X133807200Y-99903400D01*
X138519789Y-95754064D02*
X138592052Y-95681801D01*
X134007848Y-99339400D02*
X137792448Y-99339400D01*
X138592052Y-95681801D02*
X138592052Y-95072200D01*
X133954400Y-100525600D02*
X133954400Y-100050600D01*
X133807200Y-99903400D02*
X133807200Y-99540048D01*
X138519789Y-98612059D02*
X138519789Y-95754064D01*
D45*
%TO.N,BOOT*%
X144051300Y-91651100D02*
X144051300Y-92286100D01*
X140242163Y-91421585D02*
X143821785Y-91421585D01*
X143821785Y-91421585D02*
X144051300Y-91651100D01*
X159131000Y-92481400D02*
X159131000Y-93345000D01*
X159131000Y-93345000D02*
X158496000Y-93980000D01*
X144051300Y-92286100D02*
X144373600Y-92608400D01*
%TO.N,SWDIO*%
X139092178Y-97029778D02*
X139092178Y-95072200D01*
X139369800Y-97307400D02*
X139092178Y-97029778D01*
%TO.N,SWCLK*%
X139592304Y-95072200D02*
X139592304Y-95929704D01*
X139592304Y-95929704D02*
X140055600Y-96393000D01*
%TO.N,SWO*%
X140242163Y-93922215D02*
X142069185Y-93922215D01*
%TO.N,VIN_SW*%
X128843199Y-95743799D02*
X126709401Y-95743799D01*
D44*
X122945802Y-102235000D02*
X122174000Y-102235000D01*
D45*
X126709401Y-95743799D02*
X125704600Y-96748600D01*
D44*
X117779800Y-102235000D02*
X122174000Y-102235000D01*
X125612802Y-99568000D02*
X122945802Y-102235000D01*
D45*
X125704600Y-96748600D02*
X125704600Y-99618800D01*
X128752600Y-99542400D02*
X125603200Y-99542400D01*
D44*
X115112800Y-99568000D02*
X117779800Y-102235000D01*
D45*
%TO.N,STATUS_B*%
X136591548Y-89601548D02*
X136474200Y-89484200D01*
X148336000Y-83362800D02*
X148513800Y-83540600D01*
X134721600Y-89484200D02*
X134289800Y-89052400D01*
X149148800Y-83540600D02*
X148513800Y-83540600D01*
X136474200Y-89484200D02*
X134721600Y-89484200D01*
X148336000Y-81991400D02*
X148336000Y-83362800D01*
X136591548Y-90271600D02*
X136591548Y-89601548D01*
%TO.N,STATUS_G*%
X154533600Y-83134400D02*
X154533600Y-84353400D01*
X142688437Y-92421837D02*
X143459200Y-93192600D01*
X148136314Y-90220800D02*
X149174200Y-90220800D01*
X154533600Y-84353400D02*
X154152600Y-84734400D01*
X143459200Y-93192600D02*
X145164514Y-93192600D01*
X140242163Y-92421837D02*
X142688437Y-92421837D01*
X145164514Y-93192600D02*
X148136314Y-90220800D01*
%TO.N,STATUS_R*%
X149987000Y-83515200D02*
X149987000Y-84124800D01*
X143341974Y-93573600D02*
X145719800Y-93573600D01*
X142690337Y-92921963D02*
X143341974Y-93573600D01*
X148945600Y-81284600D02*
X148945600Y-82473800D01*
X149102800Y-81127400D02*
X148945600Y-81284600D01*
X149580600Y-81127400D02*
X149102800Y-81127400D01*
X140242163Y-92921963D02*
X142690337Y-92921963D01*
X145719800Y-93573600D02*
X147142200Y-92151200D01*
X148945600Y-82473800D02*
X149987000Y-83515200D01*
%TO.N,~{FLASH_SS}*%
X142455900Y-83807300D02*
X144475200Y-81788000D01*
X132792089Y-91921711D02*
X132461000Y-92227400D01*
X142455900Y-85191600D02*
X143764000Y-85191600D01*
X135441563Y-91921711D02*
X132792089Y-91921711D01*
X145338800Y-86766400D02*
X145338800Y-89814400D01*
X142455900Y-85191600D02*
X142455900Y-83807300D01*
X143764000Y-85191600D02*
X145338800Y-86766400D01*
X144475200Y-81788000D02*
X145211800Y-81788000D01*
%TO.N,USB_DETECT*%
X139115800Y-99187000D02*
X139293600Y-99009200D01*
X137236200Y-98323400D02*
X137591800Y-97967800D01*
X139877600Y-99567800D02*
X140004800Y-99695000D01*
X140614400Y-99695000D02*
X140004800Y-99695000D01*
X140868600Y-100431600D02*
X140868600Y-99949200D01*
X140868600Y-99949200D02*
X140614400Y-99695000D01*
X137591800Y-97967800D02*
X137591800Y-97637600D01*
X139115800Y-99771200D02*
X139115800Y-99187000D01*
X139293600Y-99009200D02*
X139801600Y-99009200D01*
X139877600Y-99060000D02*
X139877600Y-99567800D01*
X137591800Y-95072200D02*
X137591800Y-97637600D01*
%TO.N,FLASH_SCK*%
X149745700Y-87731600D02*
X146380200Y-87731600D01*
X146329400Y-87680800D02*
X146329400Y-83261200D01*
X146380200Y-87731600D02*
X146329400Y-87680800D01*
X146329400Y-89128600D02*
X146329400Y-87680800D01*
X134068185Y-91421585D02*
X133731000Y-91084400D01*
X135441563Y-91421585D02*
X134068185Y-91421585D01*
%TO.N,~{SWITCH}*%
X134696200Y-88163400D02*
X133791574Y-88163400D01*
X126441400Y-94462600D02*
X129768600Y-94462600D01*
X137091674Y-89441274D02*
X136804400Y-89154000D01*
X129895600Y-94462600D02*
X131394200Y-92964000D01*
X130403600Y-96342200D02*
X130454400Y-96393000D01*
X133791574Y-88163400D02*
X131394200Y-90560774D01*
X135686800Y-89154000D02*
X134696200Y-88163400D01*
X130302000Y-96443800D02*
X129870200Y-96012000D01*
X130643200Y-96443800D02*
X130302000Y-96443800D01*
X137091674Y-90271600D02*
X137091674Y-89441274D01*
X131394200Y-90560774D02*
X131394200Y-92964000D01*
X129870200Y-96012000D02*
X129870200Y-94462600D01*
X136804400Y-89154000D02*
X135686800Y-89154000D01*
X129768600Y-94462600D02*
X129895600Y-94462600D01*
X129768600Y-94462600D02*
X129870200Y-94462600D01*
%TO.N,BP_SCL*%
X137091674Y-97070926D02*
X136271000Y-97891600D01*
X153314400Y-86690200D02*
X154000200Y-86690200D01*
X152349200Y-88366600D02*
X152349200Y-87655400D01*
X154335400Y-87020400D02*
X154461900Y-87146900D01*
X150698200Y-89967000D02*
X150698200Y-90398600D01*
X154330400Y-87020400D02*
X154335400Y-87020400D01*
X154000200Y-86690200D02*
X154330400Y-87020400D01*
X152349200Y-87655400D02*
X153314400Y-86690200D01*
X136271000Y-97891600D02*
X135839200Y-97891600D01*
X151790400Y-88925400D02*
X152349200Y-88366600D01*
X137091674Y-95072200D02*
X137091674Y-97070926D01*
X151663400Y-89001800D02*
X150698200Y-89967000D01*
%TO.N,BP_SDA*%
X136591548Y-96631252D02*
X136144000Y-97078800D01*
X152781000Y-88762500D02*
X152781000Y-91389400D01*
X153634100Y-87909400D02*
X152781000Y-88762500D01*
X153593800Y-91389400D02*
X152781000Y-91389400D01*
X152781000Y-91389400D02*
X148463200Y-91389400D01*
X153949400Y-87909400D02*
X153634100Y-87909400D01*
X136591548Y-95072200D02*
X136591548Y-96631252D01*
%TO.N,~{MAIN_CONT}*%
X110565800Y-88671000D02*
X111252000Y-89357200D01*
X123774200Y-87807800D02*
X126771400Y-90805000D01*
X110565800Y-87503000D02*
X110565800Y-88671000D01*
X143433800Y-92278200D02*
X143408400Y-92278200D01*
X143510000Y-92303600D02*
X143433800Y-92278200D01*
X143154400Y-92278200D02*
X143383000Y-92278200D01*
X120167400Y-84886800D02*
X120929400Y-84124800D01*
X123774200Y-84861400D02*
X123774200Y-87807800D01*
X143383000Y-92278200D02*
X143510000Y-92303600D01*
X123037600Y-84124800D02*
X123774200Y-84861400D01*
X118313200Y-89357200D02*
X120167400Y-87503000D01*
X111252000Y-89357200D02*
X118313200Y-89357200D01*
X120929400Y-84124800D02*
X123037600Y-84124800D01*
X126771400Y-90805000D02*
X128498600Y-90805000D01*
X140242163Y-91921711D02*
X142797911Y-91921711D01*
X142797911Y-91921711D02*
X143154400Y-92278200D01*
X120167400Y-87503000D02*
X120167400Y-84886800D01*
%TO.N,~{DROGUE_CONT}*%
X112511799Y-90144600D02*
X113157000Y-90144600D01*
X111226600Y-98094800D02*
X110540800Y-97409000D01*
X113258600Y-90144600D02*
X119024400Y-90144600D01*
X140741400Y-97231200D02*
X139877800Y-98094800D01*
X113207800Y-90093800D02*
X113258600Y-90144600D01*
X140741400Y-95885000D02*
X140741400Y-97231200D01*
X113157000Y-90144600D02*
X113207800Y-90093800D01*
X111251800Y-98094800D02*
X111226600Y-98094800D01*
X140242163Y-94422341D02*
X140242163Y-95385763D01*
X110540800Y-92115599D02*
X112511799Y-90144600D01*
X140242163Y-95385763D02*
X140741400Y-95885000D01*
X110540800Y-97409000D02*
X110540800Y-92115599D01*
X119024400Y-90144600D02*
X119303800Y-90424000D01*
%TO.N,FLASH_MISO*%
X144526000Y-91694000D02*
X145211800Y-92379800D01*
X142938500Y-86461600D02*
X144526000Y-88049100D01*
X142455900Y-86461600D02*
X142938500Y-86461600D01*
X134052437Y-92921963D02*
X133705600Y-93294200D01*
X135441563Y-92921963D02*
X134052437Y-92921963D01*
X144526000Y-88049100D02*
X144526000Y-91694000D01*
%TO.N,FLASH_MOSI*%
X145211800Y-91313000D02*
X147523200Y-89001600D01*
X135441563Y-92421837D02*
X133434963Y-92421837D01*
X147523200Y-89001600D02*
X148361400Y-89001600D01*
X149745700Y-89001600D02*
X148361400Y-89001600D01*
X133434963Y-92421837D02*
X132689600Y-93167200D01*
%TO.N,VBAT_SENSE*%
X135931026Y-88823800D02*
X134838826Y-87731600D01*
X137388600Y-88823800D02*
X135931026Y-88823800D01*
X130911600Y-89509600D02*
X130683000Y-89738200D01*
X133756400Y-87731600D02*
X131978400Y-89509600D01*
X134838826Y-87731600D02*
X133756400Y-87731600D01*
X137591800Y-89027000D02*
X137388600Y-88823800D01*
X137591800Y-90271600D02*
X137591800Y-89027000D01*
X130530800Y-89865200D02*
X130530800Y-91186200D01*
X131978400Y-89509600D02*
X130911600Y-89509600D01*
X130530800Y-91186200D02*
X130556000Y-91211400D01*
D43*
%TO.N,Net-(P4A-6)*%
X117652800Y-93802200D02*
X113106200Y-93802200D01*
D44*
X118612801Y-99568000D02*
X116174401Y-97129600D01*
X113639600Y-97129600D02*
X113106200Y-96596200D01*
D43*
X112065000Y-96596200D02*
X113106200Y-96596200D01*
D44*
X113106200Y-93802200D02*
X113106200Y-96596200D01*
D43*
X118679999Y-92775001D02*
X117652800Y-93802200D01*
D44*
X113106200Y-93040200D02*
X113106200Y-93802200D01*
X116174401Y-97129600D02*
X113639600Y-97129600D01*
D43*
X118679999Y-92517801D02*
X118679999Y-92775001D01*
D44*
%TO.N,Net-(P1A-6)*%
X120954800Y-86487000D02*
X121945400Y-85496400D01*
D45*
X123774200Y-94538800D02*
X125095000Y-93218000D01*
D44*
X122218450Y-92517001D02*
X121828601Y-92517001D01*
D45*
X120116800Y-94538800D02*
X122250200Y-94538800D01*
X122250200Y-94538800D02*
X123774200Y-94538800D01*
X125095000Y-93218000D02*
X127812800Y-93218000D01*
D44*
X121828601Y-92517001D02*
X120954800Y-91643200D01*
X120954800Y-91643200D02*
X120954800Y-86487000D01*
D45*
X122250200Y-94538800D02*
X122250200Y-92532200D01*
D44*
%TO.N,Net-(P1B-6)*%
X114967398Y-85372600D02*
X113585600Y-85372600D01*
X113585600Y-85372600D02*
X112623600Y-86334600D01*
X110478400Y-86334600D02*
X109310000Y-87503000D01*
X112623600Y-86334600D02*
X110478400Y-86334600D01*
X109310000Y-87503000D02*
X108407200Y-87503000D01*
%TD*%
M02*
