%TF.GenerationSoftware,KiCad,Pcbnew,7.0.1*%
%TF.CreationDate,2023-05-27T07:40:04-07:00*%
%TF.ProjectId,Base-Flight-Computer-Test,42617365-2d46-46c6-9967-68742d436f6d,rev?*%
%TF.SameCoordinates,Original*%
%TF.FileFunction,Copper,L3,Inr*%
%TF.FilePolarity,Positive*%
%FSLAX46Y46*%
G04 Gerber Fmt 4.6, Leading zero omitted, Abs format (unit mm)*
G04 Created by KiCad (PCBNEW 7.0.1) date 2023-05-27 07:40:04*
%MOMM*%
%LPD*%
G01*
G04 APERTURE LIST*
%TA.AperFunction,ComponentPad*%
%ADD10O,1.300000X1.016000*%
%TD*%
%TA.AperFunction,ComponentPad*%
%ADD11O,1.016000X1.778000*%
%TD*%
%TA.AperFunction,ComponentPad*%
%ADD12C,5.588000*%
%TD*%
%TA.AperFunction,ComponentPad*%
%ADD13O,1.016000X2.032000*%
%TD*%
%TA.AperFunction,ComponentPad*%
%ADD14C,1.408000*%
%TD*%
%TA.AperFunction,ComponentPad*%
%ADD15C,1.320800*%
%TD*%
%TA.AperFunction,ComponentPad*%
%ADD16C,1.727200*%
%TD*%
%TA.AperFunction,ViaPad*%
%ADD17C,0.600000*%
%TD*%
%TA.AperFunction,ViaPad*%
%ADD18C,1.000000*%
%TD*%
%TA.AperFunction,Conductor*%
%ADD19C,0.177800*%
%TD*%
G04 APERTURE END LIST*
D10*
%TO.N,Earth*%
%TO.C,P2*%
X131454400Y-100525600D03*
X136454400Y-100525600D03*
D11*
X130454400Y-103225600D03*
X137454400Y-103225600D03*
%TD*%
D12*
%TO.N,Earth*%
%TO.C,H4*%
X109448600Y-102108000D03*
%TD*%
D13*
%TO.N,3.3V*%
%TO.C,P3*%
X135178000Y-82365000D03*
%TO.N,SWDIO*%
X136428000Y-82365000D03*
%TO.N,SWCLK*%
X137678000Y-82365000D03*
%TO.N,SWO*%
X138928000Y-82365000D03*
%TO.N,NRST*%
X140178000Y-82365000D03*
%TO.N,Earth*%
X141428000Y-82365000D03*
%TD*%
D14*
%TO.N,VIN*%
%TO.C,BZ1*%
X144703800Y-97561400D03*
%TO.N,Net-(BZ1-+)*%
X152303800Y-97561400D03*
%TD*%
D15*
%TO.N,Earth*%
%TO.C,P5*%
X108508800Y-92837001D03*
%TO.N,Net-(P5-6)*%
X108508800Y-90836999D03*
%TD*%
D12*
%TO.N,Earth*%
%TO.C,H3*%
X159004000Y-102108000D03*
%TD*%
D16*
%TO.N,VIN_SW*%
%TO.C,P1*%
X125467400Y-85372600D03*
%TO.N,Net-(P1A-6)*%
X121967399Y-85372600D03*
%TO.N,Earth*%
X118467399Y-85372600D03*
%TO.N,Net-(P1B-6)*%
X114967398Y-85372600D03*
%TD*%
D12*
%TO.N,Earth*%
%TO.C,H1*%
X159004000Y-82931000D03*
%TD*%
D16*
%TO.N,VIN_SW*%
%TO.C,P4*%
X115112800Y-99568000D03*
%TO.N,Net-(P4A-6)*%
X118612801Y-99568000D03*
%TO.N,VIN*%
X122112801Y-99568000D03*
%TO.N,VIN_SW*%
X125612802Y-99568000D03*
%TD*%
D12*
%TO.N,Earth*%
%TO.C,H2*%
X109448600Y-82931000D03*
%TD*%
D17*
%TO.N,Earth*%
X123520200Y-91592400D03*
%TO.N,3.3V*%
X147548600Y-85191600D03*
%TO.N,Earth*%
X154736800Y-87909400D03*
X141147800Y-97891600D03*
X139115800Y-93929200D03*
X139115800Y-92659200D03*
X140690600Y-86156800D03*
X139141200Y-85318600D03*
X136677400Y-91414600D03*
X113969800Y-92075000D03*
X136652000Y-92710000D03*
X137896600Y-93929200D03*
X137845800Y-91414600D03*
X145186400Y-84429600D03*
X136702800Y-93954600D03*
X117779800Y-91617800D03*
D18*
X133045200Y-83820000D03*
D17*
X151028400Y-85725000D03*
X137871200Y-92684600D03*
X139090400Y-91440000D03*
%TO.N,3.3V*%
X127812800Y-83769200D03*
X134493000Y-98094800D03*
X154406600Y-89611200D03*
X131648200Y-93751400D03*
X114833400Y-88569800D03*
X154203400Y-85928200D03*
X143764000Y-88366600D03*
D18*
X115824000Y-98094800D03*
D17*
X151079200Y-80619600D03*
D18*
%TO.N,VIN*%
X133934200Y-85267800D03*
X127406400Y-103682800D03*
X109143800Y-98018600D03*
D17*
%TO.N,DROGUE*%
X134594600Y-90398600D03*
X114122200Y-92989400D03*
%TO.N,MAIN*%
X123621800Y-93649800D03*
X133400800Y-89941400D03*
%TO.N,BOOT*%
X144373600Y-92608400D03*
X149504400Y-94004907D03*
X158496000Y-93980000D03*
%TO.N,SWDIO*%
X139369800Y-97307400D03*
%TO.N,SWCLK*%
X140055600Y-96393000D03*
%TO.N,SWO*%
X142069185Y-93922215D03*
%TO.N,STATUS_B*%
X134289800Y-89052400D03*
X149148800Y-83540600D03*
%TO.N,STATUS_G*%
X149174200Y-90220800D03*
X154152600Y-84734400D03*
%TO.N,STATUS_R*%
X149987000Y-84124800D03*
X147142200Y-92151200D03*
%TO.N,~{FLASH_SS}*%
X132461000Y-92227400D03*
X145338800Y-89814400D03*
%TO.N,USB_DETECT*%
X139115800Y-99771200D03*
X137236200Y-98323400D03*
%TO.N,FLASH_SCK*%
X133731000Y-91084400D03*
X146329400Y-89128600D03*
%TO.N,BP_SCL*%
X135839200Y-97891600D03*
X150698200Y-90398600D03*
%TO.N,BP_SDA*%
X136144000Y-97078800D03*
X148463000Y-91389200D03*
%TO.N,~{MAIN_CONT}*%
X125653800Y-89636600D03*
X143510000Y-92303600D03*
%TO.N,~{DROGUE_CONT}*%
X113207800Y-90093800D03*
X139877800Y-98094800D03*
%TO.N,FLASH_MISO*%
X133705600Y-93294200D03*
X145211800Y-92379800D03*
%TO.N,FLASH_MOSI*%
X145211800Y-91313000D03*
X132689600Y-93167200D03*
%TD*%
D19*
%TO.N,BOOT*%
X145770107Y-94004907D02*
X149504400Y-94004907D01*
X144373600Y-92608400D02*
X145770107Y-94004907D01*
%TO.N,STATUS_B*%
X134289800Y-89052400D02*
X136017000Y-87325200D01*
X136017000Y-87325200D02*
X143941800Y-87325200D01*
X143941800Y-87325200D02*
X147726400Y-83540600D01*
X147726400Y-83540600D02*
X149148800Y-83540600D01*
%TO.N,~{FLASH_SS}*%
X142824200Y-89458800D02*
X136299914Y-89458800D01*
X143179800Y-89814400D02*
X142824200Y-89458800D01*
X145338800Y-89814400D02*
X143179800Y-89814400D01*
X136299914Y-89458800D02*
X133531314Y-92227400D01*
X133531314Y-92227400D02*
X132461000Y-92227400D01*
%TO.N,FLASH_SCK*%
X146329400Y-89128600D02*
X135099086Y-89128600D01*
X135099086Y-89128600D02*
X133731000Y-90496686D01*
X133731000Y-90496686D02*
X133731000Y-91084400D01*
%TO.N,~{MAIN_CONT}*%
X143510000Y-92303600D02*
X140563600Y-92303600D01*
X140563600Y-92303600D02*
X139615900Y-93251300D01*
X136263100Y-93251300D02*
X135018500Y-94495900D01*
X135018500Y-94495900D02*
X130513100Y-94495900D01*
X130513100Y-94495900D02*
X125653800Y-89636600D01*
X139615900Y-93251300D02*
X136263100Y-93251300D01*
%TO.N,FLASH_MISO*%
X144475200Y-91643200D02*
X141173200Y-91643200D01*
X136321800Y-90678000D02*
X133705600Y-93294200D01*
X141173200Y-91643200D02*
X140208000Y-90678000D01*
X145211800Y-92379800D02*
X144475200Y-91643200D01*
X140208000Y-90678000D02*
X136321800Y-90678000D01*
%TO.N,FLASH_MOSI*%
X141630400Y-91313000D02*
X140106400Y-89789000D01*
X136436688Y-89789000D02*
X133058488Y-93167200D01*
X145211800Y-91313000D02*
X141630400Y-91313000D01*
X133058488Y-93167200D02*
X132689600Y-93167200D01*
X140106400Y-89789000D02*
X136436688Y-89789000D01*
%TD*%
%TA.AperFunction,Conductor*%
%TO.N,3.3V*%
G36*
X157240030Y-79922890D02*
G01*
X157285355Y-79967726D01*
X157302411Y-80029157D01*
X157286689Y-80090943D01*
X157242346Y-80136750D01*
X157147966Y-80193536D01*
X157147962Y-80193538D01*
X157147957Y-80193542D01*
X156976902Y-80323574D01*
X156862860Y-80410267D01*
X156602878Y-80656536D01*
X156371042Y-80929473D01*
X156170070Y-81225886D01*
X156002329Y-81542277D01*
X155869776Y-81874959D01*
X155773974Y-82220009D01*
X155716036Y-82573418D01*
X155696648Y-82931000D01*
X155716036Y-83288581D01*
X155716036Y-83288586D01*
X155716037Y-83288588D01*
X155723086Y-83331583D01*
X155773974Y-83641990D01*
X155869776Y-83987040D01*
X156002329Y-84319722D01*
X156167933Y-84632082D01*
X156170073Y-84636118D01*
X156201514Y-84682490D01*
X156371042Y-84932526D01*
X156602878Y-85205463D01*
X156862860Y-85451732D01*
X156862863Y-85451734D01*
X156862866Y-85451737D01*
X157147957Y-85668458D01*
X157454809Y-85853084D01*
X157779823Y-86003452D01*
X158001118Y-86078015D01*
X158119189Y-86117798D01*
X158182284Y-86131686D01*
X158468930Y-86194782D01*
X158790022Y-86229702D01*
X158824943Y-86233500D01*
X158824944Y-86233500D01*
X159183056Y-86233500D01*
X159183057Y-86233500D01*
X159214857Y-86230041D01*
X159539070Y-86194782D01*
X159888810Y-86117798D01*
X160228177Y-86003452D01*
X160553191Y-85853084D01*
X160860043Y-85668458D01*
X161145134Y-85451737D01*
X161405122Y-85205463D01*
X161636959Y-84932524D01*
X161801866Y-84689303D01*
X161848804Y-84648103D01*
X161909871Y-84635007D01*
X161969576Y-84653339D01*
X162012771Y-84698448D01*
X162028500Y-84758891D01*
X162028500Y-100280109D01*
X162012771Y-100340552D01*
X161969576Y-100385661D01*
X161909871Y-100403993D01*
X161848804Y-100390897D01*
X161801866Y-100349696D01*
X161636957Y-100106473D01*
X161405121Y-99833536D01*
X161145139Y-99587267D01*
X161145134Y-99587263D01*
X160860043Y-99370542D01*
X160860039Y-99370539D01*
X160860037Y-99370538D01*
X160553188Y-99185914D01*
X160228180Y-99035549D01*
X159888810Y-98921201D01*
X159602164Y-98858106D01*
X159539070Y-98844218D01*
X159312863Y-98819617D01*
X159183057Y-98805500D01*
X159183056Y-98805500D01*
X158824944Y-98805500D01*
X158824943Y-98805500D01*
X158468930Y-98844218D01*
X158119189Y-98921201D01*
X157779819Y-99035549D01*
X157454811Y-99185914D01*
X157147962Y-99370538D01*
X156862860Y-99587267D01*
X156602878Y-99833536D01*
X156371042Y-100106473D01*
X156170070Y-100402886D01*
X156002329Y-100719277D01*
X155869776Y-101051959D01*
X155773974Y-101397009D01*
X155716036Y-101750418D01*
X155696648Y-102108000D01*
X155716036Y-102465581D01*
X155773974Y-102818990D01*
X155869776Y-103164040D01*
X156002329Y-103496722D01*
X156170070Y-103813113D01*
X156371042Y-104109526D01*
X156602878Y-104382463D01*
X156862860Y-104628732D01*
X156862863Y-104628734D01*
X156862866Y-104628737D01*
X157147957Y-104845458D01*
X157207289Y-104881157D01*
X157242346Y-104902250D01*
X157286689Y-104948057D01*
X157302411Y-105009843D01*
X157285355Y-105071274D01*
X157240030Y-105116110D01*
X157178418Y-105132500D01*
X111274182Y-105132500D01*
X111212570Y-105116110D01*
X111167245Y-105071274D01*
X111150189Y-105009843D01*
X111165911Y-104948057D01*
X111210254Y-104902250D01*
X111234175Y-104887857D01*
X111304643Y-104845458D01*
X111589734Y-104628737D01*
X111849722Y-104382463D01*
X112081559Y-104109524D01*
X112282527Y-103813118D01*
X112351617Y-103682800D01*
X126393020Y-103682800D01*
X126412491Y-103880498D01*
X126412492Y-103880501D01*
X126470159Y-104070604D01*
X126563805Y-104245804D01*
X126689832Y-104399368D01*
X126843396Y-104525395D01*
X127018596Y-104619041D01*
X127208699Y-104676708D01*
X127406400Y-104696180D01*
X127604101Y-104676708D01*
X127794204Y-104619041D01*
X127969404Y-104525395D01*
X128122968Y-104399368D01*
X128248995Y-104245804D01*
X128342641Y-104070604D01*
X128400308Y-103880501D01*
X128419780Y-103682800D01*
X128417193Y-103656534D01*
X129437900Y-103656534D01*
X129452608Y-103805870D01*
X129510732Y-103997480D01*
X129549820Y-104070607D01*
X129605122Y-104174069D01*
X129654755Y-104234548D01*
X129732147Y-104328852D01*
X129797474Y-104382463D01*
X129886931Y-104455878D01*
X129975225Y-104503072D01*
X130063519Y-104550267D01*
X130146953Y-104575576D01*
X130255131Y-104608392D01*
X130454400Y-104628018D01*
X130653669Y-104608392D01*
X130845280Y-104550267D01*
X131021869Y-104455878D01*
X131176652Y-104328852D01*
X131303678Y-104174069D01*
X131398067Y-103997480D01*
X131456192Y-103805869D01*
X131470900Y-103656534D01*
X136437900Y-103656534D01*
X136452608Y-103805870D01*
X136510732Y-103997480D01*
X136549820Y-104070607D01*
X136605122Y-104174069D01*
X136654755Y-104234548D01*
X136732147Y-104328852D01*
X136797474Y-104382463D01*
X136886931Y-104455878D01*
X136975225Y-104503072D01*
X137063519Y-104550267D01*
X137146953Y-104575576D01*
X137255131Y-104608392D01*
X137454400Y-104628018D01*
X137653669Y-104608392D01*
X137845280Y-104550267D01*
X138021869Y-104455878D01*
X138176652Y-104328852D01*
X138303678Y-104174069D01*
X138398067Y-103997480D01*
X138456192Y-103805869D01*
X138470900Y-103656534D01*
X138470900Y-102794666D01*
X138456192Y-102645331D01*
X138398067Y-102453720D01*
X138398067Y-102453719D01*
X138350872Y-102365425D01*
X138303678Y-102277131D01*
X138240164Y-102199739D01*
X138176652Y-102122347D01*
X138082348Y-102044955D01*
X138021869Y-101995322D01*
X138010465Y-101989226D01*
X137845280Y-101900932D01*
X137653670Y-101842808D01*
X137454400Y-101823182D01*
X137255129Y-101842808D01*
X137063519Y-101900932D01*
X136886932Y-101995321D01*
X136732147Y-102122347D01*
X136605121Y-102277132D01*
X136510732Y-102453719D01*
X136452608Y-102645329D01*
X136437900Y-102794666D01*
X136437900Y-103656534D01*
X131470900Y-103656534D01*
X131470900Y-102794666D01*
X131456192Y-102645331D01*
X131398067Y-102453720D01*
X131398067Y-102453719D01*
X131350872Y-102365425D01*
X131303678Y-102277131D01*
X131240164Y-102199739D01*
X131176652Y-102122347D01*
X131082348Y-102044955D01*
X131021869Y-101995322D01*
X131010465Y-101989226D01*
X130845280Y-101900932D01*
X130653670Y-101842808D01*
X130454400Y-101823182D01*
X130255129Y-101842808D01*
X130063519Y-101900932D01*
X129886932Y-101995321D01*
X129732147Y-102122347D01*
X129605121Y-102277132D01*
X129510732Y-102453719D01*
X129452608Y-102645329D01*
X129437900Y-102794666D01*
X129437900Y-103656534D01*
X128417193Y-103656534D01*
X128400308Y-103485099D01*
X128342641Y-103294996D01*
X128248995Y-103119796D01*
X128122968Y-102966232D01*
X127969404Y-102840205D01*
X127969403Y-102840204D01*
X127874790Y-102789633D01*
X127794204Y-102746559D01*
X127604101Y-102688892D01*
X127604098Y-102688891D01*
X127406400Y-102669420D01*
X127208701Y-102688891D01*
X127145331Y-102708114D01*
X127018596Y-102746559D01*
X127018592Y-102746560D01*
X127018592Y-102746561D01*
X126843396Y-102840204D01*
X126689832Y-102966232D01*
X126563804Y-103119796D01*
X126470161Y-103294992D01*
X126470159Y-103294996D01*
X126431714Y-103421731D01*
X126412491Y-103485101D01*
X126393020Y-103682800D01*
X112351617Y-103682800D01*
X112374968Y-103638754D01*
X112450270Y-103496722D01*
X112582823Y-103164040D01*
X112678625Y-102818990D01*
X112678624Y-102818990D01*
X112678627Y-102818983D01*
X112736563Y-102465588D01*
X112755951Y-102108000D01*
X112736563Y-101750412D01*
X112678627Y-101397017D01*
X112637212Y-101247852D01*
X112582823Y-101051959D01*
X112450270Y-100719277D01*
X112282529Y-100402886D01*
X112282527Y-100402882D01*
X112081559Y-100106476D01*
X112081557Y-100106473D01*
X111849721Y-99833536D01*
X111589739Y-99587267D01*
X111589734Y-99587263D01*
X111564394Y-99568000D01*
X113735997Y-99568000D01*
X113754775Y-99794609D01*
X113754775Y-99794612D01*
X113754776Y-99794614D01*
X113764633Y-99833537D01*
X113810597Y-100015048D01*
X113901939Y-100223285D01*
X114026310Y-100413649D01*
X114180317Y-100580946D01*
X114359761Y-100720612D01*
X114559745Y-100828839D01*
X114696879Y-100875916D01*
X114774811Y-100902671D01*
X114774813Y-100902671D01*
X114774815Y-100902672D01*
X114999105Y-100940100D01*
X115226494Y-100940100D01*
X115226495Y-100940100D01*
X115450785Y-100902672D01*
X115665855Y-100828839D01*
X115865839Y-100720612D01*
X116045283Y-100580946D01*
X116199290Y-100413649D01*
X116323661Y-100223285D01*
X116415003Y-100015047D01*
X116470824Y-99794614D01*
X116489602Y-99568000D01*
X117235998Y-99568000D01*
X117254776Y-99794609D01*
X117254776Y-99794612D01*
X117254777Y-99794614D01*
X117264634Y-99833537D01*
X117310598Y-100015048D01*
X117401940Y-100223285D01*
X117526311Y-100413649D01*
X117680318Y-100580946D01*
X117859762Y-100720612D01*
X118059746Y-100828839D01*
X118196880Y-100875916D01*
X118274812Y-100902671D01*
X118274814Y-100902671D01*
X118274816Y-100902672D01*
X118499106Y-100940100D01*
X118726495Y-100940100D01*
X118726496Y-100940100D01*
X118950786Y-100902672D01*
X119165856Y-100828839D01*
X119365840Y-100720612D01*
X119545284Y-100580946D01*
X119699291Y-100413649D01*
X119823662Y-100223285D01*
X119915004Y-100015047D01*
X119970825Y-99794614D01*
X119989603Y-99568000D01*
X120735998Y-99568000D01*
X120754776Y-99794609D01*
X120754776Y-99794612D01*
X120754777Y-99794614D01*
X120764634Y-99833537D01*
X120810598Y-100015048D01*
X120901940Y-100223285D01*
X121026311Y-100413649D01*
X121180318Y-100580946D01*
X121359762Y-100720612D01*
X121559746Y-100828839D01*
X121696880Y-100875916D01*
X121774812Y-100902671D01*
X121774814Y-100902671D01*
X121774816Y-100902672D01*
X121999106Y-100940100D01*
X122226495Y-100940100D01*
X122226496Y-100940100D01*
X122450786Y-100902672D01*
X122665856Y-100828839D01*
X122865840Y-100720612D01*
X123045284Y-100580946D01*
X123199291Y-100413649D01*
X123323662Y-100223285D01*
X123415004Y-100015047D01*
X123470825Y-99794614D01*
X123489603Y-99568000D01*
X124235999Y-99568000D01*
X124254777Y-99794609D01*
X124254777Y-99794612D01*
X124254778Y-99794614D01*
X124264635Y-99833537D01*
X124310599Y-100015048D01*
X124401941Y-100223285D01*
X124526312Y-100413649D01*
X124680319Y-100580946D01*
X124859763Y-100720612D01*
X125059747Y-100828839D01*
X125196881Y-100875916D01*
X125274813Y-100902671D01*
X125274815Y-100902671D01*
X125274817Y-100902672D01*
X125499107Y-100940100D01*
X125726496Y-100940100D01*
X125726497Y-100940100D01*
X125950787Y-100902672D01*
X126165857Y-100828839D01*
X126365841Y-100720612D01*
X126545285Y-100580946D01*
X126596235Y-100525599D01*
X130290982Y-100525599D01*
X130310608Y-100724870D01*
X130368732Y-100916480D01*
X130441148Y-101051959D01*
X130463122Y-101093069D01*
X130512755Y-101153548D01*
X130590147Y-101247852D01*
X130667539Y-101311365D01*
X130744931Y-101374878D01*
X130833225Y-101422072D01*
X130921519Y-101469267D01*
X131004953Y-101494576D01*
X131113131Y-101527392D01*
X131262466Y-101542100D01*
X131646334Y-101542100D01*
X131795669Y-101527392D01*
X131987280Y-101469267D01*
X132163869Y-101374878D01*
X132318652Y-101247852D01*
X132445678Y-101093069D01*
X132540067Y-100916480D01*
X132598192Y-100724869D01*
X132617818Y-100525600D01*
X132617818Y-100525599D01*
X135290982Y-100525599D01*
X135310608Y-100724870D01*
X135368732Y-100916480D01*
X135441148Y-101051959D01*
X135463122Y-101093069D01*
X135512755Y-101153548D01*
X135590147Y-101247852D01*
X135667539Y-101311365D01*
X135744931Y-101374878D01*
X135833225Y-101422072D01*
X135921519Y-101469267D01*
X136004953Y-101494576D01*
X136113131Y-101527392D01*
X136262466Y-101542100D01*
X136646334Y-101542100D01*
X136795669Y-101527392D01*
X136987280Y-101469267D01*
X137163869Y-101374878D01*
X137318652Y-101247852D01*
X137445678Y-101093069D01*
X137540067Y-100916480D01*
X137598192Y-100724869D01*
X137617818Y-100525600D01*
X137598192Y-100326331D01*
X137540067Y-100134720D01*
X137540067Y-100134719D01*
X137476100Y-100015047D01*
X137445678Y-99958131D01*
X137382165Y-99880739D01*
X137318652Y-99803347D01*
X137279479Y-99771199D01*
X138302183Y-99771199D01*
X138322582Y-99952244D01*
X138322582Y-99952246D01*
X138322583Y-99952247D01*
X138382757Y-100124215D01*
X138479689Y-100278481D01*
X138608519Y-100407311D01*
X138762785Y-100504243D01*
X138934753Y-100564417D01*
X139115800Y-100584816D01*
X139296847Y-100564417D01*
X139468815Y-100504243D01*
X139623081Y-100407311D01*
X139751911Y-100278481D01*
X139848843Y-100124215D01*
X139909017Y-99952247D01*
X139929416Y-99771200D01*
X139909017Y-99590153D01*
X139848843Y-99418185D01*
X139751911Y-99263919D01*
X139623081Y-99135089D01*
X139574948Y-99104845D01*
X139533535Y-99061853D01*
X139517009Y-99004490D01*
X139529202Y-98946051D01*
X139567288Y-98900083D01*
X139622441Y-98877238D01*
X139681874Y-98882810D01*
X139696753Y-98888017D01*
X139877800Y-98908416D01*
X140058847Y-98888017D01*
X140230815Y-98827843D01*
X140385081Y-98730911D01*
X140513911Y-98602081D01*
X140517277Y-98596723D01*
X140564329Y-98553063D01*
X140626909Y-98538779D01*
X140688243Y-98557698D01*
X140771899Y-98610263D01*
X140780181Y-98615467D01*
X140794785Y-98624643D01*
X140966753Y-98684817D01*
X141147800Y-98705216D01*
X141328847Y-98684817D01*
X141500815Y-98624643D01*
X141655081Y-98527711D01*
X141783911Y-98398881D01*
X141880843Y-98244615D01*
X141941017Y-98072647D01*
X141961416Y-97891600D01*
X141941017Y-97710553D01*
X141888826Y-97561400D01*
X143486667Y-97561400D01*
X143505158Y-97772750D01*
X143560070Y-97977685D01*
X143587535Y-98036582D01*
X143649733Y-98169966D01*
X143771423Y-98343757D01*
X143921443Y-98493777D01*
X144095234Y-98615467D01*
X144287516Y-98705130D01*
X144492447Y-98760041D01*
X144703800Y-98778532D01*
X144915153Y-98760041D01*
X145120084Y-98705130D01*
X145312366Y-98615467D01*
X145486157Y-98493777D01*
X145636177Y-98343757D01*
X145757867Y-98169966D01*
X145847530Y-97977684D01*
X145902441Y-97772753D01*
X145920932Y-97561400D01*
X151086667Y-97561400D01*
X151105158Y-97772750D01*
X151160070Y-97977685D01*
X151187535Y-98036582D01*
X151249733Y-98169966D01*
X151371423Y-98343757D01*
X151521443Y-98493777D01*
X151695234Y-98615467D01*
X151887516Y-98705130D01*
X152092447Y-98760041D01*
X152303800Y-98778532D01*
X152515153Y-98760041D01*
X152720084Y-98705130D01*
X152912366Y-98615467D01*
X153086157Y-98493777D01*
X153236177Y-98343757D01*
X153357867Y-98169966D01*
X153447530Y-97977684D01*
X153502441Y-97772753D01*
X153520932Y-97561400D01*
X153502441Y-97350047D01*
X153447530Y-97145116D01*
X153357867Y-96952834D01*
X153236177Y-96779043D01*
X153086157Y-96629023D01*
X152912366Y-96507333D01*
X152785646Y-96448242D01*
X152720085Y-96417670D01*
X152515150Y-96362758D01*
X152303800Y-96344267D01*
X152092449Y-96362758D01*
X151887514Y-96417670D01*
X151695236Y-96507332D01*
X151695234Y-96507333D01*
X151670966Y-96524326D01*
X151521439Y-96629026D01*
X151371426Y-96779039D01*
X151371423Y-96779042D01*
X151371423Y-96779043D01*
X151286533Y-96900279D01*
X151249732Y-96952836D01*
X151160070Y-97145114D01*
X151105158Y-97350049D01*
X151086667Y-97561400D01*
X145920932Y-97561400D01*
X145902441Y-97350047D01*
X145847530Y-97145116D01*
X145757867Y-96952834D01*
X145636177Y-96779043D01*
X145486157Y-96629023D01*
X145312366Y-96507333D01*
X145185646Y-96448242D01*
X145120085Y-96417670D01*
X144915150Y-96362758D01*
X144703800Y-96344267D01*
X144492449Y-96362758D01*
X144287514Y-96417670D01*
X144095236Y-96507332D01*
X144095234Y-96507333D01*
X144070966Y-96524326D01*
X143921439Y-96629026D01*
X143771426Y-96779039D01*
X143771423Y-96779042D01*
X143771423Y-96779043D01*
X143686533Y-96900279D01*
X143649732Y-96952836D01*
X143560070Y-97145114D01*
X143505158Y-97350049D01*
X143486667Y-97561400D01*
X141888826Y-97561400D01*
X141880843Y-97538585D01*
X141783911Y-97384319D01*
X141655081Y-97255489D01*
X141500815Y-97158557D01*
X141328847Y-97098383D01*
X141328846Y-97098382D01*
X141328844Y-97098382D01*
X141147800Y-97077983D01*
X140966755Y-97098382D01*
X140794782Y-97158558D01*
X140754363Y-97183955D01*
X140697658Y-97202614D01*
X140638805Y-97192614D01*
X140636385Y-97190757D01*
X140633498Y-97242187D01*
X140602689Y-97293319D01*
X140511689Y-97384319D01*
X140508319Y-97389683D01*
X140461266Y-97433339D01*
X140398689Y-97447620D01*
X140337354Y-97428700D01*
X140271480Y-97387308D01*
X140225733Y-97336116D01*
X140214233Y-97268431D01*
X140240506Y-97205002D01*
X140296496Y-97165274D01*
X140408615Y-97126043D01*
X140449038Y-97100643D01*
X140505739Y-97081985D01*
X140564592Y-97091984D01*
X140567012Y-97093841D01*
X140569901Y-97042411D01*
X140600707Y-96991284D01*
X140691711Y-96900281D01*
X140788643Y-96746015D01*
X140848817Y-96574047D01*
X140869216Y-96393000D01*
X140848817Y-96211953D01*
X140788643Y-96039985D01*
X140691711Y-95885719D01*
X140562881Y-95756889D01*
X140408615Y-95659957D01*
X140236647Y-95599783D01*
X140236646Y-95599782D01*
X140236644Y-95599782D01*
X140055600Y-95579383D01*
X139874555Y-95599782D01*
X139702584Y-95659957D01*
X139548317Y-95756890D01*
X139419490Y-95885717D01*
X139322557Y-96039984D01*
X139262382Y-96211955D01*
X139241983Y-96393000D01*
X139242029Y-96393406D01*
X139235849Y-96448242D01*
X139206488Y-96494967D01*
X139159763Y-96524326D01*
X139016787Y-96574355D01*
X138862517Y-96671290D01*
X138733690Y-96800117D01*
X138636757Y-96954384D01*
X138576582Y-97126355D01*
X138556183Y-97307400D01*
X138576582Y-97488444D01*
X138576582Y-97488446D01*
X138576583Y-97488447D01*
X138636757Y-97660415D01*
X138733689Y-97814681D01*
X138862519Y-97943511D01*
X139010642Y-98036583D01*
X139049663Y-98075604D01*
X139067889Y-98127692D01*
X139084582Y-98275844D01*
X139084582Y-98275846D01*
X139084583Y-98275847D01*
X139144757Y-98447815D01*
X139241689Y-98602081D01*
X139370519Y-98730911D01*
X139418651Y-98761154D01*
X139460064Y-98804145D01*
X139476590Y-98861508D01*
X139464398Y-98919946D01*
X139426312Y-98965915D01*
X139371160Y-98988761D01*
X139311725Y-98983188D01*
X139296848Y-98977982D01*
X139115800Y-98957583D01*
X138934755Y-98977982D01*
X138762784Y-99038157D01*
X138608517Y-99135090D01*
X138479690Y-99263917D01*
X138382757Y-99418184D01*
X138322582Y-99590155D01*
X138302183Y-99771199D01*
X137279479Y-99771199D01*
X137224348Y-99725955D01*
X137163869Y-99676322D01*
X137152465Y-99670226D01*
X136987280Y-99581932D01*
X136795670Y-99523808D01*
X136646334Y-99509100D01*
X136262466Y-99509100D01*
X136113129Y-99523808D01*
X135921519Y-99581932D01*
X135744932Y-99676321D01*
X135590147Y-99803347D01*
X135463121Y-99958132D01*
X135368732Y-100134719D01*
X135310608Y-100326329D01*
X135290982Y-100525599D01*
X132617818Y-100525599D01*
X132598192Y-100326331D01*
X132540067Y-100134720D01*
X132540067Y-100134719D01*
X132476100Y-100015047D01*
X132445678Y-99958131D01*
X132382165Y-99880739D01*
X132318652Y-99803347D01*
X132224348Y-99725955D01*
X132163869Y-99676322D01*
X132152465Y-99670226D01*
X131987280Y-99581932D01*
X131795670Y-99523808D01*
X131646334Y-99509100D01*
X131262466Y-99509100D01*
X131113129Y-99523808D01*
X130921519Y-99581932D01*
X130744932Y-99676321D01*
X130590147Y-99803347D01*
X130463121Y-99958132D01*
X130368732Y-100134719D01*
X130310608Y-100326329D01*
X130290982Y-100525599D01*
X126596235Y-100525599D01*
X126699292Y-100413649D01*
X126823663Y-100223285D01*
X126915005Y-100015047D01*
X126970826Y-99794614D01*
X126989604Y-99568000D01*
X126970826Y-99341386D01*
X126915005Y-99120953D01*
X126823663Y-98912715D01*
X126699292Y-98722351D01*
X126545285Y-98555054D01*
X126365841Y-98415388D01*
X126165857Y-98307161D01*
X125950790Y-98233328D01*
X125782569Y-98205256D01*
X125726497Y-98195900D01*
X125499107Y-98195900D01*
X125454248Y-98203385D01*
X125274813Y-98233328D01*
X125059746Y-98307161D01*
X124859766Y-98415386D01*
X124680318Y-98555054D01*
X124526311Y-98722352D01*
X124401941Y-98912714D01*
X124310599Y-99120951D01*
X124254777Y-99341390D01*
X124235999Y-99568000D01*
X123489603Y-99568000D01*
X123470825Y-99341386D01*
X123415004Y-99120953D01*
X123323662Y-98912715D01*
X123199291Y-98722351D01*
X123045284Y-98555054D01*
X122865840Y-98415388D01*
X122665856Y-98307161D01*
X122450789Y-98233328D01*
X122282568Y-98205256D01*
X122226496Y-98195900D01*
X121999106Y-98195900D01*
X121954247Y-98203385D01*
X121774812Y-98233328D01*
X121559745Y-98307161D01*
X121359765Y-98415386D01*
X121180317Y-98555054D01*
X121026310Y-98722352D01*
X120901940Y-98912714D01*
X120810598Y-99120951D01*
X120754776Y-99341390D01*
X120735998Y-99568000D01*
X119989603Y-99568000D01*
X119970825Y-99341386D01*
X119915004Y-99120953D01*
X119823662Y-98912715D01*
X119699291Y-98722351D01*
X119545284Y-98555054D01*
X119365840Y-98415388D01*
X119165856Y-98307161D01*
X118950789Y-98233328D01*
X118782568Y-98205256D01*
X118726496Y-98195900D01*
X118499106Y-98195900D01*
X118454247Y-98203385D01*
X118274812Y-98233328D01*
X118059745Y-98307161D01*
X117859765Y-98415386D01*
X117680317Y-98555054D01*
X117526310Y-98722352D01*
X117401940Y-98912714D01*
X117310598Y-99120951D01*
X117254776Y-99341390D01*
X117235998Y-99568000D01*
X116489602Y-99568000D01*
X116470824Y-99341386D01*
X116415003Y-99120953D01*
X116323661Y-98912715D01*
X116199290Y-98722351D01*
X116045283Y-98555054D01*
X115865839Y-98415388D01*
X115665855Y-98307161D01*
X115450788Y-98233328D01*
X115282567Y-98205256D01*
X115226495Y-98195900D01*
X114999105Y-98195900D01*
X114954246Y-98203385D01*
X114774811Y-98233328D01*
X114559744Y-98307161D01*
X114359764Y-98415386D01*
X114180316Y-98555054D01*
X114026309Y-98722352D01*
X113901939Y-98912714D01*
X113810597Y-99120951D01*
X113754775Y-99341390D01*
X113735997Y-99568000D01*
X111564394Y-99568000D01*
X111304643Y-99370542D01*
X111304639Y-99370539D01*
X111304637Y-99370538D01*
X110997788Y-99185914D01*
X110672780Y-99035549D01*
X110333410Y-98921201D01*
X110090750Y-98867788D01*
X110000898Y-98848010D01*
X109945141Y-98819559D01*
X109910386Y-98767496D01*
X109905491Y-98705090D01*
X109931700Y-98648249D01*
X109986395Y-98581604D01*
X110080041Y-98406404D01*
X110137708Y-98216301D01*
X110157180Y-98018600D01*
X110144671Y-97891600D01*
X135025583Y-97891600D01*
X135045982Y-98072644D01*
X135045982Y-98072646D01*
X135045983Y-98072647D01*
X135106157Y-98244615D01*
X135203089Y-98398881D01*
X135331919Y-98527711D01*
X135486185Y-98624643D01*
X135658153Y-98684817D01*
X135839200Y-98705216D01*
X136020247Y-98684817D01*
X136192215Y-98624643D01*
X136300607Y-98556535D01*
X136352691Y-98538310D01*
X136407530Y-98544488D01*
X136454257Y-98573848D01*
X136483617Y-98620575D01*
X136503155Y-98676412D01*
X136503157Y-98676415D01*
X136600089Y-98830681D01*
X136728919Y-98959511D01*
X136883185Y-99056443D01*
X137055153Y-99116617D01*
X137236200Y-99137016D01*
X137417247Y-99116617D01*
X137589215Y-99056443D01*
X137743481Y-98959511D01*
X137872311Y-98830681D01*
X137969243Y-98676415D01*
X138029417Y-98504447D01*
X138049816Y-98323400D01*
X138029417Y-98142353D01*
X137969243Y-97970385D01*
X137872311Y-97816119D01*
X137743481Y-97687289D01*
X137589215Y-97590357D01*
X137417247Y-97530183D01*
X137417246Y-97530182D01*
X137417244Y-97530182D01*
X137236200Y-97509783D01*
X137041270Y-97531747D01*
X137041154Y-97530718D01*
X136987457Y-97533732D01*
X136927370Y-97500521D01*
X136894162Y-97440433D01*
X136898011Y-97371889D01*
X136937217Y-97259847D01*
X136957616Y-97078800D01*
X136937217Y-96897753D01*
X136877043Y-96725785D01*
X136780111Y-96571519D01*
X136651281Y-96442689D01*
X136497015Y-96345757D01*
X136325047Y-96285583D01*
X136325046Y-96285582D01*
X136325044Y-96285582D01*
X136144000Y-96265183D01*
X135962955Y-96285582D01*
X135790984Y-96345757D01*
X135636717Y-96442690D01*
X135507890Y-96571517D01*
X135410957Y-96725784D01*
X135350782Y-96897755D01*
X135330383Y-97078800D01*
X135341745Y-97179636D01*
X135335567Y-97234474D01*
X135306207Y-97281201D01*
X135203089Y-97384319D01*
X135106157Y-97538584D01*
X135045982Y-97710555D01*
X135025583Y-97891600D01*
X110144671Y-97891600D01*
X110137708Y-97820899D01*
X110080041Y-97630796D01*
X109986395Y-97455596D01*
X109860368Y-97302032D01*
X109716491Y-97183955D01*
X109706803Y-97176004D01*
X109612190Y-97125433D01*
X109531604Y-97082359D01*
X109341501Y-97024692D01*
X109341498Y-97024691D01*
X109143800Y-97005220D01*
X108946101Y-97024691D01*
X108887687Y-97042411D01*
X108755996Y-97082359D01*
X108755992Y-97082360D01*
X108755992Y-97082361D01*
X108580796Y-97176004D01*
X108427232Y-97302032D01*
X108301204Y-97455596D01*
X108229174Y-97590357D01*
X108207559Y-97630796D01*
X108182043Y-97714911D01*
X108149891Y-97820901D01*
X108130420Y-98018600D01*
X108149891Y-98216298D01*
X108149892Y-98216301D01*
X108207559Y-98406404D01*
X108229694Y-98447815D01*
X108288427Y-98557699D01*
X108301205Y-98581604D01*
X108427232Y-98735168D01*
X108454744Y-98757747D01*
X108492509Y-98810937D01*
X108498051Y-98875935D01*
X108469836Y-98934751D01*
X108415673Y-98971108D01*
X108224417Y-99035550D01*
X107899411Y-99185914D01*
X107592562Y-99370538D01*
X107307460Y-99587267D01*
X107047478Y-99833536D01*
X106815642Y-100106473D01*
X106650734Y-100349696D01*
X106603796Y-100390897D01*
X106542729Y-100403993D01*
X106483024Y-100385661D01*
X106439829Y-100340552D01*
X106424100Y-100280109D01*
X106424100Y-92837000D01*
X107334892Y-92837000D01*
X107354879Y-93052707D01*
X107414162Y-93261065D01*
X107510720Y-93454981D01*
X107641272Y-93627859D01*
X107801361Y-93773800D01*
X107927276Y-93851762D01*
X107985544Y-93887840D01*
X108187545Y-93966096D01*
X108400485Y-94005901D01*
X108617113Y-94005901D01*
X108617115Y-94005901D01*
X108830055Y-93966096D01*
X109032056Y-93887840D01*
X109216238Y-93773800D01*
X109257503Y-93736182D01*
X109376327Y-93627859D01*
X109378102Y-93625509D01*
X109506877Y-93454984D01*
X109506877Y-93454982D01*
X109506879Y-93454981D01*
X109603437Y-93261065D01*
X109662720Y-93052707D01*
X109664789Y-93030376D01*
X109682708Y-92837001D01*
X109662720Y-92621296D01*
X109662720Y-92621294D01*
X109603437Y-92412936D01*
X109506879Y-92219020D01*
X109398119Y-92074999D01*
X113156183Y-92074999D01*
X113176582Y-92256044D01*
X113176582Y-92256046D01*
X113176583Y-92256047D01*
X113236757Y-92428015D01*
X113320219Y-92560844D01*
X113333690Y-92582282D01*
X113333709Y-92582301D01*
X113333758Y-92582390D01*
X113341123Y-92594111D01*
X113340464Y-92594524D01*
X113366919Y-92642389D01*
X113363070Y-92710936D01*
X113328982Y-92808354D01*
X113308583Y-92989400D01*
X113328982Y-93170444D01*
X113328982Y-93170446D01*
X113328983Y-93170447D01*
X113389157Y-93342415D01*
X113486089Y-93496681D01*
X113614919Y-93625511D01*
X113769185Y-93722443D01*
X113941153Y-93782617D01*
X114122200Y-93803016D01*
X114303247Y-93782617D01*
X114475215Y-93722443D01*
X114590827Y-93649799D01*
X122808183Y-93649799D01*
X122828582Y-93830844D01*
X122828582Y-93830846D01*
X122828583Y-93830847D01*
X122888757Y-94002815D01*
X122985689Y-94157081D01*
X123114519Y-94285911D01*
X123268785Y-94382843D01*
X123440753Y-94443017D01*
X123621800Y-94463416D01*
X123802847Y-94443017D01*
X123974815Y-94382843D01*
X124129081Y-94285911D01*
X124257911Y-94157081D01*
X124354843Y-94002815D01*
X124415017Y-93830847D01*
X124435416Y-93649800D01*
X124415017Y-93468753D01*
X124354843Y-93296785D01*
X124257911Y-93142519D01*
X124129081Y-93013689D01*
X123974815Y-92916757D01*
X123802847Y-92856583D01*
X123802846Y-92856582D01*
X123802844Y-92856582D01*
X123621800Y-92836183D01*
X123440755Y-92856582D01*
X123268784Y-92916757D01*
X123114517Y-93013690D01*
X122985690Y-93142517D01*
X122888757Y-93296784D01*
X122828582Y-93468755D01*
X122808183Y-93649799D01*
X114590827Y-93649799D01*
X114629481Y-93625511D01*
X114758311Y-93496681D01*
X114855243Y-93342415D01*
X114915417Y-93170447D01*
X114935816Y-92989400D01*
X114915417Y-92808353D01*
X114855243Y-92636385D01*
X114758311Y-92482119D01*
X114758289Y-92482097D01*
X114758234Y-92481997D01*
X114750877Y-92470289D01*
X114751534Y-92469875D01*
X114725079Y-92422008D01*
X114728928Y-92353464D01*
X114763017Y-92256047D01*
X114783416Y-92075000D01*
X114780188Y-92046355D01*
X114769151Y-91948392D01*
X114763017Y-91893953D01*
X114702843Y-91721985D01*
X114637379Y-91617800D01*
X116966183Y-91617800D01*
X116986582Y-91798844D01*
X116986582Y-91798846D01*
X116986583Y-91798847D01*
X117046757Y-91970815D01*
X117143689Y-92125081D01*
X117272519Y-92253911D01*
X117426785Y-92350843D01*
X117598753Y-92411017D01*
X117779800Y-92431416D01*
X117960847Y-92411017D01*
X118132815Y-92350843D01*
X118287081Y-92253911D01*
X118415911Y-92125081D01*
X118512843Y-91970815D01*
X118573017Y-91798847D01*
X118593416Y-91617800D01*
X118590554Y-91592399D01*
X122706583Y-91592399D01*
X122726982Y-91773444D01*
X122726982Y-91773446D01*
X122726983Y-91773447D01*
X122787157Y-91945415D01*
X122884089Y-92099681D01*
X123012919Y-92228511D01*
X123167185Y-92325443D01*
X123339153Y-92385617D01*
X123520200Y-92406016D01*
X123701247Y-92385617D01*
X123873215Y-92325443D01*
X124027481Y-92228511D01*
X124156311Y-92099681D01*
X124253243Y-91945415D01*
X124313417Y-91773447D01*
X124333816Y-91592400D01*
X124313417Y-91411353D01*
X124253243Y-91239385D01*
X124156311Y-91085119D01*
X124027481Y-90956289D01*
X123873215Y-90859357D01*
X123701247Y-90799183D01*
X123701246Y-90799182D01*
X123701244Y-90799182D01*
X123520200Y-90778783D01*
X123339155Y-90799182D01*
X123167184Y-90859357D01*
X123012917Y-90956290D01*
X122884090Y-91085117D01*
X122787157Y-91239384D01*
X122726982Y-91411355D01*
X122706583Y-91592399D01*
X118590554Y-91592399D01*
X118573017Y-91436753D01*
X118512843Y-91264785D01*
X118415911Y-91110519D01*
X118287081Y-90981689D01*
X118132815Y-90884757D01*
X117960847Y-90824583D01*
X117960846Y-90824582D01*
X117960844Y-90824582D01*
X117779799Y-90804183D01*
X117598755Y-90824582D01*
X117426784Y-90884757D01*
X117272517Y-90981690D01*
X117143690Y-91110517D01*
X117046757Y-91264784D01*
X116986582Y-91436755D01*
X116966183Y-91617800D01*
X114637379Y-91617800D01*
X114605911Y-91567719D01*
X114477081Y-91438889D01*
X114322815Y-91341957D01*
X114150847Y-91281783D01*
X114150846Y-91281782D01*
X114150844Y-91281782D01*
X113969800Y-91261383D01*
X113788755Y-91281782D01*
X113616784Y-91341957D01*
X113462517Y-91438890D01*
X113333690Y-91567717D01*
X113236757Y-91721984D01*
X113176582Y-91893955D01*
X113156183Y-92074999D01*
X109398119Y-92074999D01*
X109376327Y-92046142D01*
X109247430Y-91928637D01*
X109211702Y-91870934D01*
X109211702Y-91803066D01*
X109247430Y-91745363D01*
X109376327Y-91627857D01*
X109376328Y-91627856D01*
X109506877Y-91454982D01*
X109506877Y-91454980D01*
X109506879Y-91454979D01*
X109603437Y-91261063D01*
X109662720Y-91052705D01*
X109669300Y-90981690D01*
X109682708Y-90836999D01*
X109665389Y-90650093D01*
X109662720Y-90621292D01*
X109603437Y-90412934D01*
X109506879Y-90219018D01*
X109412318Y-90093800D01*
X112394183Y-90093800D01*
X112414582Y-90274844D01*
X112414582Y-90274846D01*
X112414583Y-90274847D01*
X112474757Y-90446815D01*
X112571689Y-90601081D01*
X112700519Y-90729911D01*
X112854785Y-90826843D01*
X113026753Y-90887017D01*
X113207800Y-90907416D01*
X113388847Y-90887017D01*
X113560815Y-90826843D01*
X113715081Y-90729911D01*
X113843911Y-90601081D01*
X113940843Y-90446815D01*
X114001017Y-90274847D01*
X114021416Y-90093800D01*
X114001017Y-89912753D01*
X113940843Y-89740785D01*
X113875379Y-89636600D01*
X124840183Y-89636600D01*
X124860582Y-89817644D01*
X124860582Y-89817646D01*
X124860583Y-89817647D01*
X124920757Y-89989615D01*
X125017689Y-90143881D01*
X125146519Y-90272711D01*
X125300785Y-90369643D01*
X125472753Y-90429817D01*
X125575481Y-90441391D01*
X125615399Y-90452891D01*
X125649279Y-90476930D01*
X130057236Y-94884887D01*
X130067931Y-94897082D01*
X130087028Y-94921971D01*
X130150645Y-94970785D01*
X130211823Y-95017728D01*
X130357147Y-95077923D01*
X130513100Y-95098455D01*
X130544198Y-95094361D01*
X130560383Y-95093300D01*
X134971218Y-95093300D01*
X134987403Y-95094360D01*
X135018500Y-95098455D01*
X135174453Y-95077923D01*
X135269999Y-95038346D01*
X135357824Y-95001969D01*
X135380948Y-94970789D01*
X135444571Y-94921971D01*
X135463669Y-94897079D01*
X135474356Y-94884893D01*
X135894348Y-94464901D01*
X135949936Y-94432808D01*
X136014123Y-94432808D01*
X136069710Y-94464902D01*
X136195519Y-94590711D01*
X136349785Y-94687643D01*
X136521753Y-94747817D01*
X136702800Y-94768216D01*
X136883847Y-94747817D01*
X137055815Y-94687643D01*
X137210081Y-94590711D01*
X137224920Y-94575871D01*
X137271645Y-94546511D01*
X137326484Y-94540332D01*
X137378573Y-94558558D01*
X137389316Y-94565308D01*
X137389319Y-94565311D01*
X137543585Y-94662243D01*
X137715553Y-94722417D01*
X137896600Y-94742816D01*
X138077647Y-94722417D01*
X138249615Y-94662243D01*
X138403881Y-94565311D01*
X138418519Y-94550672D01*
X138474106Y-94518579D01*
X138538294Y-94518579D01*
X138593881Y-94550673D01*
X138608519Y-94565311D01*
X138762785Y-94662243D01*
X138934753Y-94722417D01*
X139115800Y-94742816D01*
X139296847Y-94722417D01*
X139468815Y-94662243D01*
X139623081Y-94565311D01*
X139751911Y-94436481D01*
X139848843Y-94282215D01*
X139909017Y-94110247D01*
X139929416Y-93929200D01*
X139920099Y-93846517D01*
X139929208Y-93784111D01*
X139967833Y-93734257D01*
X140041971Y-93677371D01*
X140061069Y-93652479D01*
X140071757Y-93640292D01*
X140774731Y-92937319D01*
X140814960Y-92910439D01*
X140862413Y-92901000D01*
X141809907Y-92901000D01*
X141875879Y-92920006D01*
X141921627Y-92971198D01*
X141933127Y-93038884D01*
X141906854Y-93102313D01*
X141850863Y-93142040D01*
X141716170Y-93189172D01*
X141716168Y-93189172D01*
X141716168Y-93189173D01*
X141561902Y-93286105D01*
X141433075Y-93414932D01*
X141336142Y-93569199D01*
X141275967Y-93741170D01*
X141255568Y-93922215D01*
X141275967Y-94103259D01*
X141275967Y-94103261D01*
X141275968Y-94103262D01*
X141336142Y-94275230D01*
X141433074Y-94429496D01*
X141561904Y-94558326D01*
X141716170Y-94655258D01*
X141888138Y-94715432D01*
X142069185Y-94735831D01*
X142250232Y-94715432D01*
X142422200Y-94655258D01*
X142576466Y-94558326D01*
X142705296Y-94429496D01*
X142802228Y-94275230D01*
X142862402Y-94103262D01*
X142882801Y-93922215D01*
X142879065Y-93889061D01*
X142869404Y-93803311D01*
X142862402Y-93741168D01*
X142802228Y-93569200D01*
X142705296Y-93414934D01*
X142576466Y-93286104D01*
X142422200Y-93189172D01*
X142287506Y-93142040D01*
X142231516Y-93102313D01*
X142205243Y-93038884D01*
X142216743Y-92971198D01*
X142262491Y-92920006D01*
X142328463Y-92901000D01*
X142912646Y-92901000D01*
X142960099Y-92910439D01*
X143000327Y-92937319D01*
X143002719Y-92939711D01*
X143156985Y-93036643D01*
X143328953Y-93096817D01*
X143433522Y-93108599D01*
X143509999Y-93117216D01*
X143509999Y-93117215D01*
X143510000Y-93117216D01*
X143656493Y-93100710D01*
X143711330Y-93106888D01*
X143758057Y-93136248D01*
X143866319Y-93244511D01*
X144020585Y-93341443D01*
X144192553Y-93401617D01*
X144295281Y-93413191D01*
X144335199Y-93424691D01*
X144369079Y-93448730D01*
X145314243Y-94393894D01*
X145324938Y-94406089D01*
X145344035Y-94430978D01*
X145428645Y-94495900D01*
X145468830Y-94526735D01*
X145468831Y-94526735D01*
X145468832Y-94526736D01*
X145526622Y-94550673D01*
X145614154Y-94586930D01*
X145770107Y-94607462D01*
X145801205Y-94603368D01*
X145817390Y-94602307D01*
X148907046Y-94602307D01*
X148954499Y-94611746D01*
X148994727Y-94638625D01*
X148997119Y-94641018D01*
X149151385Y-94737950D01*
X149323353Y-94798124D01*
X149504400Y-94818523D01*
X149685447Y-94798124D01*
X149857415Y-94737950D01*
X150011681Y-94641018D01*
X150140511Y-94512188D01*
X150237443Y-94357922D01*
X150297617Y-94185954D01*
X150318016Y-94004907D01*
X150315210Y-93980000D01*
X157682383Y-93980000D01*
X157702782Y-94161044D01*
X157702782Y-94161046D01*
X157702783Y-94161047D01*
X157762957Y-94333015D01*
X157859889Y-94487281D01*
X157988719Y-94616111D01*
X158142985Y-94713043D01*
X158314953Y-94773217D01*
X158496000Y-94793616D01*
X158677047Y-94773217D01*
X158849015Y-94713043D01*
X159003281Y-94616111D01*
X159132111Y-94487281D01*
X159229043Y-94333015D01*
X159289217Y-94161047D01*
X159309616Y-93980000D01*
X159289217Y-93798953D01*
X159229043Y-93626985D01*
X159132111Y-93472719D01*
X159003281Y-93343889D01*
X158849015Y-93246957D01*
X158677047Y-93186783D01*
X158677046Y-93186782D01*
X158677044Y-93186782D01*
X158496000Y-93166383D01*
X158314955Y-93186782D01*
X158142984Y-93246957D01*
X157988717Y-93343890D01*
X157859890Y-93472717D01*
X157762957Y-93626984D01*
X157702782Y-93798955D01*
X157682383Y-93980000D01*
X150315210Y-93980000D01*
X150297617Y-93823860D01*
X150237443Y-93651892D01*
X150140511Y-93497626D01*
X150011681Y-93368796D01*
X149857415Y-93271864D01*
X149685447Y-93211690D01*
X149685446Y-93211689D01*
X149685444Y-93211689D01*
X149504400Y-93191290D01*
X149323355Y-93211689D01*
X149151384Y-93271864D01*
X148997117Y-93368797D01*
X148994727Y-93371188D01*
X148954499Y-93398068D01*
X148907046Y-93407507D01*
X146068920Y-93407507D01*
X146021467Y-93398068D01*
X145981239Y-93371188D01*
X145760202Y-93150151D01*
X145728108Y-93094563D01*
X145728108Y-93030376D01*
X145760199Y-92974792D01*
X145847911Y-92887081D01*
X145944843Y-92732815D01*
X146005017Y-92560847D01*
X146025416Y-92379800D01*
X146005017Y-92198753D01*
X145988378Y-92151200D01*
X146328583Y-92151200D01*
X146348982Y-92332244D01*
X146348982Y-92332246D01*
X146348983Y-92332247D01*
X146409157Y-92504215D01*
X146506089Y-92658481D01*
X146634919Y-92787311D01*
X146789185Y-92884243D01*
X146961153Y-92944417D01*
X147142200Y-92964816D01*
X147323247Y-92944417D01*
X147495215Y-92884243D01*
X147649481Y-92787311D01*
X147778311Y-92658481D01*
X147875243Y-92504215D01*
X147935417Y-92332247D01*
X147947393Y-92225954D01*
X147965619Y-92173866D01*
X148004641Y-92134844D01*
X148056729Y-92116618D01*
X148111564Y-92122795D01*
X148281953Y-92182417D01*
X148463000Y-92202816D01*
X148644047Y-92182417D01*
X148816015Y-92122243D01*
X148970281Y-92025311D01*
X149099111Y-91896481D01*
X149196043Y-91742215D01*
X149256217Y-91570247D01*
X149276616Y-91389200D01*
X149256217Y-91208153D01*
X149245973Y-91178879D01*
X149239795Y-91124043D01*
X149258021Y-91071954D01*
X149297044Y-91032932D01*
X149349130Y-91014706D01*
X149355247Y-91014017D01*
X149527215Y-90953843D01*
X149681481Y-90856911D01*
X149786374Y-90752017D01*
X149833101Y-90722657D01*
X149887939Y-90716478D01*
X149940027Y-90734704D01*
X149979049Y-90773725D01*
X150018807Y-90836999D01*
X150062089Y-90905881D01*
X150190919Y-91034711D01*
X150345185Y-91131643D01*
X150517153Y-91191817D01*
X150698200Y-91212216D01*
X150879247Y-91191817D01*
X151051215Y-91131643D01*
X151205481Y-91034711D01*
X151334311Y-90905881D01*
X151431243Y-90751615D01*
X151491417Y-90579647D01*
X151511816Y-90398600D01*
X151491417Y-90217553D01*
X151431243Y-90045585D01*
X151334311Y-89891319D01*
X151205481Y-89762489D01*
X151051215Y-89665557D01*
X150879247Y-89605383D01*
X150879246Y-89605382D01*
X150879244Y-89605382D01*
X150698200Y-89584983D01*
X150517155Y-89605382D01*
X150345184Y-89665557D01*
X150190919Y-89762489D01*
X150086024Y-89867384D01*
X150039297Y-89896744D01*
X149984459Y-89902922D01*
X149932371Y-89884696D01*
X149893350Y-89845675D01*
X149810311Y-89713519D01*
X149681481Y-89584689D01*
X149527215Y-89487757D01*
X149355247Y-89427583D01*
X149355246Y-89427582D01*
X149355244Y-89427582D01*
X149174200Y-89407183D01*
X148993155Y-89427582D01*
X148821184Y-89487757D01*
X148666917Y-89584690D01*
X148538090Y-89713517D01*
X148441157Y-89867784D01*
X148380982Y-90039755D01*
X148360583Y-90220799D01*
X148380982Y-90401844D01*
X148380982Y-90401846D01*
X148380983Y-90401847D01*
X148386269Y-90416955D01*
X148391226Y-90431119D01*
X148397404Y-90485956D01*
X148379179Y-90538043D01*
X148340159Y-90577065D01*
X148288072Y-90595293D01*
X148281955Y-90595982D01*
X148109984Y-90656157D01*
X147955717Y-90753090D01*
X147826890Y-90881917D01*
X147729957Y-91036184D01*
X147669782Y-91208155D01*
X147657806Y-91314445D01*
X147639580Y-91366533D01*
X147600558Y-91405555D01*
X147548470Y-91423781D01*
X147493632Y-91417603D01*
X147385572Y-91379791D01*
X147323247Y-91357983D01*
X147323246Y-91357982D01*
X147323244Y-91357982D01*
X147142200Y-91337583D01*
X146961155Y-91357982D01*
X146789184Y-91418157D01*
X146634917Y-91515090D01*
X146506090Y-91643917D01*
X146409157Y-91798184D01*
X146348982Y-91970155D01*
X146328583Y-92151200D01*
X145988378Y-92151200D01*
X145944843Y-92026785D01*
X145872951Y-91912370D01*
X145853945Y-91846400D01*
X145872951Y-91780429D01*
X145944843Y-91666015D01*
X146005017Y-91494047D01*
X146025416Y-91313000D01*
X146005017Y-91131953D01*
X145944843Y-90959985D01*
X145847911Y-90805719D01*
X145739012Y-90696820D01*
X145709651Y-90650093D01*
X145703473Y-90595255D01*
X145721699Y-90543167D01*
X145760717Y-90504148D01*
X145846081Y-90450511D01*
X145974911Y-90321681D01*
X146071843Y-90167415D01*
X146124764Y-90016172D01*
X146154122Y-89969450D01*
X146200849Y-89940089D01*
X146255688Y-89933911D01*
X146329400Y-89942216D01*
X146510447Y-89921817D01*
X146682415Y-89861643D01*
X146836681Y-89764711D01*
X146965511Y-89635881D01*
X147062443Y-89481615D01*
X147122617Y-89309647D01*
X147143016Y-89128600D01*
X147122617Y-88947553D01*
X147062443Y-88775585D01*
X146965511Y-88621319D01*
X146836681Y-88492489D01*
X146682415Y-88395557D01*
X146510447Y-88335383D01*
X146510446Y-88335382D01*
X146510444Y-88335382D01*
X146329400Y-88314983D01*
X146148355Y-88335382D01*
X145976384Y-88395557D01*
X145822117Y-88492490D01*
X145819727Y-88494881D01*
X145779499Y-88521761D01*
X145732046Y-88531200D01*
X135955214Y-88531200D01*
X135898919Y-88517685D01*
X135854896Y-88480085D01*
X135832741Y-88426598D01*
X135837283Y-88368882D01*
X135867533Y-88319519D01*
X136228133Y-87958919D01*
X136268361Y-87932039D01*
X136315814Y-87922600D01*
X143894518Y-87922600D01*
X143910703Y-87923660D01*
X143941800Y-87927755D01*
X144081217Y-87909400D01*
X153923183Y-87909400D01*
X153943582Y-88090444D01*
X153943582Y-88090446D01*
X153943583Y-88090447D01*
X154003757Y-88262415D01*
X154100689Y-88416681D01*
X154229519Y-88545511D01*
X154383785Y-88642443D01*
X154555753Y-88702617D01*
X154736800Y-88723016D01*
X154917847Y-88702617D01*
X155089815Y-88642443D01*
X155244081Y-88545511D01*
X155372911Y-88416681D01*
X155469843Y-88262415D01*
X155530017Y-88090447D01*
X155550416Y-87909400D01*
X155530017Y-87728353D01*
X155469843Y-87556385D01*
X155372911Y-87402119D01*
X155244081Y-87273289D01*
X155089815Y-87176357D01*
X154917847Y-87116183D01*
X154917846Y-87116182D01*
X154917844Y-87116182D01*
X154736800Y-87095783D01*
X154555755Y-87116182D01*
X154383784Y-87176357D01*
X154229517Y-87273290D01*
X154100690Y-87402117D01*
X154003757Y-87556384D01*
X153943582Y-87728355D01*
X153923183Y-87909400D01*
X144081217Y-87909400D01*
X144097753Y-87907223D01*
X144243077Y-87847028D01*
X144243077Y-87847027D01*
X144243077Y-87847026D01*
X144250541Y-87843935D01*
X144259319Y-87834564D01*
X144367871Y-87751271D01*
X144386970Y-87726378D01*
X144397656Y-87714193D01*
X146386850Y-85725000D01*
X150214783Y-85725000D01*
X150235182Y-85906044D01*
X150235182Y-85906046D01*
X150235183Y-85906047D01*
X150295357Y-86078015D01*
X150392289Y-86232281D01*
X150521119Y-86361111D01*
X150675385Y-86458043D01*
X150847353Y-86518217D01*
X151028400Y-86538616D01*
X151209447Y-86518217D01*
X151381415Y-86458043D01*
X151535681Y-86361111D01*
X151664511Y-86232281D01*
X151761443Y-86078015D01*
X151821617Y-85906047D01*
X151842016Y-85725000D01*
X151821617Y-85543953D01*
X151761443Y-85371985D01*
X151664511Y-85217719D01*
X151535681Y-85088889D01*
X151381415Y-84991957D01*
X151209447Y-84931783D01*
X151209446Y-84931782D01*
X151209444Y-84931782D01*
X151028400Y-84911383D01*
X150847355Y-84931782D01*
X150675384Y-84991957D01*
X150521117Y-85088890D01*
X150392290Y-85217717D01*
X150295357Y-85371984D01*
X150235182Y-85543955D01*
X150214783Y-85725000D01*
X146386850Y-85725000D01*
X147937532Y-84174319D01*
X147977761Y-84147439D01*
X148025214Y-84138000D01*
X148551446Y-84138000D01*
X148598899Y-84147439D01*
X148639127Y-84174319D01*
X148641519Y-84176711D01*
X148795785Y-84273643D01*
X148967753Y-84333817D01*
X149068728Y-84345194D01*
X149135823Y-84352754D01*
X149199252Y-84379026D01*
X149238981Y-84435018D01*
X149253957Y-84477815D01*
X149350889Y-84632081D01*
X149479719Y-84760911D01*
X149633985Y-84857843D01*
X149805953Y-84918017D01*
X149987000Y-84938416D01*
X150168047Y-84918017D01*
X150340015Y-84857843D01*
X150494281Y-84760911D01*
X150520792Y-84734400D01*
X153338983Y-84734400D01*
X153359382Y-84915444D01*
X153359382Y-84915446D01*
X153359383Y-84915447D01*
X153419557Y-85087415D01*
X153516489Y-85241681D01*
X153645319Y-85370511D01*
X153799585Y-85467443D01*
X153971553Y-85527617D01*
X154152600Y-85548016D01*
X154333647Y-85527617D01*
X154505615Y-85467443D01*
X154659881Y-85370511D01*
X154788711Y-85241681D01*
X154885643Y-85087415D01*
X154945817Y-84915447D01*
X154966216Y-84734400D01*
X154945817Y-84553353D01*
X154885643Y-84381385D01*
X154788711Y-84227119D01*
X154659881Y-84098289D01*
X154505615Y-84001357D01*
X154333647Y-83941183D01*
X154333646Y-83941182D01*
X154333644Y-83941182D01*
X154152600Y-83920783D01*
X153971555Y-83941182D01*
X153799584Y-84001357D01*
X153645317Y-84098290D01*
X153516490Y-84227117D01*
X153419557Y-84381384D01*
X153359382Y-84553355D01*
X153338983Y-84734400D01*
X150520792Y-84734400D01*
X150623111Y-84632081D01*
X150720043Y-84477815D01*
X150780217Y-84305847D01*
X150800616Y-84124800D01*
X150780217Y-83943753D01*
X150720043Y-83771785D01*
X150623111Y-83617519D01*
X150494281Y-83488689D01*
X150340015Y-83391757D01*
X150168047Y-83331583D01*
X150168046Y-83331582D01*
X150168044Y-83331582D01*
X149999975Y-83312645D01*
X149936546Y-83286372D01*
X149896818Y-83230380D01*
X149881844Y-83187587D01*
X149881843Y-83187585D01*
X149784911Y-83033319D01*
X149656081Y-82904489D01*
X149501815Y-82807557D01*
X149329847Y-82747383D01*
X149329846Y-82747382D01*
X149329844Y-82747382D01*
X149148800Y-82726983D01*
X148967755Y-82747382D01*
X148795784Y-82807557D01*
X148641517Y-82904490D01*
X148639127Y-82906881D01*
X148598899Y-82933761D01*
X148551446Y-82943200D01*
X147773688Y-82943200D01*
X147757502Y-82942139D01*
X147726400Y-82938044D01*
X147570445Y-82958577D01*
X147425123Y-83018771D01*
X147336996Y-83086394D01*
X147336995Y-83086395D01*
X147300326Y-83114530D01*
X147281233Y-83139413D01*
X147270540Y-83151606D01*
X146169442Y-84252704D01*
X146116089Y-84284177D01*
X146054168Y-84285914D01*
X145999134Y-84257483D01*
X145964719Y-84205978D01*
X145954478Y-84176711D01*
X145919443Y-84076585D01*
X145822511Y-83922319D01*
X145693681Y-83793489D01*
X145539415Y-83696557D01*
X145367447Y-83636383D01*
X145367446Y-83636382D01*
X145367444Y-83636382D01*
X145186400Y-83615983D01*
X145005355Y-83636382D01*
X144833384Y-83696557D01*
X144679117Y-83793490D01*
X144550290Y-83922317D01*
X144453357Y-84076584D01*
X144393182Y-84248555D01*
X144372783Y-84429599D01*
X144393182Y-84610644D01*
X144393182Y-84610646D01*
X144393183Y-84610647D01*
X144453357Y-84782615D01*
X144550289Y-84936881D01*
X144679119Y-85065711D01*
X144833385Y-85162643D01*
X144962779Y-85207919D01*
X145014284Y-85242334D01*
X145042715Y-85297368D01*
X145040978Y-85359288D01*
X145009505Y-85412642D01*
X143730668Y-86691481D01*
X143690440Y-86718361D01*
X143642987Y-86727800D01*
X141511035Y-86727800D01*
X141448034Y-86710603D01*
X141402507Y-86663781D01*
X141387084Y-86600322D01*
X141406041Y-86537828D01*
X141423643Y-86509815D01*
X141483817Y-86337847D01*
X141504216Y-86156800D01*
X141483817Y-85975753D01*
X141423643Y-85803785D01*
X141326711Y-85649519D01*
X141197881Y-85520689D01*
X141043615Y-85423757D01*
X140871647Y-85363583D01*
X140871646Y-85363582D01*
X140871644Y-85363582D01*
X140690600Y-85343183D01*
X140509555Y-85363582D01*
X140337584Y-85423757D01*
X140183316Y-85520691D01*
X140150716Y-85553291D01*
X140098697Y-85584370D01*
X140038162Y-85587089D01*
X139983567Y-85560796D01*
X139947949Y-85511772D01*
X139939816Y-85451725D01*
X139942968Y-85423757D01*
X139954816Y-85318600D01*
X139934417Y-85137553D01*
X139874243Y-84965585D01*
X139777311Y-84811319D01*
X139648481Y-84682489D01*
X139494215Y-84585557D01*
X139322247Y-84525383D01*
X139322246Y-84525382D01*
X139322244Y-84525382D01*
X139141200Y-84504983D01*
X138960155Y-84525382D01*
X138788184Y-84585557D01*
X138633917Y-84682490D01*
X138505090Y-84811317D01*
X138408157Y-84965584D01*
X138347982Y-85137555D01*
X138327583Y-85318600D01*
X138347982Y-85499644D01*
X138347982Y-85499646D01*
X138347983Y-85499647D01*
X138408157Y-85671615D01*
X138505089Y-85825881D01*
X138633919Y-85954711D01*
X138788185Y-86051643D01*
X138960153Y-86111817D01*
X139141200Y-86132216D01*
X139322247Y-86111817D01*
X139494215Y-86051643D01*
X139648481Y-85954711D01*
X139681083Y-85922108D01*
X139733100Y-85891029D01*
X139793635Y-85888310D01*
X139848231Y-85914602D01*
X139883849Y-85963625D01*
X139891983Y-86023674D01*
X139876983Y-86156799D01*
X139897382Y-86337844D01*
X139957557Y-86509815D01*
X139975159Y-86537828D01*
X139994116Y-86600322D01*
X139978693Y-86663781D01*
X139933166Y-86710603D01*
X139870165Y-86727800D01*
X136064288Y-86727800D01*
X136048102Y-86726739D01*
X136017000Y-86722644D01*
X136016999Y-86722644D01*
X135820941Y-86748457D01*
X135778952Y-86777181D01*
X135715722Y-86803371D01*
X135590927Y-86899129D01*
X135571833Y-86924013D01*
X135561140Y-86936206D01*
X134285278Y-88212069D01*
X134251399Y-88236108D01*
X134211481Y-88247608D01*
X134108755Y-88259182D01*
X133936784Y-88319357D01*
X133782517Y-88416290D01*
X133653690Y-88545117D01*
X133556757Y-88699384D01*
X133496582Y-88871355D01*
X133479621Y-89021885D01*
X133461395Y-89073973D01*
X133422373Y-89112995D01*
X133370285Y-89131221D01*
X133219755Y-89148182D01*
X133047784Y-89208357D01*
X132893517Y-89305290D01*
X132764690Y-89434117D01*
X132667757Y-89588384D01*
X132607582Y-89760355D01*
X132587183Y-89941400D01*
X132607582Y-90122444D01*
X132607582Y-90122446D01*
X132607583Y-90122447D01*
X132667757Y-90294415D01*
X132764689Y-90448681D01*
X132893519Y-90577511D01*
X132897412Y-90579957D01*
X132939543Y-90606430D01*
X132978564Y-90645451D01*
X132996790Y-90697540D01*
X132990612Y-90752374D01*
X132954034Y-90856911D01*
X132937782Y-90903356D01*
X132917383Y-91084399D01*
X132937782Y-91265444D01*
X132961283Y-91332607D01*
X132965132Y-91401154D01*
X132931922Y-91461242D01*
X132871834Y-91494452D01*
X132803287Y-91490603D01*
X132655496Y-91438889D01*
X132642047Y-91434183D01*
X132642046Y-91434182D01*
X132642044Y-91434182D01*
X132461000Y-91413783D01*
X132279955Y-91434182D01*
X132107984Y-91494357D01*
X131953717Y-91591290D01*
X131824890Y-91720117D01*
X131727957Y-91874384D01*
X131667782Y-92046355D01*
X131647383Y-92227400D01*
X131667782Y-92408444D01*
X131667782Y-92408446D01*
X131667783Y-92408447D01*
X131727957Y-92580415D01*
X131763125Y-92636385D01*
X131824890Y-92734682D01*
X131887941Y-92797733D01*
X131921151Y-92857821D01*
X131917302Y-92926367D01*
X131896382Y-92986153D01*
X131875983Y-93167199D01*
X131896382Y-93348244D01*
X131896382Y-93348246D01*
X131896383Y-93348247D01*
X131956557Y-93520215D01*
X132039295Y-93651892D01*
X132053490Y-93674482D01*
X132065827Y-93686819D01*
X132096077Y-93736182D01*
X132100619Y-93793898D01*
X132078464Y-93847385D01*
X132034441Y-93884985D01*
X131978146Y-93898500D01*
X130811913Y-93898500D01*
X130764460Y-93889061D01*
X130724232Y-93862181D01*
X126494130Y-89632079D01*
X126470091Y-89598199D01*
X126458591Y-89558281D01*
X126447258Y-89457690D01*
X126447017Y-89455553D01*
X126386843Y-89283585D01*
X126289911Y-89129319D01*
X126161081Y-89000489D01*
X126006815Y-88903557D01*
X125834847Y-88843383D01*
X125834846Y-88843382D01*
X125834844Y-88843382D01*
X125653800Y-88822983D01*
X125472755Y-88843382D01*
X125300784Y-88903557D01*
X125146517Y-89000490D01*
X125017690Y-89129317D01*
X124920757Y-89283584D01*
X124860582Y-89455555D01*
X124840183Y-89636600D01*
X113875379Y-89636600D01*
X113843911Y-89586519D01*
X113715081Y-89457689D01*
X113560815Y-89360757D01*
X113388847Y-89300583D01*
X113388846Y-89300582D01*
X113388844Y-89300582D01*
X113207800Y-89280183D01*
X113026755Y-89300582D01*
X112854784Y-89360757D01*
X112700517Y-89457690D01*
X112571690Y-89586517D01*
X112474757Y-89740784D01*
X112414582Y-89912755D01*
X112394183Y-90093800D01*
X109412318Y-90093800D01*
X109376327Y-90046140D01*
X109216238Y-89900199D01*
X109032058Y-89786161D01*
X109032056Y-89786160D01*
X108830055Y-89707904D01*
X108617115Y-89668099D01*
X108400485Y-89668099D01*
X108187545Y-89707903D01*
X108187545Y-89707904D01*
X107985541Y-89786161D01*
X107801361Y-89900199D01*
X107641272Y-90046140D01*
X107510720Y-90219018D01*
X107414162Y-90412934D01*
X107354879Y-90621292D01*
X107334892Y-90836998D01*
X107354879Y-91052705D01*
X107414162Y-91261063D01*
X107510720Y-91454979D01*
X107641270Y-91627854D01*
X107770170Y-91745363D01*
X107805897Y-91803066D01*
X107805897Y-91870934D01*
X107770170Y-91928637D01*
X107641270Y-92046145D01*
X107510720Y-92219020D01*
X107414162Y-92412936D01*
X107354879Y-92621294D01*
X107334892Y-92837000D01*
X106424100Y-92837000D01*
X106424100Y-84758891D01*
X106439829Y-84698448D01*
X106483024Y-84653339D01*
X106542729Y-84635007D01*
X106603796Y-84648103D01*
X106650734Y-84689304D01*
X106815642Y-84932526D01*
X107047478Y-85205463D01*
X107307460Y-85451732D01*
X107307463Y-85451734D01*
X107307466Y-85451737D01*
X107592557Y-85668458D01*
X107899409Y-85853084D01*
X108224423Y-86003452D01*
X108445718Y-86078015D01*
X108563789Y-86117798D01*
X108626884Y-86131686D01*
X108913530Y-86194782D01*
X109234622Y-86229702D01*
X109269543Y-86233500D01*
X109269544Y-86233500D01*
X109627656Y-86233500D01*
X109627657Y-86233500D01*
X109659457Y-86230041D01*
X109983670Y-86194782D01*
X110333410Y-86117798D01*
X110672777Y-86003452D01*
X110997791Y-85853084D01*
X111304643Y-85668458D01*
X111589734Y-85451737D01*
X111673278Y-85372600D01*
X113590595Y-85372600D01*
X113609373Y-85599209D01*
X113609373Y-85599212D01*
X113609374Y-85599214D01*
X113622113Y-85649519D01*
X113665195Y-85819648D01*
X113737448Y-85984367D01*
X113756537Y-86027885D01*
X113880908Y-86218249D01*
X114034915Y-86385546D01*
X114214359Y-86525212D01*
X114414343Y-86633439D01*
X114551477Y-86680517D01*
X114629409Y-86707271D01*
X114629411Y-86707271D01*
X114629413Y-86707272D01*
X114853703Y-86744700D01*
X115081092Y-86744700D01*
X115081093Y-86744700D01*
X115305383Y-86707272D01*
X115520453Y-86633439D01*
X115720437Y-86525212D01*
X115899881Y-86385546D01*
X116053888Y-86218249D01*
X116178259Y-86027885D01*
X116269601Y-85819647D01*
X116325422Y-85599214D01*
X116344200Y-85372600D01*
X117090596Y-85372600D01*
X117109374Y-85599209D01*
X117109374Y-85599212D01*
X117109375Y-85599214D01*
X117122114Y-85649519D01*
X117165196Y-85819648D01*
X117237449Y-85984367D01*
X117256538Y-86027885D01*
X117380909Y-86218249D01*
X117534916Y-86385546D01*
X117714360Y-86525212D01*
X117914344Y-86633439D01*
X118051478Y-86680517D01*
X118129410Y-86707271D01*
X118129412Y-86707271D01*
X118129414Y-86707272D01*
X118353704Y-86744700D01*
X118581093Y-86744700D01*
X118581094Y-86744700D01*
X118805384Y-86707272D01*
X119020454Y-86633439D01*
X119220438Y-86525212D01*
X119399882Y-86385546D01*
X119553889Y-86218249D01*
X119678260Y-86027885D01*
X119769602Y-85819647D01*
X119825423Y-85599214D01*
X119844201Y-85372600D01*
X120590596Y-85372600D01*
X120609374Y-85599209D01*
X120609374Y-85599212D01*
X120609375Y-85599214D01*
X120622114Y-85649519D01*
X120665196Y-85819648D01*
X120737449Y-85984367D01*
X120756538Y-86027885D01*
X120880909Y-86218249D01*
X121034916Y-86385546D01*
X121214360Y-86525212D01*
X121414344Y-86633439D01*
X121551478Y-86680517D01*
X121629410Y-86707271D01*
X121629412Y-86707271D01*
X121629414Y-86707272D01*
X121853704Y-86744700D01*
X122081093Y-86744700D01*
X122081094Y-86744700D01*
X122305384Y-86707272D01*
X122520454Y-86633439D01*
X122720438Y-86525212D01*
X122899882Y-86385546D01*
X123053889Y-86218249D01*
X123178260Y-86027885D01*
X123269602Y-85819647D01*
X123325423Y-85599214D01*
X123344201Y-85372600D01*
X124090597Y-85372600D01*
X124109375Y-85599209D01*
X124109375Y-85599212D01*
X124109376Y-85599214D01*
X124122115Y-85649519D01*
X124165197Y-85819648D01*
X124237450Y-85984367D01*
X124256539Y-86027885D01*
X124380910Y-86218249D01*
X124534917Y-86385546D01*
X124714361Y-86525212D01*
X124914345Y-86633439D01*
X125051479Y-86680517D01*
X125129411Y-86707271D01*
X125129413Y-86707271D01*
X125129415Y-86707272D01*
X125353705Y-86744700D01*
X125581094Y-86744700D01*
X125581095Y-86744700D01*
X125805385Y-86707272D01*
X126020455Y-86633439D01*
X126220439Y-86525212D01*
X126399883Y-86385546D01*
X126553890Y-86218249D01*
X126678261Y-86027885D01*
X126769603Y-85819647D01*
X126825424Y-85599214D01*
X126844202Y-85372600D01*
X126825424Y-85145986D01*
X126769603Y-84925553D01*
X126678261Y-84717315D01*
X126553890Y-84526951D01*
X126399883Y-84359654D01*
X126220439Y-84219988D01*
X126020455Y-84111761D01*
X125805388Y-84037928D01*
X125637167Y-84009856D01*
X125581095Y-84000500D01*
X125353705Y-84000500D01*
X125308847Y-84007985D01*
X125129411Y-84037928D01*
X124914344Y-84111761D01*
X124714364Y-84219986D01*
X124714362Y-84219987D01*
X124714361Y-84219988D01*
X124677658Y-84248555D01*
X124534916Y-84359654D01*
X124380909Y-84526952D01*
X124256539Y-84717314D01*
X124165197Y-84925551D01*
X124109375Y-85145990D01*
X124090597Y-85372600D01*
X123344201Y-85372600D01*
X123325423Y-85145986D01*
X123269602Y-84925553D01*
X123178260Y-84717315D01*
X123053889Y-84526951D01*
X122899882Y-84359654D01*
X122720438Y-84219988D01*
X122520454Y-84111761D01*
X122305387Y-84037928D01*
X122137166Y-84009856D01*
X122081094Y-84000500D01*
X121853704Y-84000500D01*
X121808846Y-84007985D01*
X121629410Y-84037928D01*
X121414343Y-84111761D01*
X121214363Y-84219986D01*
X121214361Y-84219987D01*
X121214360Y-84219988D01*
X121177657Y-84248555D01*
X121034915Y-84359654D01*
X120880908Y-84526952D01*
X120756538Y-84717314D01*
X120665196Y-84925551D01*
X120609374Y-85145990D01*
X120590596Y-85372600D01*
X119844201Y-85372600D01*
X119825423Y-85145986D01*
X119769602Y-84925553D01*
X119678260Y-84717315D01*
X119553889Y-84526951D01*
X119399882Y-84359654D01*
X119220438Y-84219988D01*
X119020454Y-84111761D01*
X118805387Y-84037928D01*
X118637166Y-84009856D01*
X118581094Y-84000500D01*
X118353704Y-84000500D01*
X118308846Y-84007985D01*
X118129410Y-84037928D01*
X117914343Y-84111761D01*
X117714363Y-84219986D01*
X117714361Y-84219987D01*
X117714360Y-84219988D01*
X117677657Y-84248555D01*
X117534915Y-84359654D01*
X117380908Y-84526952D01*
X117256538Y-84717314D01*
X117165196Y-84925551D01*
X117109374Y-85145990D01*
X117090596Y-85372600D01*
X116344200Y-85372600D01*
X116325422Y-85145986D01*
X116269601Y-84925553D01*
X116178259Y-84717315D01*
X116053888Y-84526951D01*
X115899881Y-84359654D01*
X115720437Y-84219988D01*
X115520453Y-84111761D01*
X115305386Y-84037928D01*
X115137165Y-84009856D01*
X115081093Y-84000500D01*
X114853703Y-84000500D01*
X114808845Y-84007985D01*
X114629409Y-84037928D01*
X114414342Y-84111761D01*
X114214362Y-84219986D01*
X114214360Y-84219987D01*
X114214359Y-84219988D01*
X114177656Y-84248555D01*
X114034914Y-84359654D01*
X113880907Y-84526952D01*
X113756537Y-84717314D01*
X113665195Y-84925551D01*
X113609373Y-85145990D01*
X113590595Y-85372600D01*
X111673278Y-85372600D01*
X111849722Y-85205463D01*
X112081559Y-84932524D01*
X112282527Y-84636118D01*
X112374968Y-84461754D01*
X112450270Y-84319722D01*
X112582823Y-83987040D01*
X112629201Y-83820000D01*
X132031820Y-83820000D01*
X132051291Y-84017698D01*
X132051292Y-84017701D01*
X132108959Y-84207804D01*
X132144150Y-84273642D01*
X132201739Y-84381385D01*
X132202605Y-84383004D01*
X132328632Y-84536568D01*
X132482196Y-84662595D01*
X132657396Y-84756241D01*
X132847499Y-84813908D01*
X132862692Y-84815404D01*
X132914286Y-84832448D01*
X132953640Y-84869915D01*
X132973197Y-84920612D01*
X132969200Y-84974802D01*
X132940291Y-85070100D01*
X132920820Y-85267799D01*
X132940291Y-85465498D01*
X132940292Y-85465501D01*
X132997959Y-85655604D01*
X133006517Y-85671615D01*
X133088973Y-85825881D01*
X133091605Y-85830804D01*
X133217632Y-85984368D01*
X133371196Y-86110395D01*
X133546396Y-86204041D01*
X133736499Y-86261708D01*
X133934200Y-86281180D01*
X134131901Y-86261708D01*
X134322004Y-86204041D01*
X134497204Y-86110395D01*
X134650768Y-85984368D01*
X134776795Y-85830804D01*
X134870441Y-85655604D01*
X134928108Y-85465501D01*
X134947580Y-85267800D01*
X134928108Y-85070099D01*
X134870441Y-84879996D01*
X134776795Y-84704796D01*
X134650768Y-84551232D01*
X134497204Y-84425205D01*
X134497203Y-84425204D01*
X134322003Y-84331558D01*
X134131903Y-84273892D01*
X134116705Y-84272395D01*
X134065110Y-84255350D01*
X134025757Y-84217882D01*
X134006202Y-84167185D01*
X134010199Y-84112998D01*
X134039108Y-84017701D01*
X134058580Y-83820000D01*
X134039108Y-83622299D01*
X133981441Y-83432196D01*
X133887795Y-83256996D01*
X133761768Y-83103432D01*
X133608204Y-82977405D01*
X133608203Y-82977404D01*
X133513590Y-82926833D01*
X133433004Y-82883759D01*
X133242901Y-82826092D01*
X133242898Y-82826091D01*
X133045200Y-82806620D01*
X132847501Y-82826091D01*
X132784131Y-82845314D01*
X132657396Y-82883759D01*
X132657392Y-82883760D01*
X132657392Y-82883761D01*
X132482196Y-82977404D01*
X132328632Y-83103432D01*
X132202604Y-83256996D01*
X132130574Y-83391757D01*
X132108959Y-83432196D01*
X132091822Y-83488690D01*
X132051291Y-83622301D01*
X132031820Y-83820000D01*
X112629201Y-83820000D01*
X112678625Y-83641990D01*
X112678624Y-83641990D01*
X112678627Y-83641983D01*
X112736563Y-83288588D01*
X112755951Y-82931000D01*
X112738818Y-82615000D01*
X134170000Y-82615000D01*
X134170000Y-82922518D01*
X134184585Y-83070604D01*
X134242223Y-83260611D01*
X134335823Y-83435722D01*
X134461787Y-83589212D01*
X134615277Y-83715176D01*
X134790389Y-83808776D01*
X134927998Y-83850519D01*
X134928000Y-83850519D01*
X134928000Y-82922934D01*
X135411500Y-82922934D01*
X135427403Y-83084404D01*
X135428000Y-83096558D01*
X135428000Y-83850519D01*
X135428001Y-83850519D01*
X135565610Y-83808776D01*
X135735531Y-83717952D01*
X135793984Y-83703310D01*
X135852437Y-83717952D01*
X136037119Y-83816667D01*
X136120553Y-83841976D01*
X136228731Y-83874792D01*
X136428000Y-83894418D01*
X136627269Y-83874792D01*
X136818880Y-83816667D01*
X136994546Y-83722771D01*
X137053000Y-83708129D01*
X137111453Y-83722771D01*
X137287119Y-83816667D01*
X137370553Y-83841976D01*
X137478731Y-83874792D01*
X137678000Y-83894418D01*
X137877269Y-83874792D01*
X138068880Y-83816667D01*
X138244546Y-83722771D01*
X138303000Y-83708129D01*
X138361453Y-83722771D01*
X138537119Y-83816667D01*
X138620553Y-83841976D01*
X138728731Y-83874792D01*
X138928000Y-83894418D01*
X139127269Y-83874792D01*
X139318880Y-83816667D01*
X139494546Y-83722771D01*
X139553000Y-83708129D01*
X139611453Y-83722771D01*
X139787119Y-83816667D01*
X139870553Y-83841976D01*
X139978731Y-83874792D01*
X140178000Y-83894418D01*
X140377269Y-83874792D01*
X140568880Y-83816667D01*
X140744546Y-83722771D01*
X140803000Y-83708129D01*
X140861453Y-83722771D01*
X141037119Y-83816667D01*
X141120553Y-83841976D01*
X141228731Y-83874792D01*
X141428000Y-83894418D01*
X141627269Y-83874792D01*
X141818880Y-83816667D01*
X141995469Y-83722278D01*
X142150252Y-83595252D01*
X142277278Y-83440469D01*
X142371667Y-83263880D01*
X142429792Y-83072269D01*
X142444500Y-82922934D01*
X142444500Y-81807066D01*
X142429792Y-81657731D01*
X142394769Y-81542277D01*
X142371667Y-81466119D01*
X142324472Y-81377825D01*
X142277278Y-81289531D01*
X142173891Y-81163552D01*
X142150252Y-81134747D01*
X142053000Y-81054936D01*
X141995469Y-81007722D01*
X141984065Y-81001626D01*
X141818880Y-80913332D01*
X141627270Y-80855208D01*
X141428000Y-80835582D01*
X141228729Y-80855208D01*
X141037119Y-80913332D01*
X140861453Y-81007228D01*
X140803000Y-81021870D01*
X140744547Y-81007228D01*
X140568880Y-80913332D01*
X140377270Y-80855208D01*
X140178000Y-80835582D01*
X139978729Y-80855208D01*
X139787119Y-80913332D01*
X139611453Y-81007228D01*
X139553000Y-81021870D01*
X139494547Y-81007228D01*
X139318880Y-80913332D01*
X139127270Y-80855208D01*
X138928000Y-80835582D01*
X138728729Y-80855208D01*
X138537119Y-80913332D01*
X138361453Y-81007228D01*
X138303000Y-81021870D01*
X138244547Y-81007228D01*
X138068880Y-80913332D01*
X137877270Y-80855208D01*
X137678000Y-80835582D01*
X137478729Y-80855208D01*
X137287119Y-80913332D01*
X137111453Y-81007228D01*
X137053000Y-81021870D01*
X136994547Y-81007228D01*
X136818880Y-80913332D01*
X136627270Y-80855208D01*
X136428000Y-80835582D01*
X136228729Y-80855208D01*
X136037119Y-80913332D01*
X135852437Y-81012048D01*
X135793984Y-81026690D01*
X135735531Y-81012048D01*
X135565610Y-80921223D01*
X135428001Y-80879480D01*
X135428000Y-80879481D01*
X135428000Y-81633442D01*
X135427403Y-81645596D01*
X135411500Y-81807066D01*
X135411500Y-82922934D01*
X134928000Y-82922934D01*
X134928000Y-82615000D01*
X134170000Y-82615000D01*
X112738818Y-82615000D01*
X112736563Y-82573412D01*
X112678627Y-82220017D01*
X112678625Y-82220009D01*
X112649470Y-82115000D01*
X134170000Y-82115000D01*
X134928000Y-82115000D01*
X134928000Y-80879481D01*
X134927998Y-80879480D01*
X134790389Y-80921223D01*
X134615277Y-81014823D01*
X134461787Y-81140787D01*
X134335823Y-81294277D01*
X134242223Y-81469388D01*
X134184585Y-81659395D01*
X134170000Y-81807482D01*
X134170000Y-82115000D01*
X112649470Y-82115000D01*
X112582823Y-81874959D01*
X112450270Y-81542277D01*
X112282529Y-81225886D01*
X112282527Y-81225882D01*
X112081559Y-80929476D01*
X112081557Y-80929473D01*
X111849721Y-80656536D01*
X111589739Y-80410267D01*
X111589734Y-80410263D01*
X111304643Y-80193542D01*
X111210254Y-80136750D01*
X111165911Y-80090943D01*
X111150189Y-80029157D01*
X111167245Y-79967726D01*
X111212570Y-79922890D01*
X111274182Y-79906500D01*
X157178418Y-79906500D01*
X157240030Y-79922890D01*
G37*
%TD.AperFunction*%
%TD*%
M02*
