%TF.GenerationSoftware,KiCad,Pcbnew,(6.0.9)*%
%TF.CreationDate,2022-12-18T19:34:30-07:00*%
%TF.ProjectId,Flight-Computer-Lite,466c6967-6874-42d4-936f-6d7075746572,rev?*%
%TF.SameCoordinates,Original*%
%TF.FileFunction,Copper,L4,Bot*%
%TF.FilePolarity,Positive*%
%FSLAX46Y46*%
G04 Gerber Fmt 4.6, Leading zero omitted, Abs format (unit mm)*
G04 Created by KiCad (PCBNEW (6.0.9)) date 2022-12-18 19:34:30*
%MOMM*%
%LPD*%
G01*
G04 APERTURE LIST*
%TA.AperFunction,ComponentPad*%
%ADD10C,1.066800*%
%TD*%
%TA.AperFunction,ComponentPad*%
%ADD11O,1.300000X0.650000*%
%TD*%
%TA.AperFunction,ComponentPad*%
%ADD12O,0.775000X1.550000*%
%TD*%
%TA.AperFunction,ComponentPad*%
%ADD13R,1.650000X1.650000*%
%TD*%
%TA.AperFunction,ComponentPad*%
%ADD14C,1.650000*%
%TD*%
%TA.AperFunction,ComponentPad*%
%ADD15C,1.701800*%
%TD*%
%TA.AperFunction,SMDPad,CuDef*%
%ADD16C,1.524000*%
%TD*%
%TA.AperFunction,ComponentPad*%
%ADD17C,1.408000*%
%TD*%
%TA.AperFunction,ViaPad*%
%ADD18C,0.499999*%
%TD*%
%TA.AperFunction,ViaPad*%
%ADD19C,1.016000*%
%TD*%
%TA.AperFunction,Conductor*%
%ADD20C,0.177800*%
%TD*%
%TA.AperFunction,Conductor*%
%ADD21C,0.762000*%
%TD*%
%TA.AperFunction,Conductor*%
%ADD22C,0.508000*%
%TD*%
%TA.AperFunction,Conductor*%
%ADD23C,0.200000*%
%TD*%
G04 APERTURE END LIST*
D10*
%TO.P,P2,1,1*%
%TO.N,3.3V*%
X231230550Y-87706200D03*
%TO.P,P2,2,2*%
X232500550Y-87706200D03*
%TO.P,P2,3,3*%
%TO.N,Earth*%
X231230550Y-88976200D03*
%TO.P,P2,4,4*%
X232500550Y-88976200D03*
%TO.P,P2,5,5*%
X231230550Y-90246200D03*
%TO.P,P2,6,6*%
X232500550Y-90246200D03*
%TO.P,P2,7,7*%
%TO.N,SWDIO*%
X231230550Y-91516200D03*
%TO.P,P2,8,8*%
%TO.N,Earth*%
X232500550Y-91516200D03*
%TO.P,P2,9,9*%
%TO.N,SWCLK*%
X231230550Y-92786200D03*
%TO.P,P2,10,10*%
%TO.N,Earth*%
X232500550Y-92786200D03*
%TO.P,P2,11,11*%
%TO.N,unconnected-(P2-Pad11)*%
X231230550Y-94056200D03*
%TO.P,P2,12,12*%
%TO.N,Earth*%
X232500550Y-94056200D03*
%TO.P,P2,13,13*%
%TO.N,SWO*%
X231230550Y-95326200D03*
%TO.P,P2,14,14*%
%TO.N,Earth*%
X232500550Y-95326200D03*
%TO.P,P2,15,15*%
%TO.N,NRST*%
X231230550Y-96596200D03*
%TO.P,P2,16,16*%
%TO.N,Earth*%
X232500550Y-96596200D03*
%TO.P,P2,17,17*%
%TO.N,unconnected-(P2-Pad17)*%
X231230550Y-97866200D03*
%TO.P,P2,18,18*%
%TO.N,Earth*%
X232500550Y-97866200D03*
%TO.P,P2,19,19*%
%TO.N,unconnected-(P2-Pad19)*%
X231230550Y-99136200D03*
%TO.P,P2,20,20*%
%TO.N,Earth*%
X232500550Y-99136200D03*
%TD*%
D11*
%TO.P,P3,S1,SHIELD*%
%TO.N,Earth*%
X230185600Y-81021500D03*
D12*
%TO.P,P3,S2,SHIELD*%
X231185600Y-78321500D03*
X224185600Y-78321500D03*
D11*
X225185600Y-81021500D03*
%TD*%
D13*
%TO.P,P1,1,5*%
%TO.N,/PIN_SCREW*%
X156670400Y-85575200D03*
D14*
%TO.P,P1,2,6*%
%TO.N,Earth*%
X156670400Y-89075200D03*
%TD*%
D15*
%TO.P,P4,1,5*%
%TO.N,VIN*%
X180758803Y-83500501D03*
%TO.P,P4,2,6*%
%TO.N,VIN_SW*%
X177258800Y-83500501D03*
%TO.P,P4,3,5*%
X173758799Y-83500501D03*
%TO.P,P4,4,6*%
%TO.N,Net-(P4-Pad4)*%
X170258798Y-83500501D03*
%TO.P,P4,5,5*%
%TO.N,VIN_SW*%
X166758798Y-83500501D03*
%TO.P,P4,6,6*%
%TO.N,Net-(P4-Pad6)*%
X163258797Y-83500501D03*
%TD*%
D16*
%TO.P,TP1,1*%
%TO.N,3.3V*%
X162814000Y-100482400D03*
%TD*%
D17*
%TO.P,BZ1,1,-*%
%TO.N,BEEP*%
X216265600Y-101625400D03*
%TO.P,BZ1,2,+*%
%TO.N,Earth*%
X223865600Y-101625400D03*
%TD*%
D18*
%TO.N,/Peripherals/D-*%
X222846900Y-89928700D03*
%TO.N,SWO*%
X202692000Y-84201000D03*
%TO.N,Earth*%
X196742900Y-86695700D03*
%TO.N,~{DROGUE_CONT}*%
X196088000Y-86156800D03*
%TO.N,~{MAIN_CONT}*%
X180543200Y-91694000D03*
X184353200Y-88696800D03*
%TO.N,BP_SDA*%
X186639200Y-84658200D03*
%TO.N,~{SWITCH}*%
X202641200Y-82753200D03*
X183464200Y-91211400D03*
%TO.N,~{DROGUE_CONT}*%
X184533600Y-94465200D03*
%TO.N,3.3V*%
X182143400Y-92481400D03*
%TO.N,Earth*%
X180009800Y-94513400D03*
%TO.N,VCOMP*%
X180111400Y-92608400D03*
X173278800Y-93040200D03*
X170383200Y-91516200D03*
%TO.N,Net-(P4-Pad4)*%
X171932600Y-92125800D03*
%TO.N,Net-(P4-Pad6)*%
X177825400Y-94335600D03*
%TO.N,3.3V*%
X176174400Y-96647000D03*
%TO.N,Earth*%
X167640000Y-93116400D03*
D19*
X165468300Y-101942900D03*
%TO.N,3.3V*%
X159816800Y-97485200D03*
D18*
X167662800Y-94993400D03*
%TO.N,Earth*%
X172999400Y-95351600D03*
%TO.N,3.3V*%
X163604000Y-85930800D03*
%TO.N,Earth*%
X189877700Y-94932500D03*
X182092600Y-85953600D03*
%TO.N,BP_SDA*%
X199204500Y-82440700D03*
%TO.N,3.3V*%
X183730000Y-78931400D03*
X188773800Y-79602600D03*
%TO.N,Earth*%
X184886600Y-82042000D03*
X186588400Y-82423000D03*
X189992000Y-82067400D03*
%TO.N,3.3V*%
X188544200Y-83718400D03*
%TO.N,Earth*%
X191832600Y-90691600D03*
X189128400Y-86461600D03*
%TO.N,3.3V*%
X195834000Y-87426800D03*
D19*
%TO.N,Earth*%
X178257200Y-88595200D03*
X169011600Y-88646000D03*
%TO.N,VIN*%
X221164430Y-77361770D03*
D18*
%TO.N,3.3V*%
X192608200Y-79629000D03*
%TO.N,Earth*%
X191211200Y-78232000D03*
X196621400Y-78968600D03*
%TO.N,USB_DETECT*%
X211404200Y-92151200D03*
%TO.N,3.3V*%
X208270800Y-95868800D03*
%TO.N,Earth*%
X208026000Y-98247200D03*
X209959000Y-106403200D03*
%TO.N,FLASH_SCK*%
X208457800Y-102819200D03*
X209296000Y-100457000D03*
%TO.N,3.3V*%
X204038200Y-102235000D03*
X194640200Y-103555800D03*
X192646800Y-92188800D03*
X196204500Y-97140100D03*
%TO.N,Earth*%
X181559401Y-102463399D03*
X194501400Y-101103800D03*
X192938400Y-106095800D03*
%TO.N,USB_DETECT*%
X217525600Y-95580200D03*
%TO.N,3.3V*%
X226796600Y-103555800D03*
%TO.N,NRST*%
X196146800Y-88688800D03*
%TO.N,3.3V*%
X227200400Y-93322200D03*
%TO.N,SWCLK*%
X206578200Y-83540600D03*
%TO.N,SWDIO*%
X207137000Y-82854800D03*
%TO.N,TX_USB*%
X216738200Y-93802200D03*
X219700000Y-94650400D03*
%TO.N,~{USB_RST}*%
X211048600Y-84429600D03*
X216989600Y-86007000D03*
%TO.N,Earth*%
X215747600Y-88188800D03*
%TO.N,3.3V*%
X217881200Y-84988400D03*
X210724000Y-82188800D03*
%TO.N,Earth*%
X213055200Y-81915000D03*
X208014200Y-82688800D03*
%TO.N,5V*%
X225272600Y-84353400D03*
X229717600Y-84328000D03*
%TO.N,Earth*%
X226034600Y-87985600D03*
X228066600Y-86995000D03*
%TO.N,/Peripherals/D-*%
X223926400Y-90957400D03*
%TD*%
D20*
%TO.N,SWO*%
X202692000Y-84201000D02*
X209931000Y-84201000D01*
X209931000Y-84201000D02*
X212598000Y-86868000D01*
X212598000Y-86868000D02*
X221765620Y-86868000D01*
X221765620Y-86868000D02*
X230147620Y-95250000D01*
X230147620Y-95250000D02*
X230987600Y-95250000D01*
D21*
%TO.N,3.3V*%
X159816800Y-97485200D02*
X162814000Y-100482400D01*
D20*
%TO.N,~{DROGUE_CONT}*%
X196088000Y-86156800D02*
X192842000Y-86156800D01*
X192842000Y-86156800D02*
X184533600Y-94465200D01*
%TO.N,~{MAIN_CONT}*%
X180543200Y-91694000D02*
X183540400Y-88696800D01*
X183540400Y-88696800D02*
X184353200Y-88696800D01*
%TO.N,BP_SDA*%
X186639200Y-84658200D02*
X188117899Y-83179501D01*
X188117899Y-83179501D02*
X198465699Y-83179501D01*
X198465699Y-83179501D02*
X199204500Y-82440700D01*
%TO.N,~{SWITCH}*%
X183464200Y-91211400D02*
X185724800Y-91211400D01*
X185724800Y-91211400D02*
X191846200Y-85090000D01*
X191846200Y-85090000D02*
X200304400Y-85090000D01*
X200304400Y-85090000D02*
X202641200Y-82753200D01*
%TO.N,VCOMP*%
X173278800Y-93040200D02*
X179679600Y-93040200D01*
X179679600Y-93040200D02*
X180111400Y-92608400D01*
X170383200Y-91516200D02*
X171907200Y-93040200D01*
X171907200Y-93040200D02*
X173278800Y-93040200D01*
%TO.N,Net-(P4-Pad4)*%
X171932600Y-91922600D02*
X171932600Y-92125800D01*
X171932600Y-91922600D02*
X171958000Y-85242400D01*
X171958000Y-85242400D02*
X170357800Y-83642200D01*
%TO.N,Net-(P4-Pad6)*%
X177825400Y-94335600D02*
X171754800Y-94335600D01*
X171754800Y-94335600D02*
X166014400Y-88595200D01*
X166014400Y-88595200D02*
X166014400Y-86360000D01*
X166014400Y-86360000D02*
X163220400Y-83566000D01*
D21*
%TO.N,VIN*%
X180758803Y-83500501D02*
X183284104Y-80975200D01*
X183284104Y-80975200D02*
X210997800Y-80975200D01*
X210997800Y-80975200D02*
X214611230Y-77361770D01*
X214611230Y-77361770D02*
X221164430Y-77361770D01*
D20*
%TO.N,USB_DETECT*%
X211404200Y-92151200D02*
X211404200Y-93751400D01*
X211404200Y-93751400D02*
X213233000Y-95580200D01*
X213233000Y-95580200D02*
X217525600Y-95580200D01*
%TO.N,FLASH_SCK*%
X208457800Y-102819200D02*
X208457800Y-101295200D01*
X208457800Y-101295200D02*
X209296000Y-100457000D01*
%TO.N,NRST*%
X221538800Y-90805000D02*
X226695000Y-95961200D01*
X231230550Y-96596200D02*
X227330000Y-96596200D01*
X227330000Y-96596200D02*
X226695000Y-95961200D01*
X196146800Y-88688800D02*
X213199600Y-88688800D01*
X213199600Y-88688800D02*
X215315800Y-90805000D01*
X215315800Y-90805000D02*
X221538800Y-90805000D01*
%TO.N,SWCLK*%
X207351500Y-83605500D02*
X219037410Y-83605500D01*
X228676200Y-92786200D02*
X231140000Y-92786200D01*
X207264000Y-83540600D02*
X207340200Y-83616800D01*
X219037410Y-83605500D02*
X228218110Y-92786200D01*
X206578200Y-83540600D02*
X207264000Y-83540600D01*
X228218110Y-92786200D02*
X228676200Y-92786200D01*
%TO.N,SWDIO*%
X207137000Y-82854800D02*
X207509900Y-83227700D01*
X207509900Y-83227700D02*
X219193900Y-83227700D01*
X219193900Y-83227700D02*
X227507800Y-91541600D01*
X227507800Y-91541600D02*
X231267000Y-91541600D01*
%TO.N,TX_USB*%
X216738200Y-93802200D02*
X218851800Y-93802200D01*
X218851800Y-93802200D02*
X219700000Y-94650400D01*
%TO.N,~{USB_RST}*%
X211048600Y-84429600D02*
X215412200Y-84429600D01*
X215412200Y-84429600D02*
X216989600Y-86007000D01*
D22*
%TO.N,5V*%
X225272600Y-84353400D02*
X229692200Y-84353400D01*
X229692200Y-84353400D02*
X229717600Y-84328000D01*
D23*
%TO.N,/Peripherals/D-*%
X223926400Y-90957400D02*
X222872300Y-89903300D01*
%TD*%
%TA.AperFunction,Conductor*%
%TO.N,Earth*%
G36*
X213465688Y-77033302D02*
G01*
X213512181Y-77086958D01*
X213522285Y-77157232D01*
X213492791Y-77221812D01*
X213486662Y-77228395D01*
X210666262Y-80048795D01*
X210603950Y-80082821D01*
X210577167Y-80085700D01*
X193428789Y-80085700D01*
X193360668Y-80065698D01*
X193314175Y-80012042D01*
X193304071Y-79941768D01*
X193311001Y-79914957D01*
X193345017Y-79825409D01*
X193345018Y-79825406D01*
X193347518Y-79818824D01*
X193371200Y-79650313D01*
X193371498Y-79629000D01*
X193359599Y-79522913D01*
X193353315Y-79466888D01*
X193353314Y-79466885D01*
X193352530Y-79459892D01*
X193296567Y-79299190D01*
X193290582Y-79289611D01*
X193210125Y-79160853D01*
X193206392Y-79154879D01*
X193121064Y-79068954D01*
X193091449Y-79039131D01*
X193091445Y-79039128D01*
X193086485Y-79034133D01*
X192942808Y-78942952D01*
X192782500Y-78885869D01*
X192613529Y-78865721D01*
X192606526Y-78866457D01*
X192606525Y-78866457D01*
X192451301Y-78882771D01*
X192451297Y-78882772D01*
X192444293Y-78883508D01*
X192437622Y-78885779D01*
X192289874Y-78936076D01*
X192289871Y-78936077D01*
X192283204Y-78938347D01*
X192277206Y-78942037D01*
X192277204Y-78942038D01*
X192269579Y-78946729D01*
X192138267Y-79027513D01*
X192133236Y-79032440D01*
X192133233Y-79032442D01*
X192083686Y-79080962D01*
X192016686Y-79146573D01*
X191924505Y-79289611D01*
X191922096Y-79296231D01*
X191922095Y-79296232D01*
X191883528Y-79402193D01*
X191866304Y-79449516D01*
X191844976Y-79618343D01*
X191861582Y-79787699D01*
X191863806Y-79794384D01*
X191863806Y-79794385D01*
X191905569Y-79919928D01*
X191908092Y-79990880D01*
X191871855Y-80051932D01*
X191808363Y-80083702D01*
X191786011Y-80085700D01*
X189584360Y-80085700D01*
X189516239Y-80065698D01*
X189469746Y-80012042D01*
X189459642Y-79941768D01*
X189466572Y-79914957D01*
X189513118Y-79792424D01*
X189536800Y-79623913D01*
X189537098Y-79602600D01*
X189521091Y-79459892D01*
X189518915Y-79440488D01*
X189518914Y-79440485D01*
X189518130Y-79433492D01*
X189462167Y-79272790D01*
X189456182Y-79263211D01*
X189375725Y-79134453D01*
X189371992Y-79128479D01*
X189278302Y-79034133D01*
X189257049Y-79012731D01*
X189257045Y-79012728D01*
X189252085Y-79007733D01*
X189108408Y-78916552D01*
X188948100Y-78859469D01*
X188779129Y-78839321D01*
X188772126Y-78840057D01*
X188772125Y-78840057D01*
X188616901Y-78856371D01*
X188616897Y-78856372D01*
X188609893Y-78857108D01*
X188603222Y-78859379D01*
X188455474Y-78909676D01*
X188455471Y-78909677D01*
X188448804Y-78911947D01*
X188442806Y-78915637D01*
X188442804Y-78915638D01*
X188410745Y-78935361D01*
X188303867Y-79001113D01*
X188298836Y-79006040D01*
X188298833Y-79006042D01*
X188270148Y-79034133D01*
X188182286Y-79120173D01*
X188090105Y-79263211D01*
X188087696Y-79269831D01*
X188087695Y-79269832D01*
X188086280Y-79273721D01*
X188031904Y-79423116D01*
X188010576Y-79591943D01*
X188027182Y-79761299D01*
X188048509Y-79825409D01*
X188079951Y-79919928D01*
X188082474Y-79990880D01*
X188046237Y-80051932D01*
X187982745Y-80083702D01*
X187960393Y-80085700D01*
X183364029Y-80085700D01*
X183344318Y-80084149D01*
X183337431Y-80083058D01*
X183337429Y-80083058D01*
X183330914Y-80082026D01*
X183324326Y-80082371D01*
X183324322Y-80082371D01*
X183264105Y-80085527D01*
X183257511Y-80085700D01*
X183237484Y-80085700D01*
X183234213Y-80086044D01*
X183234209Y-80086044D01*
X183217565Y-80087793D01*
X183210991Y-80088310D01*
X183150788Y-80091465D01*
X183150786Y-80091465D01*
X183144189Y-80091811D01*
X183131076Y-80095325D01*
X183111634Y-80098928D01*
X183110392Y-80099058D01*
X183104719Y-80099654D01*
X183104715Y-80099655D01*
X183098148Y-80100345D01*
X183043123Y-80118223D01*
X183034522Y-80121018D01*
X183028198Y-80122891D01*
X182963580Y-80140206D01*
X182951488Y-80146367D01*
X182933229Y-80153930D01*
X182920319Y-80158125D01*
X182868129Y-80188257D01*
X182862380Y-80191576D01*
X182856584Y-80194723D01*
X182796979Y-80225093D01*
X182789473Y-80231171D01*
X182786434Y-80233632D01*
X182770149Y-80244825D01*
X182764102Y-80248316D01*
X182764099Y-80248319D01*
X182758389Y-80251615D01*
X182753489Y-80256027D01*
X182753485Y-80256030D01*
X182708679Y-80296375D01*
X182703658Y-80300663D01*
X182688098Y-80313263D01*
X182673951Y-80327410D01*
X182669167Y-80331951D01*
X182639382Y-80358770D01*
X182619435Y-80376730D01*
X182611452Y-80387718D01*
X182598615Y-80402746D01*
X180896752Y-82104609D01*
X180834440Y-82138635D01*
X180806118Y-82141505D01*
X180668821Y-82139828D01*
X180668819Y-82139828D01*
X180663651Y-82139765D01*
X180442685Y-82173577D01*
X180318941Y-82214023D01*
X180235128Y-82241417D01*
X180235126Y-82241418D01*
X180230209Y-82243025D01*
X180225623Y-82245412D01*
X180225619Y-82245414D01*
X180042981Y-82340490D01*
X180031928Y-82346244D01*
X180027786Y-82349354D01*
X179872530Y-82465923D01*
X179853168Y-82480460D01*
X179698730Y-82642071D01*
X179695816Y-82646343D01*
X179695815Y-82646344D01*
X179680567Y-82668697D01*
X179572761Y-82826735D01*
X179559217Y-82855914D01*
X179515725Y-82949609D01*
X179478643Y-83029494D01*
X179418905Y-83244902D01*
X179395151Y-83467174D01*
X179395448Y-83472326D01*
X179395448Y-83472330D01*
X179397882Y-83514533D01*
X179408019Y-83690341D01*
X179409156Y-83695387D01*
X179409157Y-83695393D01*
X179424721Y-83764454D01*
X179457163Y-83908410D01*
X179499659Y-84013066D01*
X179519384Y-84061642D01*
X179541263Y-84115525D01*
X179543968Y-84119940D01*
X179543969Y-84119941D01*
X179569016Y-84160814D01*
X179658062Y-84306122D01*
X179804421Y-84475084D01*
X179808396Y-84478384D01*
X179808399Y-84478387D01*
X179851878Y-84514484D01*
X179976411Y-84617873D01*
X180169413Y-84730654D01*
X180174233Y-84732494D01*
X180174238Y-84732497D01*
X180277693Y-84772002D01*
X180378243Y-84810398D01*
X180383311Y-84811429D01*
X180383314Y-84811430D01*
X180456343Y-84826288D01*
X180597293Y-84854965D01*
X180602466Y-84855155D01*
X180602469Y-84855155D01*
X180815517Y-84862967D01*
X180815521Y-84862967D01*
X180820681Y-84863156D01*
X180825801Y-84862500D01*
X180825803Y-84862500D01*
X181037279Y-84835409D01*
X181037280Y-84835409D01*
X181042407Y-84834752D01*
X181048774Y-84832842D01*
X181251563Y-84772002D01*
X181256516Y-84770516D01*
X181261155Y-84768243D01*
X181261161Y-84768241D01*
X181423493Y-84688715D01*
X181457260Y-84672173D01*
X181590846Y-84576887D01*
X181635033Y-84545369D01*
X181635038Y-84545365D01*
X181639245Y-84542364D01*
X181797586Y-84384575D01*
X181928030Y-84203043D01*
X181973654Y-84110731D01*
X182024779Y-84007287D01*
X182024780Y-84007285D01*
X182027073Y-84002645D01*
X182092056Y-83788760D01*
X182121234Y-83567135D01*
X182121316Y-83563785D01*
X182122780Y-83503866D01*
X182122780Y-83503862D01*
X182122862Y-83500501D01*
X182119582Y-83460603D01*
X182133935Y-83391072D01*
X182156063Y-83361184D01*
X183615642Y-81901605D01*
X183677954Y-81867579D01*
X183704737Y-81864700D01*
X198442189Y-81864700D01*
X198510310Y-81884702D01*
X198556803Y-81938358D01*
X198566907Y-82008632D01*
X198548101Y-82058954D01*
X198524623Y-82095385D01*
X198524620Y-82095392D01*
X198520805Y-82101311D01*
X198518396Y-82107931D01*
X198518395Y-82107932D01*
X198494787Y-82172795D01*
X198462604Y-82261216D01*
X198461721Y-82268204D01*
X198461721Y-82268205D01*
X198456945Y-82306012D01*
X198428563Y-82371089D01*
X198421034Y-82379315D01*
X198255153Y-82545196D01*
X198192841Y-82579222D01*
X198166058Y-82582101D01*
X188165313Y-82582101D01*
X188148866Y-82581023D01*
X188126087Y-82578024D01*
X188117899Y-82576946D01*
X187980958Y-82594975D01*
X187961946Y-82597478D01*
X187816622Y-82657673D01*
X187691828Y-82753430D01*
X187686800Y-82759983D01*
X187672809Y-82778216D01*
X187661942Y-82790607D01*
X186578973Y-83873576D01*
X186516661Y-83907602D01*
X186503051Y-83909791D01*
X186497903Y-83910332D01*
X186482301Y-83911971D01*
X186482297Y-83911972D01*
X186475293Y-83912708D01*
X186468622Y-83914979D01*
X186320874Y-83965276D01*
X186320871Y-83965277D01*
X186314204Y-83967547D01*
X186308206Y-83971237D01*
X186308204Y-83971238D01*
X186264237Y-83998287D01*
X186169267Y-84056713D01*
X186164236Y-84061640D01*
X186164233Y-84061642D01*
X186114105Y-84110731D01*
X186047686Y-84175773D01*
X185955505Y-84318811D01*
X185953096Y-84325431D01*
X185953095Y-84325432D01*
X185900048Y-84471177D01*
X185897304Y-84478716D01*
X185875976Y-84647543D01*
X185892582Y-84816899D01*
X185894806Y-84823584D01*
X185894806Y-84823585D01*
X185898027Y-84833267D01*
X185946295Y-84978367D01*
X185949942Y-84984389D01*
X185949943Y-84984391D01*
X185998099Y-85063905D01*
X186034447Y-85123923D01*
X186039343Y-85128993D01*
X186056828Y-85147099D01*
X186152656Y-85246331D01*
X186295046Y-85339509D01*
X186454542Y-85398825D01*
X186461523Y-85399756D01*
X186461525Y-85399757D01*
X186507626Y-85405908D01*
X186623215Y-85421331D01*
X186630226Y-85420693D01*
X186630230Y-85420693D01*
X186785661Y-85406547D01*
X186792682Y-85405908D01*
X186799384Y-85403730D01*
X186799386Y-85403730D01*
X186947823Y-85355500D01*
X186947826Y-85355499D01*
X186954522Y-85353323D01*
X187059563Y-85290706D01*
X187094634Y-85269800D01*
X187094637Y-85269798D01*
X187100689Y-85266190D01*
X187223920Y-85148838D01*
X187246036Y-85115552D01*
X187288172Y-85052132D01*
X187318090Y-85007102D01*
X187326717Y-84984391D01*
X187376017Y-84854609D01*
X187376018Y-84854606D01*
X187378518Y-84848024D01*
X187380306Y-84835305D01*
X187386434Y-84791697D01*
X187415722Y-84727023D01*
X187422113Y-84720138D01*
X187857960Y-84284291D01*
X187920272Y-84250265D01*
X187991087Y-84255330D01*
X188037689Y-84285856D01*
X188047904Y-84296433D01*
X188057656Y-84306531D01*
X188200046Y-84399709D01*
X188359542Y-84459025D01*
X188366523Y-84459956D01*
X188366525Y-84459957D01*
X188412626Y-84466108D01*
X188528215Y-84481531D01*
X188535226Y-84480893D01*
X188535230Y-84480893D01*
X188690661Y-84466747D01*
X188697682Y-84466108D01*
X188704384Y-84463930D01*
X188704386Y-84463930D01*
X188852823Y-84415700D01*
X188852826Y-84415699D01*
X188859522Y-84413523D01*
X188957269Y-84355254D01*
X188999634Y-84330000D01*
X188999637Y-84329998D01*
X189005689Y-84326390D01*
X189128920Y-84209038D01*
X189135986Y-84198404D01*
X189191050Y-84115525D01*
X189223090Y-84067302D01*
X189228515Y-84053022D01*
X189281016Y-83914810D01*
X189283518Y-83908224D01*
X189284498Y-83901249D01*
X189284500Y-83901242D01*
X189286732Y-83885363D01*
X189316021Y-83820690D01*
X189375625Y-83782118D01*
X189411505Y-83776901D01*
X198418285Y-83776901D01*
X198434732Y-83777979D01*
X198465699Y-83782056D01*
X198504854Y-83776901D01*
X198621652Y-83761524D01*
X198766976Y-83701329D01*
X198891770Y-83605572D01*
X198910789Y-83580786D01*
X198921656Y-83568395D01*
X199263750Y-83226301D01*
X199326062Y-83192275D01*
X199341424Y-83189915D01*
X199350961Y-83189047D01*
X199357982Y-83188408D01*
X199364684Y-83186230D01*
X199364686Y-83186230D01*
X199513123Y-83138000D01*
X199513126Y-83137999D01*
X199519822Y-83135823D01*
X199637079Y-83065924D01*
X199659934Y-83052300D01*
X199659937Y-83052298D01*
X199665989Y-83048690D01*
X199789220Y-82931338D01*
X199883390Y-82789602D01*
X199885890Y-82783021D01*
X199941317Y-82637109D01*
X199941318Y-82637106D01*
X199943818Y-82630524D01*
X199967500Y-82462013D01*
X199967798Y-82440700D01*
X199948830Y-82271592D01*
X199892867Y-82110890D01*
X199859486Y-82057469D01*
X199840351Y-81989100D01*
X199861217Y-81921239D01*
X199915459Y-81875431D01*
X199966341Y-81864700D01*
X202192525Y-81864700D01*
X202260646Y-81884702D01*
X202307139Y-81938358D01*
X202317243Y-82008632D01*
X202287749Y-82073212D01*
X202258547Y-82098018D01*
X202171267Y-82151713D01*
X202166236Y-82156640D01*
X202166233Y-82156642D01*
X202129350Y-82192761D01*
X202049686Y-82270773D01*
X201957505Y-82413811D01*
X201955096Y-82420431D01*
X201955095Y-82420432D01*
X201917039Y-82524990D01*
X201899304Y-82573716D01*
X201896422Y-82596533D01*
X201893645Y-82618512D01*
X201865263Y-82683589D01*
X201857734Y-82691815D01*
X200093854Y-84455695D01*
X200031542Y-84489721D01*
X200004759Y-84492600D01*
X191893614Y-84492600D01*
X191877167Y-84491522D01*
X191854388Y-84488523D01*
X191846200Y-84487445D01*
X191733770Y-84502247D01*
X191690247Y-84507977D01*
X191544923Y-84568172D01*
X191484458Y-84614568D01*
X191432346Y-84654555D01*
X191420129Y-84663929D01*
X191401131Y-84688688D01*
X191401110Y-84688715D01*
X191390243Y-84701106D01*
X185514254Y-90577095D01*
X185451942Y-90611121D01*
X185425159Y-90614000D01*
X183975100Y-90614000D01*
X183907586Y-90594385D01*
X183804762Y-90529130D01*
X183804758Y-90529128D01*
X183798808Y-90525352D01*
X183638500Y-90468269D01*
X183469529Y-90448121D01*
X183462526Y-90448857D01*
X183462525Y-90448857D01*
X183307301Y-90465171D01*
X183307297Y-90465172D01*
X183300293Y-90465908D01*
X183293622Y-90468179D01*
X183145874Y-90518476D01*
X183145871Y-90518477D01*
X183139204Y-90520747D01*
X183133206Y-90524437D01*
X183133204Y-90524438D01*
X183066736Y-90565330D01*
X182994267Y-90609913D01*
X182989236Y-90614840D01*
X182989233Y-90614842D01*
X182936106Y-90666868D01*
X182872686Y-90728973D01*
X182780505Y-90872011D01*
X182778096Y-90878631D01*
X182778095Y-90878632D01*
X182749426Y-90957400D01*
X182722304Y-91031916D01*
X182700976Y-91200743D01*
X182717582Y-91370099D01*
X182719806Y-91376784D01*
X182719806Y-91376785D01*
X182723570Y-91388101D01*
X182771295Y-91531567D01*
X182774942Y-91537589D01*
X182774943Y-91537591D01*
X182784008Y-91552559D01*
X182859447Y-91677123D01*
X182977656Y-91799531D01*
X183120046Y-91892709D01*
X183279542Y-91952025D01*
X183286523Y-91952956D01*
X183286525Y-91952957D01*
X183332626Y-91959108D01*
X183448215Y-91974531D01*
X183455226Y-91973893D01*
X183455230Y-91973893D01*
X183610661Y-91959747D01*
X183617682Y-91959108D01*
X183624384Y-91956930D01*
X183624386Y-91956930D01*
X183772823Y-91908700D01*
X183772826Y-91908699D01*
X183779522Y-91906523D01*
X183911170Y-91828045D01*
X183913643Y-91826571D01*
X183978160Y-91808800D01*
X185677386Y-91808800D01*
X185693833Y-91809878D01*
X185724800Y-91813955D01*
X185763955Y-91808800D01*
X185880753Y-91793423D01*
X186026077Y-91733228D01*
X186131852Y-91652065D01*
X186144320Y-91642498D01*
X186144321Y-91642497D01*
X186150871Y-91637471D01*
X186169890Y-91612685D01*
X186180757Y-91600294D01*
X192056746Y-85724305D01*
X192119058Y-85690279D01*
X192145841Y-85687400D01*
X192162359Y-85687400D01*
X192230480Y-85707402D01*
X192276973Y-85761058D01*
X192287077Y-85831332D01*
X192257583Y-85895912D01*
X192251454Y-85902495D01*
X184473373Y-93680576D01*
X184411061Y-93714602D01*
X184397451Y-93716791D01*
X184392303Y-93717332D01*
X184376701Y-93718971D01*
X184376697Y-93718972D01*
X184369693Y-93719708D01*
X184363022Y-93721979D01*
X184215274Y-93772276D01*
X184215271Y-93772277D01*
X184208604Y-93774547D01*
X184202606Y-93778237D01*
X184202604Y-93778238D01*
X184146363Y-93812838D01*
X184063667Y-93863713D01*
X184058636Y-93868640D01*
X184058633Y-93868642D01*
X184027465Y-93899164D01*
X183942086Y-93982773D01*
X183849905Y-94125811D01*
X183847496Y-94132431D01*
X183847495Y-94132432D01*
X183811939Y-94230121D01*
X183791704Y-94285716D01*
X183770376Y-94454543D01*
X183786982Y-94623899D01*
X183789206Y-94630584D01*
X183789206Y-94630585D01*
X183804188Y-94675623D01*
X183840695Y-94785367D01*
X183844342Y-94791389D01*
X183844343Y-94791391D01*
X183902413Y-94887276D01*
X183928847Y-94930923D01*
X183933743Y-94935993D01*
X183950715Y-94953568D01*
X184047056Y-95053331D01*
X184189446Y-95146509D01*
X184348942Y-95205825D01*
X184355923Y-95206756D01*
X184355925Y-95206757D01*
X184402026Y-95212908D01*
X184517615Y-95228331D01*
X184524626Y-95227693D01*
X184524630Y-95227693D01*
X184680061Y-95213547D01*
X184687082Y-95212908D01*
X184693784Y-95210730D01*
X184693786Y-95210730D01*
X184842223Y-95162500D01*
X184842226Y-95162499D01*
X184848922Y-95160323D01*
X184940853Y-95105521D01*
X184989034Y-95076800D01*
X184989037Y-95076798D01*
X184995089Y-95073190D01*
X185118320Y-94955838D01*
X185123048Y-94948723D01*
X185165958Y-94884138D01*
X185212490Y-94814102D01*
X185221117Y-94791391D01*
X185270417Y-94661609D01*
X185270418Y-94661606D01*
X185272918Y-94655024D01*
X185280834Y-94598697D01*
X185310122Y-94534023D01*
X185316513Y-94527138D01*
X187665508Y-92178143D01*
X191883576Y-92178143D01*
X191900182Y-92347499D01*
X191953895Y-92508967D01*
X191957542Y-92514989D01*
X191957543Y-92514991D01*
X191974848Y-92543564D01*
X192042047Y-92654523D01*
X192046943Y-92659593D01*
X192064534Y-92677809D01*
X192160256Y-92776931D01*
X192302646Y-92870109D01*
X192462142Y-92929425D01*
X192469123Y-92930356D01*
X192469125Y-92930357D01*
X192515226Y-92936508D01*
X192630815Y-92951931D01*
X192637826Y-92951293D01*
X192637830Y-92951293D01*
X192793261Y-92937147D01*
X192800282Y-92936508D01*
X192806984Y-92934330D01*
X192806986Y-92934330D01*
X192955423Y-92886100D01*
X192955426Y-92886099D01*
X192962122Y-92883923D01*
X193036184Y-92839773D01*
X193102234Y-92800400D01*
X193102237Y-92800398D01*
X193108289Y-92796790D01*
X193231520Y-92679438D01*
X193236978Y-92671224D01*
X193321795Y-92543564D01*
X193325690Y-92537702D01*
X193334317Y-92514991D01*
X193383617Y-92385209D01*
X193383618Y-92385206D01*
X193386118Y-92378624D01*
X193409800Y-92210113D01*
X193410098Y-92188800D01*
X193404685Y-92140543D01*
X210640976Y-92140543D01*
X210657582Y-92309899D01*
X210711295Y-92471367D01*
X210714942Y-92477389D01*
X210714943Y-92477391D01*
X210788576Y-92598973D01*
X210806800Y-92664244D01*
X210806800Y-93703986D01*
X210805722Y-93720433D01*
X210801645Y-93751400D01*
X210806800Y-93790555D01*
X210822177Y-93907353D01*
X210882372Y-94052677D01*
X210895594Y-94069908D01*
X210969705Y-94166492D01*
X210978129Y-94177471D01*
X210984682Y-94182499D01*
X211002915Y-94196490D01*
X211015306Y-94207357D01*
X212777043Y-95969095D01*
X212787911Y-95981487D01*
X212801903Y-95999722D01*
X212801906Y-95999725D01*
X212806929Y-96006271D01*
X212838260Y-96030312D01*
X212838261Y-96030313D01*
X212931723Y-96102028D01*
X213077047Y-96162223D01*
X213233000Y-96182756D01*
X213241188Y-96181678D01*
X213263975Y-96178678D01*
X213280422Y-96177600D01*
X217015658Y-96177600D01*
X217084651Y-96198168D01*
X217181446Y-96261509D01*
X217340942Y-96320825D01*
X217347923Y-96321756D01*
X217347925Y-96321757D01*
X217394026Y-96327908D01*
X217509615Y-96343331D01*
X217516626Y-96342693D01*
X217516630Y-96342693D01*
X217672061Y-96328547D01*
X217679082Y-96327908D01*
X217685784Y-96325730D01*
X217685786Y-96325730D01*
X217834223Y-96277500D01*
X217834226Y-96277499D01*
X217840922Y-96275323D01*
X217970351Y-96198168D01*
X217981034Y-96191800D01*
X217981037Y-96191798D01*
X217987089Y-96188190D01*
X218110320Y-96070838D01*
X218129599Y-96041822D01*
X218180819Y-95964729D01*
X218204490Y-95929102D01*
X218228781Y-95865155D01*
X218262417Y-95776609D01*
X218262418Y-95776606D01*
X218264918Y-95770024D01*
X218288600Y-95601513D01*
X218288717Y-95593164D01*
X218288843Y-95584161D01*
X218288843Y-95584155D01*
X218288898Y-95580200D01*
X218275886Y-95464193D01*
X218270715Y-95418088D01*
X218270714Y-95418085D01*
X218269930Y-95411092D01*
X218213967Y-95250390D01*
X218208968Y-95242389D01*
X218127525Y-95112053D01*
X218123792Y-95106079D01*
X218063839Y-95045706D01*
X218008849Y-94990331D01*
X218008845Y-94990328D01*
X218003885Y-94985333D01*
X217860208Y-94894152D01*
X217699900Y-94837069D01*
X217530929Y-94816921D01*
X217523926Y-94817657D01*
X217523925Y-94817657D01*
X217368701Y-94833971D01*
X217368697Y-94833972D01*
X217361693Y-94834708D01*
X217355022Y-94836979D01*
X217207274Y-94887276D01*
X217207271Y-94887277D01*
X217200604Y-94889547D01*
X217194608Y-94893236D01*
X217194597Y-94893241D01*
X217079391Y-94964117D01*
X217013369Y-94982800D01*
X213532642Y-94982800D01*
X213464521Y-94962798D01*
X213443547Y-94945895D01*
X212289194Y-93791543D01*
X215974976Y-93791543D01*
X215991582Y-93960899D01*
X216045295Y-94122367D01*
X216048942Y-94128389D01*
X216048943Y-94128391D01*
X216093229Y-94201516D01*
X216133447Y-94267923D01*
X216251656Y-94390331D01*
X216394046Y-94483509D01*
X216553542Y-94542825D01*
X216560523Y-94543756D01*
X216560525Y-94543757D01*
X216606626Y-94549908D01*
X216722215Y-94565331D01*
X216729226Y-94564693D01*
X216729230Y-94564693D01*
X216884661Y-94550547D01*
X216891682Y-94549908D01*
X216898384Y-94547730D01*
X216898386Y-94547730D01*
X217046823Y-94499500D01*
X217046826Y-94499499D01*
X217053522Y-94497323D01*
X217187643Y-94417371D01*
X217252160Y-94399600D01*
X218552159Y-94399600D01*
X218620280Y-94419602D01*
X218641254Y-94436505D01*
X218914907Y-94710158D01*
X218948933Y-94772470D01*
X218951211Y-94786957D01*
X218953382Y-94809099D01*
X219007095Y-94970567D01*
X219010742Y-94976589D01*
X219010743Y-94976591D01*
X219028048Y-95005164D01*
X219095247Y-95116123D01*
X219100143Y-95121193D01*
X219119307Y-95141038D01*
X219213456Y-95238531D01*
X219355846Y-95331709D01*
X219515342Y-95391025D01*
X219522323Y-95391956D01*
X219522325Y-95391957D01*
X219568426Y-95398108D01*
X219684015Y-95413531D01*
X219691026Y-95412893D01*
X219691030Y-95412893D01*
X219846461Y-95398747D01*
X219853482Y-95398108D01*
X219860184Y-95395930D01*
X219860186Y-95395930D01*
X220008623Y-95347700D01*
X220008626Y-95347699D01*
X220015322Y-95345523D01*
X220114406Y-95286457D01*
X220155434Y-95262000D01*
X220155437Y-95261998D01*
X220161489Y-95258390D01*
X220284720Y-95141038D01*
X220295486Y-95124835D01*
X220374995Y-95005164D01*
X220378890Y-94999302D01*
X220387837Y-94975749D01*
X220436817Y-94846809D01*
X220436818Y-94846806D01*
X220439318Y-94840224D01*
X220463000Y-94671713D01*
X220463197Y-94657614D01*
X220463243Y-94654361D01*
X220463243Y-94654355D01*
X220463298Y-94650400D01*
X220451232Y-94542825D01*
X220445115Y-94488288D01*
X220445114Y-94488285D01*
X220444330Y-94481292D01*
X220388367Y-94320590D01*
X220375799Y-94300476D01*
X220301925Y-94182253D01*
X220298192Y-94176279D01*
X220207876Y-94085331D01*
X220183249Y-94060531D01*
X220183245Y-94060528D01*
X220178285Y-94055533D01*
X220034608Y-93964352D01*
X219874300Y-93907269D01*
X219835218Y-93902609D01*
X219769944Y-93874682D01*
X219761041Y-93866590D01*
X219307761Y-93413310D01*
X219296893Y-93400919D01*
X219282894Y-93382675D01*
X219282893Y-93382674D01*
X219277871Y-93376129D01*
X219153077Y-93280372D01*
X219007753Y-93220177D01*
X218947702Y-93212271D01*
X218851800Y-93199645D01*
X218843612Y-93200723D01*
X218843611Y-93200723D01*
X218820831Y-93203722D01*
X218804385Y-93204800D01*
X217249100Y-93204800D01*
X217181586Y-93185185D01*
X217078762Y-93119930D01*
X217078758Y-93119928D01*
X217072808Y-93116152D01*
X216912500Y-93059069D01*
X216743529Y-93038921D01*
X216736526Y-93039657D01*
X216736525Y-93039657D01*
X216581301Y-93055971D01*
X216581297Y-93055972D01*
X216574293Y-93056708D01*
X216567622Y-93058979D01*
X216419874Y-93109276D01*
X216419871Y-93109277D01*
X216413204Y-93111547D01*
X216407206Y-93115237D01*
X216407204Y-93115238D01*
X216340736Y-93156130D01*
X216268267Y-93200713D01*
X216263236Y-93205640D01*
X216263233Y-93205642D01*
X216238618Y-93229747D01*
X216146686Y-93319773D01*
X216054505Y-93462811D01*
X216052096Y-93469431D01*
X216052095Y-93469432D01*
X216020223Y-93556999D01*
X215996304Y-93622716D01*
X215974976Y-93791543D01*
X212289194Y-93791543D01*
X212038505Y-93540854D01*
X212004480Y-93478542D01*
X212001600Y-93451759D01*
X212001600Y-92660796D01*
X212022652Y-92591068D01*
X212062481Y-92531121D01*
X212083090Y-92500102D01*
X212092807Y-92474521D01*
X212141017Y-92347609D01*
X212141018Y-92347606D01*
X212143518Y-92341024D01*
X212167200Y-92172513D01*
X212167317Y-92164164D01*
X212167443Y-92155161D01*
X212167443Y-92155155D01*
X212167498Y-92151200D01*
X212153532Y-92026688D01*
X212149315Y-91989088D01*
X212149314Y-91989085D01*
X212148530Y-91982092D01*
X212092567Y-91821390D01*
X212086582Y-91811811D01*
X212006125Y-91683053D01*
X212002392Y-91677079D01*
X211919824Y-91593933D01*
X211887449Y-91561331D01*
X211887445Y-91561328D01*
X211882485Y-91556333D01*
X211738808Y-91465152D01*
X211578500Y-91408069D01*
X211409529Y-91387921D01*
X211402526Y-91388657D01*
X211402525Y-91388657D01*
X211247301Y-91404971D01*
X211247297Y-91404972D01*
X211240293Y-91405708D01*
X211233622Y-91407979D01*
X211085874Y-91458276D01*
X211085871Y-91458277D01*
X211079204Y-91460547D01*
X211073206Y-91464237D01*
X211073204Y-91464238D01*
X211065579Y-91468929D01*
X210934267Y-91549713D01*
X210929236Y-91554640D01*
X210929233Y-91554642D01*
X210887786Y-91595230D01*
X210812686Y-91668773D01*
X210720505Y-91811811D01*
X210718096Y-91818431D01*
X210718095Y-91818432D01*
X210670193Y-91950042D01*
X210662304Y-91971716D01*
X210640976Y-92140543D01*
X193404685Y-92140543D01*
X193394391Y-92048764D01*
X193391915Y-92026688D01*
X193391914Y-92026685D01*
X193391130Y-92019692D01*
X193335167Y-91858990D01*
X193329182Y-91849411D01*
X193248725Y-91720653D01*
X193244992Y-91714679D01*
X193169550Y-91638709D01*
X193130049Y-91598931D01*
X193130045Y-91598928D01*
X193125085Y-91593933D01*
X192981408Y-91502752D01*
X192821100Y-91445669D01*
X192652129Y-91425521D01*
X192645126Y-91426257D01*
X192645125Y-91426257D01*
X192489901Y-91442571D01*
X192489897Y-91442572D01*
X192482893Y-91443308D01*
X192476222Y-91445579D01*
X192328474Y-91495876D01*
X192328471Y-91495877D01*
X192321804Y-91498147D01*
X192315806Y-91501837D01*
X192315804Y-91501838D01*
X192278428Y-91524832D01*
X192176867Y-91587313D01*
X192171836Y-91592240D01*
X192171833Y-91592242D01*
X192116077Y-91646843D01*
X192055286Y-91706373D01*
X191963105Y-91849411D01*
X191960696Y-91856031D01*
X191960695Y-91856032D01*
X191907313Y-92002697D01*
X191904904Y-92009316D01*
X191883576Y-92178143D01*
X187665508Y-92178143D01*
X193052546Y-86791105D01*
X193114858Y-86757079D01*
X193141641Y-86754200D01*
X195133943Y-86754200D01*
X195202064Y-86774202D01*
X195248557Y-86827858D01*
X195258661Y-86898132D01*
X195239855Y-86948455D01*
X195150305Y-87087411D01*
X195147896Y-87094031D01*
X195147895Y-87094032D01*
X195144396Y-87103645D01*
X195092104Y-87247316D01*
X195070776Y-87416143D01*
X195087382Y-87585499D01*
X195141095Y-87746967D01*
X195144742Y-87752989D01*
X195144743Y-87752991D01*
X195162051Y-87781569D01*
X195229247Y-87892523D01*
X195347456Y-88014931D01*
X195353352Y-88018789D01*
X195475718Y-88098864D01*
X195521767Y-88152902D01*
X195531290Y-88223257D01*
X195512637Y-88272550D01*
X195466923Y-88343485D01*
X195466920Y-88343492D01*
X195463105Y-88349411D01*
X195460696Y-88356031D01*
X195460695Y-88356032D01*
X195444093Y-88401646D01*
X195404904Y-88509316D01*
X195383576Y-88678143D01*
X195400182Y-88847499D01*
X195453895Y-89008967D01*
X195457542Y-89014989D01*
X195457543Y-89014991D01*
X195493322Y-89074068D01*
X195542047Y-89154523D01*
X195546943Y-89159593D01*
X195558812Y-89171884D01*
X195660256Y-89276931D01*
X195802646Y-89370109D01*
X195962142Y-89429425D01*
X195969123Y-89430356D01*
X195969125Y-89430357D01*
X196003699Y-89434970D01*
X196130815Y-89451931D01*
X196137826Y-89451293D01*
X196137830Y-89451293D01*
X196293261Y-89437147D01*
X196300282Y-89436508D01*
X196306984Y-89434330D01*
X196306986Y-89434330D01*
X196455423Y-89386100D01*
X196455426Y-89386099D01*
X196462122Y-89383923D01*
X196596243Y-89303971D01*
X196660760Y-89286200D01*
X212899959Y-89286200D01*
X212968080Y-89306202D01*
X212989054Y-89323105D01*
X213937300Y-90271352D01*
X214859846Y-91193898D01*
X214870713Y-91206289D01*
X214884700Y-91224518D01*
X214884703Y-91224521D01*
X214889729Y-91231071D01*
X214896279Y-91236097D01*
X214896280Y-91236098D01*
X214912524Y-91248562D01*
X214921060Y-91255112D01*
X214921061Y-91255113D01*
X215014523Y-91326828D01*
X215159847Y-91387023D01*
X215315800Y-91407556D01*
X215323988Y-91406478D01*
X215346775Y-91403478D01*
X215363222Y-91402400D01*
X221239159Y-91402400D01*
X221307280Y-91422402D01*
X221328254Y-91439305D01*
X226244888Y-96355939D01*
X226874043Y-96985095D01*
X226884911Y-96997487D01*
X226898903Y-97015722D01*
X226898906Y-97015725D01*
X226903929Y-97022271D01*
X226935260Y-97046312D01*
X226935261Y-97046313D01*
X227028723Y-97118028D01*
X227174047Y-97178223D01*
X227330000Y-97198756D01*
X227338188Y-97197678D01*
X227360975Y-97194678D01*
X227377422Y-97193600D01*
X229196371Y-97193600D01*
X229264492Y-97213602D01*
X229310985Y-97267258D01*
X229322354Y-97317536D01*
X229482649Y-107102827D01*
X229482650Y-107102829D01*
X229528141Y-109879900D01*
X151459700Y-109879900D01*
X151391579Y-109859898D01*
X151345086Y-109806242D01*
X151333700Y-109753900D01*
X151333700Y-106711333D01*
X152216622Y-106711333D01*
X152226425Y-106992058D01*
X152227187Y-106996381D01*
X152227188Y-106996388D01*
X152250964Y-107131224D01*
X152275202Y-107268687D01*
X152362003Y-107535835D01*
X152485140Y-107788302D01*
X152487595Y-107791941D01*
X152487598Y-107791947D01*
X152560690Y-107900310D01*
X152642215Y-108021176D01*
X152830171Y-108229922D01*
X153045350Y-108410479D01*
X153283564Y-108559331D01*
X153540175Y-108673582D01*
X153810190Y-108751007D01*
X153814540Y-108751618D01*
X153814543Y-108751619D01*
X153917490Y-108766087D01*
X154088352Y-108790100D01*
X154298946Y-108790100D01*
X154301132Y-108789947D01*
X154301136Y-108789947D01*
X154504627Y-108775718D01*
X154504632Y-108775717D01*
X154509012Y-108775411D01*
X154783770Y-108717009D01*
X154787899Y-108715506D01*
X154787903Y-108715505D01*
X155043581Y-108622446D01*
X155043585Y-108622444D01*
X155047726Y-108620937D01*
X155295742Y-108489064D01*
X155400696Y-108412811D01*
X155519429Y-108326547D01*
X155519432Y-108326544D01*
X155522992Y-108323958D01*
X155725052Y-108128831D01*
X155897988Y-107907482D01*
X155900184Y-107903678D01*
X155900189Y-107903671D01*
X156036235Y-107668031D01*
X156038436Y-107664219D01*
X156143662Y-107403776D01*
X156177344Y-107268687D01*
X156210553Y-107135493D01*
X156210554Y-107135488D01*
X156211617Y-107131224D01*
X156214602Y-107102829D01*
X156240519Y-106856236D01*
X156240519Y-106856233D01*
X156240978Y-106851867D01*
X156231175Y-106571142D01*
X156207408Y-106436349D01*
X156183160Y-106298836D01*
X156182398Y-106294513D01*
X156095597Y-106027365D01*
X155972460Y-105774898D01*
X155970005Y-105771259D01*
X155970002Y-105771253D01*
X155889735Y-105652253D01*
X155815385Y-105542024D01*
X155627429Y-105333278D01*
X155412250Y-105152721D01*
X155174036Y-105003869D01*
X154917425Y-104889618D01*
X154647410Y-104812193D01*
X154643060Y-104811582D01*
X154643057Y-104811581D01*
X154540110Y-104797113D01*
X154369248Y-104773100D01*
X154158654Y-104773100D01*
X154156468Y-104773253D01*
X154156464Y-104773253D01*
X153952973Y-104787482D01*
X153952968Y-104787483D01*
X153948588Y-104787789D01*
X153673830Y-104846191D01*
X153669701Y-104847694D01*
X153669697Y-104847695D01*
X153414019Y-104940754D01*
X153414015Y-104940756D01*
X153409874Y-104942263D01*
X153161858Y-105074136D01*
X153158299Y-105076722D01*
X153158297Y-105076723D01*
X153053695Y-105152721D01*
X152934608Y-105239242D01*
X152732548Y-105434369D01*
X152559612Y-105655718D01*
X152557416Y-105659522D01*
X152557411Y-105659529D01*
X152443594Y-105856668D01*
X152419164Y-105898981D01*
X152313938Y-106159424D01*
X152312873Y-106163697D01*
X152312872Y-106163699D01*
X152279179Y-106298836D01*
X152245983Y-106431976D01*
X152216622Y-106711333D01*
X151333700Y-106711333D01*
X151333700Y-103545143D01*
X193876976Y-103545143D01*
X193893582Y-103714499D01*
X193947295Y-103875967D01*
X193950942Y-103881989D01*
X193950943Y-103881991D01*
X193968248Y-103910564D01*
X194035447Y-104021523D01*
X194040343Y-104026593D01*
X194059507Y-104046438D01*
X194153656Y-104143931D01*
X194296046Y-104237109D01*
X194455542Y-104296425D01*
X194462523Y-104297356D01*
X194462525Y-104297357D01*
X194508626Y-104303508D01*
X194624215Y-104318931D01*
X194631226Y-104318293D01*
X194631230Y-104318293D01*
X194786661Y-104304147D01*
X194793682Y-104303508D01*
X194800384Y-104301330D01*
X194800386Y-104301330D01*
X194948823Y-104253100D01*
X194948826Y-104253099D01*
X194955522Y-104250923D01*
X195027267Y-104208154D01*
X195095634Y-104167400D01*
X195095637Y-104167398D01*
X195101689Y-104163790D01*
X195224920Y-104046438D01*
X195319090Y-103904702D01*
X195327717Y-103881991D01*
X195377017Y-103752209D01*
X195377018Y-103752206D01*
X195379518Y-103745624D01*
X195403200Y-103577113D01*
X195403498Y-103555800D01*
X195394177Y-103472695D01*
X195385315Y-103393688D01*
X195385314Y-103393685D01*
X195384530Y-103386692D01*
X195328567Y-103225990D01*
X195322582Y-103216411D01*
X195242125Y-103087653D01*
X195238392Y-103081679D01*
X195166242Y-103009024D01*
X195123449Y-102965931D01*
X195123445Y-102965928D01*
X195118485Y-102960933D01*
X194974808Y-102869752D01*
X194814500Y-102812669D01*
X194645529Y-102792521D01*
X194638526Y-102793257D01*
X194638525Y-102793257D01*
X194483301Y-102809571D01*
X194483297Y-102809572D01*
X194476293Y-102810308D01*
X194469622Y-102812579D01*
X194321874Y-102862876D01*
X194321871Y-102862877D01*
X194315204Y-102865147D01*
X194309206Y-102868837D01*
X194309204Y-102868838D01*
X194301579Y-102873529D01*
X194170267Y-102954313D01*
X194165236Y-102959240D01*
X194165233Y-102959242D01*
X194109476Y-103013843D01*
X194048686Y-103073373D01*
X193956505Y-103216411D01*
X193954096Y-103223031D01*
X193954095Y-103223032D01*
X193929723Y-103289993D01*
X193898304Y-103376316D01*
X193876976Y-103545143D01*
X151333700Y-103545143D01*
X151333700Y-102224343D01*
X203274976Y-102224343D01*
X203291582Y-102393699D01*
X203345295Y-102555167D01*
X203348942Y-102561189D01*
X203348943Y-102561191D01*
X203366248Y-102589764D01*
X203433447Y-102700723D01*
X203438343Y-102705793D01*
X203457507Y-102725638D01*
X203551656Y-102823131D01*
X203694046Y-102916309D01*
X203853542Y-102975625D01*
X203860523Y-102976556D01*
X203860525Y-102976557D01*
X203906626Y-102982708D01*
X204022215Y-102998131D01*
X204029226Y-102997493D01*
X204029230Y-102997493D01*
X204184661Y-102983347D01*
X204191682Y-102982708D01*
X204198384Y-102980530D01*
X204198386Y-102980530D01*
X204346823Y-102932300D01*
X204346826Y-102932299D01*
X204353522Y-102930123D01*
X204425267Y-102887354D01*
X204493634Y-102846600D01*
X204493637Y-102846598D01*
X204499689Y-102842990D01*
X204535862Y-102808543D01*
X207694576Y-102808543D01*
X207711182Y-102977899D01*
X207764895Y-103139367D01*
X207768542Y-103145389D01*
X207768543Y-103145391D01*
X207785848Y-103173964D01*
X207853047Y-103284923D01*
X207857943Y-103289993D01*
X207877107Y-103309838D01*
X207971256Y-103407331D01*
X208113646Y-103500509D01*
X208273142Y-103559825D01*
X208280123Y-103560756D01*
X208280125Y-103560757D01*
X208326226Y-103566908D01*
X208441815Y-103582331D01*
X208448826Y-103581693D01*
X208448830Y-103581693D01*
X208604261Y-103567547D01*
X208611282Y-103566908D01*
X208617984Y-103564730D01*
X208617986Y-103564730D01*
X208678269Y-103545143D01*
X226033376Y-103545143D01*
X226049982Y-103714499D01*
X226103695Y-103875967D01*
X226107342Y-103881989D01*
X226107343Y-103881991D01*
X226124648Y-103910564D01*
X226191847Y-104021523D01*
X226196743Y-104026593D01*
X226215907Y-104046438D01*
X226310056Y-104143931D01*
X226452446Y-104237109D01*
X226611942Y-104296425D01*
X226618923Y-104297356D01*
X226618925Y-104297357D01*
X226665026Y-104303508D01*
X226780615Y-104318931D01*
X226787626Y-104318293D01*
X226787630Y-104318293D01*
X226943061Y-104304147D01*
X226950082Y-104303508D01*
X226956784Y-104301330D01*
X226956786Y-104301330D01*
X227105223Y-104253100D01*
X227105226Y-104253099D01*
X227111922Y-104250923D01*
X227183667Y-104208154D01*
X227252034Y-104167400D01*
X227252037Y-104167398D01*
X227258089Y-104163790D01*
X227381320Y-104046438D01*
X227475490Y-103904702D01*
X227484117Y-103881991D01*
X227533417Y-103752209D01*
X227533418Y-103752206D01*
X227535918Y-103745624D01*
X227559600Y-103577113D01*
X227559898Y-103555800D01*
X227550577Y-103472695D01*
X227541715Y-103393688D01*
X227541714Y-103393685D01*
X227540930Y-103386692D01*
X227484967Y-103225990D01*
X227478982Y-103216411D01*
X227398525Y-103087653D01*
X227394792Y-103081679D01*
X227322642Y-103009024D01*
X227279849Y-102965931D01*
X227279845Y-102965928D01*
X227274885Y-102960933D01*
X227131208Y-102869752D01*
X226970900Y-102812669D01*
X226801929Y-102792521D01*
X226794926Y-102793257D01*
X226794925Y-102793257D01*
X226639701Y-102809571D01*
X226639697Y-102809572D01*
X226632693Y-102810308D01*
X226626022Y-102812579D01*
X226478274Y-102862876D01*
X226478271Y-102862877D01*
X226471604Y-102865147D01*
X226465606Y-102868837D01*
X226465604Y-102868838D01*
X226457979Y-102873529D01*
X226326667Y-102954313D01*
X226321636Y-102959240D01*
X226321633Y-102959242D01*
X226265876Y-103013843D01*
X226205086Y-103073373D01*
X226112905Y-103216411D01*
X226110496Y-103223031D01*
X226110495Y-103223032D01*
X226086123Y-103289993D01*
X226054704Y-103376316D01*
X226033376Y-103545143D01*
X208678269Y-103545143D01*
X208766423Y-103516500D01*
X208766426Y-103516499D01*
X208773122Y-103514323D01*
X208844867Y-103471554D01*
X208913234Y-103430800D01*
X208913237Y-103430798D01*
X208919289Y-103427190D01*
X209042520Y-103309838D01*
X209136690Y-103168102D01*
X209145317Y-103145391D01*
X209194617Y-103015609D01*
X209194618Y-103015606D01*
X209197118Y-103009024D01*
X209220800Y-102840513D01*
X209221024Y-102824520D01*
X209221043Y-102823161D01*
X209221043Y-102823155D01*
X209221098Y-102819200D01*
X209202130Y-102650092D01*
X209146167Y-102489390D01*
X209074346Y-102374451D01*
X209055200Y-102307682D01*
X209055200Y-101625400D01*
X215048468Y-101625400D01*
X215066959Y-101836753D01*
X215068383Y-101842066D01*
X215068383Y-101842068D01*
X215085297Y-101905190D01*
X215121870Y-102041684D01*
X215124192Y-102046664D01*
X215124193Y-102046666D01*
X215209207Y-102228979D01*
X215209210Y-102228984D01*
X215211533Y-102233966D01*
X215242351Y-102277978D01*
X215318472Y-102386690D01*
X215333223Y-102407757D01*
X215483243Y-102557777D01*
X215487751Y-102560934D01*
X215487754Y-102560936D01*
X215520553Y-102583902D01*
X215657034Y-102679467D01*
X215662016Y-102681790D01*
X215662021Y-102681793D01*
X215843318Y-102766333D01*
X215849316Y-102769130D01*
X215854624Y-102770552D01*
X215854626Y-102770553D01*
X216048932Y-102822617D01*
X216048934Y-102822617D01*
X216054247Y-102824041D01*
X216265600Y-102842532D01*
X216476953Y-102824041D01*
X216482266Y-102822617D01*
X216482268Y-102822617D01*
X216676574Y-102770553D01*
X216676576Y-102770552D01*
X216681884Y-102769130D01*
X216687882Y-102766333D01*
X216869179Y-102681793D01*
X216869184Y-102681790D01*
X216874166Y-102679467D01*
X216926913Y-102642533D01*
X223213022Y-102642533D01*
X223222318Y-102654548D01*
X223252776Y-102675875D01*
X223262272Y-102681358D01*
X223444503Y-102766333D01*
X223454799Y-102770081D01*
X223649024Y-102822124D01*
X223659811Y-102824026D01*
X223860125Y-102841551D01*
X223871075Y-102841551D01*
X224071389Y-102824026D01*
X224082176Y-102822124D01*
X224276401Y-102770081D01*
X224286697Y-102766333D01*
X224468928Y-102681358D01*
X224478424Y-102675875D01*
X224509720Y-102653961D01*
X224518095Y-102643484D01*
X224511026Y-102630036D01*
X223878412Y-101997422D01*
X223864468Y-101989808D01*
X223862635Y-101989939D01*
X223856020Y-101994190D01*
X223219452Y-102630758D01*
X223213022Y-102642533D01*
X216926913Y-102642533D01*
X217010647Y-102583902D01*
X217043446Y-102560936D01*
X217043449Y-102560934D01*
X217047957Y-102557777D01*
X217197977Y-102407757D01*
X217212729Y-102386690D01*
X217288849Y-102277978D01*
X217319667Y-102233966D01*
X217321990Y-102228984D01*
X217321993Y-102228979D01*
X217407007Y-102046666D01*
X217407008Y-102046664D01*
X217409330Y-102041684D01*
X217445904Y-101905190D01*
X217462817Y-101842068D01*
X217462817Y-101842066D01*
X217464241Y-101836753D01*
X217482253Y-101630875D01*
X222649449Y-101630875D01*
X222666974Y-101831189D01*
X222668876Y-101841976D01*
X222720919Y-102036201D01*
X222724667Y-102046497D01*
X222809642Y-102228728D01*
X222815125Y-102238224D01*
X222837039Y-102269520D01*
X222847516Y-102277895D01*
X222860964Y-102270826D01*
X223493578Y-101638212D01*
X223499956Y-101626532D01*
X224230008Y-101626532D01*
X224230139Y-101628365D01*
X224234390Y-101634980D01*
X224870958Y-102271548D01*
X224882733Y-102277978D01*
X224894748Y-102268682D01*
X224916075Y-102238224D01*
X224921558Y-102228728D01*
X225006533Y-102046497D01*
X225010281Y-102036201D01*
X225062324Y-101841976D01*
X225064226Y-101831189D01*
X225081751Y-101630875D01*
X225081751Y-101619925D01*
X225064226Y-101419611D01*
X225062324Y-101408824D01*
X225010281Y-101214599D01*
X225006533Y-101204303D01*
X224921558Y-101022072D01*
X224916075Y-101012576D01*
X224894161Y-100981280D01*
X224883684Y-100972905D01*
X224870236Y-100979974D01*
X224237622Y-101612588D01*
X224230008Y-101626532D01*
X223499956Y-101626532D01*
X223501192Y-101624268D01*
X223501061Y-101622435D01*
X223496810Y-101615820D01*
X222860242Y-100979252D01*
X222848467Y-100972822D01*
X222836452Y-100982118D01*
X222815125Y-101012576D01*
X222809642Y-101022072D01*
X222724667Y-101204303D01*
X222720919Y-101214599D01*
X222668876Y-101408824D01*
X222666974Y-101419611D01*
X222649449Y-101619925D01*
X222649449Y-101630875D01*
X217482253Y-101630875D01*
X217482732Y-101625400D01*
X217464241Y-101414047D01*
X217435311Y-101306078D01*
X217410753Y-101214426D01*
X217410752Y-101214424D01*
X217409330Y-101209116D01*
X217380568Y-101147436D01*
X217321993Y-101021821D01*
X217321990Y-101021816D01*
X217319667Y-101016834D01*
X217216243Y-100869129D01*
X217201136Y-100847554D01*
X217201134Y-100847551D01*
X217197977Y-100843043D01*
X217047957Y-100693023D01*
X217043449Y-100689866D01*
X217043446Y-100689864D01*
X216971217Y-100639289D01*
X216925555Y-100607316D01*
X223213105Y-100607316D01*
X223220174Y-100620764D01*
X223852788Y-101253378D01*
X223866732Y-101260992D01*
X223868565Y-101260861D01*
X223875180Y-101256610D01*
X224511748Y-100620042D01*
X224518178Y-100608267D01*
X224508882Y-100596252D01*
X224478424Y-100574925D01*
X224468928Y-100569442D01*
X224286697Y-100484467D01*
X224276401Y-100480719D01*
X224082176Y-100428676D01*
X224071389Y-100426774D01*
X223871075Y-100409249D01*
X223860125Y-100409249D01*
X223659811Y-100426774D01*
X223649024Y-100428676D01*
X223454799Y-100480719D01*
X223444503Y-100484467D01*
X223262272Y-100569442D01*
X223252776Y-100574925D01*
X223221480Y-100596839D01*
X223213105Y-100607316D01*
X216925555Y-100607316D01*
X216874166Y-100571333D01*
X216869184Y-100569010D01*
X216869179Y-100569007D01*
X216686866Y-100483993D01*
X216686864Y-100483992D01*
X216681884Y-100481670D01*
X216676576Y-100480248D01*
X216676574Y-100480247D01*
X216482268Y-100428183D01*
X216482266Y-100428183D01*
X216476953Y-100426759D01*
X216265600Y-100408268D01*
X216054247Y-100426759D01*
X216048934Y-100428183D01*
X216048932Y-100428183D01*
X215854626Y-100480247D01*
X215854624Y-100480248D01*
X215849316Y-100481670D01*
X215844336Y-100483992D01*
X215844334Y-100483993D01*
X215662021Y-100569007D01*
X215662016Y-100569010D01*
X215657034Y-100571333D01*
X215559983Y-100639289D01*
X215487754Y-100689864D01*
X215487751Y-100689866D01*
X215483243Y-100693023D01*
X215333223Y-100843043D01*
X215330066Y-100847551D01*
X215330064Y-100847554D01*
X215314957Y-100869129D01*
X215211533Y-101016834D01*
X215209210Y-101021816D01*
X215209207Y-101021821D01*
X215150632Y-101147436D01*
X215121870Y-101209116D01*
X215120448Y-101214424D01*
X215120447Y-101214426D01*
X215095889Y-101306078D01*
X215066959Y-101414047D01*
X215048468Y-101625400D01*
X209055200Y-101625400D01*
X209055200Y-101594841D01*
X209075202Y-101526720D01*
X209092105Y-101505746D01*
X209355250Y-101242601D01*
X209417562Y-101208575D01*
X209432924Y-101206215D01*
X209442461Y-101205347D01*
X209449482Y-101204708D01*
X209456184Y-101202530D01*
X209456186Y-101202530D01*
X209604623Y-101154300D01*
X209604626Y-101154299D01*
X209611322Y-101152123D01*
X209683067Y-101109354D01*
X209751434Y-101068600D01*
X209751437Y-101068598D01*
X209757489Y-101064990D01*
X209880720Y-100947638D01*
X209974890Y-100805902D01*
X210013651Y-100703863D01*
X210032817Y-100653409D01*
X210032818Y-100653406D01*
X210035318Y-100646824D01*
X210059000Y-100478313D01*
X210059298Y-100457000D01*
X210040330Y-100287892D01*
X209984367Y-100127190D01*
X209978382Y-100117611D01*
X209897925Y-99988853D01*
X209894192Y-99982879D01*
X209834238Y-99922506D01*
X209779249Y-99867131D01*
X209779245Y-99867128D01*
X209774285Y-99862133D01*
X209630608Y-99770952D01*
X209470300Y-99713869D01*
X209301329Y-99693721D01*
X209294326Y-99694457D01*
X209294325Y-99694457D01*
X209139101Y-99710771D01*
X209139097Y-99710772D01*
X209132093Y-99711508D01*
X209125422Y-99713779D01*
X208977674Y-99764076D01*
X208977671Y-99764077D01*
X208971004Y-99766347D01*
X208965006Y-99770037D01*
X208965004Y-99770038D01*
X208957379Y-99774729D01*
X208826067Y-99855513D01*
X208821036Y-99860440D01*
X208821033Y-99860442D01*
X208765277Y-99915043D01*
X208704486Y-99974573D01*
X208612305Y-100117611D01*
X208609896Y-100124231D01*
X208609895Y-100124232D01*
X208606396Y-100133845D01*
X208554104Y-100277516D01*
X208553221Y-100284504D01*
X208553221Y-100284505D01*
X208548445Y-100322312D01*
X208520063Y-100387389D01*
X208512534Y-100395615D01*
X208068910Y-100839239D01*
X208056519Y-100850107D01*
X208031729Y-100869129D01*
X207935972Y-100993923D01*
X207875777Y-101139247D01*
X207855245Y-101295200D01*
X207856323Y-101303388D01*
X207856323Y-101303389D01*
X207859322Y-101326169D01*
X207860400Y-101342615D01*
X207860400Y-102308822D01*
X207840312Y-102377077D01*
X207774105Y-102479811D01*
X207771696Y-102486431D01*
X207771695Y-102486432D01*
X207744578Y-102560936D01*
X207715904Y-102639716D01*
X207694576Y-102808543D01*
X204535862Y-102808543D01*
X204622920Y-102725638D01*
X204670153Y-102654548D01*
X204713195Y-102589764D01*
X204717090Y-102583902D01*
X204727014Y-102557777D01*
X204775017Y-102431409D01*
X204775018Y-102431406D01*
X204777518Y-102424824D01*
X204801200Y-102256313D01*
X204801498Y-102235000D01*
X204782530Y-102065892D01*
X204726567Y-101905190D01*
X204720582Y-101895611D01*
X204640125Y-101766853D01*
X204636392Y-101760879D01*
X204576439Y-101700506D01*
X204521449Y-101645131D01*
X204521445Y-101645128D01*
X204516485Y-101640133D01*
X204372808Y-101548952D01*
X204212500Y-101491869D01*
X204043529Y-101471721D01*
X204036526Y-101472457D01*
X204036525Y-101472457D01*
X203881301Y-101488771D01*
X203881297Y-101488772D01*
X203874293Y-101489508D01*
X203867622Y-101491779D01*
X203719874Y-101542076D01*
X203719871Y-101542077D01*
X203713204Y-101544347D01*
X203707206Y-101548037D01*
X203707204Y-101548038D01*
X203699579Y-101552729D01*
X203568267Y-101633513D01*
X203563236Y-101638440D01*
X203563233Y-101638442D01*
X203522310Y-101678517D01*
X203446686Y-101752573D01*
X203354505Y-101895611D01*
X203352096Y-101902231D01*
X203352095Y-101902232D01*
X203303334Y-102036201D01*
X203296304Y-102055516D01*
X203274976Y-102224343D01*
X151333700Y-102224343D01*
X151333700Y-97470939D01*
X158795482Y-97470939D01*
X158812162Y-97669586D01*
X158830085Y-97732089D01*
X158860283Y-97837400D01*
X158867110Y-97861209D01*
X158958230Y-98038511D01*
X159082053Y-98194737D01*
X159233863Y-98323937D01*
X159407876Y-98421189D01*
X159413735Y-98423093D01*
X159413738Y-98423094D01*
X159507939Y-98453702D01*
X159558097Y-98484440D01*
X161504549Y-100430892D01*
X161538575Y-100493204D01*
X161540974Y-100509001D01*
X161558022Y-100703863D01*
X161615560Y-100918596D01*
X161617882Y-100923577D01*
X161617883Y-100923578D01*
X161707186Y-101115089D01*
X161707189Y-101115094D01*
X161709512Y-101120076D01*
X161712668Y-101124583D01*
X161712669Y-101124585D01*
X161832135Y-101295200D01*
X161837023Y-101302181D01*
X161994219Y-101459377D01*
X161998727Y-101462534D01*
X161998730Y-101462536D01*
X162074495Y-101515587D01*
X162176323Y-101586888D01*
X162181305Y-101589211D01*
X162181310Y-101589214D01*
X162372822Y-101678517D01*
X162377804Y-101680840D01*
X162383112Y-101682262D01*
X162383114Y-101682263D01*
X162448949Y-101699903D01*
X162592537Y-101738378D01*
X162814000Y-101757753D01*
X163035463Y-101738378D01*
X163179051Y-101699903D01*
X163244886Y-101682263D01*
X163244888Y-101682262D01*
X163250196Y-101680840D01*
X163255178Y-101678517D01*
X163446690Y-101589214D01*
X163446695Y-101589211D01*
X163451677Y-101586888D01*
X163553505Y-101515587D01*
X163629270Y-101462536D01*
X163629273Y-101462534D01*
X163633781Y-101459377D01*
X163790977Y-101302181D01*
X163795866Y-101295200D01*
X163915331Y-101124585D01*
X163915332Y-101124583D01*
X163918488Y-101120076D01*
X163920811Y-101115094D01*
X163920814Y-101115089D01*
X164010117Y-100923578D01*
X164010118Y-100923577D01*
X164012440Y-100918596D01*
X164069978Y-100703863D01*
X164089353Y-100482400D01*
X164069978Y-100260937D01*
X164012440Y-100046204D01*
X163982911Y-99982879D01*
X163920814Y-99849711D01*
X163920811Y-99849706D01*
X163918488Y-99844724D01*
X163869477Y-99774729D01*
X163794136Y-99667130D01*
X163794134Y-99667127D01*
X163790977Y-99662619D01*
X163633781Y-99505423D01*
X163629273Y-99502266D01*
X163629270Y-99502264D01*
X163553505Y-99449213D01*
X163451677Y-99377912D01*
X163446695Y-99375589D01*
X163446690Y-99375586D01*
X163255178Y-99286283D01*
X163255177Y-99286282D01*
X163250196Y-99283960D01*
X163244888Y-99282538D01*
X163244886Y-99282537D01*
X163179051Y-99264897D01*
X163035463Y-99226422D01*
X162840605Y-99209375D01*
X162774488Y-99183512D01*
X162762492Y-99172949D01*
X160816240Y-97226697D01*
X160784713Y-97174020D01*
X160762929Y-97101867D01*
X160761148Y-97095968D01*
X160698417Y-96977988D01*
X160670455Y-96925398D01*
X160670453Y-96925395D01*
X160667561Y-96919956D01*
X160663671Y-96915186D01*
X160663668Y-96915182D01*
X160545463Y-96770249D01*
X160545460Y-96770246D01*
X160541568Y-96765474D01*
X160387970Y-96638406D01*
X160384155Y-96636343D01*
X175411176Y-96636343D01*
X175427782Y-96805699D01*
X175481495Y-96967167D01*
X175485142Y-96973189D01*
X175485143Y-96973191D01*
X175499857Y-96997487D01*
X175569647Y-97112723D01*
X175574543Y-97117793D01*
X175592282Y-97136162D01*
X175687856Y-97235131D01*
X175830246Y-97328309D01*
X175989742Y-97387625D01*
X175996723Y-97388556D01*
X175996725Y-97388557D01*
X176042826Y-97394708D01*
X176158415Y-97410131D01*
X176165426Y-97409493D01*
X176165430Y-97409493D01*
X176320861Y-97395347D01*
X176327882Y-97394708D01*
X176334584Y-97392530D01*
X176334586Y-97392530D01*
X176483023Y-97344300D01*
X176483026Y-97344299D01*
X176489722Y-97342123D01*
X176562399Y-97298799D01*
X176629834Y-97258600D01*
X176629837Y-97258598D01*
X176635889Y-97254990D01*
X176759120Y-97137638D01*
X176764565Y-97129443D01*
X195441276Y-97129443D01*
X195457882Y-97298799D01*
X195460106Y-97305484D01*
X195460106Y-97305485D01*
X195467699Y-97328309D01*
X195511595Y-97460267D01*
X195515242Y-97466289D01*
X195515243Y-97466291D01*
X195532548Y-97494864D01*
X195599747Y-97605823D01*
X195604643Y-97610893D01*
X195623807Y-97630738D01*
X195717956Y-97728231D01*
X195860346Y-97821409D01*
X196019842Y-97880725D01*
X196026823Y-97881656D01*
X196026825Y-97881657D01*
X196072926Y-97887808D01*
X196188515Y-97903231D01*
X196195526Y-97902593D01*
X196195530Y-97902593D01*
X196350961Y-97888447D01*
X196357982Y-97887808D01*
X196364684Y-97885630D01*
X196364686Y-97885630D01*
X196513123Y-97837400D01*
X196513126Y-97837399D01*
X196519822Y-97835223D01*
X196591567Y-97792454D01*
X196659934Y-97751700D01*
X196659937Y-97751698D01*
X196665989Y-97748090D01*
X196789220Y-97630738D01*
X196883390Y-97489002D01*
X196887918Y-97477083D01*
X196941317Y-97336509D01*
X196941318Y-97336506D01*
X196943818Y-97329924D01*
X196967500Y-97161413D01*
X196967798Y-97140100D01*
X196951624Y-96995902D01*
X196949615Y-96977988D01*
X196949614Y-96977985D01*
X196948830Y-96970992D01*
X196892867Y-96810290D01*
X196886882Y-96800711D01*
X196806425Y-96671953D01*
X196802692Y-96665979D01*
X196733398Y-96596200D01*
X196687749Y-96550231D01*
X196687745Y-96550228D01*
X196682785Y-96545233D01*
X196539108Y-96454052D01*
X196378800Y-96396969D01*
X196209829Y-96376821D01*
X196202826Y-96377557D01*
X196202825Y-96377557D01*
X196047601Y-96393871D01*
X196047597Y-96393872D01*
X196040593Y-96394608D01*
X196033922Y-96396879D01*
X195886174Y-96447176D01*
X195886171Y-96447177D01*
X195879504Y-96449447D01*
X195873506Y-96453137D01*
X195873504Y-96453138D01*
X195819331Y-96486466D01*
X195734567Y-96538613D01*
X195729536Y-96543540D01*
X195729533Y-96543542D01*
X195712404Y-96560316D01*
X195612986Y-96657673D01*
X195520805Y-96800711D01*
X195518396Y-96807331D01*
X195518395Y-96807332D01*
X195481706Y-96908133D01*
X195462604Y-96960616D01*
X195441276Y-97129443D01*
X176764565Y-97129443D01*
X176782887Y-97101867D01*
X176835770Y-97022271D01*
X176853290Y-96995902D01*
X176861917Y-96973191D01*
X176911217Y-96843409D01*
X176911218Y-96843406D01*
X176913718Y-96836824D01*
X176937400Y-96668313D01*
X176937698Y-96647000D01*
X176918730Y-96477892D01*
X176862767Y-96317190D01*
X176856782Y-96307611D01*
X176776325Y-96178853D01*
X176772592Y-96172879D01*
X176697239Y-96096999D01*
X176657649Y-96057131D01*
X176657645Y-96057128D01*
X176652685Y-96052133D01*
X176509008Y-95960952D01*
X176348700Y-95903869D01*
X176179729Y-95883721D01*
X176172726Y-95884457D01*
X176172725Y-95884457D01*
X176017501Y-95900771D01*
X176017497Y-95900772D01*
X176010493Y-95901508D01*
X176003822Y-95903779D01*
X175856074Y-95954076D01*
X175856071Y-95954077D01*
X175849404Y-95956347D01*
X175843406Y-95960037D01*
X175843404Y-95960038D01*
X175800324Y-95986541D01*
X175704467Y-96045513D01*
X175699436Y-96050440D01*
X175699433Y-96050442D01*
X175674997Y-96074372D01*
X175582886Y-96164573D01*
X175490705Y-96307611D01*
X175488296Y-96314231D01*
X175488295Y-96314232D01*
X175436357Y-96456931D01*
X175432504Y-96467516D01*
X175411176Y-96636343D01*
X160384155Y-96636343D01*
X160212615Y-96543592D01*
X160022185Y-96484644D01*
X160016060Y-96484000D01*
X160016059Y-96484000D01*
X159830060Y-96464451D01*
X159830058Y-96464451D01*
X159823931Y-96463807D01*
X159706367Y-96474506D01*
X159631546Y-96481315D01*
X159631545Y-96481315D01*
X159625405Y-96481874D01*
X159619491Y-96483615D01*
X159619489Y-96483615D01*
X159489339Y-96521921D01*
X159434170Y-96538158D01*
X159257509Y-96630514D01*
X159252709Y-96634374D01*
X159252708Y-96634374D01*
X159232078Y-96650961D01*
X159102151Y-96755425D01*
X158974014Y-96908133D01*
X158877979Y-97082821D01*
X158817702Y-97272835D01*
X158795482Y-97470939D01*
X151333700Y-97470939D01*
X151333700Y-95858143D01*
X207507576Y-95858143D01*
X207524182Y-96027499D01*
X207526406Y-96034184D01*
X207526406Y-96034185D01*
X207530174Y-96045513D01*
X207577895Y-96188967D01*
X207581542Y-96194989D01*
X207581543Y-96194991D01*
X207598848Y-96223564D01*
X207666047Y-96334523D01*
X207670943Y-96339593D01*
X207686728Y-96355939D01*
X207784256Y-96456931D01*
X207926646Y-96550109D01*
X208086142Y-96609425D01*
X208093123Y-96610356D01*
X208093125Y-96610357D01*
X208139226Y-96616508D01*
X208254815Y-96631931D01*
X208261826Y-96631293D01*
X208261830Y-96631293D01*
X208417261Y-96617147D01*
X208424282Y-96616508D01*
X208430984Y-96614330D01*
X208430986Y-96614330D01*
X208579423Y-96566100D01*
X208579426Y-96566099D01*
X208586122Y-96563923D01*
X208657867Y-96521154D01*
X208726234Y-96480400D01*
X208726237Y-96480398D01*
X208732289Y-96476790D01*
X208855520Y-96359438D01*
X208866646Y-96342693D01*
X208945795Y-96223564D01*
X208949690Y-96217702D01*
X208959529Y-96191800D01*
X209007617Y-96065209D01*
X209007618Y-96065206D01*
X209010118Y-96058624D01*
X209033800Y-95890113D01*
X209034098Y-95868800D01*
X209019847Y-95741747D01*
X209015915Y-95706688D01*
X209015914Y-95706685D01*
X209015130Y-95699692D01*
X208959167Y-95538990D01*
X208953182Y-95529411D01*
X208872725Y-95400653D01*
X208868992Y-95394679D01*
X208781807Y-95306884D01*
X208754049Y-95278931D01*
X208754045Y-95278928D01*
X208749085Y-95273933D01*
X208605408Y-95182752D01*
X208445100Y-95125669D01*
X208276129Y-95105521D01*
X208269126Y-95106257D01*
X208269125Y-95106257D01*
X208113901Y-95122571D01*
X208113897Y-95122572D01*
X208106893Y-95123308D01*
X208100222Y-95125579D01*
X207952474Y-95175876D01*
X207952471Y-95175877D01*
X207945804Y-95178147D01*
X207939806Y-95181837D01*
X207939804Y-95181838D01*
X207900814Y-95205825D01*
X207800867Y-95267313D01*
X207795836Y-95272240D01*
X207795833Y-95272242D01*
X207747482Y-95319591D01*
X207679286Y-95386373D01*
X207587105Y-95529411D01*
X207584696Y-95536031D01*
X207584695Y-95536032D01*
X207531313Y-95682697D01*
X207528904Y-95689316D01*
X207507576Y-95858143D01*
X151333700Y-95858143D01*
X151333700Y-94982743D01*
X166899576Y-94982743D01*
X166916182Y-95152099D01*
X166918406Y-95158784D01*
X166918406Y-95158785D01*
X166934054Y-95205825D01*
X166969895Y-95313567D01*
X166973542Y-95319589D01*
X166973543Y-95319591D01*
X167015991Y-95389681D01*
X167058047Y-95459123D01*
X167062943Y-95464193D01*
X167082107Y-95484038D01*
X167176256Y-95581531D01*
X167318646Y-95674709D01*
X167478142Y-95734025D01*
X167485123Y-95734956D01*
X167485125Y-95734957D01*
X167531226Y-95741108D01*
X167646815Y-95756531D01*
X167653826Y-95755893D01*
X167653830Y-95755893D01*
X167809261Y-95741747D01*
X167816282Y-95741108D01*
X167822984Y-95738930D01*
X167822986Y-95738930D01*
X167971423Y-95690700D01*
X167971426Y-95690699D01*
X167978122Y-95688523D01*
X168117524Y-95605423D01*
X168118234Y-95605000D01*
X168118237Y-95604998D01*
X168124289Y-95601390D01*
X168247520Y-95484038D01*
X168341690Y-95342302D01*
X168350317Y-95319591D01*
X168399617Y-95189809D01*
X168399618Y-95189806D01*
X168402118Y-95183224D01*
X168425800Y-95014713D01*
X168425934Y-95005164D01*
X168426043Y-94997361D01*
X168426043Y-94997355D01*
X168426098Y-94993400D01*
X168416777Y-94910295D01*
X168407915Y-94831288D01*
X168407914Y-94831285D01*
X168407130Y-94824292D01*
X168351167Y-94663590D01*
X168345815Y-94655024D01*
X168264725Y-94525253D01*
X168260992Y-94519279D01*
X168196706Y-94454543D01*
X168146049Y-94403531D01*
X168146045Y-94403528D01*
X168141085Y-94398533D01*
X167997408Y-94307352D01*
X167837100Y-94250269D01*
X167668129Y-94230121D01*
X167661126Y-94230857D01*
X167661125Y-94230857D01*
X167505901Y-94247171D01*
X167505897Y-94247172D01*
X167498893Y-94247908D01*
X167492222Y-94250179D01*
X167344474Y-94300476D01*
X167344471Y-94300477D01*
X167337804Y-94302747D01*
X167331806Y-94306437D01*
X167331804Y-94306438D01*
X167297983Y-94327245D01*
X167192867Y-94391913D01*
X167187836Y-94396840D01*
X167187833Y-94396842D01*
X167147331Y-94436505D01*
X167071286Y-94510973D01*
X166979105Y-94654011D01*
X166976696Y-94660631D01*
X166976695Y-94660632D01*
X166935989Y-94772470D01*
X166920904Y-94813916D01*
X166899576Y-94982743D01*
X151333700Y-94982743D01*
X151333700Y-90179213D01*
X155930942Y-90179213D01*
X155940238Y-90191228D01*
X155996846Y-90230865D01*
X156006341Y-90236348D01*
X156207764Y-90330272D01*
X156218056Y-90334018D01*
X156432728Y-90391539D01*
X156443523Y-90393442D01*
X156664925Y-90412813D01*
X156675875Y-90412813D01*
X156897277Y-90393442D01*
X156908072Y-90391539D01*
X157122744Y-90334018D01*
X157133036Y-90330272D01*
X157334459Y-90236348D01*
X157343954Y-90230865D01*
X157401400Y-90190641D01*
X157409775Y-90180164D01*
X157402707Y-90166717D01*
X156683212Y-89447222D01*
X156669268Y-89439608D01*
X156667435Y-89439739D01*
X156660820Y-89443990D01*
X155937372Y-90167438D01*
X155930942Y-90179213D01*
X151333700Y-90179213D01*
X151333700Y-89080675D01*
X155332787Y-89080675D01*
X155352158Y-89302077D01*
X155354061Y-89312872D01*
X155411582Y-89527544D01*
X155415328Y-89537836D01*
X155509252Y-89739259D01*
X155514735Y-89748754D01*
X155554959Y-89806200D01*
X155565436Y-89814575D01*
X155578883Y-89807507D01*
X156298378Y-89088012D01*
X156304756Y-89076332D01*
X157034808Y-89076332D01*
X157034939Y-89078165D01*
X157039190Y-89084780D01*
X157762638Y-89808228D01*
X157774413Y-89814658D01*
X157786428Y-89805362D01*
X157826065Y-89748754D01*
X157831548Y-89739259D01*
X157925472Y-89537836D01*
X157929218Y-89527544D01*
X157986739Y-89312872D01*
X157988642Y-89302077D01*
X158008013Y-89080675D01*
X158008013Y-89069725D01*
X157988642Y-88848323D01*
X157986739Y-88837528D01*
X157929218Y-88622856D01*
X157925472Y-88612564D01*
X157831548Y-88411141D01*
X157826065Y-88401646D01*
X157785841Y-88344200D01*
X157775364Y-88335825D01*
X157761917Y-88342893D01*
X157042422Y-89062388D01*
X157034808Y-89076332D01*
X156304756Y-89076332D01*
X156305992Y-89074068D01*
X156305861Y-89072235D01*
X156301610Y-89065620D01*
X155578162Y-88342172D01*
X155566387Y-88335742D01*
X155554372Y-88345038D01*
X155514735Y-88401646D01*
X155509252Y-88411141D01*
X155415328Y-88612564D01*
X155411582Y-88622856D01*
X155354061Y-88837528D01*
X155352158Y-88848323D01*
X155332787Y-89069725D01*
X155332787Y-89080675D01*
X151333700Y-89080675D01*
X151333700Y-87970236D01*
X155931025Y-87970236D01*
X155938093Y-87983683D01*
X156657588Y-88703178D01*
X156671532Y-88710792D01*
X156673365Y-88710661D01*
X156679980Y-88706410D01*
X157403428Y-87982962D01*
X157409858Y-87971187D01*
X157400562Y-87959172D01*
X157343954Y-87919535D01*
X157334459Y-87914052D01*
X157133036Y-87820128D01*
X157122744Y-87816382D01*
X156908072Y-87758861D01*
X156897277Y-87756958D01*
X156675875Y-87737587D01*
X156664925Y-87737587D01*
X156443523Y-87756958D01*
X156432728Y-87758861D01*
X156218056Y-87816382D01*
X156207764Y-87820128D01*
X156006341Y-87914052D01*
X155996846Y-87919535D01*
X155939400Y-87959759D01*
X155931025Y-87970236D01*
X151333700Y-87970236D01*
X151333700Y-86448334D01*
X155336900Y-86448334D01*
X155343655Y-86510516D01*
X155394785Y-86646905D01*
X155482139Y-86763461D01*
X155598695Y-86850815D01*
X155735084Y-86901945D01*
X155797266Y-86908700D01*
X157543534Y-86908700D01*
X157605716Y-86901945D01*
X157742105Y-86850815D01*
X157858661Y-86763461D01*
X157946015Y-86646905D01*
X157997145Y-86510516D01*
X158003900Y-86448334D01*
X158003900Y-84702066D01*
X157997145Y-84639884D01*
X157946015Y-84503495D01*
X157858661Y-84386939D01*
X157742105Y-84299585D01*
X157605716Y-84248455D01*
X157543534Y-84241700D01*
X155797266Y-84241700D01*
X155735084Y-84248455D01*
X155598695Y-84299585D01*
X155482139Y-84386939D01*
X155394785Y-84503495D01*
X155343655Y-84639884D01*
X155336900Y-84702066D01*
X155336900Y-86448334D01*
X151333700Y-86448334D01*
X151333700Y-83467174D01*
X161895145Y-83467174D01*
X161895442Y-83472326D01*
X161895442Y-83472330D01*
X161897876Y-83514533D01*
X161908013Y-83690341D01*
X161909150Y-83695387D01*
X161909151Y-83695393D01*
X161924715Y-83764454D01*
X161957157Y-83908410D01*
X161999653Y-84013066D01*
X162019378Y-84061642D01*
X162041257Y-84115525D01*
X162043962Y-84119940D01*
X162043963Y-84119941D01*
X162069010Y-84160814D01*
X162158056Y-84306122D01*
X162304415Y-84475084D01*
X162308390Y-84478384D01*
X162308393Y-84478387D01*
X162351872Y-84514484D01*
X162476405Y-84617873D01*
X162669407Y-84730654D01*
X162674227Y-84732494D01*
X162674232Y-84732497D01*
X162777687Y-84772002D01*
X162878237Y-84810398D01*
X162883305Y-84811429D01*
X162883308Y-84811430D01*
X162956337Y-84826288D01*
X163097287Y-84854965D01*
X163102460Y-84855155D01*
X163102463Y-84855155D01*
X163315511Y-84862967D01*
X163315515Y-84862967D01*
X163320675Y-84863156D01*
X163325795Y-84862500D01*
X163325797Y-84862500D01*
X163395669Y-84853549D01*
X163542401Y-84834752D01*
X163548691Y-84832865D01*
X163549256Y-84832862D01*
X163552411Y-84832191D01*
X163552549Y-84832842D01*
X163619685Y-84832443D01*
X163674001Y-84864453D01*
X163769564Y-84960016D01*
X163803590Y-85022328D01*
X163798525Y-85093143D01*
X163755978Y-85149979D01*
X163689458Y-85174790D01*
X163665553Y-85174225D01*
X163609329Y-85167521D01*
X163602326Y-85168257D01*
X163602325Y-85168257D01*
X163447101Y-85184571D01*
X163447097Y-85184572D01*
X163440093Y-85185308D01*
X163433422Y-85187579D01*
X163285674Y-85237876D01*
X163285671Y-85237877D01*
X163279004Y-85240147D01*
X163273006Y-85243837D01*
X163273004Y-85243838D01*
X163236672Y-85266190D01*
X163134067Y-85329313D01*
X163129036Y-85334240D01*
X163129033Y-85334242D01*
X163073276Y-85388843D01*
X163012486Y-85448373D01*
X162920305Y-85591411D01*
X162917896Y-85598031D01*
X162917895Y-85598032D01*
X162886779Y-85683523D01*
X162862104Y-85751316D01*
X162840776Y-85920143D01*
X162857382Y-86089499D01*
X162911095Y-86250967D01*
X162914742Y-86256989D01*
X162914743Y-86256991D01*
X162932048Y-86285564D01*
X162999247Y-86396523D01*
X163004143Y-86401593D01*
X163023307Y-86421438D01*
X163117456Y-86518931D01*
X163259846Y-86612109D01*
X163419342Y-86671425D01*
X163426323Y-86672356D01*
X163426325Y-86672357D01*
X163472426Y-86678508D01*
X163588015Y-86693931D01*
X163595026Y-86693293D01*
X163595030Y-86693293D01*
X163750461Y-86679147D01*
X163757482Y-86678508D01*
X163764184Y-86676330D01*
X163764186Y-86676330D01*
X163912623Y-86628100D01*
X163912626Y-86628099D01*
X163919322Y-86625923D01*
X164012216Y-86570547D01*
X164059434Y-86542400D01*
X164059437Y-86542398D01*
X164065489Y-86538790D01*
X164188720Y-86421438D01*
X164282890Y-86279702D01*
X164286348Y-86270600D01*
X164340817Y-86127209D01*
X164340818Y-86127206D01*
X164343318Y-86120624D01*
X164367000Y-85952113D01*
X164367298Y-85930800D01*
X164360274Y-85868175D01*
X164372559Y-85798250D01*
X164420698Y-85746066D01*
X164489408Y-85728192D01*
X164556873Y-85750303D01*
X164574584Y-85765036D01*
X165380095Y-86570547D01*
X165414121Y-86632859D01*
X165417000Y-86659642D01*
X165417000Y-88547786D01*
X165415922Y-88564233D01*
X165411845Y-88595200D01*
X165417000Y-88634355D01*
X165432377Y-88751153D01*
X165492572Y-88896477D01*
X165588329Y-89021271D01*
X165594882Y-89026299D01*
X165613115Y-89040290D01*
X165625506Y-89051157D01*
X171298839Y-94724490D01*
X171309707Y-94736881D01*
X171328729Y-94761671D01*
X171335275Y-94766694D01*
X171367461Y-94791391D01*
X171431102Y-94840224D01*
X171453523Y-94857428D01*
X171598847Y-94917623D01*
X171699864Y-94930923D01*
X171738372Y-94935993D01*
X171754800Y-94938156D01*
X171762988Y-94937078D01*
X171785775Y-94934078D01*
X171802222Y-94933000D01*
X177315458Y-94933000D01*
X177384451Y-94953568D01*
X177481246Y-95016909D01*
X177640742Y-95076225D01*
X177647723Y-95077156D01*
X177647725Y-95077157D01*
X177693826Y-95083308D01*
X177809415Y-95098731D01*
X177816426Y-95098093D01*
X177816430Y-95098093D01*
X177971861Y-95083947D01*
X177978882Y-95083308D01*
X177985584Y-95081130D01*
X177985586Y-95081130D01*
X178134023Y-95032900D01*
X178134026Y-95032899D01*
X178140722Y-95030723D01*
X178212467Y-94987954D01*
X178280834Y-94947200D01*
X178280837Y-94947198D01*
X178286889Y-94943590D01*
X178410120Y-94826238D01*
X178414289Y-94819964D01*
X178500395Y-94690364D01*
X178504290Y-94684502D01*
X178509706Y-94670245D01*
X178562217Y-94532009D01*
X178562218Y-94532006D01*
X178564718Y-94525424D01*
X178588400Y-94356913D01*
X178588698Y-94335600D01*
X178578779Y-94247171D01*
X178570515Y-94173488D01*
X178570514Y-94173485D01*
X178569730Y-94166492D01*
X178513767Y-94005790D01*
X178499385Y-93982773D01*
X178427325Y-93867453D01*
X178423592Y-93861479D01*
X178414561Y-93852385D01*
X178380753Y-93789955D01*
X178386064Y-93719157D01*
X178428808Y-93662470D01*
X178495414Y-93637891D01*
X178503966Y-93637600D01*
X179632186Y-93637600D01*
X179648633Y-93638678D01*
X179679600Y-93642755D01*
X179718755Y-93637600D01*
X179827054Y-93623342D01*
X179835553Y-93622223D01*
X179980877Y-93562028D01*
X180021525Y-93530838D01*
X180105671Y-93466271D01*
X180124690Y-93441485D01*
X180135557Y-93429094D01*
X180170650Y-93394001D01*
X180232962Y-93359975D01*
X180248324Y-93357615D01*
X180257861Y-93356747D01*
X180264882Y-93356108D01*
X180271584Y-93353930D01*
X180271586Y-93353930D01*
X180420023Y-93305700D01*
X180420026Y-93305699D01*
X180426722Y-93303523D01*
X180525682Y-93244531D01*
X180566834Y-93220000D01*
X180566837Y-93219998D01*
X180572889Y-93216390D01*
X180696120Y-93099038D01*
X180719093Y-93064462D01*
X180773342Y-92982811D01*
X180790290Y-92957302D01*
X180799016Y-92934330D01*
X180848217Y-92804809D01*
X180848218Y-92804806D01*
X180850718Y-92798224D01*
X180874400Y-92629713D01*
X180874698Y-92608400D01*
X180863545Y-92508967D01*
X180859682Y-92474521D01*
X180860346Y-92470743D01*
X181380176Y-92470743D01*
X181396782Y-92640099D01*
X181450495Y-92801567D01*
X181454142Y-92807589D01*
X181454143Y-92807591D01*
X181493493Y-92872565D01*
X181538647Y-92947123D01*
X181543543Y-92952193D01*
X181562707Y-92972038D01*
X181656856Y-93069531D01*
X181799246Y-93162709D01*
X181958742Y-93222025D01*
X181965723Y-93222956D01*
X181965725Y-93222957D01*
X182011826Y-93229108D01*
X182127415Y-93244531D01*
X182134426Y-93243893D01*
X182134430Y-93243893D01*
X182289861Y-93229747D01*
X182296882Y-93229108D01*
X182303584Y-93226930D01*
X182303586Y-93226930D01*
X182452023Y-93178700D01*
X182452026Y-93178699D01*
X182458722Y-93176523D01*
X182553658Y-93119930D01*
X182598834Y-93093000D01*
X182598837Y-93092998D01*
X182604889Y-93089390D01*
X182728120Y-92972038D01*
X182742099Y-92950999D01*
X182818395Y-92836164D01*
X182822290Y-92830302D01*
X182831974Y-92804809D01*
X182880217Y-92677809D01*
X182880218Y-92677806D01*
X182882718Y-92671224D01*
X182906400Y-92502713D01*
X182906698Y-92481400D01*
X182891909Y-92349547D01*
X182888515Y-92319288D01*
X182888514Y-92319285D01*
X182887730Y-92312292D01*
X182831767Y-92151590D01*
X182825782Y-92142011D01*
X182745325Y-92013253D01*
X182741592Y-92007279D01*
X182643021Y-91908018D01*
X182626649Y-91891531D01*
X182626645Y-91891528D01*
X182621685Y-91886533D01*
X182478008Y-91795352D01*
X182317700Y-91738269D01*
X182148729Y-91718121D01*
X182141726Y-91718857D01*
X182141725Y-91718857D01*
X181986501Y-91735171D01*
X181986497Y-91735172D01*
X181979493Y-91735908D01*
X181972822Y-91738179D01*
X181825074Y-91788476D01*
X181825071Y-91788477D01*
X181818404Y-91790747D01*
X181812406Y-91794437D01*
X181812404Y-91794438D01*
X181760173Y-91826571D01*
X181673467Y-91879913D01*
X181668436Y-91884840D01*
X181668433Y-91884842D01*
X181644767Y-91908018D01*
X181551886Y-91998973D01*
X181459705Y-92142011D01*
X181457296Y-92148631D01*
X181457295Y-92148632D01*
X181403913Y-92295297D01*
X181401504Y-92301916D01*
X181380176Y-92470743D01*
X180860346Y-92470743D01*
X180871967Y-92404596D01*
X180920380Y-92352248D01*
X180921154Y-92351787D01*
X180950908Y-92334050D01*
X180998634Y-92305600D01*
X180998637Y-92305598D01*
X181004689Y-92301990D01*
X181127920Y-92184638D01*
X181132236Y-92178143D01*
X181218195Y-92048764D01*
X181222090Y-92042902D01*
X181237163Y-92003222D01*
X181280017Y-91890409D01*
X181280018Y-91890406D01*
X181282518Y-91883824D01*
X181290434Y-91827497D01*
X181319722Y-91762823D01*
X181326113Y-91755938D01*
X183750946Y-89331105D01*
X183813258Y-89297079D01*
X183840041Y-89294200D01*
X183843258Y-89294200D01*
X183912251Y-89314768D01*
X184009046Y-89378109D01*
X184168542Y-89437425D01*
X184175523Y-89438356D01*
X184175525Y-89438357D01*
X184217744Y-89443990D01*
X184337215Y-89459931D01*
X184344226Y-89459293D01*
X184344230Y-89459293D01*
X184499661Y-89445147D01*
X184506682Y-89444508D01*
X184513384Y-89442330D01*
X184513386Y-89442330D01*
X184661823Y-89394100D01*
X184661826Y-89394099D01*
X184668522Y-89391923D01*
X184768806Y-89332142D01*
X184808634Y-89308400D01*
X184808637Y-89308398D01*
X184814689Y-89304790D01*
X184937920Y-89187438D01*
X184956421Y-89159593D01*
X185011739Y-89076332D01*
X185032090Y-89045702D01*
X185039461Y-89026299D01*
X185090017Y-88893209D01*
X185090018Y-88893206D01*
X185092518Y-88886624D01*
X185116200Y-88718113D01*
X185116498Y-88696800D01*
X185097530Y-88527692D01*
X185041567Y-88366990D01*
X185030583Y-88349411D01*
X184955125Y-88228653D01*
X184951392Y-88222679D01*
X184844240Y-88114777D01*
X184836449Y-88106931D01*
X184836445Y-88106928D01*
X184831485Y-88101933D01*
X184687808Y-88010752D01*
X184527500Y-87953669D01*
X184358529Y-87933521D01*
X184351526Y-87934257D01*
X184351525Y-87934257D01*
X184196301Y-87950571D01*
X184196297Y-87950572D01*
X184189293Y-87951308D01*
X184182622Y-87953579D01*
X184034874Y-88003876D01*
X184034871Y-88003877D01*
X184028204Y-88006147D01*
X184022208Y-88009836D01*
X184022197Y-88009841D01*
X183906991Y-88080717D01*
X183840969Y-88099400D01*
X183587814Y-88099400D01*
X183571367Y-88098322D01*
X183548588Y-88095323D01*
X183540400Y-88094245D01*
X183445212Y-88106777D01*
X183384447Y-88114777D01*
X183239123Y-88174972D01*
X183232572Y-88179999D01*
X183131300Y-88257707D01*
X183114329Y-88270729D01*
X183109301Y-88277282D01*
X183095310Y-88295515D01*
X183084443Y-88307906D01*
X180482973Y-90909376D01*
X180420661Y-90943402D01*
X180407051Y-90945591D01*
X180401903Y-90946132D01*
X180386301Y-90947771D01*
X180386297Y-90947772D01*
X180379293Y-90948508D01*
X180372622Y-90950779D01*
X180224874Y-91001076D01*
X180224871Y-91001077D01*
X180218204Y-91003347D01*
X180212206Y-91007037D01*
X180212204Y-91007038D01*
X180155246Y-91042079D01*
X180073267Y-91092513D01*
X180068236Y-91097440D01*
X180068233Y-91097442D01*
X180012476Y-91152043D01*
X179951686Y-91211573D01*
X179859505Y-91354611D01*
X179857096Y-91361231D01*
X179857095Y-91361232D01*
X179805918Y-91501838D01*
X179801304Y-91514516D01*
X179779976Y-91683343D01*
X179791329Y-91799129D01*
X179794335Y-91829783D01*
X179781076Y-91899531D01*
X179734958Y-91949397D01*
X179641467Y-92006913D01*
X179636436Y-92011840D01*
X179636433Y-92011842D01*
X179631875Y-92016306D01*
X179519886Y-92125973D01*
X179427705Y-92269011D01*
X179425294Y-92275635D01*
X179394626Y-92359894D01*
X179352532Y-92417066D01*
X179286211Y-92442404D01*
X179276225Y-92442800D01*
X173789700Y-92442800D01*
X173722186Y-92423185D01*
X173619362Y-92357930D01*
X173619358Y-92357928D01*
X173613408Y-92354152D01*
X173453100Y-92297069D01*
X173284129Y-92276921D01*
X173277126Y-92277657D01*
X173277125Y-92277657D01*
X173121901Y-92293971D01*
X173121897Y-92293972D01*
X173114893Y-92294708D01*
X173108222Y-92296979D01*
X172960474Y-92347276D01*
X172960471Y-92347277D01*
X172953804Y-92349547D01*
X172947808Y-92353235D01*
X172947801Y-92353239D01*
X172868083Y-92402283D01*
X172799582Y-92420942D01*
X172731868Y-92399604D01*
X172686439Y-92345044D01*
X172677286Y-92277431D01*
X172690326Y-92184638D01*
X172695600Y-92147113D01*
X172695898Y-92125800D01*
X172683274Y-92013253D01*
X172677715Y-91963688D01*
X172677714Y-91963685D01*
X172676930Y-91956692D01*
X172620967Y-91795990D01*
X172550316Y-91682924D01*
X172531171Y-91615676D01*
X172531183Y-91612685D01*
X172542625Y-88603388D01*
X172555222Y-85290706D01*
X172556299Y-85274741D01*
X172559478Y-85250591D01*
X172559478Y-85250588D01*
X172560556Y-85242400D01*
X172556310Y-85210153D01*
X172550454Y-85165675D01*
X172550392Y-85165198D01*
X172548448Y-85149979D01*
X172540612Y-85088661D01*
X172540174Y-85087591D01*
X172540023Y-85086447D01*
X172510371Y-85014861D01*
X172480970Y-84943110D01*
X172480270Y-84942191D01*
X172479828Y-84941123D01*
X172434700Y-84882309D01*
X172432825Y-84879866D01*
X172432535Y-84879486D01*
X172390696Y-84824529D01*
X172390692Y-84824525D01*
X172385688Y-84817952D01*
X172375921Y-84810398D01*
X172359887Y-84797998D01*
X172347875Y-84787423D01*
X171588892Y-84028440D01*
X171554866Y-83966128D01*
X171557429Y-83902716D01*
X171590547Y-83793714D01*
X171590550Y-83793701D01*
X171592051Y-83788760D01*
X171621229Y-83567135D01*
X171621311Y-83563785D01*
X171622775Y-83503866D01*
X171622775Y-83503862D01*
X171622857Y-83500501D01*
X171620117Y-83467174D01*
X172395147Y-83467174D01*
X172395444Y-83472326D01*
X172395444Y-83472330D01*
X172397878Y-83514533D01*
X172408015Y-83690341D01*
X172409152Y-83695387D01*
X172409153Y-83695393D01*
X172424717Y-83764454D01*
X172457159Y-83908410D01*
X172499655Y-84013066D01*
X172519380Y-84061642D01*
X172541259Y-84115525D01*
X172543964Y-84119940D01*
X172543965Y-84119941D01*
X172569012Y-84160814D01*
X172658058Y-84306122D01*
X172804417Y-84475084D01*
X172808392Y-84478384D01*
X172808395Y-84478387D01*
X172851874Y-84514484D01*
X172976407Y-84617873D01*
X173169409Y-84730654D01*
X173174229Y-84732494D01*
X173174234Y-84732497D01*
X173277689Y-84772002D01*
X173378239Y-84810398D01*
X173383307Y-84811429D01*
X173383310Y-84811430D01*
X173456339Y-84826288D01*
X173597289Y-84854965D01*
X173602462Y-84855155D01*
X173602465Y-84855155D01*
X173815513Y-84862967D01*
X173815517Y-84862967D01*
X173820677Y-84863156D01*
X173825797Y-84862500D01*
X173825799Y-84862500D01*
X174037275Y-84835409D01*
X174037276Y-84835409D01*
X174042403Y-84834752D01*
X174048770Y-84832842D01*
X174251559Y-84772002D01*
X174256512Y-84770516D01*
X174261151Y-84768243D01*
X174261157Y-84768241D01*
X174423489Y-84688715D01*
X174457256Y-84672173D01*
X174590842Y-84576887D01*
X174635029Y-84545369D01*
X174635034Y-84545365D01*
X174639241Y-84542364D01*
X174797582Y-84384575D01*
X174928026Y-84203043D01*
X174973650Y-84110731D01*
X175024775Y-84007287D01*
X175024776Y-84007285D01*
X175027069Y-84002645D01*
X175092052Y-83788760D01*
X175121230Y-83567135D01*
X175121312Y-83563785D01*
X175122776Y-83503866D01*
X175122776Y-83503862D01*
X175122858Y-83500501D01*
X175120118Y-83467174D01*
X175895148Y-83467174D01*
X175895445Y-83472326D01*
X175895445Y-83472330D01*
X175897879Y-83514533D01*
X175908016Y-83690341D01*
X175909153Y-83695387D01*
X175909154Y-83695393D01*
X175924718Y-83764454D01*
X175957160Y-83908410D01*
X175999656Y-84013066D01*
X176019381Y-84061642D01*
X176041260Y-84115525D01*
X176043965Y-84119940D01*
X176043966Y-84119941D01*
X176069013Y-84160814D01*
X176158059Y-84306122D01*
X176304418Y-84475084D01*
X176308393Y-84478384D01*
X176308396Y-84478387D01*
X176351875Y-84514484D01*
X176476408Y-84617873D01*
X176669410Y-84730654D01*
X176674230Y-84732494D01*
X176674235Y-84732497D01*
X176777690Y-84772002D01*
X176878240Y-84810398D01*
X176883308Y-84811429D01*
X176883311Y-84811430D01*
X176956340Y-84826288D01*
X177097290Y-84854965D01*
X177102463Y-84855155D01*
X177102466Y-84855155D01*
X177315514Y-84862967D01*
X177315518Y-84862967D01*
X177320678Y-84863156D01*
X177325798Y-84862500D01*
X177325800Y-84862500D01*
X177537276Y-84835409D01*
X177537277Y-84835409D01*
X177542404Y-84834752D01*
X177548771Y-84832842D01*
X177751560Y-84772002D01*
X177756513Y-84770516D01*
X177761152Y-84768243D01*
X177761158Y-84768241D01*
X177923490Y-84688715D01*
X177957257Y-84672173D01*
X178090843Y-84576887D01*
X178135030Y-84545369D01*
X178135035Y-84545365D01*
X178139242Y-84542364D01*
X178297583Y-84384575D01*
X178428027Y-84203043D01*
X178473651Y-84110731D01*
X178524776Y-84007287D01*
X178524777Y-84007285D01*
X178527070Y-84002645D01*
X178592053Y-83788760D01*
X178621231Y-83567135D01*
X178621313Y-83563785D01*
X178622777Y-83503866D01*
X178622777Y-83503862D01*
X178622859Y-83500501D01*
X178604543Y-83277715D01*
X178550085Y-83060912D01*
X178460950Y-82855914D01*
X178349468Y-82683589D01*
X178342338Y-82672567D01*
X178342336Y-82672564D01*
X178339530Y-82668227D01*
X178189086Y-82502891D01*
X178185035Y-82499692D01*
X178185031Y-82499688D01*
X178017714Y-82367549D01*
X178017710Y-82367547D01*
X178013659Y-82364347D01*
X177980866Y-82346244D01*
X177907985Y-82306012D01*
X177817959Y-82256315D01*
X177638487Y-82192761D01*
X177612115Y-82183422D01*
X177612112Y-82183421D01*
X177607243Y-82181697D01*
X177602154Y-82180790D01*
X177602152Y-82180790D01*
X177392258Y-82143402D01*
X177392252Y-82143401D01*
X177387169Y-82142496D01*
X177301507Y-82141449D01*
X177168817Y-82139828D01*
X177168815Y-82139828D01*
X177163648Y-82139765D01*
X176942682Y-82173577D01*
X176818938Y-82214023D01*
X176735125Y-82241417D01*
X176735123Y-82241418D01*
X176730206Y-82243025D01*
X176725620Y-82245412D01*
X176725616Y-82245414D01*
X176542978Y-82340490D01*
X176531925Y-82346244D01*
X176527783Y-82349354D01*
X176372527Y-82465923D01*
X176353165Y-82480460D01*
X176198727Y-82642071D01*
X176195813Y-82646343D01*
X176195812Y-82646344D01*
X176180564Y-82668697D01*
X176072758Y-82826735D01*
X176059214Y-82855914D01*
X176015722Y-82949609D01*
X175978640Y-83029494D01*
X175918902Y-83244902D01*
X175895148Y-83467174D01*
X175120118Y-83467174D01*
X175104542Y-83277715D01*
X175050084Y-83060912D01*
X174960949Y-82855914D01*
X174849467Y-82683589D01*
X174842337Y-82672567D01*
X174842335Y-82672564D01*
X174839529Y-82668227D01*
X174689085Y-82502891D01*
X174685034Y-82499692D01*
X174685030Y-82499688D01*
X174517713Y-82367549D01*
X174517709Y-82367547D01*
X174513658Y-82364347D01*
X174480865Y-82346244D01*
X174407984Y-82306012D01*
X174317958Y-82256315D01*
X174138486Y-82192761D01*
X174112114Y-82183422D01*
X174112111Y-82183421D01*
X174107242Y-82181697D01*
X174102153Y-82180790D01*
X174102151Y-82180790D01*
X173892257Y-82143402D01*
X173892251Y-82143401D01*
X173887168Y-82142496D01*
X173801506Y-82141449D01*
X173668816Y-82139828D01*
X173668814Y-82139828D01*
X173663647Y-82139765D01*
X173442681Y-82173577D01*
X173318937Y-82214023D01*
X173235124Y-82241417D01*
X173235122Y-82241418D01*
X173230205Y-82243025D01*
X173225619Y-82245412D01*
X173225615Y-82245414D01*
X173042977Y-82340490D01*
X173031924Y-82346244D01*
X173027782Y-82349354D01*
X172872526Y-82465923D01*
X172853164Y-82480460D01*
X172698726Y-82642071D01*
X172695812Y-82646343D01*
X172695811Y-82646344D01*
X172680563Y-82668697D01*
X172572757Y-82826735D01*
X172559213Y-82855914D01*
X172515721Y-82949609D01*
X172478639Y-83029494D01*
X172418901Y-83244902D01*
X172395147Y-83467174D01*
X171620117Y-83467174D01*
X171604541Y-83277715D01*
X171550083Y-83060912D01*
X171460948Y-82855914D01*
X171349466Y-82683589D01*
X171342336Y-82672567D01*
X171342334Y-82672564D01*
X171339528Y-82668227D01*
X171189084Y-82502891D01*
X171185033Y-82499692D01*
X171185029Y-82499688D01*
X171017712Y-82367549D01*
X171017708Y-82367547D01*
X171013657Y-82364347D01*
X170980864Y-82346244D01*
X170907983Y-82306012D01*
X170817957Y-82256315D01*
X170638485Y-82192761D01*
X170612113Y-82183422D01*
X170612110Y-82183421D01*
X170607241Y-82181697D01*
X170602152Y-82180790D01*
X170602150Y-82180790D01*
X170392256Y-82143402D01*
X170392250Y-82143401D01*
X170387167Y-82142496D01*
X170301505Y-82141449D01*
X170168815Y-82139828D01*
X170168813Y-82139828D01*
X170163646Y-82139765D01*
X169942680Y-82173577D01*
X169818936Y-82214023D01*
X169735123Y-82241417D01*
X169735121Y-82241418D01*
X169730204Y-82243025D01*
X169725618Y-82245412D01*
X169725614Y-82245414D01*
X169542976Y-82340490D01*
X169531923Y-82346244D01*
X169527781Y-82349354D01*
X169372525Y-82465923D01*
X169353163Y-82480460D01*
X169198725Y-82642071D01*
X169195811Y-82646343D01*
X169195810Y-82646344D01*
X169180562Y-82668697D01*
X169072756Y-82826735D01*
X169059212Y-82855914D01*
X169015720Y-82949609D01*
X168978638Y-83029494D01*
X168918900Y-83244902D01*
X168895146Y-83467174D01*
X168895443Y-83472326D01*
X168895443Y-83472330D01*
X168897877Y-83514533D01*
X168908014Y-83690341D01*
X168909151Y-83695387D01*
X168909152Y-83695393D01*
X168924716Y-83764454D01*
X168957158Y-83908410D01*
X168999654Y-84013066D01*
X169019379Y-84061642D01*
X169041258Y-84115525D01*
X169043963Y-84119940D01*
X169043964Y-84119941D01*
X169069011Y-84160814D01*
X169158057Y-84306122D01*
X169304416Y-84475084D01*
X169308391Y-84478384D01*
X169308394Y-84478387D01*
X169351873Y-84514484D01*
X169476406Y-84617873D01*
X169669408Y-84730654D01*
X169674228Y-84732494D01*
X169674233Y-84732497D01*
X169777688Y-84772002D01*
X169878238Y-84810398D01*
X169883306Y-84811429D01*
X169883309Y-84811430D01*
X169956338Y-84826288D01*
X170097288Y-84854965D01*
X170102461Y-84855155D01*
X170102464Y-84855155D01*
X170315512Y-84862967D01*
X170315516Y-84862967D01*
X170320676Y-84863156D01*
X170325796Y-84862500D01*
X170325798Y-84862500D01*
X170537274Y-84835409D01*
X170537275Y-84835409D01*
X170542402Y-84834752D01*
X170547359Y-84833265D01*
X170547363Y-84833264D01*
X170595775Y-84818740D01*
X170666770Y-84818322D01*
X170721079Y-84850330D01*
X171024444Y-85153696D01*
X171322555Y-85451807D01*
X171356580Y-85514119D01*
X171359458Y-85541381D01*
X171337917Y-91206769D01*
X171317656Y-91274813D01*
X171263824Y-91321102D01*
X171193512Y-91330938D01*
X171129044Y-91301200D01*
X171092928Y-91247730D01*
X171071567Y-91186390D01*
X171065582Y-91176811D01*
X170985125Y-91048053D01*
X170981392Y-91042079D01*
X170901235Y-90961361D01*
X170866449Y-90926331D01*
X170866445Y-90926328D01*
X170861485Y-90921333D01*
X170717808Y-90830152D01*
X170557500Y-90773069D01*
X170388529Y-90752921D01*
X170381526Y-90753657D01*
X170381525Y-90753657D01*
X170226301Y-90769971D01*
X170226297Y-90769972D01*
X170219293Y-90770708D01*
X170212622Y-90772979D01*
X170064874Y-90823276D01*
X170064871Y-90823277D01*
X170058204Y-90825547D01*
X170052206Y-90829237D01*
X170052204Y-90829238D01*
X170017063Y-90850857D01*
X169913267Y-90914713D01*
X169908236Y-90919640D01*
X169908233Y-90919642D01*
X169881735Y-90945591D01*
X169791686Y-91033773D01*
X169699505Y-91176811D01*
X169697095Y-91183433D01*
X169693965Y-91189738D01*
X169692078Y-91188801D01*
X169656052Y-91237745D01*
X169589735Y-91263092D01*
X169520241Y-91248562D01*
X169490636Y-91226585D01*
X166648705Y-88384654D01*
X166614679Y-88322342D01*
X166611800Y-88295559D01*
X166611800Y-86407420D01*
X166612878Y-86390972D01*
X166615878Y-86368187D01*
X166616956Y-86360000D01*
X166596423Y-86204047D01*
X166536228Y-86058723D01*
X166464513Y-85965261D01*
X166464512Y-85965260D01*
X166454424Y-85952113D01*
X166445498Y-85940480D01*
X166445497Y-85940479D01*
X166440471Y-85933929D01*
X166433921Y-85928903D01*
X166433918Y-85928900D01*
X166415689Y-85914913D01*
X166403298Y-85904046D01*
X164574630Y-84075378D01*
X164540604Y-84013066D01*
X164543167Y-83949654D01*
X164590546Y-83793714D01*
X164590549Y-83793701D01*
X164592050Y-83788760D01*
X164621228Y-83567135D01*
X164621310Y-83563785D01*
X164622774Y-83503866D01*
X164622774Y-83503862D01*
X164622856Y-83500501D01*
X164620116Y-83467174D01*
X165395146Y-83467174D01*
X165395443Y-83472326D01*
X165395443Y-83472330D01*
X165397877Y-83514533D01*
X165408014Y-83690341D01*
X165409151Y-83695387D01*
X165409152Y-83695393D01*
X165424716Y-83764454D01*
X165457158Y-83908410D01*
X165499654Y-84013066D01*
X165519379Y-84061642D01*
X165541258Y-84115525D01*
X165543963Y-84119940D01*
X165543964Y-84119941D01*
X165569011Y-84160814D01*
X165658057Y-84306122D01*
X165804416Y-84475084D01*
X165808391Y-84478384D01*
X165808394Y-84478387D01*
X165851873Y-84514484D01*
X165976406Y-84617873D01*
X166169408Y-84730654D01*
X166174228Y-84732494D01*
X166174233Y-84732497D01*
X166277688Y-84772002D01*
X166378238Y-84810398D01*
X166383306Y-84811429D01*
X166383309Y-84811430D01*
X166456338Y-84826288D01*
X166597288Y-84854965D01*
X166602461Y-84855155D01*
X166602464Y-84855155D01*
X166815512Y-84862967D01*
X166815516Y-84862967D01*
X166820676Y-84863156D01*
X166825796Y-84862500D01*
X166825798Y-84862500D01*
X167037274Y-84835409D01*
X167037275Y-84835409D01*
X167042402Y-84834752D01*
X167048769Y-84832842D01*
X167251558Y-84772002D01*
X167256511Y-84770516D01*
X167261150Y-84768243D01*
X167261156Y-84768241D01*
X167423488Y-84688715D01*
X167457255Y-84672173D01*
X167590841Y-84576887D01*
X167635028Y-84545369D01*
X167635033Y-84545365D01*
X167639240Y-84542364D01*
X167797581Y-84384575D01*
X167928025Y-84203043D01*
X167973649Y-84110731D01*
X168024774Y-84007287D01*
X168024775Y-84007285D01*
X168027068Y-84002645D01*
X168092051Y-83788760D01*
X168121229Y-83567135D01*
X168121311Y-83563785D01*
X168122775Y-83503866D01*
X168122775Y-83503862D01*
X168122857Y-83500501D01*
X168104541Y-83277715D01*
X168050083Y-83060912D01*
X167960948Y-82855914D01*
X167849466Y-82683589D01*
X167842336Y-82672567D01*
X167842334Y-82672564D01*
X167839528Y-82668227D01*
X167689084Y-82502891D01*
X167685033Y-82499692D01*
X167685029Y-82499688D01*
X167517712Y-82367549D01*
X167517708Y-82367547D01*
X167513657Y-82364347D01*
X167480864Y-82346244D01*
X167407983Y-82306012D01*
X167317957Y-82256315D01*
X167138485Y-82192761D01*
X167112113Y-82183422D01*
X167112110Y-82183421D01*
X167107241Y-82181697D01*
X167102152Y-82180790D01*
X167102150Y-82180790D01*
X166892256Y-82143402D01*
X166892250Y-82143401D01*
X166887167Y-82142496D01*
X166801505Y-82141449D01*
X166668815Y-82139828D01*
X166668813Y-82139828D01*
X166663646Y-82139765D01*
X166442680Y-82173577D01*
X166318936Y-82214023D01*
X166235123Y-82241417D01*
X166235121Y-82241418D01*
X166230204Y-82243025D01*
X166225618Y-82245412D01*
X166225614Y-82245414D01*
X166042976Y-82340490D01*
X166031923Y-82346244D01*
X166027781Y-82349354D01*
X165872525Y-82465923D01*
X165853163Y-82480460D01*
X165698725Y-82642071D01*
X165695811Y-82646343D01*
X165695810Y-82646344D01*
X165680562Y-82668697D01*
X165572756Y-82826735D01*
X165559212Y-82855914D01*
X165515720Y-82949609D01*
X165478638Y-83029494D01*
X165418900Y-83244902D01*
X165395146Y-83467174D01*
X164620116Y-83467174D01*
X164604540Y-83277715D01*
X164550082Y-83060912D01*
X164460947Y-82855914D01*
X164349465Y-82683589D01*
X164342335Y-82672567D01*
X164342333Y-82672564D01*
X164339527Y-82668227D01*
X164189083Y-82502891D01*
X164185032Y-82499692D01*
X164185028Y-82499688D01*
X164017711Y-82367549D01*
X164017707Y-82367547D01*
X164013656Y-82364347D01*
X163980863Y-82346244D01*
X163907982Y-82306012D01*
X163817956Y-82256315D01*
X163638484Y-82192761D01*
X163612112Y-82183422D01*
X163612109Y-82183421D01*
X163607240Y-82181697D01*
X163602151Y-82180790D01*
X163602149Y-82180790D01*
X163392255Y-82143402D01*
X163392249Y-82143401D01*
X163387166Y-82142496D01*
X163301504Y-82141449D01*
X163168814Y-82139828D01*
X163168812Y-82139828D01*
X163163645Y-82139765D01*
X162942679Y-82173577D01*
X162818935Y-82214023D01*
X162735122Y-82241417D01*
X162735120Y-82241418D01*
X162730203Y-82243025D01*
X162725617Y-82245412D01*
X162725613Y-82245414D01*
X162542975Y-82340490D01*
X162531922Y-82346244D01*
X162527780Y-82349354D01*
X162372524Y-82465923D01*
X162353162Y-82480460D01*
X162198724Y-82642071D01*
X162195810Y-82646343D01*
X162195809Y-82646344D01*
X162180561Y-82668697D01*
X162072755Y-82826735D01*
X162059211Y-82855914D01*
X162015719Y-82949609D01*
X161978637Y-83029494D01*
X161918899Y-83244902D01*
X161895145Y-83467174D01*
X151333700Y-83467174D01*
X151333700Y-79939733D01*
X152673822Y-79939733D01*
X152673975Y-79944121D01*
X152673975Y-79944127D01*
X152683142Y-80206615D01*
X152683625Y-80220458D01*
X152684387Y-80224781D01*
X152684388Y-80224788D01*
X152708013Y-80358770D01*
X152732402Y-80497087D01*
X152819203Y-80764235D01*
X152942340Y-81016702D01*
X152944795Y-81020341D01*
X152944798Y-81020347D01*
X153017890Y-81128710D01*
X153099415Y-81249576D01*
X153287371Y-81458322D01*
X153502550Y-81638879D01*
X153740764Y-81787731D01*
X153886976Y-81852829D01*
X153958564Y-81884702D01*
X153997375Y-81901982D01*
X154267390Y-81979407D01*
X154271740Y-81980018D01*
X154271743Y-81980019D01*
X154336359Y-81989100D01*
X154545552Y-82018500D01*
X154756146Y-82018500D01*
X154758332Y-82018347D01*
X154758336Y-82018347D01*
X154961827Y-82004118D01*
X154961832Y-82004117D01*
X154966212Y-82003811D01*
X155240970Y-81945409D01*
X155245099Y-81943906D01*
X155245103Y-81943905D01*
X155500781Y-81850846D01*
X155500785Y-81850844D01*
X155504926Y-81849337D01*
X155752942Y-81717464D01*
X155778652Y-81698785D01*
X155976629Y-81554947D01*
X155976632Y-81554944D01*
X155980192Y-81552358D01*
X156182252Y-81357231D01*
X156355188Y-81135882D01*
X156357384Y-81132078D01*
X156357389Y-81132071D01*
X156493435Y-80896431D01*
X156495636Y-80892619D01*
X156600862Y-80632176D01*
X156634544Y-80497087D01*
X156667753Y-80363893D01*
X156667754Y-80363888D01*
X156668817Y-80359624D01*
X156669770Y-80350562D01*
X156697719Y-80084636D01*
X156697719Y-80084633D01*
X156698178Y-80080267D01*
X156697761Y-80068323D01*
X156688529Y-79803939D01*
X156688528Y-79803933D01*
X156688375Y-79799542D01*
X156685891Y-79785450D01*
X156653006Y-79598955D01*
X156639598Y-79522913D01*
X156552797Y-79255765D01*
X156550750Y-79251567D01*
X156467539Y-79080962D01*
X156429660Y-79003298D01*
X156427205Y-78999659D01*
X156427202Y-78999653D01*
X156373976Y-78920743D01*
X182966776Y-78920743D01*
X182983382Y-79090099D01*
X182985606Y-79096784D01*
X182985606Y-79096785D01*
X183000529Y-79141644D01*
X183037095Y-79251567D01*
X183040742Y-79257589D01*
X183040743Y-79257591D01*
X183069967Y-79305845D01*
X183125247Y-79397123D01*
X183130143Y-79402193D01*
X183143956Y-79416497D01*
X183243456Y-79519531D01*
X183385846Y-79612709D01*
X183545342Y-79672025D01*
X183552323Y-79672956D01*
X183552325Y-79672957D01*
X183598426Y-79679108D01*
X183714015Y-79694531D01*
X183721026Y-79693893D01*
X183721030Y-79693893D01*
X183876461Y-79679747D01*
X183883482Y-79679108D01*
X183890184Y-79676930D01*
X183890186Y-79676930D01*
X184038623Y-79628700D01*
X184038626Y-79628699D01*
X184045322Y-79626523D01*
X184117067Y-79583754D01*
X184185434Y-79543000D01*
X184185437Y-79542998D01*
X184191489Y-79539390D01*
X184314720Y-79422038D01*
X184408890Y-79280302D01*
X184415382Y-79263211D01*
X184466817Y-79127809D01*
X184466818Y-79127806D01*
X184469318Y-79121224D01*
X184493000Y-78952713D01*
X184493117Y-78944364D01*
X184493243Y-78935361D01*
X184493243Y-78935355D01*
X184493298Y-78931400D01*
X184474330Y-78762292D01*
X184418367Y-78601590D01*
X184412382Y-78592011D01*
X184331925Y-78463253D01*
X184328192Y-78457279D01*
X184255372Y-78383949D01*
X184213249Y-78341531D01*
X184213245Y-78341528D01*
X184208285Y-78336533D01*
X184064608Y-78245352D01*
X183904300Y-78188269D01*
X183735329Y-78168121D01*
X183728326Y-78168857D01*
X183728325Y-78168857D01*
X183573101Y-78185171D01*
X183573097Y-78185172D01*
X183566093Y-78185908D01*
X183559422Y-78188179D01*
X183411674Y-78238476D01*
X183411671Y-78238477D01*
X183405004Y-78240747D01*
X183399006Y-78244437D01*
X183399004Y-78244438D01*
X183391379Y-78249129D01*
X183260067Y-78329913D01*
X183255036Y-78334840D01*
X183255033Y-78334842D01*
X183210156Y-78378789D01*
X183138486Y-78448973D01*
X183046305Y-78592011D01*
X183043896Y-78598631D01*
X183043895Y-78598632D01*
X183040396Y-78608245D01*
X182988104Y-78751916D01*
X182966776Y-78920743D01*
X156373976Y-78920743D01*
X156336863Y-78865721D01*
X156272585Y-78770424D01*
X156084629Y-78561678D01*
X155869450Y-78381121D01*
X155631236Y-78232269D01*
X155374625Y-78118018D01*
X155104610Y-78040593D01*
X155100260Y-78039982D01*
X155100257Y-78039981D01*
X154997310Y-78025513D01*
X154826448Y-78001500D01*
X154615854Y-78001500D01*
X154613668Y-78001653D01*
X154613664Y-78001653D01*
X154410173Y-78015882D01*
X154410168Y-78015883D01*
X154405788Y-78016189D01*
X154131030Y-78074591D01*
X154126901Y-78076094D01*
X154126897Y-78076095D01*
X153871219Y-78169154D01*
X153871215Y-78169156D01*
X153867074Y-78170663D01*
X153619058Y-78302536D01*
X153615499Y-78305122D01*
X153615497Y-78305123D01*
X153406072Y-78457279D01*
X153391808Y-78467642D01*
X153189748Y-78662769D01*
X153016812Y-78884118D01*
X153014616Y-78887922D01*
X153014611Y-78887929D01*
X152931177Y-79032442D01*
X152876364Y-79127381D01*
X152771138Y-79387824D01*
X152770073Y-79392097D01*
X152770072Y-79392099D01*
X152711081Y-79628700D01*
X152703183Y-79660376D01*
X152702724Y-79664744D01*
X152702723Y-79664749D01*
X152675605Y-79922767D01*
X152673822Y-79939733D01*
X151333700Y-79939733D01*
X151333700Y-77139300D01*
X151353702Y-77071179D01*
X151407358Y-77024686D01*
X151459700Y-77013300D01*
X213397567Y-77013300D01*
X213465688Y-77033302D01*
G37*
%TD.AperFunction*%
%TA.AperFunction,Conductor*%
G36*
X223609652Y-77033302D02*
G01*
X223656145Y-77086958D01*
X223666249Y-77157232D01*
X223636755Y-77221812D01*
X223615592Y-77241236D01*
X223588432Y-77260969D01*
X223578678Y-77269751D01*
X223461553Y-77399831D01*
X223453831Y-77410459D01*
X223366318Y-77562038D01*
X223360972Y-77574046D01*
X223306884Y-77740510D01*
X223304154Y-77753353D01*
X223290444Y-77883797D01*
X223290100Y-77890356D01*
X223290100Y-78049385D01*
X223294575Y-78064624D01*
X223295965Y-78065829D01*
X223303648Y-78067500D01*
X225062985Y-78067500D01*
X225078224Y-78063025D01*
X225079429Y-78061635D01*
X225081100Y-78053952D01*
X225081100Y-77890356D01*
X225080756Y-77883797D01*
X225067046Y-77753353D01*
X225064316Y-77740510D01*
X225010228Y-77574046D01*
X225004882Y-77562038D01*
X224917369Y-77410459D01*
X224909647Y-77399831D01*
X224792522Y-77269751D01*
X224782768Y-77260969D01*
X224755608Y-77241236D01*
X224712254Y-77185014D01*
X224706179Y-77114277D01*
X224739311Y-77051486D01*
X224801131Y-77016574D01*
X224829669Y-77013300D01*
X228865793Y-77013300D01*
X228933914Y-77033302D01*
X228980407Y-77086958D01*
X228991776Y-77137236D01*
X228993269Y-77228395D01*
X229059796Y-81289565D01*
X229059796Y-81289567D01*
X229095397Y-83462836D01*
X229076513Y-83531275D01*
X229023627Y-83578641D01*
X228969414Y-83590900D01*
X225284462Y-83590900D01*
X225284462Y-83590758D01*
X225284035Y-83590849D01*
X225277929Y-83590121D01*
X225270926Y-83590857D01*
X225265459Y-83590819D01*
X225263912Y-83590900D01*
X225228075Y-83590900D01*
X225135198Y-83601728D01*
X225103265Y-83605451D01*
X225103263Y-83605451D01*
X225095993Y-83606299D01*
X225089116Y-83608795D01*
X225089113Y-83608796D01*
X224935738Y-83664469D01*
X224928859Y-83666966D01*
X224780165Y-83764454D01*
X224657886Y-83893535D01*
X224568581Y-84047284D01*
X224517042Y-84217454D01*
X224506032Y-84394916D01*
X224507272Y-84402132D01*
X224507272Y-84402134D01*
X224521931Y-84487445D01*
X224525735Y-84509581D01*
X224525820Y-84510447D01*
X224525595Y-84513386D01*
X224526366Y-84513254D01*
X224536143Y-84570151D01*
X224578076Y-84668699D01*
X224579695Y-84673567D01*
X224580359Y-84674663D01*
X224580607Y-84676336D01*
X224581215Y-84676077D01*
X224605759Y-84733759D01*
X224610096Y-84739652D01*
X224661083Y-84808936D01*
X224661678Y-84809826D01*
X224662175Y-84810471D01*
X224662757Y-84811243D01*
X224662798Y-84811279D01*
X224663006Y-84811549D01*
X224664441Y-84813499D01*
X224667847Y-84819123D01*
X224670037Y-84821390D01*
X224670513Y-84822616D01*
X224670927Y-84822312D01*
X224711146Y-84876964D01*
X224720329Y-84884765D01*
X224776333Y-84932344D01*
X224777454Y-84933396D01*
X224781165Y-84936466D01*
X224786056Y-84941531D01*
X224790116Y-84944188D01*
X224790589Y-84944888D01*
X224790802Y-84944637D01*
X224846651Y-84992084D01*
X224916456Y-85027729D01*
X224917049Y-85028073D01*
X224922553Y-85030853D01*
X224928446Y-85034709D01*
X224934370Y-85036912D01*
X224934582Y-85037111D01*
X224934634Y-85037010D01*
X224998488Y-85069616D01*
X224998490Y-85069617D01*
X225005004Y-85072943D01*
X225012109Y-85074682D01*
X225012113Y-85074683D01*
X225081752Y-85091723D01*
X225081735Y-85091794D01*
X225081958Y-85091800D01*
X225087942Y-85094025D01*
X225094917Y-85094955D01*
X225100912Y-85096450D01*
X225101597Y-85096579D01*
X225177712Y-85115204D01*
X225183311Y-85115551D01*
X225183315Y-85115552D01*
X225186991Y-85115780D01*
X225187001Y-85115780D01*
X225188930Y-85115900D01*
X225251886Y-85115900D01*
X225251886Y-85116247D01*
X225252906Y-85116036D01*
X225256615Y-85116531D01*
X225263548Y-85115900D01*
X225263972Y-85115900D01*
X225267599Y-85115976D01*
X225269267Y-85115900D01*
X228998524Y-85115900D01*
X229066645Y-85135902D01*
X229113138Y-85189558D01*
X229124507Y-85239835D01*
X229135761Y-85926860D01*
X229215853Y-90816136D01*
X229196969Y-90884575D01*
X229144083Y-90931941D01*
X229089870Y-90944200D01*
X227807441Y-90944200D01*
X227739320Y-90924198D01*
X227718346Y-90907295D01*
X219649861Y-82838810D01*
X219638993Y-82826419D01*
X219624994Y-82808175D01*
X219624993Y-82808174D01*
X219619971Y-82801629D01*
X219495177Y-82705872D01*
X219421408Y-82675316D01*
X219357483Y-82648837D01*
X219357480Y-82648836D01*
X219349853Y-82645677D01*
X219322463Y-82642071D01*
X219193900Y-82625145D01*
X219185712Y-82626223D01*
X219185711Y-82626223D01*
X219162931Y-82629222D01*
X219146485Y-82630300D01*
X211550362Y-82630300D01*
X211482241Y-82610298D01*
X211435748Y-82556642D01*
X211425644Y-82486368D01*
X211432572Y-82459563D01*
X211463318Y-82378624D01*
X211487000Y-82210113D01*
X211487298Y-82188800D01*
X211476387Y-82091521D01*
X211469115Y-82026688D01*
X211469114Y-82026685D01*
X211468330Y-82019692D01*
X211453879Y-81978195D01*
X211419912Y-81880654D01*
X211416398Y-81809745D01*
X211451779Y-81748192D01*
X211473888Y-81732494D01*
X211473503Y-81731901D01*
X211479038Y-81728307D01*
X211484925Y-81725307D01*
X211495470Y-81716768D01*
X211511755Y-81705575D01*
X211517802Y-81702084D01*
X211517805Y-81702081D01*
X211523515Y-81698785D01*
X211528415Y-81694373D01*
X211528419Y-81694370D01*
X211573225Y-81654025D01*
X211578246Y-81649737D01*
X211591241Y-81639214D01*
X211593806Y-81637137D01*
X211607953Y-81622990D01*
X211612737Y-81618449D01*
X211657566Y-81578085D01*
X211657567Y-81578083D01*
X211662469Y-81573670D01*
X211670452Y-81562682D01*
X211683289Y-81547654D01*
X211943145Y-81287798D01*
X224069916Y-81287798D01*
X224079718Y-81323381D01*
X224084710Y-81335990D01*
X224162754Y-81484013D01*
X224170347Y-81495271D01*
X224278355Y-81623079D01*
X224288181Y-81632437D01*
X224421116Y-81734074D01*
X224432725Y-81741105D01*
X224584393Y-81811829D01*
X224597221Y-81816196D01*
X224762162Y-81853064D01*
X224772011Y-81854431D01*
X224774496Y-81854500D01*
X224913485Y-81854500D01*
X224928724Y-81850025D01*
X224929929Y-81848635D01*
X224931600Y-81840952D01*
X224931600Y-81836385D01*
X225439600Y-81836385D01*
X225444075Y-81851624D01*
X225445465Y-81852829D01*
X225453148Y-81854500D01*
X225552398Y-81854500D01*
X225559212Y-81854131D01*
X225683741Y-81840602D01*
X225697000Y-81837687D01*
X225855599Y-81784314D01*
X225867911Y-81778625D01*
X226011349Y-81692438D01*
X226022163Y-81684230D01*
X226143744Y-81569256D01*
X226152536Y-81558925D01*
X226246597Y-81420519D01*
X226252966Y-81408539D01*
X226299450Y-81292321D01*
X226300786Y-81278281D01*
X226295965Y-81275500D01*
X225457715Y-81275500D01*
X225442476Y-81279975D01*
X225441271Y-81281365D01*
X225439600Y-81289048D01*
X225439600Y-81836385D01*
X224931600Y-81836385D01*
X224931600Y-81293615D01*
X224927125Y-81278376D01*
X224925735Y-81277171D01*
X224918052Y-81275500D01*
X224084644Y-81275500D01*
X224071113Y-81279473D01*
X224069916Y-81287798D01*
X211943145Y-81287798D01*
X212466224Y-80764719D01*
X224070414Y-80764719D01*
X224075235Y-80767500D01*
X224913485Y-80767500D01*
X224928724Y-80763025D01*
X224929929Y-80761635D01*
X224931600Y-80753952D01*
X224931600Y-80749385D01*
X225439600Y-80749385D01*
X225444075Y-80764624D01*
X225445465Y-80765829D01*
X225453148Y-80767500D01*
X226286556Y-80767500D01*
X226300087Y-80763527D01*
X226301284Y-80755202D01*
X226291482Y-80719619D01*
X226286490Y-80707010D01*
X226208446Y-80558987D01*
X226200853Y-80547729D01*
X226092845Y-80419921D01*
X226083019Y-80410563D01*
X225950084Y-80308926D01*
X225938475Y-80301895D01*
X225786807Y-80231171D01*
X225773979Y-80226804D01*
X225609038Y-80189936D01*
X225599189Y-80188569D01*
X225596704Y-80188500D01*
X225457715Y-80188500D01*
X225442476Y-80192975D01*
X225441271Y-80194365D01*
X225439600Y-80202048D01*
X225439600Y-80749385D01*
X224931600Y-80749385D01*
X224931600Y-80206615D01*
X224927125Y-80191376D01*
X224925735Y-80190171D01*
X224918052Y-80188500D01*
X224818802Y-80188500D01*
X224811988Y-80188869D01*
X224687459Y-80202398D01*
X224674200Y-80205313D01*
X224515601Y-80258686D01*
X224503289Y-80264375D01*
X224359851Y-80350562D01*
X224349037Y-80358770D01*
X224227456Y-80473744D01*
X224218664Y-80484075D01*
X224124603Y-80622481D01*
X224118234Y-80634461D01*
X224071750Y-80750679D01*
X224070414Y-80764719D01*
X212466224Y-80764719D01*
X214478299Y-78752644D01*
X223290100Y-78752644D01*
X223290444Y-78759203D01*
X223304154Y-78889647D01*
X223306884Y-78902490D01*
X223360972Y-79068954D01*
X223366318Y-79080962D01*
X223453831Y-79232541D01*
X223461553Y-79243169D01*
X223578678Y-79373249D01*
X223588432Y-79382031D01*
X223730041Y-79484917D01*
X223741413Y-79491483D01*
X223901319Y-79562677D01*
X223913812Y-79566736D01*
X223913879Y-79566750D01*
X223927942Y-79565677D01*
X223931600Y-79555724D01*
X223931600Y-79552402D01*
X224439600Y-79552402D01*
X224443573Y-79565933D01*
X224454069Y-79567442D01*
X224457388Y-79566736D01*
X224469881Y-79562677D01*
X224629786Y-79491483D01*
X224641158Y-79484917D01*
X224782768Y-79382031D01*
X224792522Y-79373249D01*
X224909647Y-79243169D01*
X224917369Y-79232541D01*
X225004882Y-79080962D01*
X225010228Y-79068954D01*
X225064316Y-78902490D01*
X225067046Y-78889647D01*
X225080756Y-78759203D01*
X225081100Y-78752644D01*
X225081100Y-78593615D01*
X225076625Y-78578376D01*
X225075235Y-78577171D01*
X225067552Y-78575500D01*
X224457715Y-78575500D01*
X224442476Y-78579975D01*
X224441271Y-78581365D01*
X224439600Y-78589048D01*
X224439600Y-79552402D01*
X223931600Y-79552402D01*
X223931600Y-78593615D01*
X223927125Y-78578376D01*
X223925735Y-78577171D01*
X223918052Y-78575500D01*
X223308215Y-78575500D01*
X223292976Y-78579975D01*
X223291771Y-78581365D01*
X223290100Y-78589048D01*
X223290100Y-78752644D01*
X214478299Y-78752644D01*
X214942768Y-78288175D01*
X215005080Y-78254149D01*
X215031863Y-78251270D01*
X220639503Y-78251270D01*
X220700970Y-78267280D01*
X220755506Y-78297759D01*
X220761365Y-78299663D01*
X220761368Y-78299664D01*
X220797131Y-78311284D01*
X220945095Y-78359361D01*
X220951205Y-78360090D01*
X220951207Y-78360090D01*
X221018744Y-78368143D01*
X221143039Y-78382964D01*
X221149174Y-78382492D01*
X221149176Y-78382492D01*
X221335656Y-78368143D01*
X221335661Y-78368142D01*
X221341797Y-78367670D01*
X221347727Y-78366014D01*
X221347729Y-78366014D01*
X221437798Y-78340866D01*
X221533800Y-78314062D01*
X221539300Y-78311284D01*
X221706232Y-78226961D01*
X221706234Y-78226960D01*
X221711733Y-78224182D01*
X221868820Y-78101452D01*
X221900609Y-78064624D01*
X221995048Y-77955216D01*
X221995049Y-77955214D01*
X221999077Y-77950548D01*
X222097542Y-77777218D01*
X222160465Y-77588064D01*
X222166317Y-77541741D01*
X222185008Y-77393793D01*
X222185009Y-77393783D01*
X222185450Y-77390290D01*
X222185848Y-77361770D01*
X222166395Y-77163376D01*
X222166013Y-77162110D01*
X222172249Y-77093070D01*
X222215850Y-77037039D01*
X222289461Y-77013300D01*
X223541531Y-77013300D01*
X223609652Y-77033302D01*
G37*
%TD.AperFunction*%
%TA.AperFunction,Conductor*%
G36*
X201917819Y-84425598D02*
G01*
X201974655Y-84468145D01*
X201993345Y-84503882D01*
X201994041Y-84505973D01*
X201999095Y-84521167D01*
X202002742Y-84527189D01*
X202002743Y-84527191D01*
X202027562Y-84568172D01*
X202087247Y-84666723D01*
X202205456Y-84789131D01*
X202347846Y-84882309D01*
X202507342Y-84941625D01*
X202514323Y-84942556D01*
X202514325Y-84942557D01*
X202560426Y-84948708D01*
X202676015Y-84964131D01*
X202683026Y-84963493D01*
X202683030Y-84963493D01*
X202838461Y-84949347D01*
X202845482Y-84948708D01*
X202852184Y-84946530D01*
X202852186Y-84946530D01*
X203000623Y-84898300D01*
X203000626Y-84898299D01*
X203007322Y-84896123D01*
X203133547Y-84820878D01*
X203141443Y-84816171D01*
X203205960Y-84798400D01*
X209631359Y-84798400D01*
X209699480Y-84818402D01*
X209720454Y-84835305D01*
X210937317Y-86052169D01*
X212142046Y-87256898D01*
X212152913Y-87269289D01*
X212166900Y-87287518D01*
X212166903Y-87287521D01*
X212171929Y-87294071D01*
X212203260Y-87318112D01*
X212203261Y-87318113D01*
X212296723Y-87389828D01*
X212442047Y-87450023D01*
X212598000Y-87470556D01*
X212606188Y-87469478D01*
X212628975Y-87466478D01*
X212645422Y-87465400D01*
X221465979Y-87465400D01*
X221534100Y-87485402D01*
X221555074Y-87502305D01*
X223010444Y-88957675D01*
X223044470Y-89019987D01*
X223039405Y-89090802D01*
X222996858Y-89147638D01*
X222930338Y-89172449D01*
X222906431Y-89171884D01*
X222902672Y-89171436D01*
X222852229Y-89165421D01*
X222845226Y-89166157D01*
X222845225Y-89166157D01*
X222690001Y-89182471D01*
X222689997Y-89182472D01*
X222682993Y-89183208D01*
X222676322Y-89185479D01*
X222528574Y-89235776D01*
X222528571Y-89235777D01*
X222521904Y-89238047D01*
X222515906Y-89241737D01*
X222515904Y-89241738D01*
X222466939Y-89271862D01*
X222376967Y-89327213D01*
X222371936Y-89332140D01*
X222371933Y-89332142D01*
X222337104Y-89366249D01*
X222255386Y-89446273D01*
X222163205Y-89589311D01*
X222160796Y-89595931D01*
X222160795Y-89595932D01*
X222108628Y-89739259D01*
X222105004Y-89749216D01*
X222083676Y-89918043D01*
X222100282Y-90087399D01*
X222141701Y-90211908D01*
X222147228Y-90228524D01*
X222149751Y-90299476D01*
X222113514Y-90360528D01*
X222050022Y-90392298D01*
X221979433Y-90384697D01*
X221950967Y-90368259D01*
X221846632Y-90288201D01*
X221846628Y-90288199D01*
X221840077Y-90283172D01*
X221694753Y-90222977D01*
X221610677Y-90211908D01*
X221538800Y-90202445D01*
X221530612Y-90203523D01*
X221530611Y-90203523D01*
X221507831Y-90206522D01*
X221491385Y-90207600D01*
X215615442Y-90207600D01*
X215547321Y-90187598D01*
X215526347Y-90170695D01*
X213655560Y-88299909D01*
X213644692Y-88287517D01*
X213630697Y-88269278D01*
X213630693Y-88269274D01*
X213625671Y-88262729D01*
X213500877Y-88166972D01*
X213355553Y-88106777D01*
X213238755Y-88091400D01*
X213199600Y-88086245D01*
X213191412Y-88087323D01*
X213191411Y-88087323D01*
X213168631Y-88090322D01*
X213152185Y-88091400D01*
X196657700Y-88091400D01*
X196590186Y-88071785D01*
X196506079Y-88018409D01*
X196459280Y-87965020D01*
X196448775Y-87894805D01*
X196468645Y-87842297D01*
X196508993Y-87781569D01*
X196508997Y-87781562D01*
X196512890Y-87775702D01*
X196521517Y-87752991D01*
X196570817Y-87623209D01*
X196570818Y-87623206D01*
X196573318Y-87616624D01*
X196597000Y-87448113D01*
X196597298Y-87426800D01*
X196582974Y-87299098D01*
X196579115Y-87264688D01*
X196579114Y-87264685D01*
X196578330Y-87257692D01*
X196522367Y-87096990D01*
X196518633Y-87091015D01*
X196518631Y-87091010D01*
X196446668Y-86975844D01*
X196427532Y-86907475D01*
X196448398Y-86839614D01*
X196489004Y-86800846D01*
X196549489Y-86764790D01*
X196672720Y-86647438D01*
X196678661Y-86638497D01*
X196755537Y-86522789D01*
X196766890Y-86505702D01*
X196789980Y-86444917D01*
X196824817Y-86353209D01*
X196824818Y-86353206D01*
X196827318Y-86346624D01*
X196851000Y-86178113D01*
X196851298Y-86156800D01*
X196832330Y-85987692D01*
X196808807Y-85920143D01*
X196786065Y-85854837D01*
X196782551Y-85783928D01*
X196817932Y-85722375D01*
X196880975Y-85689723D01*
X196905056Y-85687400D01*
X200256986Y-85687400D01*
X200273433Y-85688478D01*
X200304400Y-85692555D01*
X200343555Y-85687400D01*
X200373004Y-85683523D01*
X200460353Y-85672023D01*
X200605677Y-85611828D01*
X200632285Y-85591411D01*
X200723920Y-85521098D01*
X200723921Y-85521097D01*
X200730471Y-85516071D01*
X200749490Y-85491285D01*
X200760357Y-85478894D01*
X201784692Y-84454559D01*
X201847004Y-84420533D01*
X201917819Y-84425598D01*
G37*
%TD.AperFunction*%
%TA.AperFunction,Conductor*%
G36*
X209925902Y-81884702D02*
G01*
X209972395Y-81938358D01*
X209982458Y-82008344D01*
X209982104Y-82009316D01*
X209960776Y-82178143D01*
X209977382Y-82347499D01*
X209979607Y-82354187D01*
X209979607Y-82354188D01*
X210016312Y-82464529D01*
X210018835Y-82535480D01*
X209982598Y-82596533D01*
X209919106Y-82628302D01*
X209896754Y-82630300D01*
X207951583Y-82630300D01*
X207883462Y-82610298D01*
X207836969Y-82556642D01*
X207832592Y-82545738D01*
X207825367Y-82524990D01*
X207735192Y-82380679D01*
X207661044Y-82306012D01*
X207620249Y-82264931D01*
X207620245Y-82264928D01*
X207615285Y-82259933D01*
X207471608Y-82168752D01*
X207400417Y-82143402D01*
X207317940Y-82114033D01*
X207317937Y-82114032D01*
X207313492Y-82112449D01*
X207313491Y-82112449D01*
X207311300Y-82111669D01*
X207311437Y-82111284D01*
X207253363Y-82078342D01*
X207220351Y-82015487D01*
X207226562Y-81944762D01*
X207270023Y-81888623D01*
X207343889Y-81864700D01*
X209857781Y-81864700D01*
X209925902Y-81884702D01*
G37*
%TD.AperFunction*%
%TD*%
%TA.AperFunction,Conductor*%
%TO.N,Earth*%
G36*
X230609652Y-77033302D02*
G01*
X230656145Y-77086958D01*
X230666249Y-77157232D01*
X230636755Y-77221812D01*
X230615592Y-77241236D01*
X230588432Y-77260969D01*
X230578678Y-77269751D01*
X230461553Y-77399831D01*
X230453831Y-77410459D01*
X230366318Y-77562038D01*
X230360972Y-77574046D01*
X230306884Y-77740510D01*
X230304154Y-77753353D01*
X230290444Y-77883797D01*
X230290100Y-77890356D01*
X230290100Y-78049385D01*
X230294575Y-78064624D01*
X230295965Y-78065829D01*
X230303648Y-78067500D01*
X232062985Y-78067500D01*
X232078224Y-78063025D01*
X232079429Y-78061635D01*
X232081100Y-78053952D01*
X232081100Y-77890356D01*
X232080756Y-77883797D01*
X232067046Y-77753353D01*
X232064316Y-77740510D01*
X232010228Y-77574046D01*
X232004882Y-77562038D01*
X231917369Y-77410459D01*
X231909647Y-77399831D01*
X231792522Y-77269751D01*
X231782768Y-77260969D01*
X231755608Y-77241236D01*
X231712254Y-77185014D01*
X231706179Y-77114277D01*
X231739311Y-77051486D01*
X231801131Y-77016574D01*
X231829669Y-77013300D01*
X238632548Y-77013300D01*
X238700669Y-77033302D01*
X238747162Y-77086958D01*
X238758548Y-77139488D01*
X238710792Y-108993300D01*
X238709651Y-109754089D01*
X238689547Y-109822180D01*
X238635821Y-109868592D01*
X238583651Y-109879900D01*
X229499633Y-109879900D01*
X229431512Y-109859898D01*
X229385019Y-109806242D01*
X229373742Y-109748668D01*
X229405141Y-108993147D01*
X229491525Y-106914533D01*
X233852222Y-106914533D01*
X233862025Y-107195258D01*
X233862787Y-107199581D01*
X233862788Y-107199588D01*
X233886564Y-107334424D01*
X233910802Y-107471887D01*
X233997603Y-107739035D01*
X234120740Y-107991502D01*
X234123195Y-107995141D01*
X234123198Y-107995147D01*
X234196290Y-108103510D01*
X234277815Y-108224376D01*
X234465771Y-108433122D01*
X234680950Y-108613679D01*
X234919164Y-108762531D01*
X235175775Y-108876782D01*
X235445790Y-108954207D01*
X235450140Y-108954818D01*
X235450143Y-108954819D01*
X235553090Y-108969287D01*
X235723952Y-108993300D01*
X235934546Y-108993300D01*
X235936732Y-108993147D01*
X235936736Y-108993147D01*
X236140227Y-108978918D01*
X236140232Y-108978917D01*
X236144612Y-108978611D01*
X236419370Y-108920209D01*
X236423499Y-108918706D01*
X236423503Y-108918705D01*
X236679181Y-108825646D01*
X236679185Y-108825644D01*
X236683326Y-108824137D01*
X236931342Y-108692264D01*
X237036296Y-108616011D01*
X237155029Y-108529747D01*
X237155032Y-108529744D01*
X237158592Y-108527158D01*
X237360652Y-108332031D01*
X237533588Y-108110682D01*
X237535784Y-108106878D01*
X237535789Y-108106871D01*
X237671835Y-107871231D01*
X237674036Y-107867419D01*
X237779262Y-107606976D01*
X237812944Y-107471887D01*
X237846153Y-107338693D01*
X237846154Y-107338688D01*
X237847217Y-107334424D01*
X237876578Y-107055067D01*
X237866775Y-106774342D01*
X237843008Y-106639549D01*
X237818760Y-106502036D01*
X237817998Y-106497713D01*
X237731197Y-106230565D01*
X237608060Y-105978098D01*
X237605605Y-105974459D01*
X237605602Y-105974453D01*
X237525335Y-105855453D01*
X237450985Y-105745224D01*
X237263029Y-105536478D01*
X237047850Y-105355921D01*
X236809636Y-105207069D01*
X236553025Y-105092818D01*
X236283010Y-105015393D01*
X236278660Y-105014782D01*
X236278657Y-105014781D01*
X236175710Y-105000313D01*
X236004848Y-104976300D01*
X235794254Y-104976300D01*
X235792068Y-104976453D01*
X235792064Y-104976453D01*
X235588573Y-104990682D01*
X235588568Y-104990683D01*
X235584188Y-104990989D01*
X235309430Y-105049391D01*
X235305301Y-105050894D01*
X235305297Y-105050895D01*
X235049619Y-105143954D01*
X235049615Y-105143956D01*
X235045474Y-105145463D01*
X234797458Y-105277336D01*
X234793899Y-105279922D01*
X234793897Y-105279923D01*
X234689295Y-105355921D01*
X234570208Y-105442442D01*
X234368148Y-105637569D01*
X234195212Y-105858918D01*
X234193016Y-105862722D01*
X234193011Y-105862729D01*
X234079194Y-106059867D01*
X234054764Y-106102181D01*
X233949538Y-106362624D01*
X233948473Y-106366897D01*
X233948472Y-106366899D01*
X233914779Y-106502036D01*
X233881583Y-106635176D01*
X233852222Y-106914533D01*
X229491525Y-106914533D01*
X229737807Y-100988356D01*
X229760620Y-100921125D01*
X229816160Y-100876900D01*
X229867991Y-100867661D01*
X230898302Y-100902785D01*
X234195296Y-101015183D01*
X234195297Y-101015183D01*
X234213400Y-101015800D01*
X234090577Y-88979165D01*
X234061185Y-86098717D01*
X234061000Y-86080600D01*
X234046791Y-86081044D01*
X233573390Y-86095838D01*
X229312784Y-86228982D01*
X229244072Y-86211117D01*
X229195926Y-86158940D01*
X229182856Y-86104359D01*
X229182798Y-86098717D01*
X229173863Y-85243216D01*
X229193152Y-85174890D01*
X229246320Y-85127839D01*
X229299856Y-85115900D01*
X229624824Y-85115900D01*
X229643774Y-85117333D01*
X229658173Y-85119524D01*
X229658179Y-85119524D01*
X229665408Y-85120624D01*
X229672700Y-85120031D01*
X229672703Y-85120031D01*
X229718383Y-85116315D01*
X229728598Y-85115900D01*
X229736725Y-85115900D01*
X229740361Y-85115476D01*
X229740363Y-85115476D01*
X229743815Y-85115073D01*
X229765124Y-85112589D01*
X229769444Y-85112162D01*
X229842626Y-85106209D01*
X229849588Y-85103953D01*
X229855576Y-85102757D01*
X229861533Y-85101349D01*
X229868807Y-85100501D01*
X229875689Y-85098003D01*
X229875693Y-85098002D01*
X229937807Y-85075455D01*
X229941911Y-85074045D01*
X230011775Y-85051413D01*
X230018038Y-85047613D01*
X230023580Y-85045075D01*
X230029056Y-85042333D01*
X230035941Y-85039834D01*
X230097332Y-84999585D01*
X230101000Y-84997270D01*
X230163781Y-84959173D01*
X230167986Y-84955459D01*
X230167989Y-84955457D01*
X230172205Y-84951733D01*
X230172231Y-84951762D01*
X230175162Y-84949162D01*
X230178516Y-84946358D01*
X230184635Y-84942346D01*
X230238189Y-84885813D01*
X230240566Y-84883372D01*
X230288253Y-84835685D01*
X230297834Y-84823575D01*
X230300097Y-84820963D01*
X230300637Y-84820241D01*
X230302320Y-84818638D01*
X230303485Y-84816885D01*
X230306914Y-84813265D01*
X230309404Y-84808977D01*
X230309479Y-84808888D01*
X230309463Y-84808876D01*
X230366217Y-84737142D01*
X230370760Y-84731400D01*
X230395616Y-84678217D01*
X230396074Y-84678431D01*
X230396427Y-84676997D01*
X230396490Y-84676902D01*
X230397615Y-84673941D01*
X230446044Y-84570321D01*
X230482252Y-84396244D01*
X230480800Y-84342592D01*
X230480766Y-84337425D01*
X230480843Y-84331950D01*
X230480843Y-84331946D01*
X230480898Y-84328000D01*
X230480457Y-84324075D01*
X230480263Y-84320104D01*
X230480329Y-84320101D01*
X230480103Y-84316867D01*
X230477640Y-84225823D01*
X230477442Y-84218505D01*
X230462146Y-84160814D01*
X230462619Y-84160689D01*
X230461987Y-84159399D01*
X230461930Y-84158892D01*
X230460698Y-84155353D01*
X230431873Y-84046640D01*
X230406001Y-83998287D01*
X230406490Y-83998026D01*
X230406271Y-83997758D01*
X230405841Y-83997988D01*
X230404662Y-83995784D01*
X230404661Y-83995783D01*
X230347989Y-83889868D01*
X230230289Y-83756598D01*
X230103463Y-83666966D01*
X230091067Y-83658205D01*
X230091064Y-83658203D01*
X230085088Y-83653980D01*
X229920173Y-83587518D01*
X229835247Y-83574598D01*
X229751625Y-83561876D01*
X229751622Y-83561876D01*
X229744392Y-83560776D01*
X229737101Y-83561369D01*
X229737098Y-83561369D01*
X229655783Y-83567983D01*
X229567174Y-83575191D01*
X229560215Y-83577445D01*
X229560212Y-83577446D01*
X229537614Y-83584767D01*
X229498783Y-83590900D01*
X229281297Y-83590900D01*
X229213176Y-83570898D01*
X229166683Y-83517242D01*
X229155304Y-83466216D01*
X229137626Y-81773580D01*
X229156915Y-81705256D01*
X229210083Y-81658205D01*
X229280247Y-81647368D01*
X229340148Y-81672170D01*
X229421111Y-81734071D01*
X229432725Y-81741105D01*
X229584393Y-81811829D01*
X229597221Y-81816196D01*
X229762162Y-81853064D01*
X229772011Y-81854431D01*
X229774496Y-81854500D01*
X229913485Y-81854500D01*
X229928724Y-81850025D01*
X229929929Y-81848635D01*
X229931600Y-81840952D01*
X229931600Y-81836385D01*
X230439600Y-81836385D01*
X230444075Y-81851624D01*
X230445465Y-81852829D01*
X230453148Y-81854500D01*
X230552398Y-81854500D01*
X230559212Y-81854131D01*
X230683741Y-81840602D01*
X230697000Y-81837687D01*
X230855599Y-81784314D01*
X230867911Y-81778625D01*
X231011349Y-81692438D01*
X231022163Y-81684230D01*
X231143744Y-81569256D01*
X231152536Y-81558925D01*
X231246597Y-81420519D01*
X231252966Y-81408539D01*
X231299450Y-81292321D01*
X231300786Y-81278281D01*
X231295965Y-81275500D01*
X230457715Y-81275500D01*
X230442476Y-81279975D01*
X230441271Y-81281365D01*
X230439600Y-81289048D01*
X230439600Y-81836385D01*
X229931600Y-81836385D01*
X229931600Y-80749385D01*
X230439600Y-80749385D01*
X230444075Y-80764624D01*
X230445465Y-80765829D01*
X230453148Y-80767500D01*
X231286556Y-80767500D01*
X231300087Y-80763527D01*
X231301284Y-80755202D01*
X231291482Y-80719619D01*
X231286490Y-80707010D01*
X231208446Y-80558987D01*
X231200853Y-80547729D01*
X231092845Y-80419921D01*
X231083019Y-80410563D01*
X230950084Y-80308926D01*
X230938475Y-80301895D01*
X230786807Y-80231171D01*
X230773979Y-80226804D01*
X230609038Y-80189936D01*
X230599189Y-80188569D01*
X230596704Y-80188500D01*
X230457715Y-80188500D01*
X230442476Y-80192975D01*
X230441271Y-80194365D01*
X230439600Y-80202048D01*
X230439600Y-80749385D01*
X229931600Y-80749385D01*
X229931600Y-80206615D01*
X229927125Y-80191376D01*
X229925735Y-80190171D01*
X229918052Y-80188500D01*
X229818802Y-80188500D01*
X229811988Y-80188869D01*
X229687459Y-80202398D01*
X229674200Y-80205313D01*
X229515601Y-80258686D01*
X229503289Y-80264375D01*
X229359851Y-80350562D01*
X229349038Y-80358770D01*
X229334617Y-80372407D01*
X229271379Y-80404680D01*
X229200733Y-80397641D01*
X229145107Y-80353524D01*
X229122050Y-80282176D01*
X229121518Y-80231171D01*
X229116882Y-79787333D01*
X233903022Y-79787333D01*
X233912825Y-80068058D01*
X233913587Y-80072381D01*
X233913588Y-80072388D01*
X233937027Y-80205313D01*
X233961602Y-80344687D01*
X234048403Y-80611835D01*
X234171540Y-80864302D01*
X234173995Y-80867941D01*
X234173998Y-80867947D01*
X234247090Y-80976310D01*
X234328615Y-81097176D01*
X234516571Y-81305922D01*
X234731750Y-81486479D01*
X234969964Y-81635331D01*
X235226575Y-81749582D01*
X235496590Y-81827007D01*
X235500940Y-81827618D01*
X235500943Y-81827619D01*
X235563318Y-81836385D01*
X235774752Y-81866100D01*
X235985346Y-81866100D01*
X235987532Y-81865947D01*
X235987536Y-81865947D01*
X236191027Y-81851718D01*
X236191032Y-81851717D01*
X236195412Y-81851411D01*
X236470170Y-81793009D01*
X236474299Y-81791506D01*
X236474303Y-81791505D01*
X236729981Y-81698446D01*
X236729985Y-81698444D01*
X236734126Y-81696937D01*
X236982142Y-81565064D01*
X237087096Y-81488811D01*
X237205829Y-81402547D01*
X237205832Y-81402544D01*
X237209392Y-81399958D01*
X237411452Y-81204831D01*
X237584388Y-80983482D01*
X237586584Y-80979678D01*
X237586589Y-80979671D01*
X237711379Y-80763527D01*
X237724836Y-80740219D01*
X237830062Y-80479776D01*
X237863744Y-80344687D01*
X237896953Y-80211493D01*
X237896954Y-80211488D01*
X237898017Y-80207224D01*
X237898525Y-80202398D01*
X237926919Y-79932236D01*
X237926919Y-79932233D01*
X237927378Y-79927867D01*
X237917575Y-79647142D01*
X237903398Y-79566736D01*
X237869560Y-79374836D01*
X237868798Y-79370513D01*
X237781997Y-79103365D01*
X237771071Y-79080962D01*
X237677759Y-78889647D01*
X237658860Y-78850898D01*
X237656405Y-78847259D01*
X237656402Y-78847253D01*
X237576135Y-78728253D01*
X237501785Y-78618024D01*
X237467526Y-78579975D01*
X237316766Y-78412540D01*
X237313829Y-78409278D01*
X237098650Y-78228721D01*
X236860436Y-78079869D01*
X236603825Y-77965618D01*
X236449192Y-77921278D01*
X236338037Y-77889405D01*
X236338036Y-77889405D01*
X236333810Y-77888193D01*
X236329460Y-77887582D01*
X236329457Y-77887581D01*
X236226510Y-77873113D01*
X236055648Y-77849100D01*
X235845054Y-77849100D01*
X235842868Y-77849253D01*
X235842864Y-77849253D01*
X235639373Y-77863482D01*
X235639368Y-77863483D01*
X235634988Y-77863789D01*
X235360230Y-77922191D01*
X235356101Y-77923694D01*
X235356097Y-77923695D01*
X235100419Y-78016754D01*
X235100415Y-78016756D01*
X235096274Y-78018263D01*
X234848258Y-78150136D01*
X234844699Y-78152722D01*
X234844697Y-78152723D01*
X234740095Y-78228721D01*
X234621008Y-78315242D01*
X234418948Y-78510369D01*
X234246012Y-78731718D01*
X234243816Y-78735522D01*
X234243811Y-78735529D01*
X234147417Y-78902490D01*
X234105564Y-78974981D01*
X234000338Y-79235424D01*
X233999273Y-79239697D01*
X233999272Y-79239699D01*
X233963785Y-79382031D01*
X233932383Y-79507976D01*
X233931924Y-79512344D01*
X233931923Y-79512349D01*
X233926133Y-79567442D01*
X233903022Y-79787333D01*
X229116882Y-79787333D01*
X229106076Y-78752644D01*
X230290100Y-78752644D01*
X230290444Y-78759203D01*
X230304154Y-78889647D01*
X230306884Y-78902490D01*
X230360972Y-79068954D01*
X230366318Y-79080962D01*
X230453831Y-79232541D01*
X230461553Y-79243169D01*
X230578678Y-79373249D01*
X230588432Y-79382031D01*
X230730041Y-79484917D01*
X230741413Y-79491483D01*
X230901319Y-79562677D01*
X230913812Y-79566736D01*
X230913879Y-79566750D01*
X230927942Y-79565677D01*
X230931600Y-79555724D01*
X230931600Y-79552402D01*
X231439600Y-79552402D01*
X231443573Y-79565933D01*
X231454069Y-79567442D01*
X231457388Y-79566736D01*
X231469881Y-79562677D01*
X231629786Y-79491483D01*
X231641158Y-79484917D01*
X231782768Y-79382031D01*
X231792522Y-79373249D01*
X231909647Y-79243169D01*
X231917369Y-79232541D01*
X232004882Y-79080962D01*
X232010228Y-79068954D01*
X232064316Y-78902490D01*
X232067046Y-78889647D01*
X232080756Y-78759203D01*
X232081100Y-78752644D01*
X232081100Y-78593615D01*
X232076625Y-78578376D01*
X232075235Y-78577171D01*
X232067552Y-78575500D01*
X231457715Y-78575500D01*
X231442476Y-78579975D01*
X231441271Y-78581365D01*
X231439600Y-78589048D01*
X231439600Y-79552402D01*
X230931600Y-79552402D01*
X230931600Y-78593615D01*
X230927125Y-78578376D01*
X230925735Y-78577171D01*
X230918052Y-78575500D01*
X230308215Y-78575500D01*
X230292976Y-78579975D01*
X230291771Y-78581365D01*
X230290100Y-78589048D01*
X230290100Y-78752644D01*
X229106076Y-78752644D01*
X229089241Y-77140616D01*
X229108530Y-77072290D01*
X229161698Y-77025239D01*
X229215234Y-77013300D01*
X230541531Y-77013300D01*
X230609652Y-77033302D01*
G37*
%TD.AperFunction*%
%TD*%
M02*
