%TF.GenerationSoftware,KiCad,Pcbnew,(6.0.10)*%
%TF.CreationDate,2023-02-02T13:34:45-07:00*%
%TF.ProjectId,Flight-Computer-Lite,466c6967-6874-42d4-936f-6d7075746572,rev?*%
%TF.SameCoordinates,Original*%
%TF.FileFunction,Copper,L4,Bot*%
%TF.FilePolarity,Positive*%
%FSLAX46Y46*%
G04 Gerber Fmt 4.6, Leading zero omitted, Abs format (unit mm)*
G04 Created by KiCad (PCBNEW (6.0.10)) date 2023-02-02 13:34:45*
%MOMM*%
%LPD*%
G01*
G04 APERTURE LIST*
%TA.AperFunction,ComponentPad*%
%ADD10C,1.066800*%
%TD*%
%TA.AperFunction,ComponentPad*%
%ADD11O,1.300000X0.650000*%
%TD*%
%TA.AperFunction,ComponentPad*%
%ADD12O,0.775000X1.550000*%
%TD*%
%TA.AperFunction,ComponentPad*%
%ADD13R,1.650000X1.650000*%
%TD*%
%TA.AperFunction,ComponentPad*%
%ADD14C,1.650000*%
%TD*%
%TA.AperFunction,ComponentPad*%
%ADD15C,1.701800*%
%TD*%
%TA.AperFunction,ComponentPad*%
%ADD16C,1.408000*%
%TD*%
%TA.AperFunction,SMDPad,CuDef*%
%ADD17C,1.524000*%
%TD*%
%TA.AperFunction,ViaPad*%
%ADD18C,0.499999*%
%TD*%
%TA.AperFunction,ViaPad*%
%ADD19C,1.016000*%
%TD*%
%TA.AperFunction,ViaPad*%
%ADD20C,0.800000*%
%TD*%
%TA.AperFunction,Conductor*%
%ADD21C,0.254000*%
%TD*%
%TA.AperFunction,Conductor*%
%ADD22C,0.762000*%
%TD*%
%TA.AperFunction,Conductor*%
%ADD23C,0.177800*%
%TD*%
%TA.AperFunction,Conductor*%
%ADD24C,0.266700*%
%TD*%
G04 APERTURE END LIST*
D10*
%TO.P,P2,1,1*%
%TO.N,3.3V*%
X228436550Y-87757000D03*
%TO.P,P2,2,2*%
X229706550Y-87757000D03*
%TO.P,P2,3,3*%
%TO.N,Earth*%
X228436550Y-89027000D03*
%TO.P,P2,4,4*%
X229706550Y-89027000D03*
%TO.P,P2,5,5*%
X228436550Y-90297000D03*
%TO.P,P2,6,6*%
X229706550Y-90297000D03*
%TO.P,P2,7,7*%
%TO.N,SWDIO*%
X228436550Y-91567000D03*
%TO.P,P2,8,8*%
%TO.N,Earth*%
X229706550Y-91567000D03*
%TO.P,P2,9,9*%
%TO.N,SWCLK*%
X228436550Y-92837000D03*
%TO.P,P2,10,10*%
%TO.N,Earth*%
X229706550Y-92837000D03*
%TO.P,P2,11,11*%
%TO.N,unconnected-(P2-Pad11)*%
X228436550Y-94107000D03*
%TO.P,P2,12,12*%
%TO.N,Earth*%
X229706550Y-94107000D03*
%TO.P,P2,13,13*%
%TO.N,SWO*%
X228436550Y-95377000D03*
%TO.P,P2,14,14*%
%TO.N,Earth*%
X229706550Y-95377000D03*
%TO.P,P2,15,15*%
%TO.N,NRST*%
X228436550Y-96647000D03*
%TO.P,P2,16,16*%
%TO.N,Earth*%
X229706550Y-96647000D03*
%TO.P,P2,17,17*%
%TO.N,unconnected-(P2-Pad17)*%
X228436550Y-97917000D03*
%TO.P,P2,18,18*%
%TO.N,Earth*%
X229706550Y-97917000D03*
%TO.P,P2,19,19*%
%TO.N,unconnected-(P2-Pad19)*%
X228436550Y-99187000D03*
%TO.P,P2,20,20*%
%TO.N,Earth*%
X229706550Y-99187000D03*
%TD*%
D11*
%TO.P,P3,S1,SHIELD*%
%TO.N,Earth*%
X225232600Y-85034700D03*
D12*
%TO.P,P3,S2,SHIELD*%
X226232600Y-82334700D03*
X219232600Y-82334700D03*
D11*
X220232600Y-85034700D03*
%TD*%
D13*
%TO.P,P1,1,5*%
%TO.N,/PIN_SCREW*%
X156619600Y-90375800D03*
D14*
%TO.P,P1,2,6*%
%TO.N,Earth*%
X156619600Y-93875800D03*
%TD*%
D15*
%TO.P,P4,1,5*%
%TO.N,VIN*%
X181546203Y-87615301D03*
%TO.P,P4,2,6*%
%TO.N,VIN_SW*%
X178046200Y-87615301D03*
%TO.P,P4,3,5*%
X174546199Y-87615301D03*
%TO.P,P4,4,6*%
%TO.N,Net-(P4-Pad4)*%
X171046198Y-87615301D03*
%TO.P,P4,5,5*%
%TO.N,VIN_SW*%
X167546198Y-87615301D03*
%TO.P,P4,6,6*%
%TO.N,Net-(P4-Pad6)*%
X164046197Y-87615301D03*
%TD*%
D16*
%TO.P,BZ1,1,-*%
%TO.N,BEEP*%
X214259000Y-102920800D03*
%TO.P,BZ1,2,+*%
%TO.N,Earth*%
X221859000Y-102920800D03*
%TD*%
D17*
%TO.P,TP1,1*%
%TO.N,3.3V*%
X168656000Y-105867200D03*
%TD*%
D18*
%TO.N,NRST*%
X196113400Y-92710000D03*
D19*
%TO.N,Earth*%
X177050000Y-93050000D03*
X163200000Y-93025000D03*
D18*
X190437500Y-95487500D03*
X184361200Y-88460200D03*
X214274400Y-94919800D03*
X207323800Y-101434000D03*
X187650000Y-98950000D03*
X208028600Y-108663800D03*
D19*
X162306000Y-109270800D03*
D18*
X213944200Y-86512400D03*
X161500000Y-101076000D03*
X193916300Y-84823300D03*
X195121400Y-90676600D03*
X187358400Y-88460200D03*
D20*
X193294000Y-106781600D03*
X178257401Y-106400399D03*
D18*
X194912500Y-101537500D03*
X167812500Y-97262500D03*
X184861200Y-86512400D03*
X207594200Y-86436200D03*
X180979800Y-98120200D03*
X224586800Y-91084400D03*
%TO.N,3.3V*%
X188671200Y-82677000D03*
X194919600Y-108331000D03*
X187342400Y-87460200D03*
X185445400Y-82245200D03*
X190500000Y-97775000D03*
X192058800Y-91176600D03*
D20*
X206095600Y-105054400D03*
D18*
X208924200Y-85563400D03*
X211912200Y-82677000D03*
X231698800Y-87757000D03*
X182600000Y-96100000D03*
X195249800Y-82397600D03*
D19*
X165811200Y-105841800D03*
D18*
X217446800Y-86743600D03*
X223824800Y-107543600D03*
X208266400Y-99734000D03*
X195975000Y-101450000D03*
X176250000Y-99900000D03*
%TO.N,VIN*%
X167300000Y-97975000D03*
D19*
X156925000Y-96225000D03*
D18*
%TO.N,5V*%
X219633000Y-89866000D03*
X224332800Y-95123000D03*
D19*
X225806000Y-86461600D03*
X160274000Y-82118200D03*
D18*
%TO.N,DROGUE*%
X188000000Y-93250000D03*
X191950000Y-89500000D03*
%TO.N,MAIN*%
X191550000Y-88125000D03*
X188225000Y-92325000D03*
D20*
%TO.N,/Peripherals/D-*%
X221208600Y-94843600D03*
X221200600Y-91956000D03*
D18*
%TO.N,SWDIO*%
X225767900Y-91173300D03*
X226339400Y-97434400D03*
X207225000Y-87925000D03*
%TO.N,SWCLK*%
X206375000Y-89825000D03*
X224650241Y-91909959D03*
X225196400Y-101269800D03*
%TO.N,SWO*%
X201168000Y-87960200D03*
%TO.N,VIN_SW*%
X163950000Y-95475000D03*
%TO.N,Net-(P4-Pad4)*%
X173482000Y-101904800D03*
X169976800Y-95898200D03*
%TO.N,Net-(P4-Pad6)*%
X173800000Y-98175000D03*
%TO.N,USB_DETECT*%
X226644200Y-87528400D03*
X205384400Y-90576400D03*
%TO.N,FLASH_SCK*%
X210540600Y-102844600D03*
X208203800Y-107086400D03*
%TO.N,~{USB_RST}*%
X210146400Y-88176600D03*
X219633800Y-88925400D03*
%TO.N,VCOMP*%
X173600000Y-96575000D03*
X163962500Y-99737500D03*
%TO.N,~{SWITCH}*%
X201275000Y-90225000D03*
X177125000Y-101325000D03*
%TO.N,BP_SDA*%
X186486800Y-82169000D03*
X189103000Y-81940400D03*
%TO.N,~{MAIN_CONT}*%
X175133000Y-96908000D03*
X195750000Y-87175000D03*
%TO.N,~{DROGUE_CONT}*%
X181154799Y-99070201D03*
X196425000Y-89700000D03*
%TO.N,BP_INT*%
X186450000Y-89575000D03*
X191837500Y-86787500D03*
%TO.N,TX_USB*%
X217652600Y-97409000D03*
X215696800Y-97409000D03*
%TD*%
D21*
%TO.N,NRST*%
X228436550Y-96647000D02*
X200050400Y-96647000D01*
X200050400Y-96647000D02*
X196113400Y-92710000D01*
D22*
%TO.N,3.3V*%
X168605200Y-105841800D02*
X168630600Y-105816400D01*
X165811200Y-105841800D02*
X168605200Y-105841800D01*
D21*
%TO.N,VIN*%
X158650000Y-97975000D02*
X156975000Y-96300000D01*
X167300000Y-97975000D02*
X158650000Y-97975000D01*
%TO.N,5V*%
X219633000Y-89866000D02*
X219683800Y-89866000D01*
D22*
X160274000Y-82118200D02*
X161846500Y-83690700D01*
X221157800Y-86461600D02*
X225806000Y-86461600D01*
X216634300Y-83690700D02*
X219405200Y-86461600D01*
D21*
X219683800Y-89866000D02*
X221157800Y-88392000D01*
D22*
X161846500Y-83690700D02*
X216634300Y-83690700D01*
D21*
X221157800Y-88392000D02*
X221157800Y-86461600D01*
D22*
X219405200Y-86461600D02*
X221157800Y-86461600D01*
D23*
%TO.N,DROGUE*%
X188000000Y-93250000D02*
X188925000Y-93250000D01*
X188925000Y-93250000D02*
X191950000Y-90225000D01*
X191950000Y-90225000D02*
X191950000Y-89500000D01*
%TO.N,MAIN*%
X191550000Y-89025000D02*
X191550000Y-88125000D01*
X188250000Y-92325000D02*
X191550000Y-89025000D01*
X188225000Y-92325000D02*
X188250000Y-92325000D01*
D24*
%TO.N,/Peripherals/D-*%
X221200600Y-91956000D02*
X221208600Y-94843600D01*
D23*
%TO.N,SWDIO*%
X207225000Y-88850000D02*
X207225000Y-87925000D01*
X224211299Y-90545501D02*
X223867500Y-90889300D01*
X223867500Y-90889300D02*
X209264300Y-90889300D01*
X209264300Y-90889300D02*
X207225000Y-88850000D01*
X226161600Y-91567000D02*
X225767900Y-91173300D01*
X225767900Y-91173300D02*
X225140101Y-90545501D01*
X225140101Y-90545501D02*
X224211299Y-90545501D01*
X228436550Y-91567000D02*
X226161600Y-91567000D01*
%TO.N,SWCLK*%
X224650241Y-91909959D02*
X224007381Y-91267100D01*
X207817100Y-91267100D02*
X206375000Y-89825000D01*
X224007381Y-91267100D02*
X207817100Y-91267100D01*
X228436550Y-92837000D02*
X225577281Y-92837000D01*
X225577281Y-92837000D02*
X224650241Y-91909959D01*
%TO.N,SWO*%
X209042000Y-95834200D02*
X201168000Y-87960200D01*
X228436550Y-95377000D02*
X225552000Y-95377000D01*
X225094800Y-95834200D02*
X209042000Y-95834200D01*
X225552000Y-95377000D02*
X225094800Y-95834200D01*
D21*
%TO.N,VIN_SW*%
X167500000Y-92400000D02*
X167500000Y-87525000D01*
X163950000Y-95475000D02*
X164425000Y-95475000D01*
X164425000Y-95475000D02*
X167500000Y-92400000D01*
%TO.N,Net-(P4-Pad4)*%
X169976800Y-88773200D02*
X171175000Y-87575000D01*
X169976800Y-95898200D02*
X169976800Y-88773200D01*
%TO.N,Net-(P4-Pad6)*%
X171150000Y-95625000D02*
X170125000Y-96650000D01*
X163625000Y-96650000D02*
X162325000Y-95350000D01*
X174525000Y-96625000D02*
X174525000Y-96075000D01*
X162325000Y-89300000D02*
X163975000Y-87650000D01*
X162325000Y-95350000D02*
X162325000Y-89300000D01*
X170125000Y-96650000D02*
X163625000Y-96650000D01*
X173800000Y-98175000D02*
X173800000Y-97350000D01*
X174525000Y-96075000D02*
X174075000Y-95625000D01*
X173800000Y-97350000D02*
X174525000Y-96625000D01*
X174075000Y-95625000D02*
X171150000Y-95625000D01*
D23*
%TO.N,USB_DETECT*%
X205384400Y-87096600D02*
X205384400Y-90576400D01*
X206679800Y-85801200D02*
X205384400Y-87096600D01*
X208229200Y-87248110D02*
X208229200Y-86309081D01*
X226644200Y-87528400D02*
X224004899Y-90167701D01*
X219874201Y-90511500D02*
X211492590Y-90511500D01*
X208229200Y-86309081D02*
X207721319Y-85801200D01*
X220218000Y-90167701D02*
X219874201Y-90511500D01*
X207721319Y-85801200D02*
X206679800Y-85801200D01*
X224004899Y-90167701D02*
X220218000Y-90167701D01*
X211492590Y-90511500D02*
X208229200Y-87248110D01*
%TO.N,FLASH_SCK*%
X208203800Y-105181400D02*
X208203800Y-107086400D01*
X210540600Y-102844600D02*
X208203800Y-105181400D01*
%TO.N,~{USB_RST}*%
X218885000Y-88176600D02*
X219633800Y-88925400D01*
X210146400Y-88176600D02*
X218885000Y-88176600D01*
D21*
%TO.N,VCOMP*%
X173600000Y-96575000D02*
X171600000Y-96575000D01*
X163962500Y-99737500D02*
X168437500Y-99737500D01*
X168437500Y-99737500D02*
X171600000Y-96575000D01*
%TO.N,~{SWITCH}*%
X195000000Y-93007400D02*
X197782400Y-90225000D01*
X189250000Y-101325000D02*
X195000000Y-95575000D01*
X197782400Y-90225000D02*
X201275000Y-90225000D01*
X177125000Y-101325000D02*
X189250000Y-101325000D01*
X195000000Y-95575000D02*
X195000000Y-93007400D01*
D23*
%TO.N,BP_SDA*%
X188214000Y-81940400D02*
X189103000Y-81940400D01*
X187985400Y-82169000D02*
X188214000Y-81940400D01*
X186486800Y-82169000D02*
X187985400Y-82169000D01*
D21*
%TO.N,~{MAIN_CONT}*%
X187442000Y-96908000D02*
X195450000Y-88900000D01*
X175133000Y-96908000D02*
X187442000Y-96908000D01*
X195750000Y-88600000D02*
X195450000Y-88900000D01*
X195750000Y-87175000D02*
X195750000Y-88600000D01*
%TO.N,~{DROGUE_CONT}*%
X182725000Y-97500000D02*
X189241002Y-97500000D01*
X196425000Y-90316002D02*
X196425000Y-89700000D01*
X189241002Y-97500000D02*
X196425000Y-90316002D01*
X181154799Y-99070201D02*
X182725000Y-97500000D01*
D23*
%TO.N,BP_INT*%
X189050000Y-89575000D02*
X191837500Y-86787500D01*
X186450000Y-89575000D02*
X189050000Y-89575000D01*
%TO.N,TX_USB*%
X215696800Y-97409000D02*
X217652600Y-97409000D01*
%TD*%
%TA.AperFunction,Conductor*%
%TO.N,Earth*%
G36*
X160094429Y-80894102D02*
G01*
X160140922Y-80947758D01*
X160151026Y-81018032D01*
X160121532Y-81082612D01*
X160061886Y-81120972D01*
X159891370Y-81171158D01*
X159714709Y-81263514D01*
X159709909Y-81267374D01*
X159709908Y-81267374D01*
X159704893Y-81271406D01*
X159559351Y-81388425D01*
X159431214Y-81541133D01*
X159335179Y-81715821D01*
X159333318Y-81721688D01*
X159333317Y-81721690D01*
X159318407Y-81768693D01*
X159274902Y-81905835D01*
X159252682Y-82103939D01*
X159269362Y-82302586D01*
X159324310Y-82494209D01*
X159349658Y-82543531D01*
X159409180Y-82659349D01*
X159415430Y-82671511D01*
X159539253Y-82827737D01*
X159691063Y-82956937D01*
X159696441Y-82959943D01*
X159696443Y-82959944D01*
X159740195Y-82984396D01*
X159865076Y-83054189D01*
X159870935Y-83056093D01*
X159870938Y-83056094D01*
X159965139Y-83086702D01*
X160015297Y-83117440D01*
X161161011Y-84263154D01*
X161173848Y-84278182D01*
X161181831Y-84289170D01*
X161186733Y-84293583D01*
X161186734Y-84293585D01*
X161231563Y-84333949D01*
X161236347Y-84338490D01*
X161250494Y-84352637D01*
X161253059Y-84354714D01*
X161266054Y-84365237D01*
X161271075Y-84369525D01*
X161315881Y-84409870D01*
X161315885Y-84409873D01*
X161320785Y-84414285D01*
X161326495Y-84417581D01*
X161326498Y-84417584D01*
X161332545Y-84421075D01*
X161348830Y-84432268D01*
X161359375Y-84440807D01*
X161418980Y-84471177D01*
X161424776Y-84474324D01*
X161482715Y-84507775D01*
X161495625Y-84511970D01*
X161513884Y-84519533D01*
X161525976Y-84525694D01*
X161583141Y-84541012D01*
X161590594Y-84543009D01*
X161596919Y-84544882D01*
X161660544Y-84565555D01*
X161667111Y-84566245D01*
X161667115Y-84566246D01*
X161672788Y-84566842D01*
X161674030Y-84566972D01*
X161693472Y-84570575D01*
X161706585Y-84574089D01*
X161713182Y-84574435D01*
X161713184Y-84574435D01*
X161773387Y-84577590D01*
X161779961Y-84578107D01*
X161796605Y-84579856D01*
X161796609Y-84579856D01*
X161799880Y-84580200D01*
X161819907Y-84580200D01*
X161826501Y-84580373D01*
X161886718Y-84583529D01*
X161886722Y-84583529D01*
X161893310Y-84583874D01*
X161899825Y-84582842D01*
X161899827Y-84582842D01*
X161906714Y-84581751D01*
X161926425Y-84580200D01*
X208697451Y-84580200D01*
X208765572Y-84600202D01*
X208812065Y-84653858D01*
X208822169Y-84724132D01*
X208792675Y-84788712D01*
X208738056Y-84825478D01*
X208605874Y-84870476D01*
X208605871Y-84870477D01*
X208599204Y-84872747D01*
X208593206Y-84876437D01*
X208593204Y-84876438D01*
X208585579Y-84881129D01*
X208454267Y-84961913D01*
X208449236Y-84966840D01*
X208449233Y-84966842D01*
X208393476Y-85021443D01*
X208332686Y-85080973D01*
X208240505Y-85224011D01*
X208238095Y-85230633D01*
X208235954Y-85236514D01*
X208193858Y-85293684D01*
X208127536Y-85319020D01*
X208058045Y-85304478D01*
X208040849Y-85293378D01*
X208029148Y-85284399D01*
X208029145Y-85284398D01*
X208022596Y-85279372D01*
X207877272Y-85219177D01*
X207760474Y-85203800D01*
X207721319Y-85198645D01*
X207713131Y-85199723D01*
X207713130Y-85199723D01*
X207690350Y-85202722D01*
X207673904Y-85203800D01*
X206727214Y-85203800D01*
X206710767Y-85202722D01*
X206687988Y-85199723D01*
X206679800Y-85198645D01*
X206640645Y-85203800D01*
X206523847Y-85219177D01*
X206378523Y-85279372D01*
X206362742Y-85291481D01*
X206287534Y-85349190D01*
X206253729Y-85375129D01*
X206239025Y-85394292D01*
X206234710Y-85399915D01*
X206223843Y-85412306D01*
X204995510Y-86640639D01*
X204983119Y-86651507D01*
X204958329Y-86670529D01*
X204878817Y-86774152D01*
X204862572Y-86795323D01*
X204802377Y-86940647D01*
X204781845Y-87096600D01*
X204782923Y-87104788D01*
X204782923Y-87104789D01*
X204785922Y-87127569D01*
X204787000Y-87144015D01*
X204787000Y-90066022D01*
X204766912Y-90134277D01*
X204700705Y-90237011D01*
X204698296Y-90243631D01*
X204698295Y-90243632D01*
X204658664Y-90352517D01*
X204616570Y-90409688D01*
X204550248Y-90435026D01*
X204480757Y-90420485D01*
X204451168Y-90398517D01*
X201952197Y-87899546D01*
X201918171Y-87837234D01*
X201916077Y-87824497D01*
X201913115Y-87798088D01*
X201913114Y-87798085D01*
X201912330Y-87791092D01*
X201856367Y-87630390D01*
X201851881Y-87623210D01*
X201769925Y-87492053D01*
X201766192Y-87486079D01*
X201694768Y-87414155D01*
X201651249Y-87370331D01*
X201651245Y-87370328D01*
X201646285Y-87365333D01*
X201502608Y-87274152D01*
X201342300Y-87217069D01*
X201173329Y-87196921D01*
X201166326Y-87197657D01*
X201166325Y-87197657D01*
X201011101Y-87213971D01*
X201011097Y-87213972D01*
X201004093Y-87214708D01*
X200997422Y-87216979D01*
X200849674Y-87267276D01*
X200849671Y-87267277D01*
X200843004Y-87269547D01*
X200837006Y-87273237D01*
X200837004Y-87273238D01*
X200813487Y-87287706D01*
X200698067Y-87358713D01*
X200693036Y-87363640D01*
X200693033Y-87363642D01*
X200646737Y-87408979D01*
X200576486Y-87477773D01*
X200484305Y-87620811D01*
X200481896Y-87627431D01*
X200481895Y-87627432D01*
X200438919Y-87745507D01*
X200426104Y-87780716D01*
X200404776Y-87949543D01*
X200421382Y-88118899D01*
X200475095Y-88280367D01*
X200478742Y-88286389D01*
X200478743Y-88286391D01*
X200525958Y-88364351D01*
X200563247Y-88425923D01*
X200681456Y-88548331D01*
X200823846Y-88641509D01*
X200983342Y-88700825D01*
X201024730Y-88706347D01*
X201033886Y-88707569D01*
X201098762Y-88736405D01*
X201106316Y-88743367D01*
X201668192Y-89305243D01*
X201702218Y-89367555D01*
X201697153Y-89438370D01*
X201654606Y-89495206D01*
X201588086Y-89520017D01*
X201536830Y-89513037D01*
X201517301Y-89506083D01*
X201449300Y-89481869D01*
X201280329Y-89461721D01*
X201273326Y-89462457D01*
X201273325Y-89462457D01*
X201118101Y-89478771D01*
X201118097Y-89478772D01*
X201111093Y-89479508D01*
X201104422Y-89481779D01*
X200956674Y-89532076D01*
X200956671Y-89532077D01*
X200950004Y-89534347D01*
X200944006Y-89538037D01*
X200944004Y-89538038D01*
X200890721Y-89570818D01*
X200824699Y-89589500D01*
X197861432Y-89589500D01*
X197850193Y-89588970D01*
X197842681Y-89587291D01*
X197834756Y-89587540D01*
X197834755Y-89587540D01*
X197774370Y-89589438D01*
X197770412Y-89589500D01*
X197742417Y-89589500D01*
X197738483Y-89589997D01*
X197738481Y-89589997D01*
X197738394Y-89590008D01*
X197726560Y-89590940D01*
X197682195Y-89592335D01*
X197674582Y-89594547D01*
X197674581Y-89594547D01*
X197662652Y-89598013D01*
X197643288Y-89602023D01*
X197630960Y-89603580D01*
X197630958Y-89603580D01*
X197623101Y-89604573D01*
X197615737Y-89607489D01*
X197615732Y-89607490D01*
X197581844Y-89620907D01*
X197570615Y-89624752D01*
X197553935Y-89629598D01*
X197528007Y-89637131D01*
X197521180Y-89641169D01*
X197521177Y-89641170D01*
X197510494Y-89647488D01*
X197492736Y-89656188D01*
X197481185Y-89660761D01*
X197481179Y-89660765D01*
X197473812Y-89663681D01*
X197467401Y-89668339D01*
X197467399Y-89668340D01*
X197449838Y-89681099D01*
X197441162Y-89687403D01*
X197437912Y-89689764D01*
X197427990Y-89696281D01*
X197427774Y-89696409D01*
X197389802Y-89718866D01*
X197384195Y-89724473D01*
X197383919Y-89724687D01*
X197317834Y-89750635D01*
X197248212Y-89736736D01*
X197197156Y-89687403D01*
X197181476Y-89639174D01*
X197170115Y-89537888D01*
X197170114Y-89537885D01*
X197169330Y-89530892D01*
X197113367Y-89370190D01*
X197084540Y-89324056D01*
X197026925Y-89231853D01*
X197023192Y-89225879D01*
X196932082Y-89134131D01*
X196908249Y-89110131D01*
X196908245Y-89110128D01*
X196903285Y-89105133D01*
X196759608Y-89013952D01*
X196599300Y-88956869D01*
X196469460Y-88941387D01*
X196404186Y-88913460D01*
X196364373Y-88854677D01*
X196363404Y-88782667D01*
X196365117Y-88778708D01*
X196369155Y-88753217D01*
X196372060Y-88734873D01*
X196374467Y-88723251D01*
X196385500Y-88680282D01*
X196385500Y-88659935D01*
X196387051Y-88640224D01*
X196388995Y-88627950D01*
X196390235Y-88620121D01*
X196386059Y-88575944D01*
X196385500Y-88564086D01*
X196385500Y-87627250D01*
X196406551Y-87557524D01*
X196428890Y-87523902D01*
X196459793Y-87442549D01*
X196486817Y-87371409D01*
X196486818Y-87371406D01*
X196489318Y-87364824D01*
X196513000Y-87196313D01*
X196513214Y-87181035D01*
X196513243Y-87178961D01*
X196513243Y-87178955D01*
X196513298Y-87175000D01*
X196500072Y-87057084D01*
X196495115Y-87012888D01*
X196495114Y-87012885D01*
X196494330Y-87005892D01*
X196438367Y-86845190D01*
X196432382Y-86835611D01*
X196351925Y-86706853D01*
X196348192Y-86700879D01*
X196273226Y-86625388D01*
X196233249Y-86585131D01*
X196233245Y-86585128D01*
X196228285Y-86580133D01*
X196084608Y-86488952D01*
X195924300Y-86431869D01*
X195755329Y-86411721D01*
X195748326Y-86412457D01*
X195748325Y-86412457D01*
X195593101Y-86428771D01*
X195593097Y-86428772D01*
X195586093Y-86429508D01*
X195579422Y-86431779D01*
X195431674Y-86482076D01*
X195431671Y-86482077D01*
X195425004Y-86484347D01*
X195419006Y-86488037D01*
X195419004Y-86488038D01*
X195415620Y-86490120D01*
X195280067Y-86573513D01*
X195275036Y-86578440D01*
X195275033Y-86578442D01*
X195219276Y-86633043D01*
X195158486Y-86692573D01*
X195066305Y-86835611D01*
X195063896Y-86842231D01*
X195063895Y-86842232D01*
X195011539Y-86986079D01*
X195008104Y-86995516D01*
X194986776Y-87164343D01*
X195003382Y-87333699D01*
X195005606Y-87340384D01*
X195005606Y-87340385D01*
X195015824Y-87371102D01*
X195057095Y-87495167D01*
X195060742Y-87501189D01*
X195060743Y-87501191D01*
X195096276Y-87559863D01*
X195114500Y-87625134D01*
X195114500Y-88284577D01*
X195094498Y-88352698D01*
X195077595Y-88373672D01*
X192792137Y-90659130D01*
X192729825Y-90693156D01*
X192659010Y-90688091D01*
X192613637Y-90658820D01*
X192537086Y-90581734D01*
X192538519Y-90580311D01*
X192503624Y-90530170D01*
X192501013Y-90459222D01*
X192506724Y-90442031D01*
X192528862Y-90388584D01*
X192532023Y-90380953D01*
X192547400Y-90264155D01*
X192552555Y-90225000D01*
X192548478Y-90194031D01*
X192547400Y-90177585D01*
X192547400Y-90009596D01*
X192568452Y-89939868D01*
X192601701Y-89889824D01*
X192628890Y-89848902D01*
X192635336Y-89831932D01*
X192686817Y-89696409D01*
X192686818Y-89696406D01*
X192689318Y-89689824D01*
X192713000Y-89521313D01*
X192713298Y-89500000D01*
X192701909Y-89398465D01*
X192695115Y-89337888D01*
X192695114Y-89337885D01*
X192694330Y-89330892D01*
X192638367Y-89170190D01*
X192581243Y-89078771D01*
X192551925Y-89031853D01*
X192548192Y-89025879D01*
X192472854Y-88950014D01*
X192433249Y-88910131D01*
X192433245Y-88910128D01*
X192428285Y-88905133D01*
X192382537Y-88876100D01*
X192290554Y-88817725D01*
X192290551Y-88817723D01*
X192284608Y-88813952D01*
X192231134Y-88794911D01*
X192173669Y-88753217D01*
X192147869Y-88687075D01*
X192147400Y-88676212D01*
X192147400Y-88634596D01*
X192168452Y-88564868D01*
X192209542Y-88503023D01*
X192228890Y-88473902D01*
X192236295Y-88454409D01*
X192286817Y-88321409D01*
X192286818Y-88321406D01*
X192289318Y-88314824D01*
X192313000Y-88146313D01*
X192313298Y-88125000D01*
X192300447Y-88010428D01*
X192295115Y-87962888D01*
X192295114Y-87962885D01*
X192294330Y-87955892D01*
X192238367Y-87795190D01*
X192232770Y-87786232D01*
X192203191Y-87738897D01*
X192148192Y-87650879D01*
X192147030Y-87649709D01*
X192121193Y-87585880D01*
X192134362Y-87516116D01*
X192182059Y-87465194D01*
X192190647Y-87460075D01*
X192249638Y-87424909D01*
X192292934Y-87399100D01*
X192292937Y-87399098D01*
X192298989Y-87395490D01*
X192422220Y-87278138D01*
X192445187Y-87243571D01*
X192483978Y-87185185D01*
X192516390Y-87136402D01*
X192522165Y-87121200D01*
X192574317Y-86983909D01*
X192574318Y-86983906D01*
X192576818Y-86977324D01*
X192600500Y-86808813D01*
X192600798Y-86787500D01*
X192590446Y-86695209D01*
X192582615Y-86625388D01*
X192582614Y-86625385D01*
X192581830Y-86618392D01*
X192525867Y-86457690D01*
X192520445Y-86449012D01*
X192439425Y-86319353D01*
X192435692Y-86313379D01*
X192333969Y-86210944D01*
X192320749Y-86197631D01*
X192320745Y-86197628D01*
X192315785Y-86192633D01*
X192172108Y-86101452D01*
X192011800Y-86044369D01*
X191842829Y-86024221D01*
X191835826Y-86024957D01*
X191835825Y-86024957D01*
X191680601Y-86041271D01*
X191680597Y-86041272D01*
X191673593Y-86042008D01*
X191666922Y-86044279D01*
X191519174Y-86094576D01*
X191519171Y-86094577D01*
X191512504Y-86096847D01*
X191506506Y-86100537D01*
X191506504Y-86100538D01*
X191444925Y-86138422D01*
X191367567Y-86186013D01*
X191362536Y-86190940D01*
X191362533Y-86190942D01*
X191342108Y-86210944D01*
X191245986Y-86305073D01*
X191153805Y-86448111D01*
X191151396Y-86454731D01*
X191151395Y-86454732D01*
X191101377Y-86592155D01*
X191095604Y-86608016D01*
X191094721Y-86615004D01*
X191094721Y-86615005D01*
X191089945Y-86652812D01*
X191061563Y-86717889D01*
X191054034Y-86726115D01*
X188839454Y-88940695D01*
X188777142Y-88974721D01*
X188750359Y-88977600D01*
X186960900Y-88977600D01*
X186893386Y-88957985D01*
X186790562Y-88892730D01*
X186790558Y-88892728D01*
X186784608Y-88888952D01*
X186624300Y-88831869D01*
X186455329Y-88811721D01*
X186448326Y-88812457D01*
X186448325Y-88812457D01*
X186293101Y-88828771D01*
X186293097Y-88828772D01*
X186286093Y-88829508D01*
X186279422Y-88831779D01*
X186131674Y-88882076D01*
X186131671Y-88882077D01*
X186125004Y-88884347D01*
X186119006Y-88888037D01*
X186119004Y-88888038D01*
X186070765Y-88917715D01*
X185980067Y-88973513D01*
X185975036Y-88978440D01*
X185975033Y-88978442D01*
X185941187Y-89011587D01*
X185858486Y-89092573D01*
X185766305Y-89235611D01*
X185763896Y-89242231D01*
X185763895Y-89242232D01*
X185753042Y-89272050D01*
X185708104Y-89395516D01*
X185686776Y-89564343D01*
X185703382Y-89733699D01*
X185757095Y-89895167D01*
X185845247Y-90040723D01*
X185963456Y-90163131D01*
X186105846Y-90256309D01*
X186265342Y-90315625D01*
X186272323Y-90316556D01*
X186272325Y-90316557D01*
X186318426Y-90322708D01*
X186434015Y-90338131D01*
X186441026Y-90337493D01*
X186441030Y-90337493D01*
X186596461Y-90323347D01*
X186603482Y-90322708D01*
X186610184Y-90320530D01*
X186610186Y-90320530D01*
X186758623Y-90272300D01*
X186758626Y-90272299D01*
X186765322Y-90270123D01*
X186899443Y-90190171D01*
X186963960Y-90172400D01*
X189002586Y-90172400D01*
X189019033Y-90173478D01*
X189050000Y-90177555D01*
X189089155Y-90172400D01*
X189205953Y-90157023D01*
X189247531Y-90139801D01*
X189318119Y-90132212D01*
X189381606Y-90163991D01*
X189417834Y-90225049D01*
X189415300Y-90296000D01*
X189384843Y-90345305D01*
X188192709Y-91537440D01*
X188130397Y-91571465D01*
X188116788Y-91573654D01*
X188100840Y-91575330D01*
X188068101Y-91578771D01*
X188068097Y-91578772D01*
X188061093Y-91579508D01*
X188054422Y-91581779D01*
X187906674Y-91632076D01*
X187906671Y-91632077D01*
X187900004Y-91634347D01*
X187755067Y-91723513D01*
X187750036Y-91728440D01*
X187750033Y-91728442D01*
X187694276Y-91783043D01*
X187633486Y-91842573D01*
X187541305Y-91985611D01*
X187538896Y-91992231D01*
X187538895Y-91992232D01*
X187524409Y-92032031D01*
X187483104Y-92145516D01*
X187461776Y-92314343D01*
X187478382Y-92483699D01*
X187480606Y-92490384D01*
X187480606Y-92490385D01*
X187507584Y-92571484D01*
X187510107Y-92642436D01*
X187476183Y-92701279D01*
X187450871Y-92726067D01*
X187415853Y-92760359D01*
X187408486Y-92767573D01*
X187316305Y-92910611D01*
X187258104Y-93070516D01*
X187236776Y-93239343D01*
X187253382Y-93408699D01*
X187255606Y-93415384D01*
X187255606Y-93415385D01*
X187262290Y-93435478D01*
X187307095Y-93570167D01*
X187395247Y-93715723D01*
X187513456Y-93838131D01*
X187655846Y-93931309D01*
X187815342Y-93990625D01*
X187822323Y-93991556D01*
X187822325Y-93991557D01*
X187868426Y-93997708D01*
X187984015Y-94013131D01*
X187991026Y-94012493D01*
X187991030Y-94012493D01*
X188146461Y-93998347D01*
X188153482Y-93997708D01*
X188160184Y-93995530D01*
X188160186Y-93995530D01*
X188308623Y-93947300D01*
X188308626Y-93947299D01*
X188315322Y-93945123D01*
X188426639Y-93878765D01*
X188449443Y-93865171D01*
X188513960Y-93847400D01*
X188877586Y-93847400D01*
X188894033Y-93848478D01*
X188925000Y-93852555D01*
X188964155Y-93847400D01*
X189080953Y-93832023D01*
X189226277Y-93771828D01*
X189351071Y-93676071D01*
X189370090Y-93651285D01*
X189380957Y-93638894D01*
X191325792Y-91694059D01*
X191388104Y-91660033D01*
X191458919Y-91665098D01*
X191505520Y-91695624D01*
X191542388Y-91733802D01*
X191575319Y-91796697D01*
X191569019Y-91867414D01*
X191540845Y-91910422D01*
X187215672Y-96235595D01*
X187153360Y-96269621D01*
X187126577Y-96272500D01*
X183486699Y-96272500D01*
X183418578Y-96252498D01*
X183372085Y-96198842D01*
X183361924Y-96128971D01*
X183362450Y-96125224D01*
X183363000Y-96121313D01*
X183363298Y-96100000D01*
X183350756Y-95988181D01*
X183345115Y-95937888D01*
X183345114Y-95937885D01*
X183344330Y-95930892D01*
X183288367Y-95770190D01*
X183282382Y-95760611D01*
X183201925Y-95631853D01*
X183198192Y-95625879D01*
X183123778Y-95550944D01*
X183083249Y-95510131D01*
X183083245Y-95510128D01*
X183078285Y-95505133D01*
X182934608Y-95413952D01*
X182774300Y-95356869D01*
X182605329Y-95336721D01*
X182598326Y-95337457D01*
X182598325Y-95337457D01*
X182443101Y-95353771D01*
X182443097Y-95353772D01*
X182436093Y-95354508D01*
X182429422Y-95356779D01*
X182281674Y-95407076D01*
X182281671Y-95407077D01*
X182275004Y-95409347D01*
X182269006Y-95413037D01*
X182269004Y-95413038D01*
X182261379Y-95417729D01*
X182130067Y-95498513D01*
X182125036Y-95503440D01*
X182125033Y-95503442D01*
X182088635Y-95539086D01*
X182008486Y-95617573D01*
X181916305Y-95760611D01*
X181913896Y-95767231D01*
X181913895Y-95767232D01*
X181894485Y-95820561D01*
X181858104Y-95920516D01*
X181836776Y-96089343D01*
X181840662Y-96128971D01*
X181841175Y-96134204D01*
X181827916Y-96203951D01*
X181779054Y-96255458D01*
X181715776Y-96272500D01*
X175583865Y-96272500D01*
X175516350Y-96252885D01*
X175508719Y-96248042D01*
X175467608Y-96221952D01*
X175307300Y-96164869D01*
X175271581Y-96160610D01*
X175206308Y-96132683D01*
X175166495Y-96073900D01*
X175161652Y-96042873D01*
X175160749Y-96042930D01*
X175160500Y-96038973D01*
X175160500Y-96035017D01*
X175159992Y-96030996D01*
X175159058Y-96019144D01*
X175159001Y-96017307D01*
X175158029Y-95986368D01*
X175157914Y-95982718D01*
X175157914Y-95982717D01*
X175157665Y-95974795D01*
X175151987Y-95955251D01*
X175147977Y-95935888D01*
X175146420Y-95923560D01*
X175146420Y-95923558D01*
X175145427Y-95915701D01*
X175142511Y-95908337D01*
X175142510Y-95908332D01*
X175129093Y-95874444D01*
X175125248Y-95863215D01*
X175118987Y-95841667D01*
X175112869Y-95820607D01*
X175107071Y-95810803D01*
X175102512Y-95803094D01*
X175093812Y-95785336D01*
X175089239Y-95773785D01*
X175089235Y-95773779D01*
X175086319Y-95766412D01*
X175077803Y-95754690D01*
X175060236Y-95730512D01*
X175053719Y-95720590D01*
X175035174Y-95689232D01*
X175035171Y-95689228D01*
X175031134Y-95682402D01*
X175016750Y-95668018D01*
X175003909Y-95652984D01*
X174996602Y-95642927D01*
X174991942Y-95636513D01*
X174957745Y-95608223D01*
X174948965Y-95600233D01*
X174580250Y-95231518D01*
X174572678Y-95223197D01*
X174568553Y-95216697D01*
X174518733Y-95169913D01*
X174515892Y-95167159D01*
X174496094Y-95147361D01*
X174492969Y-95144937D01*
X174492960Y-95144929D01*
X174492874Y-95144863D01*
X174483849Y-95137155D01*
X174457285Y-95112210D01*
X174451506Y-95106783D01*
X174433669Y-95096977D01*
X174417153Y-95086127D01*
X174401067Y-95073650D01*
X174360334Y-95056024D01*
X174349686Y-95050807D01*
X174324809Y-95037131D01*
X174310803Y-95029431D01*
X174303128Y-95027460D01*
X174303122Y-95027458D01*
X174291089Y-95024369D01*
X174272387Y-95017966D01*
X174253708Y-95009883D01*
X174213913Y-95003580D01*
X174209873Y-95002940D01*
X174198260Y-95000535D01*
X174155282Y-94989500D01*
X174134935Y-94989500D01*
X174115224Y-94987949D01*
X174102950Y-94986005D01*
X174095121Y-94984765D01*
X174087229Y-94985511D01*
X174050944Y-94988941D01*
X174039086Y-94989500D01*
X171229032Y-94989500D01*
X171217793Y-94988970D01*
X171210281Y-94987291D01*
X171202356Y-94987540D01*
X171202355Y-94987540D01*
X171141970Y-94989438D01*
X171138012Y-94989500D01*
X171110017Y-94989500D01*
X171106083Y-94989997D01*
X171106081Y-94989997D01*
X171105994Y-94990008D01*
X171094160Y-94990940D01*
X171049795Y-94992335D01*
X171042182Y-94994547D01*
X171042181Y-94994547D01*
X171030252Y-94998013D01*
X171010888Y-95002023D01*
X170998560Y-95003580D01*
X170998558Y-95003580D01*
X170990701Y-95004573D01*
X170983337Y-95007489D01*
X170983332Y-95007490D01*
X170949444Y-95020907D01*
X170938215Y-95024752D01*
X170922111Y-95029431D01*
X170895607Y-95037131D01*
X170888780Y-95041169D01*
X170888777Y-95041170D01*
X170878094Y-95047488D01*
X170860336Y-95056188D01*
X170848785Y-95060761D01*
X170848779Y-95060765D01*
X170841412Y-95063681D01*
X170835001Y-95068339D01*
X170834999Y-95068340D01*
X170812361Y-95084788D01*
X170745494Y-95108646D01*
X170676342Y-95092566D01*
X170626862Y-95041653D01*
X170612300Y-94982852D01*
X170612300Y-89088622D01*
X170632302Y-89020501D01*
X170649205Y-88999527D01*
X170665873Y-88982859D01*
X170728185Y-88948833D01*
X170780088Y-88948484D01*
X170879609Y-88968732D01*
X170879613Y-88968732D01*
X170884688Y-88969765D01*
X170889861Y-88969955D01*
X170889864Y-88969955D01*
X171102912Y-88977767D01*
X171102916Y-88977767D01*
X171108076Y-88977956D01*
X171113196Y-88977300D01*
X171113198Y-88977300D01*
X171324674Y-88950209D01*
X171324675Y-88950209D01*
X171329802Y-88949552D01*
X171357018Y-88941387D01*
X171538958Y-88886802D01*
X171543911Y-88885316D01*
X171548550Y-88883043D01*
X171548556Y-88883041D01*
X171730307Y-88794002D01*
X171744655Y-88786973D01*
X171834084Y-88723184D01*
X171922428Y-88660169D01*
X171922433Y-88660165D01*
X171926640Y-88657164D01*
X172084981Y-88499375D01*
X172215425Y-88317843D01*
X172231449Y-88285422D01*
X172312174Y-88122087D01*
X172312175Y-88122085D01*
X172314468Y-88117445D01*
X172379451Y-87903560D01*
X172408629Y-87681935D01*
X172409726Y-87637045D01*
X172410175Y-87618666D01*
X172410175Y-87618662D01*
X172410257Y-87615301D01*
X172407517Y-87581974D01*
X173182547Y-87581974D01*
X173182844Y-87587126D01*
X173182844Y-87587130D01*
X173186865Y-87656857D01*
X173195415Y-87805141D01*
X173196552Y-87810187D01*
X173196553Y-87810193D01*
X173227583Y-87947883D01*
X173244559Y-88023210D01*
X173291982Y-88140000D01*
X173325441Y-88222399D01*
X173328659Y-88230325D01*
X173331364Y-88234740D01*
X173331365Y-88234741D01*
X173359085Y-88279975D01*
X173445458Y-88420922D01*
X173591817Y-88589884D01*
X173595792Y-88593184D01*
X173595795Y-88593187D01*
X173649350Y-88637649D01*
X173763807Y-88732673D01*
X173956809Y-88845454D01*
X173961629Y-88847294D01*
X173961634Y-88847297D01*
X174076478Y-88891151D01*
X174165639Y-88925198D01*
X174170707Y-88926229D01*
X174170710Y-88926230D01*
X174244924Y-88941329D01*
X174384689Y-88969765D01*
X174389862Y-88969955D01*
X174389865Y-88969955D01*
X174602913Y-88977767D01*
X174602917Y-88977767D01*
X174608077Y-88977956D01*
X174613197Y-88977300D01*
X174613199Y-88977300D01*
X174824675Y-88950209D01*
X174824676Y-88950209D01*
X174829803Y-88949552D01*
X174857019Y-88941387D01*
X175038959Y-88886802D01*
X175043912Y-88885316D01*
X175048551Y-88883043D01*
X175048557Y-88883041D01*
X175230308Y-88794002D01*
X175244656Y-88786973D01*
X175334085Y-88723184D01*
X175422429Y-88660169D01*
X175422434Y-88660165D01*
X175426641Y-88657164D01*
X175584982Y-88499375D01*
X175715426Y-88317843D01*
X175731450Y-88285422D01*
X175812175Y-88122087D01*
X175812176Y-88122085D01*
X175814469Y-88117445D01*
X175879452Y-87903560D01*
X175908630Y-87681935D01*
X175909727Y-87637045D01*
X175910176Y-87618666D01*
X175910176Y-87618662D01*
X175910258Y-87615301D01*
X175907518Y-87581974D01*
X176682548Y-87581974D01*
X176682845Y-87587126D01*
X176682845Y-87587130D01*
X176686866Y-87656857D01*
X176695416Y-87805141D01*
X176696553Y-87810187D01*
X176696554Y-87810193D01*
X176727584Y-87947883D01*
X176744560Y-88023210D01*
X176791983Y-88140000D01*
X176825442Y-88222399D01*
X176828660Y-88230325D01*
X176831365Y-88234740D01*
X176831366Y-88234741D01*
X176859086Y-88279975D01*
X176945459Y-88420922D01*
X177091818Y-88589884D01*
X177095793Y-88593184D01*
X177095796Y-88593187D01*
X177149351Y-88637649D01*
X177263808Y-88732673D01*
X177456810Y-88845454D01*
X177461630Y-88847294D01*
X177461635Y-88847297D01*
X177576479Y-88891151D01*
X177665640Y-88925198D01*
X177670708Y-88926229D01*
X177670711Y-88926230D01*
X177744925Y-88941329D01*
X177884690Y-88969765D01*
X177889863Y-88969955D01*
X177889866Y-88969955D01*
X178102914Y-88977767D01*
X178102918Y-88977767D01*
X178108078Y-88977956D01*
X178113198Y-88977300D01*
X178113200Y-88977300D01*
X178324676Y-88950209D01*
X178324677Y-88950209D01*
X178329804Y-88949552D01*
X178357020Y-88941387D01*
X178538960Y-88886802D01*
X178543913Y-88885316D01*
X178548552Y-88883043D01*
X178548558Y-88883041D01*
X178730309Y-88794002D01*
X178744657Y-88786973D01*
X178834086Y-88723184D01*
X178922430Y-88660169D01*
X178922435Y-88660165D01*
X178926642Y-88657164D01*
X179084983Y-88499375D01*
X179215427Y-88317843D01*
X179231451Y-88285422D01*
X179312176Y-88122087D01*
X179312177Y-88122085D01*
X179314470Y-88117445D01*
X179379453Y-87903560D01*
X179408631Y-87681935D01*
X179409728Y-87637045D01*
X179410177Y-87618666D01*
X179410177Y-87618662D01*
X179410259Y-87615301D01*
X179407519Y-87581974D01*
X180182551Y-87581974D01*
X180182848Y-87587126D01*
X180182848Y-87587130D01*
X180186869Y-87656857D01*
X180195419Y-87805141D01*
X180196556Y-87810187D01*
X180196557Y-87810193D01*
X180227587Y-87947883D01*
X180244563Y-88023210D01*
X180291986Y-88140000D01*
X180325445Y-88222399D01*
X180328663Y-88230325D01*
X180331368Y-88234740D01*
X180331369Y-88234741D01*
X180359089Y-88279975D01*
X180445462Y-88420922D01*
X180591821Y-88589884D01*
X180595796Y-88593184D01*
X180595799Y-88593187D01*
X180649354Y-88637649D01*
X180763811Y-88732673D01*
X180956813Y-88845454D01*
X180961633Y-88847294D01*
X180961638Y-88847297D01*
X181076482Y-88891151D01*
X181165643Y-88925198D01*
X181170711Y-88926229D01*
X181170714Y-88926230D01*
X181244928Y-88941329D01*
X181384693Y-88969765D01*
X181389866Y-88969955D01*
X181389869Y-88969955D01*
X181602917Y-88977767D01*
X181602921Y-88977767D01*
X181608081Y-88977956D01*
X181613201Y-88977300D01*
X181613203Y-88977300D01*
X181824679Y-88950209D01*
X181824680Y-88950209D01*
X181829807Y-88949552D01*
X181857023Y-88941387D01*
X182038963Y-88886802D01*
X182043916Y-88885316D01*
X182048555Y-88883043D01*
X182048561Y-88883041D01*
X182230312Y-88794002D01*
X182244660Y-88786973D01*
X182334089Y-88723184D01*
X182422433Y-88660169D01*
X182422438Y-88660165D01*
X182426645Y-88657164D01*
X182584986Y-88499375D01*
X182715430Y-88317843D01*
X182731454Y-88285422D01*
X182812179Y-88122087D01*
X182812180Y-88122085D01*
X182814473Y-88117445D01*
X182879456Y-87903560D01*
X182908634Y-87681935D01*
X182909731Y-87637045D01*
X182910180Y-87618666D01*
X182910180Y-87618662D01*
X182910262Y-87615301D01*
X182896634Y-87449543D01*
X186579176Y-87449543D01*
X186595782Y-87618899D01*
X186598006Y-87625584D01*
X186598006Y-87625585D01*
X186613523Y-87672230D01*
X186649495Y-87780367D01*
X186653142Y-87786389D01*
X186653143Y-87786391D01*
X186667558Y-87810193D01*
X186737647Y-87925923D01*
X186742543Y-87930993D01*
X186757338Y-87946313D01*
X186855856Y-88048331D01*
X186998246Y-88141509D01*
X187157742Y-88200825D01*
X187164723Y-88201756D01*
X187164725Y-88201757D01*
X187210826Y-88207908D01*
X187326415Y-88223331D01*
X187333426Y-88222693D01*
X187333430Y-88222693D01*
X187488861Y-88208547D01*
X187495882Y-88207908D01*
X187502584Y-88205730D01*
X187502586Y-88205730D01*
X187651023Y-88157500D01*
X187651026Y-88157499D01*
X187657722Y-88155323D01*
X187776170Y-88084714D01*
X187797834Y-88071800D01*
X187797837Y-88071798D01*
X187803889Y-88068190D01*
X187927120Y-87950838D01*
X187932628Y-87942549D01*
X188017395Y-87814964D01*
X188021290Y-87809102D01*
X188029917Y-87786391D01*
X188079217Y-87656609D01*
X188079218Y-87656606D01*
X188081718Y-87650024D01*
X188105400Y-87481513D01*
X188105531Y-87472160D01*
X188105643Y-87464161D01*
X188105643Y-87464155D01*
X188105698Y-87460200D01*
X188094315Y-87358713D01*
X188087515Y-87298088D01*
X188087514Y-87298085D01*
X188086730Y-87291092D01*
X188030767Y-87130390D01*
X188025025Y-87121200D01*
X187944325Y-86992053D01*
X187940592Y-86986079D01*
X187850434Y-86895290D01*
X187825649Y-86870331D01*
X187825645Y-86870328D01*
X187820685Y-86865333D01*
X187677008Y-86774152D01*
X187516700Y-86717069D01*
X187347729Y-86696921D01*
X187340726Y-86697657D01*
X187340725Y-86697657D01*
X187185501Y-86713971D01*
X187185497Y-86713972D01*
X187178493Y-86714708D01*
X187171822Y-86716979D01*
X187024074Y-86767276D01*
X187024071Y-86767277D01*
X187017404Y-86769547D01*
X187011406Y-86773237D01*
X187011404Y-86773238D01*
X186994623Y-86783562D01*
X186872467Y-86858713D01*
X186867436Y-86863640D01*
X186867433Y-86863642D01*
X186818458Y-86911602D01*
X186750886Y-86977773D01*
X186658705Y-87120811D01*
X186656296Y-87127431D01*
X186656295Y-87127432D01*
X186614567Y-87242078D01*
X186600504Y-87280716D01*
X186579176Y-87449543D01*
X182896634Y-87449543D01*
X182891946Y-87392515D01*
X182840696Y-87188484D01*
X182838747Y-87180724D01*
X182838747Y-87180723D01*
X182837488Y-87175712D01*
X182764995Y-87008989D01*
X182750413Y-86975451D01*
X182750411Y-86975448D01*
X182748353Y-86970714D01*
X182643615Y-86808813D01*
X182629741Y-86787367D01*
X182629739Y-86787364D01*
X182626933Y-86783027D01*
X182476489Y-86617691D01*
X182472438Y-86614492D01*
X182472434Y-86614488D01*
X182305117Y-86482349D01*
X182305113Y-86482347D01*
X182301062Y-86479147D01*
X182268269Y-86461044D01*
X182234114Y-86442190D01*
X182105362Y-86371115D01*
X181937711Y-86311747D01*
X181899518Y-86298222D01*
X181899515Y-86298221D01*
X181894646Y-86296497D01*
X181889557Y-86295590D01*
X181889555Y-86295590D01*
X181679661Y-86258202D01*
X181679655Y-86258201D01*
X181674572Y-86257296D01*
X181588470Y-86256244D01*
X181456220Y-86254628D01*
X181456218Y-86254628D01*
X181451051Y-86254565D01*
X181230085Y-86288377D01*
X181113353Y-86326531D01*
X181022528Y-86356217D01*
X181022526Y-86356218D01*
X181017609Y-86357825D01*
X181013023Y-86360212D01*
X181013019Y-86360214D01*
X180875545Y-86431779D01*
X180819328Y-86461044D01*
X180814489Y-86464677D01*
X180654059Y-86585131D01*
X180640568Y-86595260D01*
X180486130Y-86756871D01*
X180483216Y-86761143D01*
X180483215Y-86761144D01*
X180429432Y-86839987D01*
X180360161Y-86941535D01*
X180346617Y-86970714D01*
X180269408Y-87137045D01*
X180266043Y-87144294D01*
X180206305Y-87359702D01*
X180182551Y-87581974D01*
X179407519Y-87581974D01*
X179391943Y-87392515D01*
X179340693Y-87188484D01*
X179338744Y-87180724D01*
X179338744Y-87180723D01*
X179337485Y-87175712D01*
X179264992Y-87008989D01*
X179250410Y-86975451D01*
X179250408Y-86975448D01*
X179248350Y-86970714D01*
X179143612Y-86808813D01*
X179129738Y-86787367D01*
X179129736Y-86787364D01*
X179126930Y-86783027D01*
X178976486Y-86617691D01*
X178972435Y-86614492D01*
X178972431Y-86614488D01*
X178805114Y-86482349D01*
X178805110Y-86482347D01*
X178801059Y-86479147D01*
X178768266Y-86461044D01*
X178734111Y-86442190D01*
X178605359Y-86371115D01*
X178437708Y-86311747D01*
X178399515Y-86298222D01*
X178399512Y-86298221D01*
X178394643Y-86296497D01*
X178389554Y-86295590D01*
X178389552Y-86295590D01*
X178179658Y-86258202D01*
X178179652Y-86258201D01*
X178174569Y-86257296D01*
X178088467Y-86256244D01*
X177956217Y-86254628D01*
X177956215Y-86254628D01*
X177951048Y-86254565D01*
X177730082Y-86288377D01*
X177613350Y-86326531D01*
X177522525Y-86356217D01*
X177522523Y-86356218D01*
X177517606Y-86357825D01*
X177513020Y-86360212D01*
X177513016Y-86360214D01*
X177375542Y-86431779D01*
X177319325Y-86461044D01*
X177314486Y-86464677D01*
X177154056Y-86585131D01*
X177140565Y-86595260D01*
X176986127Y-86756871D01*
X176983213Y-86761143D01*
X176983212Y-86761144D01*
X176929429Y-86839987D01*
X176860158Y-86941535D01*
X176846614Y-86970714D01*
X176769405Y-87137045D01*
X176766040Y-87144294D01*
X176706302Y-87359702D01*
X176682548Y-87581974D01*
X175907518Y-87581974D01*
X175891942Y-87392515D01*
X175840692Y-87188484D01*
X175838743Y-87180724D01*
X175838743Y-87180723D01*
X175837484Y-87175712D01*
X175764991Y-87008989D01*
X175750409Y-86975451D01*
X175750407Y-86975448D01*
X175748349Y-86970714D01*
X175643611Y-86808813D01*
X175629737Y-86787367D01*
X175629735Y-86787364D01*
X175626929Y-86783027D01*
X175476485Y-86617691D01*
X175472434Y-86614492D01*
X175472430Y-86614488D01*
X175305113Y-86482349D01*
X175305109Y-86482347D01*
X175301058Y-86479147D01*
X175268265Y-86461044D01*
X175234110Y-86442190D01*
X175105358Y-86371115D01*
X174937707Y-86311747D01*
X174899514Y-86298222D01*
X174899511Y-86298221D01*
X174894642Y-86296497D01*
X174889553Y-86295590D01*
X174889551Y-86295590D01*
X174679657Y-86258202D01*
X174679651Y-86258201D01*
X174674568Y-86257296D01*
X174588466Y-86256244D01*
X174456216Y-86254628D01*
X174456214Y-86254628D01*
X174451047Y-86254565D01*
X174230081Y-86288377D01*
X174113349Y-86326531D01*
X174022524Y-86356217D01*
X174022522Y-86356218D01*
X174017605Y-86357825D01*
X174013019Y-86360212D01*
X174013015Y-86360214D01*
X173875541Y-86431779D01*
X173819324Y-86461044D01*
X173814485Y-86464677D01*
X173654055Y-86585131D01*
X173640564Y-86595260D01*
X173486126Y-86756871D01*
X173483212Y-86761143D01*
X173483211Y-86761144D01*
X173429428Y-86839987D01*
X173360157Y-86941535D01*
X173346613Y-86970714D01*
X173269404Y-87137045D01*
X173266039Y-87144294D01*
X173206301Y-87359702D01*
X173182547Y-87581974D01*
X172407517Y-87581974D01*
X172391941Y-87392515D01*
X172340691Y-87188484D01*
X172338742Y-87180724D01*
X172338742Y-87180723D01*
X172337483Y-87175712D01*
X172264990Y-87008989D01*
X172250408Y-86975451D01*
X172250406Y-86975448D01*
X172248348Y-86970714D01*
X172143610Y-86808813D01*
X172129736Y-86787367D01*
X172129734Y-86787364D01*
X172126928Y-86783027D01*
X171976484Y-86617691D01*
X171972433Y-86614492D01*
X171972429Y-86614488D01*
X171805112Y-86482349D01*
X171805108Y-86482347D01*
X171801057Y-86479147D01*
X171768264Y-86461044D01*
X171734109Y-86442190D01*
X171605357Y-86371115D01*
X171437706Y-86311747D01*
X171399513Y-86298222D01*
X171399510Y-86298221D01*
X171394641Y-86296497D01*
X171389552Y-86295590D01*
X171389550Y-86295590D01*
X171179656Y-86258202D01*
X171179650Y-86258201D01*
X171174567Y-86257296D01*
X171088465Y-86256244D01*
X170956215Y-86254628D01*
X170956213Y-86254628D01*
X170951046Y-86254565D01*
X170730080Y-86288377D01*
X170613348Y-86326531D01*
X170522523Y-86356217D01*
X170522521Y-86356218D01*
X170517604Y-86357825D01*
X170513018Y-86360212D01*
X170513014Y-86360214D01*
X170375540Y-86431779D01*
X170319323Y-86461044D01*
X170314484Y-86464677D01*
X170154054Y-86585131D01*
X170140563Y-86595260D01*
X169986125Y-86756871D01*
X169983211Y-86761143D01*
X169983210Y-86761144D01*
X169929427Y-86839987D01*
X169860156Y-86941535D01*
X169846612Y-86970714D01*
X169769403Y-87137045D01*
X169766038Y-87144294D01*
X169706300Y-87359702D01*
X169682546Y-87581974D01*
X169682843Y-87587126D01*
X169682843Y-87587130D01*
X169686864Y-87656857D01*
X169695414Y-87805141D01*
X169696551Y-87810187D01*
X169696552Y-87810193D01*
X169744558Y-88023210D01*
X169742203Y-88023741D01*
X169743258Y-88084714D01*
X169710861Y-88140406D01*
X169583317Y-88267950D01*
X169574991Y-88275526D01*
X169568497Y-88279647D01*
X169563074Y-88285422D01*
X169521715Y-88329465D01*
X169518960Y-88332307D01*
X169499161Y-88352106D01*
X169496737Y-88355231D01*
X169496729Y-88355240D01*
X169496663Y-88355326D01*
X169488955Y-88364351D01*
X169458583Y-88396694D01*
X169454765Y-88403638D01*
X169454764Y-88403640D01*
X169448778Y-88414529D01*
X169437927Y-88431047D01*
X169425450Y-88447133D01*
X169407824Y-88487866D01*
X169402607Y-88498514D01*
X169381231Y-88537397D01*
X169379260Y-88545072D01*
X169379258Y-88545078D01*
X169376169Y-88557111D01*
X169369766Y-88575813D01*
X169361683Y-88594492D01*
X169357624Y-88620121D01*
X169354740Y-88638327D01*
X169352335Y-88649940D01*
X169341300Y-88692918D01*
X169341300Y-88713265D01*
X169339749Y-88732976D01*
X169336565Y-88753079D01*
X169337311Y-88760971D01*
X169340741Y-88797256D01*
X169341300Y-88809114D01*
X169341300Y-95446942D01*
X169321212Y-95515197D01*
X169293105Y-95558811D01*
X169290696Y-95565431D01*
X169290695Y-95565432D01*
X169237313Y-95712097D01*
X169234904Y-95718716D01*
X169213576Y-95887543D01*
X169213958Y-95891443D01*
X169193372Y-95958095D01*
X169139072Y-96003834D01*
X169088336Y-96014500D01*
X165088422Y-96014500D01*
X165020301Y-95994498D01*
X164973808Y-95940842D01*
X164963704Y-95870568D01*
X164993198Y-95805988D01*
X164999327Y-95799405D01*
X166416499Y-94382234D01*
X167893483Y-92905250D01*
X167901809Y-92897674D01*
X167908303Y-92893553D01*
X167955086Y-92843734D01*
X167957840Y-92840893D01*
X167977639Y-92821094D01*
X167980063Y-92817969D01*
X167980071Y-92817960D01*
X167980137Y-92817874D01*
X167987845Y-92808849D01*
X168012790Y-92782285D01*
X168018217Y-92776506D01*
X168028023Y-92758669D01*
X168038873Y-92742153D01*
X168051350Y-92726067D01*
X168068976Y-92685334D01*
X168074193Y-92674686D01*
X168087443Y-92650584D01*
X168095569Y-92635803D01*
X168097540Y-92628128D01*
X168097542Y-92628122D01*
X168100631Y-92616089D01*
X168107034Y-92597387D01*
X168115117Y-92578708D01*
X168122060Y-92534873D01*
X168124467Y-92523251D01*
X168129937Y-92501948D01*
X168135500Y-92480282D01*
X168135500Y-92459935D01*
X168137051Y-92440224D01*
X168138995Y-92427950D01*
X168140235Y-92420121D01*
X168136059Y-92375944D01*
X168135500Y-92364086D01*
X168135500Y-88919028D01*
X168155502Y-88850907D01*
X168206069Y-88805876D01*
X168240013Y-88789248D01*
X168240022Y-88789243D01*
X168244655Y-88786973D01*
X168334084Y-88723184D01*
X168422428Y-88660169D01*
X168422433Y-88660165D01*
X168426640Y-88657164D01*
X168584981Y-88499375D01*
X168715425Y-88317843D01*
X168731449Y-88285422D01*
X168812174Y-88122087D01*
X168812175Y-88122085D01*
X168814468Y-88117445D01*
X168879451Y-87903560D01*
X168908629Y-87681935D01*
X168909726Y-87637045D01*
X168910175Y-87618666D01*
X168910175Y-87618662D01*
X168910257Y-87615301D01*
X168891941Y-87392515D01*
X168840691Y-87188484D01*
X168838742Y-87180724D01*
X168838742Y-87180723D01*
X168837483Y-87175712D01*
X168764990Y-87008989D01*
X168750408Y-86975451D01*
X168750406Y-86975448D01*
X168748348Y-86970714D01*
X168643610Y-86808813D01*
X168629736Y-86787367D01*
X168629734Y-86787364D01*
X168626928Y-86783027D01*
X168476484Y-86617691D01*
X168472433Y-86614492D01*
X168472429Y-86614488D01*
X168305112Y-86482349D01*
X168305108Y-86482347D01*
X168301057Y-86479147D01*
X168268264Y-86461044D01*
X168234109Y-86442190D01*
X168105357Y-86371115D01*
X167937706Y-86311747D01*
X167899513Y-86298222D01*
X167899510Y-86298221D01*
X167894641Y-86296497D01*
X167889552Y-86295590D01*
X167889550Y-86295590D01*
X167679656Y-86258202D01*
X167679650Y-86258201D01*
X167674567Y-86257296D01*
X167588465Y-86256244D01*
X167456215Y-86254628D01*
X167456213Y-86254628D01*
X167451046Y-86254565D01*
X167230080Y-86288377D01*
X167113348Y-86326531D01*
X167022523Y-86356217D01*
X167022521Y-86356218D01*
X167017604Y-86357825D01*
X167013018Y-86360212D01*
X167013014Y-86360214D01*
X166875540Y-86431779D01*
X166819323Y-86461044D01*
X166814484Y-86464677D01*
X166654054Y-86585131D01*
X166640563Y-86595260D01*
X166486125Y-86756871D01*
X166483211Y-86761143D01*
X166483210Y-86761144D01*
X166429427Y-86839987D01*
X166360156Y-86941535D01*
X166346612Y-86970714D01*
X166269403Y-87137045D01*
X166266038Y-87144294D01*
X166206300Y-87359702D01*
X166182546Y-87581974D01*
X166182843Y-87587126D01*
X166182843Y-87587130D01*
X166186864Y-87656857D01*
X166195414Y-87805141D01*
X166196551Y-87810187D01*
X166196552Y-87810193D01*
X166227582Y-87947883D01*
X166244558Y-88023210D01*
X166291981Y-88140000D01*
X166325440Y-88222399D01*
X166328658Y-88230325D01*
X166331363Y-88234740D01*
X166331364Y-88234741D01*
X166359084Y-88279975D01*
X166445457Y-88420922D01*
X166591816Y-88589884D01*
X166595791Y-88593184D01*
X166595794Y-88593187D01*
X166759825Y-88729368D01*
X166763806Y-88732673D01*
X166768263Y-88735277D01*
X166768268Y-88735281D01*
X166802070Y-88755033D01*
X166850794Y-88806671D01*
X166864500Y-88863821D01*
X166864500Y-92084577D01*
X166844498Y-92152698D01*
X166827595Y-92173672D01*
X164287622Y-94713645D01*
X164225310Y-94747671D01*
X164156262Y-94743250D01*
X164130940Y-94734233D01*
X164130937Y-94734232D01*
X164124300Y-94731869D01*
X163955329Y-94711721D01*
X163948326Y-94712457D01*
X163948325Y-94712457D01*
X163793101Y-94728771D01*
X163793097Y-94728772D01*
X163786093Y-94729508D01*
X163779422Y-94731779D01*
X163631674Y-94782076D01*
X163631671Y-94782077D01*
X163625004Y-94784347D01*
X163619006Y-94788037D01*
X163619004Y-94788038D01*
X163552535Y-94828930D01*
X163480067Y-94873513D01*
X163475036Y-94878440D01*
X163475033Y-94878442D01*
X163419277Y-94933043D01*
X163358486Y-94992573D01*
X163266305Y-95135611D01*
X163263895Y-95142233D01*
X163260765Y-95148538D01*
X163258548Y-95147438D01*
X163223268Y-95195336D01*
X163156942Y-95220661D01*
X163087453Y-95206108D01*
X163057884Y-95184151D01*
X162997405Y-95123672D01*
X162963379Y-95061360D01*
X162960500Y-95034577D01*
X162960500Y-89615422D01*
X162980502Y-89547301D01*
X162997405Y-89526327D01*
X163562006Y-88961726D01*
X163624318Y-88927700D01*
X163676219Y-88927351D01*
X163884687Y-88969765D01*
X163889860Y-88969955D01*
X163889863Y-88969955D01*
X164102911Y-88977767D01*
X164102915Y-88977767D01*
X164108075Y-88977956D01*
X164113195Y-88977300D01*
X164113197Y-88977300D01*
X164324673Y-88950209D01*
X164324674Y-88950209D01*
X164329801Y-88949552D01*
X164357017Y-88941387D01*
X164538957Y-88886802D01*
X164543910Y-88885316D01*
X164548549Y-88883043D01*
X164548555Y-88883041D01*
X164730306Y-88794002D01*
X164744654Y-88786973D01*
X164834083Y-88723184D01*
X164922427Y-88660169D01*
X164922432Y-88660165D01*
X164926639Y-88657164D01*
X165084980Y-88499375D01*
X165215424Y-88317843D01*
X165231448Y-88285422D01*
X165312173Y-88122087D01*
X165312174Y-88122085D01*
X165314467Y-88117445D01*
X165379450Y-87903560D01*
X165408628Y-87681935D01*
X165409725Y-87637045D01*
X165410174Y-87618666D01*
X165410174Y-87618662D01*
X165410256Y-87615301D01*
X165391940Y-87392515D01*
X165340690Y-87188484D01*
X165338741Y-87180724D01*
X165338741Y-87180723D01*
X165337482Y-87175712D01*
X165264989Y-87008989D01*
X165250407Y-86975451D01*
X165250405Y-86975448D01*
X165248347Y-86970714D01*
X165143609Y-86808813D01*
X165129735Y-86787367D01*
X165129733Y-86787364D01*
X165126927Y-86783027D01*
X164976483Y-86617691D01*
X164972432Y-86614492D01*
X164972428Y-86614488D01*
X164805111Y-86482349D01*
X164805107Y-86482347D01*
X164801056Y-86479147D01*
X164768263Y-86461044D01*
X164734108Y-86442190D01*
X164605356Y-86371115D01*
X164437705Y-86311747D01*
X164399512Y-86298222D01*
X164399509Y-86298221D01*
X164394640Y-86296497D01*
X164389551Y-86295590D01*
X164389549Y-86295590D01*
X164179655Y-86258202D01*
X164179649Y-86258201D01*
X164174566Y-86257296D01*
X164088464Y-86256244D01*
X163956214Y-86254628D01*
X163956212Y-86254628D01*
X163951045Y-86254565D01*
X163730079Y-86288377D01*
X163613347Y-86326531D01*
X163522522Y-86356217D01*
X163522520Y-86356218D01*
X163517603Y-86357825D01*
X163513017Y-86360212D01*
X163513013Y-86360214D01*
X163375539Y-86431779D01*
X163319322Y-86461044D01*
X163314483Y-86464677D01*
X163154053Y-86585131D01*
X163140562Y-86595260D01*
X162986124Y-86756871D01*
X162983210Y-86761143D01*
X162983209Y-86761144D01*
X162929426Y-86839987D01*
X162860155Y-86941535D01*
X162846611Y-86970714D01*
X162769402Y-87137045D01*
X162766037Y-87144294D01*
X162706299Y-87359702D01*
X162682545Y-87581974D01*
X162682842Y-87587126D01*
X162682842Y-87587130D01*
X162686863Y-87656857D01*
X162695413Y-87805141D01*
X162696550Y-87810187D01*
X162696551Y-87810193D01*
X162711675Y-87877302D01*
X162721275Y-87919896D01*
X162721665Y-87921628D01*
X162717129Y-87992479D01*
X162687843Y-88038424D01*
X161931517Y-88794750D01*
X161923191Y-88802326D01*
X161916697Y-88806447D01*
X161895041Y-88829508D01*
X161869915Y-88856265D01*
X161867160Y-88859107D01*
X161847361Y-88878906D01*
X161844937Y-88882031D01*
X161844929Y-88882040D01*
X161844863Y-88882126D01*
X161837155Y-88891151D01*
X161806783Y-88923494D01*
X161797327Y-88940695D01*
X161796978Y-88941329D01*
X161786127Y-88957847D01*
X161773650Y-88973933D01*
X161756024Y-89014666D01*
X161750807Y-89025314D01*
X161747212Y-89031853D01*
X161729431Y-89064197D01*
X161727460Y-89071872D01*
X161727458Y-89071878D01*
X161724369Y-89083911D01*
X161717966Y-89102613D01*
X161709883Y-89121292D01*
X161704524Y-89155128D01*
X161702940Y-89165127D01*
X161700535Y-89176740D01*
X161689500Y-89219718D01*
X161689500Y-89240065D01*
X161687949Y-89259776D01*
X161684765Y-89279879D01*
X161685511Y-89287771D01*
X161688941Y-89324056D01*
X161689500Y-89335914D01*
X161689500Y-95270980D01*
X161688970Y-95282214D01*
X161687292Y-95289719D01*
X161688558Y-95330013D01*
X161689438Y-95358012D01*
X161689500Y-95361969D01*
X161689500Y-95389983D01*
X161689996Y-95393908D01*
X161689996Y-95393909D01*
X161690008Y-95394004D01*
X161690941Y-95405849D01*
X161692335Y-95450205D01*
X161694547Y-95457817D01*
X161698013Y-95469748D01*
X161702023Y-95489112D01*
X161703211Y-95498513D01*
X161704573Y-95509299D01*
X161707489Y-95516663D01*
X161707490Y-95516668D01*
X161720907Y-95550556D01*
X161724752Y-95561785D01*
X161737131Y-95604393D01*
X161741169Y-95611220D01*
X161741170Y-95611223D01*
X161747488Y-95621906D01*
X161756188Y-95639664D01*
X161760761Y-95651215D01*
X161760765Y-95651221D01*
X161763681Y-95658588D01*
X161768339Y-95664999D01*
X161768340Y-95665001D01*
X161789764Y-95694488D01*
X161796281Y-95704410D01*
X161814826Y-95735768D01*
X161814829Y-95735772D01*
X161818866Y-95742598D01*
X161833250Y-95756982D01*
X161846091Y-95772016D01*
X161858058Y-95788487D01*
X161864166Y-95793540D01*
X161892255Y-95816777D01*
X161901035Y-95824767D01*
X163119750Y-97043483D01*
X163127326Y-97051809D01*
X163131447Y-97058303D01*
X163137222Y-97063726D01*
X163181265Y-97105085D01*
X163184107Y-97107840D01*
X163200672Y-97124405D01*
X163234698Y-97186717D01*
X163229633Y-97257532D01*
X163187086Y-97314368D01*
X163120566Y-97339179D01*
X163111577Y-97339500D01*
X158965423Y-97339500D01*
X158897302Y-97319498D01*
X158876328Y-97302595D01*
X157976346Y-96402613D01*
X157942320Y-96340301D01*
X157940435Y-96297728D01*
X157946020Y-96253520D01*
X157946418Y-96225000D01*
X157926965Y-96026606D01*
X157925184Y-96020707D01*
X157925183Y-96020702D01*
X157871129Y-95841667D01*
X157869348Y-95835768D01*
X157796229Y-95698251D01*
X157778655Y-95665198D01*
X157778653Y-95665195D01*
X157775761Y-95659756D01*
X157771871Y-95654986D01*
X157771868Y-95654982D01*
X157653663Y-95510049D01*
X157653660Y-95510046D01*
X157649768Y-95505274D01*
X157641596Y-95498513D01*
X157533813Y-95409347D01*
X157496170Y-95378206D01*
X157320815Y-95283392D01*
X157292775Y-95274712D01*
X157233618Y-95235463D01*
X157205069Y-95170459D01*
X157216197Y-95100340D01*
X157263467Y-95047368D01*
X157276784Y-95040154D01*
X157283653Y-95036951D01*
X157293154Y-95031465D01*
X157350600Y-94991241D01*
X157358975Y-94980764D01*
X157351907Y-94967317D01*
X156632412Y-94247822D01*
X156618468Y-94240208D01*
X156616635Y-94240339D01*
X156610020Y-94244590D01*
X155886572Y-94968038D01*
X155880142Y-94979813D01*
X155889438Y-94991828D01*
X155946046Y-95031465D01*
X155955541Y-95036948D01*
X156156964Y-95130872D01*
X156167253Y-95134617D01*
X156296079Y-95169136D01*
X156356701Y-95206088D01*
X156387723Y-95269949D01*
X156379294Y-95340443D01*
X156342420Y-95389039D01*
X156210351Y-95495225D01*
X156082214Y-95647933D01*
X155986179Y-95822621D01*
X155984318Y-95828488D01*
X155984317Y-95828490D01*
X155967803Y-95880548D01*
X155925902Y-96012635D01*
X155903682Y-96210739D01*
X155920362Y-96409386D01*
X155975310Y-96601009D01*
X156066430Y-96778311D01*
X156190253Y-96934537D01*
X156342063Y-97063737D01*
X156347441Y-97066743D01*
X156347443Y-97066744D01*
X156416047Y-97105085D01*
X156516076Y-97160989D01*
X156521935Y-97162893D01*
X156521938Y-97162894D01*
X156563379Y-97176359D01*
X156705665Y-97222591D01*
X156711775Y-97223320D01*
X156711777Y-97223320D01*
X156804637Y-97234393D01*
X156903609Y-97246194D01*
X156909744Y-97245722D01*
X156909746Y-97245722D01*
X156935704Y-97243724D01*
X156956189Y-97242148D01*
X157025642Y-97256865D01*
X157054950Y-97278682D01*
X157605957Y-97829690D01*
X158144750Y-98368483D01*
X158152326Y-98376809D01*
X158156447Y-98383303D01*
X158162222Y-98388726D01*
X158206265Y-98430085D01*
X158209107Y-98432840D01*
X158228906Y-98452639D01*
X158232031Y-98455063D01*
X158232040Y-98455071D01*
X158232126Y-98455137D01*
X158241151Y-98462845D01*
X158273494Y-98493217D01*
X158280438Y-98497035D01*
X158280440Y-98497036D01*
X158291329Y-98503022D01*
X158307847Y-98513873D01*
X158323933Y-98526350D01*
X158364666Y-98543976D01*
X158375314Y-98549193D01*
X158386942Y-98555585D01*
X158414197Y-98570569D01*
X158421872Y-98572540D01*
X158421878Y-98572542D01*
X158433911Y-98575631D01*
X158452613Y-98582034D01*
X158471292Y-98590117D01*
X158505128Y-98595476D01*
X158515127Y-98597060D01*
X158526740Y-98599465D01*
X158569718Y-98610500D01*
X158590065Y-98610500D01*
X158609777Y-98612051D01*
X158629879Y-98615235D01*
X158637771Y-98614489D01*
X158674056Y-98611059D01*
X158685914Y-98610500D01*
X166848281Y-98610500D01*
X166917274Y-98631068D01*
X166949948Y-98652450D01*
X166949952Y-98652452D01*
X166955846Y-98656309D01*
X167115342Y-98715625D01*
X167122323Y-98716556D01*
X167122325Y-98716557D01*
X167168426Y-98722708D01*
X167284015Y-98738131D01*
X167291026Y-98737493D01*
X167291030Y-98737493D01*
X167446461Y-98723347D01*
X167453482Y-98722708D01*
X167460184Y-98720530D01*
X167460186Y-98720530D01*
X167608623Y-98672300D01*
X167608626Y-98672299D01*
X167615322Y-98670123D01*
X167687067Y-98627354D01*
X167755434Y-98586600D01*
X167755437Y-98586598D01*
X167761489Y-98582990D01*
X167884720Y-98465638D01*
X167889279Y-98458777D01*
X167966315Y-98342829D01*
X167978890Y-98323902D01*
X167988551Y-98298470D01*
X168036817Y-98171409D01*
X168036818Y-98171406D01*
X168039318Y-98164824D01*
X168063000Y-97996313D01*
X168063298Y-97975000D01*
X168048068Y-97839215D01*
X168045115Y-97812888D01*
X168045114Y-97812885D01*
X168044330Y-97805892D01*
X167988367Y-97645190D01*
X167959395Y-97598824D01*
X167901925Y-97506853D01*
X167898192Y-97500879D01*
X167893229Y-97495881D01*
X167888852Y-97490359D01*
X167891216Y-97488486D01*
X167863797Y-97437868D01*
X167869101Y-97367070D01*
X167911839Y-97310378D01*
X167978442Y-97285791D01*
X167987007Y-97285500D01*
X169686577Y-97285500D01*
X169754698Y-97305502D01*
X169801191Y-97359158D01*
X169811295Y-97429432D01*
X169781801Y-97494012D01*
X169775672Y-97500595D01*
X168211172Y-99065095D01*
X168148860Y-99099121D01*
X168122077Y-99102000D01*
X164413365Y-99102000D01*
X164345850Y-99082385D01*
X164297108Y-99051452D01*
X164136800Y-98994369D01*
X163967829Y-98974221D01*
X163960826Y-98974957D01*
X163960825Y-98974957D01*
X163805601Y-98991271D01*
X163805597Y-98991272D01*
X163798593Y-98992008D01*
X163791922Y-98994279D01*
X163644174Y-99044576D01*
X163644171Y-99044577D01*
X163637504Y-99046847D01*
X163631506Y-99050537D01*
X163631504Y-99050538D01*
X163579738Y-99082385D01*
X163492567Y-99136013D01*
X163487536Y-99140940D01*
X163487533Y-99140942D01*
X163484277Y-99144131D01*
X163370986Y-99255073D01*
X163278805Y-99398111D01*
X163276396Y-99404731D01*
X163276395Y-99404732D01*
X163224287Y-99547897D01*
X163220604Y-99558016D01*
X163199276Y-99726843D01*
X163215882Y-99896199D01*
X163218106Y-99902884D01*
X163218106Y-99902885D01*
X163225537Y-99925223D01*
X163269595Y-100057667D01*
X163357747Y-100203223D01*
X163475956Y-100325631D01*
X163618346Y-100418809D01*
X163777842Y-100478125D01*
X163784823Y-100479056D01*
X163784825Y-100479057D01*
X163830926Y-100485208D01*
X163946515Y-100500631D01*
X163953526Y-100499993D01*
X163953530Y-100499993D01*
X164108961Y-100485847D01*
X164115982Y-100485208D01*
X164122684Y-100483030D01*
X164122686Y-100483030D01*
X164271123Y-100434800D01*
X164271126Y-100434799D01*
X164277822Y-100432623D01*
X164289744Y-100425516D01*
X164348030Y-100390771D01*
X164412547Y-100373000D01*
X168358480Y-100373000D01*
X168369714Y-100373530D01*
X168377219Y-100375208D01*
X168445512Y-100373062D01*
X168449469Y-100373000D01*
X168477483Y-100373000D01*
X168481408Y-100372504D01*
X168481409Y-100372504D01*
X168481504Y-100372492D01*
X168493349Y-100371559D01*
X168523170Y-100370622D01*
X168529782Y-100370414D01*
X168529783Y-100370414D01*
X168537705Y-100370165D01*
X168557249Y-100364487D01*
X168576612Y-100360477D01*
X168588940Y-100358920D01*
X168588942Y-100358920D01*
X168596799Y-100357927D01*
X168604163Y-100355011D01*
X168604168Y-100355010D01*
X168638056Y-100341593D01*
X168649285Y-100337748D01*
X168665965Y-100332902D01*
X168691893Y-100325369D01*
X168698720Y-100321331D01*
X168698723Y-100321330D01*
X168709406Y-100315012D01*
X168727164Y-100306312D01*
X168738715Y-100301739D01*
X168738721Y-100301735D01*
X168746088Y-100298819D01*
X168781991Y-100272734D01*
X168791910Y-100266219D01*
X168823268Y-100247674D01*
X168823272Y-100247671D01*
X168830098Y-100243634D01*
X168844482Y-100229250D01*
X168859516Y-100216409D01*
X168869573Y-100209102D01*
X168875987Y-100204442D01*
X168904278Y-100170244D01*
X168912267Y-100161465D01*
X171826327Y-97247405D01*
X171888639Y-97213379D01*
X171915422Y-97210500D01*
X173034489Y-97210500D01*
X173102610Y-97230502D01*
X173149103Y-97284158D01*
X173158325Y-97330015D01*
X173159765Y-97329879D01*
X173163941Y-97374056D01*
X173164500Y-97385914D01*
X173164500Y-97723742D01*
X173144412Y-97791997D01*
X173116305Y-97835611D01*
X173113896Y-97842231D01*
X173113895Y-97842232D01*
X173062028Y-97984735D01*
X173058104Y-97995516D01*
X173036776Y-98164343D01*
X173053382Y-98333699D01*
X173107095Y-98495167D01*
X173110742Y-98501189D01*
X173110743Y-98501191D01*
X173138082Y-98546333D01*
X173195247Y-98640723D01*
X173200143Y-98645793D01*
X173219307Y-98665638D01*
X173313456Y-98763131D01*
X173455846Y-98856309D01*
X173615342Y-98915625D01*
X173622323Y-98916556D01*
X173622325Y-98916557D01*
X173668426Y-98922708D01*
X173784015Y-98938131D01*
X173791026Y-98937493D01*
X173791030Y-98937493D01*
X173946461Y-98923347D01*
X173953482Y-98922708D01*
X173960184Y-98920530D01*
X173960186Y-98920530D01*
X174108623Y-98872300D01*
X174108626Y-98872299D01*
X174115322Y-98870123D01*
X174187067Y-98827354D01*
X174255434Y-98786600D01*
X174255437Y-98786598D01*
X174261489Y-98782990D01*
X174384720Y-98665638D01*
X174389287Y-98658765D01*
X174460669Y-98551327D01*
X174478890Y-98523902D01*
X174487517Y-98501191D01*
X174536817Y-98371409D01*
X174536818Y-98371406D01*
X174539318Y-98364824D01*
X174563000Y-98196313D01*
X174563298Y-98175000D01*
X174553072Y-98083830D01*
X174545115Y-98012888D01*
X174545114Y-98012885D01*
X174544330Y-98005892D01*
X174488367Y-97845190D01*
X174454646Y-97791225D01*
X174435500Y-97724455D01*
X174435500Y-97665423D01*
X174455502Y-97597302D01*
X174472406Y-97576327D01*
X174517321Y-97531413D01*
X174579633Y-97497388D01*
X174650449Y-97502454D01*
X174675408Y-97515077D01*
X174788846Y-97589309D01*
X174948342Y-97648625D01*
X174955323Y-97649556D01*
X174955325Y-97649557D01*
X175001426Y-97655708D01*
X175117015Y-97671131D01*
X175124026Y-97670493D01*
X175124030Y-97670493D01*
X175279461Y-97656347D01*
X175286482Y-97655708D01*
X175293184Y-97653530D01*
X175293186Y-97653530D01*
X175441623Y-97605300D01*
X175441626Y-97605299D01*
X175448322Y-97603123D01*
X175454373Y-97599516D01*
X175518530Y-97561271D01*
X175583047Y-97543500D01*
X181478577Y-97543500D01*
X181546698Y-97563502D01*
X181593191Y-97617158D01*
X181603295Y-97687432D01*
X181573801Y-97752012D01*
X181567672Y-97758595D01*
X181027797Y-98298470D01*
X180979308Y-98328653D01*
X180964484Y-98333699D01*
X180836473Y-98377277D01*
X180836470Y-98377278D01*
X180829803Y-98379548D01*
X180823805Y-98383238D01*
X180823803Y-98383239D01*
X180770823Y-98415833D01*
X180684866Y-98468714D01*
X180679835Y-98473641D01*
X180679832Y-98473643D01*
X180629729Y-98522708D01*
X180563285Y-98587774D01*
X180471104Y-98730812D01*
X180468695Y-98737432D01*
X180468694Y-98737433D01*
X180424533Y-98858765D01*
X180412903Y-98890717D01*
X180391575Y-99059544D01*
X180408181Y-99228900D01*
X180410405Y-99235585D01*
X180410405Y-99235586D01*
X180420726Y-99266611D01*
X180461894Y-99390368D01*
X180465541Y-99396390D01*
X180465542Y-99396392D01*
X180480373Y-99420881D01*
X180550046Y-99535924D01*
X180554942Y-99540994D01*
X180571380Y-99558016D01*
X180668255Y-99658332D01*
X180810645Y-99751510D01*
X180970141Y-99810826D01*
X180977122Y-99811757D01*
X180977124Y-99811758D01*
X181023225Y-99817909D01*
X181138814Y-99833332D01*
X181145825Y-99832694D01*
X181145829Y-99832694D01*
X181301260Y-99818548D01*
X181308281Y-99817909D01*
X181314983Y-99815731D01*
X181314985Y-99815731D01*
X181463422Y-99767501D01*
X181463425Y-99767500D01*
X181470121Y-99765324D01*
X181556391Y-99713897D01*
X181610233Y-99681801D01*
X181610236Y-99681799D01*
X181616288Y-99678191D01*
X181739519Y-99560839D01*
X181743605Y-99554690D01*
X181829794Y-99424965D01*
X181833689Y-99419103D01*
X181894117Y-99260025D01*
X181895042Y-99253440D01*
X181927906Y-99195827D01*
X182951328Y-98172405D01*
X183013640Y-98138379D01*
X183040423Y-98135500D01*
X189161982Y-98135500D01*
X189173216Y-98136030D01*
X189180721Y-98137708D01*
X189249014Y-98135562D01*
X189252971Y-98135500D01*
X189280985Y-98135500D01*
X189284910Y-98135004D01*
X189284911Y-98135004D01*
X189285006Y-98134992D01*
X189296851Y-98134059D01*
X189326672Y-98133122D01*
X189333284Y-98132914D01*
X189333285Y-98132914D01*
X189341207Y-98132665D01*
X189360751Y-98126987D01*
X189380114Y-98122977D01*
X189392442Y-98121420D01*
X189392444Y-98121420D01*
X189400301Y-98120427D01*
X189407665Y-98117511D01*
X189407670Y-98117510D01*
X189441558Y-98104093D01*
X189452787Y-98100248D01*
X189470275Y-98095167D01*
X189495395Y-98087869D01*
X189502222Y-98083831D01*
X189502225Y-98083830D01*
X189512908Y-98077512D01*
X189530666Y-98068812D01*
X189542217Y-98064239D01*
X189542223Y-98064235D01*
X189549590Y-98061319D01*
X189585493Y-98035234D01*
X189595403Y-98028724D01*
X189619419Y-98014521D01*
X189688234Y-97997062D01*
X189755566Y-98019579D01*
X189800035Y-98074924D01*
X189803113Y-98083197D01*
X189807095Y-98095167D01*
X189810742Y-98101189D01*
X189810743Y-98101191D01*
X189868703Y-98196893D01*
X189895247Y-98240723D01*
X190013456Y-98363131D01*
X190155846Y-98456309D01*
X190315342Y-98515625D01*
X190322323Y-98516556D01*
X190322325Y-98516557D01*
X190368426Y-98522708D01*
X190484015Y-98538131D01*
X190491026Y-98537493D01*
X190491030Y-98537493D01*
X190646461Y-98523347D01*
X190653482Y-98522708D01*
X190660184Y-98520530D01*
X190660186Y-98520530D01*
X190808623Y-98472300D01*
X190808626Y-98472299D01*
X190815322Y-98470123D01*
X190914082Y-98411250D01*
X190982834Y-98393551D01*
X191050244Y-98415833D01*
X191094906Y-98471022D01*
X191102641Y-98541596D01*
X191067692Y-98608575D01*
X189023672Y-100652595D01*
X188961360Y-100686621D01*
X188934577Y-100689500D01*
X177575865Y-100689500D01*
X177508350Y-100669885D01*
X177500057Y-100664622D01*
X177459608Y-100638952D01*
X177299300Y-100581869D01*
X177130329Y-100561721D01*
X177123326Y-100562457D01*
X177123325Y-100562457D01*
X176961093Y-100579508D01*
X176960902Y-100577692D01*
X176899278Y-100573419D01*
X176842350Y-100530995D01*
X176817396Y-100464529D01*
X176832337Y-100395122D01*
X176838107Y-100385540D01*
X176846067Y-100373560D01*
X176928890Y-100248902D01*
X176939020Y-100222235D01*
X176986817Y-100096409D01*
X176986818Y-100096406D01*
X176989318Y-100089824D01*
X177013000Y-99921313D01*
X177013298Y-99900000D01*
X176998192Y-99765324D01*
X176995115Y-99737888D01*
X176995114Y-99737885D01*
X176994330Y-99730892D01*
X176938367Y-99570190D01*
X176932382Y-99560611D01*
X176851925Y-99431853D01*
X176848192Y-99425879D01*
X176788239Y-99365506D01*
X176733249Y-99310131D01*
X176733245Y-99310128D01*
X176728285Y-99305133D01*
X176584608Y-99213952D01*
X176424300Y-99156869D01*
X176255329Y-99136721D01*
X176248326Y-99137457D01*
X176248325Y-99137457D01*
X176093101Y-99153771D01*
X176093097Y-99153772D01*
X176086093Y-99154508D01*
X176079422Y-99156779D01*
X175931674Y-99207076D01*
X175931671Y-99207077D01*
X175925004Y-99209347D01*
X175919006Y-99213037D01*
X175919004Y-99213038D01*
X175893221Y-99228900D01*
X175780067Y-99298513D01*
X175775036Y-99303440D01*
X175775033Y-99303442D01*
X175719276Y-99358043D01*
X175658486Y-99417573D01*
X175566305Y-99560611D01*
X175563896Y-99567231D01*
X175563895Y-99567232D01*
X175562200Y-99571888D01*
X175508104Y-99720516D01*
X175486776Y-99889343D01*
X175503382Y-100058699D01*
X175557095Y-100220167D01*
X175560742Y-100226189D01*
X175560743Y-100226191D01*
X175588932Y-100272736D01*
X175645247Y-100365723D01*
X175650143Y-100370793D01*
X175689404Y-100411449D01*
X175763456Y-100488131D01*
X175905846Y-100581309D01*
X176065342Y-100640625D01*
X176072323Y-100641556D01*
X176072325Y-100641557D01*
X176118426Y-100647708D01*
X176234015Y-100663131D01*
X176241026Y-100662493D01*
X176241030Y-100662493D01*
X176396463Y-100648347D01*
X176396465Y-100648347D01*
X176403482Y-100647708D01*
X176407151Y-100646516D01*
X176476645Y-100652308D01*
X176532977Y-100695520D01*
X176557004Y-100762327D01*
X176541098Y-100831519D01*
X176533740Y-100842324D01*
X176533486Y-100842573D01*
X176441305Y-100985611D01*
X176438896Y-100992231D01*
X176438895Y-100992232D01*
X176392322Y-101120190D01*
X176383104Y-101145516D01*
X176361776Y-101314343D01*
X176378382Y-101483699D01*
X176432095Y-101645167D01*
X176435742Y-101651189D01*
X176435743Y-101651191D01*
X176484868Y-101732306D01*
X176520247Y-101790723D01*
X176638456Y-101913131D01*
X176780846Y-102006309D01*
X176940342Y-102065625D01*
X176947323Y-102066556D01*
X176947325Y-102066557D01*
X176993426Y-102072708D01*
X177109015Y-102088131D01*
X177116026Y-102087493D01*
X177116030Y-102087493D01*
X177271461Y-102073347D01*
X177278482Y-102072708D01*
X177285184Y-102070530D01*
X177285186Y-102070530D01*
X177433623Y-102022300D01*
X177433626Y-102022299D01*
X177440322Y-102020123D01*
X177446373Y-102016516D01*
X177510530Y-101978271D01*
X177575047Y-101960500D01*
X189170980Y-101960500D01*
X189182214Y-101961030D01*
X189189719Y-101962708D01*
X189258012Y-101960562D01*
X189261969Y-101960500D01*
X189289983Y-101960500D01*
X189293908Y-101960004D01*
X189293909Y-101960004D01*
X189294004Y-101959992D01*
X189305849Y-101959059D01*
X189335670Y-101958122D01*
X189342282Y-101957914D01*
X189342283Y-101957914D01*
X189350205Y-101957665D01*
X189369749Y-101951987D01*
X189389112Y-101947977D01*
X189401440Y-101946420D01*
X189401442Y-101946420D01*
X189409299Y-101945427D01*
X189416663Y-101942511D01*
X189416668Y-101942510D01*
X189450556Y-101929093D01*
X189461785Y-101925248D01*
X189478465Y-101920402D01*
X189504393Y-101912869D01*
X189511220Y-101908831D01*
X189511223Y-101908830D01*
X189521906Y-101902512D01*
X189539664Y-101893812D01*
X189551215Y-101889239D01*
X189551221Y-101889235D01*
X189558588Y-101886319D01*
X189565359Y-101881400D01*
X189594488Y-101860236D01*
X189604410Y-101853719D01*
X189635768Y-101835174D01*
X189635772Y-101835171D01*
X189642598Y-101831134D01*
X189656982Y-101816750D01*
X189672016Y-101803909D01*
X189682073Y-101796602D01*
X189688487Y-101791942D01*
X189716778Y-101757744D01*
X189724767Y-101748965D01*
X190034389Y-101439343D01*
X195211776Y-101439343D01*
X195228382Y-101608699D01*
X195230606Y-101615384D01*
X195230606Y-101615385D01*
X195236416Y-101632850D01*
X195282095Y-101770167D01*
X195285742Y-101776189D01*
X195285743Y-101776191D01*
X195342753Y-101870325D01*
X195370247Y-101915723D01*
X195375143Y-101920793D01*
X195394307Y-101940638D01*
X195488456Y-102038131D01*
X195630846Y-102131309D01*
X195790342Y-102190625D01*
X195797323Y-102191556D01*
X195797325Y-102191557D01*
X195843426Y-102197708D01*
X195959015Y-102213131D01*
X195966026Y-102212493D01*
X195966030Y-102212493D01*
X196121461Y-102198347D01*
X196128482Y-102197708D01*
X196135184Y-102195530D01*
X196135186Y-102195530D01*
X196283623Y-102147300D01*
X196283626Y-102147299D01*
X196290322Y-102145123D01*
X196386734Y-102087650D01*
X196430434Y-102061600D01*
X196430437Y-102061598D01*
X196436489Y-102057990D01*
X196559720Y-101940638D01*
X196569371Y-101926113D01*
X196636203Y-101825523D01*
X196653890Y-101798902D01*
X196662517Y-101776191D01*
X196711817Y-101646409D01*
X196711818Y-101646406D01*
X196714318Y-101639824D01*
X196738000Y-101471313D01*
X196738117Y-101462964D01*
X196738243Y-101453961D01*
X196738243Y-101453955D01*
X196738298Y-101450000D01*
X196723082Y-101314343D01*
X196720115Y-101287888D01*
X196720114Y-101287885D01*
X196719330Y-101280892D01*
X196711756Y-101259143D01*
X224433176Y-101259143D01*
X224449782Y-101428499D01*
X224452006Y-101435184D01*
X224452006Y-101435185D01*
X224470369Y-101490385D01*
X224503495Y-101589967D01*
X224507142Y-101595989D01*
X224507143Y-101595991D01*
X224540574Y-101651191D01*
X224591647Y-101735523D01*
X224596543Y-101740593D01*
X224613107Y-101757745D01*
X224709856Y-101857931D01*
X224852246Y-101951109D01*
X225011742Y-102010425D01*
X225018723Y-102011356D01*
X225018725Y-102011357D01*
X225057391Y-102016516D01*
X225180415Y-102032931D01*
X225187426Y-102032293D01*
X225187430Y-102032293D01*
X225342861Y-102018147D01*
X225349882Y-102017508D01*
X225356584Y-102015330D01*
X225356586Y-102015330D01*
X225505023Y-101967100D01*
X225505026Y-101967099D01*
X225511722Y-101964923D01*
X225598604Y-101913131D01*
X225651834Y-101881400D01*
X225651837Y-101881398D01*
X225657889Y-101877790D01*
X225781120Y-101760438D01*
X225797562Y-101735692D01*
X225856881Y-101646409D01*
X225875290Y-101618702D01*
X225883917Y-101595991D01*
X225933217Y-101466209D01*
X225933218Y-101466206D01*
X225935718Y-101459624D01*
X225959400Y-101291113D01*
X225959698Y-101269800D01*
X225947835Y-101164034D01*
X225941515Y-101107688D01*
X225941514Y-101107685D01*
X225940730Y-101100692D01*
X225884767Y-100939990D01*
X225878782Y-100930411D01*
X225798325Y-100801653D01*
X225794592Y-100795679D01*
X225734639Y-100735306D01*
X225679649Y-100679931D01*
X225679645Y-100679928D01*
X225674685Y-100674933D01*
X225531008Y-100583752D01*
X225370700Y-100526669D01*
X225201729Y-100506521D01*
X225194726Y-100507257D01*
X225194725Y-100507257D01*
X225039501Y-100523571D01*
X225039497Y-100523572D01*
X225032493Y-100524308D01*
X225025822Y-100526579D01*
X224878074Y-100576876D01*
X224878071Y-100576877D01*
X224871404Y-100579147D01*
X224865406Y-100582837D01*
X224865404Y-100582838D01*
X224863135Y-100584234D01*
X224726467Y-100668313D01*
X224721436Y-100673240D01*
X224721433Y-100673242D01*
X224670098Y-100723513D01*
X224604886Y-100787373D01*
X224512705Y-100930411D01*
X224510296Y-100937031D01*
X224510295Y-100937032D01*
X224492614Y-100985611D01*
X224454504Y-101090316D01*
X224433176Y-101259143D01*
X196711756Y-101259143D01*
X196663367Y-101120190D01*
X196657382Y-101110611D01*
X196576925Y-100981853D01*
X196573192Y-100975879D01*
X196513238Y-100915506D01*
X196458249Y-100860131D01*
X196458245Y-100860128D01*
X196453285Y-100855133D01*
X196309608Y-100763952D01*
X196149300Y-100706869D01*
X195980329Y-100686721D01*
X195973326Y-100687457D01*
X195973325Y-100687457D01*
X195818101Y-100703771D01*
X195818097Y-100703772D01*
X195811093Y-100704508D01*
X195804422Y-100706779D01*
X195656674Y-100757076D01*
X195656671Y-100757077D01*
X195650004Y-100759347D01*
X195644006Y-100763037D01*
X195644004Y-100763038D01*
X195636379Y-100767729D01*
X195505067Y-100848513D01*
X195500036Y-100853440D01*
X195500033Y-100853442D01*
X195444276Y-100908043D01*
X195383486Y-100967573D01*
X195291305Y-101110611D01*
X195288896Y-101117231D01*
X195288895Y-101117232D01*
X195254447Y-101211876D01*
X195233104Y-101270516D01*
X195211776Y-101439343D01*
X190034389Y-101439343D01*
X191750389Y-99723343D01*
X207503176Y-99723343D01*
X207519782Y-99892699D01*
X207522006Y-99899384D01*
X207522006Y-99899385D01*
X207530136Y-99923824D01*
X207573495Y-100054167D01*
X207577142Y-100060189D01*
X207577143Y-100060191D01*
X207599078Y-100096409D01*
X207661647Y-100199723D01*
X207666543Y-100204793D01*
X207681390Y-100220167D01*
X207779856Y-100322131D01*
X207922246Y-100415309D01*
X208081742Y-100474625D01*
X208088723Y-100475556D01*
X208088725Y-100475557D01*
X208134826Y-100481708D01*
X208250415Y-100497131D01*
X208257426Y-100496493D01*
X208257430Y-100496493D01*
X208412861Y-100482347D01*
X208419882Y-100481708D01*
X208426584Y-100479530D01*
X208426586Y-100479530D01*
X208575023Y-100431300D01*
X208575026Y-100431299D01*
X208581722Y-100429123D01*
X208654833Y-100385540D01*
X208721834Y-100345600D01*
X208721837Y-100345598D01*
X208727889Y-100341990D01*
X208851120Y-100224638D01*
X208855507Y-100218036D01*
X208941395Y-100088764D01*
X208945290Y-100082902D01*
X208954876Y-100057667D01*
X209003217Y-99930409D01*
X209003218Y-99930406D01*
X209005718Y-99923824D01*
X209029400Y-99755313D01*
X209029698Y-99734000D01*
X209010730Y-99564892D01*
X208954767Y-99404190D01*
X208950969Y-99398111D01*
X208868325Y-99265853D01*
X208864592Y-99259879D01*
X208800985Y-99195827D01*
X208749649Y-99144131D01*
X208749645Y-99144128D01*
X208744685Y-99139133D01*
X208601008Y-99047952D01*
X208440700Y-98990869D01*
X208271729Y-98970721D01*
X208264726Y-98971457D01*
X208264725Y-98971457D01*
X208109501Y-98987771D01*
X208109497Y-98987772D01*
X208102493Y-98988508D01*
X208095822Y-98990779D01*
X207948074Y-99041076D01*
X207948071Y-99041077D01*
X207941404Y-99043347D01*
X207935406Y-99047037D01*
X207935404Y-99047038D01*
X207922090Y-99055229D01*
X207796467Y-99132513D01*
X207791436Y-99137440D01*
X207791433Y-99137442D01*
X207774006Y-99154508D01*
X207674886Y-99251573D01*
X207582705Y-99394611D01*
X207580296Y-99401231D01*
X207580295Y-99401232D01*
X207573143Y-99420881D01*
X207524504Y-99554516D01*
X207503176Y-99723343D01*
X191750389Y-99723343D01*
X195393483Y-96080250D01*
X195401809Y-96072674D01*
X195408303Y-96068553D01*
X195455086Y-96018734D01*
X195457840Y-96015893D01*
X195477639Y-95996094D01*
X195480063Y-95992969D01*
X195480071Y-95992960D01*
X195480137Y-95992874D01*
X195487845Y-95983849D01*
X195510489Y-95959735D01*
X195518217Y-95951506D01*
X195528023Y-95933669D01*
X195538873Y-95917153D01*
X195551350Y-95901067D01*
X195568976Y-95860334D01*
X195574193Y-95849686D01*
X195591749Y-95817751D01*
X195595569Y-95810803D01*
X195597540Y-95803128D01*
X195597542Y-95803122D01*
X195600631Y-95791089D01*
X195607034Y-95772387D01*
X195615117Y-95753708D01*
X195622060Y-95709873D01*
X195624467Y-95698251D01*
X195635500Y-95655282D01*
X195635500Y-95634935D01*
X195637051Y-95615224D01*
X195638995Y-95602950D01*
X195640235Y-95595121D01*
X195636059Y-95550944D01*
X195635500Y-95539086D01*
X195635500Y-93522860D01*
X195655502Y-93454739D01*
X195709158Y-93408246D01*
X195779432Y-93398142D01*
X195805420Y-93404762D01*
X195922140Y-93448170D01*
X195922142Y-93448171D01*
X195928742Y-93450625D01*
X195930896Y-93450912D01*
X195987743Y-93483075D01*
X197768635Y-95263968D01*
X199545150Y-97040483D01*
X199552726Y-97048809D01*
X199556847Y-97055303D01*
X199575510Y-97072829D01*
X199606665Y-97102085D01*
X199609507Y-97104840D01*
X199629306Y-97124639D01*
X199632431Y-97127063D01*
X199632440Y-97127071D01*
X199632526Y-97127137D01*
X199641551Y-97134845D01*
X199673894Y-97165217D01*
X199680838Y-97169035D01*
X199680840Y-97169036D01*
X199691729Y-97175022D01*
X199708247Y-97185873D01*
X199724333Y-97198350D01*
X199765066Y-97215976D01*
X199775714Y-97221193D01*
X199814597Y-97242569D01*
X199822272Y-97244540D01*
X199822278Y-97244542D01*
X199834311Y-97247631D01*
X199853013Y-97254034D01*
X199871692Y-97262117D01*
X199905528Y-97267476D01*
X199915527Y-97269060D01*
X199927140Y-97271465D01*
X199970118Y-97282500D01*
X199990465Y-97282500D01*
X200010177Y-97284051D01*
X200030279Y-97287235D01*
X200038171Y-97286489D01*
X200074456Y-97283059D01*
X200086314Y-97282500D01*
X214808207Y-97282500D01*
X214876328Y-97302502D01*
X214922821Y-97356158D01*
X214931727Y-97398524D01*
X214933576Y-97398343D01*
X214950182Y-97567699D01*
X214952406Y-97574384D01*
X214952406Y-97574385D01*
X214961966Y-97603123D01*
X215003895Y-97729167D01*
X215007542Y-97735189D01*
X215007543Y-97735191D01*
X215041479Y-97791225D01*
X215092047Y-97874723D01*
X215096943Y-97879793D01*
X215110755Y-97894096D01*
X215210256Y-97997131D01*
X215352646Y-98090309D01*
X215512142Y-98149625D01*
X215519123Y-98150556D01*
X215519125Y-98150557D01*
X215565226Y-98156708D01*
X215680815Y-98172131D01*
X215687826Y-98171493D01*
X215687830Y-98171493D01*
X215843261Y-98157347D01*
X215850282Y-98156708D01*
X215856984Y-98154530D01*
X215856986Y-98154530D01*
X216005423Y-98106300D01*
X216005426Y-98106299D01*
X216012122Y-98104123D01*
X216146243Y-98024171D01*
X216210760Y-98006400D01*
X217142658Y-98006400D01*
X217211651Y-98026968D01*
X217308446Y-98090309D01*
X217467942Y-98149625D01*
X217474923Y-98150556D01*
X217474925Y-98150557D01*
X217521026Y-98156708D01*
X217636615Y-98172131D01*
X217643626Y-98171493D01*
X217643630Y-98171493D01*
X217799061Y-98157347D01*
X217806082Y-98156708D01*
X217812784Y-98154530D01*
X217812786Y-98154530D01*
X217961223Y-98106300D01*
X217961226Y-98106299D01*
X217967922Y-98104123D01*
X218047542Y-98056660D01*
X218108034Y-98020600D01*
X218108037Y-98020598D01*
X218114089Y-98016990D01*
X218237320Y-97899638D01*
X218273496Y-97845190D01*
X218303372Y-97800223D01*
X218331490Y-97757902D01*
X218333990Y-97751321D01*
X218389417Y-97605409D01*
X218389418Y-97605406D01*
X218391918Y-97598824D01*
X218392911Y-97591765D01*
X218405165Y-97504566D01*
X218415600Y-97430313D01*
X218415898Y-97409000D01*
X218417290Y-97409019D01*
X218432566Y-97345656D01*
X218483878Y-97296590D01*
X218541775Y-97282500D01*
X225451162Y-97282500D01*
X225519283Y-97302502D01*
X225565776Y-97356158D01*
X225577150Y-97410261D01*
X225577059Y-97416753D01*
X225576176Y-97423743D01*
X225576863Y-97430750D01*
X225576863Y-97430754D01*
X225583739Y-97500879D01*
X225592782Y-97593099D01*
X225595006Y-97599784D01*
X225595006Y-97599785D01*
X225596841Y-97605300D01*
X225646495Y-97754567D01*
X225650140Y-97760585D01*
X225650143Y-97760591D01*
X225691991Y-97829690D01*
X225734647Y-97900123D01*
X225739543Y-97905193D01*
X225758707Y-97925038D01*
X225852856Y-98022531D01*
X225995246Y-98115709D01*
X226154742Y-98175025D01*
X226161723Y-98175956D01*
X226161725Y-98175957D01*
X226207826Y-98182108D01*
X226323415Y-98197531D01*
X226330426Y-98196893D01*
X226330430Y-98196893D01*
X226485861Y-98182747D01*
X226492882Y-98182108D01*
X226499584Y-98179930D01*
X226499586Y-98179930D01*
X226648023Y-98131700D01*
X226648026Y-98131699D01*
X226654722Y-98129523D01*
X226746313Y-98074924D01*
X226794834Y-98046000D01*
X226794837Y-98045998D01*
X226800889Y-98042390D01*
X226924120Y-97925038D01*
X226929461Y-97917000D01*
X227003281Y-97805892D01*
X227018290Y-97783302D01*
X227026917Y-97760591D01*
X227076217Y-97630809D01*
X227076218Y-97630806D01*
X227078718Y-97624224D01*
X227102400Y-97455713D01*
X227102698Y-97434400D01*
X227102257Y-97430464D01*
X227102256Y-97430453D01*
X227101369Y-97422548D01*
X227113651Y-97352622D01*
X227161789Y-97300437D01*
X227226583Y-97282500D01*
X227233610Y-97282500D01*
X227301731Y-97302502D01*
X227348224Y-97356158D01*
X227359608Y-97409027D01*
X227310771Y-109022516D01*
X227307693Y-109754430D01*
X227287405Y-109822466D01*
X227233554Y-109868733D01*
X227181694Y-109879900D01*
X151459700Y-109879900D01*
X151391579Y-109859898D01*
X151345086Y-109806242D01*
X151333700Y-109753900D01*
X151333700Y-106711333D01*
X152216622Y-106711333D01*
X152216775Y-106715721D01*
X152216775Y-106715727D01*
X152225795Y-106974014D01*
X152226425Y-106992058D01*
X152227187Y-106996381D01*
X152227188Y-106996388D01*
X152250964Y-107131224D01*
X152275202Y-107268687D01*
X152362003Y-107535835D01*
X152363931Y-107539788D01*
X152363933Y-107539793D01*
X152412977Y-107640347D01*
X152485140Y-107788302D01*
X152487595Y-107791941D01*
X152487598Y-107791947D01*
X152540105Y-107869791D01*
X152642215Y-108021176D01*
X152830171Y-108229922D01*
X152833533Y-108232743D01*
X152833534Y-108232744D01*
X152843254Y-108240900D01*
X153045350Y-108410479D01*
X153283564Y-108559331D01*
X153540175Y-108673582D01*
X153810190Y-108751007D01*
X153814540Y-108751618D01*
X153814543Y-108751619D01*
X153917490Y-108766087D01*
X154088352Y-108790100D01*
X154298946Y-108790100D01*
X154301132Y-108789947D01*
X154301136Y-108789947D01*
X154504627Y-108775718D01*
X154504632Y-108775717D01*
X154509012Y-108775411D01*
X154783770Y-108717009D01*
X154787899Y-108715506D01*
X154787903Y-108715505D01*
X155043581Y-108622446D01*
X155043585Y-108622444D01*
X155047726Y-108620937D01*
X155295742Y-108489064D01*
X155400696Y-108412811D01*
X155519429Y-108326547D01*
X155519432Y-108326544D01*
X155522992Y-108323958D01*
X155526736Y-108320343D01*
X194156376Y-108320343D01*
X194172982Y-108489699D01*
X194226695Y-108651167D01*
X194230342Y-108657189D01*
X194230343Y-108657191D01*
X194266570Y-108717009D01*
X194314847Y-108796723D01*
X194319743Y-108801793D01*
X194338907Y-108821638D01*
X194433056Y-108919131D01*
X194575446Y-109012309D01*
X194734942Y-109071625D01*
X194741923Y-109072556D01*
X194741925Y-109072557D01*
X194788026Y-109078708D01*
X194903615Y-109094131D01*
X194910626Y-109093493D01*
X194910630Y-109093493D01*
X195066061Y-109079347D01*
X195073082Y-109078708D01*
X195079784Y-109076530D01*
X195079786Y-109076530D01*
X195228223Y-109028300D01*
X195228226Y-109028299D01*
X195234922Y-109026123D01*
X195306667Y-108983354D01*
X195375034Y-108942600D01*
X195375037Y-108942598D01*
X195381089Y-108938990D01*
X195504320Y-108821638D01*
X195534830Y-108775718D01*
X195594595Y-108685764D01*
X195598490Y-108679902D01*
X195607117Y-108657191D01*
X195656417Y-108527409D01*
X195656418Y-108527406D01*
X195658918Y-108520824D01*
X195682600Y-108352313D01*
X195682898Y-108331000D01*
X195663930Y-108161892D01*
X195607967Y-108001190D01*
X195601982Y-107991611D01*
X195521525Y-107862853D01*
X195517792Y-107856879D01*
X195445767Y-107784350D01*
X195402849Y-107741131D01*
X195402845Y-107741128D01*
X195397885Y-107736133D01*
X195254208Y-107644952D01*
X195093900Y-107587869D01*
X194924929Y-107567721D01*
X194917926Y-107568457D01*
X194917925Y-107568457D01*
X194762701Y-107584771D01*
X194762697Y-107584772D01*
X194755693Y-107585508D01*
X194749022Y-107587779D01*
X194601274Y-107638076D01*
X194601271Y-107638077D01*
X194594604Y-107640347D01*
X194588606Y-107644037D01*
X194588604Y-107644038D01*
X194549604Y-107668031D01*
X194449667Y-107729513D01*
X194444636Y-107734440D01*
X194444633Y-107734442D01*
X194414604Y-107763849D01*
X194328086Y-107848573D01*
X194235905Y-107991611D01*
X194233496Y-107998231D01*
X194233495Y-107998232D01*
X194186750Y-108126662D01*
X194177704Y-108151516D01*
X194156376Y-108320343D01*
X155526736Y-108320343D01*
X155629557Y-108221049D01*
X155725052Y-108128831D01*
X155897988Y-107907482D01*
X155900184Y-107903678D01*
X155900189Y-107903671D01*
X156016450Y-107702299D01*
X156038436Y-107664219D01*
X156143662Y-107403776D01*
X156151808Y-107371106D01*
X156210553Y-107135493D01*
X156210554Y-107135488D01*
X156211617Y-107131224D01*
X156212413Y-107123657D01*
X156240519Y-106856236D01*
X156240519Y-106856233D01*
X156240978Y-106851867D01*
X156240775Y-106846044D01*
X156231329Y-106575539D01*
X156231328Y-106575533D01*
X156231175Y-106571142D01*
X156228388Y-106555332D01*
X156183160Y-106298836D01*
X156182398Y-106294513D01*
X156095597Y-106027365D01*
X155998135Y-105827539D01*
X164789882Y-105827539D01*
X164806562Y-106026186D01*
X164861510Y-106217809D01*
X164952630Y-106395111D01*
X165076453Y-106551337D01*
X165228263Y-106680537D01*
X165402276Y-106777789D01*
X165408135Y-106779693D01*
X165408138Y-106779694D01*
X165412635Y-106781155D01*
X165591865Y-106839391D01*
X165597975Y-106840120D01*
X165597977Y-106840120D01*
X165665514Y-106848173D01*
X165789809Y-106862994D01*
X165795944Y-106862522D01*
X165795946Y-106862522D01*
X165982426Y-106848173D01*
X165982431Y-106848172D01*
X165988567Y-106847700D01*
X165994497Y-106846044D01*
X165994499Y-106846044D01*
X166084569Y-106820896D01*
X166180570Y-106794092D01*
X166186065Y-106791316D01*
X166186071Y-106791314D01*
X166278085Y-106744834D01*
X166334895Y-106731300D01*
X167671152Y-106731300D01*
X167739273Y-106751302D01*
X167760247Y-106768205D01*
X167836219Y-106844177D01*
X167840727Y-106847334D01*
X167840730Y-106847336D01*
X167862051Y-106862265D01*
X168018323Y-106971688D01*
X168023305Y-106974011D01*
X168023310Y-106974014D01*
X168199654Y-107056244D01*
X168219804Y-107065640D01*
X168225112Y-107067062D01*
X168225114Y-107067063D01*
X168290949Y-107084703D01*
X168434537Y-107123178D01*
X168656000Y-107142553D01*
X168877463Y-107123178D01*
X169021051Y-107084703D01*
X169054491Y-107075743D01*
X207440576Y-107075743D01*
X207457182Y-107245099D01*
X207459406Y-107251784D01*
X207459406Y-107251785D01*
X207465029Y-107268687D01*
X207510895Y-107406567D01*
X207514542Y-107412589D01*
X207514543Y-107412591D01*
X207531848Y-107441164D01*
X207599047Y-107552123D01*
X207603943Y-107557193D01*
X207623107Y-107577038D01*
X207717256Y-107674531D01*
X207859646Y-107767709D01*
X208019142Y-107827025D01*
X208026123Y-107827956D01*
X208026125Y-107827957D01*
X208072226Y-107834108D01*
X208187815Y-107849531D01*
X208194826Y-107848893D01*
X208194830Y-107848893D01*
X208350261Y-107834747D01*
X208357282Y-107834108D01*
X208363984Y-107831930D01*
X208363986Y-107831930D01*
X208512423Y-107783700D01*
X208512426Y-107783699D01*
X208519122Y-107781523D01*
X208590867Y-107738754D01*
X208659234Y-107698000D01*
X208659237Y-107697998D01*
X208665289Y-107694390D01*
X208788520Y-107577038D01*
X208794222Y-107568457D01*
X208817817Y-107532943D01*
X223061576Y-107532943D01*
X223078182Y-107702299D01*
X223080406Y-107708984D01*
X223080406Y-107708985D01*
X223089437Y-107736133D01*
X223131895Y-107863767D01*
X223135542Y-107869789D01*
X223135543Y-107869791D01*
X223152848Y-107898364D01*
X223220047Y-108009323D01*
X223224943Y-108014393D01*
X223244107Y-108034238D01*
X223338256Y-108131731D01*
X223480646Y-108224909D01*
X223640142Y-108284225D01*
X223647123Y-108285156D01*
X223647125Y-108285157D01*
X223693226Y-108291308D01*
X223808815Y-108306731D01*
X223815826Y-108306093D01*
X223815830Y-108306093D01*
X223971261Y-108291947D01*
X223978282Y-108291308D01*
X223984984Y-108289130D01*
X223984986Y-108289130D01*
X224133423Y-108240900D01*
X224133426Y-108240899D01*
X224140122Y-108238723D01*
X224211867Y-108195954D01*
X224280234Y-108155200D01*
X224280237Y-108155198D01*
X224286289Y-108151590D01*
X224409520Y-108034238D01*
X224418199Y-108021176D01*
X224499795Y-107898364D01*
X224503690Y-107892502D01*
X224512317Y-107869791D01*
X224561617Y-107740009D01*
X224561618Y-107740006D01*
X224564118Y-107733424D01*
X224587800Y-107564913D01*
X224588098Y-107543600D01*
X224575213Y-107428721D01*
X224569915Y-107381488D01*
X224569914Y-107381485D01*
X224569130Y-107374492D01*
X224513167Y-107213790D01*
X224507182Y-107204211D01*
X224426725Y-107075453D01*
X224422992Y-107069479D01*
X224341743Y-106987661D01*
X224308049Y-106953731D01*
X224308045Y-106953728D01*
X224303085Y-106948733D01*
X224159408Y-106857552D01*
X223999100Y-106800469D01*
X223830129Y-106780321D01*
X223823126Y-106781057D01*
X223823125Y-106781057D01*
X223667901Y-106797371D01*
X223667897Y-106797372D01*
X223660893Y-106798108D01*
X223654222Y-106800379D01*
X223506474Y-106850676D01*
X223506471Y-106850677D01*
X223499804Y-106852947D01*
X223493806Y-106856637D01*
X223493804Y-106856638D01*
X223486179Y-106861329D01*
X223354867Y-106942113D01*
X223349836Y-106947040D01*
X223349833Y-106947042D01*
X223303864Y-106992058D01*
X223233286Y-107061173D01*
X223141105Y-107204211D01*
X223138696Y-107210831D01*
X223138695Y-107210832D01*
X223085313Y-107357497D01*
X223082904Y-107364116D01*
X223061576Y-107532943D01*
X208817817Y-107532943D01*
X208878795Y-107441164D01*
X208882690Y-107435302D01*
X208893115Y-107407859D01*
X208940617Y-107282809D01*
X208940618Y-107282806D01*
X208943118Y-107276224D01*
X208966800Y-107107713D01*
X208967098Y-107086400D01*
X208948130Y-106917292D01*
X208892167Y-106756590D01*
X208820346Y-106641651D01*
X208801200Y-106574882D01*
X208801200Y-105481041D01*
X208821202Y-105412920D01*
X208838105Y-105391946D01*
X210599850Y-103630201D01*
X210662162Y-103596175D01*
X210677524Y-103593815D01*
X210687061Y-103592947D01*
X210694082Y-103592308D01*
X210700784Y-103590130D01*
X210700786Y-103590130D01*
X210849223Y-103541900D01*
X210849226Y-103541899D01*
X210855922Y-103539723D01*
X210927667Y-103496954D01*
X210996034Y-103456200D01*
X210996037Y-103456198D01*
X211002089Y-103452590D01*
X211125320Y-103335238D01*
X211219490Y-103193502D01*
X211221990Y-103186921D01*
X211277417Y-103041009D01*
X211277418Y-103041006D01*
X211279918Y-103034424D01*
X211295886Y-102920800D01*
X213041868Y-102920800D01*
X213060359Y-103132153D01*
X213115270Y-103337084D01*
X213117592Y-103342064D01*
X213117593Y-103342066D01*
X213202607Y-103524379D01*
X213202610Y-103524384D01*
X213204933Y-103529366D01*
X213326623Y-103703157D01*
X213476643Y-103853177D01*
X213481151Y-103856334D01*
X213481154Y-103856336D01*
X213553383Y-103906911D01*
X213650434Y-103974867D01*
X213655416Y-103977190D01*
X213655421Y-103977193D01*
X213836718Y-104061733D01*
X213842716Y-104064530D01*
X213848024Y-104065952D01*
X213848026Y-104065953D01*
X214042332Y-104118017D01*
X214042334Y-104118017D01*
X214047647Y-104119441D01*
X214259000Y-104137932D01*
X214470353Y-104119441D01*
X214475666Y-104118017D01*
X214475668Y-104118017D01*
X214669974Y-104065953D01*
X214669976Y-104065952D01*
X214675284Y-104064530D01*
X214681282Y-104061733D01*
X214862579Y-103977193D01*
X214862584Y-103977190D01*
X214867566Y-103974867D01*
X214920313Y-103937933D01*
X221206422Y-103937933D01*
X221215718Y-103949948D01*
X221246176Y-103971275D01*
X221255672Y-103976758D01*
X221437903Y-104061733D01*
X221448199Y-104065481D01*
X221642424Y-104117524D01*
X221653211Y-104119426D01*
X221853525Y-104136951D01*
X221864475Y-104136951D01*
X222064789Y-104119426D01*
X222075576Y-104117524D01*
X222269801Y-104065481D01*
X222280097Y-104061733D01*
X222462328Y-103976758D01*
X222471824Y-103971275D01*
X222503120Y-103949361D01*
X222511495Y-103938884D01*
X222504426Y-103925436D01*
X221871812Y-103292822D01*
X221857868Y-103285208D01*
X221856035Y-103285339D01*
X221849420Y-103289590D01*
X221212852Y-103926158D01*
X221206422Y-103937933D01*
X214920313Y-103937933D01*
X214964617Y-103906911D01*
X215036846Y-103856336D01*
X215036849Y-103856334D01*
X215041357Y-103853177D01*
X215191377Y-103703157D01*
X215313067Y-103529366D01*
X215315390Y-103524384D01*
X215315393Y-103524379D01*
X215400407Y-103342066D01*
X215400408Y-103342064D01*
X215402730Y-103337084D01*
X215457641Y-103132153D01*
X215475653Y-102926275D01*
X220642849Y-102926275D01*
X220660374Y-103126589D01*
X220662276Y-103137376D01*
X220714319Y-103331601D01*
X220718067Y-103341897D01*
X220803042Y-103524128D01*
X220808525Y-103533624D01*
X220830439Y-103564920D01*
X220840916Y-103573295D01*
X220854364Y-103566226D01*
X221486978Y-102933612D01*
X221493356Y-102921932D01*
X222223408Y-102921932D01*
X222223539Y-102923765D01*
X222227790Y-102930380D01*
X222864358Y-103566948D01*
X222876133Y-103573378D01*
X222888148Y-103564082D01*
X222909475Y-103533624D01*
X222914958Y-103524128D01*
X222999933Y-103341897D01*
X223003681Y-103331601D01*
X223055724Y-103137376D01*
X223057626Y-103126589D01*
X223075151Y-102926275D01*
X223075151Y-102915325D01*
X223057626Y-102715011D01*
X223055724Y-102704224D01*
X223003681Y-102509999D01*
X222999933Y-102499703D01*
X222914958Y-102317472D01*
X222909475Y-102307976D01*
X222887561Y-102276680D01*
X222877084Y-102268305D01*
X222863636Y-102275374D01*
X222231022Y-102907988D01*
X222223408Y-102921932D01*
X221493356Y-102921932D01*
X221494592Y-102919668D01*
X221494461Y-102917835D01*
X221490210Y-102911220D01*
X220853642Y-102274652D01*
X220841867Y-102268222D01*
X220829852Y-102277518D01*
X220808525Y-102307976D01*
X220803042Y-102317472D01*
X220718067Y-102499703D01*
X220714319Y-102509999D01*
X220662276Y-102704224D01*
X220660374Y-102715011D01*
X220642849Y-102915325D01*
X220642849Y-102926275D01*
X215475653Y-102926275D01*
X215476132Y-102920800D01*
X215457641Y-102709447D01*
X215456217Y-102704132D01*
X215404153Y-102509826D01*
X215404152Y-102509824D01*
X215402730Y-102504516D01*
X215394964Y-102487862D01*
X215315393Y-102317221D01*
X215315390Y-102317216D01*
X215313067Y-102312234D01*
X215197579Y-102147300D01*
X215194536Y-102142954D01*
X215194534Y-102142951D01*
X215191377Y-102138443D01*
X215041357Y-101988423D01*
X215036849Y-101985266D01*
X215036846Y-101985264D01*
X214946732Y-101922166D01*
X214918955Y-101902716D01*
X221206505Y-101902716D01*
X221213574Y-101916164D01*
X221846188Y-102548778D01*
X221860132Y-102556392D01*
X221861965Y-102556261D01*
X221868580Y-102552010D01*
X222505148Y-101915442D01*
X222511578Y-101903667D01*
X222502282Y-101891652D01*
X222471824Y-101870325D01*
X222462328Y-101864842D01*
X222280097Y-101779867D01*
X222269801Y-101776119D01*
X222075576Y-101724076D01*
X222064789Y-101722174D01*
X221864475Y-101704649D01*
X221853525Y-101704649D01*
X221653211Y-101722174D01*
X221642424Y-101724076D01*
X221448199Y-101776119D01*
X221437903Y-101779867D01*
X221255672Y-101864842D01*
X221246176Y-101870325D01*
X221214880Y-101892239D01*
X221206505Y-101902716D01*
X214918955Y-101902716D01*
X214867566Y-101866733D01*
X214862584Y-101864410D01*
X214862579Y-101864407D01*
X214680266Y-101779393D01*
X214680264Y-101779392D01*
X214675284Y-101777070D01*
X214669976Y-101775648D01*
X214669974Y-101775647D01*
X214475668Y-101723583D01*
X214475666Y-101723583D01*
X214470353Y-101722159D01*
X214259000Y-101703668D01*
X214047647Y-101722159D01*
X214042334Y-101723583D01*
X214042332Y-101723583D01*
X213848026Y-101775647D01*
X213848024Y-101775648D01*
X213842716Y-101777070D01*
X213837736Y-101779392D01*
X213837734Y-101779393D01*
X213655421Y-101864407D01*
X213655416Y-101864410D01*
X213650434Y-101866733D01*
X213571268Y-101922166D01*
X213481154Y-101985264D01*
X213481151Y-101985266D01*
X213476643Y-101988423D01*
X213326623Y-102138443D01*
X213323466Y-102142951D01*
X213323464Y-102142954D01*
X213320421Y-102147300D01*
X213204933Y-102312234D01*
X213202610Y-102317216D01*
X213202607Y-102317221D01*
X213123036Y-102487862D01*
X213115270Y-102504516D01*
X213113848Y-102509824D01*
X213113847Y-102509826D01*
X213061783Y-102704132D01*
X213060359Y-102709447D01*
X213041868Y-102920800D01*
X211295886Y-102920800D01*
X211303600Y-102865913D01*
X211303898Y-102844600D01*
X211288153Y-102704224D01*
X211285715Y-102682488D01*
X211285714Y-102682485D01*
X211284930Y-102675492D01*
X211228967Y-102514790D01*
X211222982Y-102505211D01*
X211142525Y-102376453D01*
X211138792Y-102370479D01*
X211043631Y-102274652D01*
X211023849Y-102254731D01*
X211023845Y-102254728D01*
X211018885Y-102249733D01*
X210875208Y-102158552D01*
X210714900Y-102101469D01*
X210545929Y-102081321D01*
X210538926Y-102082057D01*
X210538925Y-102082057D01*
X210383701Y-102098371D01*
X210383697Y-102098372D01*
X210376693Y-102099108D01*
X210370022Y-102101379D01*
X210222274Y-102151676D01*
X210222271Y-102151677D01*
X210215604Y-102153947D01*
X210209606Y-102157637D01*
X210209604Y-102157638D01*
X210201979Y-102162329D01*
X210070667Y-102243113D01*
X210065636Y-102248040D01*
X210065633Y-102248042D01*
X210009877Y-102302643D01*
X209949086Y-102362173D01*
X209856905Y-102505211D01*
X209854496Y-102511831D01*
X209854495Y-102511832D01*
X209805871Y-102645425D01*
X209798704Y-102665116D01*
X209793764Y-102704224D01*
X209793045Y-102709912D01*
X209764663Y-102774989D01*
X209757134Y-102783215D01*
X207814910Y-104725439D01*
X207802519Y-104736307D01*
X207777729Y-104755329D01*
X207772706Y-104761875D01*
X207763623Y-104773712D01*
X207713930Y-104838474D01*
X207681972Y-104880123D01*
X207621777Y-105025447D01*
X207601245Y-105181400D01*
X207602323Y-105189588D01*
X207602323Y-105189589D01*
X207605322Y-105212369D01*
X207606400Y-105228815D01*
X207606400Y-106576022D01*
X207586312Y-106644277D01*
X207520105Y-106747011D01*
X207517696Y-106753631D01*
X207517695Y-106753632D01*
X207483457Y-106847700D01*
X207461904Y-106906916D01*
X207440576Y-107075743D01*
X169054491Y-107075743D01*
X169086886Y-107067063D01*
X169086888Y-107067062D01*
X169092196Y-107065640D01*
X169112346Y-107056244D01*
X169288690Y-106974014D01*
X169288695Y-106974011D01*
X169293677Y-106971688D01*
X169449949Y-106862265D01*
X169471270Y-106847336D01*
X169471273Y-106847334D01*
X169475781Y-106844177D01*
X169632977Y-106686981D01*
X169711010Y-106575539D01*
X169757331Y-106509385D01*
X169757332Y-106509383D01*
X169760488Y-106504876D01*
X169762811Y-106499894D01*
X169762814Y-106499889D01*
X169852117Y-106308378D01*
X169852118Y-106308377D01*
X169854440Y-106303396D01*
X169911978Y-106088663D01*
X169931353Y-105867200D01*
X169911978Y-105645737D01*
X169873503Y-105502149D01*
X169855863Y-105436314D01*
X169855862Y-105436312D01*
X169854440Y-105431004D01*
X169810391Y-105336540D01*
X169762814Y-105234511D01*
X169762811Y-105234506D01*
X169760488Y-105229524D01*
X169748476Y-105212369D01*
X169637866Y-105054400D01*
X205182096Y-105054400D01*
X205182786Y-105060965D01*
X205200428Y-105228815D01*
X205202058Y-105244328D01*
X205261073Y-105425956D01*
X205264376Y-105431678D01*
X205264377Y-105431679D01*
X205292876Y-105481041D01*
X205356560Y-105591344D01*
X205360978Y-105596251D01*
X205360979Y-105596252D01*
X205417954Y-105659529D01*
X205484347Y-105733266D01*
X205547088Y-105778850D01*
X205622559Y-105833683D01*
X205638848Y-105845518D01*
X205644876Y-105848202D01*
X205644878Y-105848203D01*
X205758928Y-105898981D01*
X205813312Y-105923194D01*
X205906713Y-105943047D01*
X205993656Y-105961528D01*
X205993661Y-105961528D01*
X206000113Y-105962900D01*
X206191087Y-105962900D01*
X206197539Y-105961528D01*
X206197544Y-105961528D01*
X206284488Y-105943047D01*
X206377888Y-105923194D01*
X206432272Y-105898981D01*
X206546322Y-105848203D01*
X206546324Y-105848202D01*
X206552352Y-105845518D01*
X206568642Y-105833683D01*
X206644112Y-105778850D01*
X206706853Y-105733266D01*
X206773246Y-105659529D01*
X206830221Y-105596252D01*
X206830222Y-105596251D01*
X206834640Y-105591344D01*
X206898324Y-105481041D01*
X206926823Y-105431679D01*
X206926824Y-105431678D01*
X206930127Y-105425956D01*
X206989142Y-105244328D01*
X206990773Y-105228815D01*
X207008414Y-105060965D01*
X207009104Y-105054400D01*
X206998373Y-104952300D01*
X206989832Y-104871035D01*
X206989832Y-104871033D01*
X206989142Y-104864472D01*
X206930127Y-104682844D01*
X206834640Y-104517456D01*
X206706853Y-104375534D01*
X206552352Y-104263282D01*
X206546324Y-104260598D01*
X206546322Y-104260597D01*
X206383919Y-104188291D01*
X206383918Y-104188291D01*
X206377888Y-104185606D01*
X206284488Y-104165753D01*
X206197544Y-104147272D01*
X206197539Y-104147272D01*
X206191087Y-104145900D01*
X206000113Y-104145900D01*
X205993661Y-104147272D01*
X205993656Y-104147272D01*
X205906713Y-104165753D01*
X205813312Y-104185606D01*
X205807282Y-104188291D01*
X205807281Y-104188291D01*
X205644878Y-104260597D01*
X205644876Y-104260598D01*
X205638848Y-104263282D01*
X205484347Y-104375534D01*
X205356560Y-104517456D01*
X205261073Y-104682844D01*
X205202058Y-104864472D01*
X205201368Y-104871033D01*
X205201368Y-104871035D01*
X205192827Y-104952300D01*
X205182096Y-105054400D01*
X169637866Y-105054400D01*
X169636136Y-105051930D01*
X169636134Y-105051927D01*
X169632977Y-105047419D01*
X169475781Y-104890223D01*
X169471273Y-104887066D01*
X169471270Y-104887064D01*
X169330794Y-104788702D01*
X169293677Y-104762712D01*
X169288695Y-104760389D01*
X169288690Y-104760386D01*
X169097178Y-104671083D01*
X169097177Y-104671082D01*
X169092196Y-104668760D01*
X169086888Y-104667338D01*
X169086886Y-104667337D01*
X169021051Y-104649697D01*
X168877463Y-104611222D01*
X168656000Y-104591847D01*
X168434537Y-104611222D01*
X168290949Y-104649697D01*
X168225114Y-104667337D01*
X168225112Y-104667338D01*
X168219804Y-104668760D01*
X168214823Y-104671082D01*
X168214822Y-104671083D01*
X168023311Y-104760386D01*
X168023306Y-104760389D01*
X168018324Y-104762712D01*
X168013817Y-104765868D01*
X168013815Y-104765869D01*
X167840730Y-104887064D01*
X167840727Y-104887066D01*
X167836219Y-104890223D01*
X167811047Y-104915395D01*
X167748735Y-104949421D01*
X167721952Y-104952300D01*
X166335271Y-104952300D01*
X166275343Y-104937136D01*
X166212438Y-104903124D01*
X166212436Y-104903123D01*
X166207015Y-104900192D01*
X166016585Y-104841244D01*
X166010460Y-104840600D01*
X166010459Y-104840600D01*
X165824460Y-104821051D01*
X165824458Y-104821051D01*
X165818331Y-104820407D01*
X165695452Y-104831590D01*
X165625946Y-104837915D01*
X165625945Y-104837915D01*
X165619805Y-104838474D01*
X165613891Y-104840215D01*
X165613889Y-104840215D01*
X165531472Y-104864472D01*
X165428570Y-104894758D01*
X165251909Y-104987114D01*
X165096551Y-105112025D01*
X164968414Y-105264733D01*
X164872379Y-105439421D01*
X164812102Y-105629435D01*
X164789882Y-105827539D01*
X155998135Y-105827539D01*
X155972460Y-105774898D01*
X155970005Y-105771259D01*
X155970002Y-105771253D01*
X155874344Y-105629435D01*
X155815385Y-105542024D01*
X155627429Y-105333278D01*
X155412250Y-105152721D01*
X155174036Y-105003869D01*
X154941175Y-104900192D01*
X154921439Y-104891405D01*
X154921437Y-104891404D01*
X154917425Y-104889618D01*
X154647410Y-104812193D01*
X154643060Y-104811582D01*
X154643057Y-104811581D01*
X154540110Y-104797113D01*
X154369248Y-104773100D01*
X154158654Y-104773100D01*
X154156468Y-104773253D01*
X154156464Y-104773253D01*
X153952973Y-104787482D01*
X153952968Y-104787483D01*
X153948588Y-104787789D01*
X153673830Y-104846191D01*
X153669701Y-104847694D01*
X153669697Y-104847695D01*
X153414019Y-104940754D01*
X153414015Y-104940756D01*
X153409874Y-104942263D01*
X153161858Y-105074136D01*
X153158299Y-105076722D01*
X153158297Y-105076723D01*
X152941120Y-105234511D01*
X152934608Y-105239242D01*
X152931444Y-105242298D01*
X152931441Y-105242300D01*
X152842665Y-105328031D01*
X152732548Y-105434369D01*
X152648439Y-105542024D01*
X152575367Y-105635553D01*
X152559612Y-105655718D01*
X152557416Y-105659522D01*
X152557411Y-105659529D01*
X152463947Y-105821414D01*
X152419164Y-105898981D01*
X152313938Y-106159424D01*
X152312873Y-106163697D01*
X152312872Y-106163699D01*
X152253971Y-106399939D01*
X152245983Y-106431976D01*
X152245524Y-106436344D01*
X152245523Y-106436349D01*
X152219181Y-106686981D01*
X152216622Y-106711333D01*
X151333700Y-106711333D01*
X151333700Y-101894143D01*
X172718776Y-101894143D01*
X172735382Y-102063499D01*
X172737606Y-102070184D01*
X172737606Y-102070185D01*
X172741555Y-102082057D01*
X172789095Y-102224967D01*
X172792742Y-102230989D01*
X172792743Y-102230991D01*
X172820921Y-102277518D01*
X172877247Y-102370523D01*
X172882143Y-102375593D01*
X172901307Y-102395438D01*
X172995456Y-102492931D01*
X173137846Y-102586109D01*
X173297342Y-102645425D01*
X173304323Y-102646356D01*
X173304325Y-102646357D01*
X173350426Y-102652508D01*
X173466015Y-102667931D01*
X173473026Y-102667293D01*
X173473030Y-102667293D01*
X173628461Y-102653147D01*
X173635482Y-102652508D01*
X173642184Y-102650330D01*
X173642186Y-102650330D01*
X173790623Y-102602100D01*
X173790626Y-102602099D01*
X173797322Y-102599923D01*
X173883119Y-102548778D01*
X173937434Y-102516400D01*
X173937437Y-102516398D01*
X173943489Y-102512790D01*
X174066720Y-102395438D01*
X174088822Y-102362173D01*
X174124996Y-102307726D01*
X174160890Y-102253702D01*
X174163831Y-102245959D01*
X174218817Y-102101209D01*
X174218818Y-102101206D01*
X174221318Y-102094624D01*
X174245000Y-101926113D01*
X174245298Y-101904800D01*
X174234635Y-101809735D01*
X174227115Y-101742688D01*
X174227114Y-101742685D01*
X174226330Y-101735692D01*
X174170367Y-101574990D01*
X174164382Y-101565411D01*
X174083925Y-101436653D01*
X174080192Y-101430679D01*
X173971628Y-101321355D01*
X173965249Y-101314931D01*
X173965245Y-101314928D01*
X173960285Y-101309933D01*
X173816608Y-101218752D01*
X173656300Y-101161669D01*
X173487329Y-101141521D01*
X173480326Y-101142257D01*
X173480325Y-101142257D01*
X173325101Y-101158571D01*
X173325097Y-101158572D01*
X173318093Y-101159308D01*
X173311422Y-101161579D01*
X173163674Y-101211876D01*
X173163671Y-101211877D01*
X173157004Y-101214147D01*
X173151006Y-101217837D01*
X173151004Y-101217838D01*
X173143379Y-101222529D01*
X173012067Y-101303313D01*
X173007036Y-101308240D01*
X173007033Y-101308242D01*
X172951276Y-101362843D01*
X172890486Y-101422373D01*
X172798305Y-101565411D01*
X172795896Y-101572031D01*
X172795895Y-101572032D01*
X172776775Y-101624564D01*
X172740104Y-101725316D01*
X172718776Y-101894143D01*
X151333700Y-101894143D01*
X151333700Y-93881275D01*
X155281987Y-93881275D01*
X155301358Y-94102677D01*
X155303261Y-94113472D01*
X155360782Y-94328144D01*
X155364528Y-94338436D01*
X155458452Y-94539859D01*
X155463935Y-94549354D01*
X155504159Y-94606800D01*
X155514636Y-94615175D01*
X155528083Y-94608107D01*
X156247578Y-93888612D01*
X156253956Y-93876932D01*
X156984008Y-93876932D01*
X156984139Y-93878765D01*
X156988390Y-93885380D01*
X157711838Y-94608828D01*
X157723613Y-94615258D01*
X157735628Y-94605962D01*
X157775265Y-94549354D01*
X157780748Y-94539859D01*
X157874672Y-94338436D01*
X157878418Y-94328144D01*
X157935939Y-94113472D01*
X157937842Y-94102677D01*
X157957213Y-93881275D01*
X157957213Y-93870325D01*
X157937842Y-93648923D01*
X157935939Y-93638128D01*
X157878418Y-93423456D01*
X157874672Y-93413164D01*
X157780748Y-93211741D01*
X157775265Y-93202246D01*
X157735041Y-93144800D01*
X157724564Y-93136425D01*
X157711117Y-93143493D01*
X156991622Y-93862988D01*
X156984008Y-93876932D01*
X156253956Y-93876932D01*
X156255192Y-93874668D01*
X156255061Y-93872835D01*
X156250810Y-93866220D01*
X155527362Y-93142772D01*
X155515587Y-93136342D01*
X155503572Y-93145638D01*
X155463935Y-93202246D01*
X155458452Y-93211741D01*
X155364528Y-93413164D01*
X155360782Y-93423456D01*
X155303261Y-93638128D01*
X155301358Y-93648923D01*
X155281987Y-93870325D01*
X155281987Y-93881275D01*
X151333700Y-93881275D01*
X151333700Y-92770836D01*
X155880225Y-92770836D01*
X155887293Y-92784283D01*
X156606788Y-93503778D01*
X156620732Y-93511392D01*
X156622565Y-93511261D01*
X156629180Y-93507010D01*
X157352628Y-92783562D01*
X157359058Y-92771787D01*
X157349762Y-92759772D01*
X157293154Y-92720135D01*
X157283659Y-92714652D01*
X157082236Y-92620728D01*
X157071944Y-92616982D01*
X156857272Y-92559461D01*
X156846477Y-92557558D01*
X156625075Y-92538187D01*
X156614125Y-92538187D01*
X156392723Y-92557558D01*
X156381928Y-92559461D01*
X156167256Y-92616982D01*
X156156964Y-92620728D01*
X155955541Y-92714652D01*
X155946046Y-92720135D01*
X155888600Y-92760359D01*
X155880225Y-92770836D01*
X151333700Y-92770836D01*
X151333700Y-91248934D01*
X155286100Y-91248934D01*
X155292855Y-91311116D01*
X155343985Y-91447505D01*
X155431339Y-91564061D01*
X155547895Y-91651415D01*
X155684284Y-91702545D01*
X155746466Y-91709300D01*
X157492734Y-91709300D01*
X157554916Y-91702545D01*
X157691305Y-91651415D01*
X157807861Y-91564061D01*
X157895215Y-91447505D01*
X157946345Y-91311116D01*
X157953100Y-91248934D01*
X157953100Y-89502666D01*
X157946345Y-89440484D01*
X157895215Y-89304095D01*
X157807861Y-89187539D01*
X157691305Y-89100185D01*
X157554916Y-89049055D01*
X157492734Y-89042300D01*
X155746466Y-89042300D01*
X155684284Y-89049055D01*
X155547895Y-89100185D01*
X155431339Y-89187539D01*
X155343985Y-89304095D01*
X155292855Y-89440484D01*
X155286100Y-89502666D01*
X155286100Y-91248934D01*
X151333700Y-91248934D01*
X151333700Y-84689533D01*
X152470622Y-84689533D01*
X152470775Y-84693921D01*
X152470775Y-84693927D01*
X152480134Y-84961913D01*
X152480425Y-84970258D01*
X152481187Y-84974581D01*
X152481188Y-84974588D01*
X152504964Y-85109424D01*
X152529202Y-85246887D01*
X152616003Y-85514035D01*
X152617931Y-85517988D01*
X152617933Y-85517993D01*
X152667069Y-85618735D01*
X152739140Y-85766502D01*
X152741595Y-85770141D01*
X152741598Y-85770147D01*
X152743651Y-85773190D01*
X152896215Y-85999376D01*
X152899160Y-86002647D01*
X152899161Y-86002648D01*
X152929577Y-86036428D01*
X153084171Y-86208122D01*
X153299350Y-86388679D01*
X153537564Y-86537531D01*
X153637306Y-86581939D01*
X153782278Y-86646485D01*
X153794175Y-86651782D01*
X153798403Y-86652994D01*
X153798402Y-86652994D01*
X154021546Y-86716979D01*
X154064190Y-86729207D01*
X154068540Y-86729818D01*
X154068543Y-86729819D01*
X154140666Y-86739955D01*
X154342352Y-86768300D01*
X154552946Y-86768300D01*
X154555132Y-86768147D01*
X154555136Y-86768147D01*
X154758627Y-86753918D01*
X154758632Y-86753917D01*
X154763012Y-86753611D01*
X155037770Y-86695209D01*
X155041899Y-86693706D01*
X155041903Y-86693705D01*
X155297581Y-86600646D01*
X155297585Y-86600644D01*
X155301726Y-86599137D01*
X155549742Y-86467264D01*
X155561594Y-86458653D01*
X155773429Y-86304747D01*
X155773432Y-86304744D01*
X155776992Y-86302158D01*
X155783794Y-86295590D01*
X155885233Y-86197631D01*
X155979052Y-86107031D01*
X156143649Y-85896356D01*
X156149281Y-85889147D01*
X156149282Y-85889146D01*
X156151988Y-85885682D01*
X156154184Y-85881878D01*
X156154189Y-85881871D01*
X156290235Y-85646231D01*
X156292436Y-85642419D01*
X156397662Y-85381976D01*
X156400623Y-85370102D01*
X156464553Y-85113693D01*
X156464554Y-85113688D01*
X156465617Y-85109424D01*
X156467107Y-85095253D01*
X156494519Y-84834436D01*
X156494519Y-84834433D01*
X156494978Y-84830067D01*
X156494636Y-84820269D01*
X156485329Y-84553739D01*
X156485328Y-84553733D01*
X156485175Y-84549342D01*
X156484210Y-84543864D01*
X156447583Y-84336146D01*
X156436398Y-84272713D01*
X156349597Y-84005565D01*
X156226460Y-83753098D01*
X156224005Y-83749459D01*
X156224002Y-83749453D01*
X156110137Y-83580642D01*
X156069385Y-83520224D01*
X155881429Y-83311478D01*
X155666250Y-83130921D01*
X155428036Y-82982069D01*
X155171425Y-82867818D01*
X154990172Y-82815845D01*
X154905637Y-82791605D01*
X154905636Y-82791605D01*
X154901410Y-82790393D01*
X154897060Y-82789782D01*
X154897057Y-82789781D01*
X154738033Y-82767432D01*
X154623248Y-82751300D01*
X154412654Y-82751300D01*
X154410468Y-82751453D01*
X154410464Y-82751453D01*
X154206973Y-82765682D01*
X154206968Y-82765683D01*
X154202588Y-82765989D01*
X153927830Y-82824391D01*
X153923701Y-82825894D01*
X153923697Y-82825895D01*
X153668019Y-82918954D01*
X153668015Y-82918956D01*
X153663874Y-82920463D01*
X153415858Y-83052336D01*
X153412299Y-83054922D01*
X153412297Y-83054923D01*
X153307695Y-83130921D01*
X153188608Y-83217442D01*
X153185444Y-83220498D01*
X153185441Y-83220500D01*
X153148298Y-83256369D01*
X152986548Y-83412569D01*
X152813612Y-83633918D01*
X152811416Y-83637722D01*
X152811411Y-83637729D01*
X152697594Y-83834867D01*
X152673164Y-83877181D01*
X152567938Y-84137624D01*
X152566873Y-84141897D01*
X152566872Y-84141899D01*
X152509509Y-84371970D01*
X152499983Y-84410176D01*
X152499524Y-84414544D01*
X152499523Y-84414549D01*
X152471081Y-84685164D01*
X152470622Y-84689533D01*
X151333700Y-84689533D01*
X151333700Y-81000100D01*
X151353702Y-80931979D01*
X151407358Y-80885486D01*
X151459700Y-80874100D01*
X160026308Y-80874100D01*
X160094429Y-80894102D01*
G37*
%TD.AperFunction*%
%TA.AperFunction,Conductor*%
G36*
X195597531Y-89755367D02*
G01*
X195654367Y-89797914D01*
X195676745Y-89847222D01*
X195677695Y-89851688D01*
X195678382Y-89858699D01*
X195717985Y-89977750D01*
X195729999Y-90013866D01*
X195732522Y-90084818D01*
X195699536Y-90142733D01*
X189014674Y-96827595D01*
X188952362Y-96861621D01*
X188925579Y-96864500D01*
X188688422Y-96864500D01*
X188620301Y-96844498D01*
X188573808Y-96790842D01*
X188563704Y-96720568D01*
X188593198Y-96655988D01*
X188599327Y-96649405D01*
X195464404Y-89784328D01*
X195526716Y-89750302D01*
X195597531Y-89755367D01*
G37*
%TD.AperFunction*%
%TA.AperFunction,Conductor*%
G36*
X206345254Y-90640105D02*
G01*
X207361139Y-91655990D01*
X207372007Y-91668381D01*
X207391029Y-91693171D01*
X207502245Y-91778509D01*
X207515823Y-91788928D01*
X207523449Y-91792087D01*
X207523451Y-91792088D01*
X207540013Y-91798948D01*
X207661147Y-91849123D01*
X207817100Y-91869655D01*
X207825288Y-91868577D01*
X207825289Y-91868577D01*
X207848069Y-91865578D01*
X207864515Y-91864500D01*
X220164028Y-91864500D01*
X220232149Y-91884502D01*
X220278642Y-91938158D01*
X220289338Y-91977329D01*
X220307058Y-92145928D01*
X220366073Y-92327556D01*
X220369376Y-92333278D01*
X220369377Y-92333279D01*
X220424036Y-92427950D01*
X220461560Y-92492944D01*
X220465978Y-92497851D01*
X220465979Y-92497852D01*
X220528309Y-92567076D01*
X220559026Y-92631084D01*
X220560673Y-92651038D01*
X220564831Y-94152131D01*
X220545017Y-94220307D01*
X220532470Y-94236788D01*
X220469560Y-94306656D01*
X220374073Y-94472044D01*
X220315058Y-94653672D01*
X220314368Y-94660233D01*
X220314368Y-94660235D01*
X220308869Y-94712555D01*
X220295096Y-94843600D01*
X220295786Y-94850165D01*
X220314136Y-95024752D01*
X220315058Y-95033528D01*
X220317098Y-95039806D01*
X220327514Y-95071864D01*
X220329541Y-95142832D01*
X220292879Y-95203630D01*
X220229166Y-95234955D01*
X220207681Y-95236800D01*
X209341642Y-95236800D01*
X209273521Y-95216798D01*
X209252547Y-95199895D01*
X205561663Y-91509011D01*
X205527637Y-91446699D01*
X205532702Y-91375884D01*
X205575249Y-91319048D01*
X205611820Y-91300084D01*
X205656279Y-91285639D01*
X205693023Y-91273700D01*
X205693026Y-91273699D01*
X205699722Y-91271523D01*
X205789971Y-91217724D01*
X205839834Y-91188000D01*
X205839837Y-91187998D01*
X205845889Y-91184390D01*
X205969120Y-91067038D01*
X206063290Y-90925302D01*
X206065790Y-90918721D01*
X206121217Y-90772809D01*
X206121218Y-90772806D01*
X206123718Y-90766224D01*
X206131386Y-90711665D01*
X206160672Y-90646991D01*
X206220276Y-90608418D01*
X206291272Y-90608191D01*
X206345254Y-90640105D01*
G37*
%TD.AperFunction*%
%TA.AperFunction,Conductor*%
G36*
X207489799Y-86418602D02*
G01*
X207510773Y-86435505D01*
X207594895Y-86519627D01*
X207628921Y-86581939D01*
X207631800Y-86608722D01*
X207631800Y-87086042D01*
X207611798Y-87154163D01*
X207558142Y-87200656D01*
X207487868Y-87210760D01*
X207463534Y-87204741D01*
X207405945Y-87184235D01*
X207405944Y-87184235D01*
X207399300Y-87181869D01*
X207230329Y-87161721D01*
X207223326Y-87162457D01*
X207223325Y-87162457D01*
X207068101Y-87178771D01*
X207068097Y-87178772D01*
X207061093Y-87179508D01*
X207054422Y-87181779D01*
X206906674Y-87232076D01*
X206906671Y-87232077D01*
X206900004Y-87234347D01*
X206894006Y-87238037D01*
X206894004Y-87238038D01*
X206846479Y-87267276D01*
X206755067Y-87323513D01*
X206750036Y-87328440D01*
X206750033Y-87328442D01*
X206716215Y-87361559D01*
X206633486Y-87442573D01*
X206541305Y-87585611D01*
X206538896Y-87592231D01*
X206538895Y-87592232D01*
X206485513Y-87738897D01*
X206483104Y-87745516D01*
X206461776Y-87914343D01*
X206478382Y-88083699D01*
X206480606Y-88090384D01*
X206480606Y-88090385D01*
X206500511Y-88150223D01*
X206532095Y-88245167D01*
X206535742Y-88251189D01*
X206535743Y-88251191D01*
X206609376Y-88372773D01*
X206627600Y-88438044D01*
X206627600Y-88802586D01*
X206626522Y-88819033D01*
X206622445Y-88850000D01*
X206632482Y-88926230D01*
X206633461Y-88933669D01*
X206622522Y-89003817D01*
X206575395Y-89056916D01*
X206507041Y-89076107D01*
X206493625Y-89075230D01*
X206380329Y-89061721D01*
X206373326Y-89062457D01*
X206373325Y-89062457D01*
X206218101Y-89078771D01*
X206218097Y-89078772D01*
X206211093Y-89079508D01*
X206148404Y-89100849D01*
X206077474Y-89103867D01*
X206016170Y-89068057D01*
X205983958Y-89004789D01*
X205981800Y-88981571D01*
X205981800Y-87396241D01*
X206001802Y-87328120D01*
X206018705Y-87307146D01*
X206890346Y-86435505D01*
X206952658Y-86401479D01*
X206979441Y-86398600D01*
X207421678Y-86398600D01*
X207489799Y-86418602D01*
G37*
%TD.AperFunction*%
%TA.AperFunction,Conductor*%
G36*
X216281788Y-84600202D02*
G01*
X216302762Y-84617105D01*
X217458847Y-85773190D01*
X217492873Y-85835502D01*
X217487808Y-85906317D01*
X217445261Y-85963153D01*
X217382923Y-85987595D01*
X217351949Y-85990850D01*
X217289901Y-85997371D01*
X217289897Y-85997372D01*
X217282893Y-85998108D01*
X217276222Y-86000379D01*
X217128474Y-86050676D01*
X217128471Y-86050677D01*
X217121804Y-86052947D01*
X217115806Y-86056637D01*
X217115804Y-86056638D01*
X217080647Y-86078267D01*
X216976867Y-86142113D01*
X216971836Y-86147040D01*
X216971833Y-86147042D01*
X216932037Y-86186013D01*
X216855286Y-86261173D01*
X216763105Y-86404211D01*
X216760696Y-86410831D01*
X216760695Y-86410832D01*
X216707664Y-86556532D01*
X216704904Y-86564116D01*
X216683576Y-86732943D01*
X216700182Y-86902299D01*
X216753895Y-87063767D01*
X216757542Y-87069789D01*
X216757543Y-87069791D01*
X216802495Y-87144015D01*
X216842047Y-87209323D01*
X216846943Y-87214393D01*
X216864019Y-87232076D01*
X216960256Y-87331731D01*
X216983172Y-87346727D01*
X216984763Y-87347768D01*
X217030812Y-87401805D01*
X217040335Y-87472160D01*
X217010310Y-87536495D01*
X216950269Y-87574385D01*
X216915770Y-87579200D01*
X210657300Y-87579200D01*
X210589786Y-87559585D01*
X210486962Y-87494330D01*
X210486958Y-87494328D01*
X210481008Y-87490552D01*
X210320700Y-87433469D01*
X210151729Y-87413321D01*
X210144726Y-87414057D01*
X210144725Y-87414057D01*
X209989501Y-87430371D01*
X209989497Y-87430372D01*
X209982493Y-87431108D01*
X209975822Y-87433379D01*
X209828074Y-87483676D01*
X209828071Y-87483677D01*
X209821404Y-87485947D01*
X209815406Y-87489637D01*
X209815404Y-87489638D01*
X209752398Y-87528400D01*
X209676467Y-87575113D01*
X209671436Y-87580040D01*
X209671433Y-87580042D01*
X209626403Y-87624139D01*
X209563738Y-87657509D01*
X209492979Y-87651703D01*
X209449151Y-87623210D01*
X208863505Y-87037564D01*
X208829479Y-86975252D01*
X208826600Y-86948469D01*
X208826600Y-86449012D01*
X208846602Y-86380891D01*
X208900258Y-86334398D01*
X208941180Y-86323531D01*
X209052728Y-86313379D01*
X209077682Y-86311108D01*
X209084384Y-86308930D01*
X209084386Y-86308930D01*
X209232823Y-86260700D01*
X209232826Y-86260699D01*
X209239522Y-86258523D01*
X209319337Y-86210944D01*
X209379634Y-86175000D01*
X209379637Y-86174998D01*
X209385689Y-86171390D01*
X209508920Y-86054038D01*
X209517403Y-86041271D01*
X209599195Y-85918164D01*
X209603090Y-85912302D01*
X209657090Y-85770147D01*
X209661017Y-85759809D01*
X209661018Y-85759806D01*
X209663518Y-85753224D01*
X209687200Y-85584713D01*
X209687317Y-85576364D01*
X209687443Y-85567361D01*
X209687443Y-85567355D01*
X209687498Y-85563400D01*
X209670551Y-85412306D01*
X209669315Y-85401288D01*
X209669314Y-85401285D01*
X209668530Y-85394292D01*
X209612567Y-85233590D01*
X209606582Y-85224011D01*
X209526125Y-85095253D01*
X209522392Y-85089279D01*
X209462439Y-85028906D01*
X209407449Y-84973531D01*
X209407445Y-84973528D01*
X209402485Y-84968533D01*
X209258808Y-84877352D01*
X209126016Y-84830067D01*
X209111503Y-84824899D01*
X209054039Y-84783205D01*
X209028239Y-84717062D01*
X209042294Y-84647471D01*
X209091742Y-84596525D01*
X209153770Y-84580200D01*
X216213667Y-84580200D01*
X216281788Y-84600202D01*
G37*
%TD.AperFunction*%
%TA.AperFunction,Conductor*%
G36*
X218916487Y-80894102D02*
G01*
X218962980Y-80947758D01*
X218973084Y-81018032D01*
X218943590Y-81082612D01*
X218899615Y-81115207D01*
X218788414Y-81164717D01*
X218777042Y-81171283D01*
X218635432Y-81274169D01*
X218625678Y-81282951D01*
X218508553Y-81413031D01*
X218500831Y-81423659D01*
X218413318Y-81575238D01*
X218407972Y-81587246D01*
X218353884Y-81753710D01*
X218351154Y-81766553D01*
X218337444Y-81896997D01*
X218337100Y-81903556D01*
X218337100Y-82062585D01*
X218341575Y-82077824D01*
X218342965Y-82079029D01*
X218350648Y-82080700D01*
X220109985Y-82080700D01*
X220125224Y-82076225D01*
X220126429Y-82074835D01*
X220128100Y-82067152D01*
X220128100Y-81903556D01*
X220127756Y-81896997D01*
X220114046Y-81766553D01*
X220111316Y-81753710D01*
X220057228Y-81587246D01*
X220051882Y-81575238D01*
X219964369Y-81423659D01*
X219956647Y-81413031D01*
X219839522Y-81282951D01*
X219829768Y-81274169D01*
X219688159Y-81171283D01*
X219676787Y-81164717D01*
X219565585Y-81115207D01*
X219511489Y-81069227D01*
X219490840Y-81001300D01*
X219510192Y-80932991D01*
X219563403Y-80885990D01*
X219616834Y-80874100D01*
X225848366Y-80874100D01*
X225916487Y-80894102D01*
X225962980Y-80947758D01*
X225973084Y-81018032D01*
X225943590Y-81082612D01*
X225899615Y-81115207D01*
X225788414Y-81164717D01*
X225777042Y-81171283D01*
X225635432Y-81274169D01*
X225625678Y-81282951D01*
X225508553Y-81413031D01*
X225500831Y-81423659D01*
X225413318Y-81575238D01*
X225407972Y-81587246D01*
X225353884Y-81753710D01*
X225351154Y-81766553D01*
X225337444Y-81896997D01*
X225337100Y-81903556D01*
X225337100Y-82062585D01*
X225341575Y-82077824D01*
X225342965Y-82079029D01*
X225350648Y-82080700D01*
X227109985Y-82080700D01*
X227125224Y-82076225D01*
X227126429Y-82074835D01*
X227128100Y-82067152D01*
X227128100Y-81903556D01*
X227127756Y-81896997D01*
X227114046Y-81766553D01*
X227111316Y-81753710D01*
X227057228Y-81587246D01*
X227051882Y-81575238D01*
X226964369Y-81423659D01*
X226956647Y-81413031D01*
X226839522Y-81282951D01*
X226829768Y-81274169D01*
X226688159Y-81171283D01*
X226676787Y-81164717D01*
X226565585Y-81115207D01*
X226511489Y-81069227D01*
X226490840Y-81001300D01*
X226510192Y-80932991D01*
X226563403Y-80885990D01*
X226616834Y-80874100D01*
X227302611Y-80874100D01*
X227370732Y-80894102D01*
X227417225Y-80947758D01*
X227428610Y-81000628D01*
X227419221Y-83233260D01*
X227403752Y-86911602D01*
X227383464Y-86979638D01*
X227329613Y-87025905D01*
X227259297Y-87035713D01*
X227194841Y-87005949D01*
X227188347Y-86999856D01*
X227127449Y-86938531D01*
X227127445Y-86938528D01*
X227122485Y-86933533D01*
X226978808Y-86842352D01*
X226886408Y-86809450D01*
X226828944Y-86767756D01*
X226803144Y-86701613D01*
X226803669Y-86674959D01*
X226826578Y-86493623D01*
X226826579Y-86493613D01*
X226827020Y-86490120D01*
X226827418Y-86461600D01*
X226807965Y-86263206D01*
X226792187Y-86210944D01*
X226752129Y-86078267D01*
X226750348Y-86072368D01*
X226692278Y-85963153D01*
X226659655Y-85901798D01*
X226659653Y-85901795D01*
X226656761Y-85896356D01*
X226652871Y-85891586D01*
X226652868Y-85891582D01*
X226534663Y-85746649D01*
X226534660Y-85746646D01*
X226530768Y-85741874D01*
X226377170Y-85614806D01*
X226347538Y-85598784D01*
X226297129Y-85548791D01*
X226281751Y-85479479D01*
X226296215Y-85428793D01*
X226299969Y-85421733D01*
X226346450Y-85305521D01*
X226347786Y-85291481D01*
X226342965Y-85288700D01*
X224131644Y-85288700D01*
X224118113Y-85292673D01*
X224116916Y-85300998D01*
X224126718Y-85336581D01*
X224131710Y-85349190D01*
X224151822Y-85387335D01*
X224165899Y-85456922D01*
X224140120Y-85523073D01*
X224082670Y-85564786D01*
X224040365Y-85572100D01*
X221425927Y-85572100D01*
X221357806Y-85552098D01*
X221311313Y-85498442D01*
X221301209Y-85428168D01*
X221308938Y-85399308D01*
X221346450Y-85305521D01*
X221347786Y-85291481D01*
X221342965Y-85288700D01*
X220104600Y-85288700D01*
X220036479Y-85268698D01*
X219989986Y-85215042D01*
X219978600Y-85162700D01*
X219978600Y-84762585D01*
X220486600Y-84762585D01*
X220491075Y-84777824D01*
X220492465Y-84779029D01*
X220500148Y-84780700D01*
X221333556Y-84780700D01*
X221343027Y-84777919D01*
X224117414Y-84777919D01*
X224122235Y-84780700D01*
X224960485Y-84780700D01*
X224975724Y-84776225D01*
X224976929Y-84774835D01*
X224978600Y-84767152D01*
X224978600Y-84762585D01*
X225486600Y-84762585D01*
X225491075Y-84777824D01*
X225492465Y-84779029D01*
X225500148Y-84780700D01*
X226333556Y-84780700D01*
X226347087Y-84776727D01*
X226348284Y-84768402D01*
X226338482Y-84732819D01*
X226333490Y-84720210D01*
X226255446Y-84572187D01*
X226247853Y-84560929D01*
X226139845Y-84433121D01*
X226130019Y-84423763D01*
X225997084Y-84322126D01*
X225985475Y-84315095D01*
X225833807Y-84244371D01*
X225820979Y-84240004D01*
X225656038Y-84203136D01*
X225646189Y-84201769D01*
X225643704Y-84201700D01*
X225504715Y-84201700D01*
X225489476Y-84206175D01*
X225488271Y-84207565D01*
X225486600Y-84215248D01*
X225486600Y-84762585D01*
X224978600Y-84762585D01*
X224978600Y-84219815D01*
X224974125Y-84204576D01*
X224972735Y-84203371D01*
X224965052Y-84201700D01*
X224865802Y-84201700D01*
X224858988Y-84202069D01*
X224734459Y-84215598D01*
X224721200Y-84218513D01*
X224562601Y-84271886D01*
X224550289Y-84277575D01*
X224406851Y-84363762D01*
X224396037Y-84371970D01*
X224274456Y-84486944D01*
X224265664Y-84497275D01*
X224171603Y-84635681D01*
X224165234Y-84647661D01*
X224118750Y-84763879D01*
X224117414Y-84777919D01*
X221343027Y-84777919D01*
X221347087Y-84776727D01*
X221348284Y-84768402D01*
X221338482Y-84732819D01*
X221333490Y-84720210D01*
X221255446Y-84572187D01*
X221247853Y-84560929D01*
X221139845Y-84433121D01*
X221130019Y-84423763D01*
X220997084Y-84322126D01*
X220985475Y-84315095D01*
X220833807Y-84244371D01*
X220820979Y-84240004D01*
X220656038Y-84203136D01*
X220646189Y-84201769D01*
X220643704Y-84201700D01*
X220504715Y-84201700D01*
X220489476Y-84206175D01*
X220488271Y-84207565D01*
X220486600Y-84215248D01*
X220486600Y-84762585D01*
X219978600Y-84762585D01*
X219978600Y-84219815D01*
X219974125Y-84204576D01*
X219972735Y-84203371D01*
X219965052Y-84201700D01*
X219865802Y-84201700D01*
X219858988Y-84202069D01*
X219734459Y-84215598D01*
X219721200Y-84218513D01*
X219562601Y-84271886D01*
X219550289Y-84277575D01*
X219406851Y-84363762D01*
X219396037Y-84371970D01*
X219274456Y-84486944D01*
X219265664Y-84497275D01*
X219171603Y-84635681D01*
X219165233Y-84647661D01*
X219145908Y-84695978D01*
X219102039Y-84751799D01*
X219034954Y-84775041D01*
X218965954Y-84758325D01*
X218939824Y-84738281D01*
X217319789Y-83118246D01*
X217306952Y-83103218D01*
X217298969Y-83092230D01*
X217287779Y-83082154D01*
X217249237Y-83047451D01*
X217244453Y-83042910D01*
X217230306Y-83028763D01*
X217214746Y-83016163D01*
X217209725Y-83011875D01*
X217164919Y-82971530D01*
X217164915Y-82971527D01*
X217160015Y-82967115D01*
X217154305Y-82963819D01*
X217154302Y-82963816D01*
X217148255Y-82960325D01*
X217131970Y-82949132D01*
X217121425Y-82940593D01*
X217061820Y-82910223D01*
X217056024Y-82907076D01*
X217048699Y-82902847D01*
X216998085Y-82873625D01*
X216985175Y-82869430D01*
X216966916Y-82861867D01*
X216954824Y-82855706D01*
X216890206Y-82838391D01*
X216883882Y-82836518D01*
X216843748Y-82823478D01*
X216820256Y-82815845D01*
X216813689Y-82815155D01*
X216813685Y-82815154D01*
X216808012Y-82814558D01*
X216806770Y-82814428D01*
X216787328Y-82810825D01*
X216774215Y-82807311D01*
X216767618Y-82806965D01*
X216767616Y-82806965D01*
X216707413Y-82803810D01*
X216700839Y-82803293D01*
X216684195Y-82801544D01*
X216684191Y-82801544D01*
X216680920Y-82801200D01*
X216660893Y-82801200D01*
X216654299Y-82801027D01*
X216594082Y-82797871D01*
X216594078Y-82797871D01*
X216587490Y-82797526D01*
X216580975Y-82798558D01*
X216580973Y-82798558D01*
X216574086Y-82799649D01*
X216554375Y-82801200D01*
X212801312Y-82801200D01*
X212733191Y-82781198D01*
X212719887Y-82765844D01*
X218337100Y-82765844D01*
X218337444Y-82772403D01*
X218351154Y-82902847D01*
X218353884Y-82915690D01*
X218407972Y-83082154D01*
X218413318Y-83094162D01*
X218500831Y-83245741D01*
X218508553Y-83256369D01*
X218625678Y-83386449D01*
X218635432Y-83395231D01*
X218777041Y-83498117D01*
X218788413Y-83504683D01*
X218948319Y-83575877D01*
X218960812Y-83579936D01*
X218960879Y-83579950D01*
X218974942Y-83578877D01*
X218978600Y-83568924D01*
X218978600Y-83565602D01*
X219486600Y-83565602D01*
X219490573Y-83579133D01*
X219501069Y-83580642D01*
X219504388Y-83579936D01*
X219516881Y-83575877D01*
X219676786Y-83504683D01*
X219688158Y-83498117D01*
X219829768Y-83395231D01*
X219839522Y-83386449D01*
X219956647Y-83256369D01*
X219964369Y-83245741D01*
X220051882Y-83094162D01*
X220057228Y-83082154D01*
X220111316Y-82915690D01*
X220114046Y-82902847D01*
X220127756Y-82772403D01*
X220128100Y-82765844D01*
X225337100Y-82765844D01*
X225337444Y-82772403D01*
X225351154Y-82902847D01*
X225353884Y-82915690D01*
X225407972Y-83082154D01*
X225413318Y-83094162D01*
X225500831Y-83245741D01*
X225508553Y-83256369D01*
X225625678Y-83386449D01*
X225635432Y-83395231D01*
X225777041Y-83498117D01*
X225788413Y-83504683D01*
X225948319Y-83575877D01*
X225960812Y-83579936D01*
X225960879Y-83579950D01*
X225974942Y-83578877D01*
X225978600Y-83568924D01*
X225978600Y-83565602D01*
X226486600Y-83565602D01*
X226490573Y-83579133D01*
X226501069Y-83580642D01*
X226504388Y-83579936D01*
X226516881Y-83575877D01*
X226676786Y-83504683D01*
X226688158Y-83498117D01*
X226829768Y-83395231D01*
X226839522Y-83386449D01*
X226956647Y-83256369D01*
X226964369Y-83245741D01*
X227051882Y-83094162D01*
X227057228Y-83082154D01*
X227111316Y-82915690D01*
X227114046Y-82902847D01*
X227127756Y-82772403D01*
X227128100Y-82765844D01*
X227128100Y-82606815D01*
X227123625Y-82591576D01*
X227122235Y-82590371D01*
X227114552Y-82588700D01*
X226504715Y-82588700D01*
X226489476Y-82593175D01*
X226488271Y-82594565D01*
X226486600Y-82602248D01*
X226486600Y-83565602D01*
X225978600Y-83565602D01*
X225978600Y-82606815D01*
X225974125Y-82591576D01*
X225972735Y-82590371D01*
X225965052Y-82588700D01*
X225355215Y-82588700D01*
X225339976Y-82593175D01*
X225338771Y-82594565D01*
X225337100Y-82602248D01*
X225337100Y-82765844D01*
X220128100Y-82765844D01*
X220128100Y-82606815D01*
X220123625Y-82591576D01*
X220122235Y-82590371D01*
X220114552Y-82588700D01*
X219504715Y-82588700D01*
X219489476Y-82593175D01*
X219488271Y-82594565D01*
X219486600Y-82602248D01*
X219486600Y-83565602D01*
X218978600Y-83565602D01*
X218978600Y-82606815D01*
X218974125Y-82591576D01*
X218972735Y-82590371D01*
X218965052Y-82588700D01*
X218355215Y-82588700D01*
X218339976Y-82593175D01*
X218338771Y-82594565D01*
X218337100Y-82602248D01*
X218337100Y-82765844D01*
X212719887Y-82765844D01*
X212686698Y-82727542D01*
X212675462Y-82681356D01*
X212675443Y-82680960D01*
X212675498Y-82677000D01*
X212665451Y-82587424D01*
X212657315Y-82514888D01*
X212657314Y-82514885D01*
X212656530Y-82507892D01*
X212600567Y-82347190D01*
X212594582Y-82337611D01*
X212514125Y-82208853D01*
X212510392Y-82202879D01*
X212438242Y-82130224D01*
X212395449Y-82087131D01*
X212395445Y-82087128D01*
X212390485Y-82082133D01*
X212246808Y-81990952D01*
X212086500Y-81933869D01*
X211917529Y-81913721D01*
X211910526Y-81914457D01*
X211910525Y-81914457D01*
X211755301Y-81930771D01*
X211755297Y-81930772D01*
X211748293Y-81931508D01*
X211741622Y-81933779D01*
X211593874Y-81984076D01*
X211593871Y-81984077D01*
X211587204Y-81986347D01*
X211581206Y-81990037D01*
X211581204Y-81990038D01*
X211573579Y-81994729D01*
X211442267Y-82075513D01*
X211437236Y-82080440D01*
X211437233Y-82080442D01*
X211381477Y-82135043D01*
X211320686Y-82194573D01*
X211228505Y-82337611D01*
X211226096Y-82344231D01*
X211226095Y-82344232D01*
X211208104Y-82393662D01*
X211170304Y-82497516D01*
X211148976Y-82666343D01*
X211149664Y-82673355D01*
X211149613Y-82676963D01*
X211128659Y-82744798D01*
X211074358Y-82790535D01*
X211023625Y-82801200D01*
X196090559Y-82801200D01*
X196022438Y-82781198D01*
X195975945Y-82727542D01*
X195965841Y-82657268D01*
X195972770Y-82630462D01*
X195989118Y-82587424D01*
X196012800Y-82418913D01*
X196013098Y-82397600D01*
X195994130Y-82228492D01*
X195938167Y-82067790D01*
X195932182Y-82058211D01*
X195851725Y-81929453D01*
X195847992Y-81923479D01*
X195762429Y-81837317D01*
X195733049Y-81807731D01*
X195733045Y-81807728D01*
X195728085Y-81802733D01*
X195584408Y-81711552D01*
X195424100Y-81654469D01*
X195255129Y-81634321D01*
X195248126Y-81635057D01*
X195248125Y-81635057D01*
X195092901Y-81651371D01*
X195092897Y-81651372D01*
X195085893Y-81652108D01*
X195079222Y-81654379D01*
X194931474Y-81704676D01*
X194931471Y-81704677D01*
X194924804Y-81706947D01*
X194918806Y-81710637D01*
X194918804Y-81710638D01*
X194897855Y-81723526D01*
X194779867Y-81796113D01*
X194774836Y-81801040D01*
X194774833Y-81801042D01*
X194719076Y-81855643D01*
X194658286Y-81915173D01*
X194566105Y-82058211D01*
X194563696Y-82064831D01*
X194563695Y-82064832D01*
X194518267Y-82189644D01*
X194507904Y-82218116D01*
X194486576Y-82386943D01*
X194503182Y-82556299D01*
X194505406Y-82562984D01*
X194505406Y-82562985D01*
X194506732Y-82566971D01*
X194527395Y-82629084D01*
X194529505Y-82635428D01*
X194532028Y-82706380D01*
X194495791Y-82767432D01*
X194432299Y-82799201D01*
X194409947Y-82801200D01*
X189597837Y-82801200D01*
X189529716Y-82781198D01*
X189483223Y-82727542D01*
X189473119Y-82657268D01*
X189502613Y-82592688D01*
X189533320Y-82566971D01*
X189558436Y-82551999D01*
X189558440Y-82551996D01*
X189564489Y-82548390D01*
X189569589Y-82543533D01*
X189569592Y-82543531D01*
X189627601Y-82488289D01*
X189687720Y-82431038D01*
X189698399Y-82414966D01*
X189777995Y-82295164D01*
X189781890Y-82289302D01*
X189784390Y-82282721D01*
X189839817Y-82136809D01*
X189839818Y-82136806D01*
X189842318Y-82130224D01*
X189866000Y-81961713D01*
X189866298Y-81940400D01*
X189851417Y-81807731D01*
X189848115Y-81778288D01*
X189848114Y-81778285D01*
X189847330Y-81771292D01*
X189791367Y-81610590D01*
X189774613Y-81583777D01*
X189704925Y-81472253D01*
X189701192Y-81466279D01*
X189633858Y-81398474D01*
X189586249Y-81350531D01*
X189586245Y-81350528D01*
X189581285Y-81345533D01*
X189437608Y-81254352D01*
X189277300Y-81197269D01*
X189108329Y-81177121D01*
X189101326Y-81177857D01*
X189101325Y-81177857D01*
X188946101Y-81194171D01*
X188946097Y-81194172D01*
X188939093Y-81194908D01*
X188932422Y-81197179D01*
X188784674Y-81247476D01*
X188784671Y-81247477D01*
X188778004Y-81249747D01*
X188772008Y-81253436D01*
X188771997Y-81253441D01*
X188656791Y-81324317D01*
X188590769Y-81343000D01*
X188261414Y-81343000D01*
X188244967Y-81341922D01*
X188222188Y-81338923D01*
X188214000Y-81337845D01*
X188174845Y-81343000D01*
X188058047Y-81358377D01*
X187912723Y-81418572D01*
X187900131Y-81428234D01*
X187800825Y-81504434D01*
X187787929Y-81514329D01*
X187781810Y-81522303D01*
X187780585Y-81523197D01*
X187777064Y-81526719D01*
X187776515Y-81526170D01*
X187724477Y-81564170D01*
X187681848Y-81571600D01*
X186997700Y-81571600D01*
X186930186Y-81551985D01*
X186827362Y-81486730D01*
X186827358Y-81486728D01*
X186821408Y-81482952D01*
X186661100Y-81425869D01*
X186492129Y-81405721D01*
X186485126Y-81406457D01*
X186485125Y-81406457D01*
X186329901Y-81422771D01*
X186329897Y-81422772D01*
X186322893Y-81423508D01*
X186316222Y-81425779D01*
X186168474Y-81476076D01*
X186168471Y-81476077D01*
X186161804Y-81478347D01*
X186155806Y-81482037D01*
X186155804Y-81482038D01*
X186119400Y-81504434D01*
X186016867Y-81567513D01*
X186011835Y-81572441D01*
X186011832Y-81572443D01*
X186000258Y-81583777D01*
X185937593Y-81617146D01*
X185866834Y-81611338D01*
X185844588Y-81600136D01*
X185785960Y-81562929D01*
X185785958Y-81562928D01*
X185780008Y-81559152D01*
X185619700Y-81502069D01*
X185450729Y-81481921D01*
X185443726Y-81482657D01*
X185443725Y-81482657D01*
X185288501Y-81498971D01*
X185288497Y-81498972D01*
X185281493Y-81499708D01*
X185274822Y-81501979D01*
X185127074Y-81552276D01*
X185127071Y-81552277D01*
X185120404Y-81554547D01*
X185114406Y-81558237D01*
X185114404Y-81558238D01*
X185086771Y-81575238D01*
X184975467Y-81643713D01*
X184970436Y-81648640D01*
X184970433Y-81648642D01*
X184964575Y-81654379D01*
X184853886Y-81762773D01*
X184761705Y-81905811D01*
X184759296Y-81912431D01*
X184759295Y-81912432D01*
X184705913Y-82059097D01*
X184703504Y-82065716D01*
X184682176Y-82234543D01*
X184698782Y-82403899D01*
X184752495Y-82565367D01*
X184779484Y-82609931D01*
X184797662Y-82678558D01*
X184775852Y-82746121D01*
X184720976Y-82791168D01*
X184671707Y-82801200D01*
X162267133Y-82801200D01*
X162199012Y-82781198D01*
X162178038Y-82764295D01*
X161273440Y-81859697D01*
X161241913Y-81807020D01*
X161220129Y-81734867D01*
X161218348Y-81728968D01*
X161155803Y-81611338D01*
X161127655Y-81558398D01*
X161127653Y-81558395D01*
X161124761Y-81552956D01*
X161120871Y-81548186D01*
X161120868Y-81548182D01*
X161002663Y-81403249D01*
X161002660Y-81403246D01*
X160998768Y-81398474D01*
X160845170Y-81271406D01*
X160669815Y-81176592D01*
X160488498Y-81120465D01*
X160429338Y-81081214D01*
X160400791Y-81016209D01*
X160411920Y-80946090D01*
X160459191Y-80893119D01*
X160525757Y-80874100D01*
X218848366Y-80874100D01*
X218916487Y-80894102D01*
G37*
%TD.AperFunction*%
%TD*%
%TA.AperFunction,Conductor*%
%TO.N,Earth*%
G36*
X236034621Y-80894102D02*
G01*
X236081114Y-80947758D01*
X236092500Y-81000100D01*
X236092500Y-109753900D01*
X236072498Y-109822021D01*
X236018842Y-109868514D01*
X235966500Y-109879900D01*
X227470099Y-109879900D01*
X227401978Y-109859898D01*
X227355485Y-109806242D01*
X227344109Y-109755459D01*
X227319273Y-107748767D01*
X227316925Y-107559044D01*
X227309263Y-106939933D01*
X231058222Y-106939933D01*
X231068025Y-107220658D01*
X231068787Y-107224981D01*
X231068788Y-107224988D01*
X231092564Y-107359824D01*
X231116802Y-107497287D01*
X231203603Y-107764435D01*
X231326740Y-108016902D01*
X231329195Y-108020541D01*
X231329198Y-108020547D01*
X231402290Y-108128910D01*
X231483815Y-108249776D01*
X231671771Y-108458522D01*
X231886950Y-108639079D01*
X232125164Y-108787931D01*
X232381775Y-108902182D01*
X232651790Y-108979607D01*
X232656140Y-108980218D01*
X232656143Y-108980219D01*
X232759090Y-108994687D01*
X232929952Y-109018700D01*
X233140546Y-109018700D01*
X233142732Y-109018547D01*
X233142736Y-109018547D01*
X233346227Y-109004318D01*
X233346232Y-109004317D01*
X233350612Y-109004011D01*
X233625370Y-108945609D01*
X233629499Y-108944106D01*
X233629503Y-108944105D01*
X233885181Y-108851046D01*
X233885185Y-108851044D01*
X233889326Y-108849537D01*
X234137342Y-108717664D01*
X234242296Y-108641411D01*
X234361029Y-108555147D01*
X234361032Y-108555144D01*
X234364592Y-108552558D01*
X234566652Y-108357431D01*
X234739588Y-108136082D01*
X234741784Y-108132278D01*
X234741789Y-108132271D01*
X234877835Y-107896631D01*
X234880036Y-107892819D01*
X234985262Y-107632376D01*
X235018944Y-107497287D01*
X235052153Y-107364093D01*
X235052154Y-107364088D01*
X235053217Y-107359824D01*
X235082578Y-107080467D01*
X235072775Y-106799742D01*
X235049008Y-106664949D01*
X235024760Y-106527436D01*
X235023998Y-106523113D01*
X234937197Y-106255965D01*
X234814060Y-106003498D01*
X234811605Y-105999859D01*
X234811602Y-105999853D01*
X234731335Y-105880853D01*
X234656985Y-105770624D01*
X234469029Y-105561878D01*
X234253850Y-105381321D01*
X234015636Y-105232469D01*
X233759025Y-105118218D01*
X233489010Y-105040793D01*
X233484660Y-105040182D01*
X233484657Y-105040181D01*
X233381710Y-105025713D01*
X233210848Y-105001700D01*
X233000254Y-105001700D01*
X232998068Y-105001853D01*
X232998064Y-105001853D01*
X232794573Y-105016082D01*
X232794568Y-105016083D01*
X232790188Y-105016389D01*
X232515430Y-105074791D01*
X232511301Y-105076294D01*
X232511297Y-105076295D01*
X232255619Y-105169354D01*
X232255615Y-105169356D01*
X232251474Y-105170863D01*
X232003458Y-105302736D01*
X231999899Y-105305322D01*
X231999897Y-105305323D01*
X231895295Y-105381321D01*
X231776208Y-105467842D01*
X231574148Y-105662969D01*
X231401212Y-105884318D01*
X231399016Y-105888122D01*
X231399011Y-105888129D01*
X231285194Y-106085267D01*
X231260764Y-106127581D01*
X231155538Y-106388024D01*
X231154473Y-106392297D01*
X231154472Y-106392299D01*
X231120779Y-106527436D01*
X231087583Y-106660576D01*
X231058222Y-106939933D01*
X227309263Y-106939933D01*
X227228400Y-100406200D01*
X227346995Y-100408588D01*
X227360031Y-100408850D01*
X227360033Y-100408851D01*
X229533760Y-100452617D01*
X231013000Y-100482400D01*
X231012049Y-100216076D01*
X230969872Y-88406444D01*
X230989630Y-88338252D01*
X231043120Y-88291568D01*
X231113357Y-88281213D01*
X231178043Y-88310475D01*
X231186493Y-88318453D01*
X231212256Y-88345131D01*
X231354646Y-88438309D01*
X231514142Y-88497625D01*
X231521123Y-88498556D01*
X231521125Y-88498557D01*
X231567226Y-88504708D01*
X231682815Y-88520131D01*
X231689826Y-88519493D01*
X231689830Y-88519493D01*
X231845261Y-88505347D01*
X231852282Y-88504708D01*
X231858984Y-88502530D01*
X231858986Y-88502530D01*
X232007423Y-88454300D01*
X232007426Y-88454299D01*
X232014122Y-88452123D01*
X232090749Y-88406444D01*
X232154234Y-88368600D01*
X232154237Y-88368598D01*
X232160289Y-88364990D01*
X232283520Y-88247638D01*
X232377690Y-88105902D01*
X232380190Y-88099321D01*
X232435617Y-87953409D01*
X232435618Y-87953406D01*
X232438118Y-87946824D01*
X232461800Y-87778313D01*
X232462098Y-87757000D01*
X232443130Y-87587892D01*
X232387167Y-87427190D01*
X232381182Y-87417611D01*
X232300725Y-87288853D01*
X232296992Y-87282879D01*
X232237038Y-87222506D01*
X232182049Y-87167131D01*
X232182045Y-87167128D01*
X232177085Y-87162133D01*
X232033408Y-87070952D01*
X231873100Y-87013869D01*
X231704129Y-86993721D01*
X231697126Y-86994457D01*
X231697125Y-86994457D01*
X231541901Y-87010771D01*
X231541897Y-87010772D01*
X231534893Y-87011508D01*
X231528222Y-87013779D01*
X231380474Y-87064076D01*
X231380471Y-87064077D01*
X231373804Y-87066347D01*
X231367806Y-87070037D01*
X231367804Y-87070038D01*
X231360179Y-87074729D01*
X231228867Y-87155513D01*
X231217003Y-87167131D01*
X231179413Y-87203941D01*
X231116747Y-87237311D01*
X231045989Y-87231505D01*
X230989602Y-87188365D01*
X230965490Y-87121588D01*
X230965257Y-87114367D01*
X230962265Y-86276517D01*
X230962265Y-86276516D01*
X230962200Y-86258400D01*
X227632139Y-86258400D01*
X227564018Y-86238398D01*
X227517525Y-86184742D01*
X227506150Y-86134072D01*
X227438022Y-81001772D01*
X227457118Y-80933392D01*
X227510152Y-80886191D01*
X227564011Y-80874100D01*
X235966500Y-80874100D01*
X236034621Y-80894102D01*
G37*
%TD.AperFunction*%
%TD*%
M02*
