%TF.GenerationSoftware,KiCad,Pcbnew,(6.0.9)*%
%TF.CreationDate,2022-12-21T09:32:13-07:00*%
%TF.ProjectId,Flight-Computer-Lite,466c6967-6874-42d4-936f-6d7075746572,rev?*%
%TF.SameCoordinates,Original*%
%TF.FileFunction,Copper,L2,Inr*%
%TF.FilePolarity,Positive*%
%FSLAX46Y46*%
G04 Gerber Fmt 4.6, Leading zero omitted, Abs format (unit mm)*
G04 Created by KiCad (PCBNEW (6.0.9)) date 2022-12-21 09:32:13*
%MOMM*%
%LPD*%
G01*
G04 APERTURE LIST*
%TA.AperFunction,ComponentPad*%
%ADD10C,1.066800*%
%TD*%
%TA.AperFunction,ComponentPad*%
%ADD11O,1.300000X0.650000*%
%TD*%
%TA.AperFunction,ComponentPad*%
%ADD12O,0.775000X1.550000*%
%TD*%
%TA.AperFunction,ComponentPad*%
%ADD13R,1.650000X1.650000*%
%TD*%
%TA.AperFunction,ComponentPad*%
%ADD14C,1.650000*%
%TD*%
%TA.AperFunction,ComponentPad*%
%ADD15C,1.701800*%
%TD*%
%TA.AperFunction,ComponentPad*%
%ADD16C,1.408000*%
%TD*%
%TA.AperFunction,ViaPad*%
%ADD17C,0.499999*%
%TD*%
%TA.AperFunction,ViaPad*%
%ADD18C,1.016000*%
%TD*%
G04 APERTURE END LIST*
D10*
%TO.N,3.3V*%
%TO.C,P2*%
X231230550Y-87706200D03*
X232500550Y-87706200D03*
%TO.N,Earth*%
X231230550Y-88976200D03*
X232500550Y-88976200D03*
X231230550Y-90246200D03*
X232500550Y-90246200D03*
%TO.N,SWDIO*%
X231230550Y-91516200D03*
%TO.N,Earth*%
X232500550Y-91516200D03*
%TO.N,SWCLK*%
X231230550Y-92786200D03*
%TO.N,Earth*%
X232500550Y-92786200D03*
%TO.N,unconnected-(P2-Pad11)*%
X231230550Y-94056200D03*
%TO.N,Earth*%
X232500550Y-94056200D03*
%TO.N,SWO*%
X231230550Y-95326200D03*
%TO.N,Earth*%
X232500550Y-95326200D03*
%TO.N,NRST*%
X231230550Y-96596200D03*
%TO.N,Earth*%
X232500550Y-96596200D03*
%TO.N,unconnected-(P2-Pad17)*%
X231230550Y-97866200D03*
%TO.N,Earth*%
X232500550Y-97866200D03*
%TO.N,unconnected-(P2-Pad19)*%
X231230550Y-99136200D03*
%TO.N,Earth*%
X232500550Y-99136200D03*
%TD*%
D11*
%TO.N,Earth*%
%TO.C,P3*%
X230185600Y-81021500D03*
D12*
X231185600Y-78321500D03*
X224185600Y-78321500D03*
D11*
X225185600Y-81021500D03*
%TD*%
D13*
%TO.N,/PIN_SCREW*%
%TO.C,P1*%
X156670400Y-85575200D03*
D14*
%TO.N,Earth*%
X156670400Y-89075200D03*
%TD*%
D15*
%TO.N,VIN*%
%TO.C,P4*%
X180758803Y-83500501D03*
%TO.N,VIN_SW*%
X177258800Y-83500501D03*
X173758799Y-83500501D03*
%TO.N,Net-(P4-Pad4)*%
X170258798Y-83500501D03*
%TO.N,VIN_SW*%
X166758798Y-83500501D03*
%TO.N,Net-(P4-Pad6)*%
X163258797Y-83500501D03*
%TD*%
D16*
%TO.N,BEEP*%
%TO.C,BZ1*%
X216265600Y-101625400D03*
%TO.N,Earth*%
X223865600Y-101625400D03*
%TD*%
D17*
%TO.N,Net-(P4-Pad4)*%
X171424600Y-98196400D03*
X171069000Y-95300800D03*
%TO.N,Net-(P4-Pad6)*%
X177596800Y-97713800D03*
%TO.N,NRST*%
X196146800Y-88688800D03*
%TO.N,Earth*%
X172999400Y-95351600D03*
X209959000Y-106403200D03*
X181559401Y-102463399D03*
X208026000Y-98247200D03*
X186588400Y-82423000D03*
X180009800Y-94513400D03*
X228066600Y-86995000D03*
X192938400Y-106095800D03*
D18*
X178257200Y-88595200D03*
D17*
X215747600Y-88188800D03*
X182092600Y-85953600D03*
X226034600Y-87985600D03*
X196621400Y-78968600D03*
X196742900Y-86695700D03*
X184886600Y-82042000D03*
X189128400Y-86461600D03*
X191211200Y-78232000D03*
D18*
X169011600Y-88646000D03*
D17*
X189877700Y-94932500D03*
X167640000Y-93116400D03*
X208014200Y-82688800D03*
X194501400Y-101103800D03*
X213055200Y-81915000D03*
X189992000Y-82067400D03*
X191832600Y-90691600D03*
D18*
X165468300Y-101942900D03*
D17*
%TO.N,3.3V*%
X188544200Y-83718400D03*
X182143400Y-92481400D03*
X194640200Y-103555800D03*
X195834000Y-87426800D03*
X192646800Y-92188800D03*
X208270800Y-95868800D03*
X192608200Y-79629000D03*
X227200400Y-93322200D03*
X176174400Y-96647000D03*
X226796600Y-103555800D03*
X217881200Y-84988400D03*
X204038200Y-102235000D03*
X163604000Y-85930800D03*
X167662800Y-94993400D03*
X183730000Y-78931400D03*
X188773800Y-79602600D03*
X210724000Y-82188800D03*
X196204500Y-97140100D03*
D18*
X159816800Y-97485200D03*
%TO.N,VIN*%
X221164430Y-77361770D03*
D17*
%TO.N,5V*%
X229717600Y-84328000D03*
X225272600Y-84353400D03*
%TO.N,/Peripherals/D-*%
X222846900Y-89928700D03*
X223926400Y-90957400D03*
%TO.N,SWDIO*%
X207137000Y-82854800D03*
%TO.N,SWCLK*%
X206578200Y-83540600D03*
%TO.N,SWO*%
X202692000Y-84201000D03*
%TO.N,Net-(P4-Pad4)*%
X171932600Y-92125800D03*
%TO.N,Net-(P4-Pad6)*%
X177825400Y-94335600D03*
%TO.N,USB_DETECT*%
X217525600Y-95580200D03*
X211404200Y-92151200D03*
%TO.N,FLASH_SCK*%
X208457800Y-102819200D03*
X209296000Y-100457000D03*
%TO.N,~{USB_RST}*%
X216989600Y-86007000D03*
X211048600Y-84429600D03*
%TO.N,VCOMP*%
X173278800Y-93040200D03*
X180111400Y-92608400D03*
X170383200Y-91516200D03*
%TO.N,~{SWITCH}*%
X183464200Y-91211400D03*
X202641200Y-82753200D03*
%TO.N,BP_SDA*%
X199204500Y-82440700D03*
X186639200Y-84658200D03*
%TO.N,~{MAIN_CONT}*%
X180543200Y-91694000D03*
X184353200Y-88696800D03*
%TO.N,~{DROGUE_CONT}*%
X184533600Y-94465200D03*
X196088000Y-86156800D03*
%TO.N,TX_USB*%
X216738200Y-93802200D03*
X219700000Y-94650400D03*
%TD*%
%TA.AperFunction,Conductor*%
%TO.N,Earth*%
G36*
X220107796Y-77033302D02*
G01*
X220154289Y-77086958D01*
X220164890Y-77153344D01*
X220151834Y-77269751D01*
X220143112Y-77347509D01*
X220159792Y-77546156D01*
X220214740Y-77737779D01*
X220305860Y-77915081D01*
X220429683Y-78071307D01*
X220581493Y-78200507D01*
X220586871Y-78203513D01*
X220586873Y-78203514D01*
X220628827Y-78226961D01*
X220755506Y-78297759D01*
X220761365Y-78299663D01*
X220761368Y-78299664D01*
X220797131Y-78311284D01*
X220945095Y-78359361D01*
X220951205Y-78360090D01*
X220951207Y-78360090D01*
X221018744Y-78368143D01*
X221143039Y-78382964D01*
X221149174Y-78382492D01*
X221149176Y-78382492D01*
X221335656Y-78368143D01*
X221335661Y-78368142D01*
X221341797Y-78367670D01*
X221347727Y-78366014D01*
X221347729Y-78366014D01*
X221437798Y-78340866D01*
X221533800Y-78314062D01*
X221539300Y-78311284D01*
X221706232Y-78226961D01*
X221706234Y-78226960D01*
X221711733Y-78224182D01*
X221868820Y-78101452D01*
X221892794Y-78073678D01*
X221995048Y-77955216D01*
X221995049Y-77955214D01*
X221999077Y-77950548D01*
X222097542Y-77777218D01*
X222160465Y-77588064D01*
X222166535Y-77540017D01*
X222185008Y-77393793D01*
X222185009Y-77393783D01*
X222185450Y-77390290D01*
X222185848Y-77361770D01*
X222166395Y-77163376D01*
X222166013Y-77162110D01*
X222172249Y-77093070D01*
X222215850Y-77037039D01*
X222289461Y-77013300D01*
X223541531Y-77013300D01*
X223609652Y-77033302D01*
X223656145Y-77086958D01*
X223666249Y-77157232D01*
X223636755Y-77221812D01*
X223615592Y-77241236D01*
X223588432Y-77260969D01*
X223578678Y-77269751D01*
X223461553Y-77399831D01*
X223453831Y-77410459D01*
X223366318Y-77562038D01*
X223360972Y-77574046D01*
X223306884Y-77740510D01*
X223304154Y-77753353D01*
X223290444Y-77883797D01*
X223290100Y-77890356D01*
X223290100Y-78049385D01*
X223294575Y-78064624D01*
X223295965Y-78065829D01*
X223303648Y-78067500D01*
X225062985Y-78067500D01*
X225078224Y-78063025D01*
X225079429Y-78061635D01*
X225081100Y-78053952D01*
X225081100Y-77890356D01*
X225080756Y-77883797D01*
X225067046Y-77753353D01*
X225064316Y-77740510D01*
X225010228Y-77574046D01*
X225004882Y-77562038D01*
X224917369Y-77410459D01*
X224909647Y-77399831D01*
X224792522Y-77269751D01*
X224782768Y-77260969D01*
X224755608Y-77241236D01*
X224712254Y-77185014D01*
X224706179Y-77114277D01*
X224739311Y-77051486D01*
X224801131Y-77016574D01*
X224829669Y-77013300D01*
X228865793Y-77013300D01*
X228933914Y-77033302D01*
X228980407Y-77086958D01*
X228991776Y-77137236D01*
X228993480Y-77241236D01*
X229059796Y-81289565D01*
X229059796Y-81289567D01*
X229080947Y-82580706D01*
X229101572Y-83839731D01*
X229101647Y-83844323D01*
X229081575Y-83914640D01*
X229033905Y-83988611D01*
X229031496Y-83995231D01*
X229031494Y-83995234D01*
X228984750Y-84123662D01*
X228975704Y-84148516D01*
X228954376Y-84317343D01*
X228970982Y-84486699D01*
X228973206Y-84493384D01*
X228973206Y-84493385D01*
X228982144Y-84520253D01*
X229024695Y-84648167D01*
X229028342Y-84654189D01*
X229028343Y-84654191D01*
X229099671Y-84771967D01*
X229117878Y-84835174D01*
X229482649Y-107102827D01*
X229482650Y-107102829D01*
X229528141Y-109879900D01*
X151459700Y-109879900D01*
X151391579Y-109859898D01*
X151345086Y-109806242D01*
X151333700Y-109753900D01*
X151333700Y-106711333D01*
X152216622Y-106711333D01*
X152226425Y-106992058D01*
X152227187Y-106996381D01*
X152227188Y-106996388D01*
X152250964Y-107131224D01*
X152275202Y-107268687D01*
X152362003Y-107535835D01*
X152485140Y-107788302D01*
X152487595Y-107791941D01*
X152487598Y-107791947D01*
X152560690Y-107900310D01*
X152642215Y-108021176D01*
X152830171Y-108229922D01*
X153045350Y-108410479D01*
X153283564Y-108559331D01*
X153540175Y-108673582D01*
X153810190Y-108751007D01*
X153814540Y-108751618D01*
X153814543Y-108751619D01*
X153917490Y-108766087D01*
X154088352Y-108790100D01*
X154298946Y-108790100D01*
X154301132Y-108789947D01*
X154301136Y-108789947D01*
X154504627Y-108775718D01*
X154504632Y-108775717D01*
X154509012Y-108775411D01*
X154783770Y-108717009D01*
X154787899Y-108715506D01*
X154787903Y-108715505D01*
X155043581Y-108622446D01*
X155043585Y-108622444D01*
X155047726Y-108620937D01*
X155295742Y-108489064D01*
X155400696Y-108412811D01*
X155519429Y-108326547D01*
X155519432Y-108326544D01*
X155522992Y-108323958D01*
X155725052Y-108128831D01*
X155897988Y-107907482D01*
X155900184Y-107903678D01*
X155900189Y-107903671D01*
X156036235Y-107668031D01*
X156038436Y-107664219D01*
X156143662Y-107403776D01*
X156177344Y-107268687D01*
X156210553Y-107135493D01*
X156210554Y-107135488D01*
X156211617Y-107131224D01*
X156214602Y-107102829D01*
X156240519Y-106856236D01*
X156240519Y-106856233D01*
X156240978Y-106851867D01*
X156231175Y-106571142D01*
X156207408Y-106436349D01*
X156183160Y-106298836D01*
X156182398Y-106294513D01*
X156095597Y-106027365D01*
X155972460Y-105774898D01*
X155970005Y-105771259D01*
X155970002Y-105771253D01*
X155889735Y-105652253D01*
X155815385Y-105542024D01*
X155627429Y-105333278D01*
X155412250Y-105152721D01*
X155174036Y-105003869D01*
X154917425Y-104889618D01*
X154647410Y-104812193D01*
X154643060Y-104811582D01*
X154643057Y-104811581D01*
X154540110Y-104797113D01*
X154369248Y-104773100D01*
X154158654Y-104773100D01*
X154156468Y-104773253D01*
X154156464Y-104773253D01*
X153952973Y-104787482D01*
X153952968Y-104787483D01*
X153948588Y-104787789D01*
X153673830Y-104846191D01*
X153669701Y-104847694D01*
X153669697Y-104847695D01*
X153414019Y-104940754D01*
X153414015Y-104940756D01*
X153409874Y-104942263D01*
X153161858Y-105074136D01*
X153158299Y-105076722D01*
X153158297Y-105076723D01*
X153053695Y-105152721D01*
X152934608Y-105239242D01*
X152732548Y-105434369D01*
X152559612Y-105655718D01*
X152557416Y-105659522D01*
X152557411Y-105659529D01*
X152443594Y-105856668D01*
X152419164Y-105898981D01*
X152313938Y-106159424D01*
X152312873Y-106163697D01*
X152312872Y-106163699D01*
X152279179Y-106298836D01*
X152245983Y-106431976D01*
X152216622Y-106711333D01*
X151333700Y-106711333D01*
X151333700Y-103545143D01*
X193876976Y-103545143D01*
X193893582Y-103714499D01*
X193947295Y-103875967D01*
X193950942Y-103881989D01*
X193950943Y-103881991D01*
X193968248Y-103910564D01*
X194035447Y-104021523D01*
X194040343Y-104026593D01*
X194059507Y-104046438D01*
X194153656Y-104143931D01*
X194296046Y-104237109D01*
X194455542Y-104296425D01*
X194462523Y-104297356D01*
X194462525Y-104297357D01*
X194508626Y-104303508D01*
X194624215Y-104318931D01*
X194631226Y-104318293D01*
X194631230Y-104318293D01*
X194786661Y-104304147D01*
X194793682Y-104303508D01*
X194800384Y-104301330D01*
X194800386Y-104301330D01*
X194948823Y-104253100D01*
X194948826Y-104253099D01*
X194955522Y-104250923D01*
X195027267Y-104208154D01*
X195095634Y-104167400D01*
X195095637Y-104167398D01*
X195101689Y-104163790D01*
X195224920Y-104046438D01*
X195319090Y-103904702D01*
X195327717Y-103881991D01*
X195377017Y-103752209D01*
X195377018Y-103752206D01*
X195379518Y-103745624D01*
X195403200Y-103577113D01*
X195403498Y-103555800D01*
X195394177Y-103472695D01*
X195385315Y-103393688D01*
X195385314Y-103393685D01*
X195384530Y-103386692D01*
X195328567Y-103225990D01*
X195322582Y-103216411D01*
X195242125Y-103087653D01*
X195238392Y-103081679D01*
X195166242Y-103009024D01*
X195123449Y-102965931D01*
X195123445Y-102965928D01*
X195118485Y-102960933D01*
X194974808Y-102869752D01*
X194814500Y-102812669D01*
X194645529Y-102792521D01*
X194638526Y-102793257D01*
X194638525Y-102793257D01*
X194483301Y-102809571D01*
X194483297Y-102809572D01*
X194476293Y-102810308D01*
X194469622Y-102812579D01*
X194321874Y-102862876D01*
X194321871Y-102862877D01*
X194315204Y-102865147D01*
X194309206Y-102868837D01*
X194309204Y-102868838D01*
X194301579Y-102873529D01*
X194170267Y-102954313D01*
X194165236Y-102959240D01*
X194165233Y-102959242D01*
X194109476Y-103013843D01*
X194048686Y-103073373D01*
X193956505Y-103216411D01*
X193954096Y-103223031D01*
X193954095Y-103223032D01*
X193929723Y-103289993D01*
X193898304Y-103376316D01*
X193876976Y-103545143D01*
X151333700Y-103545143D01*
X151333700Y-102224343D01*
X203274976Y-102224343D01*
X203291582Y-102393699D01*
X203345295Y-102555167D01*
X203348942Y-102561189D01*
X203348943Y-102561191D01*
X203366248Y-102589764D01*
X203433447Y-102700723D01*
X203438343Y-102705793D01*
X203457507Y-102725638D01*
X203551656Y-102823131D01*
X203694046Y-102916309D01*
X203853542Y-102975625D01*
X203860523Y-102976556D01*
X203860525Y-102976557D01*
X203906626Y-102982708D01*
X204022215Y-102998131D01*
X204029226Y-102997493D01*
X204029230Y-102997493D01*
X204184661Y-102983347D01*
X204191682Y-102982708D01*
X204198384Y-102980530D01*
X204198386Y-102980530D01*
X204346823Y-102932300D01*
X204346826Y-102932299D01*
X204353522Y-102930123D01*
X204425267Y-102887354D01*
X204493634Y-102846600D01*
X204493637Y-102846598D01*
X204499689Y-102842990D01*
X204535862Y-102808543D01*
X207694576Y-102808543D01*
X207711182Y-102977899D01*
X207764895Y-103139367D01*
X207768542Y-103145389D01*
X207768543Y-103145391D01*
X207785848Y-103173964D01*
X207853047Y-103284923D01*
X207857943Y-103289993D01*
X207877107Y-103309838D01*
X207971256Y-103407331D01*
X208113646Y-103500509D01*
X208273142Y-103559825D01*
X208280123Y-103560756D01*
X208280125Y-103560757D01*
X208326226Y-103566908D01*
X208441815Y-103582331D01*
X208448826Y-103581693D01*
X208448830Y-103581693D01*
X208604261Y-103567547D01*
X208611282Y-103566908D01*
X208617984Y-103564730D01*
X208617986Y-103564730D01*
X208678269Y-103545143D01*
X226033376Y-103545143D01*
X226049982Y-103714499D01*
X226103695Y-103875967D01*
X226107342Y-103881989D01*
X226107343Y-103881991D01*
X226124648Y-103910564D01*
X226191847Y-104021523D01*
X226196743Y-104026593D01*
X226215907Y-104046438D01*
X226310056Y-104143931D01*
X226452446Y-104237109D01*
X226611942Y-104296425D01*
X226618923Y-104297356D01*
X226618925Y-104297357D01*
X226665026Y-104303508D01*
X226780615Y-104318931D01*
X226787626Y-104318293D01*
X226787630Y-104318293D01*
X226943061Y-104304147D01*
X226950082Y-104303508D01*
X226956784Y-104301330D01*
X226956786Y-104301330D01*
X227105223Y-104253100D01*
X227105226Y-104253099D01*
X227111922Y-104250923D01*
X227183667Y-104208154D01*
X227252034Y-104167400D01*
X227252037Y-104167398D01*
X227258089Y-104163790D01*
X227381320Y-104046438D01*
X227475490Y-103904702D01*
X227484117Y-103881991D01*
X227533417Y-103752209D01*
X227533418Y-103752206D01*
X227535918Y-103745624D01*
X227559600Y-103577113D01*
X227559898Y-103555800D01*
X227550577Y-103472695D01*
X227541715Y-103393688D01*
X227541714Y-103393685D01*
X227540930Y-103386692D01*
X227484967Y-103225990D01*
X227478982Y-103216411D01*
X227398525Y-103087653D01*
X227394792Y-103081679D01*
X227322642Y-103009024D01*
X227279849Y-102965931D01*
X227279845Y-102965928D01*
X227274885Y-102960933D01*
X227131208Y-102869752D01*
X226970900Y-102812669D01*
X226801929Y-102792521D01*
X226794926Y-102793257D01*
X226794925Y-102793257D01*
X226639701Y-102809571D01*
X226639697Y-102809572D01*
X226632693Y-102810308D01*
X226626022Y-102812579D01*
X226478274Y-102862876D01*
X226478271Y-102862877D01*
X226471604Y-102865147D01*
X226465606Y-102868837D01*
X226465604Y-102868838D01*
X226457979Y-102873529D01*
X226326667Y-102954313D01*
X226321636Y-102959240D01*
X226321633Y-102959242D01*
X226265876Y-103013843D01*
X226205086Y-103073373D01*
X226112905Y-103216411D01*
X226110496Y-103223031D01*
X226110495Y-103223032D01*
X226086123Y-103289993D01*
X226054704Y-103376316D01*
X226033376Y-103545143D01*
X208678269Y-103545143D01*
X208766423Y-103516500D01*
X208766426Y-103516499D01*
X208773122Y-103514323D01*
X208844867Y-103471554D01*
X208913234Y-103430800D01*
X208913237Y-103430798D01*
X208919289Y-103427190D01*
X209042520Y-103309838D01*
X209136690Y-103168102D01*
X209145317Y-103145391D01*
X209194617Y-103015609D01*
X209194618Y-103015606D01*
X209197118Y-103009024D01*
X209220800Y-102840513D01*
X209221024Y-102824520D01*
X209221043Y-102823161D01*
X209221043Y-102823155D01*
X209221098Y-102819200D01*
X209202130Y-102650092D01*
X209146167Y-102489390D01*
X209140182Y-102479811D01*
X209059725Y-102351053D01*
X209055992Y-102345079D01*
X208967843Y-102256313D01*
X208941049Y-102229331D01*
X208941045Y-102229328D01*
X208936085Y-102224333D01*
X208792408Y-102133152D01*
X208632100Y-102076069D01*
X208463129Y-102055921D01*
X208456126Y-102056657D01*
X208456125Y-102056657D01*
X208300901Y-102072971D01*
X208300897Y-102072972D01*
X208293893Y-102073708D01*
X208287222Y-102075979D01*
X208139474Y-102126276D01*
X208139471Y-102126277D01*
X208132804Y-102128547D01*
X208126806Y-102132237D01*
X208126804Y-102132238D01*
X208119179Y-102136929D01*
X207987867Y-102217713D01*
X207982836Y-102222640D01*
X207982833Y-102222642D01*
X207944457Y-102260223D01*
X207866286Y-102336773D01*
X207774105Y-102479811D01*
X207771696Y-102486431D01*
X207771695Y-102486432D01*
X207744578Y-102560936D01*
X207715904Y-102639716D01*
X207694576Y-102808543D01*
X204535862Y-102808543D01*
X204622920Y-102725638D01*
X204670153Y-102654548D01*
X204713195Y-102589764D01*
X204717090Y-102583902D01*
X204727014Y-102557777D01*
X204775017Y-102431409D01*
X204775018Y-102431406D01*
X204777518Y-102424824D01*
X204801200Y-102256313D01*
X204801498Y-102235000D01*
X204783672Y-102076069D01*
X204783315Y-102072888D01*
X204783314Y-102072885D01*
X204782530Y-102065892D01*
X204726567Y-101905190D01*
X204720582Y-101895611D01*
X204640125Y-101766853D01*
X204636392Y-101760879D01*
X204576439Y-101700506D01*
X204521449Y-101645131D01*
X204521445Y-101645128D01*
X204516485Y-101640133D01*
X204493270Y-101625400D01*
X215048468Y-101625400D01*
X215066959Y-101836753D01*
X215068383Y-101842066D01*
X215068383Y-101842068D01*
X215085297Y-101905190D01*
X215121870Y-102041684D01*
X215124192Y-102046664D01*
X215124193Y-102046666D01*
X215209207Y-102228979D01*
X215209210Y-102228984D01*
X215211533Y-102233966D01*
X215242351Y-102277978D01*
X215318472Y-102386690D01*
X215333223Y-102407757D01*
X215483243Y-102557777D01*
X215487751Y-102560934D01*
X215487754Y-102560936D01*
X215520553Y-102583902D01*
X215657034Y-102679467D01*
X215662016Y-102681790D01*
X215662021Y-102681793D01*
X215843318Y-102766333D01*
X215849316Y-102769130D01*
X215854624Y-102770552D01*
X215854626Y-102770553D01*
X216048932Y-102822617D01*
X216048934Y-102822617D01*
X216054247Y-102824041D01*
X216265600Y-102842532D01*
X216476953Y-102824041D01*
X216482266Y-102822617D01*
X216482268Y-102822617D01*
X216676574Y-102770553D01*
X216676576Y-102770552D01*
X216681884Y-102769130D01*
X216687882Y-102766333D01*
X216869179Y-102681793D01*
X216869184Y-102681790D01*
X216874166Y-102679467D01*
X216926913Y-102642533D01*
X223213022Y-102642533D01*
X223222318Y-102654548D01*
X223252776Y-102675875D01*
X223262272Y-102681358D01*
X223444503Y-102766333D01*
X223454799Y-102770081D01*
X223649024Y-102822124D01*
X223659811Y-102824026D01*
X223860125Y-102841551D01*
X223871075Y-102841551D01*
X224071389Y-102824026D01*
X224082176Y-102822124D01*
X224276401Y-102770081D01*
X224286697Y-102766333D01*
X224468928Y-102681358D01*
X224478424Y-102675875D01*
X224509720Y-102653961D01*
X224518095Y-102643484D01*
X224511026Y-102630036D01*
X223878412Y-101997422D01*
X223864468Y-101989808D01*
X223862635Y-101989939D01*
X223856020Y-101994190D01*
X223219452Y-102630758D01*
X223213022Y-102642533D01*
X216926913Y-102642533D01*
X217010647Y-102583902D01*
X217043446Y-102560936D01*
X217043449Y-102560934D01*
X217047957Y-102557777D01*
X217197977Y-102407757D01*
X217212729Y-102386690D01*
X217288849Y-102277978D01*
X217319667Y-102233966D01*
X217321990Y-102228984D01*
X217321993Y-102228979D01*
X217407007Y-102046666D01*
X217407008Y-102046664D01*
X217409330Y-102041684D01*
X217445904Y-101905190D01*
X217462817Y-101842068D01*
X217462817Y-101842066D01*
X217464241Y-101836753D01*
X217482253Y-101630875D01*
X222649449Y-101630875D01*
X222666974Y-101831189D01*
X222668876Y-101841976D01*
X222720919Y-102036201D01*
X222724667Y-102046497D01*
X222809642Y-102228728D01*
X222815125Y-102238224D01*
X222837039Y-102269520D01*
X222847516Y-102277895D01*
X222860964Y-102270826D01*
X223493578Y-101638212D01*
X223499956Y-101626532D01*
X224230008Y-101626532D01*
X224230139Y-101628365D01*
X224234390Y-101634980D01*
X224870958Y-102271548D01*
X224882733Y-102277978D01*
X224894748Y-102268682D01*
X224916075Y-102238224D01*
X224921558Y-102228728D01*
X225006533Y-102046497D01*
X225010281Y-102036201D01*
X225062324Y-101841976D01*
X225064226Y-101831189D01*
X225081751Y-101630875D01*
X225081751Y-101619925D01*
X225064226Y-101419611D01*
X225062324Y-101408824D01*
X225010281Y-101214599D01*
X225006533Y-101204303D01*
X224921558Y-101022072D01*
X224916075Y-101012576D01*
X224894161Y-100981280D01*
X224883684Y-100972905D01*
X224870236Y-100979974D01*
X224237622Y-101612588D01*
X224230008Y-101626532D01*
X223499956Y-101626532D01*
X223501192Y-101624268D01*
X223501061Y-101622435D01*
X223496810Y-101615820D01*
X222860242Y-100979252D01*
X222848467Y-100972822D01*
X222836452Y-100982118D01*
X222815125Y-101012576D01*
X222809642Y-101022072D01*
X222724667Y-101204303D01*
X222720919Y-101214599D01*
X222668876Y-101408824D01*
X222666974Y-101419611D01*
X222649449Y-101619925D01*
X222649449Y-101630875D01*
X217482253Y-101630875D01*
X217482732Y-101625400D01*
X217464241Y-101414047D01*
X217421190Y-101253378D01*
X217410753Y-101214426D01*
X217410752Y-101214424D01*
X217409330Y-101209116D01*
X217381072Y-101148516D01*
X217321993Y-101021821D01*
X217321990Y-101021816D01*
X217319667Y-101016834D01*
X217197977Y-100843043D01*
X217047957Y-100693023D01*
X217043449Y-100689866D01*
X217043446Y-100689864D01*
X216947076Y-100622385D01*
X216925555Y-100607316D01*
X223213105Y-100607316D01*
X223220174Y-100620764D01*
X223852788Y-101253378D01*
X223866732Y-101260992D01*
X223868565Y-101260861D01*
X223875180Y-101256610D01*
X224511748Y-100620042D01*
X224518178Y-100608267D01*
X224508882Y-100596252D01*
X224478424Y-100574925D01*
X224468928Y-100569442D01*
X224286697Y-100484467D01*
X224276401Y-100480719D01*
X224082176Y-100428676D01*
X224071389Y-100426774D01*
X223871075Y-100409249D01*
X223860125Y-100409249D01*
X223659811Y-100426774D01*
X223649024Y-100428676D01*
X223454799Y-100480719D01*
X223444503Y-100484467D01*
X223262272Y-100569442D01*
X223252776Y-100574925D01*
X223221480Y-100596839D01*
X223213105Y-100607316D01*
X216925555Y-100607316D01*
X216874166Y-100571333D01*
X216869184Y-100569010D01*
X216869179Y-100569007D01*
X216686866Y-100483993D01*
X216686864Y-100483992D01*
X216681884Y-100481670D01*
X216676576Y-100480248D01*
X216676574Y-100480247D01*
X216482268Y-100428183D01*
X216482266Y-100428183D01*
X216476953Y-100426759D01*
X216265600Y-100408268D01*
X216054247Y-100426759D01*
X216048934Y-100428183D01*
X216048932Y-100428183D01*
X215854626Y-100480247D01*
X215854624Y-100480248D01*
X215849316Y-100481670D01*
X215844336Y-100483992D01*
X215844334Y-100483993D01*
X215662021Y-100569007D01*
X215662016Y-100569010D01*
X215657034Y-100571333D01*
X215584124Y-100622385D01*
X215487754Y-100689864D01*
X215487751Y-100689866D01*
X215483243Y-100693023D01*
X215333223Y-100843043D01*
X215211533Y-101016834D01*
X215209210Y-101021816D01*
X215209207Y-101021821D01*
X215150128Y-101148516D01*
X215121870Y-101209116D01*
X215120448Y-101214424D01*
X215120447Y-101214426D01*
X215110010Y-101253378D01*
X215066959Y-101414047D01*
X215048468Y-101625400D01*
X204493270Y-101625400D01*
X204372808Y-101548952D01*
X204212500Y-101491869D01*
X204043529Y-101471721D01*
X204036526Y-101472457D01*
X204036525Y-101472457D01*
X203881301Y-101488771D01*
X203881297Y-101488772D01*
X203874293Y-101489508D01*
X203867622Y-101491779D01*
X203719874Y-101542076D01*
X203719871Y-101542077D01*
X203713204Y-101544347D01*
X203707206Y-101548037D01*
X203707204Y-101548038D01*
X203699579Y-101552729D01*
X203568267Y-101633513D01*
X203563236Y-101638440D01*
X203563233Y-101638442D01*
X203507477Y-101693043D01*
X203446686Y-101752573D01*
X203354505Y-101895611D01*
X203352096Y-101902231D01*
X203352095Y-101902232D01*
X203303334Y-102036201D01*
X203296304Y-102055516D01*
X203274976Y-102224343D01*
X151333700Y-102224343D01*
X151333700Y-100446343D01*
X208532776Y-100446343D01*
X208549382Y-100615699D01*
X208603095Y-100777167D01*
X208606742Y-100783189D01*
X208606743Y-100783191D01*
X208624048Y-100811764D01*
X208691247Y-100922723D01*
X208696143Y-100927793D01*
X208715307Y-100947638D01*
X208809456Y-101045131D01*
X208951846Y-101138309D01*
X209111342Y-101197625D01*
X209118323Y-101198556D01*
X209118325Y-101198557D01*
X209164426Y-101204708D01*
X209280015Y-101220131D01*
X209287026Y-101219493D01*
X209287030Y-101219493D01*
X209442461Y-101205347D01*
X209449482Y-101204708D01*
X209456184Y-101202530D01*
X209456186Y-101202530D01*
X209604623Y-101154300D01*
X209604626Y-101154299D01*
X209611322Y-101152123D01*
X209683067Y-101109354D01*
X209751434Y-101068600D01*
X209751437Y-101068598D01*
X209757489Y-101064990D01*
X209880720Y-100947638D01*
X209974890Y-100805902D01*
X209983517Y-100783191D01*
X210032817Y-100653409D01*
X210032818Y-100653406D01*
X210035318Y-100646824D01*
X210059000Y-100478313D01*
X210059298Y-100457000D01*
X210040330Y-100287892D01*
X209984367Y-100127190D01*
X209978382Y-100117611D01*
X209897925Y-99988853D01*
X209894192Y-99982879D01*
X209834238Y-99922506D01*
X209779249Y-99867131D01*
X209779245Y-99867128D01*
X209774285Y-99862133D01*
X209630608Y-99770952D01*
X209470300Y-99713869D01*
X209301329Y-99693721D01*
X209294326Y-99694457D01*
X209294325Y-99694457D01*
X209139101Y-99710771D01*
X209139097Y-99710772D01*
X209132093Y-99711508D01*
X209125422Y-99713779D01*
X208977674Y-99764076D01*
X208977671Y-99764077D01*
X208971004Y-99766347D01*
X208965006Y-99770037D01*
X208965004Y-99770038D01*
X208957379Y-99774729D01*
X208826067Y-99855513D01*
X208821036Y-99860440D01*
X208821033Y-99860442D01*
X208765277Y-99915043D01*
X208704486Y-99974573D01*
X208612305Y-100117611D01*
X208609896Y-100124231D01*
X208609895Y-100124232D01*
X208606396Y-100133845D01*
X208554104Y-100277516D01*
X208532776Y-100446343D01*
X151333700Y-100446343D01*
X151333700Y-97470939D01*
X158795482Y-97470939D01*
X158812162Y-97669586D01*
X158828985Y-97728253D01*
X158860283Y-97837400D01*
X158867110Y-97861209D01*
X158877140Y-97880725D01*
X158949047Y-98020642D01*
X158958230Y-98038511D01*
X159082053Y-98194737D01*
X159233863Y-98323937D01*
X159239241Y-98326943D01*
X159239243Y-98326944D01*
X159345313Y-98386224D01*
X159407876Y-98421189D01*
X159413735Y-98423093D01*
X159413738Y-98423094D01*
X159449501Y-98434714D01*
X159597465Y-98482791D01*
X159603575Y-98483520D01*
X159603577Y-98483520D01*
X159671114Y-98491573D01*
X159795409Y-98506394D01*
X159801544Y-98505922D01*
X159801546Y-98505922D01*
X159988026Y-98491573D01*
X159988031Y-98491572D01*
X159994167Y-98491100D01*
X160000097Y-98489444D01*
X160000099Y-98489444D01*
X160107955Y-98459330D01*
X160186170Y-98437492D01*
X160191670Y-98434714D01*
X160358602Y-98350391D01*
X160358604Y-98350390D01*
X160364103Y-98347612D01*
X160521190Y-98224882D01*
X160530785Y-98213766D01*
X160554974Y-98185743D01*
X170661376Y-98185743D01*
X170677982Y-98355099D01*
X170731695Y-98516567D01*
X170735342Y-98522589D01*
X170735343Y-98522591D01*
X170752648Y-98551164D01*
X170819847Y-98662123D01*
X170824743Y-98667193D01*
X170843907Y-98687038D01*
X170938056Y-98784531D01*
X171080446Y-98877709D01*
X171239942Y-98937025D01*
X171246923Y-98937956D01*
X171246925Y-98937957D01*
X171293026Y-98944108D01*
X171408615Y-98959531D01*
X171415626Y-98958893D01*
X171415630Y-98958893D01*
X171571061Y-98944747D01*
X171578082Y-98944108D01*
X171584784Y-98941930D01*
X171584786Y-98941930D01*
X171733223Y-98893700D01*
X171733226Y-98893699D01*
X171739922Y-98891523D01*
X171811667Y-98848754D01*
X171880034Y-98808000D01*
X171880037Y-98807998D01*
X171886089Y-98804390D01*
X172009320Y-98687038D01*
X172103490Y-98545302D01*
X172112117Y-98522591D01*
X172161417Y-98392809D01*
X172161418Y-98392806D01*
X172163918Y-98386224D01*
X172187600Y-98217713D01*
X172187898Y-98196400D01*
X172170730Y-98043339D01*
X172169715Y-98034288D01*
X172169714Y-98034285D01*
X172168930Y-98027292D01*
X172112967Y-97866590D01*
X172106982Y-97857011D01*
X172026525Y-97728253D01*
X172022792Y-97722279D01*
X172003789Y-97703143D01*
X176833576Y-97703143D01*
X176850182Y-97872499D01*
X176852406Y-97879184D01*
X176852406Y-97879185D01*
X176855487Y-97888447D01*
X176903895Y-98033967D01*
X176907542Y-98039989D01*
X176907543Y-98039991D01*
X176968668Y-98140920D01*
X176992047Y-98179523D01*
X176996943Y-98184593D01*
X177010597Y-98198732D01*
X177110256Y-98301931D01*
X177252646Y-98395109D01*
X177412142Y-98454425D01*
X177419123Y-98455356D01*
X177419125Y-98455357D01*
X177465226Y-98461508D01*
X177580815Y-98476931D01*
X177587826Y-98476293D01*
X177587830Y-98476293D01*
X177743261Y-98462147D01*
X177750282Y-98461508D01*
X177756984Y-98459330D01*
X177756986Y-98459330D01*
X177905423Y-98411100D01*
X177905426Y-98411099D01*
X177912122Y-98408923D01*
X178002413Y-98355099D01*
X178052234Y-98325400D01*
X178052237Y-98325398D01*
X178058289Y-98321790D01*
X178181520Y-98204438D01*
X178186861Y-98196400D01*
X178271795Y-98068564D01*
X178275690Y-98062702D01*
X178284879Y-98038511D01*
X178333617Y-97910209D01*
X178333618Y-97910206D01*
X178336118Y-97903624D01*
X178359800Y-97735113D01*
X178359967Y-97723162D01*
X178360043Y-97717761D01*
X178360043Y-97717755D01*
X178360098Y-97713800D01*
X178350124Y-97624873D01*
X178341915Y-97551688D01*
X178341914Y-97551685D01*
X178341130Y-97544692D01*
X178285167Y-97383990D01*
X178279182Y-97374411D01*
X178198725Y-97245653D01*
X178194992Y-97239679D01*
X178117270Y-97161413D01*
X178085523Y-97129443D01*
X195441276Y-97129443D01*
X195457882Y-97298799D01*
X195460106Y-97305484D01*
X195460106Y-97305485D01*
X195467699Y-97328309D01*
X195511595Y-97460267D01*
X195515242Y-97466289D01*
X195515243Y-97466291D01*
X195552432Y-97527697D01*
X195599747Y-97605823D01*
X195604643Y-97610893D01*
X195623807Y-97630738D01*
X195717956Y-97728231D01*
X195860346Y-97821409D01*
X196019842Y-97880725D01*
X196026823Y-97881656D01*
X196026825Y-97881657D01*
X196072926Y-97887808D01*
X196188515Y-97903231D01*
X196195526Y-97902593D01*
X196195530Y-97902593D01*
X196350961Y-97888447D01*
X196357982Y-97887808D01*
X196364684Y-97885630D01*
X196364686Y-97885630D01*
X196513123Y-97837400D01*
X196513126Y-97837399D01*
X196519822Y-97835223D01*
X196591567Y-97792454D01*
X196659934Y-97751700D01*
X196659937Y-97751698D01*
X196665989Y-97748090D01*
X196789220Y-97630738D01*
X196809748Y-97599842D01*
X196864644Y-97517216D01*
X196883390Y-97489002D01*
X196887918Y-97477083D01*
X196941317Y-97336509D01*
X196941318Y-97336506D01*
X196943818Y-97329924D01*
X196967500Y-97161413D01*
X196967798Y-97140100D01*
X196955620Y-97031529D01*
X196949615Y-96977988D01*
X196949614Y-96977985D01*
X196948830Y-96970992D01*
X196892867Y-96810290D01*
X196886882Y-96800711D01*
X196806425Y-96671953D01*
X196802692Y-96665979D01*
X196742738Y-96605606D01*
X196687749Y-96550231D01*
X196687745Y-96550228D01*
X196682785Y-96545233D01*
X196539108Y-96454052D01*
X196378800Y-96396969D01*
X196209829Y-96376821D01*
X196202826Y-96377557D01*
X196202825Y-96377557D01*
X196047601Y-96393871D01*
X196047597Y-96393872D01*
X196040593Y-96394608D01*
X196033922Y-96396879D01*
X195886174Y-96447176D01*
X195886171Y-96447177D01*
X195879504Y-96449447D01*
X195873506Y-96453137D01*
X195873504Y-96453138D01*
X195819331Y-96486466D01*
X195734567Y-96538613D01*
X195729536Y-96543540D01*
X195729533Y-96543542D01*
X195712404Y-96560316D01*
X195612986Y-96657673D01*
X195520805Y-96800711D01*
X195518396Y-96807331D01*
X195518395Y-96807332D01*
X195481706Y-96908133D01*
X195462604Y-96960616D01*
X195441276Y-97129443D01*
X178085523Y-97129443D01*
X178080049Y-97123931D01*
X178080045Y-97123928D01*
X178075085Y-97118933D01*
X177931408Y-97027752D01*
X177771100Y-96970669D01*
X177602129Y-96950521D01*
X177595126Y-96951257D01*
X177595125Y-96951257D01*
X177439901Y-96967571D01*
X177439897Y-96967572D01*
X177432893Y-96968308D01*
X177426222Y-96970579D01*
X177278474Y-97020876D01*
X177278471Y-97020877D01*
X177271804Y-97023147D01*
X177265806Y-97026837D01*
X177265804Y-97026838D01*
X177258179Y-97031529D01*
X177126867Y-97112313D01*
X177121836Y-97117240D01*
X177121833Y-97117242D01*
X177066077Y-97171843D01*
X177005286Y-97231373D01*
X176913105Y-97374411D01*
X176910696Y-97381031D01*
X176910695Y-97381032D01*
X176861128Y-97517216D01*
X176854904Y-97534316D01*
X176833576Y-97703143D01*
X172003789Y-97703143D01*
X171962838Y-97661906D01*
X171907849Y-97606531D01*
X171907845Y-97606528D01*
X171902885Y-97601533D01*
X171759208Y-97510352D01*
X171598900Y-97453269D01*
X171429929Y-97433121D01*
X171422926Y-97433857D01*
X171422925Y-97433857D01*
X171267701Y-97450171D01*
X171267697Y-97450172D01*
X171260693Y-97450908D01*
X171254022Y-97453179D01*
X171106274Y-97503476D01*
X171106271Y-97503477D01*
X171099604Y-97505747D01*
X171093606Y-97509437D01*
X171093604Y-97509438D01*
X171086644Y-97513720D01*
X170954667Y-97594913D01*
X170949636Y-97599840D01*
X170949633Y-97599842D01*
X170893877Y-97654443D01*
X170833086Y-97713973D01*
X170740905Y-97857011D01*
X170738496Y-97863631D01*
X170738495Y-97863632D01*
X170730488Y-97885630D01*
X170682704Y-98016916D01*
X170661376Y-98185743D01*
X160554974Y-98185743D01*
X160647418Y-98078646D01*
X160647419Y-98078644D01*
X160651447Y-98073978D01*
X160749912Y-97900648D01*
X160812835Y-97711494D01*
X160837820Y-97513720D01*
X160838218Y-97485200D01*
X160818765Y-97286806D01*
X160816984Y-97280907D01*
X160816983Y-97280902D01*
X160762929Y-97101867D01*
X160761148Y-97095968D01*
X160698417Y-96977988D01*
X160670455Y-96925398D01*
X160670453Y-96925395D01*
X160667561Y-96919956D01*
X160663671Y-96915186D01*
X160663668Y-96915182D01*
X160545463Y-96770249D01*
X160545460Y-96770246D01*
X160541568Y-96765474D01*
X160387970Y-96638406D01*
X160384155Y-96636343D01*
X175411176Y-96636343D01*
X175427782Y-96805699D01*
X175481495Y-96967167D01*
X175485142Y-96973189D01*
X175485143Y-96973191D01*
X175502448Y-97001764D01*
X175569647Y-97112723D01*
X175574543Y-97117793D01*
X175592282Y-97136162D01*
X175687856Y-97235131D01*
X175830246Y-97328309D01*
X175989742Y-97387625D01*
X175996723Y-97388556D01*
X175996725Y-97388557D01*
X176042826Y-97394708D01*
X176158415Y-97410131D01*
X176165426Y-97409493D01*
X176165430Y-97409493D01*
X176320861Y-97395347D01*
X176327882Y-97394708D01*
X176334584Y-97392530D01*
X176334586Y-97392530D01*
X176483023Y-97344300D01*
X176483026Y-97344299D01*
X176489722Y-97342123D01*
X176572227Y-97292940D01*
X176629834Y-97258600D01*
X176629837Y-97258598D01*
X176635889Y-97254990D01*
X176759120Y-97137638D01*
X176778399Y-97108622D01*
X176849395Y-97001764D01*
X176853290Y-96995902D01*
X176861977Y-96973034D01*
X176911217Y-96843409D01*
X176911218Y-96843406D01*
X176913718Y-96836824D01*
X176937400Y-96668313D01*
X176937698Y-96647000D01*
X176918730Y-96477892D01*
X176862767Y-96317190D01*
X176856782Y-96307611D01*
X176776325Y-96178853D01*
X176772592Y-96172879D01*
X176712638Y-96112506D01*
X176657649Y-96057131D01*
X176657645Y-96057128D01*
X176652685Y-96052133D01*
X176509008Y-95960952D01*
X176348700Y-95903869D01*
X176179729Y-95883721D01*
X176172726Y-95884457D01*
X176172725Y-95884457D01*
X176017501Y-95900771D01*
X176017497Y-95900772D01*
X176010493Y-95901508D01*
X176003822Y-95903779D01*
X175856074Y-95954076D01*
X175856071Y-95954077D01*
X175849404Y-95956347D01*
X175843406Y-95960037D01*
X175843404Y-95960038D01*
X175803536Y-95984565D01*
X175704467Y-96045513D01*
X175699436Y-96050440D01*
X175699433Y-96050442D01*
X175673645Y-96075696D01*
X175582886Y-96164573D01*
X175490705Y-96307611D01*
X175488296Y-96314231D01*
X175488295Y-96314232D01*
X175436357Y-96456931D01*
X175432504Y-96467516D01*
X175411176Y-96636343D01*
X160384155Y-96636343D01*
X160212615Y-96543592D01*
X160022185Y-96484644D01*
X160016060Y-96484000D01*
X160016059Y-96484000D01*
X159830060Y-96464451D01*
X159830058Y-96464451D01*
X159823931Y-96463807D01*
X159706367Y-96474506D01*
X159631546Y-96481315D01*
X159631545Y-96481315D01*
X159625405Y-96481874D01*
X159619491Y-96483615D01*
X159619489Y-96483615D01*
X159489339Y-96521921D01*
X159434170Y-96538158D01*
X159257509Y-96630514D01*
X159252709Y-96634374D01*
X159252708Y-96634374D01*
X159232078Y-96650961D01*
X159102151Y-96755425D01*
X158974014Y-96908133D01*
X158877979Y-97082821D01*
X158876118Y-97088688D01*
X158876117Y-97088690D01*
X158867060Y-97117242D01*
X158817702Y-97272835D01*
X158795482Y-97470939D01*
X151333700Y-97470939D01*
X151333700Y-94982743D01*
X166899576Y-94982743D01*
X166916182Y-95152099D01*
X166918406Y-95158784D01*
X166918406Y-95158785D01*
X166934054Y-95205825D01*
X166969895Y-95313567D01*
X166973542Y-95319589D01*
X166973543Y-95319591D01*
X167015991Y-95389681D01*
X167058047Y-95459123D01*
X167062943Y-95464193D01*
X167081733Y-95483650D01*
X167176256Y-95581531D01*
X167318646Y-95674709D01*
X167478142Y-95734025D01*
X167485123Y-95734956D01*
X167485125Y-95734957D01*
X167531226Y-95741108D01*
X167646815Y-95756531D01*
X167653826Y-95755893D01*
X167653830Y-95755893D01*
X167809261Y-95741747D01*
X167816282Y-95741108D01*
X167822984Y-95738930D01*
X167822986Y-95738930D01*
X167971423Y-95690700D01*
X167971426Y-95690699D01*
X167978122Y-95688523D01*
X168081343Y-95626991D01*
X168118234Y-95605000D01*
X168118237Y-95604998D01*
X168124289Y-95601390D01*
X168247520Y-95484038D01*
X168341690Y-95342302D01*
X168350317Y-95319591D01*
X168361503Y-95290143D01*
X170305776Y-95290143D01*
X170322382Y-95459499D01*
X170324606Y-95466184D01*
X170324606Y-95466185D01*
X170346837Y-95533014D01*
X170376095Y-95620967D01*
X170379742Y-95626989D01*
X170379743Y-95626991D01*
X170397048Y-95655564D01*
X170464247Y-95766523D01*
X170469143Y-95771593D01*
X170488307Y-95791438D01*
X170582456Y-95888931D01*
X170724846Y-95982109D01*
X170884342Y-96041425D01*
X170891323Y-96042356D01*
X170891325Y-96042357D01*
X170936309Y-96048359D01*
X171053015Y-96063931D01*
X171060026Y-96063293D01*
X171060030Y-96063293D01*
X171215461Y-96049147D01*
X171222482Y-96048508D01*
X171229184Y-96046330D01*
X171229186Y-96046330D01*
X171377623Y-95998100D01*
X171377626Y-95998099D01*
X171384322Y-95995923D01*
X171486582Y-95934964D01*
X171524434Y-95912400D01*
X171524437Y-95912398D01*
X171530489Y-95908790D01*
X171583673Y-95858143D01*
X207507576Y-95858143D01*
X207524182Y-96027499D01*
X207526406Y-96034184D01*
X207526406Y-96034185D01*
X207530174Y-96045513D01*
X207577895Y-96188967D01*
X207581542Y-96194989D01*
X207581543Y-96194991D01*
X207598848Y-96223564D01*
X207666047Y-96334523D01*
X207670943Y-96339593D01*
X207690107Y-96359438D01*
X207784256Y-96456931D01*
X207926646Y-96550109D01*
X208086142Y-96609425D01*
X208093123Y-96610356D01*
X208093125Y-96610357D01*
X208139226Y-96616508D01*
X208254815Y-96631931D01*
X208261826Y-96631293D01*
X208261830Y-96631293D01*
X208417261Y-96617147D01*
X208424282Y-96616508D01*
X208430984Y-96614330D01*
X208430986Y-96614330D01*
X208579423Y-96566100D01*
X208579426Y-96566099D01*
X208586122Y-96563923D01*
X208657867Y-96521154D01*
X208726234Y-96480400D01*
X208726237Y-96480398D01*
X208732289Y-96476790D01*
X208855520Y-96359438D01*
X208866646Y-96342693D01*
X208945795Y-96223564D01*
X208949690Y-96217702D01*
X208959529Y-96191800D01*
X209007617Y-96065209D01*
X209007618Y-96065206D01*
X209010118Y-96058624D01*
X209033800Y-95890113D01*
X209034098Y-95868800D01*
X209019847Y-95741747D01*
X209015915Y-95706688D01*
X209015914Y-95706685D01*
X209015130Y-95699692D01*
X208969807Y-95569543D01*
X216762376Y-95569543D01*
X216778982Y-95738899D01*
X216832695Y-95900367D01*
X216836342Y-95906389D01*
X216836343Y-95906391D01*
X216853648Y-95934964D01*
X216920847Y-96045923D01*
X216925743Y-96050993D01*
X216939471Y-96065209D01*
X217039056Y-96168331D01*
X217181446Y-96261509D01*
X217340942Y-96320825D01*
X217347923Y-96321756D01*
X217347925Y-96321757D01*
X217394026Y-96327908D01*
X217509615Y-96343331D01*
X217516626Y-96342693D01*
X217516630Y-96342693D01*
X217672061Y-96328547D01*
X217679082Y-96327908D01*
X217685784Y-96325730D01*
X217685786Y-96325730D01*
X217834223Y-96277500D01*
X217834226Y-96277499D01*
X217840922Y-96275323D01*
X217948622Y-96211121D01*
X217981034Y-96191800D01*
X217981037Y-96191798D01*
X217987089Y-96188190D01*
X218110320Y-96070838D01*
X218115529Y-96062999D01*
X218169272Y-95982109D01*
X218204490Y-95929102D01*
X218206990Y-95922521D01*
X218262417Y-95776609D01*
X218262418Y-95776606D01*
X218264918Y-95770024D01*
X218288600Y-95601513D01*
X218288717Y-95593164D01*
X218288843Y-95584161D01*
X218288843Y-95584155D01*
X218288898Y-95580200D01*
X218278112Y-95484038D01*
X218270715Y-95418088D01*
X218270714Y-95418085D01*
X218269930Y-95411092D01*
X218213967Y-95250390D01*
X218208968Y-95242389D01*
X218127525Y-95112053D01*
X218123792Y-95106079D01*
X218063839Y-95045706D01*
X218008849Y-94990331D01*
X218008845Y-94990328D01*
X218003885Y-94985333D01*
X217860208Y-94894152D01*
X217699900Y-94837069D01*
X217530929Y-94816921D01*
X217523926Y-94817657D01*
X217523925Y-94817657D01*
X217368701Y-94833971D01*
X217368697Y-94833972D01*
X217361693Y-94834708D01*
X217355022Y-94836979D01*
X217207274Y-94887276D01*
X217207271Y-94887277D01*
X217200604Y-94889547D01*
X217194606Y-94893237D01*
X217194604Y-94893238D01*
X217186979Y-94897929D01*
X217055667Y-94978713D01*
X217050636Y-94983640D01*
X217050633Y-94983642D01*
X217016662Y-95016909D01*
X216934086Y-95097773D01*
X216841905Y-95240811D01*
X216839496Y-95247431D01*
X216839495Y-95247432D01*
X216804965Y-95342302D01*
X216783704Y-95400716D01*
X216762376Y-95569543D01*
X208969807Y-95569543D01*
X208959167Y-95538990D01*
X208953182Y-95529411D01*
X208872725Y-95400653D01*
X208868992Y-95394679D01*
X208779699Y-95304761D01*
X208754049Y-95278931D01*
X208754045Y-95278928D01*
X208749085Y-95273933D01*
X208605408Y-95182752D01*
X208445100Y-95125669D01*
X208276129Y-95105521D01*
X208269126Y-95106257D01*
X208269125Y-95106257D01*
X208113901Y-95122571D01*
X208113897Y-95122572D01*
X208106893Y-95123308D01*
X208100222Y-95125579D01*
X207952474Y-95175876D01*
X207952471Y-95175877D01*
X207945804Y-95178147D01*
X207939806Y-95181837D01*
X207939804Y-95181838D01*
X207900814Y-95205825D01*
X207800867Y-95267313D01*
X207795836Y-95272240D01*
X207795833Y-95272242D01*
X207748937Y-95318166D01*
X207679286Y-95386373D01*
X207587105Y-95529411D01*
X207584696Y-95536031D01*
X207584695Y-95536032D01*
X207531313Y-95682697D01*
X207528904Y-95689316D01*
X207507576Y-95858143D01*
X171583673Y-95858143D01*
X171653720Y-95791438D01*
X171663573Y-95776609D01*
X171743995Y-95655564D01*
X171747890Y-95649702D01*
X171756517Y-95626991D01*
X171805817Y-95497209D01*
X171805818Y-95497206D01*
X171808318Y-95490624D01*
X171832000Y-95322113D01*
X171832298Y-95300800D01*
X171816786Y-95162500D01*
X171814115Y-95138688D01*
X171814114Y-95138685D01*
X171813330Y-95131692D01*
X171757367Y-94970990D01*
X171751382Y-94961411D01*
X171670925Y-94832653D01*
X171667192Y-94826679D01*
X171607239Y-94766306D01*
X171552249Y-94710931D01*
X171552245Y-94710928D01*
X171547285Y-94705933D01*
X171403608Y-94614752D01*
X171243300Y-94557669D01*
X171074329Y-94537521D01*
X171067326Y-94538257D01*
X171067325Y-94538257D01*
X170912101Y-94554571D01*
X170912097Y-94554572D01*
X170905093Y-94555308D01*
X170898422Y-94557579D01*
X170750674Y-94607876D01*
X170750671Y-94607877D01*
X170744004Y-94610147D01*
X170738006Y-94613837D01*
X170738004Y-94613838D01*
X170707265Y-94632749D01*
X170599067Y-94699313D01*
X170594036Y-94704240D01*
X170594033Y-94704242D01*
X170538276Y-94758843D01*
X170477486Y-94818373D01*
X170385305Y-94961411D01*
X170382896Y-94968031D01*
X170382895Y-94968032D01*
X170335324Y-95098731D01*
X170327104Y-95121316D01*
X170305776Y-95290143D01*
X168361503Y-95290143D01*
X168399617Y-95189809D01*
X168399618Y-95189806D01*
X168402118Y-95183224D01*
X168425800Y-95014713D01*
X168425934Y-95005164D01*
X168426043Y-94997361D01*
X168426043Y-94997355D01*
X168426098Y-94993400D01*
X168416777Y-94910295D01*
X168407915Y-94831288D01*
X168407914Y-94831285D01*
X168407130Y-94824292D01*
X168351167Y-94663590D01*
X168345815Y-94655024D01*
X168264725Y-94525253D01*
X168260992Y-94519279D01*
X168196706Y-94454543D01*
X168146049Y-94403531D01*
X168146045Y-94403528D01*
X168141085Y-94398533D01*
X168025127Y-94324943D01*
X177062176Y-94324943D01*
X177078782Y-94494299D01*
X177132495Y-94655767D01*
X177136142Y-94661789D01*
X177136143Y-94661791D01*
X177197268Y-94762720D01*
X177220647Y-94801323D01*
X177225543Y-94806393D01*
X177239558Y-94820906D01*
X177338856Y-94923731D01*
X177481246Y-95016909D01*
X177640742Y-95076225D01*
X177647723Y-95077156D01*
X177647725Y-95077157D01*
X177693826Y-95083308D01*
X177809415Y-95098731D01*
X177816426Y-95098093D01*
X177816430Y-95098093D01*
X177971861Y-95083947D01*
X177978882Y-95083308D01*
X177985584Y-95081130D01*
X177985586Y-95081130D01*
X178134023Y-95032900D01*
X178134026Y-95032899D01*
X178140722Y-95030723D01*
X178212467Y-94987954D01*
X178280834Y-94947200D01*
X178280837Y-94947198D01*
X178286889Y-94943590D01*
X178410120Y-94826238D01*
X178414289Y-94819964D01*
X178490051Y-94705933D01*
X178504290Y-94684502D01*
X178509706Y-94670245D01*
X178562217Y-94532009D01*
X178562218Y-94532006D01*
X178564718Y-94525424D01*
X178574679Y-94454543D01*
X183770376Y-94454543D01*
X183786982Y-94623899D01*
X183789206Y-94630584D01*
X183789206Y-94630585D01*
X183804188Y-94675623D01*
X183840695Y-94785367D01*
X183844342Y-94791389D01*
X183844343Y-94791391D01*
X183877906Y-94846809D01*
X183928847Y-94930923D01*
X183933743Y-94935993D01*
X183952571Y-94955490D01*
X184047056Y-95053331D01*
X184189446Y-95146509D01*
X184348942Y-95205825D01*
X184355923Y-95206756D01*
X184355925Y-95206757D01*
X184402026Y-95212908D01*
X184517615Y-95228331D01*
X184524626Y-95227693D01*
X184524630Y-95227693D01*
X184680061Y-95213547D01*
X184687082Y-95212908D01*
X184693784Y-95210730D01*
X184693786Y-95210730D01*
X184842223Y-95162500D01*
X184842226Y-95162499D01*
X184848922Y-95160323D01*
X184943920Y-95103693D01*
X184989034Y-95076800D01*
X184989037Y-95076798D01*
X184995089Y-95073190D01*
X185118320Y-94955838D01*
X185212490Y-94814102D01*
X185221117Y-94791391D01*
X185270417Y-94661609D01*
X185270418Y-94661606D01*
X185272918Y-94655024D01*
X185275066Y-94639743D01*
X218936776Y-94639743D01*
X218953382Y-94809099D01*
X219007095Y-94970567D01*
X219010742Y-94976589D01*
X219010743Y-94976591D01*
X219028048Y-95005164D01*
X219095247Y-95116123D01*
X219100143Y-95121193D01*
X219117038Y-95138688D01*
X219213456Y-95238531D01*
X219355846Y-95331709D01*
X219515342Y-95391025D01*
X219522323Y-95391956D01*
X219522325Y-95391957D01*
X219568426Y-95398108D01*
X219684015Y-95413531D01*
X219691026Y-95412893D01*
X219691030Y-95412893D01*
X219846461Y-95398747D01*
X219853482Y-95398108D01*
X219860184Y-95395930D01*
X219860186Y-95395930D01*
X220008623Y-95347700D01*
X220008626Y-95347699D01*
X220015322Y-95345523D01*
X220108223Y-95290143D01*
X220155434Y-95262000D01*
X220155437Y-95261998D01*
X220161489Y-95258390D01*
X220284720Y-95141038D01*
X220295486Y-95124835D01*
X220374995Y-95005164D01*
X220378890Y-94999302D01*
X220389645Y-94970990D01*
X220436817Y-94846809D01*
X220436818Y-94846806D01*
X220439318Y-94840224D01*
X220463000Y-94671713D01*
X220463223Y-94655767D01*
X220463243Y-94654361D01*
X220463243Y-94654355D01*
X220463298Y-94650400D01*
X220451232Y-94542825D01*
X220445115Y-94488288D01*
X220445114Y-94488285D01*
X220444330Y-94481292D01*
X220388367Y-94320590D01*
X220382382Y-94311011D01*
X220301925Y-94182253D01*
X220298192Y-94176279D01*
X220207876Y-94085331D01*
X220183249Y-94060531D01*
X220183245Y-94060528D01*
X220178285Y-94055533D01*
X220034608Y-93964352D01*
X219874300Y-93907269D01*
X219705329Y-93887121D01*
X219698326Y-93887857D01*
X219698325Y-93887857D01*
X219543101Y-93904171D01*
X219543097Y-93904172D01*
X219536093Y-93904908D01*
X219529422Y-93907179D01*
X219381674Y-93957476D01*
X219381671Y-93957477D01*
X219375004Y-93959747D01*
X219369006Y-93963437D01*
X219369004Y-93963438D01*
X219315733Y-93996211D01*
X219230067Y-94048913D01*
X219225036Y-94053840D01*
X219225033Y-94053842D01*
X219193529Y-94084693D01*
X219108486Y-94167973D01*
X219016305Y-94311011D01*
X219013896Y-94317631D01*
X219013895Y-94317632D01*
X218978893Y-94413800D01*
X218958104Y-94470916D01*
X218936776Y-94639743D01*
X185275066Y-94639743D01*
X185296600Y-94486513D01*
X185296898Y-94465200D01*
X185282806Y-94339561D01*
X185278715Y-94303088D01*
X185278714Y-94303085D01*
X185277930Y-94296092D01*
X185221967Y-94135390D01*
X185215982Y-94125811D01*
X185135525Y-93997053D01*
X185131792Y-93991079D01*
X185050913Y-93909634D01*
X185016849Y-93875331D01*
X185016845Y-93875328D01*
X185011885Y-93870333D01*
X184887733Y-93791543D01*
X215974976Y-93791543D01*
X215991582Y-93960899D01*
X215993806Y-93967584D01*
X215993806Y-93967585D01*
X216001936Y-93992024D01*
X216045295Y-94122367D01*
X216048942Y-94128389D01*
X216048943Y-94128391D01*
X216065734Y-94156116D01*
X216133447Y-94267923D01*
X216138343Y-94272993D01*
X216154228Y-94289442D01*
X216251656Y-94390331D01*
X216394046Y-94483509D01*
X216553542Y-94542825D01*
X216560523Y-94543756D01*
X216560525Y-94543757D01*
X216606626Y-94549908D01*
X216722215Y-94565331D01*
X216729226Y-94564693D01*
X216729230Y-94564693D01*
X216884661Y-94550547D01*
X216891682Y-94549908D01*
X216898384Y-94547730D01*
X216898386Y-94547730D01*
X217046823Y-94499500D01*
X217046826Y-94499499D01*
X217053522Y-94497323D01*
X217137019Y-94447549D01*
X217193634Y-94413800D01*
X217193637Y-94413798D01*
X217199689Y-94410190D01*
X217322920Y-94292838D01*
X217417090Y-94151102D01*
X217419590Y-94144521D01*
X217475017Y-93998609D01*
X217475018Y-93998606D01*
X217477518Y-93992024D01*
X217501200Y-93823513D01*
X217501349Y-93812838D01*
X217501443Y-93806161D01*
X217501443Y-93806155D01*
X217501498Y-93802200D01*
X217487451Y-93676964D01*
X217483315Y-93640088D01*
X217483314Y-93640085D01*
X217482530Y-93633092D01*
X217426567Y-93472390D01*
X217420582Y-93462811D01*
X217340125Y-93334053D01*
X217336392Y-93328079D01*
X217319971Y-93311543D01*
X226437176Y-93311543D01*
X226453782Y-93480899D01*
X226507495Y-93642367D01*
X226511142Y-93648389D01*
X226511143Y-93648391D01*
X226528448Y-93676964D01*
X226595647Y-93787923D01*
X226600543Y-93792993D01*
X226619707Y-93812838D01*
X226713856Y-93910331D01*
X226856246Y-94003509D01*
X227015742Y-94062825D01*
X227022723Y-94063756D01*
X227022725Y-94063757D01*
X227068826Y-94069908D01*
X227184415Y-94085331D01*
X227191426Y-94084693D01*
X227191430Y-94084693D01*
X227346861Y-94070547D01*
X227353882Y-94069908D01*
X227360584Y-94067730D01*
X227360586Y-94067730D01*
X227509023Y-94019500D01*
X227509026Y-94019499D01*
X227515722Y-94017323D01*
X227612307Y-93959747D01*
X227655834Y-93933800D01*
X227655837Y-93933798D01*
X227661889Y-93930190D01*
X227785120Y-93812838D01*
X227791437Y-93803331D01*
X227839018Y-93731716D01*
X227879290Y-93671102D01*
X227887917Y-93648391D01*
X227937217Y-93518609D01*
X227937218Y-93518606D01*
X227939718Y-93512024D01*
X227963400Y-93343513D01*
X227963698Y-93322200D01*
X227950391Y-93203559D01*
X227945515Y-93160088D01*
X227945514Y-93160085D01*
X227944730Y-93153092D01*
X227888767Y-92992390D01*
X227882782Y-92982811D01*
X227802325Y-92854053D01*
X227798592Y-92848079D01*
X227731770Y-92780789D01*
X227683649Y-92732331D01*
X227683645Y-92732328D01*
X227678685Y-92727333D01*
X227535008Y-92636152D01*
X227374700Y-92579069D01*
X227205729Y-92558921D01*
X227198726Y-92559657D01*
X227198725Y-92559657D01*
X227043501Y-92575971D01*
X227043497Y-92575972D01*
X227036493Y-92576708D01*
X227029822Y-92578979D01*
X226882074Y-92629276D01*
X226882071Y-92629277D01*
X226875404Y-92631547D01*
X226869406Y-92635237D01*
X226869404Y-92635238D01*
X226850635Y-92646785D01*
X226730467Y-92720713D01*
X226725436Y-92725640D01*
X226725433Y-92725642D01*
X226678235Y-92771862D01*
X226608886Y-92839773D01*
X226516705Y-92982811D01*
X226514296Y-92989431D01*
X226514295Y-92989432D01*
X226466798Y-93119929D01*
X226458504Y-93142716D01*
X226437176Y-93311543D01*
X217319971Y-93311543D01*
X217245558Y-93236609D01*
X217221449Y-93212331D01*
X217221445Y-93212328D01*
X217216485Y-93207333D01*
X217072808Y-93116152D01*
X216912500Y-93059069D01*
X216743529Y-93038921D01*
X216736526Y-93039657D01*
X216736525Y-93039657D01*
X216581301Y-93055971D01*
X216581297Y-93055972D01*
X216574293Y-93056708D01*
X216567622Y-93058979D01*
X216419874Y-93109276D01*
X216419871Y-93109277D01*
X216413204Y-93111547D01*
X216407206Y-93115237D01*
X216407204Y-93115238D01*
X216345674Y-93153092D01*
X216268267Y-93200713D01*
X216263236Y-93205640D01*
X216263233Y-93205642D01*
X216238618Y-93229747D01*
X216146686Y-93319773D01*
X216054505Y-93462811D01*
X216052096Y-93469431D01*
X216052095Y-93469432D01*
X216007346Y-93592379D01*
X215996304Y-93622716D01*
X215974976Y-93791543D01*
X184887733Y-93791543D01*
X184868208Y-93779152D01*
X184707900Y-93722069D01*
X184538929Y-93701921D01*
X184531926Y-93702657D01*
X184531925Y-93702657D01*
X184376701Y-93718971D01*
X184376697Y-93718972D01*
X184369693Y-93719708D01*
X184363022Y-93721979D01*
X184215274Y-93772276D01*
X184215271Y-93772277D01*
X184208604Y-93774547D01*
X184202606Y-93778237D01*
X184202604Y-93778238D01*
X184163655Y-93802200D01*
X184063667Y-93863713D01*
X184058636Y-93868640D01*
X184058633Y-93868642D01*
X184019189Y-93907269D01*
X183942086Y-93982773D01*
X183849905Y-94125811D01*
X183847496Y-94132431D01*
X183847495Y-94132432D01*
X183843996Y-94142045D01*
X183791704Y-94285716D01*
X183770376Y-94454543D01*
X178574679Y-94454543D01*
X178588400Y-94356913D01*
X178588698Y-94335600D01*
X178578779Y-94247171D01*
X178570515Y-94173488D01*
X178570514Y-94173485D01*
X178569730Y-94166492D01*
X178513767Y-94005790D01*
X178507782Y-93996211D01*
X178427325Y-93867453D01*
X178423592Y-93861479D01*
X178350532Y-93787908D01*
X178308649Y-93745731D01*
X178308645Y-93745728D01*
X178303685Y-93740733D01*
X178160008Y-93649552D01*
X177999700Y-93592469D01*
X177830729Y-93572321D01*
X177823726Y-93573057D01*
X177823725Y-93573057D01*
X177668501Y-93589371D01*
X177668497Y-93589372D01*
X177661493Y-93590108D01*
X177654822Y-93592379D01*
X177507074Y-93642676D01*
X177507071Y-93642677D01*
X177500404Y-93644947D01*
X177494406Y-93648637D01*
X177494404Y-93648638D01*
X177486779Y-93653329D01*
X177355467Y-93734113D01*
X177350436Y-93739040D01*
X177350433Y-93739042D01*
X177316496Y-93772276D01*
X177233886Y-93853173D01*
X177141705Y-93996211D01*
X177139296Y-94002831D01*
X177139295Y-94002832D01*
X177138155Y-94005965D01*
X177083504Y-94156116D01*
X177062176Y-94324943D01*
X168025127Y-94324943D01*
X167997408Y-94307352D01*
X167837100Y-94250269D01*
X167668129Y-94230121D01*
X167661126Y-94230857D01*
X167661125Y-94230857D01*
X167505901Y-94247171D01*
X167505897Y-94247172D01*
X167498893Y-94247908D01*
X167492222Y-94250179D01*
X167344474Y-94300476D01*
X167344471Y-94300477D01*
X167337804Y-94302747D01*
X167331806Y-94306437D01*
X167331804Y-94306438D01*
X167301725Y-94324943D01*
X167192867Y-94391913D01*
X167187836Y-94396840D01*
X167187833Y-94396842D01*
X167136053Y-94447549D01*
X167071286Y-94510973D01*
X166979105Y-94654011D01*
X166976696Y-94660631D01*
X166976695Y-94660632D01*
X166925208Y-94802090D01*
X166920904Y-94813916D01*
X166899576Y-94982743D01*
X151333700Y-94982743D01*
X151333700Y-91505543D01*
X169619976Y-91505543D01*
X169636582Y-91674899D01*
X169638806Y-91681584D01*
X169638806Y-91681585D01*
X169642936Y-91694000D01*
X169690295Y-91836367D01*
X169693942Y-91842389D01*
X169693943Y-91842391D01*
X169755068Y-91943320D01*
X169778447Y-91981923D01*
X169783343Y-91986993D01*
X169808702Y-92013253D01*
X169896656Y-92104331D01*
X170039046Y-92197509D01*
X170198542Y-92256825D01*
X170205523Y-92257756D01*
X170205525Y-92257757D01*
X170251626Y-92263908D01*
X170367215Y-92279331D01*
X170374226Y-92278693D01*
X170374230Y-92278693D01*
X170529661Y-92264547D01*
X170536682Y-92263908D01*
X170543384Y-92261730D01*
X170543386Y-92261730D01*
X170691823Y-92213500D01*
X170691826Y-92213499D01*
X170698522Y-92211323D01*
X170798725Y-92151590D01*
X170838634Y-92127800D01*
X170838637Y-92127798D01*
X170844689Y-92124190D01*
X170957355Y-92016899D01*
X171020480Y-91984406D01*
X171091150Y-91991199D01*
X171146930Y-92035122D01*
X171170108Y-92102228D01*
X171170212Y-92108524D01*
X171169376Y-92115143D01*
X171185982Y-92284499D01*
X171188206Y-92291184D01*
X171188206Y-92291185D01*
X171197555Y-92319288D01*
X171239695Y-92445967D01*
X171243342Y-92451989D01*
X171243343Y-92451991D01*
X171276430Y-92506623D01*
X171327847Y-92591523D01*
X171446056Y-92713931D01*
X171588446Y-92807109D01*
X171747942Y-92866425D01*
X171754923Y-92867356D01*
X171754925Y-92867357D01*
X171801026Y-92873508D01*
X171916615Y-92888931D01*
X171923626Y-92888293D01*
X171923630Y-92888293D01*
X172079061Y-92874147D01*
X172086082Y-92873508D01*
X172092784Y-92871330D01*
X172092786Y-92871330D01*
X172241223Y-92823100D01*
X172241226Y-92823099D01*
X172247922Y-92820923D01*
X172253973Y-92817316D01*
X172343974Y-92763665D01*
X172412729Y-92745965D01*
X172480138Y-92768247D01*
X172524800Y-92823436D01*
X172533497Y-92887685D01*
X172515576Y-93029543D01*
X172532182Y-93198899D01*
X172534406Y-93205584D01*
X172534406Y-93205585D01*
X172536383Y-93211527D01*
X172585895Y-93360367D01*
X172589542Y-93366389D01*
X172589543Y-93366391D01*
X172647937Y-93462811D01*
X172674047Y-93505923D01*
X172678943Y-93510993D01*
X172698107Y-93530838D01*
X172792256Y-93628331D01*
X172934646Y-93721509D01*
X173094142Y-93780825D01*
X173101123Y-93781756D01*
X173101125Y-93781757D01*
X173152015Y-93788547D01*
X173262815Y-93803331D01*
X173269826Y-93802693D01*
X173269830Y-93802693D01*
X173425261Y-93788547D01*
X173432282Y-93787908D01*
X173438984Y-93785730D01*
X173438986Y-93785730D01*
X173587423Y-93737500D01*
X173587426Y-93737499D01*
X173594122Y-93735323D01*
X173701854Y-93671102D01*
X173734234Y-93651800D01*
X173734237Y-93651798D01*
X173740289Y-93648190D01*
X173863520Y-93530838D01*
X173892258Y-93487585D01*
X173953795Y-93394964D01*
X173957690Y-93389102D01*
X173966317Y-93366391D01*
X174015617Y-93236609D01*
X174015618Y-93236606D01*
X174018118Y-93230024D01*
X174041800Y-93061513D01*
X174042098Y-93040200D01*
X174030223Y-92934330D01*
X174023915Y-92878088D01*
X174023914Y-92878085D01*
X174023130Y-92871092D01*
X173967167Y-92710390D01*
X173961182Y-92700811D01*
X173896778Y-92597743D01*
X179348176Y-92597743D01*
X179364782Y-92767099D01*
X179418495Y-92928567D01*
X179422142Y-92934589D01*
X179422143Y-92934591D01*
X179439448Y-92963164D01*
X179506647Y-93074123D01*
X179511543Y-93079193D01*
X179530707Y-93099038D01*
X179624856Y-93196531D01*
X179767246Y-93289709D01*
X179926742Y-93349025D01*
X179933723Y-93349956D01*
X179933725Y-93349957D01*
X179979826Y-93356108D01*
X180095415Y-93371531D01*
X180102426Y-93370893D01*
X180102430Y-93370893D01*
X180257861Y-93356747D01*
X180264882Y-93356108D01*
X180271584Y-93353930D01*
X180271586Y-93353930D01*
X180420023Y-93305700D01*
X180420026Y-93305699D01*
X180426722Y-93303523D01*
X180525682Y-93244531D01*
X180566834Y-93220000D01*
X180566837Y-93219998D01*
X180572889Y-93216390D01*
X180696120Y-93099038D01*
X180719093Y-93064462D01*
X180773342Y-92982811D01*
X180790290Y-92957302D01*
X180799016Y-92934330D01*
X180848217Y-92804809D01*
X180848218Y-92804806D01*
X180850718Y-92798224D01*
X180874400Y-92629713D01*
X180874698Y-92608400D01*
X180869951Y-92566079D01*
X180859682Y-92474521D01*
X180860346Y-92470743D01*
X181380176Y-92470743D01*
X181396782Y-92640099D01*
X181450495Y-92801567D01*
X181454142Y-92807589D01*
X181454143Y-92807591D01*
X181492601Y-92871092D01*
X181538647Y-92947123D01*
X181543543Y-92952193D01*
X181562707Y-92972038D01*
X181656856Y-93069531D01*
X181799246Y-93162709D01*
X181958742Y-93222025D01*
X181965723Y-93222956D01*
X181965725Y-93222957D01*
X182011826Y-93229108D01*
X182127415Y-93244531D01*
X182134426Y-93243893D01*
X182134430Y-93243893D01*
X182289861Y-93229747D01*
X182296882Y-93229108D01*
X182303584Y-93226930D01*
X182303586Y-93226930D01*
X182452023Y-93178700D01*
X182452026Y-93178699D01*
X182458722Y-93176523D01*
X182530467Y-93133754D01*
X182598834Y-93093000D01*
X182598837Y-93092998D01*
X182604889Y-93089390D01*
X182728120Y-92972038D01*
X182742099Y-92950999D01*
X182783337Y-92888931D01*
X182822290Y-92830302D01*
X182831974Y-92804809D01*
X182880217Y-92677809D01*
X182880218Y-92677806D01*
X182882718Y-92671224D01*
X182906400Y-92502713D01*
X182906698Y-92481400D01*
X182891909Y-92349547D01*
X182888515Y-92319288D01*
X182888514Y-92319285D01*
X182887730Y-92312292D01*
X182841014Y-92178143D01*
X191883576Y-92178143D01*
X191900182Y-92347499D01*
X191902406Y-92354184D01*
X191902406Y-92354185D01*
X191908216Y-92371650D01*
X191953895Y-92508967D01*
X191957542Y-92514989D01*
X191957543Y-92514991D01*
X192016513Y-92612361D01*
X192042047Y-92654523D01*
X192046943Y-92659593D01*
X192064534Y-92677809D01*
X192160256Y-92776931D01*
X192302646Y-92870109D01*
X192462142Y-92929425D01*
X192469123Y-92930356D01*
X192469125Y-92930357D01*
X192515226Y-92936508D01*
X192630815Y-92951931D01*
X192637826Y-92951293D01*
X192637830Y-92951293D01*
X192793261Y-92937147D01*
X192800282Y-92936508D01*
X192806984Y-92934330D01*
X192806986Y-92934330D01*
X192955423Y-92886100D01*
X192955426Y-92886099D01*
X192962122Y-92883923D01*
X193036184Y-92839773D01*
X193102234Y-92800400D01*
X193102237Y-92800398D01*
X193108289Y-92796790D01*
X193231520Y-92679438D01*
X193236978Y-92671224D01*
X193281336Y-92604460D01*
X193325690Y-92537702D01*
X193334317Y-92514991D01*
X193383617Y-92385209D01*
X193383618Y-92385206D01*
X193386118Y-92378624D01*
X193409800Y-92210113D01*
X193409976Y-92197509D01*
X193410043Y-92192761D01*
X193410043Y-92192755D01*
X193410098Y-92188800D01*
X193404685Y-92140543D01*
X210640976Y-92140543D01*
X210657582Y-92309899D01*
X210711295Y-92471367D01*
X210714942Y-92477389D01*
X210714943Y-92477391D01*
X210730019Y-92502284D01*
X210799447Y-92616923D01*
X210804343Y-92621993D01*
X210818016Y-92636152D01*
X210917656Y-92739331D01*
X211060046Y-92832509D01*
X211219542Y-92891825D01*
X211226523Y-92892756D01*
X211226525Y-92892757D01*
X211272626Y-92898908D01*
X211388215Y-92914331D01*
X211395226Y-92913693D01*
X211395230Y-92913693D01*
X211550661Y-92899547D01*
X211557682Y-92898908D01*
X211564384Y-92896730D01*
X211564386Y-92896730D01*
X211712823Y-92848500D01*
X211712826Y-92848499D01*
X211719522Y-92846323D01*
X211800209Y-92798224D01*
X211859634Y-92762800D01*
X211859637Y-92762798D01*
X211865689Y-92759190D01*
X211988920Y-92641838D01*
X211995758Y-92631547D01*
X212062481Y-92531121D01*
X212083090Y-92500102D01*
X212092807Y-92474521D01*
X212141017Y-92347609D01*
X212141018Y-92347606D01*
X212143518Y-92341024D01*
X212167200Y-92172513D01*
X212167317Y-92164164D01*
X212167443Y-92155161D01*
X212167443Y-92155155D01*
X212167498Y-92151200D01*
X212153532Y-92026688D01*
X212149315Y-91989088D01*
X212149314Y-91989085D01*
X212148530Y-91982092D01*
X212092567Y-91821390D01*
X212086582Y-91811811D01*
X212006125Y-91683053D01*
X212002392Y-91677079D01*
X211919824Y-91593933D01*
X211887449Y-91561331D01*
X211887445Y-91561328D01*
X211882485Y-91556333D01*
X211738808Y-91465152D01*
X211578500Y-91408069D01*
X211409529Y-91387921D01*
X211402526Y-91388657D01*
X211402525Y-91388657D01*
X211247301Y-91404971D01*
X211247297Y-91404972D01*
X211240293Y-91405708D01*
X211233622Y-91407979D01*
X211085874Y-91458276D01*
X211085871Y-91458277D01*
X211079204Y-91460547D01*
X211073206Y-91464237D01*
X211073204Y-91464238D01*
X211065579Y-91468929D01*
X210934267Y-91549713D01*
X210929236Y-91554640D01*
X210929233Y-91554642D01*
X210884007Y-91598931D01*
X210812686Y-91668773D01*
X210720505Y-91811811D01*
X210718096Y-91818431D01*
X210718095Y-91818432D01*
X210670193Y-91950042D01*
X210662304Y-91971716D01*
X210640976Y-92140543D01*
X193404685Y-92140543D01*
X193394391Y-92048764D01*
X193391915Y-92026688D01*
X193391914Y-92026685D01*
X193391130Y-92019692D01*
X193335167Y-91858990D01*
X193329182Y-91849411D01*
X193248725Y-91720653D01*
X193244992Y-91714679D01*
X193179686Y-91648916D01*
X193130049Y-91598931D01*
X193130045Y-91598928D01*
X193125085Y-91593933D01*
X192981408Y-91502752D01*
X192821100Y-91445669D01*
X192652129Y-91425521D01*
X192645126Y-91426257D01*
X192645125Y-91426257D01*
X192489901Y-91442571D01*
X192489897Y-91442572D01*
X192482893Y-91443308D01*
X192476222Y-91445579D01*
X192328474Y-91495876D01*
X192328471Y-91495877D01*
X192321804Y-91498147D01*
X192315806Y-91501837D01*
X192315804Y-91501838D01*
X192279272Y-91524313D01*
X192176867Y-91587313D01*
X192171836Y-91592240D01*
X192171833Y-91592242D01*
X192128324Y-91634849D01*
X192055286Y-91706373D01*
X191963105Y-91849411D01*
X191960696Y-91856031D01*
X191960695Y-91856032D01*
X191907313Y-92002697D01*
X191904904Y-92009316D01*
X191883576Y-92178143D01*
X182841014Y-92178143D01*
X182831767Y-92151590D01*
X182825782Y-92142011D01*
X182745325Y-92013253D01*
X182741592Y-92007279D01*
X182643021Y-91908018D01*
X182626649Y-91891531D01*
X182626645Y-91891528D01*
X182621685Y-91886533D01*
X182478008Y-91795352D01*
X182317700Y-91738269D01*
X182148729Y-91718121D01*
X182141726Y-91718857D01*
X182141725Y-91718857D01*
X181986501Y-91735171D01*
X181986497Y-91735172D01*
X181979493Y-91735908D01*
X181972822Y-91738179D01*
X181825074Y-91788476D01*
X181825071Y-91788477D01*
X181818404Y-91790747D01*
X181812406Y-91794437D01*
X181812404Y-91794438D01*
X181757777Y-91828045D01*
X181673467Y-91879913D01*
X181668436Y-91884840D01*
X181668433Y-91884842D01*
X181644767Y-91908018D01*
X181551886Y-91998973D01*
X181459705Y-92142011D01*
X181457296Y-92148631D01*
X181457295Y-92148632D01*
X181403913Y-92295297D01*
X181401504Y-92301916D01*
X181380176Y-92470743D01*
X180860346Y-92470743D01*
X180871967Y-92404596D01*
X180920380Y-92352248D01*
X180921154Y-92351787D01*
X180950908Y-92334050D01*
X180998634Y-92305600D01*
X180998637Y-92305598D01*
X181004689Y-92301990D01*
X181127920Y-92184638D01*
X181132236Y-92178143D01*
X181218195Y-92048764D01*
X181222090Y-92042902D01*
X181235761Y-92006913D01*
X181280017Y-91890409D01*
X181280018Y-91890406D01*
X181282518Y-91883824D01*
X181306200Y-91715313D01*
X181306498Y-91694000D01*
X181294851Y-91590159D01*
X181288315Y-91531888D01*
X181288314Y-91531885D01*
X181287530Y-91524892D01*
X181231567Y-91364190D01*
X181225582Y-91354611D01*
X181145125Y-91225853D01*
X181141392Y-91219879D01*
X181122389Y-91200743D01*
X182700976Y-91200743D01*
X182717582Y-91370099D01*
X182719806Y-91376784D01*
X182719806Y-91376785D01*
X182723755Y-91388657D01*
X182771295Y-91531567D01*
X182774942Y-91537589D01*
X182774943Y-91537591D01*
X182788834Y-91560527D01*
X182859447Y-91677123D01*
X182864343Y-91682193D01*
X182879570Y-91697961D01*
X182977656Y-91799531D01*
X183120046Y-91892709D01*
X183279542Y-91952025D01*
X183286523Y-91952956D01*
X183286525Y-91952957D01*
X183332626Y-91959108D01*
X183448215Y-91974531D01*
X183455226Y-91973893D01*
X183455230Y-91973893D01*
X183610661Y-91959747D01*
X183617682Y-91959108D01*
X183624384Y-91956930D01*
X183624386Y-91956930D01*
X183772823Y-91908700D01*
X183772826Y-91908699D01*
X183779522Y-91906523D01*
X183859259Y-91858990D01*
X183919634Y-91823000D01*
X183919637Y-91822998D01*
X183925689Y-91819390D01*
X184048920Y-91702038D01*
X184053218Y-91695570D01*
X184100472Y-91624447D01*
X184143090Y-91560302D01*
X184146031Y-91552559D01*
X184201017Y-91407809D01*
X184201018Y-91407806D01*
X184203518Y-91401224D01*
X184227200Y-91232713D01*
X184227317Y-91224364D01*
X184227443Y-91215361D01*
X184227443Y-91215355D01*
X184227498Y-91211400D01*
X184218177Y-91128295D01*
X184209315Y-91049288D01*
X184209314Y-91049285D01*
X184208530Y-91042292D01*
X184152567Y-90881590D01*
X184146582Y-90872011D01*
X184066125Y-90743253D01*
X184062392Y-90737279D01*
X183994910Y-90669325D01*
X183947449Y-90621531D01*
X183947445Y-90621528D01*
X183942485Y-90616533D01*
X183798808Y-90525352D01*
X183638500Y-90468269D01*
X183469529Y-90448121D01*
X183462526Y-90448857D01*
X183462525Y-90448857D01*
X183307301Y-90465171D01*
X183307297Y-90465172D01*
X183300293Y-90465908D01*
X183293622Y-90468179D01*
X183145874Y-90518476D01*
X183145871Y-90518477D01*
X183139204Y-90520747D01*
X183133206Y-90524437D01*
X183133204Y-90524438D01*
X183125579Y-90529129D01*
X182994267Y-90609913D01*
X182989236Y-90614840D01*
X182989233Y-90614842D01*
X182936104Y-90666870D01*
X182872686Y-90728973D01*
X182780505Y-90872011D01*
X182778096Y-90878631D01*
X182778095Y-90878632D01*
X182724713Y-91025297D01*
X182722304Y-91031916D01*
X182700976Y-91200743D01*
X181122389Y-91200743D01*
X181069242Y-91147224D01*
X181026449Y-91104131D01*
X181026445Y-91104128D01*
X181021485Y-91099133D01*
X180877808Y-91007952D01*
X180717500Y-90950869D01*
X180548529Y-90930721D01*
X180541526Y-90931457D01*
X180541525Y-90931457D01*
X180386301Y-90947771D01*
X180386297Y-90947772D01*
X180379293Y-90948508D01*
X180372622Y-90950779D01*
X180224874Y-91001076D01*
X180224871Y-91001077D01*
X180218204Y-91003347D01*
X180212206Y-91007037D01*
X180212204Y-91007038D01*
X180155246Y-91042079D01*
X180073267Y-91092513D01*
X180068236Y-91097440D01*
X180068233Y-91097442D01*
X180012476Y-91152043D01*
X179951686Y-91211573D01*
X179859505Y-91354611D01*
X179857096Y-91361231D01*
X179857095Y-91361232D01*
X179805918Y-91501838D01*
X179801304Y-91514516D01*
X179779976Y-91683343D01*
X179791329Y-91799129D01*
X179794335Y-91829783D01*
X179781076Y-91899531D01*
X179734958Y-91949397D01*
X179641467Y-92006913D01*
X179636436Y-92011840D01*
X179636433Y-92011842D01*
X179611436Y-92036321D01*
X179519886Y-92125973D01*
X179427705Y-92269011D01*
X179425296Y-92275631D01*
X179425295Y-92275632D01*
X179381835Y-92395038D01*
X179369504Y-92428916D01*
X179348176Y-92597743D01*
X173896778Y-92597743D01*
X173880725Y-92572053D01*
X173876992Y-92566079D01*
X173813640Y-92502284D01*
X173762049Y-92450331D01*
X173762045Y-92450328D01*
X173757085Y-92445333D01*
X173613408Y-92354152D01*
X173453100Y-92297069D01*
X173284129Y-92276921D01*
X173277126Y-92277657D01*
X173277125Y-92277657D01*
X173121901Y-92293971D01*
X173121897Y-92293972D01*
X173114893Y-92294708D01*
X173108222Y-92296979D01*
X172960474Y-92347276D01*
X172960471Y-92347277D01*
X172953804Y-92349547D01*
X172947808Y-92353235D01*
X172947801Y-92353239D01*
X172868083Y-92402283D01*
X172799582Y-92420942D01*
X172731868Y-92399604D01*
X172686439Y-92345044D01*
X172677286Y-92277431D01*
X172688172Y-92199965D01*
X172695600Y-92147113D01*
X172695898Y-92125800D01*
X172683274Y-92013253D01*
X172677715Y-91963688D01*
X172677714Y-91963685D01*
X172676930Y-91956692D01*
X172620967Y-91795990D01*
X172614982Y-91786411D01*
X172534525Y-91657653D01*
X172530792Y-91651679D01*
X172463208Y-91583622D01*
X172415849Y-91535931D01*
X172415845Y-91535928D01*
X172410885Y-91530933D01*
X172267208Y-91439752D01*
X172106900Y-91382669D01*
X171937929Y-91362521D01*
X171930926Y-91363257D01*
X171930925Y-91363257D01*
X171775701Y-91379571D01*
X171775697Y-91379572D01*
X171768693Y-91380308D01*
X171762022Y-91382579D01*
X171614274Y-91432876D01*
X171614271Y-91432877D01*
X171607604Y-91435147D01*
X171601606Y-91438837D01*
X171601604Y-91438838D01*
X171586650Y-91448038D01*
X171462667Y-91524313D01*
X171457636Y-91529240D01*
X171457633Y-91529242D01*
X171360413Y-91624447D01*
X171297748Y-91657817D01*
X171226989Y-91652011D01*
X171170602Y-91608871D01*
X171146490Y-91542095D01*
X171146268Y-91532663D01*
X171146443Y-91520162D01*
X171146443Y-91520156D01*
X171146498Y-91516200D01*
X171134635Y-91410434D01*
X171128315Y-91354088D01*
X171128314Y-91354085D01*
X171127530Y-91347092D01*
X171071567Y-91186390D01*
X171065582Y-91176811D01*
X170985125Y-91048053D01*
X170981392Y-91042079D01*
X170901235Y-90961361D01*
X170866449Y-90926331D01*
X170866445Y-90926328D01*
X170861485Y-90921333D01*
X170717808Y-90830152D01*
X170557500Y-90773069D01*
X170388529Y-90752921D01*
X170381526Y-90753657D01*
X170381525Y-90753657D01*
X170226301Y-90769971D01*
X170226297Y-90769972D01*
X170219293Y-90770708D01*
X170212622Y-90772979D01*
X170064874Y-90823276D01*
X170064871Y-90823277D01*
X170058204Y-90825547D01*
X170052206Y-90829237D01*
X170052204Y-90829238D01*
X170044579Y-90833929D01*
X169913267Y-90914713D01*
X169908236Y-90919640D01*
X169908233Y-90919642D01*
X169873398Y-90953755D01*
X169791686Y-91033773D01*
X169699505Y-91176811D01*
X169697096Y-91183431D01*
X169697095Y-91183432D01*
X169660640Y-91283591D01*
X169641304Y-91336716D01*
X169619976Y-91505543D01*
X151333700Y-91505543D01*
X151333700Y-90179213D01*
X155930942Y-90179213D01*
X155940238Y-90191228D01*
X155996846Y-90230865D01*
X156006341Y-90236348D01*
X156207764Y-90330272D01*
X156218056Y-90334018D01*
X156432728Y-90391539D01*
X156443523Y-90393442D01*
X156664925Y-90412813D01*
X156675875Y-90412813D01*
X156897277Y-90393442D01*
X156908072Y-90391539D01*
X157122744Y-90334018D01*
X157133036Y-90330272D01*
X157334459Y-90236348D01*
X157343954Y-90230865D01*
X157401400Y-90190641D01*
X157409775Y-90180164D01*
X157402707Y-90166717D01*
X157154033Y-89918043D01*
X222083676Y-89918043D01*
X222100282Y-90087399D01*
X222153995Y-90248867D01*
X222157642Y-90254889D01*
X222157643Y-90254891D01*
X222218768Y-90355820D01*
X222242147Y-90394423D01*
X222360356Y-90516831D01*
X222502746Y-90610009D01*
X222662242Y-90669325D01*
X222669223Y-90670256D01*
X222669225Y-90670257D01*
X222715326Y-90676408D01*
X222830915Y-90691831D01*
X222837926Y-90691193D01*
X222837930Y-90691193D01*
X222993361Y-90677047D01*
X223000382Y-90676408D01*
X223007082Y-90674231D01*
X223007087Y-90674230D01*
X223016931Y-90671031D01*
X223087899Y-90669004D01*
X223148697Y-90705666D01*
X223180022Y-90769379D01*
X223180873Y-90806656D01*
X223178487Y-90825547D01*
X223163176Y-90946743D01*
X223179782Y-91116099D01*
X223233495Y-91277567D01*
X223237142Y-91283589D01*
X223237143Y-91283591D01*
X223273550Y-91343706D01*
X223321647Y-91423123D01*
X223326543Y-91428193D01*
X223340428Y-91442571D01*
X223439856Y-91545531D01*
X223582246Y-91638709D01*
X223741742Y-91698025D01*
X223748723Y-91698956D01*
X223748725Y-91698957D01*
X223794826Y-91705108D01*
X223910415Y-91720531D01*
X223917426Y-91719893D01*
X223917430Y-91719893D01*
X224072861Y-91705747D01*
X224079882Y-91705108D01*
X224086584Y-91702930D01*
X224086586Y-91702930D01*
X224235023Y-91654700D01*
X224235026Y-91654699D01*
X224241722Y-91652523D01*
X224314949Y-91608871D01*
X224381834Y-91569000D01*
X224381837Y-91568998D01*
X224387889Y-91565390D01*
X224511120Y-91448038D01*
X224516626Y-91439752D01*
X224578189Y-91347092D01*
X224605290Y-91306302D01*
X224613917Y-91283591D01*
X224663217Y-91153809D01*
X224663218Y-91153806D01*
X224665718Y-91147224D01*
X224689400Y-90978713D01*
X224689698Y-90957400D01*
X224670730Y-90788292D01*
X224614767Y-90627590D01*
X224608782Y-90618011D01*
X224528325Y-90489253D01*
X224524592Y-90483279D01*
X224441388Y-90399493D01*
X224409649Y-90367531D01*
X224409645Y-90367528D01*
X224404685Y-90362533D01*
X224261008Y-90271352D01*
X224100700Y-90214269D01*
X223931729Y-90194121D01*
X223924726Y-90194857D01*
X223924725Y-90194857D01*
X223769501Y-90211171D01*
X223769497Y-90211172D01*
X223762493Y-90211908D01*
X223755823Y-90214179D01*
X223748945Y-90215691D01*
X223748572Y-90213997D01*
X223686542Y-90216643D01*
X223625234Y-90180840D01*
X223593015Y-90117575D01*
X223592081Y-90076809D01*
X223609350Y-89953924D01*
X223609900Y-89950013D01*
X223610198Y-89928700D01*
X223600877Y-89845595D01*
X223592015Y-89766588D01*
X223592014Y-89766585D01*
X223591230Y-89759592D01*
X223535267Y-89598890D01*
X223529282Y-89589311D01*
X223448825Y-89460553D01*
X223445092Y-89454579D01*
X223382871Y-89391923D01*
X223330149Y-89338831D01*
X223330145Y-89338828D01*
X223325185Y-89333833D01*
X223181508Y-89242652D01*
X223021200Y-89185569D01*
X222852229Y-89165421D01*
X222845226Y-89166157D01*
X222845225Y-89166157D01*
X222690001Y-89182471D01*
X222689997Y-89182472D01*
X222682993Y-89183208D01*
X222676322Y-89185479D01*
X222528574Y-89235776D01*
X222528571Y-89235777D01*
X222521904Y-89238047D01*
X222515906Y-89241737D01*
X222515904Y-89241738D01*
X222508279Y-89246429D01*
X222376967Y-89327213D01*
X222371936Y-89332140D01*
X222371933Y-89332142D01*
X222337104Y-89366249D01*
X222255386Y-89446273D01*
X222163205Y-89589311D01*
X222160796Y-89595931D01*
X222160795Y-89595932D01*
X222157296Y-89605545D01*
X222105004Y-89749216D01*
X222083676Y-89918043D01*
X157154033Y-89918043D01*
X156683212Y-89447222D01*
X156669268Y-89439608D01*
X156667435Y-89439739D01*
X156660820Y-89443990D01*
X155937372Y-90167438D01*
X155930942Y-90179213D01*
X151333700Y-90179213D01*
X151333700Y-89080675D01*
X155332787Y-89080675D01*
X155352158Y-89302077D01*
X155354061Y-89312872D01*
X155411582Y-89527544D01*
X155415328Y-89537836D01*
X155509252Y-89739259D01*
X155514735Y-89748754D01*
X155554959Y-89806200D01*
X155565436Y-89814575D01*
X155578883Y-89807507D01*
X156298378Y-89088012D01*
X156304756Y-89076332D01*
X157034808Y-89076332D01*
X157034939Y-89078165D01*
X157039190Y-89084780D01*
X157762638Y-89808228D01*
X157774413Y-89814658D01*
X157786428Y-89805362D01*
X157826065Y-89748754D01*
X157831548Y-89739259D01*
X157925472Y-89537836D01*
X157929218Y-89527544D01*
X157986739Y-89312872D01*
X157988642Y-89302077D01*
X158008013Y-89080675D01*
X158008013Y-89069725D01*
X157988642Y-88848323D01*
X157986739Y-88837528D01*
X157946176Y-88686143D01*
X183589976Y-88686143D01*
X183606582Y-88855499D01*
X183660295Y-89016967D01*
X183663942Y-89022989D01*
X183663943Y-89022991D01*
X183694877Y-89074068D01*
X183748447Y-89162523D01*
X183753343Y-89167593D01*
X183770702Y-89185569D01*
X183866656Y-89284931D01*
X184009046Y-89378109D01*
X184168542Y-89437425D01*
X184175523Y-89438356D01*
X184175525Y-89438357D01*
X184217744Y-89443990D01*
X184337215Y-89459931D01*
X184344226Y-89459293D01*
X184344230Y-89459293D01*
X184499661Y-89445147D01*
X184506682Y-89444508D01*
X184513384Y-89442330D01*
X184513386Y-89442330D01*
X184661823Y-89394100D01*
X184661826Y-89394099D01*
X184668522Y-89391923D01*
X184772300Y-89330059D01*
X184808634Y-89308400D01*
X184808637Y-89308398D01*
X184814689Y-89304790D01*
X184937920Y-89187438D01*
X184956421Y-89159593D01*
X185011739Y-89076332D01*
X185032090Y-89045702D01*
X185040717Y-89022991D01*
X185090017Y-88893209D01*
X185090018Y-88893206D01*
X185092518Y-88886624D01*
X185116200Y-88718113D01*
X185116498Y-88696800D01*
X185097530Y-88527692D01*
X185041567Y-88366990D01*
X185035582Y-88357411D01*
X184955125Y-88228653D01*
X184951392Y-88222679D01*
X184881993Y-88152794D01*
X184836449Y-88106931D01*
X184836445Y-88106928D01*
X184831485Y-88101933D01*
X184687808Y-88010752D01*
X184527500Y-87953669D01*
X184358529Y-87933521D01*
X184351526Y-87934257D01*
X184351525Y-87934257D01*
X184196301Y-87950571D01*
X184196297Y-87950572D01*
X184189293Y-87951308D01*
X184182622Y-87953579D01*
X184034874Y-88003876D01*
X184034871Y-88003877D01*
X184028204Y-88006147D01*
X184022206Y-88009837D01*
X184022204Y-88009838D01*
X183955736Y-88050730D01*
X183883267Y-88095313D01*
X183878236Y-88100240D01*
X183878233Y-88100242D01*
X183870200Y-88108109D01*
X183761686Y-88214373D01*
X183669505Y-88357411D01*
X183667096Y-88364031D01*
X183667095Y-88364032D01*
X183663596Y-88373645D01*
X183611304Y-88517316D01*
X183589976Y-88686143D01*
X157946176Y-88686143D01*
X157929218Y-88622856D01*
X157925472Y-88612564D01*
X157831548Y-88411141D01*
X157826065Y-88401646D01*
X157785841Y-88344200D01*
X157775364Y-88335825D01*
X157761917Y-88342893D01*
X157042422Y-89062388D01*
X157034808Y-89076332D01*
X156304756Y-89076332D01*
X156305992Y-89074068D01*
X156305861Y-89072235D01*
X156301610Y-89065620D01*
X155578162Y-88342172D01*
X155566387Y-88335742D01*
X155554372Y-88345038D01*
X155514735Y-88401646D01*
X155509252Y-88411141D01*
X155415328Y-88612564D01*
X155411582Y-88622856D01*
X155354061Y-88837528D01*
X155352158Y-88848323D01*
X155332787Y-89069725D01*
X155332787Y-89080675D01*
X151333700Y-89080675D01*
X151333700Y-87970236D01*
X155931025Y-87970236D01*
X155938093Y-87983683D01*
X156657588Y-88703178D01*
X156671532Y-88710792D01*
X156673365Y-88710661D01*
X156679980Y-88706410D01*
X157403428Y-87982962D01*
X157409858Y-87971187D01*
X157400562Y-87959172D01*
X157343954Y-87919535D01*
X157334459Y-87914052D01*
X157133036Y-87820128D01*
X157122744Y-87816382D01*
X156908072Y-87758861D01*
X156897277Y-87756958D01*
X156675875Y-87737587D01*
X156664925Y-87737587D01*
X156443523Y-87756958D01*
X156432728Y-87758861D01*
X156218056Y-87816382D01*
X156207764Y-87820128D01*
X156006341Y-87914052D01*
X155996846Y-87919535D01*
X155939400Y-87959759D01*
X155931025Y-87970236D01*
X151333700Y-87970236D01*
X151333700Y-87416143D01*
X195070776Y-87416143D01*
X195087382Y-87585499D01*
X195141095Y-87746967D01*
X195144742Y-87752989D01*
X195144743Y-87752991D01*
X195162048Y-87781564D01*
X195229247Y-87892523D01*
X195347456Y-88014931D01*
X195353352Y-88018789D01*
X195475718Y-88098864D01*
X195521767Y-88152902D01*
X195531290Y-88223257D01*
X195512637Y-88272550D01*
X195466923Y-88343485D01*
X195466920Y-88343492D01*
X195463105Y-88349411D01*
X195460696Y-88356031D01*
X195460695Y-88356032D01*
X195458882Y-88361014D01*
X195404904Y-88509316D01*
X195383576Y-88678143D01*
X195400182Y-88847499D01*
X195453895Y-89008967D01*
X195457542Y-89014989D01*
X195457543Y-89014991D01*
X195493322Y-89074068D01*
X195542047Y-89154523D01*
X195546943Y-89159593D01*
X195566107Y-89179438D01*
X195660256Y-89276931D01*
X195802646Y-89370109D01*
X195962142Y-89429425D01*
X195969123Y-89430356D01*
X195969125Y-89430357D01*
X196003699Y-89434970D01*
X196130815Y-89451931D01*
X196137826Y-89451293D01*
X196137830Y-89451293D01*
X196293261Y-89437147D01*
X196300282Y-89436508D01*
X196306984Y-89434330D01*
X196306986Y-89434330D01*
X196455423Y-89386100D01*
X196455426Y-89386099D01*
X196462122Y-89383923D01*
X196546149Y-89333833D01*
X196602234Y-89300400D01*
X196602237Y-89300398D01*
X196608289Y-89296790D01*
X196731520Y-89179438D01*
X196742759Y-89162523D01*
X196794411Y-89084780D01*
X196825690Y-89037702D01*
X196831278Y-89022991D01*
X196883617Y-88885209D01*
X196883618Y-88885206D01*
X196886118Y-88878624D01*
X196909800Y-88710113D01*
X196910037Y-88693155D01*
X196910043Y-88692761D01*
X196910043Y-88692755D01*
X196910098Y-88688800D01*
X196892812Y-88534688D01*
X196891915Y-88526688D01*
X196891914Y-88526685D01*
X196891130Y-88519692D01*
X196835167Y-88358990D01*
X196829182Y-88349411D01*
X196748725Y-88220653D01*
X196744992Y-88214679D01*
X196683537Y-88152794D01*
X196630049Y-88098931D01*
X196630045Y-88098928D01*
X196625085Y-88093933D01*
X196506078Y-88018408D01*
X196459280Y-87965019D01*
X196448775Y-87894803D01*
X196468645Y-87842295D01*
X196508995Y-87781564D01*
X196512890Y-87775702D01*
X196521517Y-87752991D01*
X196570817Y-87623209D01*
X196570818Y-87623206D01*
X196573318Y-87616624D01*
X196597000Y-87448113D01*
X196597298Y-87426800D01*
X196578330Y-87257692D01*
X196522367Y-87096990D01*
X196518633Y-87091015D01*
X196518631Y-87091010D01*
X196446668Y-86975844D01*
X196427532Y-86907475D01*
X196448398Y-86839614D01*
X196489004Y-86800846D01*
X196549489Y-86764790D01*
X196672720Y-86647438D01*
X196678661Y-86638497D01*
X196755537Y-86522789D01*
X196766890Y-86505702D01*
X196777492Y-86477793D01*
X196824817Y-86353209D01*
X196824818Y-86353206D01*
X196827318Y-86346624D01*
X196851000Y-86178113D01*
X196851298Y-86156800D01*
X196834054Y-86003062D01*
X196833301Y-85996343D01*
X216226376Y-85996343D01*
X216242982Y-86165699D01*
X216245206Y-86172384D01*
X216245206Y-86172385D01*
X216248412Y-86182023D01*
X216296695Y-86327167D01*
X216300342Y-86333189D01*
X216300343Y-86333191D01*
X216341769Y-86401593D01*
X216384847Y-86472723D01*
X216389743Y-86477793D01*
X216408907Y-86497638D01*
X216503056Y-86595131D01*
X216645446Y-86688309D01*
X216804942Y-86747625D01*
X216811923Y-86748556D01*
X216811925Y-86748557D01*
X216858026Y-86754708D01*
X216973615Y-86770131D01*
X216980626Y-86769493D01*
X216980630Y-86769493D01*
X217136061Y-86755347D01*
X217143082Y-86754708D01*
X217149784Y-86752530D01*
X217149786Y-86752530D01*
X217298223Y-86704300D01*
X217298226Y-86704299D01*
X217304922Y-86702123D01*
X217376667Y-86659354D01*
X217445034Y-86618600D01*
X217445037Y-86618598D01*
X217451089Y-86614990D01*
X217574320Y-86497638D01*
X217668490Y-86355902D01*
X217677117Y-86333191D01*
X217726417Y-86203409D01*
X217726418Y-86203406D01*
X217728918Y-86196824D01*
X217752600Y-86028313D01*
X217752898Y-86007000D01*
X217739866Y-85890815D01*
X217752150Y-85820889D01*
X217800289Y-85768705D01*
X217865045Y-85751508D01*
X217865215Y-85751531D01*
X218034682Y-85736108D01*
X218041384Y-85733930D01*
X218041386Y-85733930D01*
X218189823Y-85685700D01*
X218189826Y-85685699D01*
X218196522Y-85683523D01*
X218323809Y-85607645D01*
X218336634Y-85600000D01*
X218336637Y-85599998D01*
X218342689Y-85596390D01*
X218465920Y-85479038D01*
X218471426Y-85470752D01*
X218547999Y-85355500D01*
X218560090Y-85337302D01*
X218588019Y-85263779D01*
X218618017Y-85184809D01*
X218618018Y-85184806D01*
X218620518Y-85178224D01*
X218644200Y-85009713D01*
X218644498Y-84988400D01*
X218630429Y-84862967D01*
X218626315Y-84826288D01*
X218626314Y-84826285D01*
X218625530Y-84819292D01*
X218569567Y-84658590D01*
X218563582Y-84649011D01*
X218483125Y-84520253D01*
X218479392Y-84514279D01*
X218399235Y-84433561D01*
X218364449Y-84398531D01*
X218364445Y-84398528D01*
X218359485Y-84393533D01*
X218279453Y-84342743D01*
X224509376Y-84342743D01*
X224525982Y-84512099D01*
X224528206Y-84518784D01*
X224528206Y-84518785D01*
X224531002Y-84527191D01*
X224579695Y-84673567D01*
X224583342Y-84679589D01*
X224583343Y-84679591D01*
X224639260Y-84771921D01*
X224667847Y-84819123D01*
X224672743Y-84824193D01*
X224702643Y-84855155D01*
X224786056Y-84941531D01*
X224928446Y-85034709D01*
X225087942Y-85094025D01*
X225094923Y-85094956D01*
X225094925Y-85094957D01*
X225141026Y-85101108D01*
X225256615Y-85116531D01*
X225263626Y-85115893D01*
X225263630Y-85115893D01*
X225419061Y-85101747D01*
X225426082Y-85101108D01*
X225432784Y-85098930D01*
X225432786Y-85098930D01*
X225581223Y-85050700D01*
X225581226Y-85050699D01*
X225587922Y-85048523D01*
X225682135Y-84992361D01*
X225728034Y-84965000D01*
X225728037Y-84964998D01*
X225734089Y-84961390D01*
X225857320Y-84844038D01*
X225863210Y-84835174D01*
X225947595Y-84708164D01*
X225951490Y-84702302D01*
X225957769Y-84685773D01*
X226009417Y-84549809D01*
X226009418Y-84549806D01*
X226011918Y-84543224D01*
X226035600Y-84374713D01*
X226035898Y-84353400D01*
X226024031Y-84247602D01*
X226017715Y-84191288D01*
X226017714Y-84191285D01*
X226016930Y-84184292D01*
X225960967Y-84023590D01*
X225954982Y-84014011D01*
X225874525Y-83885253D01*
X225870792Y-83879279D01*
X225775811Y-83783633D01*
X225755849Y-83763531D01*
X225755845Y-83763528D01*
X225750885Y-83758533D01*
X225607208Y-83667352D01*
X225446900Y-83610269D01*
X225277929Y-83590121D01*
X225270926Y-83590857D01*
X225270925Y-83590857D01*
X225115701Y-83607171D01*
X225115697Y-83607172D01*
X225108693Y-83607908D01*
X225102022Y-83610179D01*
X224954274Y-83660476D01*
X224954271Y-83660477D01*
X224947604Y-83662747D01*
X224941606Y-83666437D01*
X224941604Y-83666438D01*
X224894539Y-83695393D01*
X224802667Y-83751913D01*
X224797636Y-83756840D01*
X224797633Y-83756842D01*
X224770275Y-83783633D01*
X224681086Y-83870973D01*
X224588905Y-84014011D01*
X224586496Y-84020631D01*
X224586495Y-84020632D01*
X224551957Y-84115525D01*
X224530704Y-84173916D01*
X224509376Y-84342743D01*
X218279453Y-84342743D01*
X218215808Y-84302352D01*
X218055500Y-84245269D01*
X217886529Y-84225121D01*
X217879526Y-84225857D01*
X217879525Y-84225857D01*
X217724301Y-84242171D01*
X217724297Y-84242172D01*
X217717293Y-84242908D01*
X217710622Y-84245179D01*
X217562874Y-84295476D01*
X217562871Y-84295477D01*
X217556204Y-84297747D01*
X217550206Y-84301437D01*
X217550204Y-84301438D01*
X217495577Y-84335045D01*
X217411267Y-84386913D01*
X217406236Y-84391840D01*
X217406233Y-84391842D01*
X217371398Y-84425955D01*
X217289686Y-84505973D01*
X217197505Y-84649011D01*
X217195096Y-84655631D01*
X217195095Y-84655632D01*
X217152769Y-84771921D01*
X217139304Y-84808916D01*
X217117976Y-84977743D01*
X217120724Y-85005766D01*
X217130579Y-85106279D01*
X217117319Y-85176026D01*
X217068457Y-85227533D01*
X217004303Y-85244571D01*
X217001918Y-85244554D01*
X216994929Y-85243721D01*
X216987926Y-85244457D01*
X216832701Y-85260771D01*
X216832697Y-85260772D01*
X216825693Y-85261508D01*
X216819022Y-85263779D01*
X216671274Y-85314076D01*
X216671271Y-85314077D01*
X216664604Y-85316347D01*
X216658606Y-85320037D01*
X216658604Y-85320038D01*
X216604500Y-85353323D01*
X216519667Y-85405513D01*
X216514636Y-85410440D01*
X216514633Y-85410442D01*
X216503514Y-85421331D01*
X216398086Y-85524573D01*
X216305905Y-85667611D01*
X216303496Y-85674231D01*
X216303495Y-85674232D01*
X216253537Y-85811490D01*
X216247704Y-85827516D01*
X216226376Y-85996343D01*
X196833301Y-85996343D01*
X196833115Y-85994688D01*
X196833114Y-85994685D01*
X196832330Y-85987692D01*
X196776367Y-85826990D01*
X196770382Y-85817411D01*
X196689925Y-85688653D01*
X196686192Y-85682679D01*
X196626238Y-85622306D01*
X196571249Y-85566931D01*
X196571245Y-85566928D01*
X196566285Y-85561933D01*
X196422608Y-85470752D01*
X196262300Y-85413669D01*
X196093329Y-85393521D01*
X196086326Y-85394257D01*
X196086325Y-85394257D01*
X195931101Y-85410571D01*
X195931097Y-85410572D01*
X195924093Y-85411308D01*
X195917422Y-85413579D01*
X195769674Y-85463876D01*
X195769671Y-85463877D01*
X195763004Y-85466147D01*
X195757006Y-85469837D01*
X195757004Y-85469838D01*
X195751583Y-85473173D01*
X195618067Y-85555313D01*
X195613036Y-85560240D01*
X195613033Y-85560242D01*
X195581086Y-85591527D01*
X195496486Y-85674373D01*
X195404305Y-85817411D01*
X195401896Y-85824031D01*
X195401895Y-85824032D01*
X195361593Y-85934761D01*
X195346104Y-85977316D01*
X195324776Y-86146143D01*
X195341382Y-86315499D01*
X195395095Y-86476967D01*
X195475557Y-86609825D01*
X195493735Y-86678452D01*
X195471925Y-86746015D01*
X195433803Y-86782411D01*
X195364067Y-86825313D01*
X195359036Y-86830240D01*
X195359033Y-86830242D01*
X195334806Y-86853967D01*
X195242486Y-86944373D01*
X195150305Y-87087411D01*
X195147896Y-87094031D01*
X195147895Y-87094032D01*
X195144396Y-87103645D01*
X195092104Y-87247316D01*
X195070776Y-87416143D01*
X151333700Y-87416143D01*
X151333700Y-86448334D01*
X155336900Y-86448334D01*
X155343655Y-86510516D01*
X155394785Y-86646905D01*
X155482139Y-86763461D01*
X155598695Y-86850815D01*
X155735084Y-86901945D01*
X155797266Y-86908700D01*
X157543534Y-86908700D01*
X157605716Y-86901945D01*
X157742105Y-86850815D01*
X157858661Y-86763461D01*
X157946015Y-86646905D01*
X157997145Y-86510516D01*
X158003900Y-86448334D01*
X158003900Y-85920143D01*
X162840776Y-85920143D01*
X162857382Y-86089499D01*
X162911095Y-86250967D01*
X162914742Y-86256989D01*
X162914743Y-86256991D01*
X162932048Y-86285564D01*
X162999247Y-86396523D01*
X163004143Y-86401593D01*
X163023307Y-86421438D01*
X163117456Y-86518931D01*
X163259846Y-86612109D01*
X163419342Y-86671425D01*
X163426323Y-86672356D01*
X163426325Y-86672357D01*
X163472006Y-86678452D01*
X163588015Y-86693931D01*
X163595026Y-86693293D01*
X163595030Y-86693293D01*
X163750461Y-86679147D01*
X163757482Y-86678508D01*
X163764184Y-86676330D01*
X163764186Y-86676330D01*
X163912623Y-86628100D01*
X163912626Y-86628099D01*
X163919322Y-86625923D01*
X163991067Y-86583155D01*
X164059434Y-86542400D01*
X164059437Y-86542398D01*
X164065489Y-86538790D01*
X164188720Y-86421438D01*
X164282890Y-86279702D01*
X164291517Y-86256991D01*
X164340817Y-86127209D01*
X164340818Y-86127206D01*
X164343318Y-86120624D01*
X164367000Y-85952113D01*
X164367298Y-85930800D01*
X164348330Y-85761692D01*
X164292367Y-85600990D01*
X164286382Y-85591411D01*
X164205925Y-85462653D01*
X164202192Y-85456679D01*
X164139473Y-85393521D01*
X164087249Y-85340931D01*
X164087245Y-85340928D01*
X164082285Y-85335933D01*
X163938608Y-85244752D01*
X163778300Y-85187669D01*
X163609329Y-85167521D01*
X163602326Y-85168257D01*
X163602325Y-85168257D01*
X163447101Y-85184571D01*
X163447097Y-85184572D01*
X163440093Y-85185308D01*
X163433422Y-85187579D01*
X163285674Y-85237876D01*
X163285671Y-85237877D01*
X163279004Y-85240147D01*
X163273006Y-85243837D01*
X163273004Y-85243838D01*
X163236672Y-85266190D01*
X163134067Y-85329313D01*
X163129036Y-85334240D01*
X163129033Y-85334242D01*
X163073276Y-85388843D01*
X163012486Y-85448373D01*
X162920305Y-85591411D01*
X162917896Y-85598031D01*
X162917895Y-85598032D01*
X162870299Y-85728801D01*
X162862104Y-85751316D01*
X162840776Y-85920143D01*
X158003900Y-85920143D01*
X158003900Y-84702066D01*
X157997145Y-84639884D01*
X157946015Y-84503495D01*
X157858661Y-84386939D01*
X157742105Y-84299585D01*
X157605716Y-84248455D01*
X157543534Y-84241700D01*
X155797266Y-84241700D01*
X155735084Y-84248455D01*
X155598695Y-84299585D01*
X155482139Y-84386939D01*
X155394785Y-84503495D01*
X155343655Y-84639884D01*
X155336900Y-84702066D01*
X155336900Y-86448334D01*
X151333700Y-86448334D01*
X151333700Y-83467174D01*
X161895145Y-83467174D01*
X161895442Y-83472326D01*
X161895442Y-83472330D01*
X161900909Y-83567135D01*
X161908013Y-83690341D01*
X161909150Y-83695387D01*
X161909151Y-83695393D01*
X161924507Y-83763531D01*
X161957157Y-83908410D01*
X161997633Y-84008090D01*
X162034868Y-84099790D01*
X162041257Y-84115525D01*
X162043962Y-84119940D01*
X162043963Y-84119941D01*
X162081323Y-84180906D01*
X162158056Y-84306122D01*
X162304415Y-84475084D01*
X162308390Y-84478384D01*
X162308393Y-84478387D01*
X162357053Y-84518785D01*
X162476405Y-84617873D01*
X162669407Y-84730654D01*
X162674227Y-84732494D01*
X162674232Y-84732497D01*
X162777687Y-84772002D01*
X162878237Y-84810398D01*
X162883305Y-84811429D01*
X162883308Y-84811430D01*
X162946040Y-84824193D01*
X163097287Y-84854965D01*
X163102460Y-84855155D01*
X163102463Y-84855155D01*
X163315511Y-84862967D01*
X163315515Y-84862967D01*
X163320675Y-84863156D01*
X163325795Y-84862500D01*
X163325797Y-84862500D01*
X163537273Y-84835409D01*
X163537274Y-84835409D01*
X163542401Y-84834752D01*
X163579623Y-84823585D01*
X163751557Y-84772002D01*
X163756510Y-84770516D01*
X163761149Y-84768243D01*
X163761155Y-84768241D01*
X163952616Y-84674445D01*
X163957254Y-84672173D01*
X164012894Y-84632485D01*
X164135027Y-84545369D01*
X164135032Y-84545365D01*
X164139239Y-84542364D01*
X164297580Y-84384575D01*
X164428024Y-84203043D01*
X164437292Y-84184292D01*
X164524773Y-84007287D01*
X164524774Y-84007285D01*
X164527067Y-84002645D01*
X164592050Y-83788760D01*
X164621228Y-83567135D01*
X164621493Y-83556288D01*
X164622774Y-83503866D01*
X164622774Y-83503862D01*
X164622856Y-83500501D01*
X164620116Y-83467174D01*
X165395146Y-83467174D01*
X165395443Y-83472326D01*
X165395443Y-83472330D01*
X165400910Y-83567135D01*
X165408014Y-83690341D01*
X165409151Y-83695387D01*
X165409152Y-83695393D01*
X165424508Y-83763531D01*
X165457158Y-83908410D01*
X165497634Y-84008090D01*
X165534869Y-84099790D01*
X165541258Y-84115525D01*
X165543963Y-84119940D01*
X165543964Y-84119941D01*
X165581324Y-84180906D01*
X165658057Y-84306122D01*
X165804416Y-84475084D01*
X165808391Y-84478384D01*
X165808394Y-84478387D01*
X165857054Y-84518785D01*
X165976406Y-84617873D01*
X166169408Y-84730654D01*
X166174228Y-84732494D01*
X166174233Y-84732497D01*
X166277688Y-84772002D01*
X166378238Y-84810398D01*
X166383306Y-84811429D01*
X166383309Y-84811430D01*
X166446041Y-84824193D01*
X166597288Y-84854965D01*
X166602461Y-84855155D01*
X166602464Y-84855155D01*
X166815512Y-84862967D01*
X166815516Y-84862967D01*
X166820676Y-84863156D01*
X166825796Y-84862500D01*
X166825798Y-84862500D01*
X167037274Y-84835409D01*
X167037275Y-84835409D01*
X167042402Y-84834752D01*
X167079624Y-84823585D01*
X167251558Y-84772002D01*
X167256511Y-84770516D01*
X167261150Y-84768243D01*
X167261156Y-84768241D01*
X167452617Y-84674445D01*
X167457255Y-84672173D01*
X167512895Y-84632485D01*
X167635028Y-84545369D01*
X167635033Y-84545365D01*
X167639240Y-84542364D01*
X167797581Y-84384575D01*
X167928025Y-84203043D01*
X167937293Y-84184292D01*
X168024774Y-84007287D01*
X168024775Y-84007285D01*
X168027068Y-84002645D01*
X168092051Y-83788760D01*
X168121229Y-83567135D01*
X168121494Y-83556288D01*
X168122775Y-83503866D01*
X168122775Y-83503862D01*
X168122857Y-83500501D01*
X168120117Y-83467174D01*
X168895146Y-83467174D01*
X168895443Y-83472326D01*
X168895443Y-83472330D01*
X168900910Y-83567135D01*
X168908014Y-83690341D01*
X168909151Y-83695387D01*
X168909152Y-83695393D01*
X168924508Y-83763531D01*
X168957158Y-83908410D01*
X168997634Y-84008090D01*
X169034869Y-84099790D01*
X169041258Y-84115525D01*
X169043963Y-84119940D01*
X169043964Y-84119941D01*
X169081324Y-84180906D01*
X169158057Y-84306122D01*
X169304416Y-84475084D01*
X169308391Y-84478384D01*
X169308394Y-84478387D01*
X169357054Y-84518785D01*
X169476406Y-84617873D01*
X169669408Y-84730654D01*
X169674228Y-84732494D01*
X169674233Y-84732497D01*
X169777688Y-84772002D01*
X169878238Y-84810398D01*
X169883306Y-84811429D01*
X169883309Y-84811430D01*
X169946041Y-84824193D01*
X170097288Y-84854965D01*
X170102461Y-84855155D01*
X170102464Y-84855155D01*
X170315512Y-84862967D01*
X170315516Y-84862967D01*
X170320676Y-84863156D01*
X170325796Y-84862500D01*
X170325798Y-84862500D01*
X170537274Y-84835409D01*
X170537275Y-84835409D01*
X170542402Y-84834752D01*
X170579624Y-84823585D01*
X170751558Y-84772002D01*
X170756511Y-84770516D01*
X170761150Y-84768243D01*
X170761156Y-84768241D01*
X170952617Y-84674445D01*
X170957255Y-84672173D01*
X171012895Y-84632485D01*
X171135028Y-84545369D01*
X171135033Y-84545365D01*
X171139240Y-84542364D01*
X171297581Y-84384575D01*
X171428025Y-84203043D01*
X171437293Y-84184292D01*
X171524774Y-84007287D01*
X171524775Y-84007285D01*
X171527068Y-84002645D01*
X171592051Y-83788760D01*
X171621229Y-83567135D01*
X171621494Y-83556288D01*
X171622775Y-83503866D01*
X171622775Y-83503862D01*
X171622857Y-83500501D01*
X171620117Y-83467174D01*
X172395147Y-83467174D01*
X172395444Y-83472326D01*
X172395444Y-83472330D01*
X172400911Y-83567135D01*
X172408015Y-83690341D01*
X172409152Y-83695387D01*
X172409153Y-83695393D01*
X172424509Y-83763531D01*
X172457159Y-83908410D01*
X172497635Y-84008090D01*
X172534870Y-84099790D01*
X172541259Y-84115525D01*
X172543964Y-84119940D01*
X172543965Y-84119941D01*
X172581325Y-84180906D01*
X172658058Y-84306122D01*
X172804417Y-84475084D01*
X172808392Y-84478384D01*
X172808395Y-84478387D01*
X172857055Y-84518785D01*
X172976407Y-84617873D01*
X173169409Y-84730654D01*
X173174229Y-84732494D01*
X173174234Y-84732497D01*
X173277689Y-84772002D01*
X173378239Y-84810398D01*
X173383307Y-84811429D01*
X173383310Y-84811430D01*
X173446042Y-84824193D01*
X173597289Y-84854965D01*
X173602462Y-84855155D01*
X173602465Y-84855155D01*
X173815513Y-84862967D01*
X173815517Y-84862967D01*
X173820677Y-84863156D01*
X173825797Y-84862500D01*
X173825799Y-84862500D01*
X174037275Y-84835409D01*
X174037276Y-84835409D01*
X174042403Y-84834752D01*
X174079625Y-84823585D01*
X174251559Y-84772002D01*
X174256512Y-84770516D01*
X174261151Y-84768243D01*
X174261157Y-84768241D01*
X174452618Y-84674445D01*
X174457256Y-84672173D01*
X174512896Y-84632485D01*
X174635029Y-84545369D01*
X174635034Y-84545365D01*
X174639241Y-84542364D01*
X174797582Y-84384575D01*
X174928026Y-84203043D01*
X174937294Y-84184292D01*
X175024775Y-84007287D01*
X175024776Y-84007285D01*
X175027069Y-84002645D01*
X175092052Y-83788760D01*
X175121230Y-83567135D01*
X175121495Y-83556288D01*
X175122776Y-83503866D01*
X175122776Y-83503862D01*
X175122858Y-83500501D01*
X175120118Y-83467174D01*
X175895148Y-83467174D01*
X175895445Y-83472326D01*
X175895445Y-83472330D01*
X175900912Y-83567135D01*
X175908016Y-83690341D01*
X175909153Y-83695387D01*
X175909154Y-83695393D01*
X175924510Y-83763531D01*
X175957160Y-83908410D01*
X175997636Y-84008090D01*
X176034871Y-84099790D01*
X176041260Y-84115525D01*
X176043965Y-84119940D01*
X176043966Y-84119941D01*
X176081326Y-84180906D01*
X176158059Y-84306122D01*
X176304418Y-84475084D01*
X176308393Y-84478384D01*
X176308396Y-84478387D01*
X176357056Y-84518785D01*
X176476408Y-84617873D01*
X176669410Y-84730654D01*
X176674230Y-84732494D01*
X176674235Y-84732497D01*
X176777690Y-84772002D01*
X176878240Y-84810398D01*
X176883308Y-84811429D01*
X176883311Y-84811430D01*
X176946043Y-84824193D01*
X177097290Y-84854965D01*
X177102463Y-84855155D01*
X177102466Y-84855155D01*
X177315514Y-84862967D01*
X177315518Y-84862967D01*
X177320678Y-84863156D01*
X177325798Y-84862500D01*
X177325800Y-84862500D01*
X177537276Y-84835409D01*
X177537277Y-84835409D01*
X177542404Y-84834752D01*
X177579626Y-84823585D01*
X177751560Y-84772002D01*
X177756513Y-84770516D01*
X177761152Y-84768243D01*
X177761158Y-84768241D01*
X177952619Y-84674445D01*
X177957257Y-84672173D01*
X178012897Y-84632485D01*
X178135030Y-84545369D01*
X178135035Y-84545365D01*
X178139242Y-84542364D01*
X178297583Y-84384575D01*
X178428027Y-84203043D01*
X178437295Y-84184292D01*
X178524776Y-84007287D01*
X178524777Y-84007285D01*
X178527070Y-84002645D01*
X178592053Y-83788760D01*
X178621231Y-83567135D01*
X178621496Y-83556288D01*
X178622777Y-83503866D01*
X178622777Y-83503862D01*
X178622859Y-83500501D01*
X178620119Y-83467174D01*
X179395151Y-83467174D01*
X179395448Y-83472326D01*
X179395448Y-83472330D01*
X179400915Y-83567135D01*
X179408019Y-83690341D01*
X179409156Y-83695387D01*
X179409157Y-83695393D01*
X179424513Y-83763531D01*
X179457163Y-83908410D01*
X179497639Y-84008090D01*
X179534874Y-84099790D01*
X179541263Y-84115525D01*
X179543968Y-84119940D01*
X179543969Y-84119941D01*
X179581329Y-84180906D01*
X179658062Y-84306122D01*
X179804421Y-84475084D01*
X179808396Y-84478384D01*
X179808399Y-84478387D01*
X179857059Y-84518785D01*
X179976411Y-84617873D01*
X180169413Y-84730654D01*
X180174233Y-84732494D01*
X180174238Y-84732497D01*
X180277693Y-84772002D01*
X180378243Y-84810398D01*
X180383311Y-84811429D01*
X180383314Y-84811430D01*
X180446046Y-84824193D01*
X180597293Y-84854965D01*
X180602466Y-84855155D01*
X180602469Y-84855155D01*
X180815517Y-84862967D01*
X180815521Y-84862967D01*
X180820681Y-84863156D01*
X180825801Y-84862500D01*
X180825803Y-84862500D01*
X181037279Y-84835409D01*
X181037280Y-84835409D01*
X181042407Y-84834752D01*
X181079629Y-84823585D01*
X181251563Y-84772002D01*
X181256516Y-84770516D01*
X181261155Y-84768243D01*
X181261161Y-84768241D01*
X181452622Y-84674445D01*
X181457260Y-84672173D01*
X181491790Y-84647543D01*
X185875976Y-84647543D01*
X185892582Y-84816899D01*
X185946295Y-84978367D01*
X185949942Y-84984389D01*
X185949943Y-84984391D01*
X185988783Y-85048523D01*
X186034447Y-85123923D01*
X186039343Y-85128993D01*
X186056828Y-85147099D01*
X186152656Y-85246331D01*
X186295046Y-85339509D01*
X186454542Y-85398825D01*
X186461523Y-85399756D01*
X186461525Y-85399757D01*
X186507626Y-85405908D01*
X186623215Y-85421331D01*
X186630226Y-85420693D01*
X186630230Y-85420693D01*
X186785661Y-85406547D01*
X186792682Y-85405908D01*
X186799384Y-85403730D01*
X186799386Y-85403730D01*
X186947823Y-85355500D01*
X186947826Y-85355499D01*
X186954522Y-85353323D01*
X187026267Y-85310554D01*
X187094634Y-85269800D01*
X187094637Y-85269798D01*
X187100689Y-85266190D01*
X187223920Y-85148838D01*
X187247489Y-85113365D01*
X187295435Y-85041200D01*
X187318090Y-85007102D01*
X187325194Y-84988400D01*
X187376017Y-84854609D01*
X187376018Y-84854606D01*
X187378518Y-84848024D01*
X187402200Y-84679513D01*
X187402379Y-84666723D01*
X187402443Y-84662161D01*
X187402443Y-84662155D01*
X187402498Y-84658200D01*
X187389096Y-84538713D01*
X187384315Y-84496088D01*
X187384314Y-84496085D01*
X187383530Y-84489092D01*
X187327567Y-84328390D01*
X187321582Y-84318811D01*
X187241125Y-84190053D01*
X187237392Y-84184079D01*
X187164554Y-84110731D01*
X187122449Y-84068331D01*
X187122445Y-84068328D01*
X187117485Y-84063333D01*
X186973808Y-83972152D01*
X186813500Y-83915069D01*
X186644529Y-83894921D01*
X186637526Y-83895657D01*
X186637525Y-83895657D01*
X186482301Y-83911971D01*
X186482297Y-83911972D01*
X186475293Y-83912708D01*
X186468622Y-83914979D01*
X186320874Y-83965276D01*
X186320871Y-83965277D01*
X186314204Y-83967547D01*
X186308206Y-83971237D01*
X186308204Y-83971238D01*
X186260971Y-84000296D01*
X186169267Y-84056713D01*
X186164236Y-84061640D01*
X186164233Y-84061642D01*
X186125278Y-84099790D01*
X186047686Y-84175773D01*
X185955505Y-84318811D01*
X185953096Y-84325431D01*
X185953095Y-84325432D01*
X185904471Y-84459025D01*
X185897304Y-84478716D01*
X185875976Y-84647543D01*
X181491790Y-84647543D01*
X181512900Y-84632485D01*
X181635033Y-84545369D01*
X181635038Y-84545365D01*
X181639245Y-84542364D01*
X181797586Y-84384575D01*
X181928030Y-84203043D01*
X181937298Y-84184292D01*
X182024779Y-84007287D01*
X182024780Y-84007285D01*
X182027073Y-84002645D01*
X182092056Y-83788760D01*
X182102722Y-83707743D01*
X187780976Y-83707743D01*
X187797582Y-83877099D01*
X187799806Y-83883784D01*
X187799806Y-83883785D01*
X187803658Y-83895364D01*
X187851295Y-84038567D01*
X187854942Y-84044589D01*
X187854943Y-84044591D01*
X187900577Y-84119941D01*
X187939447Y-84184123D01*
X187944343Y-84189193D01*
X187959570Y-84204961D01*
X188057656Y-84306531D01*
X188200046Y-84399709D01*
X188359542Y-84459025D01*
X188366523Y-84459956D01*
X188366525Y-84459957D01*
X188412626Y-84466108D01*
X188528215Y-84481531D01*
X188535226Y-84480893D01*
X188535230Y-84480893D01*
X188690661Y-84466747D01*
X188697682Y-84466108D01*
X188704384Y-84463930D01*
X188704386Y-84463930D01*
X188852823Y-84415700D01*
X188852826Y-84415699D01*
X188859522Y-84413523D01*
X188953735Y-84357361D01*
X188999634Y-84330000D01*
X188999637Y-84329998D01*
X189005689Y-84326390D01*
X189128920Y-84209038D01*
X189134261Y-84201000D01*
X189191050Y-84115525D01*
X189223090Y-84067302D01*
X189226031Y-84059559D01*
X189281017Y-83914809D01*
X189281018Y-83914806D01*
X189283518Y-83908224D01*
X189307200Y-83739713D01*
X189307330Y-83730424D01*
X189307443Y-83722361D01*
X189307443Y-83722355D01*
X189307498Y-83718400D01*
X189295466Y-83611131D01*
X189289315Y-83556288D01*
X189289314Y-83556285D01*
X189288530Y-83549292D01*
X189232567Y-83388590D01*
X189226582Y-83379011D01*
X189146125Y-83250253D01*
X189142392Y-83244279D01*
X189079875Y-83181325D01*
X189027449Y-83128531D01*
X189027445Y-83128528D01*
X189022485Y-83123533D01*
X188878808Y-83032352D01*
X188718500Y-82975269D01*
X188549529Y-82955121D01*
X188542526Y-82955857D01*
X188542525Y-82955857D01*
X188387301Y-82972171D01*
X188387297Y-82972172D01*
X188380293Y-82972908D01*
X188373622Y-82975179D01*
X188225874Y-83025476D01*
X188225871Y-83025477D01*
X188219204Y-83027747D01*
X188213206Y-83031437D01*
X188213204Y-83031438D01*
X188157148Y-83065924D01*
X188074267Y-83116913D01*
X188069236Y-83121840D01*
X188069233Y-83121842D01*
X188052733Y-83138000D01*
X187952686Y-83235973D01*
X187860505Y-83379011D01*
X187858096Y-83385631D01*
X187858095Y-83385632D01*
X187805570Y-83529943D01*
X187802304Y-83538916D01*
X187780976Y-83707743D01*
X182102722Y-83707743D01*
X182121234Y-83567135D01*
X182121499Y-83556288D01*
X182122780Y-83503866D01*
X182122780Y-83503862D01*
X182122862Y-83500501D01*
X182104546Y-83277715D01*
X182050088Y-83060912D01*
X181993748Y-82931338D01*
X181963013Y-82860651D01*
X181963011Y-82860648D01*
X181960953Y-82855914D01*
X181850832Y-82685692D01*
X181842341Y-82672567D01*
X181842339Y-82672564D01*
X181839533Y-82668227D01*
X181689089Y-82502891D01*
X181685038Y-82499692D01*
X181685034Y-82499688D01*
X181596848Y-82430043D01*
X198441276Y-82430043D01*
X198457882Y-82599399D01*
X198511595Y-82760867D01*
X198515242Y-82766889D01*
X198515243Y-82766891D01*
X198531831Y-82794281D01*
X198599747Y-82906423D01*
X198717956Y-83028831D01*
X198860346Y-83122009D01*
X199019842Y-83181325D01*
X199026823Y-83182256D01*
X199026825Y-83182257D01*
X199072926Y-83188408D01*
X199188515Y-83203831D01*
X199195526Y-83203193D01*
X199195530Y-83203193D01*
X199350961Y-83189047D01*
X199357982Y-83188408D01*
X199364684Y-83186230D01*
X199364686Y-83186230D01*
X199513123Y-83138000D01*
X199513126Y-83137999D01*
X199519822Y-83135823D01*
X199637079Y-83065924D01*
X199659934Y-83052300D01*
X199659937Y-83052298D01*
X199665989Y-83048690D01*
X199789220Y-82931338D01*
X199883390Y-82789602D01*
X199886738Y-82780789D01*
X199901266Y-82742543D01*
X201877976Y-82742543D01*
X201894582Y-82911899D01*
X201896806Y-82918584D01*
X201896806Y-82918585D01*
X201907126Y-82949609D01*
X201948295Y-83073367D01*
X201951942Y-83079389D01*
X201951943Y-83079391D01*
X201983935Y-83132216D01*
X202036447Y-83218923D01*
X202041343Y-83223993D01*
X202056107Y-83239281D01*
X202154656Y-83341331D01*
X202213090Y-83379569D01*
X202224603Y-83387103D01*
X202270652Y-83441140D01*
X202280175Y-83511495D01*
X202250150Y-83575830D01*
X202233184Y-83591824D01*
X202228068Y-83595821D01*
X202222067Y-83599513D01*
X202100486Y-83718573D01*
X202008305Y-83861611D01*
X202005896Y-83868231D01*
X202005895Y-83868232D01*
X201952513Y-84014897D01*
X201950104Y-84021516D01*
X201928776Y-84190343D01*
X201945382Y-84359699D01*
X201947606Y-84366384D01*
X201947606Y-84366385D01*
X201972041Y-84439839D01*
X201999095Y-84521167D01*
X202002742Y-84527189D01*
X202002743Y-84527191D01*
X202020048Y-84555764D01*
X202087247Y-84666723D01*
X202092143Y-84671793D01*
X202124677Y-84705483D01*
X202205456Y-84789131D01*
X202347846Y-84882309D01*
X202507342Y-84941625D01*
X202514323Y-84942556D01*
X202514325Y-84942557D01*
X202560426Y-84948708D01*
X202676015Y-84964131D01*
X202683026Y-84963493D01*
X202683030Y-84963493D01*
X202838461Y-84949347D01*
X202845482Y-84948708D01*
X202852184Y-84946530D01*
X202852186Y-84946530D01*
X203000623Y-84898300D01*
X203000626Y-84898299D01*
X203007322Y-84896123D01*
X203088009Y-84848024D01*
X203147434Y-84812600D01*
X203147437Y-84812598D01*
X203153489Y-84808990D01*
X203276720Y-84691638D01*
X203287399Y-84675566D01*
X203366995Y-84555764D01*
X203370890Y-84549902D01*
X203373427Y-84543224D01*
X203420637Y-84418943D01*
X210285376Y-84418943D01*
X210301982Y-84588299D01*
X210304206Y-84594984D01*
X210304206Y-84594985D01*
X210327578Y-84665245D01*
X210355695Y-84749767D01*
X210359342Y-84755789D01*
X210359343Y-84755791D01*
X210397801Y-84819292D01*
X210443847Y-84895323D01*
X210448743Y-84900393D01*
X210463941Y-84916131D01*
X210562056Y-85017731D01*
X210704446Y-85110909D01*
X210863942Y-85170225D01*
X210870923Y-85171156D01*
X210870925Y-85171157D01*
X210917026Y-85177308D01*
X211032615Y-85192731D01*
X211039626Y-85192093D01*
X211039630Y-85192093D01*
X211195061Y-85177947D01*
X211202082Y-85177308D01*
X211208784Y-85175130D01*
X211208786Y-85175130D01*
X211357223Y-85126900D01*
X211357226Y-85126899D01*
X211363922Y-85124723D01*
X211435667Y-85081954D01*
X211504034Y-85041200D01*
X211504037Y-85041198D01*
X211510089Y-85037590D01*
X211633320Y-84920238D01*
X211656889Y-84884765D01*
X211701979Y-84816899D01*
X211727490Y-84778502D01*
X211736117Y-84755791D01*
X211785417Y-84626009D01*
X211785418Y-84626006D01*
X211787918Y-84619424D01*
X211811600Y-84450913D01*
X211811898Y-84429600D01*
X211800502Y-84328000D01*
X211793715Y-84267488D01*
X211793714Y-84267485D01*
X211792930Y-84260492D01*
X211736967Y-84099790D01*
X211730982Y-84090211D01*
X211650525Y-83961453D01*
X211646792Y-83955479D01*
X211586655Y-83894921D01*
X211531849Y-83839731D01*
X211531845Y-83839728D01*
X211526885Y-83834733D01*
X211383208Y-83743552D01*
X211222900Y-83686469D01*
X211053929Y-83666321D01*
X211046926Y-83667057D01*
X211046925Y-83667057D01*
X210891701Y-83683371D01*
X210891697Y-83683372D01*
X210884693Y-83684108D01*
X210878022Y-83686379D01*
X210730274Y-83736676D01*
X210730271Y-83736677D01*
X210723604Y-83738947D01*
X210717606Y-83742637D01*
X210717604Y-83742638D01*
X210702528Y-83751913D01*
X210578667Y-83828113D01*
X210573636Y-83833040D01*
X210573633Y-83833042D01*
X210535801Y-83870090D01*
X210457086Y-83947173D01*
X210364905Y-84090211D01*
X210362496Y-84096831D01*
X210362495Y-84096832D01*
X210309113Y-84243497D01*
X210306704Y-84250116D01*
X210285376Y-84418943D01*
X203420637Y-84418943D01*
X203428817Y-84397409D01*
X203428818Y-84397406D01*
X203431318Y-84390824D01*
X203455000Y-84222313D01*
X203455298Y-84201000D01*
X203443614Y-84096832D01*
X203437115Y-84038888D01*
X203437114Y-84038885D01*
X203436330Y-84031892D01*
X203380367Y-83871190D01*
X203374382Y-83861611D01*
X203293925Y-83732853D01*
X203290192Y-83726879D01*
X203201282Y-83637347D01*
X203175249Y-83611131D01*
X203175245Y-83611128D01*
X203170285Y-83606133D01*
X203110075Y-83567922D01*
X203076785Y-83529943D01*
X205814976Y-83529943D01*
X205831582Y-83699299D01*
X205833806Y-83705984D01*
X205833806Y-83705985D01*
X205839094Y-83721881D01*
X205885295Y-83860767D01*
X205888942Y-83866789D01*
X205888943Y-83866791D01*
X205919614Y-83917434D01*
X205973447Y-84006323D01*
X205978343Y-84011393D01*
X205994869Y-84028506D01*
X206091656Y-84128731D01*
X206234046Y-84221909D01*
X206393542Y-84281225D01*
X206400523Y-84282156D01*
X206400525Y-84282157D01*
X206446626Y-84288308D01*
X206562215Y-84303731D01*
X206569226Y-84303093D01*
X206569230Y-84303093D01*
X206724661Y-84288947D01*
X206731682Y-84288308D01*
X206738384Y-84286130D01*
X206738386Y-84286130D01*
X206886823Y-84237900D01*
X206886826Y-84237899D01*
X206893522Y-84235723D01*
X206971577Y-84189193D01*
X207033634Y-84152200D01*
X207033637Y-84152198D01*
X207039689Y-84148590D01*
X207162920Y-84031238D01*
X207168002Y-84023590D01*
X207240657Y-83914235D01*
X207257090Y-83889502D01*
X207261802Y-83877099D01*
X207312878Y-83742638D01*
X207317518Y-83730424D01*
X207323363Y-83688834D01*
X207326692Y-83665150D01*
X207355981Y-83600476D01*
X207412529Y-83562853D01*
X207445625Y-83552099D01*
X207452322Y-83549923D01*
X207497571Y-83522949D01*
X207592434Y-83466400D01*
X207592437Y-83466398D01*
X207598489Y-83462790D01*
X207721720Y-83345438D01*
X207815890Y-83203702D01*
X207818390Y-83197121D01*
X207873817Y-83051209D01*
X207873818Y-83051206D01*
X207876318Y-83044624D01*
X207900000Y-82876113D01*
X207900298Y-82854800D01*
X207881330Y-82685692D01*
X207825367Y-82524990D01*
X207819382Y-82515411D01*
X207738925Y-82386653D01*
X207735192Y-82380679D01*
X207675239Y-82320306D01*
X207620249Y-82264931D01*
X207620245Y-82264928D01*
X207615285Y-82259933D01*
X207486406Y-82178143D01*
X209960776Y-82178143D01*
X209977382Y-82347499D01*
X209979606Y-82354184D01*
X209979606Y-82354185D01*
X210001643Y-82420432D01*
X210031095Y-82508967D01*
X210034742Y-82514989D01*
X210034743Y-82514991D01*
X210052048Y-82543564D01*
X210119247Y-82654523D01*
X210124143Y-82659593D01*
X210139327Y-82675316D01*
X210237456Y-82776931D01*
X210379846Y-82870109D01*
X210539342Y-82929425D01*
X210546323Y-82930356D01*
X210546325Y-82930357D01*
X210590088Y-82936196D01*
X210708015Y-82951931D01*
X210715026Y-82951293D01*
X210715030Y-82951293D01*
X210870461Y-82937147D01*
X210877482Y-82936508D01*
X210884184Y-82934330D01*
X210884186Y-82934330D01*
X211032623Y-82886100D01*
X211032626Y-82886099D01*
X211039322Y-82883923D01*
X211125266Y-82832690D01*
X211179434Y-82800400D01*
X211179437Y-82800398D01*
X211185489Y-82796790D01*
X211308720Y-82679438D01*
X211315857Y-82668697D01*
X211374318Y-82580706D01*
X211402890Y-82537702D01*
X211407719Y-82524990D01*
X211460817Y-82385209D01*
X211460818Y-82385206D01*
X211463318Y-82378624D01*
X211487000Y-82210113D01*
X211487298Y-82188800D01*
X211468330Y-82019692D01*
X211412367Y-81858990D01*
X211406382Y-81849411D01*
X211325925Y-81720653D01*
X211322192Y-81714679D01*
X211262238Y-81654306D01*
X211207249Y-81598931D01*
X211207245Y-81598928D01*
X211202285Y-81593933D01*
X211058608Y-81502752D01*
X210898300Y-81445669D01*
X210729329Y-81425521D01*
X210722326Y-81426257D01*
X210722325Y-81426257D01*
X210567101Y-81442571D01*
X210567097Y-81442572D01*
X210560093Y-81443308D01*
X210553422Y-81445579D01*
X210405674Y-81495876D01*
X210405671Y-81495877D01*
X210399004Y-81498147D01*
X210393006Y-81501837D01*
X210393004Y-81501838D01*
X210385379Y-81506529D01*
X210254067Y-81587313D01*
X210249036Y-81592240D01*
X210249033Y-81592242D01*
X210204297Y-81636051D01*
X210132486Y-81706373D01*
X210040305Y-81849411D01*
X210037896Y-81856031D01*
X210037895Y-81856032D01*
X209997659Y-81966579D01*
X209982104Y-82009316D01*
X209960776Y-82178143D01*
X207486406Y-82178143D01*
X207471608Y-82168752D01*
X207311300Y-82111669D01*
X207142329Y-82091521D01*
X207135326Y-82092257D01*
X207135325Y-82092257D01*
X206980101Y-82108571D01*
X206980097Y-82108572D01*
X206973093Y-82109308D01*
X206966422Y-82111579D01*
X206818674Y-82161876D01*
X206818671Y-82161877D01*
X206812004Y-82164147D01*
X206806006Y-82167837D01*
X206806004Y-82167838D01*
X206789254Y-82178143D01*
X206667067Y-82253313D01*
X206662036Y-82258240D01*
X206662033Y-82258242D01*
X206640755Y-82279079D01*
X206545486Y-82372373D01*
X206453305Y-82515411D01*
X206450896Y-82522031D01*
X206450895Y-82522032D01*
X206397684Y-82668227D01*
X206395104Y-82675316D01*
X206394221Y-82682304D01*
X206394221Y-82682305D01*
X206388296Y-82729205D01*
X206359914Y-82794281D01*
X206303896Y-82832690D01*
X206259871Y-82847677D01*
X206259868Y-82847678D01*
X206253204Y-82849947D01*
X206247209Y-82853635D01*
X206247205Y-82853637D01*
X206161404Y-82906423D01*
X206108267Y-82939113D01*
X206103236Y-82944040D01*
X206103233Y-82944042D01*
X206091920Y-82955121D01*
X205986686Y-83058173D01*
X205894505Y-83201211D01*
X205892096Y-83207831D01*
X205892095Y-83207832D01*
X205880416Y-83239919D01*
X205836304Y-83361116D01*
X205814976Y-83529943D01*
X203076785Y-83529943D01*
X203063277Y-83514532D01*
X203052772Y-83444317D01*
X203081896Y-83379569D01*
X203099166Y-83363290D01*
X203102689Y-83361190D01*
X203225920Y-83243838D01*
X203234421Y-83231044D01*
X203296239Y-83138000D01*
X203320090Y-83102102D01*
X203328717Y-83079391D01*
X203378017Y-82949609D01*
X203378018Y-82949606D01*
X203380518Y-82943024D01*
X203404200Y-82774513D01*
X203404498Y-82753200D01*
X203392754Y-82648496D01*
X203386315Y-82591088D01*
X203386314Y-82591085D01*
X203385530Y-82584092D01*
X203341643Y-82458066D01*
X203331884Y-82430043D01*
X203331883Y-82430042D01*
X203329567Y-82423390D01*
X203323582Y-82413811D01*
X203243125Y-82285053D01*
X203239392Y-82279079D01*
X203153674Y-82192761D01*
X203124449Y-82163331D01*
X203124445Y-82163328D01*
X203119485Y-82158333D01*
X202975808Y-82067152D01*
X202815500Y-82010069D01*
X202646529Y-81989921D01*
X202639526Y-81990657D01*
X202639525Y-81990657D01*
X202484301Y-82006971D01*
X202484297Y-82006972D01*
X202477293Y-82007708D01*
X202470622Y-82009979D01*
X202322874Y-82060276D01*
X202322871Y-82060277D01*
X202316204Y-82062547D01*
X202310206Y-82066237D01*
X202310204Y-82066238D01*
X202253194Y-82101311D01*
X202171267Y-82151713D01*
X202166236Y-82156640D01*
X202166233Y-82156642D01*
X202129350Y-82192761D01*
X202049686Y-82270773D01*
X201957505Y-82413811D01*
X201955096Y-82420431D01*
X201955095Y-82420432D01*
X201917039Y-82524990D01*
X201899304Y-82573716D01*
X201877976Y-82742543D01*
X199901266Y-82742543D01*
X199941317Y-82637109D01*
X199941318Y-82637106D01*
X199943818Y-82630524D01*
X199967500Y-82462013D01*
X199967798Y-82440700D01*
X199948830Y-82271592D01*
X199892867Y-82110890D01*
X199886882Y-82101311D01*
X199806425Y-81972553D01*
X199802692Y-81966579D01*
X199736769Y-81900195D01*
X199687749Y-81850831D01*
X199687745Y-81850828D01*
X199682785Y-81845833D01*
X199539108Y-81754652D01*
X199378800Y-81697569D01*
X199209829Y-81677421D01*
X199202826Y-81678157D01*
X199202825Y-81678157D01*
X199047601Y-81694471D01*
X199047597Y-81694472D01*
X199040593Y-81695208D01*
X199033922Y-81697479D01*
X198886174Y-81747776D01*
X198886171Y-81747777D01*
X198879504Y-81750047D01*
X198873506Y-81753737D01*
X198873504Y-81753738D01*
X198865879Y-81758429D01*
X198734567Y-81839213D01*
X198729536Y-81844140D01*
X198729533Y-81844142D01*
X198714371Y-81858990D01*
X198612986Y-81958273D01*
X198520805Y-82101311D01*
X198518396Y-82107931D01*
X198518395Y-82107932D01*
X198494787Y-82172795D01*
X198462604Y-82261216D01*
X198441276Y-82430043D01*
X181596848Y-82430043D01*
X181517717Y-82367549D01*
X181517713Y-82367547D01*
X181513662Y-82364347D01*
X181480869Y-82346244D01*
X181453819Y-82331312D01*
X181317962Y-82256315D01*
X181138490Y-82192761D01*
X181112118Y-82183422D01*
X181112115Y-82183421D01*
X181107246Y-82181697D01*
X181102157Y-82180790D01*
X181102155Y-82180790D01*
X180892261Y-82143402D01*
X180892255Y-82143401D01*
X180887172Y-82142496D01*
X180801510Y-82141449D01*
X180668820Y-82139828D01*
X180668818Y-82139828D01*
X180663651Y-82139765D01*
X180442685Y-82173577D01*
X180318941Y-82214023D01*
X180235128Y-82241417D01*
X180235126Y-82241418D01*
X180230209Y-82243025D01*
X180225623Y-82245412D01*
X180225619Y-82245414D01*
X180161893Y-82278588D01*
X180031928Y-82346244D01*
X180027786Y-82349354D01*
X179872530Y-82465923D01*
X179853168Y-82480460D01*
X179698730Y-82642071D01*
X179695816Y-82646343D01*
X179695815Y-82646344D01*
X179622923Y-82753200D01*
X179572761Y-82826735D01*
X179546215Y-82883923D01*
X179481304Y-83023762D01*
X179478643Y-83029494D01*
X179418905Y-83244902D01*
X179395151Y-83467174D01*
X178620119Y-83467174D01*
X178604543Y-83277715D01*
X178550085Y-83060912D01*
X178493745Y-82931338D01*
X178463010Y-82860651D01*
X178463008Y-82860648D01*
X178460950Y-82855914D01*
X178350829Y-82685692D01*
X178342338Y-82672567D01*
X178342336Y-82672564D01*
X178339530Y-82668227D01*
X178189086Y-82502891D01*
X178185035Y-82499692D01*
X178185031Y-82499688D01*
X178017714Y-82367549D01*
X178017710Y-82367547D01*
X178013659Y-82364347D01*
X177980866Y-82346244D01*
X177953816Y-82331312D01*
X177817959Y-82256315D01*
X177638487Y-82192761D01*
X177612115Y-82183422D01*
X177612112Y-82183421D01*
X177607243Y-82181697D01*
X177602154Y-82180790D01*
X177602152Y-82180790D01*
X177392258Y-82143402D01*
X177392252Y-82143401D01*
X177387169Y-82142496D01*
X177301507Y-82141449D01*
X177168817Y-82139828D01*
X177168815Y-82139828D01*
X177163648Y-82139765D01*
X176942682Y-82173577D01*
X176818938Y-82214023D01*
X176735125Y-82241417D01*
X176735123Y-82241418D01*
X176730206Y-82243025D01*
X176725620Y-82245412D01*
X176725616Y-82245414D01*
X176661890Y-82278588D01*
X176531925Y-82346244D01*
X176527783Y-82349354D01*
X176372527Y-82465923D01*
X176353165Y-82480460D01*
X176198727Y-82642071D01*
X176195813Y-82646343D01*
X176195812Y-82646344D01*
X176122920Y-82753200D01*
X176072758Y-82826735D01*
X176046212Y-82883923D01*
X175981301Y-83023762D01*
X175978640Y-83029494D01*
X175918902Y-83244902D01*
X175895148Y-83467174D01*
X175120118Y-83467174D01*
X175104542Y-83277715D01*
X175050084Y-83060912D01*
X174993744Y-82931338D01*
X174963009Y-82860651D01*
X174963007Y-82860648D01*
X174960949Y-82855914D01*
X174850828Y-82685692D01*
X174842337Y-82672567D01*
X174842335Y-82672564D01*
X174839529Y-82668227D01*
X174689085Y-82502891D01*
X174685034Y-82499692D01*
X174685030Y-82499688D01*
X174517713Y-82367549D01*
X174517709Y-82367547D01*
X174513658Y-82364347D01*
X174480865Y-82346244D01*
X174453815Y-82331312D01*
X174317958Y-82256315D01*
X174138486Y-82192761D01*
X174112114Y-82183422D01*
X174112111Y-82183421D01*
X174107242Y-82181697D01*
X174102153Y-82180790D01*
X174102151Y-82180790D01*
X173892257Y-82143402D01*
X173892251Y-82143401D01*
X173887168Y-82142496D01*
X173801506Y-82141449D01*
X173668816Y-82139828D01*
X173668814Y-82139828D01*
X173663647Y-82139765D01*
X173442681Y-82173577D01*
X173318937Y-82214023D01*
X173235124Y-82241417D01*
X173235122Y-82241418D01*
X173230205Y-82243025D01*
X173225619Y-82245412D01*
X173225615Y-82245414D01*
X173161889Y-82278588D01*
X173031924Y-82346244D01*
X173027782Y-82349354D01*
X172872526Y-82465923D01*
X172853164Y-82480460D01*
X172698726Y-82642071D01*
X172695812Y-82646343D01*
X172695811Y-82646344D01*
X172622919Y-82753200D01*
X172572757Y-82826735D01*
X172546211Y-82883923D01*
X172481300Y-83023762D01*
X172478639Y-83029494D01*
X172418901Y-83244902D01*
X172395147Y-83467174D01*
X171620117Y-83467174D01*
X171604541Y-83277715D01*
X171550083Y-83060912D01*
X171493743Y-82931338D01*
X171463008Y-82860651D01*
X171463006Y-82860648D01*
X171460948Y-82855914D01*
X171350827Y-82685692D01*
X171342336Y-82672567D01*
X171342334Y-82672564D01*
X171339528Y-82668227D01*
X171189084Y-82502891D01*
X171185033Y-82499692D01*
X171185029Y-82499688D01*
X171017712Y-82367549D01*
X171017708Y-82367547D01*
X171013657Y-82364347D01*
X170980864Y-82346244D01*
X170953814Y-82331312D01*
X170817957Y-82256315D01*
X170638485Y-82192761D01*
X170612113Y-82183422D01*
X170612110Y-82183421D01*
X170607241Y-82181697D01*
X170602152Y-82180790D01*
X170602150Y-82180790D01*
X170392256Y-82143402D01*
X170392250Y-82143401D01*
X170387167Y-82142496D01*
X170301505Y-82141449D01*
X170168815Y-82139828D01*
X170168813Y-82139828D01*
X170163646Y-82139765D01*
X169942680Y-82173577D01*
X169818936Y-82214023D01*
X169735123Y-82241417D01*
X169735121Y-82241418D01*
X169730204Y-82243025D01*
X169725618Y-82245412D01*
X169725614Y-82245414D01*
X169661888Y-82278588D01*
X169531923Y-82346244D01*
X169527781Y-82349354D01*
X169372525Y-82465923D01*
X169353163Y-82480460D01*
X169198725Y-82642071D01*
X169195811Y-82646343D01*
X169195810Y-82646344D01*
X169122918Y-82753200D01*
X169072756Y-82826735D01*
X169046210Y-82883923D01*
X168981299Y-83023762D01*
X168978638Y-83029494D01*
X168918900Y-83244902D01*
X168895146Y-83467174D01*
X168120117Y-83467174D01*
X168104541Y-83277715D01*
X168050083Y-83060912D01*
X167993743Y-82931338D01*
X167963008Y-82860651D01*
X167963006Y-82860648D01*
X167960948Y-82855914D01*
X167850827Y-82685692D01*
X167842336Y-82672567D01*
X167842334Y-82672564D01*
X167839528Y-82668227D01*
X167689084Y-82502891D01*
X167685033Y-82499692D01*
X167685029Y-82499688D01*
X167517712Y-82367549D01*
X167517708Y-82367547D01*
X167513657Y-82364347D01*
X167480864Y-82346244D01*
X167453814Y-82331312D01*
X167317957Y-82256315D01*
X167138485Y-82192761D01*
X167112113Y-82183422D01*
X167112110Y-82183421D01*
X167107241Y-82181697D01*
X167102152Y-82180790D01*
X167102150Y-82180790D01*
X166892256Y-82143402D01*
X166892250Y-82143401D01*
X166887167Y-82142496D01*
X166801505Y-82141449D01*
X166668815Y-82139828D01*
X166668813Y-82139828D01*
X166663646Y-82139765D01*
X166442680Y-82173577D01*
X166318936Y-82214023D01*
X166235123Y-82241417D01*
X166235121Y-82241418D01*
X166230204Y-82243025D01*
X166225618Y-82245412D01*
X166225614Y-82245414D01*
X166161888Y-82278588D01*
X166031923Y-82346244D01*
X166027781Y-82349354D01*
X165872525Y-82465923D01*
X165853163Y-82480460D01*
X165698725Y-82642071D01*
X165695811Y-82646343D01*
X165695810Y-82646344D01*
X165622918Y-82753200D01*
X165572756Y-82826735D01*
X165546210Y-82883923D01*
X165481299Y-83023762D01*
X165478638Y-83029494D01*
X165418900Y-83244902D01*
X165395146Y-83467174D01*
X164620116Y-83467174D01*
X164604540Y-83277715D01*
X164550082Y-83060912D01*
X164493742Y-82931338D01*
X164463007Y-82860651D01*
X164463005Y-82860648D01*
X164460947Y-82855914D01*
X164350826Y-82685692D01*
X164342335Y-82672567D01*
X164342333Y-82672564D01*
X164339527Y-82668227D01*
X164189083Y-82502891D01*
X164185032Y-82499692D01*
X164185028Y-82499688D01*
X164017711Y-82367549D01*
X164017707Y-82367547D01*
X164013656Y-82364347D01*
X163980863Y-82346244D01*
X163953813Y-82331312D01*
X163817956Y-82256315D01*
X163638484Y-82192761D01*
X163612112Y-82183422D01*
X163612109Y-82183421D01*
X163607240Y-82181697D01*
X163602151Y-82180790D01*
X163602149Y-82180790D01*
X163392255Y-82143402D01*
X163392249Y-82143401D01*
X163387166Y-82142496D01*
X163301504Y-82141449D01*
X163168814Y-82139828D01*
X163168812Y-82139828D01*
X163163645Y-82139765D01*
X162942679Y-82173577D01*
X162818935Y-82214023D01*
X162735122Y-82241417D01*
X162735120Y-82241418D01*
X162730203Y-82243025D01*
X162725617Y-82245412D01*
X162725613Y-82245414D01*
X162661887Y-82278588D01*
X162531922Y-82346244D01*
X162527780Y-82349354D01*
X162372524Y-82465923D01*
X162353162Y-82480460D01*
X162198724Y-82642071D01*
X162195810Y-82646343D01*
X162195809Y-82646344D01*
X162122917Y-82753200D01*
X162072755Y-82826735D01*
X162046209Y-82883923D01*
X161981298Y-83023762D01*
X161978637Y-83029494D01*
X161918899Y-83244902D01*
X161895145Y-83467174D01*
X151333700Y-83467174D01*
X151333700Y-79939733D01*
X152673822Y-79939733D01*
X152673975Y-79944121D01*
X152673975Y-79944127D01*
X152683332Y-80212062D01*
X152683625Y-80220458D01*
X152684387Y-80224781D01*
X152684388Y-80224788D01*
X152708013Y-80358770D01*
X152732402Y-80497087D01*
X152819203Y-80764235D01*
X152942340Y-81016702D01*
X152944795Y-81020341D01*
X152944798Y-81020347D01*
X153017890Y-81128710D01*
X153099415Y-81249576D01*
X153287371Y-81458322D01*
X153290733Y-81461143D01*
X153290734Y-81461144D01*
X153344822Y-81506529D01*
X153502550Y-81638879D01*
X153740764Y-81787731D01*
X153997375Y-81901982D01*
X154267390Y-81979407D01*
X154271740Y-81980018D01*
X154271743Y-81980019D01*
X154342201Y-81989921D01*
X154545552Y-82018500D01*
X154756146Y-82018500D01*
X154758332Y-82018347D01*
X154758336Y-82018347D01*
X154961827Y-82004118D01*
X154961832Y-82004117D01*
X154966212Y-82003811D01*
X155240970Y-81945409D01*
X155245099Y-81943906D01*
X155245103Y-81943905D01*
X155500781Y-81850846D01*
X155500785Y-81850844D01*
X155504926Y-81849337D01*
X155752942Y-81717464D01*
X155756503Y-81714877D01*
X155976629Y-81554947D01*
X155976632Y-81554944D01*
X155980192Y-81552358D01*
X156027650Y-81506529D01*
X156110773Y-81426257D01*
X156182252Y-81357231D01*
X156236499Y-81287798D01*
X224069916Y-81287798D01*
X224079718Y-81323381D01*
X224084710Y-81335990D01*
X224162754Y-81484013D01*
X224170347Y-81495271D01*
X224278355Y-81623079D01*
X224288181Y-81632437D01*
X224421116Y-81734074D01*
X224432725Y-81741105D01*
X224584393Y-81811829D01*
X224597221Y-81816196D01*
X224762162Y-81853064D01*
X224772011Y-81854431D01*
X224774496Y-81854500D01*
X224913485Y-81854500D01*
X224928724Y-81850025D01*
X224929929Y-81848635D01*
X224931600Y-81840952D01*
X224931600Y-81836385D01*
X225439600Y-81836385D01*
X225444075Y-81851624D01*
X225445465Y-81852829D01*
X225453148Y-81854500D01*
X225552398Y-81854500D01*
X225559212Y-81854131D01*
X225683741Y-81840602D01*
X225697000Y-81837687D01*
X225855599Y-81784314D01*
X225867911Y-81778625D01*
X226011349Y-81692438D01*
X226022163Y-81684230D01*
X226143744Y-81569256D01*
X226152536Y-81558925D01*
X226246597Y-81420519D01*
X226252966Y-81408539D01*
X226299450Y-81292321D01*
X226300786Y-81278281D01*
X226295965Y-81275500D01*
X225457715Y-81275500D01*
X225442476Y-81279975D01*
X225441271Y-81281365D01*
X225439600Y-81289048D01*
X225439600Y-81836385D01*
X224931600Y-81836385D01*
X224931600Y-81293615D01*
X224927125Y-81278376D01*
X224925735Y-81277171D01*
X224918052Y-81275500D01*
X224084644Y-81275500D01*
X224071113Y-81279473D01*
X224069916Y-81287798D01*
X156236499Y-81287798D01*
X156355188Y-81135882D01*
X156357384Y-81132078D01*
X156357389Y-81132071D01*
X156493435Y-80896431D01*
X156495636Y-80892619D01*
X156547311Y-80764719D01*
X224070414Y-80764719D01*
X224075235Y-80767500D01*
X224913485Y-80767500D01*
X224928724Y-80763025D01*
X224929929Y-80761635D01*
X224931600Y-80753952D01*
X224931600Y-80749385D01*
X225439600Y-80749385D01*
X225444075Y-80764624D01*
X225445465Y-80765829D01*
X225453148Y-80767500D01*
X226286556Y-80767500D01*
X226300087Y-80763527D01*
X226301284Y-80755202D01*
X226291482Y-80719619D01*
X226286490Y-80707010D01*
X226208446Y-80558987D01*
X226200853Y-80547729D01*
X226092845Y-80419921D01*
X226083019Y-80410563D01*
X225950084Y-80308926D01*
X225938475Y-80301895D01*
X225786807Y-80231171D01*
X225773979Y-80226804D01*
X225609038Y-80189936D01*
X225599189Y-80188569D01*
X225596704Y-80188500D01*
X225457715Y-80188500D01*
X225442476Y-80192975D01*
X225441271Y-80194365D01*
X225439600Y-80202048D01*
X225439600Y-80749385D01*
X224931600Y-80749385D01*
X224931600Y-80206615D01*
X224927125Y-80191376D01*
X224925735Y-80190171D01*
X224918052Y-80188500D01*
X224818802Y-80188500D01*
X224811988Y-80188869D01*
X224687459Y-80202398D01*
X224674200Y-80205313D01*
X224515601Y-80258686D01*
X224503289Y-80264375D01*
X224359851Y-80350562D01*
X224349037Y-80358770D01*
X224227456Y-80473744D01*
X224218664Y-80484075D01*
X224124603Y-80622481D01*
X224118234Y-80634461D01*
X224071750Y-80750679D01*
X224070414Y-80764719D01*
X156547311Y-80764719D01*
X156600862Y-80632176D01*
X156634544Y-80497087D01*
X156667753Y-80363893D01*
X156667754Y-80363888D01*
X156668817Y-80359624D01*
X156669770Y-80350562D01*
X156697719Y-80084636D01*
X156697719Y-80084633D01*
X156698178Y-80080267D01*
X156697761Y-80068323D01*
X156688529Y-79803939D01*
X156688528Y-79803933D01*
X156688375Y-79799542D01*
X156685891Y-79785450D01*
X156653006Y-79598955D01*
X156639598Y-79522913D01*
X156552797Y-79255765D01*
X156550750Y-79251567D01*
X156467539Y-79080962D01*
X156429660Y-79003298D01*
X156427205Y-78999659D01*
X156427202Y-78999653D01*
X156373976Y-78920743D01*
X182966776Y-78920743D01*
X182983382Y-79090099D01*
X182985606Y-79096784D01*
X182985606Y-79096785D01*
X183000529Y-79141644D01*
X183037095Y-79251567D01*
X183040742Y-79257589D01*
X183040743Y-79257591D01*
X183069967Y-79305845D01*
X183125247Y-79397123D01*
X183130143Y-79402193D01*
X183143956Y-79416497D01*
X183243456Y-79519531D01*
X183385846Y-79612709D01*
X183545342Y-79672025D01*
X183552323Y-79672956D01*
X183552325Y-79672957D01*
X183598426Y-79679108D01*
X183714015Y-79694531D01*
X183721026Y-79693893D01*
X183721030Y-79693893D01*
X183876461Y-79679747D01*
X183883482Y-79679108D01*
X183890184Y-79676930D01*
X183890186Y-79676930D01*
X184038623Y-79628700D01*
X184038626Y-79628699D01*
X184045322Y-79626523D01*
X184103330Y-79591943D01*
X188010576Y-79591943D01*
X188027182Y-79761299D01*
X188080895Y-79922767D01*
X188084542Y-79928789D01*
X188084543Y-79928791D01*
X188100532Y-79955191D01*
X188169047Y-80068323D01*
X188173943Y-80073393D01*
X188188721Y-80088696D01*
X188287256Y-80190731D01*
X188429646Y-80283909D01*
X188589142Y-80343225D01*
X188596123Y-80344156D01*
X188596125Y-80344157D01*
X188642226Y-80350308D01*
X188757815Y-80365731D01*
X188764826Y-80365093D01*
X188764830Y-80365093D01*
X188920261Y-80350947D01*
X188927282Y-80350308D01*
X188933984Y-80348130D01*
X188933986Y-80348130D01*
X189082423Y-80299900D01*
X189082426Y-80299899D01*
X189089122Y-80297723D01*
X189191003Y-80236990D01*
X189229234Y-80214200D01*
X189229237Y-80214198D01*
X189235289Y-80210590D01*
X189358520Y-80093238D01*
X189370058Y-80075873D01*
X189448795Y-79957364D01*
X189452690Y-79951502D01*
X189455190Y-79944921D01*
X189510617Y-79799009D01*
X189510618Y-79799006D01*
X189513118Y-79792424D01*
X189536800Y-79623913D01*
X189536878Y-79618343D01*
X191844976Y-79618343D01*
X191861582Y-79787699D01*
X191915295Y-79949167D01*
X191918942Y-79955189D01*
X191918943Y-79955191D01*
X191936248Y-79983764D01*
X192003447Y-80094723D01*
X192008343Y-80099793D01*
X192027507Y-80119638D01*
X192121656Y-80217131D01*
X192264046Y-80310309D01*
X192423542Y-80369625D01*
X192430523Y-80370556D01*
X192430525Y-80370557D01*
X192476626Y-80376708D01*
X192592215Y-80392131D01*
X192599226Y-80391493D01*
X192599230Y-80391493D01*
X192754661Y-80377347D01*
X192761682Y-80376708D01*
X192768384Y-80374530D01*
X192768386Y-80374530D01*
X192916823Y-80326300D01*
X192916826Y-80326299D01*
X192923522Y-80324123D01*
X192997457Y-80280049D01*
X193063634Y-80240600D01*
X193063637Y-80240598D01*
X193069689Y-80236990D01*
X193192920Y-80119638D01*
X193216176Y-80084636D01*
X193283195Y-79983764D01*
X193287090Y-79977902D01*
X193295717Y-79955191D01*
X193345017Y-79825409D01*
X193345018Y-79825406D01*
X193347518Y-79818824D01*
X193371200Y-79650313D01*
X193371498Y-79629000D01*
X193359599Y-79522913D01*
X193353315Y-79466888D01*
X193353314Y-79466885D01*
X193352530Y-79459892D01*
X193296567Y-79299190D01*
X193290582Y-79289611D01*
X193210125Y-79160853D01*
X193206392Y-79154879D01*
X193121064Y-79068954D01*
X193091449Y-79039131D01*
X193091445Y-79039128D01*
X193086485Y-79034133D01*
X192942808Y-78942952D01*
X192782500Y-78885869D01*
X192613529Y-78865721D01*
X192606526Y-78866457D01*
X192606525Y-78866457D01*
X192451301Y-78882771D01*
X192451297Y-78882772D01*
X192444293Y-78883508D01*
X192437622Y-78885779D01*
X192289874Y-78936076D01*
X192289871Y-78936077D01*
X192283204Y-78938347D01*
X192277206Y-78942037D01*
X192277204Y-78942038D01*
X192269579Y-78946729D01*
X192138267Y-79027513D01*
X192133236Y-79032440D01*
X192133233Y-79032442D01*
X192083686Y-79080962D01*
X192016686Y-79146573D01*
X191924505Y-79289611D01*
X191922096Y-79296231D01*
X191922095Y-79296232D01*
X191883528Y-79402193D01*
X191866304Y-79449516D01*
X191844976Y-79618343D01*
X189536878Y-79618343D01*
X189537098Y-79602600D01*
X189521091Y-79459892D01*
X189518915Y-79440488D01*
X189518914Y-79440485D01*
X189518130Y-79433492D01*
X189462167Y-79272790D01*
X189456182Y-79263211D01*
X189375725Y-79134453D01*
X189371992Y-79128479D01*
X189278302Y-79034133D01*
X189257049Y-79012731D01*
X189257045Y-79012728D01*
X189252085Y-79007733D01*
X189108408Y-78916552D01*
X188948100Y-78859469D01*
X188779129Y-78839321D01*
X188772126Y-78840057D01*
X188772125Y-78840057D01*
X188616901Y-78856371D01*
X188616897Y-78856372D01*
X188609893Y-78857108D01*
X188603222Y-78859379D01*
X188455474Y-78909676D01*
X188455471Y-78909677D01*
X188448804Y-78911947D01*
X188442806Y-78915637D01*
X188442804Y-78915638D01*
X188410745Y-78935361D01*
X188303867Y-79001113D01*
X188298836Y-79006040D01*
X188298833Y-79006042D01*
X188270148Y-79034133D01*
X188182286Y-79120173D01*
X188090105Y-79263211D01*
X188087696Y-79269831D01*
X188087695Y-79269832D01*
X188086280Y-79273721D01*
X188031904Y-79423116D01*
X188010576Y-79591943D01*
X184103330Y-79591943D01*
X184117067Y-79583754D01*
X184185434Y-79543000D01*
X184185437Y-79542998D01*
X184191489Y-79539390D01*
X184314720Y-79422038D01*
X184408890Y-79280302D01*
X184415382Y-79263211D01*
X184466817Y-79127809D01*
X184466818Y-79127806D01*
X184469318Y-79121224D01*
X184493000Y-78952713D01*
X184493117Y-78944364D01*
X184493243Y-78935361D01*
X184493243Y-78935355D01*
X184493298Y-78931400D01*
X184474330Y-78762292D01*
X184470970Y-78752644D01*
X223290100Y-78752644D01*
X223290444Y-78759203D01*
X223304154Y-78889647D01*
X223306884Y-78902490D01*
X223360972Y-79068954D01*
X223366318Y-79080962D01*
X223453831Y-79232541D01*
X223461553Y-79243169D01*
X223578678Y-79373249D01*
X223588432Y-79382031D01*
X223730041Y-79484917D01*
X223741413Y-79491483D01*
X223901319Y-79562677D01*
X223913812Y-79566736D01*
X223913879Y-79566750D01*
X223927942Y-79565677D01*
X223931600Y-79555724D01*
X223931600Y-79552402D01*
X224439600Y-79552402D01*
X224443573Y-79565933D01*
X224454069Y-79567442D01*
X224457388Y-79566736D01*
X224469881Y-79562677D01*
X224629786Y-79491483D01*
X224641158Y-79484917D01*
X224782768Y-79382031D01*
X224792522Y-79373249D01*
X224909647Y-79243169D01*
X224917369Y-79232541D01*
X225004882Y-79080962D01*
X225010228Y-79068954D01*
X225064316Y-78902490D01*
X225067046Y-78889647D01*
X225080756Y-78759203D01*
X225081100Y-78752644D01*
X225081100Y-78593615D01*
X225076625Y-78578376D01*
X225075235Y-78577171D01*
X225067552Y-78575500D01*
X224457715Y-78575500D01*
X224442476Y-78579975D01*
X224441271Y-78581365D01*
X224439600Y-78589048D01*
X224439600Y-79552402D01*
X223931600Y-79552402D01*
X223931600Y-78593615D01*
X223927125Y-78578376D01*
X223925735Y-78577171D01*
X223918052Y-78575500D01*
X223308215Y-78575500D01*
X223292976Y-78579975D01*
X223291771Y-78581365D01*
X223290100Y-78589048D01*
X223290100Y-78752644D01*
X184470970Y-78752644D01*
X184418367Y-78601590D01*
X184412382Y-78592011D01*
X184331925Y-78463253D01*
X184328192Y-78457279D01*
X184255372Y-78383949D01*
X184213249Y-78341531D01*
X184213245Y-78341528D01*
X184208285Y-78336533D01*
X184064608Y-78245352D01*
X183904300Y-78188269D01*
X183735329Y-78168121D01*
X183728326Y-78168857D01*
X183728325Y-78168857D01*
X183573101Y-78185171D01*
X183573097Y-78185172D01*
X183566093Y-78185908D01*
X183559422Y-78188179D01*
X183411674Y-78238476D01*
X183411671Y-78238477D01*
X183405004Y-78240747D01*
X183399006Y-78244437D01*
X183399004Y-78244438D01*
X183391379Y-78249129D01*
X183260067Y-78329913D01*
X183255036Y-78334840D01*
X183255033Y-78334842D01*
X183210156Y-78378789D01*
X183138486Y-78448973D01*
X183046305Y-78592011D01*
X183043896Y-78598631D01*
X183043895Y-78598632D01*
X183040396Y-78608245D01*
X182988104Y-78751916D01*
X182966776Y-78920743D01*
X156373976Y-78920743D01*
X156336863Y-78865721D01*
X156272585Y-78770424D01*
X156084629Y-78561678D01*
X155869450Y-78381121D01*
X155631236Y-78232269D01*
X155374625Y-78118018D01*
X155104610Y-78040593D01*
X155100260Y-78039982D01*
X155100257Y-78039981D01*
X154997310Y-78025513D01*
X154826448Y-78001500D01*
X154615854Y-78001500D01*
X154613668Y-78001653D01*
X154613664Y-78001653D01*
X154410173Y-78015882D01*
X154410168Y-78015883D01*
X154405788Y-78016189D01*
X154131030Y-78074591D01*
X154126901Y-78076094D01*
X154126897Y-78076095D01*
X153871219Y-78169154D01*
X153871215Y-78169156D01*
X153867074Y-78170663D01*
X153619058Y-78302536D01*
X153615499Y-78305122D01*
X153615497Y-78305123D01*
X153406072Y-78457279D01*
X153391808Y-78467642D01*
X153189748Y-78662769D01*
X153016812Y-78884118D01*
X153014616Y-78887922D01*
X153014611Y-78887929D01*
X152931177Y-79032442D01*
X152876364Y-79127381D01*
X152771138Y-79387824D01*
X152770073Y-79392097D01*
X152770072Y-79392099D01*
X152711081Y-79628700D01*
X152703183Y-79660376D01*
X152702724Y-79664744D01*
X152702723Y-79664749D01*
X152675605Y-79922767D01*
X152673822Y-79939733D01*
X151333700Y-79939733D01*
X151333700Y-77139300D01*
X151353702Y-77071179D01*
X151407358Y-77024686D01*
X151459700Y-77013300D01*
X220039675Y-77013300D01*
X220107796Y-77033302D01*
G37*
%TD.AperFunction*%
%TD*%
%TA.AperFunction,Conductor*%
%TO.N,Earth*%
G36*
X230609652Y-77033302D02*
G01*
X230656145Y-77086958D01*
X230666249Y-77157232D01*
X230636755Y-77221812D01*
X230615592Y-77241236D01*
X230588432Y-77260969D01*
X230578678Y-77269751D01*
X230461553Y-77399831D01*
X230453831Y-77410459D01*
X230366318Y-77562038D01*
X230360972Y-77574046D01*
X230306884Y-77740510D01*
X230304154Y-77753353D01*
X230290444Y-77883797D01*
X230290100Y-77890356D01*
X230290100Y-78049385D01*
X230294575Y-78064624D01*
X230295965Y-78065829D01*
X230303648Y-78067500D01*
X232062985Y-78067500D01*
X232078224Y-78063025D01*
X232079429Y-78061635D01*
X232081100Y-78053952D01*
X232081100Y-77890356D01*
X232080756Y-77883797D01*
X232067046Y-77753353D01*
X232064316Y-77740510D01*
X232010228Y-77574046D01*
X232004882Y-77562038D01*
X231917369Y-77410459D01*
X231909647Y-77399831D01*
X231792522Y-77269751D01*
X231782768Y-77260969D01*
X231755608Y-77241236D01*
X231712254Y-77185014D01*
X231706179Y-77114277D01*
X231739311Y-77051486D01*
X231801131Y-77016574D01*
X231829669Y-77013300D01*
X238632548Y-77013300D01*
X238700669Y-77033302D01*
X238747162Y-77086958D01*
X238758548Y-77139488D01*
X238710792Y-108993300D01*
X238709651Y-109754089D01*
X238689547Y-109822180D01*
X238635821Y-109868592D01*
X238583651Y-109879900D01*
X229499633Y-109879900D01*
X229431512Y-109859898D01*
X229385019Y-109806242D01*
X229373742Y-109748668D01*
X229405141Y-108993147D01*
X229491525Y-106914533D01*
X233852222Y-106914533D01*
X233862025Y-107195258D01*
X233862787Y-107199581D01*
X233862788Y-107199588D01*
X233886564Y-107334424D01*
X233910802Y-107471887D01*
X233997603Y-107739035D01*
X234120740Y-107991502D01*
X234123195Y-107995141D01*
X234123198Y-107995147D01*
X234196290Y-108103510D01*
X234277815Y-108224376D01*
X234465771Y-108433122D01*
X234680950Y-108613679D01*
X234919164Y-108762531D01*
X235175775Y-108876782D01*
X235445790Y-108954207D01*
X235450140Y-108954818D01*
X235450143Y-108954819D01*
X235553090Y-108969287D01*
X235723952Y-108993300D01*
X235934546Y-108993300D01*
X235936732Y-108993147D01*
X235936736Y-108993147D01*
X236140227Y-108978918D01*
X236140232Y-108978917D01*
X236144612Y-108978611D01*
X236419370Y-108920209D01*
X236423499Y-108918706D01*
X236423503Y-108918705D01*
X236679181Y-108825646D01*
X236679185Y-108825644D01*
X236683326Y-108824137D01*
X236931342Y-108692264D01*
X237036296Y-108616011D01*
X237155029Y-108529747D01*
X237155032Y-108529744D01*
X237158592Y-108527158D01*
X237360652Y-108332031D01*
X237533588Y-108110682D01*
X237535784Y-108106878D01*
X237535789Y-108106871D01*
X237671835Y-107871231D01*
X237674036Y-107867419D01*
X237779262Y-107606976D01*
X237812944Y-107471887D01*
X237846153Y-107338693D01*
X237846154Y-107338688D01*
X237847217Y-107334424D01*
X237876578Y-107055067D01*
X237866775Y-106774342D01*
X237843008Y-106639549D01*
X237818760Y-106502036D01*
X237817998Y-106497713D01*
X237731197Y-106230565D01*
X237608060Y-105978098D01*
X237605605Y-105974459D01*
X237605602Y-105974453D01*
X237525335Y-105855453D01*
X237450985Y-105745224D01*
X237263029Y-105536478D01*
X237047850Y-105355921D01*
X236809636Y-105207069D01*
X236553025Y-105092818D01*
X236283010Y-105015393D01*
X236278660Y-105014782D01*
X236278657Y-105014781D01*
X236175710Y-105000313D01*
X236004848Y-104976300D01*
X235794254Y-104976300D01*
X235792068Y-104976453D01*
X235792064Y-104976453D01*
X235588573Y-104990682D01*
X235588568Y-104990683D01*
X235584188Y-104990989D01*
X235309430Y-105049391D01*
X235305301Y-105050894D01*
X235305297Y-105050895D01*
X235049619Y-105143954D01*
X235049615Y-105143956D01*
X235045474Y-105145463D01*
X234797458Y-105277336D01*
X234793899Y-105279922D01*
X234793897Y-105279923D01*
X234689295Y-105355921D01*
X234570208Y-105442442D01*
X234368148Y-105637569D01*
X234195212Y-105858918D01*
X234193016Y-105862722D01*
X234193011Y-105862729D01*
X234079194Y-106059867D01*
X234054764Y-106102181D01*
X233949538Y-106362624D01*
X233948473Y-106366897D01*
X233948472Y-106366899D01*
X233914779Y-106502036D01*
X233881583Y-106635176D01*
X233852222Y-106914533D01*
X229491525Y-106914533D01*
X229737807Y-100988356D01*
X229760620Y-100921125D01*
X229816160Y-100876900D01*
X229867991Y-100867661D01*
X230898302Y-100902785D01*
X234195296Y-101015183D01*
X234195297Y-101015183D01*
X234213400Y-101015800D01*
X234090577Y-88979165D01*
X234061185Y-86098717D01*
X234061000Y-86080600D01*
X234046791Y-86081044D01*
X233573390Y-86095838D01*
X229312784Y-86228982D01*
X229244072Y-86211117D01*
X229195926Y-86158940D01*
X229182856Y-86104359D01*
X229182798Y-86098717D01*
X229172494Y-85112153D01*
X229191783Y-85043827D01*
X229244951Y-84996776D01*
X229315115Y-84985939D01*
X229360918Y-85002965D01*
X229361266Y-85002276D01*
X229367400Y-85005375D01*
X229367478Y-85005404D01*
X229373446Y-85009309D01*
X229532942Y-85068625D01*
X229539923Y-85069556D01*
X229539925Y-85069557D01*
X229586026Y-85075708D01*
X229701615Y-85091131D01*
X229708626Y-85090493D01*
X229708630Y-85090493D01*
X229864061Y-85076347D01*
X229871082Y-85075708D01*
X229877784Y-85073530D01*
X229877786Y-85073530D01*
X230026223Y-85025300D01*
X230026226Y-85025299D01*
X230032922Y-85023123D01*
X230104667Y-84980355D01*
X230173034Y-84939600D01*
X230173037Y-84939598D01*
X230179089Y-84935990D01*
X230302320Y-84818638D01*
X230396490Y-84676902D01*
X230398990Y-84670321D01*
X230454417Y-84524409D01*
X230454418Y-84524406D01*
X230456918Y-84517824D01*
X230480600Y-84349313D01*
X230480898Y-84328000D01*
X230461930Y-84158892D01*
X230405967Y-83998190D01*
X230399982Y-83988611D01*
X230319525Y-83859853D01*
X230315792Y-83853879D01*
X230255838Y-83793506D01*
X230200849Y-83738131D01*
X230200845Y-83738128D01*
X230195885Y-83733133D01*
X230052208Y-83641952D01*
X229891900Y-83584869D01*
X229722929Y-83564721D01*
X229715926Y-83565457D01*
X229715925Y-83565457D01*
X229560701Y-83581771D01*
X229560697Y-83581772D01*
X229553693Y-83582508D01*
X229547022Y-83584779D01*
X229399274Y-83635076D01*
X229399271Y-83635077D01*
X229392604Y-83637347D01*
X229386608Y-83641036D01*
X229386597Y-83641041D01*
X229348284Y-83664612D01*
X229279783Y-83683271D01*
X229212069Y-83661932D01*
X229166641Y-83607373D01*
X229156269Y-83558611D01*
X229137626Y-81773580D01*
X229156915Y-81705256D01*
X229210083Y-81658205D01*
X229280247Y-81647368D01*
X229340148Y-81672170D01*
X229421111Y-81734071D01*
X229432725Y-81741105D01*
X229584393Y-81811829D01*
X229597221Y-81816196D01*
X229762162Y-81853064D01*
X229772011Y-81854431D01*
X229774496Y-81854500D01*
X229913485Y-81854500D01*
X229928724Y-81850025D01*
X229929929Y-81848635D01*
X229931600Y-81840952D01*
X229931600Y-81836385D01*
X230439600Y-81836385D01*
X230444075Y-81851624D01*
X230445465Y-81852829D01*
X230453148Y-81854500D01*
X230552398Y-81854500D01*
X230559212Y-81854131D01*
X230683741Y-81840602D01*
X230697000Y-81837687D01*
X230855599Y-81784314D01*
X230867911Y-81778625D01*
X231011349Y-81692438D01*
X231022163Y-81684230D01*
X231143744Y-81569256D01*
X231152536Y-81558925D01*
X231246597Y-81420519D01*
X231252966Y-81408539D01*
X231299450Y-81292321D01*
X231300786Y-81278281D01*
X231295965Y-81275500D01*
X230457715Y-81275500D01*
X230442476Y-81279975D01*
X230441271Y-81281365D01*
X230439600Y-81289048D01*
X230439600Y-81836385D01*
X229931600Y-81836385D01*
X229931600Y-80749385D01*
X230439600Y-80749385D01*
X230444075Y-80764624D01*
X230445465Y-80765829D01*
X230453148Y-80767500D01*
X231286556Y-80767500D01*
X231300087Y-80763527D01*
X231301284Y-80755202D01*
X231291482Y-80719619D01*
X231286490Y-80707010D01*
X231208446Y-80558987D01*
X231200853Y-80547729D01*
X231092845Y-80419921D01*
X231083019Y-80410563D01*
X230950084Y-80308926D01*
X230938475Y-80301895D01*
X230786807Y-80231171D01*
X230773979Y-80226804D01*
X230609038Y-80189936D01*
X230599189Y-80188569D01*
X230596704Y-80188500D01*
X230457715Y-80188500D01*
X230442476Y-80192975D01*
X230441271Y-80194365D01*
X230439600Y-80202048D01*
X230439600Y-80749385D01*
X229931600Y-80749385D01*
X229931600Y-80206615D01*
X229927125Y-80191376D01*
X229925735Y-80190171D01*
X229918052Y-80188500D01*
X229818802Y-80188500D01*
X229811988Y-80188869D01*
X229687459Y-80202398D01*
X229674200Y-80205313D01*
X229515601Y-80258686D01*
X229503289Y-80264375D01*
X229359851Y-80350562D01*
X229349038Y-80358770D01*
X229334617Y-80372407D01*
X229271379Y-80404680D01*
X229200733Y-80397641D01*
X229145107Y-80353524D01*
X229122050Y-80282176D01*
X229121518Y-80231171D01*
X229116882Y-79787333D01*
X233903022Y-79787333D01*
X233912825Y-80068058D01*
X233913587Y-80072381D01*
X233913588Y-80072388D01*
X233937027Y-80205313D01*
X233961602Y-80344687D01*
X234048403Y-80611835D01*
X234171540Y-80864302D01*
X234173995Y-80867941D01*
X234173998Y-80867947D01*
X234247090Y-80976310D01*
X234328615Y-81097176D01*
X234516571Y-81305922D01*
X234731750Y-81486479D01*
X234969964Y-81635331D01*
X235226575Y-81749582D01*
X235496590Y-81827007D01*
X235500940Y-81827618D01*
X235500943Y-81827619D01*
X235563318Y-81836385D01*
X235774752Y-81866100D01*
X235985346Y-81866100D01*
X235987532Y-81865947D01*
X235987536Y-81865947D01*
X236191027Y-81851718D01*
X236191032Y-81851717D01*
X236195412Y-81851411D01*
X236470170Y-81793009D01*
X236474299Y-81791506D01*
X236474303Y-81791505D01*
X236729981Y-81698446D01*
X236729985Y-81698444D01*
X236734126Y-81696937D01*
X236982142Y-81565064D01*
X237087096Y-81488811D01*
X237205829Y-81402547D01*
X237205832Y-81402544D01*
X237209392Y-81399958D01*
X237411452Y-81204831D01*
X237584388Y-80983482D01*
X237586584Y-80979678D01*
X237586589Y-80979671D01*
X237711379Y-80763527D01*
X237724836Y-80740219D01*
X237830062Y-80479776D01*
X237863744Y-80344687D01*
X237896953Y-80211493D01*
X237896954Y-80211488D01*
X237898017Y-80207224D01*
X237898525Y-80202398D01*
X237926919Y-79932236D01*
X237926919Y-79932233D01*
X237927378Y-79927867D01*
X237917575Y-79647142D01*
X237903398Y-79566736D01*
X237869560Y-79374836D01*
X237868798Y-79370513D01*
X237781997Y-79103365D01*
X237771071Y-79080962D01*
X237677759Y-78889647D01*
X237658860Y-78850898D01*
X237656405Y-78847259D01*
X237656402Y-78847253D01*
X237576135Y-78728253D01*
X237501785Y-78618024D01*
X237467526Y-78579975D01*
X237316766Y-78412540D01*
X237313829Y-78409278D01*
X237098650Y-78228721D01*
X236860436Y-78079869D01*
X236603825Y-77965618D01*
X236449192Y-77921278D01*
X236338037Y-77889405D01*
X236338036Y-77889405D01*
X236333810Y-77888193D01*
X236329460Y-77887582D01*
X236329457Y-77887581D01*
X236226510Y-77873113D01*
X236055648Y-77849100D01*
X235845054Y-77849100D01*
X235842868Y-77849253D01*
X235842864Y-77849253D01*
X235639373Y-77863482D01*
X235639368Y-77863483D01*
X235634988Y-77863789D01*
X235360230Y-77922191D01*
X235356101Y-77923694D01*
X235356097Y-77923695D01*
X235100419Y-78016754D01*
X235100415Y-78016756D01*
X235096274Y-78018263D01*
X234848258Y-78150136D01*
X234844699Y-78152722D01*
X234844697Y-78152723D01*
X234740095Y-78228721D01*
X234621008Y-78315242D01*
X234418948Y-78510369D01*
X234246012Y-78731718D01*
X234243816Y-78735522D01*
X234243811Y-78735529D01*
X234147417Y-78902490D01*
X234105564Y-78974981D01*
X234000338Y-79235424D01*
X233999273Y-79239697D01*
X233999272Y-79239699D01*
X233963785Y-79382031D01*
X233932383Y-79507976D01*
X233931924Y-79512344D01*
X233931923Y-79512349D01*
X233926133Y-79567442D01*
X233903022Y-79787333D01*
X229116882Y-79787333D01*
X229106076Y-78752644D01*
X230290100Y-78752644D01*
X230290444Y-78759203D01*
X230304154Y-78889647D01*
X230306884Y-78902490D01*
X230360972Y-79068954D01*
X230366318Y-79080962D01*
X230453831Y-79232541D01*
X230461553Y-79243169D01*
X230578678Y-79373249D01*
X230588432Y-79382031D01*
X230730041Y-79484917D01*
X230741413Y-79491483D01*
X230901319Y-79562677D01*
X230913812Y-79566736D01*
X230913879Y-79566750D01*
X230927942Y-79565677D01*
X230931600Y-79555724D01*
X230931600Y-79552402D01*
X231439600Y-79552402D01*
X231443573Y-79565933D01*
X231454069Y-79567442D01*
X231457388Y-79566736D01*
X231469881Y-79562677D01*
X231629786Y-79491483D01*
X231641158Y-79484917D01*
X231782768Y-79382031D01*
X231792522Y-79373249D01*
X231909647Y-79243169D01*
X231917369Y-79232541D01*
X232004882Y-79080962D01*
X232010228Y-79068954D01*
X232064316Y-78902490D01*
X232067046Y-78889647D01*
X232080756Y-78759203D01*
X232081100Y-78752644D01*
X232081100Y-78593615D01*
X232076625Y-78578376D01*
X232075235Y-78577171D01*
X232067552Y-78575500D01*
X231457715Y-78575500D01*
X231442476Y-78579975D01*
X231441271Y-78581365D01*
X231439600Y-78589048D01*
X231439600Y-79552402D01*
X230931600Y-79552402D01*
X230931600Y-78593615D01*
X230927125Y-78578376D01*
X230925735Y-78577171D01*
X230918052Y-78575500D01*
X230308215Y-78575500D01*
X230292976Y-78579975D01*
X230291771Y-78581365D01*
X230290100Y-78589048D01*
X230290100Y-78752644D01*
X229106076Y-78752644D01*
X229089241Y-77140616D01*
X229108530Y-77072290D01*
X229161698Y-77025239D01*
X229215234Y-77013300D01*
X230541531Y-77013300D01*
X230609652Y-77033302D01*
G37*
%TD.AperFunction*%
%TD*%
M02*
