%TF.GenerationSoftware,KiCad,Pcbnew,(6.0.9)*%
%TF.CreationDate,2022-12-18T19:34:30-07:00*%
%TF.ProjectId,Flight-Computer-Lite,466c6967-6874-42d4-936f-6d7075746572,rev?*%
%TF.SameCoordinates,Original*%
%TF.FileFunction,Paste,Top*%
%TF.FilePolarity,Positive*%
%FSLAX46Y46*%
G04 Gerber Fmt 4.6, Leading zero omitted, Abs format (unit mm)*
G04 Created by KiCad (PCBNEW (6.0.9)) date 2022-12-18 19:34:30*
%MOMM*%
%LPD*%
G01*
G04 APERTURE LIST*
%ADD10C,0.000100*%
%ADD11C,0.010000*%
%ADD12R,0.609600X0.685800*%
%ADD13R,0.685800X0.609600*%
%ADD14R,0.965200X1.295400*%
%ADD15R,1.700000X0.990600*%
%ADD16R,0.952500X0.406400*%
%ADD17R,1.100000X1.000000*%
%ADD18R,1.020000X0.940000*%
%ADD19R,0.940000X1.020000*%
%ADD20R,1.000000X0.800000*%
%ADD21R,1.041400X0.584200*%
%ADD22R,1.270000X1.778000*%
%ADD23R,1.300000X1.100000*%
%ADD24R,1.000000X1.100000*%
%ADD25R,0.584200X1.041400*%
%ADD26R,1.524000X0.558800*%
%ADD27R,0.400000X1.350000*%
%ADD28R,1.500000X1.550000*%
%ADD29R,0.254000X0.900000*%
%ADD30R,0.900000X0.254000*%
%ADD31R,0.558800X0.979300*%
%ADD32R,0.280000X1.560000*%
%ADD33R,1.560000X0.280000*%
%ADD34R,1.778000X1.270000*%
%ADD35R,1.320800X0.558800*%
%ADD36R,2.150000X0.950000*%
%ADD37R,2.150000X3.250000*%
%ADD38R,0.250000X0.275000*%
%ADD39R,0.275000X0.250000*%
G04 APERTURE END LIST*
D10*
%TO.C,P3*%
X231185600Y-79091500D02*
X231185600Y-78921500D01*
X224185600Y-77551500D02*
X224185600Y-77721500D01*
G36*
X231211600Y-77547500D02*
G01*
X231237600Y-77549500D01*
X231263600Y-77552500D01*
X231289600Y-77557500D01*
X231314600Y-77563500D01*
X231340600Y-77570500D01*
X231364600Y-77579500D01*
X231388600Y-77589500D01*
X231412600Y-77600500D01*
X231435600Y-77613500D01*
X231479600Y-77641500D01*
X231500600Y-77657500D01*
X231520600Y-77674500D01*
X231539600Y-77692500D01*
X231557600Y-77711500D01*
X231574600Y-77731500D01*
X231590600Y-77752500D01*
X231618600Y-77796500D01*
X231631600Y-77819500D01*
X231642600Y-77843500D01*
X231652600Y-77867500D01*
X231661600Y-77891500D01*
X231668600Y-77917500D01*
X231674600Y-77942500D01*
X231679600Y-77968500D01*
X231682600Y-77994500D01*
X231684600Y-78020500D01*
X231685600Y-78046500D01*
X231685600Y-78596500D01*
X231684600Y-78622500D01*
X231682600Y-78648500D01*
X231679600Y-78674500D01*
X231674600Y-78700500D01*
X231668600Y-78725500D01*
X231661600Y-78751500D01*
X231652600Y-78775500D01*
X231642600Y-78799500D01*
X231631600Y-78823500D01*
X231618600Y-78846500D01*
X231590600Y-78890500D01*
X231574600Y-78911500D01*
X231557600Y-78931500D01*
X231539600Y-78950500D01*
X231520600Y-78968500D01*
X231500600Y-78985500D01*
X231479600Y-79001500D01*
X231435600Y-79029500D01*
X231412600Y-79042500D01*
X231388600Y-79053500D01*
X231364600Y-79063500D01*
X231340600Y-79072500D01*
X231314600Y-79079500D01*
X231289600Y-79085500D01*
X231263600Y-79090500D01*
X231237600Y-79093500D01*
X231211600Y-79095500D01*
X231185600Y-79096500D01*
X231185600Y-78896500D01*
X231198600Y-78896500D01*
X231211600Y-78895500D01*
X231237600Y-78891500D01*
X231250600Y-78887500D01*
X231262600Y-78884500D01*
X231275600Y-78879500D01*
X231287600Y-78874500D01*
X231298600Y-78869500D01*
X231310600Y-78863500D01*
X231321600Y-78856500D01*
X231332600Y-78848500D01*
X231352600Y-78832500D01*
X231362600Y-78823500D01*
X231371600Y-78813500D01*
X231387600Y-78793500D01*
X231395600Y-78782500D01*
X231402600Y-78771500D01*
X231408600Y-78759500D01*
X231413600Y-78748500D01*
X231418600Y-78736500D01*
X231423600Y-78723500D01*
X231426600Y-78711500D01*
X231430600Y-78698500D01*
X231434600Y-78672500D01*
X231435600Y-78659500D01*
X231435600Y-77983500D01*
X231434600Y-77970500D01*
X231430600Y-77944500D01*
X231426600Y-77931500D01*
X231423600Y-77919500D01*
X231418600Y-77906500D01*
X231413600Y-77894500D01*
X231408600Y-77883500D01*
X231402600Y-77871500D01*
X231395600Y-77860500D01*
X231387600Y-77849500D01*
X231371600Y-77829500D01*
X231362600Y-77819500D01*
X231352600Y-77810500D01*
X231332600Y-77794500D01*
X231321600Y-77786500D01*
X231310600Y-77779500D01*
X231298600Y-77773500D01*
X231287600Y-77768500D01*
X231275600Y-77763500D01*
X231262600Y-77758500D01*
X231250600Y-77755500D01*
X231237600Y-77751500D01*
X231211600Y-77747500D01*
X231198600Y-77746500D01*
X231185600Y-77746500D01*
X231185600Y-77546500D01*
X231211600Y-77547500D01*
G37*
X231211600Y-77547500D02*
X231237600Y-77549500D01*
X231263600Y-77552500D01*
X231289600Y-77557500D01*
X231314600Y-77563500D01*
X231340600Y-77570500D01*
X231364600Y-77579500D01*
X231388600Y-77589500D01*
X231412600Y-77600500D01*
X231435600Y-77613500D01*
X231479600Y-77641500D01*
X231500600Y-77657500D01*
X231520600Y-77674500D01*
X231539600Y-77692500D01*
X231557600Y-77711500D01*
X231574600Y-77731500D01*
X231590600Y-77752500D01*
X231618600Y-77796500D01*
X231631600Y-77819500D01*
X231642600Y-77843500D01*
X231652600Y-77867500D01*
X231661600Y-77891500D01*
X231668600Y-77917500D01*
X231674600Y-77942500D01*
X231679600Y-77968500D01*
X231682600Y-77994500D01*
X231684600Y-78020500D01*
X231685600Y-78046500D01*
X231685600Y-78596500D01*
X231684600Y-78622500D01*
X231682600Y-78648500D01*
X231679600Y-78674500D01*
X231674600Y-78700500D01*
X231668600Y-78725500D01*
X231661600Y-78751500D01*
X231652600Y-78775500D01*
X231642600Y-78799500D01*
X231631600Y-78823500D01*
X231618600Y-78846500D01*
X231590600Y-78890500D01*
X231574600Y-78911500D01*
X231557600Y-78931500D01*
X231539600Y-78950500D01*
X231520600Y-78968500D01*
X231500600Y-78985500D01*
X231479600Y-79001500D01*
X231435600Y-79029500D01*
X231412600Y-79042500D01*
X231388600Y-79053500D01*
X231364600Y-79063500D01*
X231340600Y-79072500D01*
X231314600Y-79079500D01*
X231289600Y-79085500D01*
X231263600Y-79090500D01*
X231237600Y-79093500D01*
X231211600Y-79095500D01*
X231185600Y-79096500D01*
X231185600Y-78896500D01*
X231198600Y-78896500D01*
X231211600Y-78895500D01*
X231237600Y-78891500D01*
X231250600Y-78887500D01*
X231262600Y-78884500D01*
X231275600Y-78879500D01*
X231287600Y-78874500D01*
X231298600Y-78869500D01*
X231310600Y-78863500D01*
X231321600Y-78856500D01*
X231332600Y-78848500D01*
X231352600Y-78832500D01*
X231362600Y-78823500D01*
X231371600Y-78813500D01*
X231387600Y-78793500D01*
X231395600Y-78782500D01*
X231402600Y-78771500D01*
X231408600Y-78759500D01*
X231413600Y-78748500D01*
X231418600Y-78736500D01*
X231423600Y-78723500D01*
X231426600Y-78711500D01*
X231430600Y-78698500D01*
X231434600Y-78672500D01*
X231435600Y-78659500D01*
X231435600Y-77983500D01*
X231434600Y-77970500D01*
X231430600Y-77944500D01*
X231426600Y-77931500D01*
X231423600Y-77919500D01*
X231418600Y-77906500D01*
X231413600Y-77894500D01*
X231408600Y-77883500D01*
X231402600Y-77871500D01*
X231395600Y-77860500D01*
X231387600Y-77849500D01*
X231371600Y-77829500D01*
X231362600Y-77819500D01*
X231352600Y-77810500D01*
X231332600Y-77794500D01*
X231321600Y-77786500D01*
X231310600Y-77779500D01*
X231298600Y-77773500D01*
X231287600Y-77768500D01*
X231275600Y-77763500D01*
X231262600Y-77758500D01*
X231250600Y-77755500D01*
X231237600Y-77751500D01*
X231211600Y-77747500D01*
X231198600Y-77746500D01*
X231185600Y-77746500D01*
X231185600Y-77546500D01*
X231211600Y-77547500D01*
G36*
X231185600Y-77746500D02*
G01*
X231172600Y-77746500D01*
X231159600Y-77747500D01*
X231133600Y-77751500D01*
X231120600Y-77755500D01*
X231108600Y-77758500D01*
X231095600Y-77763500D01*
X231083600Y-77768500D01*
X231072600Y-77773500D01*
X231060600Y-77779500D01*
X231049600Y-77786500D01*
X231038600Y-77794500D01*
X231018600Y-77810500D01*
X231008600Y-77819500D01*
X230999600Y-77829500D01*
X230983600Y-77849500D01*
X230975600Y-77860500D01*
X230968600Y-77871500D01*
X230962600Y-77883500D01*
X230957600Y-77894500D01*
X230952600Y-77906500D01*
X230947600Y-77919500D01*
X230944600Y-77931500D01*
X230940600Y-77944500D01*
X230936600Y-77970500D01*
X230935600Y-77983500D01*
X230935600Y-78659500D01*
X230936600Y-78672500D01*
X230940600Y-78698500D01*
X230944600Y-78711500D01*
X230947600Y-78723500D01*
X230952600Y-78736500D01*
X230957600Y-78748500D01*
X230962600Y-78759500D01*
X230968600Y-78771500D01*
X230975600Y-78782500D01*
X230983600Y-78793500D01*
X230999600Y-78813500D01*
X231008600Y-78823500D01*
X231018600Y-78832500D01*
X231038600Y-78848500D01*
X231049600Y-78856500D01*
X231060600Y-78863500D01*
X231072600Y-78869500D01*
X231083600Y-78874500D01*
X231095600Y-78879500D01*
X231108600Y-78884500D01*
X231120600Y-78887500D01*
X231133600Y-78891500D01*
X231159600Y-78895500D01*
X231172600Y-78896500D01*
X231185600Y-78896500D01*
X231185600Y-79096500D01*
X229985600Y-79096500D01*
X229985600Y-77546500D01*
X231185600Y-77546500D01*
X231185600Y-77746500D01*
G37*
X231185600Y-77746500D02*
X231172600Y-77746500D01*
X231159600Y-77747500D01*
X231133600Y-77751500D01*
X231120600Y-77755500D01*
X231108600Y-77758500D01*
X231095600Y-77763500D01*
X231083600Y-77768500D01*
X231072600Y-77773500D01*
X231060600Y-77779500D01*
X231049600Y-77786500D01*
X231038600Y-77794500D01*
X231018600Y-77810500D01*
X231008600Y-77819500D01*
X230999600Y-77829500D01*
X230983600Y-77849500D01*
X230975600Y-77860500D01*
X230968600Y-77871500D01*
X230962600Y-77883500D01*
X230957600Y-77894500D01*
X230952600Y-77906500D01*
X230947600Y-77919500D01*
X230944600Y-77931500D01*
X230940600Y-77944500D01*
X230936600Y-77970500D01*
X230935600Y-77983500D01*
X230935600Y-78659500D01*
X230936600Y-78672500D01*
X230940600Y-78698500D01*
X230944600Y-78711500D01*
X230947600Y-78723500D01*
X230952600Y-78736500D01*
X230957600Y-78748500D01*
X230962600Y-78759500D01*
X230968600Y-78771500D01*
X230975600Y-78782500D01*
X230983600Y-78793500D01*
X230999600Y-78813500D01*
X231008600Y-78823500D01*
X231018600Y-78832500D01*
X231038600Y-78848500D01*
X231049600Y-78856500D01*
X231060600Y-78863500D01*
X231072600Y-78869500D01*
X231083600Y-78874500D01*
X231095600Y-78879500D01*
X231108600Y-78884500D01*
X231120600Y-78887500D01*
X231133600Y-78891500D01*
X231159600Y-78895500D01*
X231172600Y-78896500D01*
X231185600Y-78896500D01*
X231185600Y-79096500D01*
X229985600Y-79096500D01*
X229985600Y-77546500D01*
X231185600Y-77546500D01*
X231185600Y-77746500D01*
G36*
X224185600Y-77746500D02*
G01*
X224172600Y-77746500D01*
X224159600Y-77747500D01*
X224133600Y-77751500D01*
X224120600Y-77755500D01*
X224108600Y-77758500D01*
X224095600Y-77763500D01*
X224083600Y-77768500D01*
X224072600Y-77773500D01*
X224060600Y-77779500D01*
X224049600Y-77786500D01*
X224038600Y-77794500D01*
X224018600Y-77810500D01*
X224008600Y-77819500D01*
X223999600Y-77829500D01*
X223983600Y-77849500D01*
X223975600Y-77860500D01*
X223968600Y-77871500D01*
X223962600Y-77883500D01*
X223957600Y-77894500D01*
X223952600Y-77906500D01*
X223947600Y-77919500D01*
X223944600Y-77931500D01*
X223940600Y-77944500D01*
X223936600Y-77970500D01*
X223935600Y-77983500D01*
X223935600Y-78659500D01*
X223936600Y-78672500D01*
X223940600Y-78698500D01*
X223944600Y-78711500D01*
X223947600Y-78723500D01*
X223952600Y-78736500D01*
X223957600Y-78748500D01*
X223962600Y-78759500D01*
X223968600Y-78771500D01*
X223975600Y-78782500D01*
X223983600Y-78793500D01*
X223999600Y-78813500D01*
X224008600Y-78823500D01*
X224018600Y-78832500D01*
X224038600Y-78848500D01*
X224049600Y-78856500D01*
X224060600Y-78863500D01*
X224072600Y-78869500D01*
X224083600Y-78874500D01*
X224095600Y-78879500D01*
X224108600Y-78884500D01*
X224120600Y-78887500D01*
X224133600Y-78891500D01*
X224159600Y-78895500D01*
X224172600Y-78896500D01*
X224185600Y-78896500D01*
X224185600Y-79096500D01*
X224159600Y-79095500D01*
X224133600Y-79093500D01*
X224107600Y-79090500D01*
X224081600Y-79085500D01*
X224056600Y-79079500D01*
X224030600Y-79072500D01*
X224006600Y-79063500D01*
X223982600Y-79053500D01*
X223958600Y-79042500D01*
X223935600Y-79029500D01*
X223891600Y-79001500D01*
X223870600Y-78985500D01*
X223850600Y-78968500D01*
X223831600Y-78950500D01*
X223813600Y-78931500D01*
X223796600Y-78911500D01*
X223780600Y-78890500D01*
X223752600Y-78846500D01*
X223739600Y-78823500D01*
X223728600Y-78799500D01*
X223718600Y-78775500D01*
X223709600Y-78751500D01*
X223702600Y-78725500D01*
X223696600Y-78700500D01*
X223691600Y-78674500D01*
X223688600Y-78648500D01*
X223686600Y-78622500D01*
X223685600Y-78596500D01*
X223685600Y-78046500D01*
X223686600Y-78020500D01*
X223688600Y-77994500D01*
X223691600Y-77968500D01*
X223696600Y-77942500D01*
X223702600Y-77917500D01*
X223709600Y-77891500D01*
X223718600Y-77867500D01*
X223728600Y-77843500D01*
X223739600Y-77819500D01*
X223752600Y-77796500D01*
X223780600Y-77752500D01*
X223796600Y-77731500D01*
X223813600Y-77711500D01*
X223831600Y-77692500D01*
X223850600Y-77674500D01*
X223870600Y-77657500D01*
X223891600Y-77641500D01*
X223935600Y-77613500D01*
X223958600Y-77600500D01*
X223982600Y-77589500D01*
X224006600Y-77579500D01*
X224030600Y-77570500D01*
X224056600Y-77563500D01*
X224081600Y-77557500D01*
X224107600Y-77552500D01*
X224133600Y-77549500D01*
X224159600Y-77547500D01*
X224185600Y-77546500D01*
X224185600Y-77746500D01*
G37*
X224185600Y-77746500D02*
X224172600Y-77746500D01*
X224159600Y-77747500D01*
X224133600Y-77751500D01*
X224120600Y-77755500D01*
X224108600Y-77758500D01*
X224095600Y-77763500D01*
X224083600Y-77768500D01*
X224072600Y-77773500D01*
X224060600Y-77779500D01*
X224049600Y-77786500D01*
X224038600Y-77794500D01*
X224018600Y-77810500D01*
X224008600Y-77819500D01*
X223999600Y-77829500D01*
X223983600Y-77849500D01*
X223975600Y-77860500D01*
X223968600Y-77871500D01*
X223962600Y-77883500D01*
X223957600Y-77894500D01*
X223952600Y-77906500D01*
X223947600Y-77919500D01*
X223944600Y-77931500D01*
X223940600Y-77944500D01*
X223936600Y-77970500D01*
X223935600Y-77983500D01*
X223935600Y-78659500D01*
X223936600Y-78672500D01*
X223940600Y-78698500D01*
X223944600Y-78711500D01*
X223947600Y-78723500D01*
X223952600Y-78736500D01*
X223957600Y-78748500D01*
X223962600Y-78759500D01*
X223968600Y-78771500D01*
X223975600Y-78782500D01*
X223983600Y-78793500D01*
X223999600Y-78813500D01*
X224008600Y-78823500D01*
X224018600Y-78832500D01*
X224038600Y-78848500D01*
X224049600Y-78856500D01*
X224060600Y-78863500D01*
X224072600Y-78869500D01*
X224083600Y-78874500D01*
X224095600Y-78879500D01*
X224108600Y-78884500D01*
X224120600Y-78887500D01*
X224133600Y-78891500D01*
X224159600Y-78895500D01*
X224172600Y-78896500D01*
X224185600Y-78896500D01*
X224185600Y-79096500D01*
X224159600Y-79095500D01*
X224133600Y-79093500D01*
X224107600Y-79090500D01*
X224081600Y-79085500D01*
X224056600Y-79079500D01*
X224030600Y-79072500D01*
X224006600Y-79063500D01*
X223982600Y-79053500D01*
X223958600Y-79042500D01*
X223935600Y-79029500D01*
X223891600Y-79001500D01*
X223870600Y-78985500D01*
X223850600Y-78968500D01*
X223831600Y-78950500D01*
X223813600Y-78931500D01*
X223796600Y-78911500D01*
X223780600Y-78890500D01*
X223752600Y-78846500D01*
X223739600Y-78823500D01*
X223728600Y-78799500D01*
X223718600Y-78775500D01*
X223709600Y-78751500D01*
X223702600Y-78725500D01*
X223696600Y-78700500D01*
X223691600Y-78674500D01*
X223688600Y-78648500D01*
X223686600Y-78622500D01*
X223685600Y-78596500D01*
X223685600Y-78046500D01*
X223686600Y-78020500D01*
X223688600Y-77994500D01*
X223691600Y-77968500D01*
X223696600Y-77942500D01*
X223702600Y-77917500D01*
X223709600Y-77891500D01*
X223718600Y-77867500D01*
X223728600Y-77843500D01*
X223739600Y-77819500D01*
X223752600Y-77796500D01*
X223780600Y-77752500D01*
X223796600Y-77731500D01*
X223813600Y-77711500D01*
X223831600Y-77692500D01*
X223850600Y-77674500D01*
X223870600Y-77657500D01*
X223891600Y-77641500D01*
X223935600Y-77613500D01*
X223958600Y-77600500D01*
X223982600Y-77589500D01*
X224006600Y-77579500D01*
X224030600Y-77570500D01*
X224056600Y-77563500D01*
X224081600Y-77557500D01*
X224107600Y-77552500D01*
X224133600Y-77549500D01*
X224159600Y-77547500D01*
X224185600Y-77546500D01*
X224185600Y-77746500D01*
G36*
X225385600Y-79096500D02*
G01*
X224185600Y-79096500D01*
X224185600Y-78896500D01*
X224198600Y-78896500D01*
X224211600Y-78895500D01*
X224237600Y-78891500D01*
X224250600Y-78887500D01*
X224262600Y-78884500D01*
X224275600Y-78879500D01*
X224287600Y-78874500D01*
X224298600Y-78869500D01*
X224310600Y-78863500D01*
X224321600Y-78856500D01*
X224332600Y-78848500D01*
X224352600Y-78832500D01*
X224362600Y-78823500D01*
X224371600Y-78813500D01*
X224387600Y-78793500D01*
X224395600Y-78782500D01*
X224402600Y-78771500D01*
X224408600Y-78759500D01*
X224413600Y-78748500D01*
X224418600Y-78736500D01*
X224423600Y-78723500D01*
X224426600Y-78711500D01*
X224430600Y-78698500D01*
X224434600Y-78672500D01*
X224435600Y-78659500D01*
X224435600Y-77983500D01*
X224434600Y-77970500D01*
X224430600Y-77944500D01*
X224426600Y-77931500D01*
X224423600Y-77919500D01*
X224418600Y-77906500D01*
X224413600Y-77894500D01*
X224408600Y-77883500D01*
X224402600Y-77871500D01*
X224395600Y-77860500D01*
X224387600Y-77849500D01*
X224371600Y-77829500D01*
X224362600Y-77819500D01*
X224352600Y-77810500D01*
X224332600Y-77794500D01*
X224321600Y-77786500D01*
X224310600Y-77779500D01*
X224298600Y-77773500D01*
X224287600Y-77768500D01*
X224275600Y-77763500D01*
X224262600Y-77758500D01*
X224250600Y-77755500D01*
X224237600Y-77751500D01*
X224211600Y-77747500D01*
X224198600Y-77746500D01*
X224185600Y-77746500D01*
X224185600Y-77546500D01*
X225385600Y-77546500D01*
X225385600Y-79096500D01*
G37*
X225385600Y-79096500D02*
X224185600Y-79096500D01*
X224185600Y-78896500D01*
X224198600Y-78896500D01*
X224211600Y-78895500D01*
X224237600Y-78891500D01*
X224250600Y-78887500D01*
X224262600Y-78884500D01*
X224275600Y-78879500D01*
X224287600Y-78874500D01*
X224298600Y-78869500D01*
X224310600Y-78863500D01*
X224321600Y-78856500D01*
X224332600Y-78848500D01*
X224352600Y-78832500D01*
X224362600Y-78823500D01*
X224371600Y-78813500D01*
X224387600Y-78793500D01*
X224395600Y-78782500D01*
X224402600Y-78771500D01*
X224408600Y-78759500D01*
X224413600Y-78748500D01*
X224418600Y-78736500D01*
X224423600Y-78723500D01*
X224426600Y-78711500D01*
X224430600Y-78698500D01*
X224434600Y-78672500D01*
X224435600Y-78659500D01*
X224435600Y-77983500D01*
X224434600Y-77970500D01*
X224430600Y-77944500D01*
X224426600Y-77931500D01*
X224423600Y-77919500D01*
X224418600Y-77906500D01*
X224413600Y-77894500D01*
X224408600Y-77883500D01*
X224402600Y-77871500D01*
X224395600Y-77860500D01*
X224387600Y-77849500D01*
X224371600Y-77829500D01*
X224362600Y-77819500D01*
X224352600Y-77810500D01*
X224332600Y-77794500D01*
X224321600Y-77786500D01*
X224310600Y-77779500D01*
X224298600Y-77773500D01*
X224287600Y-77768500D01*
X224275600Y-77763500D01*
X224262600Y-77758500D01*
X224250600Y-77755500D01*
X224237600Y-77751500D01*
X224211600Y-77747500D01*
X224198600Y-77746500D01*
X224185600Y-77746500D01*
X224185600Y-77546500D01*
X225385600Y-77546500D01*
X225385600Y-79096500D01*
%TO.C,U4*%
G36*
X220702480Y-92228800D02*
G01*
X219450000Y-92228800D01*
X219450000Y-90979213D01*
X220702480Y-90979213D01*
X220702480Y-92228800D01*
G37*
D11*
X220702480Y-92228800D02*
X219450000Y-92228800D01*
X219450000Y-90979213D01*
X220702480Y-90979213D01*
X220702480Y-92228800D01*
G36*
X218949938Y-92228800D02*
G01*
X217700000Y-92228800D01*
X217700000Y-90978862D01*
X218949938Y-90978862D01*
X218949938Y-92228800D01*
G37*
X218949938Y-92228800D02*
X217700000Y-92228800D01*
X217700000Y-90978862D01*
X218949938Y-90978862D01*
X218949938Y-92228800D01*
G36*
X220702520Y-90478800D02*
G01*
X219450000Y-90478800D01*
X219450000Y-89226280D01*
X220702520Y-89226280D01*
X220702520Y-90478800D01*
G37*
X220702520Y-90478800D02*
X219450000Y-90478800D01*
X219450000Y-89226280D01*
X220702520Y-89226280D01*
X220702520Y-90478800D01*
G36*
X218949544Y-90478800D02*
G01*
X217700000Y-90478800D01*
X217700000Y-89226070D01*
X218949544Y-89226070D01*
X218949544Y-90478800D01*
G37*
X218949544Y-90478800D02*
X217700000Y-90478800D01*
X217700000Y-89226070D01*
X218949544Y-89226070D01*
X218949544Y-90478800D01*
%TD*%
D12*
%TO.C,J1*%
X192938400Y-104241600D03*
X192938400Y-103124000D03*
%TD*%
D13*
%TO.C,J2*%
X196494400Y-78028800D03*
X197612000Y-78028800D03*
%TD*%
D14*
%TO.C,D4*%
X231470200Y-103555800D03*
X228422200Y-103555800D03*
%TD*%
D15*
%TO.C,B1*%
X185056800Y-99136401D03*
X190456800Y-99136401D03*
X185056800Y-102336399D03*
X190456800Y-102336399D03*
%TD*%
D16*
%TO.C,Q1*%
X170338750Y-89596001D03*
X170338750Y-88646000D03*
X170338750Y-87695999D03*
X167786050Y-87695999D03*
X167786050Y-89596001D03*
%TD*%
D17*
%TO.C,C2*%
X191908800Y-86461600D03*
X190208800Y-86461600D03*
%TD*%
D18*
%TO.C,R8*%
X231063800Y-85854600D03*
X231063800Y-84274600D03*
%TD*%
D19*
%TO.C,R16*%
X163477000Y-89611200D03*
X161897000Y-89611200D03*
%TD*%
D20*
%TO.C,D1*%
X214134000Y-79104400D03*
X215634000Y-79104400D03*
X215634000Y-80204400D03*
X214134000Y-80204400D03*
%TD*%
D21*
%TO.C,D2*%
X221164430Y-78803500D03*
X221164430Y-82486500D03*
%TD*%
D22*
%TO.C,C13*%
X167264600Y-99923600D03*
X169906200Y-99923600D03*
%TD*%
D17*
%TO.C,C8*%
X191604000Y-92049600D03*
X189904000Y-92049600D03*
%TD*%
D23*
%TO.C,Y1*%
X185641600Y-91530600D03*
X187941600Y-91530600D03*
X187941600Y-93330600D03*
X185641600Y-93330600D03*
%TD*%
D17*
%TO.C,C14*%
X190132600Y-89433400D03*
X191832600Y-89433400D03*
%TD*%
%TO.C,C9*%
X191604000Y-93802200D03*
X189904000Y-93802200D03*
%TD*%
D24*
%TO.C,C3*%
X192989200Y-99403800D03*
X192989200Y-101103800D03*
%TD*%
D17*
%TO.C,C18*%
X223025600Y-87985600D03*
X224725600Y-87985600D03*
%TD*%
%TO.C,C6*%
X211671800Y-82905600D03*
X213371800Y-82905600D03*
%TD*%
D25*
%TO.C,D3*%
X156781500Y-92919830D03*
X153098500Y-92919830D03*
%TD*%
D18*
%TO.C,R2*%
X216128600Y-83822600D03*
X216128600Y-82242600D03*
%TD*%
%TO.C,R4*%
X229438200Y-92407800D03*
X229438200Y-90827800D03*
%TD*%
%TO.C,R9*%
X232841800Y-84249200D03*
X232841800Y-85829200D03*
%TD*%
D19*
%TO.C,R17*%
X187347800Y-78384400D03*
X188927800Y-78384400D03*
%TD*%
D26*
%TO.C,U3*%
X198437500Y-102235000D03*
X198437500Y-103505000D03*
X198437500Y-104775000D03*
X198437500Y-106045000D03*
X205727300Y-106045000D03*
X205727300Y-104775000D03*
X205727300Y-103505000D03*
X205727300Y-102235000D03*
%TD*%
D18*
%TO.C,R19*%
X174371000Y-88211600D03*
X174371000Y-89791600D03*
%TD*%
D27*
%TO.C,P3*%
X228985600Y-81021500D03*
X228335600Y-81021500D03*
X227685600Y-81021500D03*
X227035600Y-81021500D03*
X226385600Y-81021500D03*
D28*
X226685600Y-78321500D03*
X228685600Y-78321500D03*
%TD*%
D18*
%TO.C,R3*%
X210642200Y-80190400D03*
X210642200Y-78610400D03*
%TD*%
D17*
%TO.C,C17*%
X223025600Y-86055200D03*
X224725600Y-86055200D03*
%TD*%
D24*
%TO.C,C19*%
X172085000Y-90004000D03*
X172085000Y-88304000D03*
%TD*%
D18*
%TO.C,R10*%
X208457800Y-106403200D03*
X208457800Y-104823200D03*
%TD*%
D29*
%TO.C,U4*%
X220700000Y-93318800D03*
X220200000Y-93318800D03*
X219700000Y-93318800D03*
X219200000Y-93318800D03*
X218700000Y-93318800D03*
X218200000Y-93318800D03*
X217700000Y-93318800D03*
D30*
X216610000Y-92228800D03*
X216610000Y-91728800D03*
X216610000Y-91228800D03*
X216610000Y-90728800D03*
X216610000Y-90228800D03*
X216610000Y-89728800D03*
X216610000Y-89228800D03*
D29*
X217700000Y-88138800D03*
X218200000Y-88138800D03*
X218700000Y-88138800D03*
X219200000Y-88138800D03*
X219700000Y-88138800D03*
X220200000Y-88138800D03*
X220700000Y-88138800D03*
D30*
X221790000Y-89228800D03*
X221790000Y-89728800D03*
X221790000Y-90228800D03*
X221790000Y-90728800D03*
X221790000Y-91228800D03*
X221790000Y-91728800D03*
X221790000Y-92228800D03*
%TD*%
D18*
%TO.C,R12*%
X219430600Y-84427000D03*
X219430600Y-86007000D03*
%TD*%
D31*
%TO.C,D5*%
X227116599Y-85998748D03*
X228066600Y-85998748D03*
X229016601Y-85998748D03*
X229016601Y-83266852D03*
X227116599Y-83266852D03*
%TD*%
D24*
%TO.C,C22*%
X190804800Y-80987000D03*
X190804800Y-79287000D03*
%TD*%
D32*
%TO.C,U1*%
X195704500Y-80508800D03*
X196204500Y-80508800D03*
X196704500Y-80508800D03*
X197204500Y-80508800D03*
X197704500Y-80508800D03*
X198204500Y-80508800D03*
X198704500Y-80508800D03*
X199204500Y-80508800D03*
X199704500Y-80508800D03*
X200204500Y-80508800D03*
X200704500Y-80508800D03*
X201204500Y-80508800D03*
X201704500Y-80508800D03*
X202204500Y-80508800D03*
X202704500Y-80508800D03*
X203204500Y-80508800D03*
X203704500Y-80508800D03*
X204204500Y-80508800D03*
X204704500Y-80508800D03*
X205204500Y-80508800D03*
X205704500Y-80508800D03*
X206204500Y-80508800D03*
X206704500Y-80508800D03*
X207204500Y-80508800D03*
X207704500Y-80508800D03*
D33*
X209384500Y-82188800D03*
X209384500Y-82688800D03*
X209384500Y-83188800D03*
X209384500Y-83688800D03*
X209384500Y-84188800D03*
X209384500Y-84688800D03*
X209384500Y-85188800D03*
X209384500Y-85688800D03*
X209384500Y-86188800D03*
X209384500Y-86688800D03*
X209384500Y-87188800D03*
X209384500Y-87688800D03*
X209384500Y-88188800D03*
X209384500Y-88688800D03*
X209384500Y-89188800D03*
X209384500Y-89688800D03*
X209384500Y-90188800D03*
X209384500Y-90688800D03*
X209384500Y-91188800D03*
X209384500Y-91688800D03*
X209384500Y-92188800D03*
X209384500Y-92688800D03*
X209384500Y-93188800D03*
X209384500Y-93688800D03*
X209384500Y-94188800D03*
D32*
X207704500Y-95868800D03*
X207204500Y-95868800D03*
X206704500Y-95868800D03*
X206204500Y-95868800D03*
X205704500Y-95868800D03*
X205204500Y-95868800D03*
X204704500Y-95868800D03*
X204204500Y-95868800D03*
X203704500Y-95868800D03*
X203204500Y-95868800D03*
X202704500Y-95868800D03*
X202204500Y-95868800D03*
X201704500Y-95868800D03*
X201204500Y-95868800D03*
X200704500Y-95868800D03*
X200204500Y-95868800D03*
X199704500Y-95868800D03*
X199204500Y-95868800D03*
X198704500Y-95868800D03*
X198204500Y-95868800D03*
X197704500Y-95868800D03*
X197204500Y-95868800D03*
X196704500Y-95868800D03*
X196204500Y-95868800D03*
X195704500Y-95868800D03*
D33*
X194024500Y-94188800D03*
X194024500Y-93688800D03*
X194024500Y-93188800D03*
X194024500Y-92688800D03*
X194024500Y-92188800D03*
X194024500Y-91688800D03*
X194024500Y-91188800D03*
X194024500Y-90688800D03*
X194024500Y-90188800D03*
X194024500Y-89688800D03*
X194024500Y-89188800D03*
X194024500Y-88688800D03*
X194024500Y-88188800D03*
X194024500Y-87688800D03*
X194024500Y-87188800D03*
X194024500Y-86688800D03*
X194024500Y-86188800D03*
X194024500Y-85688800D03*
X194024500Y-85188800D03*
X194024500Y-84688800D03*
X194024500Y-84188800D03*
X194024500Y-83688800D03*
X194024500Y-83188800D03*
X194024500Y-82688800D03*
X194024500Y-82188800D03*
%TD*%
D17*
%TO.C,C11*%
X205042400Y-98247200D03*
X206742400Y-98247200D03*
%TD*%
%TO.C,C15*%
X212154400Y-84632800D03*
X213854400Y-84632800D03*
%TD*%
D19*
%TO.C,R6*%
X228876800Y-107416600D03*
X230456800Y-107416600D03*
%TD*%
%TO.C,R14*%
X162024000Y-87655400D03*
X163604000Y-87655400D03*
%TD*%
D24*
%TO.C,C4*%
X209270600Y-96559000D03*
X209270600Y-98259000D03*
%TD*%
D18*
%TO.C,R7*%
X196113400Y-102410200D03*
X196113400Y-103990200D03*
%TD*%
D34*
%TO.C,C10*%
X152831800Y-96596200D03*
X152831800Y-99237800D03*
%TD*%
D19*
%TO.C,R18*%
X185696800Y-83718400D03*
X187276800Y-83718400D03*
%TD*%
D17*
%TO.C,C12*%
X185941600Y-95300800D03*
X187641600Y-95300800D03*
%TD*%
D16*
%TO.C,Q2*%
X179584350Y-89545201D03*
X179584350Y-88595200D03*
X179584350Y-87645199D03*
X177031650Y-87645199D03*
X177031650Y-89545201D03*
%TD*%
D15*
%TO.C,B2*%
X179839600Y-102463399D03*
X174439600Y-102463399D03*
X179839600Y-99263401D03*
X174439600Y-99263401D03*
%TD*%
D24*
%TO.C,C7*%
X196088000Y-98210000D03*
X196088000Y-99910000D03*
%TD*%
D35*
%TO.C,U5*%
X168833800Y-94066401D03*
X168833800Y-93116400D03*
X168833800Y-92166399D03*
X166446200Y-92166399D03*
X166446200Y-94066401D03*
%TD*%
D36*
%TO.C,U2*%
X162746600Y-99785200D03*
D37*
X156946600Y-97485200D03*
D36*
X162746600Y-97485200D03*
X162746600Y-95185200D03*
%TD*%
D19*
%TO.C,R15*%
X167662800Y-96189800D03*
X169242800Y-96189800D03*
%TD*%
%TO.C,R20*%
X183766400Y-86918800D03*
X185346400Y-86918800D03*
%TD*%
D35*
%TO.C,U8*%
X181305200Y-95463401D03*
X181305200Y-94513400D03*
X181305200Y-93563399D03*
X178917600Y-93563399D03*
X178917600Y-95463401D03*
%TD*%
D18*
%TO.C,R11*%
X183896000Y-83385600D03*
X183896000Y-84965600D03*
%TD*%
%TO.C,R13*%
X214452200Y-88618000D03*
X214452200Y-90198000D03*
%TD*%
D35*
%TO.C,U7*%
X174345600Y-96301601D03*
X174345600Y-95351600D03*
X174345600Y-94401599D03*
X171958000Y-94401599D03*
X171958000Y-96301601D03*
%TD*%
D19*
%TO.C,R5*%
X228780400Y-94869000D03*
X227200400Y-94869000D03*
%TD*%
D24*
%TO.C,C20*%
X181406800Y-89597600D03*
X181406800Y-87897600D03*
%TD*%
D18*
%TO.C,R21*%
X176555400Y-93952000D03*
X176555400Y-95532000D03*
%TD*%
D38*
%TO.C,U6*%
X188261300Y-80492100D03*
X187761300Y-80492100D03*
D39*
X187248800Y-80754600D03*
X187248800Y-81254600D03*
X187248800Y-81754600D03*
D38*
X187761300Y-82017100D03*
X188261300Y-82017100D03*
D39*
X188773800Y-81754600D03*
X188773800Y-81254600D03*
X188773800Y-80754600D03*
%TD*%
D18*
%TO.C,R1*%
X217601800Y-80673000D03*
X217601800Y-79093000D03*
%TD*%
D24*
%TO.C,C21*%
X185191400Y-78931400D03*
X185191400Y-80631400D03*
%TD*%
D17*
%TO.C,C1*%
X208495000Y-78028800D03*
X206795000Y-78028800D03*
%TD*%
%TO.C,C5*%
X194652000Y-78232000D03*
X192952000Y-78232000D03*
%TD*%
D24*
%TO.C,C16*%
X182702200Y-100013400D03*
X182702200Y-101713400D03*
%TD*%
D18*
%TO.C,R22*%
X183311800Y-94465200D03*
X183311800Y-92885200D03*
%TD*%
M02*
